<?xml version="1.0" encoding="UTF-8" standalone="no"?>
<svg
   sodipodi:docname="org.gnome.Totem-symbolic.svg"
   id="svg8"
   version="1.1"
   viewBox="0 0 4.2333333 4.2333334"
   height="16"
   width="16"
   inkscape:version="1.2.2 (b0a8486541, 2022-12-01)"
   xmlns:inkscape="http://www.inkscape.org/namespaces/inkscape"
   xmlns:sodipodi="http://sodipodi.sourceforge.net/DTD/sodipodi-0.dtd"
   xmlns="http://www.w3.org/2000/svg"
   xmlns:svg="http://www.w3.org/2000/svg">
  <defs
     id="defs2" />
  <sodipodi:namedview
     inkscape:window-maximized="1"
     inkscape:window-y="0"
     inkscape:window-x="0"
     inkscape:window-height="1011"
     inkscape:window-width="1920"
     units="px"
     showgrid="false"
     inkscape:document-rotation="0"
     inkscape:current-layer="g1156"
     inkscape:document-units="px"
     inkscape:cy="12.625"
     inkscape:cx="3.890625"
     inkscape:zoom="32"
     inkscape:pageshadow="2"
     inkscape:pageopacity="0.0"
     borderopacity="1.0"
     bordercolor="#666666"
     pagecolor="#ffffff"
     id="base"
     inkscape:showpageshadow="2"
     inkscape:pagecheckerboard="0"
     inkscape:deskcolor="#d1d1d1" />
  <g
     inkscape:label="Graphic"
     id="g1156"
     inkscape:groupmode="layer"
     style="display:inline">
    <g
       id="g685">
      <path
         id="path847"
         style="color:#000000;font-style:normal;font-variant:normal;font-weight:normal;font-stretch:normal;font-size:medium;line-height:normal;font-family:sans-serif;font-variant-ligatures:normal;font-variant-position:normal;font-variant-caps:normal;font-variant-numeric:normal;font-variant-alternates:normal;font-variant-east-asian:normal;font-feature-settings:normal;font-variation-settings:normal;text-indent:0;text-align:start;text-decoration:none;text-decoration-line:none;text-decoration-style:solid;text-decoration-color:#000000;letter-spacing:normal;word-spacing:normal;text-transform:none;writing-mode:lr-tb;direction:ltr;text-orientation:mixed;dominant-baseline:auto;baseline-shift:baseline;text-anchor:start;white-space:normal;shape-padding:0;shape-margin:0;inline-size:0;clip-rule:nonzero;display:inline;overflow:visible;visibility:visible;opacity:1;isolation:auto;mix-blend-mode:normal;color-interpolation:sRGB;color-interpolation-filters:linearRGB;solid-color:#000000;solid-opacity:1;vector-effect:none;fill:#000000;fill-opacity:1;fill-rule:nonzero;stroke:none;stroke-width:0.242887;stroke-linecap:round;stroke-linejoin:round;stroke-miterlimit:4;stroke-dasharray:none;stroke-dashoffset:0;stroke-opacity:1;color-rendering:auto;image-rendering:auto;shape-rendering:auto;text-rendering:auto;enable-background:accumulate;stop-color:#000000"
         d="m 1.5996809,1.2662989 a 0.12150464,0.12150464 0 0 0 -0.1223623,0.121513 v 0.728933 0.728933 a 0.12150464,0.12150464 0 0 0 0.1821963,0.105198 l 0.6313014,-0.364429 0.6312646,-0.364504 a 0.12150464,0.12150464 0 0 0 0,-0.210397 L 2.2908163,1.6470059 1.6595149,1.2826129 a 0.12150464,0.12150464 0 0 0 -0.059834,-0.01631 z" />
      <path
         id="rect1168-3"
         style="color:#000000;display:inline;fill:#000000;stroke-width:1.00022;-inkscape-stroke:none;paint-order:stroke fill markers"
         d="m 0.46757228,0.52916667 c -0.2562651,0 -0.46715490222,0.2108894 -0.46715490222,0.4671549 -9.391e-4,0.74919373 0,1.49149643 0,2.24069003 0,0.2562657 0.21088970222,0.467155 0.46715490222,0.467155 H 3.7686629 c 0.2562649,0 0.4650878,-0.2108893 0.4650878,-0.467155 0,-0.7468967 0,-1.4937933 0,-2.24069003 0,-0.2562655 -0.2088227,-0.4671549 -0.4650878,-0.4671549 z m 0,0.2635498 H 3.7686629 c 0.1142072,0 0.2015379,0.089398 0.2015379,0.2036051 -9.26e-4,0.74919353 0,1.49149653 0,2.24069003 0,0.1142072 -0.087331,0.2036051 -0.2015379,0.2036051 H 0.46757228 c -0.1142072,0 -0.2036051,-0.089398 -0.2036051,-0.2036051 0,-0.7468967 0,-1.4937933 0,-2.24069003 0,-0.114207 0.089398,-0.2036051 0.2036051,-0.2036051 z"
         sodipodi:nodetypes="sccssccssssccssccs" />
    </g>
  </g>
</svg>
