<?xml version="1.0" encoding="UTF-8" standalone="no"?>
<svg
   sodipodi:docname="org.gnome.Calendar-symbolic.symbolic.svg"
   id="svg8"
   version="1.1"
   viewBox="0 0 4.2333333 4.2333334"
   height="16"
   width="16"
   xmlns:inkscape="http://www.inkscape.org/namespaces/inkscape"
   xmlns:sodipodi="http://sodipodi.sourceforge.net/DTD/sodipodi-0.dtd"
   xmlns="http://www.w3.org/2000/svg"
   xmlns:svg="http://www.w3.org/2000/svg">
  <defs
     id="defs2" />
  <sodipodi:namedview
     inkscape:window-maximized="1"
     inkscape:window-y="27"
     inkscape:window-x="1920"
     inkscape:window-height="1016"
     inkscape:window-width="1920"
     units="px"
     showgrid="false"
     inkscape:document-rotation="0"
     inkscape:current-layer="g1156"
     inkscape:document-units="px"
     inkscape:cy="10.407728"
     inkscape:cx="11.799844"
     inkscape:zoom="22.627417"
     inkscape:pageshadow="2"
     inkscape:pageopacity="0.0"
     borderopacity="1.0"
     bordercolor="#666666"
     pagecolor="#ffffff"
     id="base"
     inkscape:pagecheckerboard="0"
     inkscape:showpageshadow="2"
     inkscape:deskcolor="#d1d1d1" />
  <g
     inkscape:label="Graphic"
     id="g1156"
     inkscape:groupmode="layer"
     style="display:inline">
    <g
       id="g870">
      <path
         id="path839"
         style="font-size:33.8667px;line-height:1.25;font-family:Cantarell;-inkscape-font-specification:Cantarell;white-space:pre;stroke-width:0.313457"
         d="M 9.9511719 4.2109375 C 8.5637696 4.2414988 7.5859375 5.2298922 7.5859375 6.640625 C 7.5859375 7.9675933 8.4565813 8.8496094 9.7304688 8.8496094 C 10.632806 8.8496094 11.387365 8.4132771 11.769531 7.6914062 L 11.769531 7.9042969 C 11.769531 9.9743672 11.015591 11.015625 9.4550781 11.015625 C 8.9455234 11.015625 8.402639 10.898462 7.9355469 10.654297 L 7.6816406 11.34375 C 8.2655058 11.651608 8.8176282 11.789063 9.4121094 11.789062 C 11.450329 11.789062 12.628906 10.292425 12.628906 7.7871094 C 12.628906 5.5259556 11.673631 4.2109356 10.017578 4.2109375 C 9.9953514 4.2109375 9.9731941 4.2104524 9.9511719 4.2109375 z M 5.25 4.3164062 L 2.6289062 5.6757812 L 2.9472656 6.2792969 L 4.921875 5.3359375 L 4.921875 11.736328 L 5.7597656 11.736328 L 5.7597656 4.3164062 L 5.25 4.3164062 z M 9.9101562 4.9746094 C 10.897419 4.9746094 11.513995 5.6532476 11.705078 6.9589844 C 11.418454 7.6914708 10.781405 8.1171875 9.9746094 8.1171875 C 9.0191936 8.1171875 8.4238281 7.5011888 8.4238281 6.5351562 C 8.4238281 5.6009704 8.9865883 4.9746094 9.9101562 4.9746094 z "
         transform="scale(0.26458333)" />
      <g
         id="g888">
        <path
           id="path869"
           style="display:inline;fill:none;fill-opacity:1;stroke:#000000;stroke-width:0.264583;stroke-miterlimit:4;stroke-dasharray:none;paint-order:stroke fill markers"
           d="m 0.46660821,0.13229167 c -0.18519637,0 -0.33431654,0.14912016 -0.33431654,0.33431655 V 2.1166666 3.7667252 c 0,0.1851963 0.14912017,0.3343165 0.33431654,0.3343165 H 3.7667252 c 0.1851963,0 0.3343165,-0.1491202 0.3343165,-0.3343165 V 2.1166666 0.46660822 c 0,-0.18519639 -0.1491202,-0.33431655 -0.3343165,-0.33431655 z" />
        <path
           style="fill:#000000;fill-opacity:1;stroke:none;stroke-width:0.00219642;stroke-linecap:round;stroke-linejoin:round;stroke-miterlimit:4;stroke-dasharray:none;paint-order:markers fill stroke"
           d="m 3.8037126,1.7386905 c -0.050888,0 -0.091873,0.040986 -0.091873,0.091873 v 0.5722057 c 0,0.050888 0.040985,0.091873 0.091873,0.091873 H 3.9953214 V 1.7386905 Z"
           id="path876" />
        <path
           style="fill:#000000;fill-opacity:1;stroke:none;stroke-width:0.00219642;stroke-linecap:round;stroke-linejoin:round;stroke-miterlimit:4;stroke-dasharray:none;paint-order:markers fill stroke"
           d="m 0.238125,1.7386905 v 0.7559524 h 0.19160884 c 0.0508879,0 0.0918733,-0.040986 0.0918733,-0.091873 V 1.8305638 c 0,-0.050888 -0.0409854,-0.091873 -0.0918733,-0.091873 z"
           id="rect923" />
      </g>
    </g>
  </g>
</svg>
