<?xml version="1.0" encoding="UTF-8" standalone="no"?>
<svg
   sodipodi:docname="org.gnome.Mines-symbolic.symbolic.svg"
   id="svg8"
   version="1.1"
   viewBox="0 0 4.2333333 4.2333334"
   height="16"
   width="16"
   xmlns:inkscape="http://www.inkscape.org/namespaces/inkscape"
   xmlns:sodipodi="http://sodipodi.sourceforge.net/DTD/sodipodi-0.dtd"
   xmlns="http://www.w3.org/2000/svg"
   xmlns:svg="http://www.w3.org/2000/svg">
  <defs
     id="defs2" />
  <sodipodi:namedview
     inkscape:window-maximized="1"
     inkscape:window-y="27"
     inkscape:window-x="1920"
     inkscape:window-height="1016"
     inkscape:window-width="1920"
     units="px"
     showgrid="false"
     inkscape:document-rotation="0"
     inkscape:current-layer="layer3"
     inkscape:document-units="px"
     inkscape:cy="6.5750256"
     inkscape:cx="21.052218"
     inkscape:zoom="14.481547"
     inkscape:pageshadow="2"
     inkscape:pageopacity="0.0"
     borderopacity="1.0"
     bordercolor="#666666"
     pagecolor="#ffffff"
     id="base"
     inkscape:showpageshadow="2"
     inkscape:pagecheckerboard="0"
     inkscape:deskcolor="#d1d1d1" />
  <g
     inkscape:groupmode="layer"
     id="layer3"
     inkscape:label="Graphic"
     style="display:inline;opacity:1;">
    <path
       id="path990"
       style="fill:#000000;fill-opacity:1;stroke-width:0.0197127;stroke-linecap:round;stroke-linejoin:round;paint-order:markers fill stroke"
       d="M 5.0625 1.0058594 C 4.9785746 1.0163747 4.8964456 1.0428075 4.8183594 1.0878906 L 4.1816406 1.4550781 C 3.8692958 1.6354105 3.763027 2.0314051 3.9433594 2.34375 L 4.5175781 3.3359375 A 5.3030304 5.3030304 0 0 0 3.4082031 4.6816406 A 5.3030304 5.3030304 0 0 0 2.7949219 6.3144531 L 1.6503906 6.3144531 C 1.2897258 6.3144531 1 6.6061321 1 6.9667969 L 1 7.7011719 C 1 8.0618367 1.2897258 8.3515625 1.6503906 8.3515625 L 2.796875 8.3515625 A 5.3030304 5.3030304 0 0 0 4.5175781 11.332031 L 3.9433594 12.322266 C 3.763027 12.63461 3.8692958 13.032558 4.1816406 13.212891 L 4.8183594 13.580078 C 5.1307042 13.760411 5.5266988 13.654142 5.7070312 13.341797 L 6.2792969 12.349609 A 5.3030304 5.3030304 0 0 0 6.5976562 12.447266 A 1.384856 1.384856 0 0 0 7.8300781 13.646484 L 7.8300781 13.947266 A 0.69237184 0.6925683 0 0 0 7.2773438 14.625 L 7.2773438 15.179688 A 0.69237184 0.6925683 0 0 0 7.8300781 15.857422 L 7.8300781 16 L 8.109375 16 L 8.109375 15.857422 A 0.69237184 0.6925683 0 0 0 8.6621094 15.179688 L 8.6621094 14.625 A 0.69237184 0.6925683 0 0 0 8.109375 13.947266 L 8.109375 13.648438 A 1.384856 1.384856 0 0 0 9.3398438 12.462891 A 5.3030304 5.3030304 0 0 0 9.7207031 12.347656 L 10.292969 13.341797 C 10.473301 13.654142 10.869296 13.760411 11.181641 13.580078 L 11.818359 13.212891 C 12.130704 13.032558 12.236973 12.63461 12.056641 12.322266 L 11.484375 11.332031 A 5.3030304 5.3030304 0 0 0 12.591797 9.984375 A 5.3030304 5.3030304 0 0 0 13.205078 8.3515625 L 14.349609 8.3515625 C 14.710274 8.3515625 15 8.0618367 15 7.7011719 L 15 6.9667969 C 15 6.6061321 14.710274 6.3144531 14.349609 6.3144531 L 13.203125 6.3144531 A 5.3030304 5.3030304 0 0 0 11.482422 3.3359375 L 12.056641 2.34375 C 12.236973 2.0314051 12.130704 1.6354105 11.818359 1.4550781 L 11.181641 1.0878906 C 10.869296 0.90755822 10.473301 1.013827 10.292969 1.3261719 L 9.7207031 2.3183594 A 5.3030304 5.3030304 0 0 0 6.2792969 2.3183594 L 5.7070312 1.3261719 C 5.571782 1.0919132 5.3142763 0.97431328 5.0625 1.0058594 z M 7.1972656 12.574219 A 5.3030304 5.3030304 0 0 0 8.7382812 12.585938 A 0.83091356 0.83091356 0 0 1 8.109375 13.089844 L 8.109375 12.685547 L 7.8300781 12.685547 L 7.8300781 13.089844 A 0.83091356 0.83091356 0 0 1 7.1972656 12.574219 z M 7.8300781 14.234375 L 7.8300781 14.625 L 8.109375 14.625 L 8.109375 14.234375 A 0.4154231 0.41554095 0 0 1 8.3847656 14.625 L 8.3847656 15.179688 A 0.4154231 0.41554095 0 0 1 8.109375 15.570312 L 8.109375 15.179688 L 7.8300781 15.179688 L 7.8300781 15.568359 A 0.4154231 0.41554095 0 0 1 7.5546875 15.179688 L 7.5546875 14.625 A 0.4154231 0.41554095 0 0 1 7.8300781 14.234375 z "
       transform="scale(0.26458333)" />
  </g>
</svg>
