<?xml version="1.0" encoding="UTF-8" standalone="no"?>
<svg
   sodipodi:docname="org.gtk.PrintEditor4-symbolic.symbolic.svg"
   id="svg8"
   version="1.1"
   viewBox="0 0 4.2333333 4.2333334"
   height="16"
   width="16"
   xmlns:inkscape="http://www.inkscape.org/namespaces/inkscape"
   xmlns:sodipodi="http://sodipodi.sourceforge.net/DTD/sodipodi-0.dtd"
   xmlns="http://www.w3.org/2000/svg"
   xmlns:svg="http://www.w3.org/2000/svg">
  <defs
     id="defs2" />
  <sodipodi:namedview
     inkscape:window-maximized="1"
     inkscape:window-y="27"
     inkscape:window-x="1920"
     inkscape:window-height="1016"
     inkscape:window-width="1920"
     units="px"
     showgrid="false"
     inkscape:document-rotation="0"
     inkscape:current-layer="g1156"
     inkscape:document-units="px"
     inkscape:cy="13.412567"
     inkscape:cx="5.8775113"
     inkscape:zoom="16.000001"
     inkscape:pageshadow="2"
     inkscape:pageopacity="0.0"
     borderopacity="1.0"
     bordercolor="#666666"
     pagecolor="#ffffff"
     id="base"
     inkscape:showpageshadow="2"
     inkscape:pagecheckerboard="0"
     inkscape:deskcolor="#d1d1d1" />
  <g
     inkscape:groupmode="layer"
     id="layer1"
     inkscape:label="Background"
     style="display:inline">
    <g
       style="display:inline"
       inkscape:label="Colour"
       id="g1174"
       inkscape:groupmode="layer">
      <path
         id="rect1168"
         style="display:inline;fill:#000000;fill-opacity:1;stroke-width:0.00176389;stroke-miterlimit:4;stroke-dasharray:none;paint-order:stroke fill markers"
         d="M 0.3566043,0 C 0.1590615,0 0,0.1590615 0,0.3566043 V 3.876729 C 0,4.0742719 0.1590615,4.2333333 0.3566043,4.2333333 H 0.6047619 V 3.7963722 c 0,-0.072016 0.057988,-0.1300032 0.1300031,-0.1300032 h 2.7638032 c 0.072016,0 0.1300032,0.057988 0.1300032,0.1300032 V 4.2333333 H 3.876729 c 0.1975429,0 0.3566043,-0.1590614 0.3566043,-0.3566043 V 0.3566043 C 4.2333333,0.1590615 4.0742719,0 3.876729,0 Z m 0.6537068,0.491369 h 2.2127111 c 0.1199833,0 0.2165611,0.096578 0.2165611,0.2165612 V 2.38125 L 3.0615703,2.7592262 2.6836309,3.1372024 H 1.0103111 C 0.8903278,3.1372024 0.79375,3.0406244 0.79375,2.9206413 V 0.7079302 c 0,-0.1199834 0.096578,-0.2165612 0.2165611,-0.2165612 z M 0.396875,0.8315476 A 0.11811756,0.11811756 0 0 1 0.5149925,0.9496652 0.11811756,0.11811756 0 0 1 0.396875,1.0677827 0.11811756,0.11811756 0 0 1 0.2787574,0.9496652 0.11811756,0.11811756 0 0 1 0.396875,0.8315476 Z M 0.347044,1.2189732 h 0.099662 c 0.037836,0 0.068287,0.030451 0.068287,0.068287 v 0.2414025 c 0,0.037836 -0.030451,0.068287 -0.068287,0.068287 H 0.347044 c -0.037836,0 -0.068287,-0.030451 -0.068287,-0.068287 V 1.2872599 c 0,-0.037836 0.030451,-0.068287 0.068287,-0.068287 z" />
    </g>
  </g>
  <g
     inkscape:label="Graphic"
     id="g1156"
     inkscape:groupmode="layer"
     style="display:inline">
    <path
       id="path916"
       style="color:#000000;font-style:normal;font-variant:normal;font-weight:normal;font-stretch:normal;font-size:medium;line-height:normal;font-family:sans-serif;font-variant-ligatures:normal;font-variant-position:normal;font-variant-caps:normal;font-variant-numeric:normal;font-variant-alternates:normal;font-variant-east-asian:normal;font-feature-settings:normal;font-variation-settings:normal;text-indent:0;text-align:start;text-decoration:none;text-decoration-line:none;text-decoration-style:solid;text-decoration-color:#000000;letter-spacing:normal;word-spacing:normal;text-transform:none;writing-mode:lr-tb;direction:ltr;text-orientation:mixed;dominant-baseline:auto;baseline-shift:baseline;text-anchor:start;white-space:normal;shape-padding:0;shape-margin:0;inline-size:0;clip-rule:nonzero;display:inline;overflow:visible;visibility:visible;isolation:auto;mix-blend-mode:normal;color-interpolation:sRGB;color-interpolation-filters:linearRGB;solid-color:#000000;solid-opacity:1;vector-effect:none;fill:#000000;fill-opacity:1;fill-rule:nonzero;stroke:none;stroke-width:0.0535704;stroke-linecap:butt;stroke-linejoin:round;stroke-miterlimit:4;stroke-dasharray:none;stroke-dashoffset:0;stroke-opacity:1;paint-order:stroke fill markers;color-rendering:auto;image-rendering:auto;shape-rendering:auto;text-rendering:auto;enable-background:accumulate;stop-color:#000000"
       d="m 1.8483907,1.0205436 a 0.08823277,0.08823782 75.618488 0 0 -0.044045,0.011821 l -0.091773,0.052958 a 0.08823277,0.08823782 75.618488 0 0 -0.044129,0.07646 l -1.9e-6,0.1447245 a 0.08823277,0.08823782 75.618488 0 0 0.019212,0.05495 0.53386103,0.53389672 77.849627 0 0 -0.03336,0.050881 0.53386103,0.53389672 77.849627 0 0 -0.02738,0.054397 0.08823277,0.08823782 75.618488 0 0 -0.013205,-9.972e-4 0.08823277,0.08823782 75.618488 0 0 -0.043962,0.011821 l -0.1253264,0.072309 a 0.08823277,0.08823782 75.618488 0 0 -0.044157,0.076377 l -1.5e-6,0.105969 a 0.08823277,0.08823782 75.618488 0 0 0.044155,0.076403 l 0.1253244,0.072388 a 0.08823277,0.08823782 75.618488 0 0 0.057139,0.010768 0.53386103,0.53389672 77.849627 0 0 0.060765,0.1052483 0.08823277,0.08823782 75.618488 0 0 -0.019214,0.055033 l -2e-6,0.1447247 a 0.08823277,0.08823782 75.618488 0 0 0.044127,0.076376 l 0.091772,0.053039 a 0.08823277,0.08823782 75.618488 0 0 0.088201,-1.1e-6 l 0.1253541,-0.072419 a 0.08823277,0.08823782 75.618488 0 0 0.038011,-0.044099 0.53386103,0.53389672 77.849627 0 0 0.121505,-2.93e-5 0.08823277,0.08823782 75.618488 0 0 0.038037,0.044125 l 0.125352,0.072416 a 0.08823277,0.08823782 75.618488 0 0 0.088201,-1.3e-6 l 0.091773,-0.053041 a 0.08823277,0.08823782 75.618488 0 0 0.044046,-0.076377 l 2e-6,-0.1447246 a 0.08823277,0.08823782 75.618488 0 0 -0.019184,-0.054977 0.53386103,0.53389672 77.849627 0 0 0.033387,-0.050881 0.53386103,0.53389672 77.849627 0 0 0.02738,-0.054341 0.08823277,0.08823782 75.618488 0 0 0.057195,-0.010852 l 0.1253264,-0.072392 a 0.08823277,0.08823782 75.618488 0 0 0.044157,-0.076404 l 1.4e-6,-0.105969 A 0.08823277,0.08823782 75.618488 0 0 2.7889186,1.5498492 L 2.6635941,1.4775437 a 0.08823277,0.08823782 75.618488 0 0 -0.044156,-0.01182 0.08823277,0.08823782 75.618488 0 0 -0.013039,9.686e-4 0.53386103,0.53389672 77.849627 0 0 -0.06082,-0.1053037 0.08823277,0.08823782 75.618488 0 0 0.019241,-0.054895 l 2e-6,-0.1447246 A 0.08823277,0.08823782 75.618488 0 0 2.5207781,1.085311 L 2.4290061,1.032355 a 0.08823277,0.08823782 75.618488 0 0 -0.044156,-0.01182 0.08823277,0.08823782 75.618488 0 0 -0.044045,0.011821 l -0.125354,0.072419 a 0.08823277,0.08823782 75.618488 0 0 -0.037955,0.044099 0.53386103,0.53389672 77.849627 0 0 -0.1216434,1.7e-6 0.08823277,0.08823782 75.618488 0 0 -0.037954,-0.044098 L 1.8925464,1.0323632 a 0.08823277,0.08823782 75.618488 0 0 -0.044156,-0.01182 z m 0.2646795,0.5116537 c 0.00706,-1.5e-4 0.014145,1.857e-4 0.021234,0.00108 0.018902,0.00237 0.037647,0.00848 0.055312,0.01863 8.57e-5,4.93e-5 2.071e-4,8.57e-5 3.071e-4,1.429e-4 0.070683,0.040806 0.094515,0.1297972 0.053704,0.2004765 -0.04081,0.070679 -0.1298055,0.094513 -0.2004881,0.053707 -0.070683,-0.040806 -0.094513,-0.1297975 -0.053704,-0.2004765 0.026743,-0.046318 0.074205,-0.07249 0.1236376,-0.073554 z" />
  </g>
</svg>
