<?xml version="1.0" encoding="UTF-8" standalone="no"?>
<svg
   sodipodi:docname="org.gnome.Calendar-symbolic.svg"
   id="svg8"
   version="1.1"
   viewBox="0 0 4.2333333 4.2333334"
   height="16"
   width="16"
   inkscape:version="1.4.2 (ebf0e940d0, 2025-05-08)"
   xmlns:inkscape="http://www.inkscape.org/namespaces/inkscape"
   xmlns:sodipodi="http://sodipodi.sourceforge.net/DTD/sodipodi-0.dtd"
   xmlns="http://www.w3.org/2000/svg"
   xmlns:svg="http://www.w3.org/2000/svg">
  <defs
     id="defs2" />
  <sodipodi:namedview
     inkscape:window-maximized="1"
     inkscape:window-y="0"
     inkscape:window-x="0"
     inkscape:window-height="1011"
     inkscape:window-width="1920"
     units="px"
     showgrid="false"
     inkscape:document-rotation="0"
     inkscape:current-layer="g870"
     inkscape:document-units="px"
     inkscape:cy="7.8665629"
     inkscape:cx="2.6516504"
     inkscape:zoom="22.627417"
     inkscape:pageshadow="2"
     inkscape:pageopacity="0.0"
     borderopacity="1.0"
     bordercolor="#666666"
     pagecolor="#ffffff"
     id="base"
     inkscape:pagecheckerboard="0"
     inkscape:showpageshadow="2"
     inkscape:deskcolor="#d1d1d1" />
  <g
     inkscape:label="Graphic"
     id="g1156"
     inkscape:groupmode="layer"
     style="display:inline">
    <g
       id="g870">
      <path
         style="font-size:4px;line-height:1.25;font-family:Cantarell;-inkscape-font-specification:Cantarell;white-space:pre;stroke-width:0.376782"
         d="m -12.322844,6.444657 h 0.316 v -2.796 h -0.192 l -0.988,0.512 0.12,0.228 0.848,-0.404 -0.104,-0.1 z m 1.920002,-2.836 c -0.536,0 -0.916,0.376 -0.916,0.916 0,0.5 0.328,0.832 0.808,0.832 0.416,0 0.7439996,-0.244 0.8399996,-0.632 l -0.068,-0.168 c -0.088,0.332 -0.3479996,0.524 -0.6799996,0.524 -0.36,0 -0.584,-0.232 -0.584,-0.596 0,-0.352 0.212,-0.588 0.56,-0.588 0.4559996,0 0.6999996,0.384 0.6999996,1.104 0,0.78 -0.2839996,1.172 -0.8719996,1.172 -0.192,0 -0.396,-0.044 -0.572,-0.136 l -0.096,0.26 c 0.22,0.116 0.428,0.168 0.652,0.168 0.7679996,0 1.2119996,-0.564 1.2119996,-1.508 0,-0.852 -0.36,-1.348 -0.9839996,-1.348 z"
         id="text1"
         transform="matrix(0.70221978,0,0,0.70221978,9.9479793,-1.4201732)"
         aria-label="19" />
      <g
         id="g888">
        <path
           id="path869"
           style="display:inline;fill:none;fill-opacity:1;stroke:#000000;stroke-width:0.264583;stroke-miterlimit:4;stroke-dasharray:none;paint-order:stroke fill markers"
           d="m 0.46660821,0.13229167 c -0.18519637,0 -0.33431654,0.14912016 -0.33431654,0.33431655 V 2.1166666 3.7667252 c 0,0.1851963 0.14912017,0.3343165 0.33431654,0.3343165 H 3.7667252 c 0.1851963,0 0.3343165,-0.1491202 0.3343165,-0.3343165 V 2.1166666 0.46660822 c 0,-0.18519639 -0.1491202,-0.33431655 -0.3343165,-0.33431655 z" />
        <path
           style="fill:#000000;fill-opacity:1;stroke:none;stroke-width:0.00219642;stroke-linecap:round;stroke-linejoin:round;stroke-miterlimit:4;stroke-dasharray:none;paint-order:markers fill stroke"
           d="m 3.8037126,1.7386905 c -0.050888,0 -0.091873,0.040986 -0.091873,0.091873 v 0.5722057 c 0,0.050888 0.040985,0.091873 0.091873,0.091873 H 3.9953214 V 1.7386905 Z"
           id="path876" />
        <path
           style="fill:#000000;fill-opacity:1;stroke:none;stroke-width:0.00219642;stroke-linecap:round;stroke-linejoin:round;stroke-miterlimit:4;stroke-dasharray:none;paint-order:markers fill stroke"
           d="m 0.238125,1.7386905 v 0.7559524 h 0.19160884 c 0.0508879,0 0.0918733,-0.040986 0.0918733,-0.091873 V 1.8305638 c 0,-0.050888 -0.0409854,-0.091873 -0.0918733,-0.091873 z"
           id="rect923" />
      </g>
    </g>
  </g>
</svg>
