<?xml version="1.0" encoding="UTF-8" standalone="no"?>
<svg
   sodipodi:docname="org.gnome.Yelp-symbolic.svg"
   id="svg8"
   version="1.1"
   viewBox="0 0 4.2333333 4.2333334"
   height="16"
   width="16"
   inkscape:version="1.4.2 (ebf0e940d0, 2025-05-08)"
   xmlns:inkscape="http://www.inkscape.org/namespaces/inkscape"
   xmlns:sodipodi="http://sodipodi.sourceforge.net/DTD/sodipodi-0.dtd"
   xmlns="http://www.w3.org/2000/svg"
   xmlns:svg="http://www.w3.org/2000/svg">
  <defs
     id="defs2" />
  <sodipodi:namedview
     inkscape:window-maximized="1"
     inkscape:window-y="0"
     inkscape:window-x="0"
     inkscape:window-height="1011"
     inkscape:window-width="1920"
     units="px"
     showgrid="false"
     inkscape:document-rotation="0"
     inkscape:current-layer="layer3"
     inkscape:document-units="px"
     inkscape:cy="8.625"
     inkscape:cx="-5.1875"
     inkscape:zoom="16"
     inkscape:pageshadow="2"
     inkscape:pageopacity="0.0"
     borderopacity="1.0"
     bordercolor="#666666"
     pagecolor="#ffffff"
     id="base"
     inkscape:lockguides="false"
     inkscape:pagecheckerboard="0"
     inkscape:showpageshadow="2"
     inkscape:deskcolor="#d1d1d1" />
  <g
     inkscape:groupmode="layer"
     id="layer3"
     inkscape:label="Graphic"
     style="display:inline">
    <path
       style="font-size:4px;line-height:1.25;font-family:Cantarell;-inkscape-font-specification:Cantarell;white-space:pre;stroke-width:0.0815675"
       d="m -21.3095,4.7495502 h 0.304 v -0.212 c 0,-0.436 0.644,-0.604 0.644,-1.172 0,-0.392 -0.312,-0.652 -0.784,-0.652 -0.264,0 -0.556,0.08 -0.792,0.212 l 0.076,0.244 c 0.216,-0.108 0.432,-0.164 0.632,-0.164 0.332,0 0.528,0.156 0.528,0.396 0,0.42 -0.608,0.564 -0.608,1.136 z m 0.156,0.82 c 0.152,0 0.256,-0.108 0.256,-0.256 0,-0.148 -0.104,-0.256 -0.256,-0.256 -0.152,0 -0.256,0.108 -0.256,0.256 0,0.148 0.104,0.256 0.256,0.256 z"
       id="text1"
       transform="matrix(0.92641132,0,0,0.92641132,21.70983,-1.7201119)"
       aria-label="?" />
    <circle
       style="fill:none;fill-opacity:1;stroke:#000000;stroke-width:0.396875;stroke-linecap:round;stroke-miterlimit:4;stroke-dasharray:none;paint-order:stroke markers fill"
       id="path835"
       cx="2.1166668"
       cy="2.1166668"
       r="1.9182292" />
  </g>
</svg>
