<?xml version="1.0" encoding="UTF-8" standalone="no"?>
<svg
   sodipodi:docname="preferences-desktop-keyboard-symbolic.symbolic.svg"
   id="svg8"
   version="1.1"
   viewBox="0 0 4.2333333 4.2333334"
   height="16"
   width="16"
   xmlns:inkscape="http://www.inkscape.org/namespaces/inkscape"
   xmlns:sodipodi="http://sodipodi.sourceforge.net/DTD/sodipodi-0.dtd"
   xmlns="http://www.w3.org/2000/svg"
   xmlns:svg="http://www.w3.org/2000/svg">
  <defs
     id="defs2" />
  <sodipodi:namedview
     inkscape:window-maximized="1"
     inkscape:window-y="27"
     inkscape:window-x="1920"
     inkscape:window-height="1016"
     inkscape:window-width="1920"
     units="px"
     showgrid="false"
     inkscape:document-rotation="0"
     inkscape:current-layer="g1156"
     inkscape:document-units="px"
     inkscape:cy="11.454009"
     inkscape:cx="11.379653"
     inkscape:zoom="45.254834"
     inkscape:pageshadow="2"
     inkscape:pageopacity="0.0"
     borderopacity="1.0"
     bordercolor="#666666"
     pagecolor="#ffffff"
     id="base"
     inkscape:showpageshadow="2"
     inkscape:pagecheckerboard="0"
     inkscape:deskcolor="#d1d1d1" />
  <g
     inkscape:label="Graphic"
     id="g1156"
     inkscape:groupmode="layer"
     style="display:inline">
    <path
       id="rect864"
       style="display:inline;opacity:1;fill:#000000;stroke:none;stroke-width:0.00560305;stroke-linecap:round;stroke-linejoin:round;paint-order:stroke markers fill"
       d="M 0.58429895,0.66145833 C 0.26059522,0.66145833 0,0.92205333 0,1.2457573 v 1.741819 c 0,0.323704 0.26059522,0.584299 0.58429895,0.584299 H 3.6490345 c 0.3237036,0 0.5842988,-0.260595 0.5842988,-0.584299 v -1.741819 c 0,-0.32370397 -0.2605952,-0.58429897 -0.5842988,-0.58429897 z m -0.001421,0.34726597 h 0.15716093 c 0.11221326,0 0.20253928,0.09033 0.20253928,0.202539 v 0.157161 c 0,0.112214 -0.090326,0.202539 -0.20253928,0.202539 H 0.58287786 c -0.11221327,0 -0.20253932,-0.09032 -0.20253932,-0.202539 v -0.157161 c 0,-0.112213 0.090326,-0.202539 0.20253941,-0.202539 z m 0.72760415,0 h 0.157161 c 0.1122133,0 0.2025393,0.09033 0.2025393,0.202539 v 0.157161 c 0,0.112214 -0.090326,0.202539 -0.2025393,0.202539 H 1.310482 c -0.1122132,0 -0.2025393,-0.09032 -0.2025393,-0.202539 v -0.157161 c 0,-0.112213 0.090326,-0.202539 0.2025394,-0.202539 z m 0.7276043,0 h 0.1571609 c 0.1122132,0 0.2025393,0.09033 0.2025393,0.202539 v 0.157161 c 0,0.112214 -0.090326,0.202539 -0.2025393,0.202539 h -0.157161 c -0.1122132,0 -0.2025393,-0.09032 -0.2025393,-0.202539 v -0.157161 c 0,-0.112213 0.090326,-0.202539 0.2025394,-0.202539 z m 0.7276041,0 h 0.1571608 c 0.1122133,0 0.2025394,0.09033 0.2025394,0.202539 v 0.157161 c 0,0.112214 -0.090326,0.202539 -0.2025394,0.202539 H 2.7656904 c -0.1122133,0 -0.2025394,-0.09032 -0.2025394,-0.202539 v -0.157161 c 0,-0.112213 0.090326,-0.202539 0.2025395,-0.202539 z m 0.7276042,0 h 0.1571608 c 0.1122132,0 0.2025394,0.09033 0.2025394,0.202539 v 0.157161 c 0,0.112214 -0.090326,0.202539 -0.2025394,0.202539 H 3.4932946 c -0.1122133,0 -0.2025394,-0.09032 -0.2025394,-0.202539 v -0.157161 c 0,-0.112213 0.090326,-0.202539 0.2025395,-0.202539 z M 0.94667993,1.8355463 H 1.1038409 c 0.1122132,0 0.2025393,0.09033 0.2025393,0.20254 v 0.157161 c 0,0.112213 -0.090326,0.202539 -0.2025393,0.202539 H 0.94667993 c -0.11221326,0 -0.20253928,-0.09033 -0.20253928,-0.202539 v -0.157161 c 0,-0.112213 0.090326,-0.20254 0.20253928,-0.20254 z m 0.72760417,0 H 1.831445 c 0.1122133,0 0.2025393,0.09033 0.2025393,0.20254 v 0.157161 c 0,0.112213 -0.090326,0.202539 -0.2025393,0.202539 H 1.6742841 c -0.1122133,0 -0.2025393,-0.09033 -0.2025393,-0.202539 v -0.157161 c 0,-0.112213 0.090326,-0.20254 0.2025393,-0.20254 z m 0.7276043,0 h 0.1571608 c 0.1122132,0 0.2025394,0.09033 0.2025394,0.20254 v 0.157161 c 0,0.112213 -0.090326,0.202539 -0.2025394,0.202539 H 2.4018884 c -0.1122133,0 -0.2025395,-0.09033 -0.2025395,-0.202539 v -0.157161 c 0,-0.112213 0.090326,-0.20254 0.2025395,-0.20254 z m 0.7276041,0 h 0.1571608 c 0.1122133,0 0.2025394,0.09033 0.2025394,0.20254 v 0.157161 c 0,0.112213 -0.090326,0.202539 -0.2025394,0.202539 H 3.1294925 c -0.1122133,0 -0.2025394,-0.09033 -0.2025394,-0.202539 v -0.157161 c 0,-0.112213 0.090326,-0.20254 0.2025394,-0.20254 z m -2.57141933,0.810287 h 0.15716092 c 0.11221327,0 0.20253936,0.09033 0.20253936,0.20254 v 0.15716 c 0,0.112213 -0.0903261,0.20254 -0.20253936,0.20254 H 0.55807317 c -0.11221326,0 -0.20253932,-0.09033 -0.20253932,-0.20254 v -0.15716 c 0,-0.112214 0.0903261,-0.20254 0.20253932,-0.20254 z m 0.72760413,0 H 2.947656 c 0.1122132,0 0.2025393,0.09033 0.2025393,0.20254 v 0.15716 c 0,0.112213 -0.090326,0.20254 -0.2025393,0.20254 H 1.2856773 c -0.1122133,0 -0.2025393,-0.09033 -0.2025393,-0.20254 v -0.15716 c 0,-0.112214 0.090326,-0.20254 0.2025393,-0.20254 z m 2.232422,0 h 0.1571608 c 0.1122133,0 0.2025394,0.09033 0.2025394,0.20254 v 0.15716 c 0,0.112213 -0.090326,0.20254 -0.2025394,0.20254 H 3.5180993 c -0.1122133,0 -0.2025394,-0.09033 -0.2025394,-0.20254 v -0.15716 c 0,-0.112214 0.090326,-0.20254 0.2025394,-0.20254 z" />
  </g>
</svg>
