<?xml version="1.0" encoding="UTF-8" standalone="no"?>
<svg
   xmlns:dc="http://purl.org/dc/elements/1.1/"
   xmlns:cc="http://creativecommons.org/ns#"
   xmlns:rdf="http://www.w3.org/1999/02/22-rdf-syntax-ns#"
   xmlns:svg="http://www.w3.org/2000/svg"
   xmlns="http://www.w3.org/2000/svg"
   xmlns:sodipodi="http://sodipodi.sourceforge.net/DTD/sodipodi-0.dtd"
   xmlns:inkscape="http://www.inkscape.org/namespaces/inkscape"
   enable-background="new"
   sodipodi:docname="retroarch.svg"
   inkscape:version="1.0 (4035a4fb49, 2020-05-01)"
   id="SVGRoot"
   version="1.1"
   viewBox="0 0 256 256"
   height="256px"
   width="256px">
  <defs
     id="defs3885">
    <clipPath
       id="clipPath1200"
       clipPathUnits="userSpaceOnUse">
      <rect
         y="128"
         x="0"
         height="128"
         width="256"
         id="rect1202"
         style="fill:#ff00ff;fill-opacity:1" />
    </clipPath>
    <clipPath
       id="clipPath537"
       clipPathUnits="userSpaceOnUse">
      <rect
         y="0"
         x="0"
         height="128"
         width="256"
         id="rect539"
         style="fill:#ff00ff;fill-opacity:1;stroke-width:1.17475688" />
    </clipPath>
    <clipPath
       id="clipPath537-2"
       clipPathUnits="userSpaceOnUse">
      <rect
         y="0"
         x="0"
         height="128"
         width="256"
         id="rect539-9"
         style="fill:#ff00ff;fill-opacity:1;stroke-width:1.17475688" />
    </clipPath>
  </defs>
  <sodipodi:namedview
     inkscape:document-rotation="0"
     inkscape:grid-bbox="true"
     inkscape:window-maximized="1"
     inkscape:window-y="27"
     inkscape:window-x="84"
     inkscape:window-height="1016"
     inkscape:window-width="1836"
     showgrid="false"
     inkscape:current-layer="layer2"
     inkscape:document-units="px"
     inkscape:cy="149.61368"
     inkscape:cx="91.249851"
     inkscape:zoom="2"
     inkscape:pageshadow="2"
     inkscape:pageopacity="0.0"
     borderopacity="1.0"
     bordercolor="#666666"
     pagecolor="#ffffff"
     id="base" />
  <metadata
     id="metadata3888">
    <rdf:RDF>
      <cc:Work
         rdf:about="">
        <dc:format>image/svg+xml</dc:format>
        <dc:type
           rdf:resource="http://purl.org/dc/dcmitype/StillImage" />
        <dc:title />
      </cc:Work>
    </rdf:RDF>
  </metadata>
  <g
     style="display:inline"
     inkscape:label="Background"
     id="layer2"
     inkscape:groupmode="layer">
    <circle
       r="125.99995"
       cy="127.99995"
       cx="127.99995"
       id="path11"
       style="fill:#00ffbe;fill-opacity:1;stroke-width:1.3512" />
    <circle
       transform="matrix(0.984375,0,0,0.984375,2,2)"
       clip-path="url(#clipPath1200)"
       r="128"
       style="display:inline;fill:#00ffff;fill-opacity:1;stroke-width:1.37269"
       id="circle1176"
       cx="128"
       cy="128" />
  </g>
  <g
     style="display:inline"
     inkscape:label="Border"
     id="layer4"
     inkscape:groupmode="layer">
    <path
       d="M 127.67578,1.0265489e-4 A 128,127.99995 0 0 0 0,128.00005 128,127.99995 0 0 0 128,256 128,127.99995 0 0 0 256,128.00005 128,127.99995 0 0 0 128,1.0265489e-4 a 128,127.99995 0 0 0 -0.32422,0 z M 128,25.000093 A 103,102.99996 0 0 1 231,128.00005 103,102.99996 0 0 1 128,231.00001 103,102.99996 0 0 1 25,128.00005 103,102.99996 0 0 1 128,25.000093 Z"
       style="opacity:1;fill:#333333;stroke-width:0.114391"
       id="path357" />
  </g>
  <g
     style="display:inline"
     inkscape:label="Invader"
     id="layer3"
     inkscape:groupmode="layer">
    <path
       d="m 75.5,68 v 15 h 15 V 68 Z m 15,15 v 15 h -15 v 15 h -15 v 15 h -15 v 15 15 15 h 15 v -15 -15 h 15 v 15 15 h 15 v -15 h 75 v 15 h 15 v -15 -15 h 15 v 15 15 h 15 v -15 -15 -15 h -15 v -15 h -15 V 98 h -15 V 83 h -15 v 15 h -45 V 83 Z m 75,0 h 15 V 68 h -15 z m 0,90 h -15 -15 v 15 h 15 15 z m -75,0 v 15 h 15 15 v -15 h -15 z"
       style="opacity:0.93;fill:#000000;stroke-width:0.138826"
       id="rect112" />
    <path
       d="m 90.5,113 v 15 h 15 v -15 z m 60,0 v 15 h 15 v -15 z"
       style="display:inline;opacity:0.93;fill:#ffffff;stroke-width:0.0553873"
       id="rect131-7-93" />
  </g>
</svg>
