<?xml version="1.0" encoding="UTF-8" standalone="no"?>
<svg
   xmlns:dc="http://purl.org/dc/elements/1.1/"
   xmlns:cc="http://creativecommons.org/ns#"
   xmlns:rdf="http://www.w3.org/1999/02/22-rdf-syntax-ns#"
   xmlns:svg="http://www.w3.org/2000/svg"
   xmlns="http://www.w3.org/2000/svg"
   xmlns:sodipodi="http://sodipodi.sourceforge.net/DTD/sodipodi-0.dtd"
   xmlns:inkscape="http://www.inkscape.org/namespaces/inkscape"
   sodipodi:docname="steam.svg"
   inkscape:version="1.0 (4035a4fb49, 2020-05-01)"
   id="svg8"
   version="1.1"
   viewBox="0 0 135.46666 135.46667"
   height="512"
   width="512">
  <defs
     id="defs2" />
  <sodipodi:namedview
     inkscape:window-maximized="1"
     inkscape:window-y="27"
     inkscape:window-x="84"
     inkscape:window-height="1016"
     inkscape:window-width="1836"
     units="px"
     showgrid="false"
     inkscape:document-rotation="0"
     inkscape:current-layer="g47"
     inkscape:document-units="mm"
     inkscape:cy="296.33631"
     inkscape:cx="213.57504"
     inkscape:zoom="2.0000001"
     inkscape:pageshadow="2"
     inkscape:pageopacity="0.0"
     borderopacity="1.0"
     bordercolor="#666666"
     pagecolor="#ffffff"
     id="base" />
  <metadata
     id="metadata5">
    <rdf:RDF>
      <cc:Work
         rdf:about="">
        <dc:format>image/svg+xml</dc:format>
        <dc:type
           rdf:resource="http://purl.org/dc/dcmitype/StillImage" />
        <dc:title />
      </cc:Work>
    </rdf:RDF>
  </metadata>
  <g
     inkscape:label="Background"
     inkscape:groupmode="layer"
     id="g47"
     style="display:inline;mix-blend-mode:normal">
    <path
       d="M 255.99805,15 A 241.0011,241 0 0 0 15.84375,235.83594 l 178.00195,75.1582 c 18.96447,8.00746 27.94459,30.10344 20.13282,49.54297 -7.81177,19.43939 -29.36952,28.64414 -48.33399,20.63672 L 23.984375,321.19531 A 241.0011,241 0 0 0 255.99805,497 241.0011,241 0 0 0 497,256 241.0011,241 0 0 0 255.99805,15 Z"
       style="mix-blend-mode:normal;fill:#153791;fill-opacity:1;stroke-width:0.0941409"
       id="path45"
       transform="scale(0.26458333)" />
  </g>
  <g
     inkscape:groupmode="layer"
     id="layer2"
     inkscape:label="Arm"
     style="display:inline">
    <path
       transform="scale(0.26458333)"
       d="m 264.0918,15.136719 a 241,241 0 0 1 2.07422,0.07813 241.0011,241 0 0 0 -2.07422,-0.07813 z m -16.24024,0.002 a 241,241 0 0 0 -1.95117,0.07422 241.0011,241 0 0 1 1.95117,-0.07422 z m 18.89453,0.101562 a 241,241 0 0 1 1.94141,0.0957 241.0011,241 0 0 0 -1.94141,-0.0957 z m -21.53906,0.002 a 241,241 0 0 0 -1.80273,0.08789 241.0011,241 0 0 1 1.80273,-0.08789 z m 25.625,0.214843 a 241,241 0 0 1 4.15235,0.292969 241.0011,241 0 0 0 -4.15235,-0.292969 z m -29.74609,0.0059 a 241,241 0 0 0 -0.74219,0.04687 241.0011,241 0 0 1 0.74219,-0.04687 z m -2.04492,0.134765 a 241,241 0 0 0 -1.30079,0.0957 241.0011,241 0 0 1 1.30079,-0.0957 z m -1.93164,0.144532 a 241.0011,241 0 0 0 -2.7129,0.228515 241,241 0 0 1 2.7129,-0.228515 z m 40.38671,0.21875 a 241,241 0 0 1 0.66407,0.06055 241.0011,241 0 0 0 -0.66407,-0.06055 z m -44.16015,0.107421 a 241.0011,241 0 0 0 -1.70117,0.167969 241,241 0 0 1 1.70117,-0.167969 z m 45.43945,0.01172 a 241.0011,241 0 0 1 1.45899,0.142578 241,241 0 0 0 -1.45899,-0.142578 z m -47.9043,0.234375 a 241.0011,241 0 0 0 -1.90625,0.207031 241,241 0 0 1 1.90625,-0.207031 z m 51.17579,0.09766 a 241.0011,241 0 0 1 2.11523,0.240235 241,241 0 0 0 -2.11523,-0.240235 z m -54.90235,0.322266 a 241.0011,241 0 0 0 -2.07812,0.259766 241,241 0 0 1 2.07812,-0.259766 z m 57.94531,0.0293 a 241.0011,241 0 0 1 3.06055,0.392578 241,241 0 0 0 -3.06055,-0.392578 z m 5.04688,0.667969 a 241.0011,241 0 0 1 3.30859,0.496093 241,241 0 0 0 -3.30859,-0.496093 z m -87.22266,3.488281 a 241,241 0 0 0 -1.27148,0.291016 241.0011,241 0 0 1 1.27148,-0.291016 z m 111.25,1.205078 a 241,241 0 0 1 2.16211,0.548828 241.0011,241 0 0 0 -2.16211,-0.548828 z m -118.04883,0.435547 a 241.0011,241 0 0 0 -2.0625,0.537109 241,241 0 0 1 2.0625,-0.537109 z m 122.44532,0.701172 a 241,241 0 0 1 0.65625,0.177734 241.0011,241 0 0 0 -0.65625,-0.177734 z m 3.17187,0.875 a 241.0011,241 0 0 1 2.49805,0.724609 241,241 0 0 0 -2.49805,-0.724609 z m 5.00781,1.478515 a 241.0011,241 0 0 1 2.08985,0.654297 241,241 0 0 0 -2.08985,-0.654297 z m -149.01757,2.451172 a 241,241 0 0 0 -2.23828,0.78125 241.0011,241 0 0 1 2.23828,-0.78125 z m 156.70898,0.05469 a 241.0011,241 0 0 1 1.99609,0.695312 241,241 0 0 0 -1.99609,-0.695312 z m 3.66797,1.294922 a 241.0011,241 0 0 1 2.05078,0.753906 241,241 0 0 0 -2.05078,-0.753906 z m 4.7168,1.763672 a 241.0011,241 0 0 1 2.36132,0.927734 241,241 0 0 0 -2.36132,-0.927734 z M 156,36.726562 A 241.0011,241 0 0 0 153.86523,37.712891 241,241 0 0 1 156,36.726562 Z m -2.57422,1.19336 a 241.0011,241 0 0 0 -2.01172,0.957031 241,241 0 0 1 2.01172,-0.957031 z m 220.04102,7.646484 a 241.0011,241 0 0 1 0.92968,0.521485 241,241 0 0 0 -0.92968,-0.521485 z m 1.31836,0.742188 a 241.0011,241 0 0 1 1.58789,0.908203 241,241 0 0 0 -1.58789,-0.908203 z m -248.73438,6.728515 a 241.0011,241 0 0 0 -1.54101,0.996094 241,241 0 0 1 1.54101,-0.996094 z m -4.2207,2.763672 a 241.0011,241 0 0 0 -2.14844,1.457031 241,241 0 0 1 2.14844,-1.457031 z m -10.64063,7.556641 a 241.0011,241 0 0 0 -2.06836,1.572266 241,241 0 0 1 2.06836,-1.572266 z m 291.78516,1.648437 a 241,241 0 0 1 0.94531,0.730469 241.0011,241 0 0 0 -0.94531,-0.730469 z m 1.44531,1.121094 a 241.0011,241 0 0 1 1.06836,0.839844 241,241 0 0 0 -1.06836,-0.839844 z m -301.42969,3.677735 a 241.0011,241 0 0 0 -1.00781,0.832031 241,241 0 0 1 1.00781,-0.832031 z m 306.02735,0.0059 a 241.0011,241 0 0 1 2,1.662109 241,241 0 0 0 -2,-1.662109 z m -307.04492,0.833984 a 241.0011,241 0 0 0 -1.988285,1.669922 241,241 0 0 1 1.988285,-1.669922 z M 87.011719,84.173828 a 241,241 0 0 0 -0.970703,0.962891 241.0011,241 0 0 1 0.970703,-0.962891 z m -1.419922,1.410156 a 241.0011,241 0 0 0 -1.419922,1.429688 241,241 0 0 1 1.419922,-1.429688 z m 340.824223,0.0078 a 241.0011,241 0 0 1 1.82812,1.847656 241,241 0 0 0 -1.82812,-1.847656 z M 83.345703,87.857422 a 241.0011,241 0 0 0 -2.306641,2.402344 241,241 0 0 1 2.306641,-2.402344 z m 346.205077,0.929687 a 241.0011,241 0 0 1 2.30469,2.423829 241,241 0 0 0 -2.30469,-2.423829 z M 80.134766,91.21875 a 241.0011,241 0 0 0 -1.765625,1.90625 241,241 0 0 1 1.765625,-1.90625 z m 354.658204,3.183594 a 241.0011,241 0 0 1 1.46094,1.630859 241,241 0 0 0 -1.46094,-1.630859 z M 74.708984,97.207031 a 241.0011,241 0 0 0 -2.386718,2.769531 241,241 0 0 1 2.386718,-2.769531 z m -6.552734,7.810549 a 241.0011,241 0 0 0 -1.617188,2.0332 241,241 0 0 1 1.617188,-2.0332 z m -1.625,2.04297 a 241.0011,241 0 0 0 -3.173828,4.13086 241,241 0 0 1 3.173828,-4.13086 z m 379.73242,1.01953 a 241.0011,241 0 0 1 1.55078,2.01758 241,241 0 0 0 -1.55078,-2.01758 z m 2.38477,3.11914 a 241.0011,241 0 0 1 1.55273,2.08789 241,241 0 0 0 -1.55273,-2.08789 z m -385.298831,0.002 a 241.0011,241 0 0 0 -1.550781,2.08594 241,241 0 0 1 1.550781,-2.08594 z m -2.328125,3.14844 a 241.0011,241 0 0 0 -1.515625,2.11133 241,241 0 0 1 1.515625,-2.11133 z m -3.023437,4.25781 a 241.0011,241 0 0 0 -1.46875,2.14258 241,241 0 0 1 1.46875,-2.14258 z m -5.765625,8.70703 a 241.0011,241 0 0 0 -2.056641,3.31641 241,241 0 0 1 2.056641,-3.31641 z m -2.064453,3.32813 a 241.0011,241 0 0 0 -2.001953,3.34961 241,241 0 0 1 2.001953,-3.34961 z m -2.009766,3.36133 a 241.0011,241 0 0 0 -1.302734,2.24804 241,241 0 0 1 1.302734,-2.24804 z m -1.308594,2.25781 a 241.0011,241 0 0 0 -1.128906,1.99609 241,241 0 0 1 1.128906,-1.99609 z m 419.250001,1.67578 a 241,241 0 0 1 0.33398,0.5957 241.0011,241 0 0 0 -0.33398,-0.5957 z m -421.167969,1.73828 a 241.0011,241 0 0 0 -1.242188,2.2832 241,241 0 0 1 1.242188,-2.2832 z m 423.648439,2.78906 a 241.0011,241 0 0 1 0.95312,1.80078 241,241 0 0 0 -0.95312,-1.80078 z m -426.119142,1.81055 a 241.0011,241 0 0 0 -2.365235,4.64258 241,241 0 0 1 2.365235,-4.64258 z m 435.492182,17.82227 a 241.0011,241 0 0 1 0.91797,2.20117 241,241 0 0 0 -0.91797,-2.20117 z m -444.529292,1.48828 a 241.0011,241 0 0 0 -0.820312,1.99609 241,241 0 0 1 0.820312,-1.99609 z m -0.826172,2.00781 a 241.0011,241 0 0 0 -0.835937,2.09766 241,241 0 0 1 0.835937,-2.09766 z m 447.298824,1.23437 a 241,241 0 0 1 0.91602,2.33594 241.0011,241 0 0 0 -0.91602,-2.33594 z m -448.732418,2.39649 a 241.0011,241 0 0 0 -1.380859,3.66601 241,241 0 0 1 1.380859,-3.66601 z m 450.666018,2.625 a 241,241 0 0 1 0.7539,2.05078 241.0011,241 0 0 0 -0.7539,-2.05078 z m -452.050783,1.05078 a 241.0011,241 0 0 0 -0.835938,2.31641 241,241 0 0 1 0.835938,-2.31641 z m -1.349609,3.77344 a 241.0011,241 0 0 0 -2.427735,7.33789 241,241 0 0 1 2.427735,-7.33789 z M 488.56055,192.7832 a 241.0011,241 0 0 1 0.22461,0.83008 241,241 0 0 0 -0.22461,-0.83008 z m -465.464847,1.27149 a 241.0011,241 0 0 0 -1.283203,5.04883 241,241 0 0 1 1.283203,-5.04883 z m 466.230467,1.61914 a 241.0011,241 0 0 1 0.79102,3.14453 241,241 0 0 0 -0.79102,-3.14453 z m -468.117186,5.9707 a 241.0011,241 0 0 0 -3.242187,16.6543 241,241 0 0 1 3.242187,-16.6543 z M 494.07812,218.5918 a 241,241 0 0 1 0.48438,3.22461 241.0011,241 0 0 0 -0.48438,-3.22461 z m -476.507808,2.29882 a 241.0011,241 0 0 0 -0.537109,3.86719 241,241 0 0 1 0.537109,-3.86719 z m 477.281248,3.00782 a 241,241 0 0 1 0.37891,2.95508 241.0011,241 0 0 0 -0.37891,-2.95508 z m 0.4961,3.93945 a 241,241 0 0 1 0.24023,2.11523 241.0011,241 0 0 0 -0.24023,-2.11523 z m 0.42968,3.92773 a 241,241 0 0 1 0.14258,1.45899 241.0011,241 0 0 0 -0.14258,-1.45899 z m 0.20118,2.07422 a 241.0011,241 0 0 1 0.0605,0.66407 241,241 0 0 0 -0.0605,-0.66407 z m -480.076176,1.31055 a 241.0011,241 0 0 0 -0.05859,0.68555 h 0.002 a 241,241 0 0 1 0.05664,-0.68555 z m -0.05664,0.68555 A 241,241 0 0 0 15,256 a 241,241 0 0 0 8.986328,65.19531 l 141.658202,59.97852 c 18.96447,8.00742 40.52222,-1.19733 48.33399,-20.63672 7.81177,-19.43953 -1.16835,-41.53551 -20.13282,-49.54297 z m 8.140625,85.35937 h -0.002 a 241.0011,241 0 0 0 0.150391,0.52735 241,241 0 0 1 -0.148438,-0.52735 z m 0.148438,0.52735 a 241.0011,241 0 0 0 0.324218,1.13281 241,241 0 0 1 -0.324218,-1.13281 z M 496.25,237.01562 a 241.0011,241 0 0 1 0.29297,4.15235 241,241 0 0 0 -0.29297,-4.15235 z m 0.41406,6.2793 a 241.0011,241 0 0 1 0.0957,1.97266 241,241 0 0 0 -0.0957,-1.97266 z m 0.1211,2.55078 a 241.0011,241 0 0 1 0.0781,2.05274 241,241 0 0 0 -0.0781,-2.05274 z m -0.0234,20.83985 a 241,241 0 0 1 -0.0996,2.07226 241.0011,241 0 0 0 0.0996,-2.07226 z m -0.21484,4.0664 a 241,241 0 0 1 -0.30469,4.32813 241.0011,241 0 0 0 0.30469,-4.32813 z m -0.49805,6.63867 a 241,241 0 0 1 -0.13867,1.5 241.0011,241 0 0 0 0.13867,-1.5 z m -0.60547,5.95508 a 241.0011,241 0 0 1 -0.15234,1.29688 241,241 0 0 0 0.15234,-1.29688 z m -0.15234,1.30469 A 241.0011,241 0 0 1 494.86523,288 a 241,241 0 0 0 0.42579,-3.34961 z m -0.7461,5.65039 a 241.0011,241 0 0 1 -0.67187,4.38867 241,241 0 0 0 0.67187,-4.38867 z m -4.42773,22.88086 a 241,241 0 0 1 -0.875,3.4707 241.0011,241 0 0 0 0.875,-3.4707 z M 24.917969,324.42773 a 241.0011,241 0 0 0 0.294922,0.98829 241,241 0 0 1 -0.294922,-0.98829 z m 0.333984,1.11915 a 241.0011,241 0 0 0 0.361328,1.18359 241,241 0 0 1 -0.361328,-1.18359 z m 0.361328,1.18359 A 241.0011,241 0 0 0 26,327.97852 241,241 0 0 1 25.613281,326.73047 Z M 26,327.97852 a 241.0011,241 0 0 0 0.392578,1.24414 A 241,241 0 0 1 26,327.97852 Z m 0.392578,1.24414 a 241.0011,241 0 0 0 0.400391,1.24218 241,241 0 0 1 -0.400391,-1.24218 z m 0.400391,1.24218 a 241.0011,241 0 0 0 0.386719,1.1836 241,241 0 0 1 -0.386719,-1.1836 z m 458.810551,-1.23242 a 241,241 0 0 1 -0.80664,2.48242 241.0011,241 0 0 0 0.80664,-2.48242 z m -458.382817,2.53906 a 241.0011,241 0 0 0 0.392578,1.17188 241,241 0 0 1 -0.392578,-1.17188 z m 0.392578,1.17188 a 241.0011,241 0 0 0 0.419922,1.23633 241,241 0 0 1 -0.419922,-1.23633 z M 483.76953,334.75 a 241.0011,241 0 0 1 -0.66406,1.89648 241,241 0 0 0 0.66406,-1.89648 z m -455.23828,0.86914 a 241.0011,241 0 0 0 0.359375,1.01758 241,241 0 0 1 -0.359375,-1.01758 z m 0.365234,1.03516 a 241.0011,241 0 0 0 1.777344,4.83789 241,241 0 0 1 -1.777344,-4.83789 z m 451.916016,6.18164 a 241.0011,241 0 0 1 -0.7832,2 241,241 0 0 0 0.7832,-2 z m -449.333984,0.75 a 241,241 0 0 0 0.310546,0.79101 241.0011,241 0 0 1 -0.310546,-0.79101 z m 448.269534,1.95312 a 241.0011,241 0 0 1 -0.71485,1.76758 241,241 0 0 0 0.71485,-1.76758 z m -447.031253,1.1543 a 241.0011,241 0 0 0 0.376953,0.92187 241,241 0 0 1 -0.376953,-0.92187 z m 0.376953,0.92187 a 241.0011,241 0 0 0 0.435547,1.05665 241,241 0 0 1 -0.435547,-1.05665 z m 445.68945,0.30079 a 241.0011,241 0 0 1 -0.77148,1.84765 241,241 0 0 0 0.77148,-1.84765 z m -444.873044,1.66601 a 241,241 0 0 0 0.34375,0.80859 241.0011,241 0 0 1 -0.34375,-0.80859 z m 0.701172,1.64453 a 241.0011,241 0 0 0 0.519531,1.19727 241,241 0 0 1 -0.519531,-1.19727 z m 0.519531,1.19727 a 241.0011,241 0 0 0 0.525391,1.19531 241,241 0 0 1 -0.525391,-1.19531 z m 0.525391,1.19531 a 241.0011,241 0 0 0 0.53125,1.19141 241,241 0 0 1 -0.53125,-1.19141 z m 0.53125,1.19141 A 241.0011,241 0 0 0 36.726562,356 241,241 0 0 1 36.1875,354.81055 Z M 36.726562,356 a 241.0011,241 0 0 0 0.544922,1.18555 A 241,241 0 0 1 36.726562,356 Z m 0.544922,1.18555 a 241.0011,241 0 0 0 0.550782,1.18359 241,241 0 0 1 -0.550782,-1.18359 z m 0.550782,1.18359 a 241.0011,241 0 0 0 0.558593,1.18164 241,241 0 0 1 -0.558593,-1.18164 z m 0.558593,1.18164 a 241.0011,241 0 0 0 0.50586,1.0586 241,241 0 0 1 -0.50586,-1.0586 z m 0.63086,1.31641 a 241.0011,241 0 0 0 0.503906,1.0332 241,241 0 0 1 -0.503906,-1.0332 z m 0.503906,1.0332 a 241.0011,241 0 0 0 0.576172,1.17188 241,241 0 0 1 -0.576172,-1.17188 z m 0.576172,1.17188 a 241.0011,241 0 0 0 0.550781,1.10742 241,241 0 0 1 -0.550781,-1.10742 z m 0.613281,1.22851 a 241.0011,241 0 0 0 0.558594,1.10352 241,241 0 0 1 -0.558594,-1.10352 z m 0.558594,1.10352 a 241.0011,241 0 0 0 0.595703,1.16211 241,241 0 0 1 -0.595703,-1.16211 z m 1.316406,2.54492 a 241.0011,241 0 0 0 0.490234,0.93164 241,241 0 0 1 -0.490234,-0.93164 z m 0.490234,0.93164 a 241.0011,241 0 0 0 1.183594,2.20508 241,241 0 0 1 -1.183594,-2.20508 z m 1.892579,3.5 a 241.0011,241 0 0 0 1.242187,2.22461 241,241 0 0 1 -1.242187,-2.22461 z m 1.242187,2.22461 a 241.0011,241 0 0 0 0.646484,1.13476 241,241 0 0 1 -0.646484,-1.13476 z m 0.646484,1.13476 a 241.0011,241 0 0 0 0.650391,1.13086 241,241 0 0 1 -0.650391,-1.13086 z m 0.650391,1.13086 a 241.0011,241 0 0 0 0.658203,1.12696 241,241 0 0 1 -0.658203,-1.12696 z m 0.658203,1.12696 a 241.0011,241 0 0 0 0.664063,1.125 241,241 0 0 1 -0.664063,-1.125 z m 0.664063,1.125 a 241.0011,241 0 0 0 0.669922,1.11914 241,241 0 0 1 -0.669922,-1.11914 z m 0.669922,1.11914 a 241.0011,241 0 0 0 0.675781,1.11719 241,241 0 0 1 -0.675781,-1.11719 z m 0.675781,1.11719 a 241.0011,241 0 0 0 0.68164,1.11328 241,241 0 0 1 -0.68164,-1.11328 z m 0.68164,1.11328 a 241.0011,241 0 0 0 0.642579,1.03711 241,241 0 0 1 -0.642579,-1.03711 z M 466.43359,373.4668 a 241.0011,241 0 0 1 -0.33398,0.5957 241,241 0 0 0 0.33398,-0.5957 z M 53.080078,386.01562 a 241.0011,241 0 0 0 0.560547,0.8711 241,241 0 0 1 -0.560547,-0.8711 z m 0.560547,0.8711 a 241.0011,241 0 0 0 0.710937,1.09375 241,241 0 0 1 -0.710937,-1.09375 z m 0.710937,1.09375 a 241.0011,241 0 0 0 0.71875,1.0918 241,241 0 0 1 -0.71875,-1.0918 z m 0.71875,1.0918 a 241.0011,241 0 0 0 0.675782,1.01562 241,241 0 0 1 -0.675782,-1.01562 z m 0.769532,1.15625 a 241.0011,241 0 0 0 0.683594,1.01171 241,241 0 0 1 -0.683594,-1.01171 z m 0.683594,1.01171 a 241.0011,241 0 0 0 0.734374,1.07813 241,241 0 0 1 -0.734374,-1.07813 z m 1.5625,2.27735 a 241.0011,241 0 0 0 0.662109,0.94726 241,241 0 0 1 -0.662109,-0.94726 z m 0.662109,0.94726 A 241.0011,241 0 0 0 59.5,395.53125 241,241 0 0 1 58.748047,394.46484 Z m 1.615234,2.27539 a 241.0011,241 0 0 0 0.660157,0.91016 241,241 0 0 1 -0.660157,-0.91016 z m 0.660157,0.91016 a 241.0011,241 0 0 0 0.691406,0.94922 241,241 0 0 1 -0.691406,-0.94922 z m 1.714843,2.33203 a 241.0011,241 0 0 0 0.613281,0.81836 241,241 0 0 1 -0.613281,-0.81836 z m 0.613281,0.81836 a 241.0011,241 0 0 0 0.78711,1.04102 241,241 0 0 1 -0.78711,-1.04102 z m 0.78711,1.04102 a 241.0011,241 0 0 0 0.65039,0.85351 241,241 0 0 1 -0.65039,-0.85351 z m 1.677734,2.18164 a 241.0011,241 0 0 0 1.525391,1.9414 241,241 0 0 1 -1.525391,-1.9414 z m 1.525391,1.9414 a 241.0011,241 0 0 0 0.816406,1.01954 241,241 0 0 1 -0.816406,-1.01954 z m 0.816406,1.01954 A 241.0011,241 0 0 0 68.978516,408 241,241 0 0 1 68.158203,406.98438 Z M 68.978516,408 a 241.0011,241 0 0 0 0.826172,1.00977 A 241,241 0 0 1 68.978516,408 Z m 0.826172,1.00977 a 241.0011,241 0 0 0 0.832031,1.00585 241,241 0 0 1 -0.832031,-1.00585 z m 0.832031,1.00585 a 241.0011,241 0 0 0 0.835937,1.00196 241,241 0 0 1 -0.835937,-1.00196 z m 0.835937,1.00196 a 241.0011,241 0 0 0 0.832032,0.98437 241,241 0 0 1 -0.832032,-0.98437 z m 0.863282,1.02344 a 241.0011,241 0 0 0 0.77539,0.9082 241,241 0 0 1 -0.77539,-0.9082 z m 2.539062,2.93945 a 241.0011,241 0 0 0 0.863281,0.97851 241,241 0 0 1 -0.863281,-0.97851 z m 1.886719,2.125 a 241.0011,241 0 0 0 0.720703,0.79687 241,241 0 0 1 -0.720703,-0.79687 z m 0.720703,0.79687 a 241.0011,241 0 0 0 0.839844,0.92188 241,241 0 0 1 -0.839844,-0.92188 z m 1.763672,1.92383 a 241.0011,241 0 0 0 0.890625,0.95508 241,241 0 0 1 -0.890625,-0.95508 z m 0.890625,0.95508 a 241.0011,241 0 0 0 0.875,0.92969 241,241 0 0 1 -0.875,-0.92969 z m 0.914062,0.9707 a 241.0011,241 0 0 0 0.88086,0.92578 241,241 0 0 1 -0.88086,-0.92578 z m 0.88086,0.92578 a 241.0011,241 0 0 0 0.90625,0.93946 241,241 0 0 1 -0.90625,-0.93946 z m 0.90625,0.93946 a 241.0011,241 0 0 0 0.910156,0.93554 241,241 0 0 1 -0.910156,-0.93554 z m 0.910156,0.93554 a 241.0011,241 0 0 0 0.914062,0.92969 241,241 0 0 1 -0.914062,-0.92969 z m 0.914062,0.92969 a 241.0011,241 0 0 0 0.921875,0.92578 241,241 0 0 1 -0.921875,-0.92578 z m 0.921875,0.92578 a 241.0011,241 0 0 0 0.892578,0.88868 241,241 0 0 1 -0.892578,-0.88868 z m 341.746096,-0.91797 a 241,241 0 0 1 -0.92188,0.92579 241.0011,241 0 0 0 0.92188,-0.92579 z m -340.771486,1.88868 a 241.0011,241 0 0 0 0.734375,0.72265 241,241 0 0 1 -0.734375,-0.72265 z m 1.890625,1.84961 a 241.0011,241 0 0 0 1.746093,1.66992 241,241 0 0 1 -1.746093,-1.66992 z m 2.429687,2.3164 a 241,241 0 0 0 0.664063,0.6211 241.0011,241 0 0 1 -0.664063,-0.6211 z m 1.353516,1.26367 a 241.0011,241 0 0 0 0.820312,0.75586 241,241 0 0 1 -0.820312,-0.75586 z m 1.966797,1.80274 a 241.0011,241 0 0 0 0.859375,0.77344 241,241 0 0 1 -0.859375,-0.77344 z m 0.859375,0.77344 a 241.0011,241 0 0 0 0.974609,0.86914 241,241 0 0 1 -0.974609,-0.86914 z m 2.121094,1.88085 a 241.0011,241 0 0 0 0.816406,0.71094 241,241 0 0 1 -0.816406,-0.71094 z m 0.816406,0.71094 a 241.0011,241 0 0 0 0.988281,0.85352 241,241 0 0 1 -0.988281,-0.85352 z m 1.980468,1.70117 a 241.0011,241 0 0 0 0.996098,0.8418 241,241 0 0 1 -0.996098,-0.8418 z m 2.210938,1.85547 a 241.0011,241 0 0 0 0.71875,0.59375 241,241 0 0 1 -0.71875,-0.59375 z m 3.8457,3.1211 a 241.0011,241 0 0 0 0.88086,0.69922 241,241 0 0 1 -0.88086,-0.69922 z m 1.19336,0.94336 a 241.0011,241 0 0 0 0.85352,0.66601 241,241 0 0 1 -0.85352,-0.66601 z m 0.85352,0.66601 a 241.0011,241 0 0 0 1.0332,0.79883 241,241 0 0 1 -1.0332,-0.79883 z m 1.0332,0.79883 a 241.0011,241 0 0 0 1.03711,0.79297 241,241 0 0 1 -1.03711,-0.79297 z m 1.03711,0.79297 a 241.0011,241 0 0 0 1.04102,0.78711 241,241 0 0 1 -1.04102,-0.78711 z m 1.04102,0.78711 a 241.0011,241 0 0 0 1.04492,0.78125 241,241 0 0 1 -1.04492,-0.78125 z m 1.04492,0.78125 a 241.0011,241 0 0 0 0.96484,0.71289 241,241 0 0 1 -0.96484,-0.71289 z m 289.60547,-1.5625 a 241,241 0 0 1 -1.63086,1.22851 241.0011,241 0 0 0 1.63086,-1.22851 z m -288.43555,2.42578 a 241.0011,241 0 0 0 0.77539,0.56836 241,241 0 0 1 -0.77539,-0.56836 z m 282.13086,2.20703 a 241.0011,241 0 0 1 -0.94336,0.66602 241,241 0 0 0 0.94336,-0.66602 z m -278.92383,0.10742 a 241.0011,241 0 0 0 0.91406,0.64453 241,241 0 0 1 -0.91406,-0.64453 z m 0.91406,0.64453 a 241.0011,241 0 0 0 1.03907,0.72657 241,241 0 0 1 -1.03907,-0.72657 z m 276.83985,0.0742 a 241.0011,241 0 0 1 -2.04102,1.41602 241,241 0 0 0 2.04102,-1.41602 z M 118.66797,454.041 a 241.0011,241 0 0 0 0.94531,0.65234 241,241 0 0 1 -0.94531,-0.65234 z m 3.23047,2.20312 a 241.0011,241 0 0 0 1.02148,0.67969 241,241 0 0 1 -1.02148,-0.67969 z m 1.02148,0.67969 a 241.0011,241 0 0 0 1.0332,0.68164 241,241 0 0 1 -1.0332,-0.68164 z m 1.14649,0.75586 a 241.0011,241 0 0 0 1.03711,0.67383 241,241 0 0 1 -1.03711,-0.67383 z m 3.35937,2.15625 a 241.0011,241 0 0 0 0.9082,0.57226 241,241 0 0 1 -0.9082,-0.57226 z m 2.09375,1.30664 a 241.0011,241 0 0 0 1.05859,0.65039 241,241 0 0 1 -1.05859,-0.65039 z m 2.22852,1.35742 a 241.0011,241 0 0 0 1.12109,0.66992 241,241 0 0 1 -1.12109,-0.66992 z m 1.12109,0.66992 a 241.0011,241 0 0 0 1.12305,0.66406 241,241 0 0 1 -1.12305,-0.66406 z m 1.12305,0.66406 a 241.0011,241 0 0 0 1.1289,0.65821 241,241 0 0 1 -1.1289,-0.65821 z m 2.40625,1.39258 a 241.0011,241 0 0 0 0.98828,0.5625 241,241 0 0 1 -0.98828,-0.5625 z m 0.98828,0.5625 a 241.0011,241 0 0 0 0.95508,0.53906 241,241 0 0 1 -0.95508,-0.53906 z m 234.94531,1.27344 a 241.0011,241 0 0 1 -2.11328,1.15039 241,241 0 0 0 2.11328,-1.15039 z m -232.58789,0.043 a 241.0011,241 0 0 0 1.06641,0.58398 241,241 0 0 1 -1.06641,-0.58398 z m 1.06641,0.58398 a 241.0011,241 0 0 0 1.14843,0.6211 241,241 0 0 1 -1.14843,-0.6211 z m 1.14843,0.6211 a 241.0011,241 0 0 0 1.09375,0.58398 241,241 0 0 1 -1.09375,-0.58398 z m 1.22461,0.65429 a 241.0011,241 0 0 0 1.06641,0.56055 241,241 0 0 1 -1.06641,-0.56055 z m 225.58008,0.0274 a 241.0011,241 0 0 1 -2.09961,1.09765 241,241 0 0 0 2.09961,-1.09765 z m -224.47265,0.55273 a 241.0011,241 0 0 0 1.13281,0.58985 241,241 0 0 1 -1.13281,-0.58985 z m 1.13281,0.58985 a 241.0011,241 0 0 0 1.16211,0.5957 241,241 0 0 1 -1.16211,-0.5957 z m 1.16211,0.5957 a 241.0011,241 0 0 0 1.16406,0.58984 241,241 0 0 1 -1.16406,-0.58984 z m 1.16406,0.58984 a 241.0011,241 0 0 0 1.00977,0.50586 241,241 0 0 1 -1.00977,-0.50586 z m 217.63086,-0.57226 a 241.0011,241 0 0 1 -2.30078,1.15625 241,241 0 0 0 2.30078,-1.15625 z m -215.15234,1.79883 a 241.0011,241 0 0 0 0.97656,0.47656 241,241 0 0 1 -0.97656,-0.47656 z m 211.33593,0.10156 a 241.0011,241 0 0 1 -2.00586,0.96679 241,241 0 0 0 2.00586,-0.96679 z m -209.03711,1.00781 a 241.0011,241 0 0 0 0.89454,0.42383 241,241 0 0 1 -0.89454,-0.42383 z m 4.16407,1.93164 a 241,241 0 0 0 0.88671,0.39844 241.0011,241 0 0 1 -0.88671,-0.39844 z m 1.68554,0.75391 a 241.0011,241 0 0 0 1.18946,0.52343 241,241 0 0 1 -1.18946,-0.52343 z m 1.18946,0.52343 a 241.0011,241 0 0 0 1.16406,0.50586 241,241 0 0 1 -1.16406,-0.50586 z m 1.23047,0.53321 a 241.0011,241 0 0 0 1.16796,0.49804 241,241 0 0 1 -1.16796,-0.49804 z m 1.97656,0.83984 a 241,241 0 0 0 0.95312,0.39649 241.0011,241 0 0 1 -0.95312,-0.39649 z m 2.49023,1.02734 a 241,241 0 0 0 0.69336,0.28126 241.0011,241 0 0 1 -0.69336,-0.28126 z m 2.375,0.95118 a 241,241 0 0 0 1.07422,0.41992 241.0011,241 0 0 1 -1.07422,-0.41992 z m 1.07422,0.41992 a 241,241 0 0 0 1.00586,0.38867 241.0011,241 0 0 1 -1.00586,-0.38867 z m 2.06445,0.79101 a 241.0011,241 0 0 0 0.82032,0.3086 241,241 0 0 1 -0.82032,-0.3086 z m 169.54688,0.33789 a 241,241 0 0 1 -3.16211,1.15626 241.0011,241 0 0 0 3.16211,-1.15626 z m -167.88477,0.28321 a 241,241 0 0 0 0.71875,0.26562 241.0011,241 0 0 1 -0.71875,-0.26562 z m 0.71875,0.26562 a 241.0011,241 0 0 0 0.95899,0.34766 241,241 0 0 1 -0.95899,-0.34766 z m 0.95899,0.34766 a 241.0011,241 0 0 0 1.15625,0.41601 241,241 0 0 1 -1.15625,-0.41601 z m 2.77734,0.98437 a 241.0011,241 0 0 0 0.91602,0.31641 241,241 0 0 1 -0.91602,-0.31641 z m 0.91602,0.31641 a 241.0011,241 0 0 0 2.47461,0.83399 241,241 0 0 1 -2.47461,-0.83399 z m 2.47461,0.83399 a 241.0011,241 0 0 0 1.24023,0.40624 241,241 0 0 1 -1.24023,-0.40624 z m 1.24023,0.40624 a 241.0011,241 0 0 0 1.23633,0.39844 241,241 0 0 1 -1.23633,-0.39844 z m 148.58789,0.11719 a 241.0011,241 0 0 1 -1.80078,0.57422 241,241 0 0 0 1.80078,-0.57422 z m -146.625,0.51172 a 241,241 0 0 0 1.05664,0.33203 241.0011,241 0 0 1 -1.05664,-0.33203 z m 142.97461,0.63672 a 241.0011,241 0 0 1 -3.26758,0.97461 241,241 0 0 0 3.26758,-0.97461 z m -140.89648,0.01 a 241.0011,241 0 0 0 0.77929,0.23632 241,241 0 0 1 -0.77929,-0.23632 z m 3.02148,0.90039 a 241,241 0 0 0 0.84961,0.24609 241.0011,241 0 0 1 -0.84961,-0.24609 z m 132.98438,0.52929 a 241.0011,241 0 0 1 -3.52539,0.9668 241,241 0 0 0 3.52539,-0.9668 z m -131.11915,0.006 a 241.0011,241 0 0 0 0.96485,0.27149 241,241 0 0 1 -0.96485,-0.27149 z m 3.11915,0.85938 a 241,241 0 0 0 0.9414,0.25 241.0011,241 0 0 1 -0.9414,-0.25 z m 1.88085,0.49609 a 241.0011,241 0 0 0 1.11719,0.28711 241,241 0 0 1 -1.11719,-0.28711 z m 1.11719,0.28711 a 241.0011,241 0 0 0 1.10938,0.2793 241,241 0 0 1 -1.10938,-0.2793 z m 2.17188,0.54102 a 241,241 0 0 0 0.76758,0.1875 241.0011,241 0 0 1 -0.76758,-0.1875 z m 2.53515,0.60742 a 241,241 0 0 0 1.10352,0.2539 241.0011,241 0 0 1 -1.10352,-0.2539 z m 1.10352,0.2539 a 241,241 0 0 0 1.23633,0.2793 241.0011,241 0 0 1 -1.23633,-0.2793 z m 2.03711,0.45508 a 241.0011,241 0 0 0 0.97265,0.21289 241,241 0 0 1 -0.97265,-0.21289 z m 1.13281,0.2461 a 241.0011,241 0 0 0 1.19336,0.25195 241,241 0 0 1 -1.19336,-0.25195 z m 1.19336,0.25195 a 241.0011,241 0 0 0 1.18359,0.24414 241,241 0 0 1 -1.18359,-0.24414 z m 97.22266,0.26562 a 241,241 0 0 1 -2.27149,0.44922 241.0011,241 0 0 0 2.27149,-0.44922 z m -95.85157,0.0176 a 241.0011,241 0 0 0 1.1875,0.23633 241,241 0 0 1 -1.1875,-0.23633 z m 1.1875,0.23633 a 241.0011,241 0 0 0 1.28125,0.25 241,241 0 0 1 -1.28125,-0.25 z m 1.28125,0.25 a 241.0011,241 0 0 0 1.28125,0.24219 241,241 0 0 1 -1.28125,-0.24219 z m 1.28125,0.24219 a 241.0011,241 0 0 0 1.14649,0.21094 241,241 0 0 1 -1.14649,-0.21094 z m 2.91797,0.52539 a 241.0011,241 0 0 0 0.93946,0.16016 241,241 0 0 1 -0.93946,-0.16016 z m 0.93946,0.16016 a 241.0011,241 0 0 0 1.28711,0.21484 241,241 0 0 1 -1.28711,-0.21484 z m 1.28711,0.21484 a 241.0011,241 0 0 0 1.20507,0.19531 241,241 0 0 1 -1.20507,-0.19531 z m 80.20898,-0.375 a 241,241 0 0 1 -1.86328,0.31445 241.0011,241 0 0 0 1.86328,-0.31445 z m -4.01172,0.66016 a 241,241 0 0 1 -2.83789,0.42578 241.0011,241 0 0 0 2.83789,-0.42578 z m -74.00391,0.0645 a 241,241 0 0 0 1.13282,0.17187 241.0011,241 0 0 1 -1.13282,-0.17187 z m 1.13282,0.17187 a 241,241 0 0 0 0.86523,0.12891 241.0011,241 0 0 1 -0.86523,-0.12891 z m 0.86523,0.12891 a 241.0011,241 0 0 0 0.97071,0.13867 241,241 0 0 1 -0.97071,-0.13867 z m 0.97071,0.13867 a 241.0011,241 0 0 0 1.24804,0.17383 241,241 0 0 1 -1.24804,-0.17383 z m 2.25195,0.3086 a 241,241 0 0 0 1.08398,0.14062 241.0011,241 0 0 1 -1.08398,-0.14062 z m 1.08398,0.14062 a 241,241 0 0 0 1.23828,0.1543 241.0011,241 0 0 1 -1.23828,-0.1543 z m 1.34766,0.16797 a 241,241 0 0 0 1.24414,0.14844 241.0011,241 0 0 1 -1.24414,-0.14844 z m 1.24414,0.14844 a 241,241 0 0 0 1.19922,0.13671 241.0011,241 0 0 1 -1.19922,-0.13671 z m 56.00586,-0.0234 a 241,241 0 0 1 -0.76172,0.0879 241.0011,241 0 0 0 0.76172,-0.0879 z M 229.5,495.53906 a 241,241 0 0 0 0.91211,0.0977 241.0011,241 0 0 1 -0.91211,-0.0977 z m 2.56641,0.26953 a 241,241 0 0 0 0.92578,0.0899 241.0011,241 0 0 1 -0.92578,-0.0899 z m 46.82226,0.10157 a 241.0011,241 0 0 1 -1.5,0.13867 241,241 0 0 0 1.5,-0.13867 z m -44.13281,0.15039 a 241,241 0 0 0 0.7832,0.0684 241.0011,241 0 0 1 -0.7832,-0.0684 z m 0.7832,0.0684 a 241.0011,241 0 0 0 0.70703,0.0605 241,241 0 0 1 -0.70703,-0.0605 z m 1.08594,0.0898 a 241.0011,241 0 0 0 1.11719,0.0879 241,241 0 0 1 -1.11719,-0.0879 z m 1.11719,0.0879 a 241.0011,241 0 0 0 1.13086,0.084 241,241 0 0 1 -1.13086,-0.084 z m 37.33593,-0.0645 a 241.0011,241 0 0 1 -4.32812,0.30469 241,241 0 0 0 4.32812,-0.30469 z m -35.85937,0.17187 a 241.0011,241 0 0 0 1.12695,0.0762 241,241 0 0 1 -1.12695,-0.0762 z m 1.12695,0.0762 a 241.0011,241 0 0 0 1.0293,0.0645 241,241 0 0 1 -1.0293,-0.0645 z m 1.0293,0.0645 a 241,241 0 0 0 1.0293,0.0605 241.0011,241 0 0 1 -1.0293,-0.0605 z m 1.0293,0.0605 a 241,241 0 0 0 1.11132,0.0605 241.0011,241 0 0 1 -1.11132,-0.0605 z m 26.3164,0.0469 a 241.0011,241 0 0 1 -2.04882,0.0996 241,241 0 0 0 2.04882,-0.0996 z m -24.38867,0.0547 a 241.0011,241 0 0 0 1.13281,0.0527 241,241 0 0 1 -1.13281,-0.0527 z m 21.87695,0.0664 a 241.0011,241 0 0 1 -2.15429,0.082 241,241 0 0 0 2.15429,-0.082 z m -19.67968,0.0293 a 241,241 0 0 0 1.01367,0.0391 241.0011,241 0 0 1 -1.01367,-0.0391 z m 1.13086,0.043 a 241,241 0 0 0 1.00781,0.0332 241.0011,241 0 0 1 -1.00781,-0.0332 z m 2.09375,0.0625 a 241.0011,241 0 0 0 0.95312,0.0234 241,241 0 0 1 -0.95312,-0.0234 z m 1.98437,0.0449 a 241,241 0 0 0 1.10156,0.0156 241.0011,241 0 0 1 -1.10156,-0.0156 z m 1.10156,0.0156 a 241,241 0 0 0 1.24219,0.0137 241.0011,241 0 0 1 -1.24219,-0.0137 z m 2.0625,0.0176 a 241.0011,241 0 0 0 1.09571,0.004 241,241 0 0 1 -1.09571,-0.004 z"
       style="fill:#ffffff;stroke-width:0.277426"
       id="path31" />
  </g>
  <g
     style="display:inline"
     inkscape:label="Bottom circle"
     id="layer5"
     inkscape:groupmode="layer">
    <path
       d="M 57.764262,91.687647 A 9.9632616,9.9632164 0 0 1 47.801,101.65087 9.9632616,9.9632164 0 0 1 37.837739,91.687647 9.9632616,9.9632164 0 0 1 47.801,81.72443 9.9632616,9.9632164 0 0 1 57.764262,91.687647 M 47.693284,73.504998 a 18.182953,18.18287 0 0 0 -18.07544,18.18287 18.182953,18.18287 0 0 0 18.182953,18.182872 18.182953,18.18287 0 0 0 18.182953,-18.182872 18.182953,18.18287 0 0 0 -18.182953,-18.18287 18.182953,18.18287 0 0 0 -0.107513,0 z m 0.02481,4.483447 a 13.699485,13.699423 0 0 1 0.0827,0 A 13.699485,13.699423 0 0 1 61.500282,91.687868 13.699485,13.699423 0 0 1 47.800797,105.38729 13.699485,13.699423 0 0 1 34.101312,91.687868 13.699485,13.699423 0 0 1 47.718094,77.988445 Z"
       style="display:inline;fill:#ffffff;stroke-width:0.0136483"
       id="path34-3" />
  </g>
  <g
     style="display:inline"
     inkscape:label="Top circle"
     id="layer7"
     inkscape:groupmode="layer">
    <path
       d="M 101.21717,51.149741 A 12.454078,12.454021 0 0 1 88.763097,63.603763 12.454078,12.454021 0 0 1 76.309019,51.149741 12.454078,12.454021 0 0 1 88.763097,38.69572 12.454078,12.454021 0 0 1 101.21717,51.149741 Z M 88.762923,26.989228 A 24.16091,24.1608 0 0 0 64.602015,51.15003 24.16091,24.1608 0 0 0 88.762923,75.310831 24.16091,24.1608 0 0 0 112.92383,51.15003 24.16091,24.1608 0 0 0 88.762923,26.989228 Z m 0,7.721495 A 16.439382,16.439308 0 0 1 105.2023,51.15003 16.439382,16.439308 0 0 1 88.762923,67.589338 16.439382,16.439308 0 0 1 72.323542,51.15003 16.439382,16.439308 0 0 1 88.762923,34.710723 Z"
       style="fill:#ffffff;stroke-width:0.0249081"
       id="path82" />
  </g>
  <g
     style="display:inline"
     inkscape:label="Link"
     id="layer10"
     inkscape:groupmode="layer">
    <path
       d="m 64.602015,51.15003 -15.408516,22.421614 6.323364,6.796685 a 13.699484,13.699423 0 0 1 4.129791,4.439178 l 6.264984,6.73344 22.851285,-16.230116 z M 47.927174,73.505483 a 18.182952,18.18287 0 0 1 0.157621,0.002 18.182952,18.18287 0 0 0 -0.157621,-0.002 z m 0.162,0.002 a 18.182952,18.18287 0 0 1 0.140594,0.0029 18.182952,18.18287 0 0 0 -0.140594,-0.0029 z m 0.717566,0.0253 a 18.182952,18.18287 0 0 1 0.134273,0.0083 18.182952,18.18287 0 0 0 -0.134273,-0.0083 z M 29.61822,91.814411 a 18.182952,18.18287 0 0 0 0.002,0.159566 18.182952,18.18287 0 0 1 -0.002,-0.159566 z m 0.02724,0.879566 a 18.182952,18.18287 0 0 0 0.0083,0.134269 18.182952,18.18287 0 0 1 -0.0083,-0.134269 z m 0.0326,0.469945 a 18.182952,18.18287 0 0 0 0.01071,0.125511 18.182952,18.18287 0 0 1 -0.01071,-0.125511 z m 36.239905,0.06859 a 18.182952,18.18287 0 0 1 -0.01507,0.163945 18.182952,18.18287 0 0 0 0.01507,-0.163945 z m -36.172284,0.605186 a 18.182952,18.18287 0 0 0 0.02042,0.166378 18.182952,18.18287 0 0 1 -0.02042,-0.166378 z m 36.09688,0.110432 a 18.182952,18.18287 0 0 1 -0.01507,0.119676 18.182952,18.18287 0 0 0 0.01507,-0.119676 z m -36.061852,0.16684 a 18.182952,18.18287 0 0 0 0.02481,0.177079 18.182952,18.18287 0 0 1 -0.02481,-0.177079 z m 0.04135,0.289457 a 18.182952,18.18287 0 0 0 0.02092,0.134271 18.182952,18.18287 0 0 1 -0.02092,-0.134271 z m 0.06811,0.418377 a 18.182952,18.18287 0 0 0 0.02627,0.144973 18.182952,18.18287 0 0 1 -0.02627,-0.144973 z m 0.161515,0.812431 a 18.182952,18.18287 0 0 0 0.02724,0.121621 18.182952,18.18287 0 0 1 -0.02724,-0.121621 z m 0.06081,0.264163 a 18.182952,18.18287 0 0 0 0.036,0.148377 18.182952,18.18287 0 0 1 -0.036,-0.148377 z m 35.335525,0.169297 a 18.182952,18.18287 0 0 1 -0.03162,0.125997 18.182952,18.18287 0 0 0 0.03162,-0.125997 z m -35.274714,0.07881 a 18.182952,18.18287 0 0 0 0.03211,0.124539 18.182952,18.18287 0 0 1 -0.03211,-0.124539 z m 35.163796,0.34589 a 18.182952,18.18287 0 0 1 -0.036,0.128919 18.182952,18.18287 0 0 0 0.036,-0.128919 z m -34.97747,0.334701 a 18.182952,18.18287 0 0 0 0.04524,0.150811 18.182952,18.18287 0 0 1 -0.04524,-0.150811 z m 34.824713,0.192164 a 18.182952,18.18287 0 0 1 -0.03843,0.12308 18.182952,18.18287 0 0 0 0.03843,-0.12308 z m -34.743956,0.07341 a 18.182952,18.18287 0 0 0 0.05011,0.158594 18.182952,18.18287 0 0 1 -0.05011,-0.158594 z m 0.443676,1.260968 a 18.182952,18.18287 0 0 0 0.05595,0.1401 18.182952,18.18287 0 0 1 -0.05595,-0.1401 z m 0.05887,0.146916 a 18.182952,18.18287 0 0 0 0.05497,0.134273 18.182952,18.18287 0 0 1 -0.05497,-0.134273 z m 33.644493,0.173191 a 18.182952,18.18287 0 0 1 -0.06422,0.152752 18.182952,18.18287 0 0 0 0.06422,-0.152752 z m -0.190702,0.442696 a 18.182952,18.18287 0 0 1 -0.05789,0.127457 18.182952,18.18287 0 0 0 0.05789,-0.127457 z m -0.103623,0.226709 a 18.182952,18.18287 0 0 1 -0.05595,0.120161 18.182952,18.18287 0 0 0 0.05595,-0.120161 z m -32.946385,0.08218 a 18.182952,18.18287 0 0 0 0.05741,0.119672 18.182952,18.18287 0 0 1 -0.05741,-0.119672 z m 0.278757,0.566265 a 18.182952,18.18287 0 0 0 0.05984,0.115785 18.182952,18.18287 0 0 1 -0.05984,-0.115785 z m 0.161515,0.307945 a 18.182952,18.18287 0 0 0 0.07103,0.13038 18.182952,18.18287 0 0 1 -0.07103,-0.13038 z m 31.978762,0.0895 a 18.182952,18.18287 0 0 1 -0.05595,0.10216 18.182952,18.18287 0 0 0 0.05595,-0.10216 z m -0.170758,0.30648 a 18.182952,18.18287 0 0 1 -0.05935,0.10313 18.182952,18.18287 0 0 0 0.05935,-0.10313 z m -31.280165,0.52054 a 18.182952,18.18287 0 0 0 0.08465,0.13573 18.182952,18.18287 0 0 1 -0.08465,-0.13573 z m 0.296755,0.46606 a 18.182952,18.18287 0 0 0 0.07395,0.11091 18.182952,18.18287 0 0 1 -0.07395,-0.11091 z m 30.322762,0.0842 a 18.182952,18.18287 0 0 1 -0.06714,0.10021 18.182952,18.18287 0 0 0 0.06714,-0.10021 z m -0.13038,0.19265 a 18.182952,18.18287 0 0 1 -0.09827,0.14204 18.182952,18.18287 0 0 0 0.09827,-0.14204 z m -29.938436,0.0988 a 18.182952,18.18287 0 0 0 0.07638,0.10896 18.182952,18.18287 0 0 1 -0.07638,-0.10896 z m 29.829463,0.0588 a 18.182952,18.18287 0 0 1 -0.08951,0.12648 18.182952,18.18287 0 0 0 0.08951,-0.12648 z m -29.682056,0.15032 a 18.182952,18.18287 0 0 0 0.08611,0.1187 18.182952,18.18287 0 0 1 -0.08611,-0.1187 z m 29.576002,0 a 18.182952,18.18287 0 0 1 -0.08611,0.1187 18.182952,18.18287 0 0 0 0.08611,-0.1187 z m -29.40573,0.23352 a 18.182952,18.18287 0 0 0 0.09195,0.12308 18.182952,18.18287 0 0 1 -0.09195,-0.12308 z m 0.09681,0.12988 a 18.182952,18.18287 0 0 0 0.08611,0.11336 18.182952,18.18287 0 0 1 -0.08611,-0.11336 z m 28.997567,0.0584 a 18.182952,18.18287 0 0 1 -0.09389,0.12211 18.182952,18.18287 0 0 0 0.09389,-0.12211 z m -28.835567,0.15324 a 18.182952,18.18287 0 0 0 0.08465,0.108 18.182952,18.18287 0 0 1 -0.08465,-0.108 z m 28.660431,0.073 a 18.182952,18.18287 0 0 1 -0.0827,0.10459 18.182952,18.18287 0 0 0 0.0827,-0.10459 z m -28.493567,0.13865 a 18.182952,18.18287 0 0 0 0.103623,0.12843 18.182952,18.18287 0 0 1 -0.103623,-0.12843 z m 28.272701,0.13719 a 18.182952,18.18287 0 0 1 -0.105568,0.12794 18.182952,18.18287 0 0 0 0.105568,-0.12794 z m -28.156429,0.007 a 18.182952,18.18287 0 0 0 0.08027,0.0968 18.182952,18.18287 0 0 1 -0.08027,-0.0968 z m 0.162486,0.19507 a 18.182952,18.18287 0 0 0 0.09243,0.10947 18.182952,18.18287 0 0 1 -0.09243,-0.10947 z m 27.826104,0 a 18.182952,18.18287 0 0 1 -0.10362,0.12309 18.182952,18.18287 0 0 0 0.10362,-0.12309 z m -0.112863,0.13379 a 18.182952,18.18287 0 0 1 -0.09049,0.1046 18.182952,18.18287 0 0 0 0.09049,-0.1046 z m -0.182921,0.20968 a 18.182952,18.18287 0 0 1 -0.09,0.10118 18.182952,18.18287 0 0 0 0.09,-0.10118 z m -0.239838,0.26561 a 18.182952,18.18287 0 0 1 -0.09097,0.0983 18.182952,18.18287 0 0 0 0.09097,-0.0983 z m -26.749507,0.006 a 18.182952,18.18287 0 0 0 0.102646,0.11092 18.182952,18.18287 0 0 1 -0.102646,-0.11092 z m 26.56075,0.19703 a 18.182952,18.18287 0 0 1 -0.105568,0.10995 18.182952,18.18287 0 0 0 0.105568,-0.10995 z m -0.186325,0.19313 a 18.182952,18.18287 0 0 1 -0.103135,0.1046 18.182952,18.18287 0 0 0 0.103135,-0.1046 z m -0.37508,0.37265 a 18.182952,18.18287 0 0 1 -0.111406,0.10702 18.182952,18.18287 0 0 0 0.111406,-0.10702 z m -0.476759,0.44416 a 18.182952,18.18287 0 0 1 -0.09389,0.0837 18.182952,18.18287 0 0 0 0.09389,-0.0837 z m -0.181947,0.16103 a 18.182952,18.18287 0 0 1 -0.13135,0.11383 18.182952,18.18287 0 0 0 0.13135,-0.11383 z m -0.222322,0.19119 a 18.182952,18.18287 0 0 1 -0.09584,0.0808 18.182952,18.18287 0 0 0 0.09584,-0.0808 z m -23.425342,0.0559 a 18.182952,18.18287 0 0 0 0.112378,0.0934 18.182952,18.18287 0 0 1 -0.112378,-0.0934 z m 23.085286,0.22524 a 18.182952,18.18287 0 0 1 -0.125515,0.0997 18.182952,18.18287 0 0 0 0.125515,-0.0997 z m -22.738906,0.0584 a 18.182952,18.18287 0 0 0 0.09292,0.074 18.182952,18.18287 0 0 1 -0.09292,-0.074 z m 0.197512,0.1552 a 18.182952,18.18287 0 0 0 0.124055,0.0953 18.182952,18.18287 0 0 1 -0.124055,-0.0953 z m 22.130798,0.1075 a 18.182952,18.18287 0 0 1 -0.109459,0.0822 18.182952,18.18287 0 0 0 0.109459,-0.0822 z m -0.205784,0.15374 a 18.182952,18.18287 0 0 1 -0.134756,0.0983 18.182952,18.18287 0 0 0 0.134756,-0.0983 z m -0.139135,0.10167 a 18.182952,18.18287 0 0 1 -0.143027,0.10217 18.182952,18.18287 0 0 0 0.143027,-0.10217 z m -21.278473,0.016 a 18.182952,18.18287 0 0 0 0.112381,0.0803 18.182952,18.18287 0 0 1 -0.112381,-0.0803 z m 0.376056,0.26368 a 18.182952,18.18287 0 0 0 0.103623,0.0705 18.182952,18.18287 0 0 1 -0.103623,-0.0705 z m 0.439298,0.29092 a 18.182952,18.18287 0 0 0 0.125026,0.0793 18.182952,18.18287 0 0 1 -0.125026,-0.0793 z m 19.477496,0.0934 a 18.182952,18.18287 0 0 1 -0.135729,0.0846 18.182952,18.18287 0 0 0 0.135729,-0.0846 z m -0.14838,0.0924 a 18.182952,18.18287 0 0 1 -0.117728,0.0715 18.182952,18.18287 0 0 0 0.117728,-0.0715 z m -18.821224,0.12808 a 18.182952,18.18287 0 0 0 0.146432,0.0857 18.182952,18.18287 0 0 1 -0.146432,-0.0857 z m 18.209223,0.23109 a 18.182952,18.18287 0 0 1 -0.121136,0.0676 18.182952,18.18287 0 0 0 0.121136,-0.0676 z m -17.798627,0.006 a 18.182952,18.18287 0 0 0 0.117731,0.0657 18.182952,18.18287 0 0 1 -0.117731,-0.0657 z m 17.326735,0.25005 a 18.182952,18.18287 0 0 1 -0.150812,0.0783 18.182952,18.18287 0 0 0 0.150812,-0.0783 z m -0.16492,0.0851 a 18.182952,18.18287 0 0 1 -0.129891,0.0657 18.182952,18.18287 0 0 0 0.129891,-0.0657 z m -0.240812,0.12113 a 18.182952,18.18287 0 0 1 -0.132322,0.0642 18.182952,18.18287 0 0 0 0.132322,-0.0642 z m -15.571487,0.22817 a 18.182952,18.18287 0 0 0 0.140594,0.0637 18.182952,18.18287 0 0 1 -0.140594,-0.0637 z m 14.847108,0.10849 a 18.182952,18.18287 0 0 1 -0.155676,0.0676 18.182952,18.18287 0 0 0 0.155676,-0.0676 z m -14.592676,0.006 a 18.182952,18.18287 0 0 0 0.1153,0.0501 18.182952,18.18287 0 0 1 -0.1153,-0.0501 z m 0.222325,0.0954 a 18.182952,18.18287 0 0 0 0.131839,0.0555 18.182952,18.18287 0 0 1 -0.131839,-0.0555 z m 1.004598,0.38967 a 18.182952,18.18287 0 0 0 0.132811,0.0462 18.182952,18.18287 0 0 1 -0.132811,-0.0462 z m 11.797805,0.11238 a 18.182952,18.18287 0 0 1 -0.143028,0.0472 18.182952,18.18287 0 0 0 0.143028,-0.0472 z m -11.083643,0.12357 a 18.182952,18.18287 0 0 0 0.102649,0.0312 18.182952,18.18287 0 0 1 -0.102649,-0.0312 z m 0.339082,0.1007 a 18.182952,18.18287 0 0 0 0.125027,0.0355 18.182952,18.18287 0 0 1 -0.125027,-0.0355 z m 0.84892,0.22135 a 18.182952,18.18287 0 0 0 0.129893,0.0301 18.182952,18.18287 0 0 1 -0.129893,-0.0301 z m 0.324488,0.073 a 18.182952,18.18287 0 0 0 0.17027,0.0361 18.182952,18.18287 0 0 1 -0.17027,-0.0361 z m 0.280703,0.0584 a 18.182952,18.18287 0 0 0 0.171729,0.033 18.182952,18.18287 0 0 1 -0.171729,-0.033 z m 6.745148,0.0691 a 18.182952,18.18287 0 0 1 -0.131351,0.0229 18.182952,18.18287 0 0 0 0.131351,-0.0229 z m -6.369581,0.002 a 18.182952,18.18287 0 0 0 0.126489,0.0219 18.182952,18.18287 0 0 1 -0.126489,-0.0219 z m 6.135093,0.0384 a 18.182952,18.18287 0 0 1 -0.16881,0.0267 18.182952,18.18287 0 0 0 0.16881,-0.0267 z m -0.280217,0.0438 a 18.182952,18.18287 0 0 1 -0.148863,0.0219 18.182952,18.18287 0 0 0 0.148863,-0.0219 z m -5.058495,0.0408 a 18.182952,18.18287 0 0 0 0.124055,0.0161 18.182952,18.18287 0 0 1 -0.124055,-0.0161 z m 0.679136,0.0768 a 18.182952,18.18287 0 0 0 0.165408,0.0151 18.182952,18.18287 0 0 1 -0.165408,-0.0151 z m 0.173189,0.0155 a 18.182952,18.18287 0 0 0 0.14984,0.0117 18.182952,18.18287 0 0 1 -0.14984,-0.0117 z m 0.391138,0.0287 a 18.182952,18.18287 0 0 0 0.132324,0.008 18.182952,18.18287 0 0 1 -0.132324,-0.008 z m 1.569408,0.0307 a 18.182952,18.18287 0 0 1 -0.140594,0.003 18.182952,18.18287 0 0 0 0.140594,-0.003 z m -0.856218,5e-4 a 18.182952,18.18287 0 0 0 0.139623,0.003 18.182952,18.18287 0 0 1 -0.139623,-0.003 z m 0.142539,0.003 a 18.182952,18.18287 0 0 0 0.159084,0.002 18.182952,18.18287 0 0 1 -0.159084,-0.002 z"
       style="fill:#ffffff;stroke-width:0.0249081"
       id="rect100" />
  </g>
</svg>
