<?xml version="1.0" encoding="UTF-8" standalone="no"?>
<svg
   sodipodi:docname="airplane-mode-symbolic.symbolic.svg"
   id="svg8"
   version="1.1"
   viewBox="0 0 4.2333333 4.2333334"
   height="16"
   width="16"
   xmlns:inkscape="http://www.inkscape.org/namespaces/inkscape"
   xmlns:sodipodi="http://sodipodi.sourceforge.net/DTD/sodipodi-0.dtd"
   xmlns="http://www.w3.org/2000/svg"
   xmlns:svg="http://www.w3.org/2000/svg">
  <defs
     id="defs2" />
  <sodipodi:namedview
     inkscape:window-maximized="1"
     inkscape:window-y="27"
     inkscape:window-x="1920"
     inkscape:window-height="1016"
     inkscape:window-width="1920"
     units="px"
     showgrid="false"
     inkscape:document-rotation="0"
     inkscape:current-layer="layer3"
     inkscape:document-units="px"
     inkscape:cy="7.7942891"
     inkscape:cx="6.6581237"
     inkscape:zoom="32"
     inkscape:pageshadow="2"
     inkscape:pageopacity="0.0"
     borderopacity="1.0"
     bordercolor="#666666"
     pagecolor="#ffffff"
     id="base"
     inkscape:lockguides="false"
     inkscape:showpageshadow="2"
     inkscape:pagecheckerboard="0"
     inkscape:deskcolor="#d1d1d1" />
  <g
     inkscape:groupmode="layer"
     id="layer3"
     inkscape:label="Graphic"
     style="display:inline">
    <path
       id="rect889"
       style="fill:#000000;stroke-width:0.912241;stroke-linecap:round;stroke-linejoin:round;paint-order:stroke markers fill"
       d="M 0.99584218,0.86697209 A 0.14544341,0.14544424 0 0 0 0.98431,1.10218 L 1.9174951,1.8471851 1.0147956,2.4199902 0.87923531,2.3836667 0.3875163,2.2539061 a 0.06477465,0.06477502 0 0 0 -0.0540026,0.00788 0.06477465,0.06477502 0 0 0 -0.006737,0.00578 0.06477465,0.06477502 0 0 0 -0.001006,0.093133 l 0.51276792,0.513008 0.18679868,0.6986865 a 0.06477465,0.06477502 0 0 0 0.1244502,0.00181 L 1.283272,3.0834826 1.3199943,2.9464319 2.2664605,2.4516146 2.4445124,3.6313396 a 0.14544341,0.14544424 0 0 0 0.2861765,0.00602 L 2.9250141,2.654419 3.0522145,1.9979567 3.7520263,1.5939179 C 3.9194523,1.4972539 3.9764199,1.2846463 3.8797566,1.1172195 3.7830931,0.94979284 3.5704868,0.89282458 3.4030608,0.98948857 L 2.7008878,1.3948906 2.0727749,1.1782889 1.1221761,0.85132759 a 0.14544341,0.14544424 0 0 0 -0.12633392,0.0156445 z" />
  </g>
</svg>
