<?xml version="1.0" encoding="UTF-8" standalone="no"?>
<svg
   xmlns:dc="http://purl.org/dc/elements/1.1/"
   xmlns:cc="http://creativecommons.org/ns#"
   xmlns:rdf="http://www.w3.org/1999/02/22-rdf-syntax-ns#"
   xmlns:svg="http://www.w3.org/2000/svg"
   xmlns="http://www.w3.org/2000/svg"
   xmlns:sodipodi="http://sodipodi.sourceforge.net/DTD/sodipodi-0.dtd"
   xmlns:inkscape="http://www.inkscape.org/namespaces/inkscape"
   sodipodi:docname="airplane-mode-symbolic.symbolic.svg"
   inkscape:version="1.0.2 (e86c870879, 2021-01-15)"
   id="svg8"
   version="1.1"
   viewBox="0 0 4.2333333 4.2333334"
   height="16"
   width="16">
  <defs
     id="defs2" />
  <sodipodi:namedview
     inkscape:window-maximized="1"
     inkscape:window-y="27"
     inkscape:window-x="1920"
     inkscape:window-height="1016"
     inkscape:window-width="1920"
     units="px"
     showgrid="false"
     inkscape:document-rotation="0"
     inkscape:current-layer="layer3"
     inkscape:document-units="px"
     inkscape:cy="8.5390021"
     inkscape:cx="9.7111373"
     inkscape:zoom="32"
     inkscape:pageshadow="2"
     inkscape:pageopacity="0.0"
     borderopacity="1.0"
     bordercolor="#666666"
     pagecolor="#ffffff"
     id="base"
     inkscape:lockguides="false" />
  <metadata
     id="metadata5">
    <rdf:RDF>
      <cc:Work
         rdf:about="">
        <dc:format>image/svg+xml</dc:format>
        <dc:type
           rdf:resource="http://purl.org/dc/dcmitype/StillImage" />
        <dc:title />
      </cc:Work>
    </rdf:RDF>
  </metadata>
  <g
     inkscape:groupmode="layer"
     id="layer3"
     inkscape:label="Graphic"
     style="display:inline">
    <path
       id="rect889"
       style="fill:#000000;stroke-width:3.26765;stroke-linecap:round;stroke-linejoin:round;paint-order:stroke markers fill"
       d="M 6.3339844 2.0585938 A 0.52098059 0.52098059 0 0 0 5.8769531 2.7675781 L 7.4375 6.75 L 3.6113281 6.9101562 L 3.2558594 6.5546875 L 1.9628906 5.2714844 A 0.23202384 0.23202384 0 0 0 1.78125 5.1992188 A 0.23202384 0.23202384 0 0 0 1.75 5.2050781 A 0.23202384 0.23202384 0 0 0 1.5800781 5.4921875 L 2.2519531 8.0019531 L 1.5800781 10.503906 A 0.23202384 0.23202384 0 0 0 1.9628906 10.732422 L 3.2558594 9.4492188 L 3.6152344 9.0898438 L 7.4375 9.25 L 5.8769531 13.228516 A 0.52098059 0.52098059 0 0 0 6.7539062 13.759766 L 9.1171875 11.058594 L 10.6875 9.25 L 13.582031 9.25 C 14.274531 9.25 14.832031 8.6924996 14.832031 8 C 14.832031 7.3075004 14.274531 6.75 13.582031 6.75 L 10.677734 6.75 L 9.1171875 4.953125 L 6.7539062 2.2363281 A 0.52098059 0.52098059 0 0 0 6.3339844 2.0585938 z "
       transform="scale(0.26458333)" />
    <circle
       style="fill:none;stroke:none;stroke-width:1.42594;stroke-linecap:round;stroke-linejoin:round;stroke-miterlimit:4;stroke-dasharray:none;paint-order:stroke markers fill"
       id="path854"
       cx="2.1166668"
       cy="2.1166668"
       r="2.1166668" />
  </g>
</svg>
