<?xml version="1.0" encoding="UTF-8" standalone="no"?>
<svg
   sodipodi:docname="appointment-soon.svg"
   id="svg8"
   version="1.1"
   viewBox="0 0 67.733332 67.733335"
   height="256"
   width="256"
   inkscape:version="1.4.2 (ebf0e940d0, 2025-05-08)"
   xmlns:inkscape="http://www.inkscape.org/namespaces/inkscape"
   xmlns:sodipodi="http://sodipodi.sourceforge.net/DTD/sodipodi-0.dtd"
   xmlns="http://www.w3.org/2000/svg"
   xmlns:svg="http://www.w3.org/2000/svg">
  <defs
     id="defs2" />
  <sodipodi:namedview
     inkscape:window-maximized="1"
     inkscape:window-y="0"
     inkscape:window-x="0"
     inkscape:window-height="1011"
     inkscape:window-width="1920"
     units="px"
     showgrid="false"
     inkscape:document-rotation="0"
     inkscape:current-layer="layer4"
     inkscape:document-units="px"
     inkscape:cy="46.999997"
     inkscape:cx="-43.999997"
     inkscape:zoom="1.0000001"
     inkscape:pageshadow="2"
     inkscape:pageopacity="0.0"
     borderopacity="1.0"
     bordercolor="#666666"
     pagecolor="#ffffff"
     id="base"
     inkscape:showpageshadow="2"
     inkscape:pagecheckerboard="0"
     inkscape:deskcolor="#d1d1d1" />
  <g
     inkscape:groupmode="layer"
     id="layer1"
     inkscape:label="Background"
     style="display:inline">
    <g
       inkscape:label="Shadow"
       id="layer10"
       inkscape:groupmode="layer"
       style="display:inline;opacity:0.4">
      <path
         id="path839"
         style="display:inline;opacity:1;fill:#000000;fill-opacity:1;stroke-width:0.0246944;stroke-miterlimit:4;stroke-dasharray:none;paint-order:stroke fill markers"
         d="m 4.2333333,34.925001 v 24.641082 c 0,2.765599 2.2266527,4.992251 4.9922512,4.992251 H 58.50775 c 2.765599,0 4.99225,-2.226652 4.99225,-4.992251 V 34.925001 Z" />
    </g>
    <g
       style="display:inline"
       inkscape:label="Colour"
       id="g1174"
       inkscape:groupmode="layer">
      <path
         id="rect1168"
         style="display:inline;fill:#23aee0;fill-opacity:1;stroke-width:0.0933332;stroke-miterlimit:4;stroke-dasharray:none;paint-order:stroke fill markers"
         d="M 34.869141,16 C 24.416485,16 16,24.416483 16,34.869141 V 128 221.13086 C 16,231.58352 24.416485,240 34.869141,240 H 221.13086 C 231.58352,240 240,231.58352 240,221.13086 V 128 34.869141 C 240,24.416483 231.58352,16 221.13086,16 Z"
         transform="scale(0.26458333)" />
    </g>
    <g
       inkscape:groupmode="layer"
       id="layer2"
       inkscape:label="Highlight"
       style="opacity:0.1">
      <path
         d="m 9.2257931,4.2333333 c -2.7655986,0 -4.9924598,2.2268608 -4.9924598,4.9924598 v 1.0583329 c 0,-2.7655979 2.2268612,-4.9924597 4.9924598,-4.9924597 H 58.50754 c 2.765599,0 4.99246,2.2268618 4.99246,4.9924597 V 9.2257931 c 0,-2.765599 -2.226861,-4.9924598 -4.99246,-4.9924598 z"
         style="display:inline;opacity:1;fill:#ffffff;fill-opacity:1;stroke-width:0.0246944;stroke-miterlimit:4;stroke-dasharray:none;paint-order:stroke fill markers"
         id="path955" />
    </g>
  </g>
  <g
     inkscape:groupmode="layer"
     id="layer4"
     inkscape:label="Graphic"
     style="display:inline">
    <g
       id="g1160">
      <path
         id="path978"
         style="color:#000000;font-style:normal;font-variant:normal;font-weight:normal;font-stretch:normal;font-size:medium;line-height:normal;font-family:sans-serif;font-variant-ligatures:normal;font-variant-position:normal;font-variant-caps:normal;font-variant-numeric:normal;font-variant-alternates:normal;font-variant-east-asian:normal;font-feature-settings:normal;font-variation-settings:normal;text-indent:0;text-align:start;text-decoration:none;text-decoration-line:none;text-decoration-style:solid;text-decoration-color:#000000;letter-spacing:normal;word-spacing:normal;text-transform:none;writing-mode:lr-tb;direction:ltr;text-orientation:mixed;dominant-baseline:auto;baseline-shift:baseline;text-anchor:start;white-space:normal;shape-padding:0;shape-margin:0;inline-size:0;clip-rule:nonzero;display:inline;overflow:visible;visibility:visible;opacity:0.25;isolation:auto;mix-blend-mode:normal;color-interpolation:sRGB;color-interpolation-filters:linearRGB;solid-color:#000000;solid-opacity:1;vector-effect:none;fill:#e6e6e6;fill-opacity:1;fill-rule:nonzero;stroke:none;stroke-width:3.77953;stroke-linecap:butt;stroke-linejoin:miter;stroke-miterlimit:4;stroke-dasharray:none;stroke-dashoffset:0;stroke-opacity:1;color-rendering:auto;image-rendering:auto;shape-rendering:auto;text-rendering:auto;enable-background:accumulate;stop-color:#000000;stop-opacity:1"
         d="m 47,45.501953 c -0.829909,0 -1.498047,0.668131 -1.498047,1.498047 v 162.00391 c 0,0.82991 0.668129,1.49804 1.498047,1.49804 56.35563,0 113.74507,0 162.00391,0 0.82991,0 1.49804,-0.66814 1.49804,-1.49804 V 47 c 0,-0.829916 -0.66814,-1.498047 -1.49804,-1.498047 -53.50195,0 -107.00391,0 -160.505863,0 z m 1.498047,2.996094 h 24 v 24 h -24 z m 27.003906,0 H 99.5 v 24 H 75.501953 Z m 26.996097,0 h 24.00586 v 24 h -24.00586 z m 27.00195,0 h 23.99805 v 24 H 129.5 Z m 27.00391,0 h 23.99804 v 24 h -23.99804 z m 26.99414,0 h 24 v 24 h -24 z M 48.498047,75.501953 h 24 V 99.5 h -24 z m 27.003906,0 H 99.5 V 99.5 H 75.501953 Z m 26.996097,0 h 24.00586 V 99.5 h -24.00586 z m 27.00195,0 h 23.99805 V 99.5 H 129.5 Z m 27.00391,0 h 23.99804 V 99.5 h -23.99804 z m 26.99414,0 h 24 V 99.5 h -24 z M 48.498047,102.49805 h 24 v 24.00586 h -24 z m 27.003906,0 H 99.5 v 24.00586 H 75.501953 Z m 26.996097,0 h 24.00586 v 24.00586 h -24.00586 z m 27.00195,0 h 23.99805 v 24.00586 H 129.5 Z m 27.00391,0 h 23.99804 v 24.00586 h -23.99804 z m 26.99414,0 h 24 v 24.00586 h -24 z M 48.498047,129.5 h 24 v 23.99805 h -24 z m 27.003906,0 H 99.5 v 23.99805 H 75.501953 Z m 26.996097,0 h 24.00586 v 23.99805 h -24.00586 z m 27.00195,0 h 23.99805 v 23.99805 H 129.5 Z m 27.00391,0 h 23.99804 v 23.99805 h -23.99804 z m 26.99414,0 h 24 v 23.99805 h -24 z M 48.498047,156.50391 h 24 v 23.99804 h -24 z m 27.003906,0 H 99.5 v 23.99804 H 75.501953 Z m 26.996097,0 h 24.00586 v 23.99804 h -24.00586 z m 27.00195,0 h 23.99805 v 23.99804 H 129.5 Z m 27.00391,0 h 23.99804 v 23.99804 h -23.99804 z m 26.99414,0 h 24 v 23.99804 h -24 z M 48.498047,183.49805 h 24 v 24 h -24 z m 27.003906,0 H 99.5 v 24 H 75.501953 Z m 26.996097,0 h 24.00586 v 24 h -24.00586 z m 27.00195,0 h 23.99805 v 24 H 129.5 Z m 27.00391,0 h 23.99804 v 24 h -23.99804 z m 26.99414,0 h 24 v 24 h -24 z"
         transform="scale(0.26458333)"
         sodipodi:nodetypes="sssccssccscccccccccccccccccccccccccccccccccccccccccccccccccccccccccccccccccccccccccccccccccccccccccccccccccccccccccccccccccccccccccccccccccccccccccccccccccccccccccccccccccccccccccccccccccccc" />
      <path
         id="rect950"
         style="display:inline;opacity:0.35;fill:#f9f9f9;fill-opacity:1;stroke:none;stroke-width:7.181;stroke-linecap:round;stroke-linejoin:round;stroke-miterlimit:4;stroke-dasharray:none;paint-order:markers fill stroke"
         d="m 48.5,48.5 v 24 h 24 v -24 z m 27,0 v 24 h 24 v -24 z m 27,0 v 24 h 24 v -24 z m 27,135 v 24 h 24 v -24 z m 27,0 v 24 h 24 v -24 z m 27,0 v 24 h 24 v -24 z"
         transform="scale(0.26458333)" />
    </g>
    <path
       style="font-size:4px;line-height:1.25;font-family:'DejaVu Sans';-inkscape-font-specification:'DejaVu Sans';white-space:pre;fill:#000000;stroke-width:0.264584;opacity:0.4"
       d="m 15.825997,44.454461 h 5.464339 V 25.594244 l -5.944534,1.192218 v -3.046779 l 5.91147,-1.192217 h 3.344834 v 21.906995 h 5.464339 v 2.814965 H 15.825997 Z m 21.095691,2.301648 v -3.046778 q 1.258477,0.596087 2.550104,0.910723 1.291541,0.314618 2.533402,0.314618 3.311769,0 5.050442,-2.218852 1.755205,-2.235409 2.003611,-6.772457 -0.960475,1.42404 -2.434125,2.185736 -1.473734,0.761663 -3.262088,0.761663 -3.709134,0 -5.878321,-2.2354 -2.152654,-2.251967 -2.152654,-6.143238 0,-3.808475 2.252017,-6.110114 2.251932,-2.30164 5.994215,-2.30164 4.288692,0 6.540708,3.295158 2.268465,3.278593 2.268465,9.537741 0,5.845177 -2.781809,9.339034 -2.765276,3.4773 -7.451417,3.4773 -1.258478,0 -2.55002,-0.248406 -1.291541,-0.248405 -2.68253,-0.74513 z M 43.578291,36.27453 q 2.252017,0 3.560091,-1.539951 1.32469,-1.539951 1.32469,-4.222438 0,-2.66593 -1.32469,-4.205881 -1.308074,-1.5565 -3.560091,-1.5565 -2.251932,0 -3.576623,1.5565 -1.308159,1.539951 -1.308159,4.205881 0,2.682487 1.308159,4.222438 1.324691,1.539951 3.576623,1.539951 z"
       id="path2"
       aria-label="19" />
    <path
       style="font-size:4px;line-height:1.25;font-family:'DejaVu Sans';-inkscape-font-specification:'DejaVu Sans';white-space:pre;fill:#ffffff;stroke-width:0.0312083"
       d="m 313.49609,79.307469 h 0.64453 V 77.08286 l -0.70117,0.140625 V 76.86411 l 0.69727,-0.140625 h 0.39453 v 2.583984 h 0.64453 v 0.332032 h -1.67969 z m 2.48828,0.271485 v -0.359375 q 0.14844,0.07031 0.30079,0.107422 0.15234,0.03711 0.29882,0.03711 0.39063,0 0.59571,-0.261719 0.20703,-0.263672 0.23633,-0.798828 -0.11329,0.167969 -0.28711,0.257813 -0.17383,0.08984 -0.38477,0.08984 -0.4375,0 -0.69336,-0.263671 -0.25391,-0.265625 -0.25391,-0.72461 0,-0.449219 0.26563,-0.720703 0.26562,-0.271484 0.70703,-0.271484 0.50586,0 0.77149,0.388672 0.26757,0.386718 0.26757,1.125 0,0.689453 -0.32812,1.101562 -0.32617,0.410156 -0.87891,0.410156 -0.14844,0 -0.30078,-0.0293 -0.15234,-0.0293 -0.31641,-0.08789 z m 0.78516,-1.236328 q 0.26563,0 0.41992,-0.181641 0.15625,-0.181641 0.15625,-0.498047 0,-0.314453 -0.15625,-0.496094 -0.15429,-0.183593 -0.41992,-0.183593 -0.26562,0 -0.42187,0.183593 -0.1543,0.181641 -0.1543,0.496094 0,0.316406 0.1543,0.498047 0.15625,0.181641 0.42187,0.181641 z"
       id="text2"
       transform="matrix(8.4780212,0,0,8.477992,-2642.0005,-628.97196)"
       aria-label="19" />
  </g>
  <g
     inkscape:groupmode="layer"
     id="layer3"
     inkscape:label="Large Highlight"
     style="display:inline">
    <path
       d="M 9.2255845,63.5 C 6.459986,63.5 4.2333333,61.273348 4.2333333,58.507749 V 33.866667 H 63.5 V 58.507749 C 63.5,61.273348 61.273349,63.5 58.50775,63.5 Z"
       style="display:inline;opacity:0.125;fill:#ffffff;fill-opacity:1;stroke-width:0.0246063;stroke-miterlimit:4;stroke-dasharray:none;paint-order:stroke fill markers"
       id="path842" />
  </g>
  <g
     inkscape:label="Hinges"
     id="g1156"
     inkscape:groupmode="layer"
     style="display:inline">
    <g
       id="g1164">
      <path
         id="path937"
         style="opacity:0.4;fill:#000000;fill-opacity:1;stroke:none;stroke-width:0.0307499;stroke-linecap:round;stroke-linejoin:round;stroke-miterlimit:4;stroke-dasharray:none;paint-order:markers fill stroke"
         d="m 4.2333333,29.633333 v 10.583334 h 2.6825236 c 0.7124311,0 1.2862263,-0.573797 1.2862263,-1.286227 v -8.01088 c 0,-0.71243 -0.5737952,-1.286227 -1.2862263,-1.286227 z m 56.5841427,0 c -0.71243,0 -1.286227,0.573797 -1.286227,1.286227 v 8.01088 c 0,0.71243 0.573797,1.286227 1.286227,1.286227 h 2.682523 V 29.633333 Z" />
      <path
         id="rect923"
         style="opacity:1;fill:#cccccc;fill-opacity:1;stroke:none;stroke-width:0.11622;stroke-linecap:round;stroke-linejoin:round;stroke-miterlimit:4;stroke-dasharray:none;paint-order:markers fill stroke"
         d="m 16,108 v 40 H 26.138672 C 28.831325,148 31,145.83132 31,143.13867 V 112.86133 C 31,110.16868 28.831325,108 26.138672,108 Z m 213.86133,0 C 227.16868,108 225,110.16868 225,112.86133 v 30.27734 C 225,145.83132 227.16868,148 229.86133,148 H 240 v -40 z"
         transform="scale(0.26458333)" />
    </g>
  </g>
  <g
     inkscape:groupmode="layer"
     id="layer5"
     inkscape:label="Warning">
    <path
       id="path863"
       style="color:#000000;font-style:normal;font-variant:normal;font-weight:normal;font-stretch:normal;font-size:medium;line-height:normal;font-family:sans-serif;font-variant-ligatures:normal;font-variant-position:normal;font-variant-caps:normal;font-variant-numeric:normal;font-variant-alternates:normal;font-variant-east-asian:normal;font-feature-settings:normal;font-variation-settings:normal;text-indent:0;text-align:start;text-decoration:none;text-decoration-line:none;text-decoration-style:solid;text-decoration-color:#000000;letter-spacing:normal;word-spacing:normal;text-transform:none;writing-mode:lr-tb;direction:ltr;text-orientation:mixed;dominant-baseline:auto;baseline-shift:baseline;text-anchor:start;white-space:normal;shape-padding:0;shape-margin:0;inline-size:0;clip-rule:nonzero;display:inline;overflow:visible;visibility:visible;isolation:auto;mix-blend-mode:normal;color-interpolation:sRGB;color-interpolation-filters:linearRGB;solid-color:#000000;solid-opacity:1;vector-effect:none;fill:#ff9200;fill-opacity:1;fill-rule:nonzero;stroke:none;stroke-width:1.22343334;stroke-linecap:round;stroke-linejoin:round;stroke-miterlimit:4;stroke-dasharray:none;stroke-dashoffset:0;stroke-opacity:1;paint-order:stroke markers fill;color-rendering:auto;image-rendering:auto;shape-rendering:auto;text-rendering:auto;enable-background:accumulate;stop-color:#000000"
       d="m 57.79408,49.98541 a 2.1041822,2.1041806 0 0 0 -0.07271,0.002 2.1041822,2.1041806 0 0 0 -1.732236,1.05135 l -3.908911,6.768994 -3.908915,6.769624 a 2.1041822,2.1041806 0 0 0 1.822641,3.155955 h 7.818458 7.815925 a 2.1041822,2.1041806 0 0 0 1.823276,-3.155955 L 63.542069,57.807652 59.633158,51.038658 A 2.1041822,2.1041806 0 0 0 57.79408,49.98541 Z" />
    <path
       style="font-weight:bold;font-size:4px;line-height:1.25;font-family:Cantarell;-inkscape-font-specification:'Cantarell Bold';white-space:pre;fill:#ffffff;stroke-width:0.0563203"
       d="m 140.0063,293.32459 h 0.4 l 0.056,-1.84 h -0.512 z m 0.2,0.976 c 0.204,0 0.34,-0.144 0.34,-0.34 0,-0.204 -0.136,-0.348 -0.34,-0.348 -0.208,0 -0.344,0.144 -0.344,0.348 0,0.196 0.136,0.34 0.344,0.34 z"
       id="text1"
       transform="matrix(4.6978543,0,0,4.6978543,-600.86657,-1315.9063)"
       aria-label="!" />
  </g>
</svg>
