<?xml version="1.0" encoding="UTF-8" standalone="no"?>
<svg
   sodipodi:docname="appointment-soon.svg"
   id="svg8"
   version="1.1"
   viewBox="0 0 67.733332 67.733335"
   height="256"
   width="256"
   xmlns:inkscape="http://www.inkscape.org/namespaces/inkscape"
   xmlns:sodipodi="http://sodipodi.sourceforge.net/DTD/sodipodi-0.dtd"
   xmlns="http://www.w3.org/2000/svg"
   xmlns:svg="http://www.w3.org/2000/svg">
  <defs
     id="defs2">
    <rect
       x="21.671499"
       y="51.501532"
       width="12.98784"
       height="16.561674"
       id="rect874" />
  </defs>
  <sodipodi:namedview
     inkscape:window-maximized="1"
     inkscape:window-y="27"
     inkscape:window-x="1920"
     inkscape:window-height="1016"
     inkscape:window-width="1920"
     units="px"
     showgrid="false"
     inkscape:document-rotation="0"
     inkscape:current-layer="layer4"
     inkscape:document-units="px"
     inkscape:cy="201.75502"
     inkscape:cx="111.30523"
     inkscape:zoom="2.8284273"
     inkscape:pageshadow="2"
     inkscape:pageopacity="0.0"
     borderopacity="1.0"
     bordercolor="#666666"
     pagecolor="#ffffff"
     id="base"
     inkscape:showpageshadow="2"
     inkscape:pagecheckerboard="0"
     inkscape:deskcolor="#d1d1d1" />
  <g
     inkscape:groupmode="layer"
     id="layer1"
     inkscape:label="Background"
     style="display:inline">
    <g
       inkscape:label="Shadow"
       id="layer10"
       inkscape:groupmode="layer"
       style="display:inline;opacity:0.4">
      <path
         id="path839"
         style="display:inline;opacity:1;fill:#000000;fill-opacity:1;stroke-width:0.0246944;stroke-miterlimit:4;stroke-dasharray:none;paint-order:stroke fill markers"
         d="m 4.2333333,34.925001 v 24.641082 c 0,2.765599 2.2266527,4.992251 4.9922512,4.992251 H 58.50775 c 2.765599,0 4.99225,-2.226652 4.99225,-4.992251 V 34.925001 Z" />
    </g>
    <g
       style="display:inline"
       inkscape:label="Colour"
       id="g1174"
       inkscape:groupmode="layer">
      <path
         id="rect1168"
         style="display:inline;fill:#23aee0;fill-opacity:1;stroke-width:0.0933332;stroke-miterlimit:4;stroke-dasharray:none;paint-order:stroke fill markers"
         d="M 34.869141,16 C 24.416485,16 16,24.416483 16,34.869141 V 128 221.13086 C 16,231.58352 24.416485,240 34.869141,240 H 221.13086 C 231.58352,240 240,231.58352 240,221.13086 V 128 34.869141 C 240,24.416483 231.58352,16 221.13086,16 Z"
         transform="scale(0.26458333)" />
    </g>
    <g
       inkscape:groupmode="layer"
       id="layer2"
       inkscape:label="Highlight"
       style="opacity:0.1">
      <path
         d="m 9.2257931,4.2333333 c -2.7655986,0 -4.9924598,2.2268608 -4.9924598,4.9924598 v 1.0583329 c 0,-2.7655979 2.2268612,-4.9924597 4.9924598,-4.9924597 H 58.50754 c 2.765599,0 4.99246,2.2268618 4.99246,4.9924597 V 9.2257931 c 0,-2.765599 -2.226861,-4.9924598 -4.99246,-4.9924598 z"
         style="display:inline;opacity:1;fill:#ffffff;fill-opacity:1;stroke-width:0.0246944;stroke-miterlimit:4;stroke-dasharray:none;paint-order:stroke fill markers"
         id="path955" />
    </g>
  </g>
  <g
     inkscape:groupmode="layer"
     id="layer4"
     inkscape:label="Graphic"
     style="display:inline">
    <g
       id="g1160">
      <path
         id="path978"
         style="color:#000000;font-style:normal;font-variant:normal;font-weight:normal;font-stretch:normal;font-size:medium;line-height:normal;font-family:sans-serif;font-variant-ligatures:normal;font-variant-position:normal;font-variant-caps:normal;font-variant-numeric:normal;font-variant-alternates:normal;font-variant-east-asian:normal;font-feature-settings:normal;font-variation-settings:normal;text-indent:0;text-align:start;text-decoration:none;text-decoration-line:none;text-decoration-style:solid;text-decoration-color:#000000;letter-spacing:normal;word-spacing:normal;text-transform:none;writing-mode:lr-tb;direction:ltr;text-orientation:mixed;dominant-baseline:auto;baseline-shift:baseline;text-anchor:start;white-space:normal;shape-padding:0;shape-margin:0;inline-size:0;clip-rule:nonzero;display:inline;overflow:visible;visibility:visible;opacity:0.25;isolation:auto;mix-blend-mode:normal;color-interpolation:sRGB;color-interpolation-filters:linearRGB;solid-color:#000000;solid-opacity:1;vector-effect:none;fill:#e6e6e6;fill-opacity:1;fill-rule:nonzero;stroke:none;stroke-width:3.77953;stroke-linecap:butt;stroke-linejoin:miter;stroke-miterlimit:4;stroke-dasharray:none;stroke-dashoffset:0;stroke-opacity:1;color-rendering:auto;image-rendering:auto;shape-rendering:auto;text-rendering:auto;enable-background:accumulate;stop-color:#000000;stop-opacity:1"
         d="m 47,45.501953 c -0.829909,0 -1.498047,0.668131 -1.498047,1.498047 v 162.00391 c 0,0.82991 0.668129,1.49804 1.498047,1.49804 56.35563,0 113.74507,0 162.00391,0 0.82991,0 1.49804,-0.66814 1.49804,-1.49804 V 47 c 0,-0.829916 -0.66814,-1.498047 -1.49804,-1.498047 -53.50195,0 -107.00391,0 -160.505863,0 z m 1.498047,2.996094 h 24 v 24 h -24 z m 27.003906,0 H 99.5 v 24 H 75.501953 Z m 26.996097,0 h 24.00586 v 24 h -24.00586 z m 27.00195,0 h 23.99805 v 24 H 129.5 Z m 27.00391,0 h 23.99804 v 24 h -23.99804 z m 26.99414,0 h 24 v 24 h -24 z M 48.498047,75.501953 h 24 V 99.5 h -24 z m 27.003906,0 H 99.5 V 99.5 H 75.501953 Z m 26.996097,0 h 24.00586 V 99.5 h -24.00586 z m 27.00195,0 h 23.99805 V 99.5 H 129.5 Z m 27.00391,0 h 23.99804 V 99.5 h -23.99804 z m 26.99414,0 h 24 V 99.5 h -24 z M 48.498047,102.49805 h 24 v 24.00586 h -24 z m 27.003906,0 H 99.5 v 24.00586 H 75.501953 Z m 26.996097,0 h 24.00586 v 24.00586 h -24.00586 z m 27.00195,0 h 23.99805 v 24.00586 H 129.5 Z m 27.00391,0 h 23.99804 v 24.00586 h -23.99804 z m 26.99414,0 h 24 v 24.00586 h -24 z M 48.498047,129.5 h 24 v 23.99805 h -24 z m 27.003906,0 H 99.5 v 23.99805 H 75.501953 Z m 26.996097,0 h 24.00586 v 23.99805 h -24.00586 z m 27.00195,0 h 23.99805 v 23.99805 H 129.5 Z m 27.00391,0 h 23.99804 v 23.99805 h -23.99804 z m 26.99414,0 h 24 v 23.99805 h -24 z M 48.498047,156.50391 h 24 v 23.99804 h -24 z m 27.003906,0 H 99.5 v 23.99804 H 75.501953 Z m 26.996097,0 h 24.00586 v 23.99804 h -24.00586 z m 27.00195,0 h 23.99805 v 23.99804 H 129.5 Z m 27.00391,0 h 23.99804 v 23.99804 h -23.99804 z m 26.99414,0 h 24 v 23.99804 h -24 z M 48.498047,183.49805 h 24 v 24 h -24 z m 27.003906,0 H 99.5 v 24 H 75.501953 Z m 26.996097,0 h 24.00586 v 24 h -24.00586 z m 27.00195,0 h 23.99805 v 24 H 129.5 Z m 27.00391,0 h 23.99804 v 24 h -23.99804 z m 26.99414,0 h 24 v 24 h -24 z"
         transform="scale(0.26458333)"
         sodipodi:nodetypes="sssccssccscccccccccccccccccccccccccccccccccccccccccccccccccccccccccccccccccccccccccccccccccccccccccccccccccccccccccccccccccccccccccccccccccccccccccccccccccccccccccccccccccccccccccccccccccccc" />
      <path
         id="rect950"
         style="display:inline;opacity:0.35;fill:#f9f9f9;fill-opacity:1;stroke:none;stroke-width:7.181;stroke-linecap:round;stroke-linejoin:round;stroke-miterlimit:4;stroke-dasharray:none;paint-order:markers fill stroke"
         d="m 48.5,48.5 v 24 h 24 v -24 z m 27,0 v 24 h 24 v -24 z m 27,0 v 24 h 24 v -24 z m 27,135 v 24 h 24 v -24 z m 27,0 v 24 h 24 v -24 z m 27,0 v 24 h 24 v -24 z"
         transform="scale(0.26458333)" />
    </g>
    <path
       id="path874"
       style="font-style:normal;font-variant:normal;font-weight:normal;font-stretch:normal;font-size:38.1px;line-height:1.25;font-family:Cantarell;-inkscape-font-specification:Cantarell;white-space:pre;opacity:0.4;fill:#000000;stroke-width:3.90081"
       d="M 160.99414 78.941406 C 141.37627 78.941406 127.55469 92.317467 127.55469 112.08398 C 127.55469 130.66154 139.74175 143.44336 157.57617 143.44336 C 168.42545 143.44336 177.78847 138.68658 184.625 129.91797 L 184.625 130.06836 C 184.625 159.94107 173.17982 174.20703 154.00781 174.20703 C 146.42818 174.20703 138.10637 172.27569 132.60742 168.85742 L 129.04102 178.51758 C 134.24272 182.53033 143.00961 185.05664 152.66992 185.05664 C 180.75914 185.05664 198 164.69607 198 129.17578 C 198 96.776526 183.58441 78.941406 160.99414 78.941406 z M 86.089844 80.427734 L 58 98.708984 L 62.607422 107.03125 L 81.185547 95.587891 L 81.185547 173.01953 L 60.824219 173.01953 L 60.824219 183.57031 L 113.58398 183.57031 L 113.58398 173.01953 L 93.667969 173.01953 L 93.667969 80.427734 L 86.089844 80.427734 z M 159.50781 89.791016 C 173.47811 89.791016 181.94843 100.34304 184.17773 119.96094 C 178.8274 128.28368 171.09922 132.74219 161.88477 132.74219 C 148.95481 132.74219 140.1875 123.67699 140.1875 110.00391 C 140.1875 97.51979 147.46958 89.791016 159.50781 89.791016 z "
       transform="scale(0.26458333)" />
    <path
       id="path879"
       style="font-style:normal;font-variant:normal;font-weight:normal;font-stretch:normal;font-size:38.1px;line-height:1.25;font-family:Cantarell;-inkscape-font-specification:Cantarell;white-space:pre;fill:#ffffff;stroke-width:3.90081"
       d="M 160.99414 74.941406 C 141.37627 74.941406 127.55469 88.317467 127.55469 108.08398 C 127.55469 126.66154 139.74175 139.44336 157.57617 139.44336 C 168.42545 139.44336 177.78847 134.68658 184.625 125.91797 L 184.625 126.06836 C 184.625 155.94107 173.17982 170.20703 154.00781 170.20703 C 146.42818 170.20703 138.10637 168.27569 132.60742 164.85742 L 129.04102 174.51758 C 134.24272 178.53033 143.00961 181.05664 152.66992 181.05664 C 180.75914 181.05664 198 160.69607 198 125.17578 C 198 92.776526 183.58441 74.941406 160.99414 74.941406 z M 86.089844 76.427734 L 58 94.708984 L 62.607422 103.03125 L 81.185547 91.587891 L 81.185547 169.01953 L 60.824219 169.01953 L 60.824219 179.57031 L 113.58398 179.57031 L 113.58398 169.01953 L 93.667969 169.01953 L 93.667969 76.427734 L 86.089844 76.427734 z M 159.50781 85.791016 C 173.47811 85.791016 181.94843 96.343039 184.17773 115.96094 C 178.8274 124.28368 171.09922 128.74219 161.88477 128.74219 C 148.95481 128.74219 140.1875 119.67699 140.1875 106.00391 C 140.1875 93.51979 147.46958 85.791016 159.50781 85.791016 z "
       transform="scale(0.26458333)" />
  </g>
  <g
     inkscape:groupmode="layer"
     id="layer3"
     inkscape:label="Large Highlight"
     style="display:inline">
    <path
       d="M 9.2255845,63.5 C 6.459986,63.5 4.2333333,61.273348 4.2333333,58.507749 V 33.866667 H 63.5 V 58.507749 C 63.5,61.273348 61.273349,63.5 58.50775,63.5 Z"
       style="display:inline;opacity:0.125;fill:#ffffff;fill-opacity:1;stroke-width:0.0246063;stroke-miterlimit:4;stroke-dasharray:none;paint-order:stroke fill markers"
       id="path842" />
  </g>
  <g
     inkscape:label="Hinges"
     id="g1156"
     inkscape:groupmode="layer"
     style="display:inline">
    <g
       id="g1164">
      <path
         id="path937"
         style="opacity:0.4;fill:#000000;fill-opacity:1;stroke:none;stroke-width:0.0307499;stroke-linecap:round;stroke-linejoin:round;stroke-miterlimit:4;stroke-dasharray:none;paint-order:markers fill stroke"
         d="m 4.2333333,29.633333 v 10.583334 h 2.6825236 c 0.7124311,0 1.2862263,-0.573797 1.2862263,-1.286227 v -8.01088 c 0,-0.71243 -0.5737952,-1.286227 -1.2862263,-1.286227 z m 56.5841427,0 c -0.71243,0 -1.286227,0.573797 -1.286227,1.286227 v 8.01088 c 0,0.71243 0.573797,1.286227 1.286227,1.286227 h 2.682523 V 29.633333 Z" />
      <path
         id="rect923"
         style="opacity:1;fill:#cccccc;fill-opacity:1;stroke:none;stroke-width:0.11622;stroke-linecap:round;stroke-linejoin:round;stroke-miterlimit:4;stroke-dasharray:none;paint-order:markers fill stroke"
         d="m 16,108 v 40 H 26.138672 C 28.831325,148 31,145.83132 31,143.13867 V 112.86133 C 31,110.16868 28.831325,108 26.138672,108 Z m 213.86133,0 C 227.16868,108 225,110.16868 225,112.86133 v 30.27734 C 225,145.83132 227.16868,148 229.86133,148 H 240 v -40 z"
         transform="scale(0.26458333)" />
    </g>
  </g>
  <g
     inkscape:groupmode="layer"
     id="layer5"
     inkscape:label="Warning">
    <path
       id="path863"
       style="color:#000000;font-style:normal;font-variant:normal;font-weight:normal;font-stretch:normal;font-size:medium;line-height:normal;font-family:sans-serif;font-variant-ligatures:normal;font-variant-position:normal;font-variant-caps:normal;font-variant-numeric:normal;font-variant-alternates:normal;font-variant-east-asian:normal;font-feature-settings:normal;font-variation-settings:normal;text-indent:0;text-align:start;text-decoration:none;text-decoration-line:none;text-decoration-style:solid;text-decoration-color:#000000;letter-spacing:normal;word-spacing:normal;text-transform:none;writing-mode:lr-tb;direction:ltr;text-orientation:mixed;dominant-baseline:auto;baseline-shift:baseline;text-anchor:start;white-space:normal;shape-padding:0;shape-margin:0;inline-size:0;clip-rule:nonzero;display:inline;overflow:visible;visibility:visible;isolation:auto;mix-blend-mode:normal;color-interpolation:sRGB;color-interpolation-filters:linearRGB;solid-color:#000000;solid-opacity:1;vector-effect:none;fill:#ff9200;fill-opacity:1;fill-rule:nonzero;stroke:none;stroke-width:1.22343334;stroke-linecap:round;stroke-linejoin:round;stroke-miterlimit:4;stroke-dasharray:none;stroke-dashoffset:0;stroke-opacity:1;paint-order:stroke markers fill;color-rendering:auto;image-rendering:auto;shape-rendering:auto;text-rendering:auto;enable-background:accumulate;stop-color:#000000"
       d="m 57.79408,49.98541 a 2.1041822,2.1041806 0 0 0 -0.07271,0.002 2.1041822,2.1041806 0 0 0 -1.732236,1.05135 l -3.908911,6.768994 -3.908915,6.769624 a 2.1041822,2.1041806 0 0 0 1.822641,3.155955 h 7.818458 7.815925 a 2.1041822,2.1041806 0 0 0 1.823276,-3.155955 L 63.542069,57.807652 59.633158,51.038658 A 2.1041822,2.1041806 0 0 0 57.79408,49.98541 Z" />
    <g
       aria-label="!"
       transform="matrix(17.705437,0,0,17.705437,-328.48442,-862.9064)"
       id="text872"
       style="font-style:normal;font-variant:normal;font-weight:normal;font-stretch:normal;font-size:1.05833px;line-height:1.25;font-family:Ubuntu;-inkscape-font-specification:Ubuntu;white-space:pre;shape-inside:url(#rect874);fill:#ffffff">
      <path
         d="m 21.870841,51.954381 q 0,0.0889 -0.0063,0.161924 -0.0064,0.07197 -0.01588,0.143933 h -0.06138 q -0.0095,-0.07197 -0.01588,-0.143933 -0.0063,-0.07302 -0.0063,-0.161924 v -0.198966 h 0.105833 z m 0.01799,0.477307 q 0,0.02857 -0.01905,0.04974 -0.01905,0.02117 -0.05186,0.02117 -0.03281,0 -0.05186,-0.02117 -0.01905,-0.02117 -0.01905,-0.04974 0,-0.02858 0.01905,-0.04974 0.01905,-0.02117 0.05186,-0.02117 0.03281,0 0.05186,0.02117 0.01905,0.02117 0.01905,0.04974 z"
         style="font-style:normal;font-variant:normal;font-weight:normal;font-stretch:normal;font-family:Ubuntu;-inkscape-font-specification:Ubuntu;fill:#ffffff"
         id="path890" />
    </g>
  </g>
</svg>
