<?xml version="1.0" encoding="UTF-8" standalone="no"?>
<svg
   xmlns:dc="http://purl.org/dc/elements/1.1/"
   xmlns:cc="http://creativecommons.org/ns#"
   xmlns:rdf="http://www.w3.org/1999/02/22-rdf-syntax-ns#"
   xmlns:svg="http://www.w3.org/2000/svg"
   xmlns="http://www.w3.org/2000/svg"
   xmlns:sodipodi="http://sodipodi.sourceforge.net/DTD/sodipodi-0.dtd"
   xmlns:inkscape="http://www.inkscape.org/namespaces/inkscape"
   sodipodi:docname="avatar-default-symbolic.symbolic.svg"
   inkscape:version="1.0.2 (e86c870879, 2021-01-15)"
   id="svg8"
   version="1.1"
   viewBox="0 0 4.2333333 4.2333334"
   height="16"
   width="16">
  <defs
     id="defs2" />
  <sodipodi:namedview
     inkscape:window-maximized="1"
     inkscape:window-y="27"
     inkscape:window-x="1920"
     inkscape:window-height="1016"
     inkscape:window-width="1920"
     units="px"
     showgrid="false"
     inkscape:document-rotation="0"
     inkscape:current-layer="layer3"
     inkscape:document-units="px"
     inkscape:cy="14.617752"
     inkscape:cx="6.8819214"
     inkscape:zoom="16"
     inkscape:pageshadow="2"
     inkscape:pageopacity="0.0"
     borderopacity="1.0"
     bordercolor="#666666"
     pagecolor="#ffffff"
     id="base"
     inkscape:lockguides="false" />
  <metadata
     id="metadata5">
    <rdf:RDF>
      <cc:Work
         rdf:about="">
        <dc:format>image/svg+xml</dc:format>
        <dc:type
           rdf:resource="http://purl.org/dc/dcmitype/StillImage" />
        <dc:title />
      </cc:Work>
    </rdf:RDF>
  </metadata>
  <g
     inkscape:groupmode="layer"
     id="layer3"
     inkscape:label="Graphic"
     style="display:inline">
    <path
       id="path834"
       style="color:#000000;font-style:normal;font-variant:normal;font-weight:normal;font-stretch:normal;font-size:medium;line-height:normal;font-family:sans-serif;font-variant-ligatures:normal;font-variant-position:normal;font-variant-caps:normal;font-variant-numeric:normal;font-variant-alternates:normal;font-variant-east-asian:normal;font-feature-settings:normal;font-variation-settings:normal;text-indent:0;text-align:start;text-decoration:none;text-decoration-line:none;text-decoration-style:solid;text-decoration-color:#000000;letter-spacing:normal;word-spacing:normal;text-transform:none;writing-mode:lr-tb;direction:ltr;text-orientation:mixed;dominant-baseline:auto;baseline-shift:baseline;text-anchor:start;white-space:normal;shape-padding:0;shape-margin:0;inline-size:0;clip-rule:nonzero;display:inline;overflow:visible;visibility:visible;opacity:1;isolation:auto;mix-blend-mode:normal;color-interpolation:sRGB;color-interpolation-filters:linearRGB;solid-color:#000000;solid-opacity:1;vector-effect:none;fill:#000000;fill-opacity:1;fill-rule:nonzero;stroke:none;stroke-width:5.7583;stroke-linecap:round;stroke-linejoin:miter;stroke-miterlimit:4;stroke-dasharray:none;stroke-dashoffset:0;stroke-opacity:1;paint-order:stroke markers fill;color-rendering:auto;image-rendering:auto;shape-rendering:auto;text-rendering:auto;enable-background:accumulate;stop-color:#000000;stop-opacity:1"
       d="M 7.9941406 0.45507812 C 5.5625279 0.45507812 3.6191406 2.5380188 3.6191406 5.0332031 C 3.6191406 7.5283864 5.5625279 9.5976562 7.9941406 9.5976562 C 10.425753 9.5976562 12.380859 7.5283864 12.380859 5.0332031 C 12.380859 2.5380188 10.425753 0.45507813 7.9941406 0.45507812 z M 7.9941406 1.9511719 C 9.5774316 1.9511719 10.884766 3.3038358 10.884766 5.0332031 C 10.884766 6.7625702 9.5774316 8.1035156 7.9941406 8.1035156 C 6.4108493 8.1035156 5.1035156 6.7625702 5.1035156 5.0332031 C 5.1035156 3.3038358 6.4108493 1.9511719 7.9941406 1.9511719 z M 3.2734375 10.816406 C 1.4855055 10.816406 5.9211895e-16 12.301933 0 14.089844 A 1.4546909 1.4546736 0 0 0 1.4550781 15.544922 L 14.544922 15.544922 A 1.4546909 1.4546736 0 0 0 16 14.089844 C 16 12.301933 14.514494 10.816406 12.726562 10.816406 L 3.2734375 10.816406 z M 3.2734375 12.271484 L 12.726562 12.271484 C 13.733835 12.271484 14.544922 13.082582 14.544922 14.089844 L 1.4550781 14.089844 C 1.4550781 13.082582 2.2661624 12.271484 3.2734375 12.271484 z "
       transform="scale(0.26458333)" />
  </g>
</svg>
