<?xml version="1.0" encoding="UTF-8" standalone="no"?>
<svg
   sodipodi:docname="battery-level-80-charging-symbolic.symbolic.svg"
   id="svg8"
   version="1.1"
   viewBox="0 0 4.2333333 4.2333334"
   height="16"
   width="16"
   xmlns:inkscape="http://www.inkscape.org/namespaces/inkscape"
   xmlns:sodipodi="http://sodipodi.sourceforge.net/DTD/sodipodi-0.dtd"
   xmlns="http://www.w3.org/2000/svg"
   xmlns:svg="http://www.w3.org/2000/svg">
  <defs
     id="defs2" />
  <sodipodi:namedview
     inkscape:window-maximized="1"
     inkscape:window-y="27"
     inkscape:window-x="1920"
     inkscape:window-height="1016"
     inkscape:window-width="1920"
     units="px"
     showgrid="true"
     inkscape:document-rotation="0"
     inkscape:current-layer="g1156"
     inkscape:document-units="px"
     inkscape:cy="7.6821295"
     inkscape:cx="8.5212577"
     inkscape:zoom="32"
     inkscape:pageshadow="2"
     inkscape:pageopacity="0.0"
     borderopacity="1.0"
     bordercolor="#666666"
     pagecolor="#ffffff"
     id="base"
     inkscape:showpageshadow="2"
     inkscape:pagecheckerboard="0"
     inkscape:deskcolor="#d1d1d1">
    <inkscape:grid
       type="xygrid"
       id="grid841"
       originx="0"
       originy="0"
       spacingy="1"
       spacingx="1"
       units="px"
       visible="true" />
  </sodipodi:namedview>
  <g
     inkscape:label="Graphic"
     id="g1156"
     inkscape:groupmode="layer"
     style="display:inline">
    <g
       id="g4282">
      <g
         id="g838"
         transform="translate(0.79375236)">
        <path
           id="path898"
           style="color:#000000;font-style:normal;font-variant:normal;font-weight:normal;font-stretch:normal;font-size:medium;line-height:normal;font-family:sans-serif;font-variant-ligatures:normal;font-variant-position:normal;font-variant-caps:normal;font-variant-numeric:normal;font-variant-alternates:normal;font-variant-east-asian:normal;font-feature-settings:normal;font-variation-settings:normal;text-indent:0;text-align:start;text-decoration:none;text-decoration-line:none;text-decoration-style:solid;text-decoration-color:#000000;letter-spacing:normal;word-spacing:normal;text-transform:none;writing-mode:lr-tb;direction:ltr;text-orientation:mixed;dominant-baseline:auto;baseline-shift:baseline;text-anchor:start;white-space:normal;shape-padding:0;shape-margin:0;inline-size:0;clip-rule:nonzero;display:inline;overflow:visible;visibility:visible;isolation:auto;mix-blend-mode:normal;color-interpolation:sRGB;color-interpolation-filters:linearRGB;solid-color:#000000;solid-opacity:1;vector-effect:none;fill:#000000;fill-opacity:1;fill-rule:nonzero;stroke:none;stroke-width:4.05759;stroke-linecap:round;stroke-linejoin:round;stroke-miterlimit:4;stroke-dasharray:none;stroke-dashoffset:0;stroke-opacity:1;paint-order:stroke markers fill;color-rendering:auto;image-rendering:auto;shape-rendering:auto;text-rendering:auto;enable-background:accumulate;stop-color:#000000"
           d="M 5.2773438,6 C 5.1248285,5.9986008 5.0003213,6.1160973 5,6.2617188 V 6.5 v 7 0.238281 C 5.0003175,13.883903 5.1248285,14.001399 5.2773438,14 H 10.722656 C 10.875172,14.001402 10.99968,13.883906 11,13.738281 V 13.5 6.5 6.2617188 C 10.99968,6.1160936 10.875172,5.9985978 10.722656,6 Z"
           transform="scale(0.26458333)" />
        <path
           id="path866"
           style="color:#000000;font-style:normal;font-variant:normal;font-weight:normal;font-stretch:normal;font-size:medium;line-height:normal;font-family:sans-serif;font-variant-ligatures:normal;font-variant-position:normal;font-variant-caps:normal;font-variant-numeric:normal;font-variant-alternates:normal;font-variant-east-asian:normal;font-feature-settings:normal;font-variation-settings:normal;text-indent:0;text-align:start;text-decoration:none;text-decoration-line:none;text-decoration-style:solid;text-decoration-color:#000000;letter-spacing:normal;word-spacing:normal;text-transform:none;writing-mode:lr-tb;direction:ltr;text-orientation:mixed;dominant-baseline:auto;baseline-shift:baseline;text-anchor:start;white-space:normal;shape-padding:0;shape-margin:0;inline-size:0;clip-rule:nonzero;display:inline;overflow:visible;visibility:visible;isolation:auto;mix-blend-mode:normal;color-interpolation:sRGB;color-interpolation-filters:linearRGB;solid-color:#000000;solid-opacity:1;vector-effect:none;fill:#000000;fill-opacity:1;fill-rule:nonzero;stroke:none;stroke-width:3.7796;stroke-linecap:round;stroke-linejoin:round;stroke-miterlimit:4;stroke-dasharray:none;stroke-dashoffset:0;stroke-opacity:1;paint-order:stroke markers fill;color-rendering:auto;image-rendering:auto;shape-rendering:auto;text-rendering:auto;enable-background:accumulate;stop-color:#000000"
           d="M 7,1 C 6.4459999,1 6,1.446 6,2 H 4.4335938 C 3.6194311,1.9966008 3.0082534,2.6942626 3,3.4472656 c -1.02e-5,0.0026 -1.02e-5,0.00521 0,0.00781 V 4 14.539062 C 2.9972999,15.300031 3.6108969,16.003381 4.4335938,16 H 11.568359 C 12.391243,16.0035 13.002693,15.300017 13,14.539062 V 3.4550781 c 10e-6,-0.0026 10e-6,-0.00521 0,-0.00781 C 12.991761,2.6942467 12.382523,1.9966008 11.568359,2 H 10 C 10,1.446 9.5539997,1 9,1 Z M 4.4316406,3 H 11.570312 C 11.805705,2.9990172 11.99722,3.2034438 12,3.4570312 V 14.541016 c 9.08e-4,0.25641 -0.19169,0.463907 -0.429688,0.46289 -2.3204499,-0.0078 -4.8177596,7.25e-4 -7.1386714,0 -0.2379968,9.8e-4 -0.4305961,-0.20648 -0.4296875,-0.46289 V 3.4570312 C 4.004733,3.2034441 4.1962399,2.9990172 4.4316406,3 Z"
           transform="scale(0.26458333)" />
      </g>
      <path
         id="path834"
         style="display:inline;fill:#000000;stroke-width:0.284756;stroke-linecap:round;stroke-linejoin:round;paint-order:stroke markers fill"
         inkscape:transform-center-y="-0.29944983"
         d="M 0.89827974,0.52916667 0.44913984,1.4264495 0,2.3260715 H 0.47955036 V 3.7041667 L 0.92869024,2.8057143 1.3778301,1.9072618 H 0.89827974 Z" />
    </g>
  </g>
</svg>
