<?xml version="1.0" encoding="UTF-8" standalone="no"?>
<svg
   xmlns:dc="http://purl.org/dc/elements/1.1/"
   xmlns:cc="http://creativecommons.org/ns#"
   xmlns:rdf="http://www.w3.org/1999/02/22-rdf-syntax-ns#"
   xmlns:svg="http://www.w3.org/2000/svg"
   xmlns="http://www.w3.org/2000/svg"
   xmlns:sodipodi="http://sodipodi.sourceforge.net/DTD/sodipodi-0.dtd"
   xmlns:inkscape="http://www.inkscape.org/namespaces/inkscape"
   sodipodi:docname="emblem-important-symbolic.symbolic.svg"
   inkscape:version="1.0.2 (e86c870879, 2021-01-15)"
   id="svg8"
   version="1.1"
   viewBox="0 0 4.2333333 4.2333334"
   height="16"
   width="16">
  <defs
     id="defs2" />
  <sodipodi:namedview
     inkscape:window-maximized="1"
     inkscape:window-y="27"
     inkscape:window-x="1920"
     inkscape:window-height="1016"
     inkscape:window-width="1920"
     units="px"
     showgrid="false"
     inkscape:document-rotation="0"
     inkscape:current-layer="layer3"
     inkscape:document-units="px"
     inkscape:cy="8.3532666"
     inkscape:cx="10.646653"
     inkscape:zoom="32"
     inkscape:pageshadow="2"
     inkscape:pageopacity="0.0"
     borderopacity="1.0"
     bordercolor="#666666"
     pagecolor="#ffffff"
     id="base"
     inkscape:lockguides="false" />
  <metadata
     id="metadata5">
    <rdf:RDF>
      <cc:Work
         rdf:about="">
        <dc:format>image/svg+xml</dc:format>
        <dc:type
           rdf:resource="http://purl.org/dc/dcmitype/StillImage" />
        <dc:title />
      </cc:Work>
    </rdf:RDF>
  </metadata>
  <g
     inkscape:groupmode="layer"
     id="layer3"
     inkscape:label="Graphic"
     style="display:inline">
    <g
       id="g838">
      <path
         style="color:#000000;font-style:normal;font-variant:normal;font-weight:normal;font-stretch:normal;font-size:medium;line-height:normal;font-family:sans-serif;font-variant-ligatures:normal;font-variant-position:normal;font-variant-caps:normal;font-variant-numeric:normal;font-variant-alternates:normal;font-variant-east-asian:normal;font-feature-settings:normal;font-variation-settings:normal;text-indent:0;text-align:start;text-decoration:none;text-decoration-line:none;text-decoration-style:solid;text-decoration-color:#000000;letter-spacing:normal;word-spacing:normal;text-transform:none;writing-mode:lr-tb;direction:ltr;text-orientation:mixed;dominant-baseline:auto;baseline-shift:baseline;text-anchor:start;white-space:normal;shape-padding:0;shape-margin:0;inline-size:0;clip-rule:nonzero;display:inline;overflow:visible;visibility:visible;opacity:1;isolation:auto;mix-blend-mode:normal;color-interpolation:sRGB;color-interpolation-filters:linearRGB;solid-color:#000000;solid-opacity:1;vector-effect:none;fill:#000000;fill-opacity:1;fill-rule:nonzero;stroke:none;stroke-width:1.00058;stroke-linecap:round;stroke-linejoin:miter;stroke-miterlimit:4;stroke-dasharray:none;stroke-dashoffset:0;stroke-opacity:1;paint-order:stroke markers fill;color-rendering:auto;image-rendering:auto;shape-rendering:auto;text-rendering:auto;enable-background:accumulate;stop-color:#000000;stop-opacity:1"
         d="m 0.6190762,0.61907622 c -0.8254248,0.82542478 -0.82542483,2.17046188 -6e-8,2.99588668 0.82542476,0.8254248 2.16908006,0.824043 2.99450486,-0.00138 0.8254248,-0.8254248 0.8268066,-2.16908 0.00138,-2.99450483 -0.8254248,-0.8254248 -2.1704619,-0.82542482 -2.9958867,-5e-8 z M 0.89959512,0.89959515 C 1.5732669,0.22592343 2.6607722,0.22592345 3.3344439,0.89959519 4.0081156,1.5732669 4.0067338,2.6593904 3.333062,3.3330622 2.6593903,4.0067339 1.5732668,4.0081157 0.89959507,3.334444 0.22592336,2.6607722 0.22592338,1.5732669 0.89959512,0.89959515 Z"
         id="path835" />
      <path
         class="error"
         color="#000000"
         d="m 1.9290897,0.79375 v 0.7043208 c 0,0.2098146 0.00794,0.4013729 0.022752,0.5736167 0.01508,0.1698625 0.033864,0.339725 0.056352,0.5095875 H 2.2251354 C 2.2476237,2.4114125 2.2666722,2.24155 2.2814871,2.0716875 2.2965669,1.8994437 2.3042394,1.7078854 2.3042394,1.4980708 V 0.79375 Z m 0.1878398,2.1436541 c -0.077781,0 -0.138631,0.024871 -0.1836068,0.074877 a 0.25530339,0.25532291 0 0 0 -0.067728,0.1762126 c 0,0.067469 0.022752,0.1262063 0.067728,0.1762125 0.044976,0.050006 0.1058252,0.074877 0.1833423,0.074877 0.077517,0 0.138631,-0.024871 0.1836068,-0.074877 A 0.25530339,0.25532291 0 0 0 2.3677353,3.1884937 0.25530339,0.25532291 0 0 0 2.3002718,3.0122812 C 2.255296,2.9620104 2.194182,2.9374041 2.116665,2.9374041 Z"
         fill="#da1636"
         font-family="sans-serif"
         font-weight="400"
         overflow="visible"
         style="line-height:normal;font-variant-ligatures:none;font-variant-position:normal;font-variant-caps:normal;font-variant-numeric:normal;font-variant-alternates:normal;font-feature-settings:normal;text-indent:0;text-align:start;text-decoration:none;text-decoration-line:none;text-decoration-style:solid;text-decoration-color:#000000;text-transform:none;shape-padding:0;isolation:auto;mix-blend-mode:normal;fill:#000000;fill-opacity:1;stroke-width:0.264573;marker:none"
         id="path4" />
    </g>
  </g>
</svg>
