<?xml version="1.0" encoding="UTF-8" standalone="no"?>
<svg
   xmlns:dc="http://purl.org/dc/elements/1.1/"
   xmlns:cc="http://creativecommons.org/ns#"
   xmlns:rdf="http://www.w3.org/1999/02/22-rdf-syntax-ns#"
   xmlns:svg="http://www.w3.org/2000/svg"
   xmlns="http://www.w3.org/2000/svg"
   xmlns:sodipodi="http://sodipodi.sourceforge.net/DTD/sodipodi-0.dtd"
   xmlns:inkscape="http://www.inkscape.org/namespaces/inkscape"
   sodipodi:docname="dialog-warning-symbolic.symbolic.svg"
   inkscape:version="1.0.2 (e86c870879, 2021-01-15)"
   id="svg8"
   version="1.1"
   viewBox="0 0 4.2333333 4.2333334"
   height="16"
   width="16">
  <defs
     id="defs2" />
  <sodipodi:namedview
     inkscape:window-maximized="1"
     inkscape:window-y="27"
     inkscape:window-x="1920"
     inkscape:window-height="1016"
     inkscape:window-width="1920"
     units="px"
     showgrid="false"
     inkscape:document-rotation="0"
     inkscape:current-layer="layer3"
     inkscape:document-units="px"
     inkscape:cy="8.9886134"
     inkscape:cx="8.1608565"
     inkscape:zoom="16"
     inkscape:pageshadow="2"
     inkscape:pageopacity="0.0"
     borderopacity="1.0"
     bordercolor="#666666"
     pagecolor="#ffffff"
     id="base"
     inkscape:lockguides="false" />
  <metadata
     id="metadata5">
    <rdf:RDF>
      <cc:Work
         rdf:about="">
        <dc:format>image/svg+xml</dc:format>
        <dc:type
           rdf:resource="http://purl.org/dc/dcmitype/StillImage" />
        <dc:title />
      </cc:Work>
    </rdf:RDF>
  </metadata>
  <g
     inkscape:groupmode="layer"
     id="layer3"
     inkscape:label="Graphic"
     style="display:inline">
    <g
       id="g834">
      <circle
         style="fill:none;fill-opacity:1;stroke:#000000;stroke-width:0.396875;stroke-linecap:round;stroke-miterlimit:4;stroke-dasharray:none;paint-order:stroke markers fill"
         id="path835"
         cx="7.6936551e-08"
         cy="2.9916551"
         r="1.9182292"
         transform="rotate(-44.999998)" />
      <path
         class="error"
         color="#000000"
         d="M 1.9022932,0.60476204 V 1.4097001 c 0,0.2397881 0.00907,0.4587119 0.026002,0.655562 0.017234,0.1941286 0.038702,0.3882571 0.064402,0.5823857 h 0.247934 C 2.2663318,2.4535192 2.288102,2.2593907 2.3050335,2.0652621 2.3222678,1.868412 2.3310358,1.6494882 2.3310358,1.4097001 V 0.60476204 Z M 2.1169673,3.0546525 c -0.088893,0 -0.1584354,0.028424 -0.2098364,0.085574 a 0.29177531,0.29179761 0 0 0 -0.077403,0.2013858 c 0,0.077107 0.026002,0.1442358 0.077403,0.2013857 0.051401,0.05715 0.1209431,0.085574 0.2095341,0.085574 0.088591,0 0.1584354,-0.028424 0.2098364,-0.085574 A 0.29177531,0.29179761 0 0 0 2.4036025,3.341612 0.29177531,0.29179761 0 0 0 2.3265014,3.1402263 C 2.2751004,3.082774 2.2052559,3.0546525 2.116665,3.0546525 Z"
         fill="#da1636"
         font-family="sans-serif"
         font-weight="400"
         overflow="visible"
         style="line-height:normal;font-variant-ligatures:none;font-variant-position:normal;font-variant-caps:normal;font-variant-numeric:normal;font-variant-alternates:normal;font-feature-settings:normal;text-indent:0;text-align:start;text-decoration:none;text-decoration-line:none;text-decoration-style:solid;text-decoration-color:#000000;text-transform:none;shape-padding:0;isolation:auto;mix-blend-mode:normal;fill:#000000;fill-opacity:1;stroke-width:0.302369;marker:none"
         id="path4" />
    </g>
  </g>
</svg>
