<?xml version="1.0" encoding="UTF-8" standalone="no"?>
<svg
   xmlns:dc="http://purl.org/dc/elements/1.1/"
   xmlns:cc="http://creativecommons.org/ns#"
   xmlns:rdf="http://www.w3.org/1999/02/22-rdf-syntax-ns#"
   xmlns:svg="http://www.w3.org/2000/svg"
   xmlns="http://www.w3.org/2000/svg"
   xmlns:sodipodi="http://sodipodi.sourceforge.net/DTD/sodipodi-0.dtd"
   xmlns:inkscape="http://www.inkscape.org/namespaces/inkscape"
   sodipodi:docname="network-cellular-3g-symbolic.symbolic.svg"
   inkscape:version="1.0.2 (e86c870879, 2021-01-15)"
   id="svg8"
   version="1.1"
   viewBox="0 0 4.2333333 4.2333334"
   height="16"
   width="16">
  <defs
     id="defs2" />
  <sodipodi:namedview
     inkscape:window-maximized="1"
     inkscape:window-y="27"
     inkscape:window-x="1920"
     inkscape:window-height="1016"
     inkscape:window-width="1920"
     units="px"
     showgrid="false"
     inkscape:document-rotation="0"
     inkscape:current-layer="g1156"
     inkscape:document-units="px"
     inkscape:cy="10.617603"
     inkscape:cx="8.6683878"
     inkscape:zoom="22.627417"
     inkscape:pageshadow="2"
     inkscape:pageopacity="0.0"
     borderopacity="1.0"
     bordercolor="#666666"
     pagecolor="#ffffff"
     id="base" />
  <metadata
     id="metadata5">
    <rdf:RDF>
      <cc:Work
         rdf:about="">
        <dc:format>image/svg+xml</dc:format>
        <dc:type
           rdf:resource="http://purl.org/dc/dcmitype/StillImage" />
        <dc:title />
      </cc:Work>
    </rdf:RDF>
  </metadata>
  <g
     inkscape:label="Graphic"
     id="g1156"
     inkscape:groupmode="layer"
     style="display:inline">
    <path
       id="path889"
       style="color:#000000;font-style:normal;font-variant:normal;font-weight:normal;font-stretch:normal;font-size:medium;line-height:normal;font-family:sans-serif;font-variant-ligatures:normal;font-variant-position:normal;font-variant-caps:normal;font-variant-numeric:normal;font-variant-alternates:normal;font-variant-east-asian:normal;font-feature-settings:normal;font-variation-settings:normal;text-indent:0;text-align:start;text-decoration:none;text-decoration-line:none;text-decoration-style:solid;text-decoration-color:#000000;letter-spacing:normal;word-spacing:normal;text-transform:none;writing-mode:lr-tb;direction:ltr;text-orientation:mixed;dominant-baseline:auto;baseline-shift:baseline;text-anchor:start;white-space:normal;shape-padding:0;shape-margin:0;inline-size:0;clip-rule:nonzero;display:inline;overflow:visible;visibility:visible;isolation:auto;mix-blend-mode:normal;color-interpolation:sRGB;color-interpolation-filters:linearRGB;solid-color:#000000;solid-opacity:1;vector-effect:none;fill:#000000;fill-opacity:1;fill-rule:nonzero;stroke:none;stroke-width:4.46699;stroke-linecap:round;stroke-linejoin:round;stroke-miterlimit:4;stroke-dasharray:none;stroke-dashoffset:0;stroke-opacity:1;paint-order:stroke markers fill;color-rendering:auto;image-rendering:auto;shape-rendering:auto;text-rendering:auto;enable-background:accumulate;stop-color:#000000"
       d="M 1.6542969 2.5 C 0.79371677 2.5100686 -0.0038848299 3.2549123 0 4.25 L 0 11.748047 C -0.0038853599 12.743132 0.79372358 13.489912 1.6542969 13.5 C 1.6572669 13.500012 1.6591394 13.500012 1.6621094 13.5 L 14.330078 13.5 C 15.199754 13.5033 16.003864 12.753563 16 11.748047 L 16 4.25 C 16.004 3.2442548 15.199739 2.4967086 14.330078 2.5 L 1.6621094 2.5 C 1.6591394 2.4999875 1.6572669 2.4999875 1.6542969 2.5 z M 4.6367188 4.75 C 5.9203322 4.75 6.7382812 5.3957458 6.7382812 6.40625 C 6.7382812 7.1072304 6.3299523 7.6532027 5.6835938 7.8261719 C 6.539336 8.026452 7.0859375 8.6363796 7.0859375 9.4375 C 7.0859375 10.520833 6.047619 11.25 4.5 11.25 C 3.7808123 11.25 3.1431143 11.095971 2.5058594 10.777344 L 2.7695312 9.8476562 C 3.3248534 10.102558 3.9889706 10.240234 4.5625 10.240234 C 5.3909314 10.240234 5.875 9.9479659 5.875 9.4472656 C 5.875 8.8191144 5.1640078 8.4277344 4.0351562 8.4277344 L 3.734375 8.4277344 L 3.734375 7.5 L 4.0449219 7.5 C 4.9643897 7.5 5.5195312 7.1536075 5.5195312 6.5800781 C 5.5195312 6.0793778 5.0733981 5.7597656 4.390625 5.7597656 C 3.9354429 5.7597656 3.4068846 5.9052543 2.8515625 6.1601562 L 2.5878906 5.2871094 C 3.2251455 4.9320674 3.944842 4.75 4.6367188 4.75 z M 11.308594 4.75 C 12.018678 4.75 12.711594 4.8961506 13.257812 5.1601562 L 12.919922 6.0800781 C 12.437429 5.9071089 11.79165 5.7871094 11.236328 5.7871094 C 9.8252637 5.7871094 9.0429688 6.5621882 9.0429688 7.9277344 C 9.0429687 9.3387988 9.8798527 10.220703 11.208984 10.220703 C 11.636856 10.220703 12.036841 10.129338 12.355469 9.9472656 L 12.355469 8.609375 L 10.798828 8.609375 L 10.798828 7.609375 L 13.494141 7.609375 L 13.494141 10.412109 C 12.820471 10.967432 11.992363 11.25 11.054688 11.25 C 9.1065082 11.25 7.8125 9.9762178 7.8125 8.0644531 C 7.8125 6.0798593 9.1874453 4.75 11.308594 4.75 z "
       transform="scale(0.26458333)" />
  </g>
</svg>
