<?xml version="1.0" encoding="UTF-8" standalone="no"?>
<svg
   xmlns:dc="http://purl.org/dc/elements/1.1/"
   xmlns:cc="http://creativecommons.org/ns#"
   xmlns:rdf="http://www.w3.org/1999/02/22-rdf-syntax-ns#"
   xmlns:svg="http://www.w3.org/2000/svg"
   xmlns="http://www.w3.org/2000/svg"
   xmlns:sodipodi="http://sodipodi.sourceforge.net/DTD/sodipodi-0.dtd"
   xmlns:inkscape="http://www.inkscape.org/namespaces/inkscape"
   width="16"
   height="16"
   version="1.1"
   id="svg8"
   sodipodi:docname="notifications-symbolic.symbolic.svg"
   inkscape:version="1.0.2 (e86c870879, 2021-01-15)">
  <metadata
     id="metadata14">
    <rdf:RDF>
      <cc:Work
         rdf:about="">
        <dc:format>image/svg+xml</dc:format>
        <dc:type
           rdf:resource="http://purl.org/dc/dcmitype/StillImage" />
        <dc:title />
      </cc:Work>
    </rdf:RDF>
  </metadata>
  <defs
     id="defs12" />
  <sodipodi:namedview
     pagecolor="#333333"
     bordercolor="#666666"
     borderopacity="1"
     objecttolerance="10"
     gridtolerance="10"
     guidetolerance="10"
     inkscape:pageopacity="0"
     inkscape:pageshadow="2"
     inkscape:window-width="1836"
     inkscape:window-height="1016"
     id="namedview10"
     showgrid="false"
     inkscape:zoom="45.254834"
     inkscape:cx="8.0815694"
     inkscape:cy="10.111629"
     inkscape:window-x="2004"
     inkscape:window-y="27"
     inkscape:window-maximized="1"
     inkscape:current-layer="svg8"
     inkscape:document-rotation="0" />
  <path
     style="fill:#000000;stroke-width:1.7704;marker:none"
     d="m 5.5,13.575 c 0.3746718,1.059816 1.3759847,1.768905 2.4999999,1.770401 C 9.1240157,15.343901 10.125329,14.634816 10.5,13.575 H 7.9999999 Z"
     id="path862" />
  <path
     id="path836"
     style="fill:#000000;marker:none"
     d="m 8,1.9765625 c -2.190915,0.013888 -3.4431701,1.5096836 -3.9707031,3.9980469 -0.31069,1.7837771 -0.190582,1.9014191 -0.765625,3.6269531 -0.2887422,0.4802155 -0.557831,0.6685365 -1.25,0.9902345 -0.98811,0.386605 -1.19863275,2.342462 -0.042969,2.382812 4.0195313,0 8.0390629,0 12.0585939,0 1.155664,-0.04035 0.945141,-1.996207 -0.04297,-2.382812 -0.692169,-0.321698 -0.961258,-0.510019 -1.25,-0.9902345 C 12.161285,7.8760285 12.281393,7.7583865 11.970703,5.9746094 11.44317,3.4862461 10.190915,1.9904505 8,1.9765625 Z"
     sodipodi:nodetypes="cccccccccc" />
</svg>
