<?xml version="1.0" encoding="UTF-8" standalone="no"?>
<svg
   xmlns:dc="http://purl.org/dc/elements/1.1/"
   xmlns:cc="http://creativecommons.org/ns#"
   xmlns:rdf="http://www.w3.org/1999/02/22-rdf-syntax-ns#"
   xmlns:svg="http://www.w3.org/2000/svg"
   xmlns="http://www.w3.org/2000/svg"
   xmlns:sodipodi="http://sodipodi.sourceforge.net/DTD/sodipodi-0.dtd"
   xmlns:inkscape="http://www.inkscape.org/namespaces/inkscape"
   width="16"
   height="16"
   version="1.1"
   id="svg8"
   sodipodi:docname="notifications-disabled-symbolic.symbolic.svg"
   inkscape:version="1.0.1 (3bc2e813f5, 2020-09-07)">
  <metadata
     id="metadata14">
    <rdf:RDF>
      <cc:Work
         rdf:about="">
        <dc:format>image/svg+xml</dc:format>
        <dc:type
           rdf:resource="http://purl.org/dc/dcmitype/StillImage" />
      </cc:Work>
    </rdf:RDF>
  </metadata>
  <defs
     id="defs12" />
  <sodipodi:namedview
     pagecolor="#ffffff"
     bordercolor="#666666"
     borderopacity="1"
     objecttolerance="10"
     gridtolerance="10"
     guidetolerance="10"
     inkscape:pageopacity="0"
     inkscape:pageshadow="2"
     inkscape:window-width="1836"
     inkscape:window-height="1016"
     id="namedview10"
     showgrid="false"
     inkscape:zoom="45.254834"
     inkscape:cx="10.672984"
     inkscape:cy="8.3350794"
     inkscape:window-x="2004"
     inkscape:window-y="27"
     inkscape:window-maximized="1"
     inkscape:current-layer="svg8"
     inkscape:document-rotation="0" />
  <g
     id="g865">
    <path
       d="M 2.8602557,1.975 1.971,2.8650946 13.715886,14.609981 14.60682,13.719048 Z"
       id="path4"
       style="fill:#000000;stroke-width:0.83892" />
    <path
       id="path2"
       style="fill:#000000;marker:none"
       d="M 7.9707031 1.9746094 C 6.2467031 1.9746094 5.1902812 2.8982813 4.4882812 4.4882812 L 12.666016 12.666016 L 12.666016 12.974609 L 12.974609 12.974609 L 13.136719 12.974609 L 14.029297 12.974609 C 14.369769 12.868631 14.394043 12.301504 13.974609 12.011719 C 13.482538 11.656916 13.137297 11.515609 13.029297 10.974609 C 12.647928 9.2567391 12.281393 7.7583865 11.970703 5.9746094 C 11.440703 3.4746094 10.180703 1.9746094 7.9707031 1.9746094 z M 3.8925781 6.3652344 L 2.9707031 10.974609 C 2.8627031 11.515609 2.5174623 11.656916 2.0253906 12.011719 C 1.6059585 12.301504 1.6302298 12.868631 1.9707031 12.974609 L 10.501953 12.974609 L 3.8925781 6.3652344 z M 6.5878906 13.974609 C 6.7995213 14.573239 7.3651069 14.973764 8 14.974609 C 8.6348931 14.973764 9.2004787 14.573239 9.4121094 13.974609 L 6.5878906 13.974609 z " />
  </g>
</svg>
