<?xml version="1.0" encoding="UTF-8" standalone="no"?>
<svg
   xmlns:dc="http://purl.org/dc/elements/1.1/"
   xmlns:cc="http://creativecommons.org/ns#"
   xmlns:rdf="http://www.w3.org/1999/02/22-rdf-syntax-ns#"
   xmlns:svg="http://www.w3.org/2000/svg"
   xmlns="http://www.w3.org/2000/svg"
   xmlns:sodipodi="http://sodipodi.sourceforge.net/DTD/sodipodi-0.dtd"
   xmlns:inkscape="http://www.inkscape.org/namespaces/inkscape"
   width="16"
   height="16"
   version="1.1"
   id="svg8"
   sodipodi:docname="notifications-symbolic.symbolic.svg"
   inkscape:version="1.0.1 (3bc2e813f5, 2020-09-07)">
  <metadata
     id="metadata14">
    <rdf:RDF>
      <cc:Work
         rdf:about="">
        <dc:format>image/svg+xml</dc:format>
        <dc:type
           rdf:resource="http://purl.org/dc/dcmitype/StillImage" />
        <dc:title />
      </cc:Work>
    </rdf:RDF>
  </metadata>
  <defs
     id="defs12" />
  <sodipodi:namedview
     pagecolor="#333333"
     bordercolor="#666666"
     borderopacity="1"
     objecttolerance="10"
     gridtolerance="10"
     guidetolerance="10"
     inkscape:pageopacity="0"
     inkscape:pageshadow="2"
     inkscape:window-width="1836"
     inkscape:window-height="1016"
     id="namedview10"
     showgrid="false"
     inkscape:zoom="22.627417"
     inkscape:cx="12.598041"
     inkscape:cy="7.2144599"
     inkscape:window-x="2004"
     inkscape:window-y="27"
     inkscape:window-maximized="1"
     inkscape:current-layer="svg8"
     inkscape:document-rotation="0" />
  <path
     id="path2"
     style="fill:#000000;marker:none"
     d="M 8,1.9765625 C 5.809085,1.9904508 4.5568299,3.4862461 4.0292969,5.9746094 3.7186069,7.7583865 3.3520721,9.2567401 2.9707031,10.974609 c -0.108,0.541 -0.4532415,0.682307 -0.9453125,1.03711 -0.419438,0.289785 -0.3951595,0.856912 -0.054688,0.96289 4.0195315,0 8.0390634,0 12.0585944,0 0.340472,-0.105978 0.364748,-0.673105 -0.05469,-0.96289 -0.492071,-0.354803 -0.837313,-0.49611 -0.945312,-1.03711 C 12.647928,9.2567411 12.281393,7.7583865 11.970703,5.9746094 11.44317,3.4862461 10.190915,1.9904508 8,1.9765625 Z M 6.5878906,13.974609 c 0.211631,0.59863 0.7772164,0.999155 1.4121094,1 0.6348931,-8.45e-4 1.2004787,-0.40137 1.4121094,-1 z"
     sodipodi:nodetypes="cccccccccccccc" />
</svg>
