<?xml version="1.0" encoding="UTF-8" standalone="no"?>
<svg
   xmlns:dc="http://purl.org/dc/elements/1.1/"
   xmlns:cc="http://creativecommons.org/ns#"
   xmlns:rdf="http://www.w3.org/1999/02/22-rdf-syntax-ns#"
   xmlns:svg="http://www.w3.org/2000/svg"
   xmlns="http://www.w3.org/2000/svg"
   xmlns:sodipodi="http://sodipodi.sourceforge.net/DTD/sodipodi-0.dtd"
   xmlns:inkscape="http://www.inkscape.org/namespaces/inkscape"
   width="16"
   height="16"
   viewBox="0 0 4.2333333 4.2333335"
   version="1.1"
   id="svg8"
   inkscape:version="1.0.2 (e86c870879, 2021-01-15)"
   sodipodi:docname="psensor.svg"
   inkscape:export-filename="/home/ratus5/Downloads/Projects/Code/psensor/icons/hicolor/48x48/psensor.png"
   inkscape:export-xdpi="36"
   inkscape:export-ydpi="36">
  <defs
     id="defs2" />
  <sodipodi:namedview
     id="base"
     pagecolor="#ffffff"
     bordercolor="#666666"
     borderopacity="1.0"
     inkscape:pageopacity="0.0"
     inkscape:pageshadow="2"
     inkscape:zoom="22.627418"
     inkscape:cx="9.0041823"
     inkscape:cy="7.6801311"
     inkscape:document-units="px"
     inkscape:current-layer="layer1"
     inkscape:document-rotation="0"
     showgrid="false"
     inkscape:window-width="1920"
     inkscape:window-height="1016"
     inkscape:window-x="1920"
     inkscape:window-y="27"
     inkscape:window-maximized="1"
     units="px" />
  <metadata
     id="metadata5">
    <rdf:RDF>
      <cc:Work
         rdf:about="">
        <dc:format>image/svg+xml</dc:format>
        <dc:type
           rdf:resource="http://purl.org/dc/dcmitype/StillImage" />
        <dc:title></dc:title>
      </cc:Work>
    </rdf:RDF>
  </metadata>
  <g
     style="display:inline"
     inkscape:label="Graphic"
     id="layer1"
     inkscape:groupmode="layer">
    <path
       id="rect1199"
       style="display:inline;fill:#000000;fill-opacity:1;stroke-width:0.0312926"
       d="m 2.0248844,0 a 0.59938578,0.59938507 0 0 0 -0.5993745,0.59937371 0.59938578,0.59938507 0 0 0 8.7e-5,0.0065 h -8.7e-5 V 2.6639047 A 0.89907889,0.8990778 0 0 0 1.1258021,3.3340756 0.89907889,0.8990778 0 0 0 2.0248844,4.2331149 0.89907889,0.8990778 0 0 0 2.9239666,3.3340756 0.89907889,0.8990778 0 0 0 2.6243009,2.6639917 V 2.285121 h 0.3826895 a 0.10047986,0.1030191 0 0 0 8.9e-5,0 0.10047986,0.1030191 0 0 0 0.1004519,-0.1030108 0.10047986,0.1030191 0 0 0 -0.1004519,-0.1030098 0.10047986,0.1030191 0 0 0 -8.9e-5,0 H 2.6243009 V 1.9667262 h 0.2393158 a 0.05609655,0.05619234 0 0 0 6.07e-4,0 0.05609655,0.05619234 0 0 0 0.056097,-0.056187 0.05609655,0.05619234 0 0 0 -0.056097,-0.056227 0.05609655,0.05619234 0 0 0 -6.07e-4,0 H 2.6243009 V 1.7419376 h 0.2393158 a 0.05609702,0.05619234 0 0 0 6.07e-4,0 0.05609702,0.05619234 0 0 0 0.056097,-0.056187 0.05609702,0.05619234 0 0 0 -0.056097,-0.056187 0.05609702,0.05619234 0 0 0 -6.07e-4,0 H 2.6243009 V 1.517189 h 0.2393158 a 0.05609685,0.05619234 0 0 0 6.07e-4,0 0.05609685,0.05619234 0 0 0 0.056097,-0.056187 0.05609685,0.05619234 0 0 0 -0.056097,-0.056187 0.05609685,0.05619234 0 0 0 -6.07e-4,0 H 2.6243009 V 1.292393 h 0.2393158 a 0.05609685,0.05619234 0 0 0 6.07e-4,0 0.05609685,0.05619234 0 0 0 0.056097,-0.056187 0.05609685,0.05619234 0 0 0 -0.056097,-0.056187 0.05609685,0.05619234 0 0 0 -6.07e-4,0 H 2.6243009 V 1.067644 h 0.3826895 a 0.10047986,0.1030191 0 0 0 8.9e-5,0 0.10047986,0.1030191 0 0 0 0.1004519,-0.10300987 0.10047986,0.1030191 0 0 0 -0.1004519,-0.10305326 0.10047986,0.1030191 0 0 0 -8.9e-5,0 H 2.6243009 V 0.71174819 h 0.2393158 a 0.05609684,0.05619234 0 0 0 6.07e-4,0 0.05609684,0.05619234 0 0 0 0.056097,-0.0561871 0.05609684,0.05619234 0 0 0 -0.056097,-0.0561871 0.05609684,0.05619234 0 0 0 -6.07e-4,0 H 2.6243009 A 0.59938578,0.59938507 0 0 0 2.0248844,0 Z m -0.0024,0.27157159 h 4.39e-5 a 0.32778905,0.32778865 0 0 1 0.0023,0 0.32778905,0.32778865 0 0 1 0.3274994,0.31418891 h 3.46e-4 v 0.0111854 a 0.32778905,0.32778865 0 0 1 0,0.00243 V 2.8100573 A 0.61811657,0.61811584 0 0 1 2.6429749,3.3340806 0.61811657,0.61811584 0 0 1 2.0248714,3.9521842 0.61811657,0.61811584 0 0 1 1.4067688,3.3340806 0.61811657,0.61811584 0 0 1 1.697069,2.8100573 V 0.60180159 a 0.32778905,0.32778865 0 0 1 0,-0.00243 V 0.5857584 h 3.47e-4 A 0.32778905,0.32778865 0 0 1 2.0224435,0.27156949 Z" />
    <path
       d="m 2.0238814,1.1893805 a 0.23413513,0.23413485 0 0 0 -0.2331191,0.2341333 0.23413513,0.23413485 0 0 0 3.8e-5,0.0048 h -3.8e-5 v 1.436465 A 0.52446256,0.52446194 0 0 0 1.500434,3.3340976 0.52446256,0.52446194 0 0 0 2.0248954,3.8585589 0.52446256,0.52446194 0 0 0 2.5493577,3.3340976 0.52446256,0.52446194 0 0 0 2.2590285,2.8648165 v -1.436532 h -9.2e-5 a 0.23413513,0.23413485 0 0 0 9.2e-5,-0.0048 0.23413513,0.23413485 0 0 0 -0.2341331,-0.2341335 0.23413513,0.23413485 0 0 0 -0.001,0 z"
       inkscape:transform-center-y="11.577016"
       inkscape:transform-center-x="-3.385984"
       style="display:inline;opacity:1;fill:#000000;fill-opacity:1;stroke-width:0.032778"
       id="path64-3-5" />
  </g>
</svg>
