<?xml version="1.0" encoding="UTF-8" standalone="no"?>
<svg
   xmlns:dc="http://purl.org/dc/elements/1.1/"
   xmlns:cc="http://creativecommons.org/ns#"
   xmlns:rdf="http://www.w3.org/1999/02/22-rdf-syntax-ns#"
   xmlns:svg="http://www.w3.org/2000/svg"
   xmlns="http://www.w3.org/2000/svg"
   xmlns:sodipodi="http://sodipodi.sourceforge.net/DTD/sodipodi-0.dtd"
   xmlns:inkscape="http://www.inkscape.org/namespaces/inkscape"
   width="16"
   height="16"
   viewBox="0 0 4.2333333 4.2333335"
   version="1.1"
   id="svg8"
   inkscape:version="1.0.2 (e86c870879, 2021-01-15)"
   sodipodi:docname="temperature-symbolic.symbolic.svg"
   inkscape:export-filename="/home/ratus5/Downloads/Projects/Code/psensor/icons/hicolor/48x48/psensor.png"
   inkscape:export-xdpi="36"
   inkscape:export-ydpi="36">
  <defs
     id="defs2" />
  <sodipodi:namedview
     id="base"
     pagecolor="#ffffff"
     bordercolor="#666666"
     borderopacity="1.0"
     inkscape:pageopacity="0"
     inkscape:pageshadow="2"
     inkscape:zoom="16"
     inkscape:cx="4.9252627"
     inkscape:cy="5.134473"
     inkscape:document-units="px"
     inkscape:current-layer="layer1"
     inkscape:document-rotation="0"
     showgrid="false"
     inkscape:window-width="1920"
     inkscape:window-height="1016"
     inkscape:window-x="1920"
     inkscape:window-y="27"
     inkscape:window-maximized="1"
     units="px"
     inkscape:pagecheckerboard="false" />
  <metadata
     id="metadata5">
    <rdf:RDF>
      <cc:Work
         rdf:about="">
        <dc:format>image/svg+xml</dc:format>
        <dc:type
           rdf:resource="http://purl.org/dc/dcmitype/StillImage" />
        <dc:title></dc:title>
      </cc:Work>
    </rdf:RDF>
  </metadata>
  <g
     style="display:inline"
     inkscape:label="Graphic"
     id="layer1"
     inkscape:groupmode="layer">
    <g
       id="g907"
       transform="translate(0,-0.13229167)"
       style="fill:#000000">
      <path
         id="path849"
         style="display:inline;fill:#000000;fill-opacity:1;stroke:none;stroke-width:0.0103827;stroke-miterlimit:4;stroke-dasharray:none"
         d="m 2.0299366,1.9089694 c -0.0949,3.947e-4 -0.1716063,0.077463 -0.1715538,0.1723649 -3e-7,0.2965332 0,0.5984872 0,0.8524969 C 1.7273603,2.9991432 1.6445805,3.132974 1.6446501,3.2793723 1.644758,3.4924974 1.817622,3.6651801 2.0307477,3.6650642 2.2437149,3.6649561 2.4163318,3.4923392 2.4164396,3.2793723 2.4165092,3.132974 2.333729,2.9991436 2.202707,2.9338312 c 0,-0.2973095 0,-0.5982338 0,-0.8529025 -1.715e-4,-0.0949 -0.077059,-0.1717876 -0.1719593,-0.1719593 -2.701e-4,-8e-7 -5.399e-4,-8e-7 -8.147e-4,0 z"
         sodipodi:nodetypes="ccccccccsc" />
      <path
         id="path894"
         style="color:#000000;font-style:normal;font-variant:normal;font-weight:normal;font-stretch:normal;font-size:medium;line-height:normal;font-family:sans-serif;font-variant-ligatures:normal;font-variant-position:normal;font-variant-caps:normal;font-variant-numeric:normal;font-variant-alternates:normal;font-variant-east-asian:normal;font-feature-settings:normal;font-variation-settings:normal;text-indent:0;text-align:start;text-decoration:none;text-decoration-line:none;text-decoration-style:solid;text-decoration-color:#000000;letter-spacing:normal;word-spacing:normal;text-transform:none;writing-mode:lr-tb;direction:ltr;text-orientation:mixed;dominant-baseline:auto;baseline-shift:baseline;text-anchor:start;white-space:normal;shape-padding:0;shape-margin:0;inline-size:0;clip-rule:nonzero;display:inline;overflow:visible;visibility:visible;isolation:auto;mix-blend-mode:normal;color-interpolation:sRGB;color-interpolation-filters:linearRGB;solid-color:#000000;solid-opacity:1;vector-effect:none;fill:#000000;fill-opacity:1;fill-rule:nonzero;stroke:none;stroke-width:0.750002;stroke-linecap:butt;stroke-linejoin:miter;stroke-miterlimit:4;stroke-dasharray:none;stroke-dashoffset:0;stroke-opacity:1;color-rendering:auto;image-rendering:auto;shape-rendering:auto;text-rendering:auto;enable-background:accumulate;stop-color:#000000"
         d="m 7.6738281,1.125 c -1.375435,2.59e-5 -2.4980206,1.1226132 -2.4980469,2.4980469 -1.8e-6,2.1599646 0,4.3471536 0,6.2089843 -0.6578346,0.6645168 -1.0625257,1.5415548 -1.0625,2.4824218 8.42e-5,1.962029 1.5984952,3.560555 3.5605469,3.560547 1.962051,7e-6 3.5624159,-1.598241 3.5624999,-3.560547 -2.6e-5,-0.940769 -0.404758,-1.817915 -1.0625,-2.4824218 V 8.6503906 h 2.119141 c 0.3364,-9.71e-5 0.611302,-0.2801003 0.611328,-0.625 -2.9e-5,-0.3449008 -0.274926,-0.6249032 -0.611328,-0.625 H 10.173828 V 6.25 H 12.09375 C 12.430151,6.2499029 12.705052,5.9698996 12.705078,5.625 12.705049,5.2800992 12.430153,5.0000968 12.09375,5 H 10.173828 V 3.6230469 C 10.173805,2.2471615 9.0493308,1.1249298 7.6738281,1.125 Z m -0.00391,1.3496094 h 0.00195 c 0.00187,-4.7e-6 0.00201,-4.7e-6 0.00391,0 0.6592039,0.00119 1.2019349,0.5439217 1.203125,1.203125 v 0.25 0.029297 2.5859376 0.2773437 3.6835935 c 0.6117835,0.41138 1.0296533,1.06124 1.0292969,1.810547 -6.221e-4,1.228141 -1.0042802,2.231798 -2.2324219,2.232422 -1.2290433,6.68e-4 -2.2337521,-1.00338 -2.234375,-2.232422 -3.56e-4,-0.749307 0.4175139,-1.399167 1.0292969,-1.810547 0,-1.1120505 -1e-6,-2.4019514 0,-3.6835935 V 6.5449219 3.9570312 3.9277344 3.6796875 C 6.4703392,3.0204812 7.0107167,2.4773495 7.6699219,2.4746094 Z"
         transform="scale(0.26458334)" />
    </g>
  </g>
</svg>
