<?xml version="1.0" encoding="UTF-8" standalone="no"?>
<svg
   height="16"
   width="16"
   version="1.1"
   id="svg4"
   sodipodi:docname="weather-clear-night.svg"
   inkscape:version="1.4 (e7c3feb100, 2024-10-09)"
   xmlns:inkscape="http://www.inkscape.org/namespaces/inkscape"
   xmlns:sodipodi="http://sodipodi.sourceforge.net/DTD/sodipodi-0.dtd"
   xmlns="http://www.w3.org/2000/svg"
   xmlns:svg="http://www.w3.org/2000/svg">
  <defs
     id="defs8" />
  <sodipodi:namedview
     pagecolor="#333333"
     bordercolor="#666666"
     borderopacity="1"
     objecttolerance="10"
     gridtolerance="10"
     guidetolerance="10"
     inkscape:pageopacity="0"
     inkscape:pageshadow="2"
     inkscape:window-width="1920"
     inkscape:window-height="1011"
     id="namedview6"
     showgrid="false"
     inkscape:zoom="22.627417"
     inkscape:cx="7.4467183"
     inkscape:cy="5.2591067"
     inkscape:window-x="0"
     inkscape:window-y="0"
     inkscape:window-maximized="1"
     inkscape:current-layer="layer1"
     inkscape:document-rotation="0"
     inkscape:showpageshadow="2"
     inkscape:pagecheckerboard="0"
     inkscape:deskcolor="#d1d1d1" />
  <g
     inkscape:groupmode="layer"
     id="layer1"
     inkscape:label="Icon">
    <path
       style="fill:#ffffff;marker:none"
       d="m 10.296875,2.2441406 c 1.164096,1.4239402 1.573191,3.3204547 1.099609,5.0976563 C 10.576587,10.396671 7.4361186,12.209085 4.3808594,11.390625 3.6004208,11.179367 2.8735478,10.80528 2.2480469,10.292969 c 0.6299442,2.190317 2.3599311,3.891409 4.5605469,4.484375 3.4706612,0.930392 7.0384122,-1.128935 7.9687502,-4.59961 1.40275,-5.2403161 -3.691407,-7.9335934 -4.480469,-7.9335934 z"
       id="path1"
       sodipodi:nodetypes="ccccccc" />
    <path
       id="path8"
       style="fill:#ffffff;stroke-width:1.24075;stroke-linecap:round;stroke-linejoin:round;paint-order:stroke fill markers"
       d="M 2.5136719 5.1425781 A 0.24817534 0.24817534 0 0 0 2.2890625 5.28125 L 1.9628906 5.9472656 L 1.2265625 6.0527344 A 0.24817534 0.24817534 0 0 0 1.0878906 6.4765625 L 1.6210938 6.9960938 L 1.4941406 7.7304688 A 0.24817534 0.24817534 0 0 0 1.8554688 7.9902344 L 2.5136719 7.6464844 L 3.171875 7.9902344 A 0.24817534 0.24817534 0 0 0 3.5332031 7.7304688 L 3.40625 6.9960938 L 3.9375 6.4765625 A 0.24817534 0.24817534 0 0 0 3.8027344 6.0527344 L 3.0644531 5.9472656 L 2.7363281 5.28125 A 0.24817534 0.24817534 0 0 0 2.5136719 5.1425781 z " />
    <path
       id="path6"
       style="fill:#ffffff;stroke-width:1.65434;stroke-linecap:round;stroke-linejoin:round;paint-order:stroke fill markers"
       d="M 5.9824219 1.1875 A 0.33090045 0.33090045 0 0 0 5.6835938 1.3710938 L 5.2480469 2.2597656 L 4.265625 2.4023438 A 0.33090045 0.33090045 0 0 0 4.0820312 2.9667969 L 4.7929688 3.6582031 L 4.625 4.6386719 A 0.33090045 0.33090045 0 0 0 5.1054688 4.984375 L 5.9824219 4.5253906 L 6.8613281 4.984375 A 0.33090045 0.33090045 0 0 0 7.3417969 4.6386719 L 7.1738281 3.6582031 L 7.8808594 2.9667969 A 0.33090045 0.33090045 0 0 0 7.7011719 2.4023438 L 6.71875 2.2597656 L 6.2792969 1.3710938 A 0.33090045 0.33090045 0 0 0 5.9824219 1.1875 z " />
  </g>
</svg>
