<?xml version="1.0" encoding="UTF-8" standalone="no"?>
<svg
   xmlns:dc="http://purl.org/dc/elements/1.1/"
   xmlns:cc="http://creativecommons.org/ns#"
   xmlns:rdf="http://www.w3.org/1999/02/22-rdf-syntax-ns#"
   xmlns:svg="http://www.w3.org/2000/svg"
   xmlns="http://www.w3.org/2000/svg"
   xmlns:sodipodi="http://sodipodi.sourceforge.net/DTD/sodipodi-0.dtd"
   xmlns:inkscape="http://www.inkscape.org/namespaces/inkscape"
   height="16"
   width="16"
   version="1.1"
   id="svg8"
   sodipodi:docname="weather-storm.svg"
   inkscape:version="1.0.1 (3bc2e813f5, 2020-09-07)">
  <metadata
     id="metadata14">
    <rdf:RDF>
      <cc:Work
         rdf:about="">
        <dc:format>image/svg+xml</dc:format>
        <dc:type
           rdf:resource="http://purl.org/dc/dcmitype/StillImage" />
        <dc:title></dc:title>
      </cc:Work>
    </rdf:RDF>
  </metadata>
  <defs
     id="defs12" />
  <sodipodi:namedview
     pagecolor="#333333"
     bordercolor="#666666"
     borderopacity="1"
     objecttolerance="10"
     gridtolerance="10"
     guidetolerance="10"
     inkscape:pageopacity="0"
     inkscape:pageshadow="2"
     inkscape:window-width="1836"
     inkscape:window-height="1016"
     id="namedview10"
     showgrid="false"
     inkscape:zoom="26.9375"
     inkscape:cx="6.0103199"
     inkscape:cy="10.799453"
     inkscape:window-x="2004"
     inkscape:window-y="27"
     inkscape:window-maximized="1"
     inkscape:current-layer="svg8"
     inkscape:document-rotation="0" />
  <g
     id="g842">
    <path
       color="#000000"
       d="M 8.56,0.084 C 6.672,0.085 5.068,1.249 4.301,2.912 L 4.246,3.025 4.125,3.035 C 2.38,3.162 1,4.672 1,6.508 1,8.427 2.5,10 4.357,10 h 8.125 C 13.874,10 15,8.818 15,7.385 c 0,-1.087 -0.653,-2 -1.578,-2.393 l -0.121,-0.05 -0.01,-0.13 C 13.172,2.194 11.115,0.086 8.562,0.084 Z m 0,1 c 2.004,10e-4 3.635,1.652 3.731,3.773 v 0.016 l 0.06,0.748 0.677,0.291 v 0.002 c 0.57,0.242 0.973,0.785 0.973,1.47 C 14.001,8.294 13.309,9 12.483,9 H 4.36 C 3.069,9 2,7.905 2,6.508 2,5.174 2.988,4.12 4.198,4.031 L 4.903,3.982 5.208,3.334 V 3.332 C 5.826,1.989 7.08,1.085 8.559,1.084 Z"
       font-family="sans-serif"
       font-weight="400"
       overflow="visible"
       style="line-height:normal;-inkscape-font-specification:sans-serif;text-indent:0;text-align:start;text-decoration:none;text-decoration-line:none;text-transform:none;fill:#ffffff;marker:none"
       id="path2" />
    <path
       d="m 11.860649,10.775 -0.13,1.75 h 0.8065 l -0.19,1.75 1.3835,-2.5 h -0.955 l 0.162,-1 z"
       id="path4"
       style="fill:#ffffff;stroke-width:0.5" />
    <path
       d="m 3.7637799,11.512 -0.0975,1.312501 h 0.604874 L 4.1286549,14.137 5.1662799,12.262001 h -0.71625 L 4.5715289,11.512 Z"
       id="path834"
       style="fill:#ffffff;stroke-width:0.375" />
    <path
       d="m 7.3950564,10 -0.195,2.625 H 8.4098063 L 8.1248064,15.25 10.200056,11.5 H 8.7675564 l 0.243,-1.5 z"
       id="path836"
       style="fill:#ffffff;stroke-width:0.75" />
  </g>
</svg>
