<?xml version="1.0" encoding="UTF-8" standalone="no"?>
<svg
   height="16"
   width="16"
   version="1.1"
   id="svg4"
   sodipodi:docname="weather-clear-symbolic.symbolic.svg"
   xmlns:inkscape="http://www.inkscape.org/namespaces/inkscape"
   xmlns:sodipodi="http://sodipodi.sourceforge.net/DTD/sodipodi-0.dtd"
   xmlns="http://www.w3.org/2000/svg"
   xmlns:svg="http://www.w3.org/2000/svg">
  <defs
     id="defs8" />
  <sodipodi:namedview
     pagecolor="#333333"
     bordercolor="#666666"
     borderopacity="1"
     objecttolerance="10"
     gridtolerance="10"
     guidetolerance="10"
     inkscape:pageopacity="0"
     inkscape:pageshadow="2"
     inkscape:window-width="1836"
     inkscape:window-height="1016"
     id="namedview6"
     showgrid="false"
     inkscape:zoom="13.46875"
     inkscape:cx="10.518384"
     inkscape:cy="14.50141"
     inkscape:window-x="2004"
     inkscape:window-y="27"
     inkscape:window-maximized="1"
     inkscape:current-layer="layer1"
     inkscape:document-rotation="0"
     inkscape:showpageshadow="2"
     inkscape:pagecheckerboard="0"
     inkscape:deskcolor="#d1d1d1" />
  <g
     inkscape:groupmode="layer"
     id="layer1"
     inkscape:label="Icon">
    <path
       id="path2"
       style="fill:#000000"
       d="M 7.5 0 L 7.5 2 L 8.5 2 L 8.5 0 L 7.5 0 z M 4.4335938 0.82226562 L 3.5664062 1.3222656 L 4.5683594 3.0546875 L 5.4335938 2.5546875 L 4.4335938 0.82226562 z M 11.566406 0.82226562 L 10.566406 2.5546875 L 11.433594 3.0546875 L 12.433594 1.3222656 L 11.566406 0.82226562 z M 8 3 A 5 5 0 0 0 8 13 A 5 5 0 0 0 8 3 z M 1.3222656 3.5664062 L 0.82226562 4.4335938 L 2.5546875 5.4335938 L 3.0546875 4.5664062 L 1.3222656 3.5664062 z M 14.677734 3.5664062 L 12.945312 4.5664062 L 13.445312 5.4335938 L 15.177734 4.4335938 L 14.677734 3.5664062 z M 0 7.5 L 0 8.5 L 2 8.5 L 2 7.5 L 0 7.5 z M 14 7.5 L 14 8.5 L 16 8.5 L 16 7.5 L 14 7.5 z M 2.5546875 10.566406 L 0.82226562 11.566406 L 1.3222656 12.433594 L 3.0546875 11.431641 L 2.5546875 10.566406 z M 13.445312 10.566406 L 12.945312 11.433594 L 14.677734 12.433594 L 15.177734 11.566406 L 13.445312 10.566406 z M 4.5664062 12.945312 L 3.5664062 14.677734 L 4.4335938 15.177734 L 5.4335938 13.445312 L 4.5664062 12.945312 z M 11.433594 12.945312 L 10.566406 13.445312 L 11.566406 15.177734 L 12.433594 14.677734 L 11.433594 12.945312 z M 7.5 14 L 7.5 16 L 8.5 16 L 8.5 14 L 7.5 14 z " />
  </g>
</svg>
