<?xml version="1.0" encoding="UTF-8" standalone="no"?>
<svg
   xmlns:dc="http://purl.org/dc/elements/1.1/"
   xmlns:cc="http://creativecommons.org/ns#"
   xmlns:rdf="http://www.w3.org/1999/02/22-rdf-syntax-ns#"
   xmlns:svg="http://www.w3.org/2000/svg"
   xmlns="http://www.w3.org/2000/svg"
   xmlns:sodipodi="http://sodipodi.sourceforge.net/DTD/sodipodi-0.dtd"
   xmlns:inkscape="http://www.inkscape.org/namespaces/inkscape"
   height="16"
   width="16"
   version="1.1"
   id="svg4"
   sodipodi:docname="weather-few-clouds.svg"
   inkscape:version="1.0.1 (3bc2e813f5, 2020-09-07)">
  <metadata
     id="metadata10">
    <rdf:RDF>
      <cc:Work
         rdf:about="">
        <dc:format>image/svg+xml</dc:format>
        <dc:type
           rdf:resource="http://purl.org/dc/dcmitype/StillImage" />
        <dc:title />
      </cc:Work>
    </rdf:RDF>
  </metadata>
  <defs
     id="defs8" />
  <sodipodi:namedview
     pagecolor="#333333"
     bordercolor="#666666"
     borderopacity="1"
     objecttolerance="10"
     gridtolerance="10"
     guidetolerance="10"
     inkscape:pageopacity="0"
     inkscape:pageshadow="2"
     inkscape:window-width="1836"
     inkscape:window-height="1016"
     id="namedview6"
     showgrid="false"
     inkscape:zoom="26.9375"
     inkscape:cx="9.0205733"
     inkscape:cy="10.634715"
     inkscape:window-x="2004"
     inkscape:window-y="27"
     inkscape:window-maximized="1"
     inkscape:current-layer="svg4"
     inkscape:document-rotation="0" />
  <path
     id="path2"
     style="fill:#ffffff"
     d="M 7.5 0 L 7.5 2 L 8.5 2 L 8.5 0 L 7.5 0 z M 4.4335938 0.82226562 L 3.5664062 1.3222656 L 4.5683594 3.0546875 L 5.4335938 2.5546875 L 4.4335938 0.82226562 z M 11.566406 0.82226562 L 10.566406 2.5546875 L 11.433594 3.0546875 L 12.433594 1.3222656 L 11.566406 0.82226562 z M 8 3 A 5 5 0 0 0 3 8 C 3 9.648 3.8081094 11.096812 5.0371094 12.007812 A 3.5 3.5 0 0 1 5.3476562 10.988281 A 4 4 0 0 1 4 8 A 4 4 0 0 1 8 4 A 4 4 0 0 1 11.873047 7.0175781 A 4.5 4.5 0 0 1 12.9375 7.2421875 A 4.997 4.997 0 0 0 8 3 z M 1.3222656 3.5664062 L 0.82226562 4.4335938 L 2.5546875 5.4335938 L 3.0546875 4.5664062 L 1.3222656 3.5664062 z M 14.677734 3.5664062 L 12.945312 4.5664062 L 13.445312 5.4335938 L 15.177734 4.4335938 L 14.677734 3.5664062 z M 0 7.5 L 0 8.5 L 2 8.5 L 2 7.5 L 0 7.5 z M 14 7.5 L 14 7.7617188 A 4.5 4.5 0 0 1 14.847656 8.5 L 16 8.5 L 16 7.5 L 14 7.5 z M 11.5 8 A 3.5 3.5 0 0 0 8.3398438 10.005859 A 2.5 2.5 0 0 0 6 12.5 A 2.5 2.5 0 0 0 8.5 15 L 14 15 A 2 2 0 0 0 16 13 A 2 2 0 0 0 14.992188 11.265625 A 3.5 3.5 0 0 0 11.5 8 z M 11.466797 9 A 2.497 2.497 0 0 1 11.498047 9 L 11.5 9 A 2.486 2.486 0 0 1 13.992188 11.332031 L 14.029297 11.867188 L 14.494141 12.134766 A 0.996 0.996 0 0 1 14.998047 13.001953 A 0.985 0.985 0 0 1 13.998047 14 L 8.4980469 14 C 7.6580469 14 6.9980469 13.34 6.9980469 12.5 C 6.9980469 11.7 7.6033438 11.054906 8.4023438 11.003906 L 8.9902344 10.966797 L 9.2421875 10.433594 A 2.497 2.497 0 0 1 11.466797 9 z M 2.5585938 10.566406 L 0.82617188 11.566406 L 1.3261719 12.433594 L 3.0585938 11.431641 L 2.5585938 10.566406 z M 4.5703125 12.945312 L 3.5703125 14.677734 L 4.4375 15.177734 L 5.2480469 13.775391 A 3.5 3.5 0 0 1 5.0859375 13.242188 L 4.5703125 12.945312 z " />
</svg>
