<?xml version="1.0" encoding="UTF-8" standalone="no"?>
<svg
   xmlns:dc="http://purl.org/dc/elements/1.1/"
   xmlns:cc="http://creativecommons.org/ns#"
   xmlns:rdf="http://www.w3.org/1999/02/22-rdf-syntax-ns#"
   xmlns:svg="http://www.w3.org/2000/svg"
   xmlns="http://www.w3.org/2000/svg"
   xmlns:sodipodi="http://sodipodi.sourceforge.net/DTD/sodipodi-0.dtd"
   xmlns:inkscape="http://www.inkscape.org/namespaces/inkscape"
   height="16"
   width="16"
   version="1.1"
   id="svg4"
   sodipodi:docname="weather-few-clouds.svg"
   inkscape:version="1.0.1 (3bc2e813f5, 2020-09-07)">
  <metadata
     id="metadata10">
    <rdf:RDF>
      <cc:Work
         rdf:about="">
        <dc:format>image/svg+xml</dc:format>
        <dc:type
           rdf:resource="http://purl.org/dc/dcmitype/StillImage" />
        <dc:title />
      </cc:Work>
    </rdf:RDF>
  </metadata>
  <defs
     id="defs8" />
  <sodipodi:namedview
     pagecolor="#333333"
     bordercolor="#666666"
     borderopacity="1"
     objecttolerance="10"
     gridtolerance="10"
     guidetolerance="10"
     inkscape:pageopacity="0"
     inkscape:pageshadow="2"
     inkscape:window-width="1836"
     inkscape:window-height="1016"
     id="namedview6"
     showgrid="false"
     inkscape:zoom="22.627417"
     inkscape:cx="9.7248692"
     inkscape:cy="7.3441888"
     inkscape:window-x="2004"
     inkscape:window-y="27"
     inkscape:window-maximized="1"
     inkscape:current-layer="layer2"
     inkscape:document-rotation="0" />
  <g
     inkscape:groupmode="layer"
     id="layer2"
     inkscape:label="Icon"
     style="display:inline">
    <g
       id="g845">
      <path
         id="path2"
         style="fill:#ffff00"
         d="m 7.5,0 v 2 h 1 V 0 Z M 4.4335938,0.82226562 3.5664062,1.3222656 l 1.0019532,1.7324219 0.8652344,-0.5 z m 7.1328122,0 -1,1.73242188 0.867188,0.5 1,-1.7324219 z M 8,3 C 1.3333362,3 1.3333362,13 8,13 10.761426,13 12.999998,10.761424 12.999998,8 12.999998,5.2385763 10.761426,3 8,3 Z m -6.6777344,0.5664062 -0.49999998,0.8671876 1.73242188,1 0.5,-0.8671876 z m 13.3554684,0 -1.732422,1 0.5,0.8671876 1.732422,-1 z M 0,7.5 v 1 h 2 v -1 z m 14,0 v 1 h 2 v -1 z m -11.4453125,3.066406 -1.73242188,1 0.49999998,0.867188 1.7324219,-1.001953 z m 2.0117187,2.378906 -1,1.732422 0.8671876,0.5 1,-1.732422 z"
         sodipodi:nodetypes="cccccccccccccccsssscccccccccccccccccccccccccccccc" />
      <path
         id="path863"
         style="display:inline;fill:#ffffff"
         d="M 11.5,8 A 3.5,3.5 0 0 0 8.3398438,10.005859 2.5,2.5 0 0 0 6,12.5 2.5,2.5 0 0 0 8.5,15 H 14 A 2,2 0 0 0 16,13 2,2 0 0 0 14.992188,11.265625 3.5,3.5 0 0 0 11.5,8 Z" />
    </g>
  </g>
</svg>
