<?xml version="1.0" encoding="UTF-8" standalone="no"?>
<svg
   height="16"
   width="16"
   version="1.1"
   id="svg4"
   sodipodi:docname="weather-few-clouds-night.svg"
   xmlns:inkscape="http://www.inkscape.org/namespaces/inkscape"
   xmlns:sodipodi="http://sodipodi.sourceforge.net/DTD/sodipodi-0.dtd"
   xmlns="http://www.w3.org/2000/svg"
   xmlns:svg="http://www.w3.org/2000/svg">
  <defs
     id="defs8" />
  <sodipodi:namedview
     pagecolor="#333333"
     bordercolor="#666666"
     borderopacity="1"
     objecttolerance="10"
     gridtolerance="10"
     guidetolerance="10"
     inkscape:pageopacity="0"
     inkscape:pageshadow="2"
     inkscape:window-width="1836"
     inkscape:window-height="1016"
     id="namedview6"
     showgrid="false"
     inkscape:zoom="19.047689"
     inkscape:cx="14.278165"
     inkscape:cy="9.3743714"
     inkscape:window-x="2004"
     inkscape:window-y="27"
     inkscape:window-maximized="1"
     inkscape:current-layer="layer1"
     inkscape:document-rotation="0"
     inkscape:showpageshadow="2"
     inkscape:pagecheckerboard="0"
     inkscape:deskcolor="#d1d1d1" />
  <g
     inkscape:groupmode="layer"
     id="layer1"
     inkscape:label="Icon">
    <g
       id="g837">
      <path
         style="fill:#ffffff;marker:none"
         d="M 8.298,0.246 A 5.725,5.725 0 0 1 9.397609,5.3436563 5.729,5.729 0 0 1 2.3819842,9.3924844 5.728,5.728 0 0 1 0.2491722,8.2948284 6.507,6.507 0 0 0 4.8097192,12.779203 6.506,6.506 0 0 0 12.778469,8.1795934 6.507,6.507 0 0 0 8.299953,0.246 Z"
         id="path848" />
      <path
         style="fill:#cccccc;stroke-width:1.00086;marker:none"
         d="M 11.49684,9 A 3.5060469,3.5 0 0 0 8.3313808,11.006 2.5043192,2.5 0 0 0 8.4916572,16 H 14.00116 A 2.0034554,2 0 0 0 14.994874,12.266 3.5060469,3.5 0 0 0 11.49684,9 Z"
         id="path854" />
    </g>
  </g>
</svg>
