<?xml version="1.0" encoding="UTF-8" standalone="no"?>
<svg
   height="16"
   width="16"
   version="1.1"
   id="svg8"
   sodipodi:docname="weather-showers.svg"
   xmlns:inkscape="http://www.inkscape.org/namespaces/inkscape"
   xmlns:sodipodi="http://sodipodi.sourceforge.net/DTD/sodipodi-0.dtd"
   xmlns="http://www.w3.org/2000/svg"
   xmlns:svg="http://www.w3.org/2000/svg">
  <defs
     id="defs12" />
  <sodipodi:namedview
     pagecolor="#333333"
     bordercolor="#666666"
     borderopacity="1"
     objecttolerance="10"
     gridtolerance="10"
     guidetolerance="10"
     inkscape:pageopacity="0"
     inkscape:pageshadow="2"
     inkscape:window-width="1836"
     inkscape:window-height="1016"
     id="namedview10"
     showgrid="true"
     inkscape:zoom="16"
     inkscape:cx="-1.3279913"
     inkscape:cy="6.0166123"
     inkscape:window-x="2004"
     inkscape:window-y="27"
     inkscape:window-maximized="1"
     inkscape:current-layer="layer1"
     inkscape:document-rotation="0"
     inkscape:showpageshadow="2"
     inkscape:pagecheckerboard="0"
     inkscape:deskcolor="#d1d1d1" />
  <g
     inkscape:groupmode="layer"
     id="layer1"
     inkscape:label="Icon">
    <g
       id="g840">
      <path
         id="path2"
         style="color:#000000;line-height:normal;-inkscape-font-specification:sans-serif;text-indent:0;text-align:start;text-decoration:none;text-decoration-line:none;text-transform:none;fill:#b3b3b3;marker:none"
         d="m 8.5605469,0.08398437 c -1.888,0.001 -3.4927657,1.16512503 -4.2597657,2.82812503 L 4.2460938,3.0253906 4.125,3.0351562 C 2.38,3.1621562 1,4.6718125 1,6.5078125 1,8.4268125 2.5004219,10 4.3574219,10 H 12.482422 C 13.874422,10 15,8.8177656 15,7.3847656 15,6.2977656 14.346875,5.3851875 13.421875,4.9921875 L 13.300781,4.9414062 13.291016,4.8125 C 13.172016,2.1945 11.1155,0.08598437 8.5625,0.08398437 Z" />
      <g
         id="g839"
         style="fill:#5fd6ff;fill-opacity:1">
        <path
           id="path2-36"
           style="fill:#5fd6ff;stroke-width:0.368598;marker:none;fill-opacity:1"
           d="m 4.5241199,10.188032 c -0.2994739,0.607372 -0.5064349,1.28449 -0.5204356,1.331292 0,0.0052 -0.00576,0.01066 -0.00576,0.01656 a 0.5528278,0.55296513 0 0 0 0.5247543,0.726487 l -7.26e-4,-7.26e-4 a 0.5528278,0.55296513 0 0 0 0.5254752,-0.725766 c 0,0 -0.2034117,-0.684294 -0.5233148,-1.347852 z" />
        <path
           id="path830-7"
           style="fill:#5fd6ff;stroke-width:0.518585;marker:none;fill-opacity:1"
           d="m 11.45269,10.188 c -0.421386,0.854412 -0.712599,1.806941 -0.732298,1.87278 0,0.0078 -0.0081,0.015 -0.0081,0.02329 a 0.77787716,0.77787716 0 0 0 0.738378,1.021977 l -0.001,-9.85e-4 a 0.77787716,0.77787716 0 0 0 0.739388,-1.020964 c 0,0 -0.286218,-0.962623 -0.73635,-1.896076 z" />
        <path
           id="path840-5"
           style="fill:#5fd6ff;stroke-width:0.518585;marker:none;fill-opacity:1"
           d="m 8.0023607,10.18823 c -0.7032015,1.425071 -1.1888395,3.014761 -1.2215104,3.123663 -0.00311,0.01297 -0.011141,0.02654 -0.011141,0.0395 a 1.2974991,1.2974991 0 0 0 1.2316383,1.703633 1.2974991,1.2974991 0 0 0 1.2286004,-1.703632 c 0,0 -0.4766764,-1.605385 -1.2275871,-3.161139 z" />
      </g>
    </g>
  </g>
</svg>
