<?xml version="1.0" encoding="UTF-8" standalone="no"?>
<svg
   height="16"
   width="16.002"
   version="1.1"
   id="svg4"
   sodipodi:docname="weather-fog.svg"
   xmlns:inkscape="http://www.inkscape.org/namespaces/inkscape"
   xmlns:sodipodi="http://sodipodi.sourceforge.net/DTD/sodipodi-0.dtd"
   xmlns="http://www.w3.org/2000/svg"
   xmlns:svg="http://www.w3.org/2000/svg">
  <defs
     id="defs8" />
  <sodipodi:namedview
     pagecolor="#333333"
     bordercolor="#666666"
     borderopacity="1"
     objecttolerance="10"
     gridtolerance="10"
     guidetolerance="10"
     inkscape:pageopacity="0"
     inkscape:pageshadow="2"
     inkscape:window-width="1836"
     inkscape:window-height="1016"
     id="namedview6"
     showgrid="false"
     inkscape:zoom="38.095378"
     inkscape:cx="9.5781138"
     inkscape:cy="9.5784691"
     inkscape:window-x="2004"
     inkscape:window-y="27"
     inkscape:window-maximized="1"
     inkscape:current-layer="layer1"
     inkscape:document-rotation="0"
     inkscape:showpageshadow="2"
     inkscape:pagecheckerboard="0"
     inkscape:deskcolor="#d1d1d1" />
  <g
     inkscape:groupmode="layer"
     id="layer1"
     inkscape:label="Icon">
    <g
       id="g867">
      <path
         id="path834"
         style="line-height:normal;-inkscape-font-specification:sans-serif;text-indent:0;text-align:start;text-decoration-line:none;text-transform:none;marker:none;fill:#cccccc"
         d="M 0 11 L 0 12 L 7.7167969 12 L 7.7167969 11 L 0 11 z M 0.001953125 13 L 0.001953125 14 L 16.001953 14 L 16.001953 13 L 0.001953125 13 z M 0.001953125 15 L 0.001953125 16 L 16.001953 16 L 16.001953 15 L 0.001953125 15 z " />
      <path
         id="path2-5"
         style="line-height:normal;-inkscape-font-specification:sans-serif;text-indent:0;text-align:start;text-decoration:none;text-decoration-line:none;text-transform:none;fill:#ffffff;marker:none"
         d="m 8.6425782,0.6679688 c -2.158,0.002 -3.9931406,1.3314218 -4.8691406,3.2324218 l -0.060547,0.1289063 -0.1386719,0.00977 C 1.5802188,4.1830625 0.0019532,5.9098125 0.0019532,8.0078128 0.0019532,10.200813 1.7178438,12 3.8398438,12 h 9.2832032 c 1.592001,0 2.878906,-1.350281 2.878906,-2.9882812 a 2.958,2.958 0 0 0 -1.804687,-2.734375 l -0.136719,-0.058594 -0.0098,-0.1484375 C 13.915747,3.0773123 11.56345,0.6699686 8.6464504,0.6679686 Z" />
    </g>
  </g>
</svg>
