<?xml version="1.0" encoding="UTF-8" standalone="no"?>
<svg
   xmlns:dc="http://purl.org/dc/elements/1.1/"
   xmlns:cc="http://creativecommons.org/ns#"
   xmlns:rdf="http://www.w3.org/1999/02/22-rdf-syntax-ns#"
   xmlns:svg="http://www.w3.org/2000/svg"
   xmlns="http://www.w3.org/2000/svg"
   xmlns:sodipodi="http://sodipodi.sourceforge.net/DTD/sodipodi-0.dtd"
   xmlns:inkscape="http://www.inkscape.org/namespaces/inkscape"
   height="16"
   width="16"
   version="1.1"
   id="svg8"
   sodipodi:docname="weather-snow-symbolic.symbolic.svg"
   inkscape:version="1.0.1 (3bc2e813f5, 2020-09-07)">
  <metadata
     id="metadata14">
    <rdf:RDF>
      <cc:Work
         rdf:about="">
        <dc:format>image/svg+xml</dc:format>
        <dc:type
           rdf:resource="http://purl.org/dc/dcmitype/StillImage" />
        <dc:title />
      </cc:Work>
    </rdf:RDF>
  </metadata>
  <defs
     id="defs12" />
  <sodipodi:namedview
     pagecolor="#333333"
     bordercolor="#666666"
     borderopacity="1"
     objecttolerance="10"
     gridtolerance="10"
     guidetolerance="10"
     inkscape:pageopacity="0"
     inkscape:pageshadow="2"
     inkscape:window-width="1836"
     inkscape:window-height="1016"
     id="namedview10"
     showgrid="false"
     inkscape:zoom="32"
     inkscape:cx="6.7300885"
     inkscape:cy="8.243996"
     inkscape:window-x="2004"
     inkscape:window-y="27"
     inkscape:window-maximized="1"
     inkscape:current-layer="layer1"
     inkscape:document-rotation="0" />
  <g
     inkscape:groupmode="layer"
     id="layer1"
     inkscape:label="Icon">
    <g
       id="g840">
      <path
         id="path2"
         style="color:#000000;line-height:normal;-inkscape-font-specification:sans-serif;text-indent:0;text-align:start;text-decoration:none;text-decoration-line:none;text-transform:none;fill:#000000;marker:none"
         d="M 8.5605469 0.083984375 C 6.6725469 0.084984375 5.0677812 1.2491094 4.3007812 2.9121094 L 4.2460938 3.0253906 L 4.125 3.0351562 C 2.38 3.1621562 1 4.6718125 1 6.5078125 C 1 8.4268125 2.5004219 10 4.3574219 10 L 12.482422 10 C 13.874422 10 15 8.8177656 15 7.3847656 C 15 6.2977656 14.346875 5.3851875 13.421875 4.9921875 L 13.300781 4.9414062 L 13.291016 4.8125 C 13.172016 2.1945 11.1155 0.085984375 8.5625 0.083984375 L 8.5605469 0.083984375 z " />
      <path
         d="m 8.4679967,11.5 -1,0.0042 v 1.4298 l -1.155,-0.667 -0.5,0.866 1.155,0.667 -1.155,0.667 0.5,0.866 1.155,-0.667 V 16 h 1 v -1.334 l 1.155,0.667 0.5000003,-0.866 -1.1550003,-0.667 1.1550003,-0.667 -0.5000003,-0.866 -1.155,0.667 z m -4.516,-0.599 -0.6918567,0.0094 0.00386,0.978616 -0.796,-0.46 -0.344,0.597 0.795,0.46 -0.795,0.458 0.344,0.597 0.796,-0.46 V 14 h 0.688 v -0.919 l 0.796,0.46 0.344,-0.597 -0.795,-0.459 0.795,-0.46 -0.344,-0.596 -0.796,0.46 z m 9.0160003,-0.458 -0.79,0.0014 v 1.1316 l -0.914,-0.527 -0.395,0.685 0.913,0.527 -0.913,0.527 0.395,0.685 0.914,-0.528 V 14 h 0.79 v -1.055 l 0.913,0.528 0.396,-0.685 -0.914,-0.527 0.914,-0.527 -0.396,-0.685 -0.913,0.527 z"
         overflow="visible"
         style="color:#000000;fill:#000000;marker:none"
         id="path834"
         sodipodi:nodetypes="ccccccccccccccccccccccccccccccccccccccccccccccccccccccccc" />
    </g>
  </g>
</svg>
