<?xml version="1.0" encoding="UTF-8" standalone="no"?>
<svg
   height="16"
   width="16"
   version="1.1"
   id="svg8"
   sodipodi:docname="weather-snow.svg"
   inkscape:version="1.4 (e7c3feb100, 2024-10-09)"
   xmlns:inkscape="http://www.inkscape.org/namespaces/inkscape"
   xmlns:sodipodi="http://sodipodi.sourceforge.net/DTD/sodipodi-0.dtd"
   xmlns="http://www.w3.org/2000/svg"
   xmlns:svg="http://www.w3.org/2000/svg">
  <defs
     id="defs12" />
  <sodipodi:namedview
     pagecolor="#333333"
     bordercolor="#666666"
     borderopacity="1"
     objecttolerance="10"
     gridtolerance="10"
     guidetolerance="10"
     inkscape:pageopacity="0"
     inkscape:pageshadow="2"
     inkscape:window-width="1920"
     inkscape:window-height="1011"
     id="namedview10"
     showgrid="false"
     inkscape:zoom="16"
     inkscape:cx="2.8125"
     inkscape:cy="-2.4375"
     inkscape:window-x="0"
     inkscape:window-y="0"
     inkscape:window-maximized="1"
     inkscape:current-layer="g837"
     inkscape:document-rotation="0"
     inkscape:showpageshadow="2"
     inkscape:pagecheckerboard="0"
     inkscape:deskcolor="#d1d1d1" />
  <g
     inkscape:groupmode="layer"
     id="layer1"
     inkscape:label="Icon">
    <g
       id="g837">
      <path
         id="path2"
         style="color:#000000;line-height:normal;-inkscape-font-specification:sans-serif;text-indent:0;text-align:start;text-decoration:none;text-decoration-line:none;text-transform:none;fill:#999999;marker:none"
         d="m 8.5605469,0.08398437 c -1.888,0.001 -3.4927657,1.16512503 -4.2597657,2.82812503 L 4.2460938,3.0253906 4.125,3.0351562 C 2.38,3.1621562 1,4.6718125 1,6.5078125 1,8.4268125 2.5004219,10 4.3574219,10 H 12.482422 C 13.874422,10 15,8.8177656 15,7.3847656 15,6.2977656 14.346875,5.3851875 13.421875,4.9921875 L 13.300781,4.9414062 13.291016,4.8125 C 13.172016,2.1945 11.1155,0.08598437 8.5625,0.08398437 Z" />
      <path
         id="rect3"
         style="opacity:1;fill:#ffffff;stroke:none;stroke-width:2.85058;stroke-linecap:round;stroke-linejoin:round;paint-order:stroke fill markers"
         d="m 7.9679967,11.5 c -0.277,0 -0.5,0.223 -0.5,0.5 v 0.882812 l -0.765625,-0.441406 c -0.239889,-0.1385 -0.5450937,-0.0563 -0.6835937,0.183594 -0.1385,0.239889 -0.056295,0.545093 0.1835937,0.683594 L 6.9679967,13.75 6.2023717,14.191406 c -0.239889,0.1385 -0.3220937,0.443705 -0.1835937,0.683594 0.1385,0.239889 0.4437047,0.322094 0.6835937,0.183594 l 0.765625,-0.441407 V 15.5 c 0,0.277 0.223,0.5 0.5,0.5 0.277,0 0.5,-0.223 0.5,-0.5 v -0.882813 l 0.765625,0.441407 c 0.2398891,0.138499 0.5431407,0.0563 0.6816406,-0.183594 0.1384997,-0.239889 0.058248,-0.545094 -0.1816406,-0.683594 L 8.9679967,13.75 9.7336217,13.308594 C 9.9735108,13.170094 10.053762,12.864889 9.9152623,12.625 9.7767623,12.385111 9.4735108,12.302906 9.2336217,12.441406 l -0.765625,0.441406 V 12 c 0,-0.277 -0.223,-0.5 -0.5,-0.5 z" />
      <path
         id="rect6"
         style="opacity:1;fill:#ffffff;stroke:none;stroke-width:1.90039;stroke-linecap:round;stroke-linejoin:round;paint-order:stroke fill markers"
         d="m 3.595467,11 c -0.1846666,0 -0.3339844,0.149318 -0.3339844,0.333984 v 0.587891 L 2.751717,11.626953 C 2.591791,11.534623 2.3870191,11.590073 2.2946858,11.75 c -0.092333,0.159926 -0.036879,0.362745 0.1230468,0.455078 L 2.9294514,12.5 2.4177326,12.794922 c -0.159926,0.09233 -0.2153802,0.295152 -0.1230468,0.455078 0.092333,0.159926 0.2971052,0.213427 0.4570312,0.121094 l 0.5097656,-0.294922 v 0.589844 C 3.2614827,13.850682 3.4108004,14 3.595467,14 3.7801337,14 3.9274983,13.850682 3.9274983,13.666016 v -0.589844 l 0.5117187,0.294922 c 0.1599261,0.09233 0.3627448,0.03883 0.4550782,-0.121094 0.092333,-0.159926 0.036879,-0.362745 -0.1230469,-0.455078 L 4.2614826,12.5 4.7712483,12.205078 C 4.9311743,12.112748 4.9866285,11.909926 4.8942952,11.75 4.8019622,11.590074 4.5991431,11.53462 4.439217,11.626953 L 3.9274983,11.921875 V 11.333984 C 3.9274983,11.149318 3.7801337,11 3.595467,11 Z" />
      <path
         id="rect9"
         style="opacity:1;fill:#ffffff;stroke:none;stroke-width:2.21712;stroke-linecap:round;stroke-linejoin:round;paint-order:stroke fill markers"
         d="m 12.568006,10.5 c -0.215445,0 -0.388672,0.173228 -0.388672,0.388672 v 0.6875 l -0.595703,-0.34375 c -0.18658,-0.107722 -0.423528,-0.044 -0.53125,0.142578 -0.107722,0.186581 -0.044,0.423528 0.142578,0.53125 l 0.595703,0.34375 -0.595703,0.34375 c -0.18658,0.107722 -0.2503,0.34467 -0.142578,0.53125 0.107722,0.186581 0.34467,0.250301 0.53125,0.142578 l 0.595703,-0.34375 v 0.6875 c 0,0.215445 0.173227,0.388672 0.388672,0.388672 0.215444,0 0.388672,-0.173227 0.388672,-0.388672 v -0.6875 l 0.595703,0.34375 c 0.18658,0.107723 0.423528,0.044 0.53125,-0.142578 0.107722,-0.18658 0.044,-0.423528 -0.142578,-0.53125 L 13.34535,12.25 13.941053,11.90625 c 0.18658,-0.107722 0.2503,-0.344669 0.142578,-0.53125 -0.107722,-0.18658 -0.34467,-0.2503 -0.53125,-0.142578 l -0.595703,0.34375 v -0.6875 C 12.956678,10.673228 12.78345,10.5 12.568006,10.5 Z" />
    </g>
  </g>
</svg>
