<?xml version="1.0" encoding="UTF-8" standalone="no"?>
<svg
   xmlns:dc="http://purl.org/dc/elements/1.1/"
   xmlns:cc="http://creativecommons.org/ns#"
   xmlns:rdf="http://www.w3.org/1999/02/22-rdf-syntax-ns#"
   xmlns:svg="http://www.w3.org/2000/svg"
   xmlns="http://www.w3.org/2000/svg"
   xmlns:sodipodi="http://sodipodi.sourceforge.net/DTD/sodipodi-0.dtd"
   xmlns:inkscape="http://www.inkscape.org/namespaces/inkscape"
   height="16"
   width="16"
   version="1.1"
   id="svg8"
   sodipodi:docname="weather-showers-symbolic.symbolic.svg"
   inkscape:version="1.0.1 (3bc2e813f5, 2020-09-07)">
  <metadata
     id="metadata14">
    <rdf:RDF>
      <cc:Work
         rdf:about="">
        <dc:format>image/svg+xml</dc:format>
        <dc:type
           rdf:resource="http://purl.org/dc/dcmitype/StillImage" />
        <dc:title />
      </cc:Work>
    </rdf:RDF>
  </metadata>
  <defs
     id="defs12" />
  <sodipodi:namedview
     pagecolor="#333333"
     bordercolor="#666666"
     borderopacity="1"
     objecttolerance="10"
     gridtolerance="10"
     guidetolerance="10"
     inkscape:pageopacity="0"
     inkscape:pageshadow="2"
     inkscape:window-width="1836"
     inkscape:window-height="1016"
     id="namedview10"
     showgrid="true"
     inkscape:zoom="22.627417"
     inkscape:cx="5.1214454"
     inkscape:cy="10.792537"
     inkscape:window-x="2004"
     inkscape:window-y="27"
     inkscape:window-maximized="1"
     inkscape:current-layer="svg8"
     inkscape:document-rotation="0" />
  <path
     d="M 8.56,0.084 C 6.672,0.085 5.068,1.249 4.301,2.912 L 4.246,3.025 4.125,3.035 C 2.38,3.162 1,4.672 1,6.508 1,8.427 2.5,10 4.357,10 h 8.125 C 13.874,10 15,8.818 15,7.385 c 0,-1.087 -0.653,-2 -1.578,-2.393 l -0.121,-0.05 -0.01,-0.13 C 13.172,2.194 11.115,0.086 8.562,0.084 Z m 0,1 c 2.004,10e-4 3.635,1.652 3.731,3.773 v 0.016 l 0.06,0.748 0.677,0.291 v 0.002 c 0.57,0.242 0.973,0.785 0.973,1.47 C 14.001,8.294 13.309,9 12.483,9 H 4.36 C 3.069,9 2,7.905 2,6.508 2,5.174 2.988,4.12 4.198,4.031 L 4.903,3.982 5.208,3.334 V 3.332 C 5.826,1.989 7.08,1.085 8.559,1.084 Z"
     font-family="sans-serif"
     font-weight="400"
     overflow="visible"
     style="color:#000000;line-height:normal;-inkscape-font-specification:sans-serif;text-indent:0;text-align:start;text-decoration:none;text-decoration-line:none;text-transform:none;fill:#000000;marker:none"
     id="path2" />
  <path
     id="path2-36"
     style="fill:#000000;stroke-width:0.368598;marker:none"
     d="m 4.5241199,10.188032 c -0.2994739,0.607372 -0.5064349,1.28449 -0.5204356,1.331292 0,0.0052 -0.00576,0.01066 -0.00576,0.01656 a 0.5528278,0.55296513 0 0 0 0.5247543,0.726487 l -7.26e-4,-7.26e-4 a 0.5528278,0.55296513 0 0 0 0.5254752,-0.725766 c 0,0 -0.2034117,-0.684294 -0.5233148,-1.347852 z" />
  <path
     id="path830-7"
     style="fill:#000000;stroke-width:0.518585;marker:none"
     d="m 11.45269,10.188 c -0.421386,0.854412 -0.712599,1.806941 -0.732298,1.87278 0,0.0078 -0.0081,0.015 -0.0081,0.02329 a 0.77787716,0.77787716 0 0 0 0.738378,1.021977 l -0.001,-9.85e-4 a 0.77787716,0.77787716 0 0 0 0.739388,-1.020964 c 0,0 -0.286218,-0.962623 -0.73635,-1.896076 z" />
  <path
     id="path840-5"
     style="fill:#000000;stroke-width:0.518585;marker:none"
     d="m 8.0023607,10.18823 c -0.7032015,1.425071 -1.1888395,3.014761 -1.2215104,3.123663 -0.00311,0.01297 -0.011141,0.02654 -0.011141,0.0395 a 1.2974991,1.2974991 0 0 0 1.2316383,1.703633 1.2974991,1.2974991 0 0 0 1.2286004,-1.703632 c 0,0 -0.4766764,-1.605385 -1.2275871,-3.161139 z" />
</svg>
