<?xml version="1.0" encoding="UTF-8" standalone="no"?>
<svg
   height="16"
   width="16"
   version="1.1"
   id="svg6"
   sodipodi:docname="weather-severe-alert.svg"
   inkscape:version="1.4.2 (ebf0e940d0, 2025-05-08)"
   xmlns:inkscape="http://www.inkscape.org/namespaces/inkscape"
   xmlns:sodipodi="http://sodipodi.sourceforge.net/DTD/sodipodi-0.dtd"
   xmlns="http://www.w3.org/2000/svg"
   xmlns:svg="http://www.w3.org/2000/svg">
  <defs
     id="defs10" />
  <sodipodi:namedview
     pagecolor="#333333"
     bordercolor="#666666"
     borderopacity="1"
     objecttolerance="10"
     gridtolerance="10"
     guidetolerance="10"
     inkscape:pageopacity="0"
     inkscape:pageshadow="2"
     inkscape:window-width="1920"
     inkscape:window-height="1011"
     id="namedview8"
     showgrid="false"
     inkscape:zoom="32"
     inkscape:cx="6.703125"
     inkscape:cy="9.84375"
     inkscape:window-x="0"
     inkscape:window-y="0"
     inkscape:window-maximized="1"
     inkscape:current-layer="g834"
     inkscape:document-rotation="0"
     inkscape:showpageshadow="2"
     inkscape:pagecheckerboard="0"
     inkscape:deskcolor="#d1d1d1" />
  <g
     inkscape:groupmode="layer"
     id="layer1"
     inkscape:label="Icon">
    <g
       id="g834">
      <path
         id="path2"
         style="line-height:normal;-inkscape-font-specification:sans-serif;text-indent:0;text-align:start;text-decoration:none;text-decoration-line:none;text-transform:none;fill:#666666;marker:none"
         d="m 8.641625,0.66796875 c -2.158,0.002 -3.9931406,1.33142185 -4.8691406,3.23242185 l -0.060547,0.1289063 -0.1386719,0.00977 C 1.5792658,4.1830537 0.001,5.9098125 0.001,8.0078125 0.001,10.200813 1.7168906,12 3.8388906,12 c 3.0944011,0 6.1888024,0 9.2832034,0 1.591,0 2.876953,-1.350281 2.876953,-2.9882812 0.0042,-1.1917911 -0.707206,-2.2697051 -1.804688,-2.734375 L 14.057641,6.21875 14.047875,6.0703125 c -0.136,-2.993 -2.486297,-5.40034375 -5.4042969,-5.40234375 z"
         sodipodi:nodetypes="ccccsccccccsc" />
      <path
         style="font-weight:bold;font-size:6px;line-height:1.25;font-family:Cantarell;-inkscape-font-specification:'Cantarell Bold';white-space:pre;fill:#da2214;stroke-width:2.36742"
         d="M 7.2978636,12.534091 H 8.7183181 L 8.9171818,6 H 7.099 Z M 8.0080909,16 c 0.7244318,0 1.2073863,-0.511364 1.2073863,-1.207387 0,-0.724432 -0.4829545,-1.235795 -1.2073863,-1.235795 -0.7386364,0 -1.2215909,0.511363 -1.2215909,1.235795 C 6.7865,15.488636 7.2694545,16 8.0080909,16 Z"
         id="text1"
         aria-label="!" />
    </g>
  </g>
</svg>
