<?xml version="1.0" encoding="UTF-8" standalone="no"?>
<svg
   xmlns:dc="http://purl.org/dc/elements/1.1/"
   xmlns:cc="http://creativecommons.org/ns#"
   xmlns:rdf="http://www.w3.org/1999/02/22-rdf-syntax-ns#"
   xmlns:svg="http://www.w3.org/2000/svg"
   xmlns="http://www.w3.org/2000/svg"
   xmlns:sodipodi="http://sodipodi.sourceforge.net/DTD/sodipodi-0.dtd"
   xmlns:inkscape="http://www.inkscape.org/namespaces/inkscape"
   height="16"
   width="16"
   version="1.1"
   id="svg8"
   sodipodi:docname="weather-showers.svg"
   inkscape:version="1.0.1 (3bc2e813f5, 2020-09-07)">
  <metadata
     id="metadata14">
    <rdf:RDF>
      <cc:Work
         rdf:about="">
        <dc:format>image/svg+xml</dc:format>
        <dc:type
           rdf:resource="http://purl.org/dc/dcmitype/StillImage" />
        <dc:title></dc:title>
      </cc:Work>
    </rdf:RDF>
  </metadata>
  <defs
     id="defs12" />
  <sodipodi:namedview
     pagecolor="#333333"
     bordercolor="#666666"
     borderopacity="1"
     objecttolerance="10"
     gridtolerance="10"
     guidetolerance="10"
     inkscape:pageopacity="0"
     inkscape:pageshadow="2"
     inkscape:window-width="1836"
     inkscape:window-height="1016"
     id="namedview10"
     showgrid="false"
     inkscape:zoom="22.627417"
     inkscape:cx="8.6044468"
     inkscape:cy="9.2326002"
     inkscape:window-x="2004"
     inkscape:window-y="27"
     inkscape:window-maximized="1"
     inkscape:current-layer="svg8"
     inkscape:document-rotation="0" />
  <g
     id="g843">
    <path
       d="M 8.56,0.084 C 6.672,0.085 5.068,1.249 4.301,2.912 L 4.246,3.025 4.125,3.035 C 2.38,3.162 1,4.672 1,6.508 1,8.427 2.5,10 4.357,10 h 8.125 C 13.874,10 15,8.818 15,7.385 c 0,-1.087 -0.653,-2 -1.578,-2.393 l -0.121,-0.05 -0.01,-0.13 C 13.172,2.194 11.115,0.086 8.562,0.084 Z m 0,1 c 2.004,10e-4 3.635,1.652 3.731,3.773 v 0.016 l 0.06,0.748 0.677,0.291 v 0.002 c 0.57,0.242 0.973,0.785 0.973,1.47 C 14.001,8.294 13.309,9 12.483,9 H 4.36 C 3.069,9 2,7.905 2,6.508 2,5.174 2.988,4.12 4.198,4.031 L 4.903,3.982 5.208,3.334 V 3.332 C 5.826,1.989 7.08,1.085 8.559,1.084 Z"
       font-family="sans-serif"
       font-weight="400"
       overflow="visible"
       style="color:#000000;line-height:normal;-inkscape-font-specification:sans-serif;text-indent:0;text-align:start;text-decoration:none;text-decoration-line:none;text-transform:none;fill:#ffffff;marker:none"
       id="path2" />
    <g
       id="g836">
      <path
         id="path2-3"
         style="fill:#ffffff;stroke-width:0.453987;marker:none"
         d="m 4.4455221,10.188139 c -0.3688503,0.748074 -0.6237553,1.582053 -0.640999,1.639698 0,0.0063 -0.00713,0.01314 -0.00713,0.02039 a 0.68089532,0.68106447 0 0 0 0.6463188,0.894784 l -8.889e-4,-8.89e-4 a 0.68089532,0.68106447 0 0 0 0.6472077,-0.893895 c 0,0 -0.2505342,-0.842817 -0.6445455,-1.660094 z" />
      <path
         id="path830"
         style="fill:#ffffff;stroke-width:0.613121;marker:none"
         d="m 11.806849,10.188188 c -0.498203,1.010171 -0.842504,2.136343 -0.865794,2.214184 0,0.0092 -0.0096,0.01773 -0.0096,0.02754 a 0.91968264,0.91968264 0 0 0 0.872983,1.208281 l -0.0012,-0.0012 a 0.91968264,0.91968264 0 0 0 0.874177,-1.207083 c 0,0 -0.338395,-1.138107 -0.870584,-2.241726 z" />
      <path
         id="path840"
         style="fill:#ffffff;stroke-width:0.51864;marker:none"
         d="m 8.0025279,10.188 c -0.7032975,1.425177 -1.1890039,3.014983 -1.2216788,3.123894 -0.00306,0.01297 -0.01114,0.02654 -0.01114,0.0395 a 1.2976787,1.2975954 0 0 0 1.2318091,1.703758 1.2976787,1.2975954 0 0 0 1.2287701,-1.703759 c 0,0 -0.4767424,-1.605503 -1.2277576,-3.161373 z" />
    </g>
  </g>
</svg>
