<?xml version="1.0" encoding="UTF-8" standalone="no"?>
<svg
   height="16"
   width="16"
   version="1.1"
   id="svg8"
   sodipodi:docname="weather-overcast.svg"
   xmlns:inkscape="http://www.inkscape.org/namespaces/inkscape"
   xmlns:sodipodi="http://sodipodi.sourceforge.net/DTD/sodipodi-0.dtd"
   xmlns="http://www.w3.org/2000/svg"
   xmlns:svg="http://www.w3.org/2000/svg">
  <defs
     id="defs12" />
  <sodipodi:namedview
     pagecolor="#333333"
     bordercolor="#666666"
     borderopacity="1"
     objecttolerance="10"
     gridtolerance="10"
     guidetolerance="10"
     inkscape:pageopacity="0"
     inkscape:pageshadow="2"
     inkscape:window-width="1836"
     inkscape:window-height="1016"
     id="namedview10"
     showgrid="false"
     inkscape:zoom="22.627417"
     inkscape:cx="7.5237891"
     inkscape:cy="2.3859087"
     inkscape:window-x="2004"
     inkscape:window-y="27"
     inkscape:window-maximized="1"
     inkscape:current-layer="layer1"
     inkscape:document-rotation="0"
     inkscape:showpageshadow="2"
     inkscape:pagecheckerboard="0"
     inkscape:deskcolor="#d1d1d1" />
  <g
     inkscape:groupmode="layer"
     id="layer1"
     inkscape:label="Icon"
     style="display:inline">
    <g
       id="g836">
      <path
         id="path4"
         style="fill:#cccccc"
         d="M 9.4980469,1 A 3.5,3.5 0 0 0 6.3339844,3.0175781 3.5,3.5 0 0 0 2.53125,6.0585938 2,2 0 0 0 3.0019531,10 h 0.1113281 0.15625 8.7285158 0.5 a 2.5,2.5 0 0 0 0.453125,-4.9570312 c 0.03,-0.18 0.04488,-0.3609688 0.04687,-0.5429688 A 3.5,3.5 0 0 0 9.5,1 Z" />
      <path
         id="path875"
         style="line-height:normal;-inkscape-font-specification:sans-serif;text-indent:0;text-align:start;text-decoration:none;text-decoration-line:none;text-transform:none;display:inline;fill:#b3b3b3;stroke-width:0.994192;marker:none"
         d="M 10.398438,7 C 9.049438,7.00198 7.9044219,7.8218996 7.3574219,8.996139 L 7.3183589,9.07529 7.2324219,9.08301 C 5.9854219,9.1719691 5,10.237945 5,11.534748 5,12.88888 6.0723906,14 7.4003906,14 H 13.199219 C 14.194219,14 15,13.166578 15,12.154439 a 1.85,1.8285714 0 0 0 -1.130859,-1.689188 l -0.08594,-0.03668 -0.0098,-0.09073 C 13.689437,8.4894981 12.223391,7.0019767 10.400391,7 Z" />
    </g>
  </g>
</svg>
