<?xml version="1.0" encoding="UTF-8" standalone="no"?>
<svg
   xmlns:dc="http://purl.org/dc/elements/1.1/"
   xmlns:cc="http://creativecommons.org/ns#"
   xmlns:rdf="http://www.w3.org/1999/02/22-rdf-syntax-ns#"
   xmlns:svg="http://www.w3.org/2000/svg"
   xmlns="http://www.w3.org/2000/svg"
   xmlns:sodipodi="http://sodipodi.sourceforge.net/DTD/sodipodi-0.dtd"
   xmlns:inkscape="http://www.inkscape.org/namespaces/inkscape"
   height="16"
   width="16"
   version="1.1"
   id="svg8"
   sodipodi:docname="weather-snow-symbolic.symbolic.svg"
   inkscape:version="1.0.1 (3bc2e813f5, 2020-09-07)">
  <metadata
     id="metadata14">
    <rdf:RDF>
      <cc:Work
         rdf:about="">
        <dc:format>image/svg+xml</dc:format>
        <dc:type
           rdf:resource="http://purl.org/dc/dcmitype/StillImage" />
        <dc:title />
      </cc:Work>
    </rdf:RDF>
  </metadata>
  <defs
     id="defs12" />
  <sodipodi:namedview
     pagecolor="#333333"
     bordercolor="#666666"
     borderopacity="1"
     objecttolerance="10"
     gridtolerance="10"
     guidetolerance="10"
     inkscape:pageopacity="0"
     inkscape:pageshadow="2"
     inkscape:window-width="1836"
     inkscape:window-height="1016"
     id="namedview10"
     showgrid="false"
     inkscape:zoom="32"
     inkscape:cx="6.7300885"
     inkscape:cy="10.743996"
     inkscape:window-x="2004"
     inkscape:window-y="27"
     inkscape:window-maximized="1"
     inkscape:current-layer="svg8"
     inkscape:document-rotation="0" />
  <g
     id="g833"
     style="fill:#000000">
    <path
       d="M 8.56,0.084 C 6.672,0.085 5.068,1.249 4.301,2.912 L 4.246,3.025 4.125,3.035 C 2.38,3.162 1,4.672 1,6.508 1,8.427 2.5,10 4.357,10 h 8.125 C 13.874,10 15,8.818 15,7.385 c 0,-1.087 -0.653,-2 -1.578,-2.393 l -0.121,-0.05 -0.01,-0.13 C 13.172,2.194 11.115,0.086 8.562,0.084 Z m 0,1 c 2.004,10e-4 3.635,1.652 3.731,3.773 v 0.016 l 0.06,0.748 0.677,0.291 v 0.002 c 0.57,0.242 0.973,0.785 0.973,1.47 C 14.001,8.294 13.309,9 12.483,9 H 4.36 C 3.069,9 2,7.905 2,6.508 2,5.174 2.988,4.12 4.198,4.031 L 4.903,3.982 5.208,3.334 V 3.332 C 5.826,1.989 7.08,1.085 8.559,1.084 Z"
       font-family="sans-serif"
       font-weight="400"
       overflow="visible"
       style="color:#000000;line-height:normal;-inkscape-font-specification:sans-serif;text-indent:0;text-align:start;text-decoration:none;text-decoration-line:none;text-transform:none;fill:#000000;marker:none"
       id="path2" />
    <path
       d="m 8.4679967,11.5 -1,0.0042 v 1.4298 l -1.155,-0.667 -0.5,0.866 1.155,0.667 -1.155,0.667 0.5,0.866 1.155,-0.667 V 16 h 1 v -1.334 l 1.155,0.667 0.5000003,-0.866 -1.1550003,-0.667 1.1550003,-0.667 -0.5000003,-0.866 -1.155,0.667 z m -4.516,-0.599 -0.6918567,0.0094 0.00386,0.978616 -0.796,-0.46 -0.344,0.597 0.795,0.46 -0.795,0.458 0.344,0.597 0.796,-0.46 V 14 h 0.688 v -0.919 l 0.796,0.46 0.344,-0.597 -0.795,-0.459 0.795,-0.46 -0.344,-0.596 -0.796,0.46 z m 9.0160003,-0.458 -0.79,0.0014 v 1.1316 l -0.914,-0.527 -0.395,0.685 0.913,0.527 -0.913,0.527 0.395,0.685 0.914,-0.528 V 14 h 0.79 v -1.055 l 0.913,0.528 0.396,-0.685 -0.914,-0.527 0.914,-0.527 -0.396,-0.685 -0.913,0.527 z"
       overflow="visible"
       style="color:#000000;fill:#000000;marker:none"
       id="path834"
       sodipodi:nodetypes="ccccccccccccccccccccccccccccccccccccccccccccccccccccccccc" />
  </g>
</svg>
