<?xml version="1.0" encoding="UTF-8" standalone="no"?>
<svg
   xmlns:dc="http://purl.org/dc/elements/1.1/"
   xmlns:cc="http://creativecommons.org/ns#"
   xmlns:rdf="http://www.w3.org/1999/02/22-rdf-syntax-ns#"
   xmlns:svg="http://www.w3.org/2000/svg"
   xmlns="http://www.w3.org/2000/svg"
   xmlns:sodipodi="http://sodipodi.sourceforge.net/DTD/sodipodi-0.dtd"
   xmlns:inkscape="http://www.inkscape.org/namespaces/inkscape"
   height="16"
   width="16"
   version="1.1"
   id="svg4"
   sodipodi:docname="weather-showers-scattered.svg"
   inkscape:version="1.0.1 (3bc2e813f5, 2020-09-07)">
  <metadata
     id="metadata10">
    <rdf:RDF>
      <cc:Work
         rdf:about="">
        <dc:format>image/svg+xml</dc:format>
        <dc:type
           rdf:resource="http://purl.org/dc/dcmitype/StillImage" />
        <dc:title></dc:title>
      </cc:Work>
    </rdf:RDF>
  </metadata>
  <defs
     id="defs8" />
  <sodipodi:namedview
     pagecolor="#333333"
     bordercolor="#666666"
     borderopacity="1"
     objecttolerance="10"
     gridtolerance="10"
     guidetolerance="10"
     inkscape:pageopacity="0"
     inkscape:pageshadow="2"
     inkscape:window-width="1836"
     inkscape:window-height="1016"
     id="namedview6"
     showgrid="false"
     inkscape:zoom="38.095378"
     inkscape:cx="10.070691"
     inkscape:cy="7.5756555"
     inkscape:window-x="2004"
     inkscape:window-y="27"
     inkscape:window-maximized="1"
     inkscape:current-layer="svg4"
     inkscape:document-rotation="0" />
  <g
     id="g835">
    <path
       id="path2"
       style="fill:#ffffff;stroke-width:0.740451;marker:none"
       d="m 2.8031309,4.103 c -0.601593,1.2201075 -1.0173433,2.5803252 -1.0454678,2.6743435 0,0.010368 -0.011568,0.021418 -0.011568,0.033266 A 1.1105385,1.1108144 0 0 0 2.8002388,8.27 l -0.00145,-0.00145 a 1.1105385,1.1108144 0 0 0 1.055594,-1.4579399 c 0,0 -0.4086203,-1.3746328 -1.0512519,-2.7076101 z" />
    <path
       id="path830"
       style="marker:none;fill:#ffffff"
       d="M 13.503906 3.3730469 C 12.691337 5.020632 12.129784 6.8574165 12.091797 6.984375 C 12.091797 6.999375 12.076172 7.0132969 12.076172 7.0292969 A 1.5 1.5 0 0 0 13.5 9 L 13.498047 8.9980469 A 1.5 1.5 0 0 0 14.923828 7.0292969 C 14.923828 7.0292969 14.371906 5.1730469 13.503906 3.3730469 z " />
    <path
       id="path840"
       style="marker:none;fill:#ffffff"
       d="M 8.0078125 4.6152344 C 6.6518125 7.3632344 5.7153437 10.428672 5.6523438 10.638672 C 5.6463437 10.663672 5.6308594 10.689844 5.6308594 10.714844 A 2.502 2.502 0 0 0 8.0058594 14 A 2.502 2.502 0 0 0 10.375 10.714844 C 10.375 10.714844 9.4558125 7.6191406 8.0078125 4.6191406 L 8.0078125 4.6152344 z " />
  </g>
</svg>
