<?xml version="1.0" encoding="UTF-8" standalone="no"?>
<svg
   height="16"
   width="16"
   version="1.1"
   id="svg8"
   sodipodi:docname="weather-storm.svg"
   xmlns:inkscape="http://www.inkscape.org/namespaces/inkscape"
   xmlns:sodipodi="http://sodipodi.sourceforge.net/DTD/sodipodi-0.dtd"
   xmlns="http://www.w3.org/2000/svg"
   xmlns:svg="http://www.w3.org/2000/svg">
  <defs
     id="defs12" />
  <sodipodi:namedview
     pagecolor="#333333"
     bordercolor="#666666"
     borderopacity="1"
     objecttolerance="10"
     gridtolerance="10"
     guidetolerance="10"
     inkscape:pageopacity="0"
     inkscape:pageshadow="2"
     inkscape:window-width="1836"
     inkscape:window-height="1016"
     id="namedview10"
     showgrid="false"
     inkscape:zoom="19.047689"
     inkscape:cx="7.2087872"
     inkscape:cy="4.6148791"
     inkscape:window-x="2004"
     inkscape:window-y="27"
     inkscape:window-maximized="1"
     inkscape:current-layer="layer1"
     inkscape:document-rotation="0"
     inkscape:showpageshadow="2"
     inkscape:pagecheckerboard="0"
     inkscape:deskcolor="#d1d1d1" />
  <g
     inkscape:groupmode="layer"
     id="layer1"
     inkscape:label="Icon">
    <g
       id="g846">
      <path
         id="path2"
         style="line-height:normal;-inkscape-font-specification:sans-serif;text-indent:0;text-align:start;text-decoration:none;text-decoration-line:none;text-transform:none;fill:#999999;marker:none"
         d="m 8.5605469,0.08398437 c -1.888,0.001 -3.4927657,1.16512503 -4.2597657,2.82812503 L 4.2460938,3.0253906 4.125,3.0351562 C 2.38,3.1621562 1,4.6718125 1,6.5078125 1,8.4268125 2.5004219,10 4.3574219,10 H 12.482422 C 13.874422,10 15,8.8177656 15,7.3847656 15,6.2977656 14.346875,5.3851875 13.421875,4.9921875 L 13.300781,4.9414062 13.291016,4.8125 C 13.172016,2.1945 11.1155,0.08598437 8.5625,0.08398437 Z" />
      <g
         id="g841"
         style="fill:#ffff00">
        <path
           d="m 11.860649,10.775 -0.13,1.75 h 0.8065 l -0.19,1.75 1.3835,-2.5 h -0.955 l 0.162,-1 z"
           id="path4"
           style="fill:#ffff00;stroke-width:0.5" />
        <path
           d="m 3.7637799,11.512 -0.0975,1.312501 h 0.604874 L 4.1286549,14.137 5.1662799,12.262001 h -0.71625 L 4.5715289,11.512 Z"
           id="path834"
           style="fill:#ffff00;stroke-width:0.375" />
        <path
           d="m 7.3950564,10 -0.195,2.625 H 8.4098063 L 8.1248064,15.25 10.200056,11.5 H 8.7675564 l 0.243,-1.5 z"
           id="path836"
           style="fill:#ffff00;stroke-width:0.75" />
      </g>
    </g>
  </g>
</svg>
