<?xml version="1.0" encoding="UTF-8" standalone="no"?>
<svg
   height="16"
   width="16"
   version="1.1"
   id="svg8"
   sodipodi:docname="weather-snow.svg"
   xmlns:inkscape="http://www.inkscape.org/namespaces/inkscape"
   xmlns:sodipodi="http://sodipodi.sourceforge.net/DTD/sodipodi-0.dtd"
   xmlns="http://www.w3.org/2000/svg"
   xmlns:svg="http://www.w3.org/2000/svg">
  <defs
     id="defs12" />
  <sodipodi:namedview
     pagecolor="#333333"
     bordercolor="#666666"
     borderopacity="1"
     objecttolerance="10"
     gridtolerance="10"
     guidetolerance="10"
     inkscape:pageopacity="0"
     inkscape:pageshadow="2"
     inkscape:window-width="1836"
     inkscape:window-height="1016"
     id="namedview10"
     showgrid="false"
     inkscape:zoom="22.627417"
     inkscape:cx="9.466468"
     inkscape:cy="6.1688405"
     inkscape:window-x="2004"
     inkscape:window-y="27"
     inkscape:window-maximized="1"
     inkscape:current-layer="g837"
     inkscape:document-rotation="0"
     inkscape:showpageshadow="2"
     inkscape:pagecheckerboard="0"
     inkscape:deskcolor="#d1d1d1" />
  <g
     inkscape:groupmode="layer"
     id="layer1"
     inkscape:label="Icon">
    <g
       id="g837">
      <path
         id="path2"
         style="color:#000000;line-height:normal;-inkscape-font-specification:sans-serif;text-indent:0;text-align:start;text-decoration:none;text-decoration-line:none;text-transform:none;fill:#999999;marker:none"
         d="m 8.5605469,0.08398437 c -1.888,0.001 -3.4927657,1.16512503 -4.2597657,2.82812503 L 4.2460938,3.0253906 4.125,3.0351562 C 2.38,3.1621562 1,4.6718125 1,6.5078125 1,8.4268125 2.5004219,10 4.3574219,10 H 12.482422 C 13.874422,10 15,8.8177656 15,7.3847656 15,6.2977656 14.346875,5.3851875 13.421875,4.9921875 L 13.300781,4.9414062 13.291016,4.8125 C 13.172016,2.1945 11.1155,0.08598437 8.5625,0.08398437 Z" />
      <path
         d="m 8.4679967,11.5 -1,0.0042 v 1.4298 l -1.155,-0.667 -0.5,0.866 1.155,0.667 -1.155,0.667 0.5,0.866 1.155,-0.667 V 16 h 1 v -1.334 l 1.155,0.667 0.5000003,-0.866 -1.1550003,-0.667 1.1550003,-0.667 -0.5000003,-0.866 -1.155,0.667 z m -4.516,-0.599 -0.6918567,0.0094 0.00386,0.978616 -0.796,-0.46 -0.344,0.597 0.795,0.46 -0.795,0.458 0.344,0.597 0.796,-0.46 V 14 h 0.688 v -0.919 l 0.796,0.46 0.344,-0.597 -0.795,-0.459 0.795,-0.46 -0.344,-0.596 -0.796,0.46 z m 9.0160003,-0.458 -0.79,0.0014 v 1.1316 l -0.914,-0.527 -0.395,0.685 0.913,0.527 -0.913,0.527 0.395,0.685 0.914,-0.528 V 14 h 0.79 v -1.055 l 0.913,0.528 0.396,-0.685 -0.914,-0.527 0.914,-0.527 -0.396,-0.685 -0.913,0.527 z"
         overflow="visible"
         style="color:#000000;fill:#ffffff;marker:none"
         id="path834"
         sodipodi:nodetypes="ccccccccccccccccccccccccccccccccccccccccccccccccccccccccc" />
    </g>
  </g>
</svg>
