<?xml version="1.0" encoding="UTF-8" standalone="no"?>
<svg
   width="256"
   height="256"
   id="svg11300"
   sodipodi:version="0.32"
   sodipodi:docname="application-vnd.efi.iso.svg"
   version="1.0"
   style="display:inline;enable-background:new"
   inkscape:version="1.4.3 (0d15f75042, 2025-12-25)"
   xmlns:inkscape="http://www.inkscape.org/namespaces/inkscape"
   xmlns:sodipodi="http://sodipodi.sourceforge.net/DTD/sodipodi-0.dtd"
   xmlns="http://www.w3.org/2000/svg"
   xmlns:svg="http://www.w3.org/2000/svg">
  <sodipodi:namedview
     stroke="#ef2929"
     fill="#f57900"
     id="base"
     pagecolor="#cccccc"
     bordercolor="#666666"
     borderopacity="1"
     inkscape:pageopacity="0"
     inkscape:pageshadow="2"
     inkscape:zoom="1.972793"
     inkscape:cx="65.642974"
     inkscape:cy="151.30832"
     inkscape:current-layer="layer2"
     showgrid="false"
     inkscape:grid-bbox="true"
     inkscape:document-units="px"
     inkscape:showpageshadow="true"
     inkscape:window-width="1920"
     inkscape:window-height="1011"
     inkscape:window-x="0"
     inkscape:window-y="0"
     width="400px"
     height="300px"
     inkscape:snap-nodes="true"
     inkscape:snap-bbox="true"
     gridtolerance="10000"
     inkscape:object-nodes="true"
     inkscape:snap-grids="true"
     showguides="true"
     inkscape:guide-bbox="true"
     inkscape:window-maximized="1"
     inkscape:bbox-paths="true"
     inkscape:snap-bbox-midpoints="true"
     inkscape:snap-global="true"
     inkscape:object-paths="true"
     inkscape:snap-intersection-paths="true"
     inkscape:snap-smooth-nodes="true"
     inkscape:pagecheckerboard="false"
     showborder="true"
     inkscape:document-rotation="0"
     objecttolerance="20"
     inkscape:deskcolor="#d1d1d1" />
  <defs
     id="defs3" />
  <g
     style="display:inline"
     inkscape:groupmode="layer"
     inkscape:label="Icon"
     id="layer1">
    <g
       inkscape:groupmode="layer"
       id="layer4-6"
       inkscape:label="Shadow"
       style="display:inline;opacity:0.4;enable-background:new">
      <path
         id="rect3"
         style="display:inline;opacity:0.4;fill:#000000;stroke-width:6.64319;stroke-linecap:round;stroke-linejoin:round;paint-order:stroke markers fill;enable-background:new"
         d="m 40,128 v 97.37109 C 40,235.69114 48.308858,244 58.628906,244 H 197.37109 C 207.69114,244 216,235.69114 216,225.37109 V 128 Z" />
    </g>
    <g
       inkscape:groupmode="layer"
       id="layer2-7"
       inkscape:label="Background"
       style="display:inline;enable-background:new">
      <path
         id="rect2"
         style="display:inline;fill:#f9f9f9;stroke-width:6.64319;stroke-linecap:round;stroke-linejoin:round;paint-order:stroke markers fill;enable-background:new"
         d="M 58.628906,16 C 48.308869,16 40,24.308869 40,34.628906 V 221.37109 C 40,231.69113 48.308869,240 58.628906,240 H 197.37109 C 207.69113,240 216,231.69113 216,221.37109 V 34.628906 C 216,24.309027 207.69294,16 197.37305,16 Z"
         sodipodi:nodetypes="sssssssss" />
    </g>
    <g
       inkscape:groupmode="layer"
       id="layer2"
       inkscape:label="Graphic"
       style="display:inline;enable-background:new">
      <path
         id="path5"
         style="display:none;opacity:0.4;fill:#000000;fill-opacity:1;stroke:none;stroke-width:8.00005;stroke-linecap:round;stroke-linejoin:round;paint-order:stroke fill markers;enable-background:new"
         d="M 128,70.999999 A 60.999999,60.999999 0 0 0 67.000002,132 60.999999,60.999999 0 0 0 128,193 60.999999,60.999999 0 0 0 189,132 60.999999,60.999999 0 0 0 128,70.999999 Z m -9.8e-4,44.733341 A 16.266665,16.266665 0 0 1 144.26567,132 16.266665,16.266665 0 0 1 127.99902,148.26667 16.266665,16.266665 0 0 1 111.73235,132 16.266665,16.266665 0 0 1 127.99902,115.73334 Z" />
      <g
         id="g8"
         style="display:inline;stroke-width:1.96721;enable-background:new"
         transform="matrix(1.9212598,0,0,1.9212598,-186.92964,-214.35334)">
        <path
           id="path6"
           style="fill:#b3b3b3;fill-opacity:1;stroke:none;stroke-width:4.16396;stroke-linecap:round;stroke-linejoin:round;paint-order:stroke fill markers"
           d="m 163.9183,146.44211 a 31.75,31.75 0 0 0 -31.75,31.75 31.75,31.75 0 0 0 31.75,31.75 31.75,31.75 0 0 0 31.75,-31.75 31.75,31.75 0 0 0 -31.75,-31.75 z m -5.1e-4,23.28334 a 8.4666662,8.4666662 0 0 1 8.46666,8.46666 8.4666662,8.4666662 0 0 1 -8.46666,8.46667 8.4666662,8.4666662 0 0 1 -8.46667,-8.46667 8.4666662,8.4666662 0 0 1 8.46667,-8.46666 z" />
        <path
           id="path7"
           style="fill:#e6e6e6;fill-opacity:1;stroke:none;stroke-width:4.16396;stroke-linecap:round;stroke-linejoin:round;paint-order:stroke fill markers"
           d="m 163.9183,150.67545 a 27.516666,27.516666 0 0 0 -27.51667,27.51666 27.516666,27.516666 0 0 0 27.51667,27.51667 27.516666,27.516666 0 0 0 27.51666,-27.51667 27.516666,27.516666 0 0 0 -27.51666,-27.51666 z m 0,14.81666 a 12.7,12.7 0 0 1 12.7,12.7 12.7,12.7 0 0 1 -12.7,12.7 12.7,12.7 0 0 1 -12.7,-12.7 12.7,12.7 0 0 1 12.7,-12.7 z" />
      </g>
      <path
         style="display:none;opacity:0.1;fill:#ffffff;fill-opacity:1;stroke:none;stroke-width:8.00005;stroke-linecap:round;stroke-linejoin:round;paint-order:stroke fill markers;enable-background:new"
         d="m 128,67 a 60.999999,60.999999 0 0 0 -61,61 60.999999,60.999999 0 0 0 0.06641,1 A 60.999999,60.999999 0 0 1 128,69 60.999999,60.999999 0 0 1 188.93359,129 60.999999,60.999999 0 0 0 189,128 60.999999,60.999999 0 0 0 128,67 Z"
         id="path10" />
      <path
         id="rect8"
         style="display:inline;opacity:0.25;fill:#ffffff;fill-opacity:1;stroke:none;stroke-width:16;stroke-linecap:round;stroke-linejoin:round;stroke-dasharray:none;paint-order:stroke fill markers;enable-background:new"
         d="M 128.00001,75.133337 A 52.866667,52.866666 0 0 0 75.133338,128 h 28.466672 a 24.400001,24.4 0 0 1 24.4,-24.4 z M 152.40001,128 a 24.400001,24.4 0 0 1 -24.4,24.4 v 28.46667 A 52.866667,52.866666 0 0 0 180.86668,128 Z" />
      <path
         id="path11"
         style="display:inline;opacity:0.8;fill:#ffffff;fill-opacity:1;stroke:none;stroke-width:16;stroke-linecap:round;stroke-linejoin:round;stroke-dasharray:none;paint-order:stroke fill markers;enable-background:new"
         d="m 98.741058,83.980522 a 52.866667,52.866666 0 0 0 -0.0635,0.03573 52.866667,52.866666 0 0 0 -2.85044,2.17531 52.866667,52.866666 0 0 0 -2.63995,2.028369 52.866667,52.866666 0 0 0 -2.48905,2.478125 52.866667,52.866666 0 0 0 -2.40763,2.409619 52.866667,52.866666 0 0 0 -2.07702,2.693572 52.866667,52.866666 0 0 0 -2.13858,2.788883 52.866667,52.866666 0 0 0 -0.0367,0.06354 l 23.668272,15.79904 a 24.400001,24.4 0 0 1 1.95689,-2.55061 24.400001,24.4 0 0 1 4.83016,-4.22254 z m 49.552572,57.566768 a 24.400001,24.4 0 0 1 -1.95689,2.5506 24.400001,24.4 0 0 1 -4.83016,4.22254 l 15.75238,23.69905 a 52.866667,52.866666 0 0 0 0.0635,-0.0357 52.866667,52.866666 0 0 0 2.85044,-2.17531 52.866667,52.866666 0 0 0 2.63995,-2.02836 52.866667,52.866666 0 0 0 2.48905,-2.47813 52.866667,52.866666 0 0 0 2.40763,-2.40962 52.866667,52.866666 0 0 0 2.07702,-2.69357 52.866667,52.866666 0 0 0 2.13858,-2.78888 52.866667,52.866666 0 0 0 0.0367,-0.0635 z" />
    </g>
    <g
       inkscape:groupmode="layer"
       id="layer3-3"
       inkscape:label="Highlights"
       style="display:inline;enable-background:new">
      <path
         id="path3"
         style="display:inline;opacity:0.2;fill:#ffffff;stroke-width:6.64319;stroke-linecap:round;stroke-linejoin:round;paint-order:stroke markers fill;enable-background:new"
         d="m 40,128 v 93.37109 C 40,231.69113 48.308869,240 58.628906,240 H 197.37109 C 207.69113,240 216,231.69113 216,221.37109 V 128 Z" />
      <path
         id="path8"
         style="display:inline;opacity:0.6;fill:#ffffff;stroke-width:6.64319;stroke-linecap:round;stroke-linejoin:round;paint-order:stroke markers fill;enable-background:new"
         d="m 216,180 -60,60 h 41.37109 C 207.69113,240 216,231.69113 216,221.37109 Z" />
      <path
         id="path1"
         style="display:inline;opacity:0.6;fill:#ffffff;stroke-width:6.64319;stroke-linecap:round;stroke-linejoin:round;paint-order:stroke markers fill;enable-background:new"
         d="M 58.628906,16 C 48.308891,16 40,24.308891 40,34.628906 v 2 C 40,26.308891 48.308891,18 58.628906,18 H 197.37109 C 207.69111,18 216,26.308891 216,36.628906 v -2 C 216,24.308891 207.69111,16 197.37109,16 Z"
         sodipodi:nodetypes="sscsscsss" />
      <path
         id="path2"
         style="display:inline;opacity:0.1;fill:#ffffff;stroke-width:6.64319;stroke-linecap:round;stroke-linejoin:round;paint-order:stroke markers fill;enable-background:new"
         d="m 128,16 v 224 h 69.37109 C 207.69112,240 216,231.69112 216,221.37109 V 34.628906 C 216,24.309038 207.69293,16 197.37305,16 Z" />
    </g>
  </g>
</svg>
