<?xml version="1.0" encoding="UTF-8" standalone="no"?>
<svg
   width="256"
   height="256"
   id="svg11300"
   sodipodi:version="0.32"
   sodipodi:docname="application-octet-stream.svg"
   version="1.0"
   style="display:inline;enable-background:new"
   inkscape:version="1.3 (0e150ed6c4, 2023-07-21)"
   xmlns:inkscape="http://www.inkscape.org/namespaces/inkscape"
   xmlns:sodipodi="http://sodipodi.sourceforge.net/DTD/sodipodi-0.dtd"
   xmlns="http://www.w3.org/2000/svg"
   xmlns:svg="http://www.w3.org/2000/svg">
  <sodipodi:namedview
     stroke="#ef2929"
     fill="#f57900"
     id="base"
     pagecolor="#cccccc"
     bordercolor="#666666"
     borderopacity="1"
     inkscape:pageopacity="0"
     inkscape:pageshadow="2"
     inkscape:zoom="1.8796407"
     inkscape:cx="30.590953"
     inkscape:cy="124.75789"
     inkscape:current-layer="layer3-3"
     showgrid="false"
     inkscape:grid-bbox="true"
     inkscape:document-units="px"
     inkscape:showpageshadow="true"
     inkscape:window-width="1920"
     inkscape:window-height="1011"
     inkscape:window-x="1920"
     inkscape:window-y="32"
     width="400px"
     height="300px"
     inkscape:snap-nodes="true"
     inkscape:snap-bbox="true"
     gridtolerance="10000"
     inkscape:object-nodes="true"
     inkscape:snap-grids="true"
     showguides="true"
     inkscape:guide-bbox="true"
     inkscape:window-maximized="1"
     inkscape:bbox-paths="true"
     inkscape:snap-bbox-midpoints="true"
     inkscape:snap-global="true"
     inkscape:object-paths="true"
     inkscape:snap-intersection-paths="true"
     inkscape:snap-smooth-nodes="true"
     inkscape:pagecheckerboard="false"
     showborder="true"
     inkscape:document-rotation="0"
     objecttolerance="20"
     inkscape:deskcolor="#d1d1d1" />
  <defs
     id="defs3" />
  <g
     style="display:inline"
     inkscape:groupmode="layer"
     inkscape:label="Icon"
     id="layer1">
    <g
       inkscape:groupmode="layer"
       id="layer4-6"
       inkscape:label="Shadow"
       style="display:inline;opacity:0.4;enable-background:new"
       transform="translate(-73,-64)">
      <path
         id="rect3"
         style="display:inline;opacity:0.4;fill:#000000;stroke-width:6.64319;stroke-linecap:round;stroke-linejoin:round;paint-order:stroke markers fill;enable-background:new"
         d="m 113,192 v 97.37109 C 113,299.69114 121.30886,308 131.62891,308 H 270.37109 C 280.69114,308 289,299.69114 289,289.37109 V 192 Z" />
    </g>
    <g
       inkscape:groupmode="layer"
       id="layer2-7"
       inkscape:label="Background"
       style="display:inline;enable-background:new"
       transform="translate(-73,-6)">
      <path
         id="rect2"
         style="display:inline;fill:#f9f9f9;stroke-width:6.64319;stroke-linecap:round;stroke-linejoin:round;paint-order:stroke markers fill;enable-background:new"
         d="M 131.62891,22 C 121.30887,22 113,30.308869 113,40.628906 V 227.37109 C 113,237.69113 121.30887,246 131.62891,246 H 270.37109 C 280.69113,246 289,237.69113 289,227.37109 V 40.628906 C 289,30.309027 280.69294,22 270.37305,22 Z"
         sodipodi:nodetypes="sssssssss" />
    </g>
    <g
       inkscape:groupmode="layer"
       id="layer8"
       inkscape:label="Graphic"
       style="display:inline;opacity:1">
      <path
         id="path31282"
         style="font-size:50px;line-height:0.95;font-family:monospace;-inkscape-font-specification:monospace;white-space:pre;display:inline;fill:#808080"
         d="m 82.833984,41.841797 c -3.889973,0 -6.826826,1.595052 -8.8125,4.785156 -1.98568,3.190104 -2.980468,7.901042 -2.980468,14.134766 0,6.217448 0.994788,10.921224 2.980468,14.111328 1.985674,3.190104 4.922527,4.785156 8.8125,4.785156 3.88998,0 6.826827,-1.595052 8.8125,-4.785156 2.001954,-3.190104 3.003907,-7.89388 3.003907,-14.111328 0,-6.233724 -1.001953,-10.944662 -3.003907,-14.134766 -1.985673,-3.190104 -4.92252,-4.785156 -8.8125,-4.785156 z m 60.205076,0 c -3.88997,0 -6.82682,1.595052 -8.8125,4.785156 -1.98568,3.190104 -2.98047,7.901042 -2.98047,14.134766 0,6.217448 0.99479,10.921224 2.98047,14.111328 1.98568,3.190104 4.92253,4.785156 8.8125,4.785156 3.88998,0 6.82878,-1.595052 8.81446,-4.785156 2.00195,-3.190104 3.00195,-7.89388 3.00195,-14.111328 0,-6.233724 -1,-10.944662 -3.00195,-14.134766 -1.98568,-3.190104 -4.92448,-4.785156 -8.81446,-4.785156 z m 30.10156,0 c -3.88997,0 -6.8268,1.595052 -8.8125,4.785156 -1.98566,3.190104 -2.97851,7.901042 -2.97851,14.134766 0,6.217448 0.99286,10.921224 2.97851,14.111328 1.98569,3.190104 4.92253,4.785156 8.8125,4.785156 3.88999,0 6.82878,-1.595052 8.81446,-4.785156 2.00195,-3.190104 3.0039,-7.89388 3.0039,-14.111328 0,-6.233724 -1.00195,-10.944662 -3.0039,-14.134766 -1.98568,-3.190104 -4.92446,-4.785156 -8.81446,-4.785156 z M 112.10742,42.5 l -8.20508,1.806641 v 4.492187 l 8.25196,-1.855469 v 27.857422 h -7.66407 v 4.150391 h 20.11719 v -4.150391 h -7.56836 V 42.5 Z m -29.273436,3.248047 c 2.3112,0 4.027344,1.236979 5.150391,3.710937 1.139327,2.473959 1.710938,6.240886 1.710937,11.302735 10e-7,5.045572 -0.57161,8.805338 -1.710937,11.279297 -1.123047,2.473958 -2.839191,3.710937 -5.150391,3.710937 -2.29492,0 -4.01107,-1.236979 -5.15039,-3.710937 -1.123047,-2.473959 -1.685547,-6.233725 -1.685547,-11.279297 0,-5.061849 0.5625,-8.828776 1.685547,-11.302735 1.13932,-2.473958 2.85547,-3.710937 5.15039,-3.710937 z m 60.205076,0 c 2.3112,0 4.0293,1.236979 5.15235,3.710937 1.13932,2.473959 1.70703,6.240886 1.70703,11.302735 0,5.045572 -0.56771,8.805338 -1.70703,11.279297 -1.12305,2.473958 -2.84115,3.710937 -5.15235,3.710937 -2.29492,0 -4.01107,-1.236979 -5.15039,-3.710937 -1.12305,-2.473959 -1.68555,-6.233725 -1.68555,-11.279297 2e-5,-5.061849 0.5625,-8.828776 1.68555,-11.302735 1.13932,-2.473958 2.85547,-3.710937 5.15039,-3.710937 z m 30.10156,0 c 2.31121,0 4.0293,1.236979 5.15235,3.710937 1.13932,2.473959 1.70898,6.240886 1.70898,11.302735 0,5.045572 -0.56966,8.805338 -1.70898,11.279297 -1.12305,2.473958 -2.84112,3.710937 -5.15235,3.710937 -2.29491,0 -4.01106,-1.236979 -5.15039,-3.710937 -1.12304,-2.473959 -1.68554,-6.233725 -1.68554,-11.279297 0,-5.061849 0.5625,-8.828776 1.68554,-11.302735 1.13933,-2.473958 2.85549,-3.710937 5.15039,-3.710937 z m -90.306636,43.59375 c -3.889973,0 -6.826826,1.595052 -8.8125,4.785156 -1.98568,3.190104 -2.980468,7.901047 -2.980468,14.134767 0,6.21745 0.994788,10.92123 2.980468,14.11133 1.985674,3.1901 4.922527,4.78515 8.8125,4.78515 3.88998,0 6.826827,-1.59505 8.8125,-4.78515 2.001954,-3.1901 3.003907,-7.89388 3.003907,-14.11133 0,-6.23372 -1.001953,-10.944663 -3.003907,-14.134767 -1.985673,-3.190104 -4.92252,-4.785156 -8.8125,-4.785156 z m 30.101566,0 c -3.88998,0 -6.82683,1.595052 -8.8125,4.785156 -1.98568,3.190104 -2.97852,7.901047 -2.97852,14.134767 0,6.21745 0.99284,10.92123 2.97852,14.11133 1.98567,3.1901 4.92252,4.78515 8.8125,4.78515 3.88997,0 6.82877,-1.59505 8.81445,-4.78515 2.00195,-3.1901 3.00391,-7.89388 3.00391,-14.11133 0,-6.23372 -1.00196,-10.944663 -3.00391,-14.134767 -1.98568,-3.190104 -4.92448,-4.785156 -8.81445,-4.785156 z m 30.10351,0 c -3.88997,0 -6.82682,1.595052 -8.8125,4.785156 -1.98568,3.190104 -2.98047,7.901047 -2.98047,14.134767 0,6.21745 0.99479,10.92123 2.98047,14.11133 1.98568,3.1901 4.92253,4.78515 8.8125,4.78515 3.88998,0 6.82878,-1.59505 8.81446,-4.78515 2.00195,-3.1901 3.00195,-7.89388 3.00195,-14.11133 0,-6.23372 -1,-10.944663 -3.00195,-14.134767 -1.98568,-3.190104 -4.92448,-4.785156 -8.81446,-4.785156 z M 172.31055,90 l -8.20117,1.806641 v 4.492187 l 8.25,-1.855469 v 27.857421 h -7.66407 v 4.15039 h 20.11524 v -4.15039 h -7.56836 V 90 Z m -89.476566,3.248047 c 2.3112,0 4.027344,1.236979 5.150391,3.710937 1.139327,2.47396 1.710938,6.240886 1.710937,11.302736 10e-7,5.04557 -0.57161,8.80534 -1.710937,11.2793 -1.123047,2.47396 -2.839191,3.71093 -5.150391,3.71093 -2.29492,0 -4.01107,-1.23697 -5.15039,-3.71093 -1.123047,-2.47396 -1.685547,-6.23373 -1.685547,-11.2793 0,-5.06185 0.5625,-8.828776 1.685547,-11.302736 1.13932,-2.473958 2.85547,-3.710937 5.15039,-3.710937 z m 30.101566,0 c 2.3112,0 4.02929,1.236979 5.15234,3.710937 1.13932,2.47396 1.70896,6.240886 1.70899,11.302736 0,5.04557 -0.56967,8.80534 -1.70899,11.2793 -1.12305,2.47396 -2.84114,3.71093 -5.15234,3.71093 -2.29492,0 -4.01107,-1.23697 -5.15039,-3.71093 -1.12305,-2.47396 -1.6836,-6.23373 -1.6836,-11.2793 0,-5.06185 0.56055,-8.828776 1.6836,-11.302736 1.13932,-2.473958 2.85547,-3.710937 5.15039,-3.710937 z m 30.10351,0 c 2.3112,0 4.0293,1.236979 5.15235,3.710937 1.13932,2.47396 1.70703,6.240886 1.70703,11.302736 0,5.04557 -0.56771,8.80534 -1.70703,11.2793 -1.12305,2.47396 -2.84115,3.71093 -5.15235,3.71093 -2.29492,0 -4.01107,-1.23697 -5.15039,-3.71093 -1.12305,-2.47396 -1.68555,-6.23373 -1.68555,-11.2793 2e-5,-5.06185 0.5625,-8.828776 1.68555,-11.302736 1.13932,-2.473958 2.85547,-3.710937 5.15039,-3.710937 z M 112.93555,136.8418 c -3.88998,0 -6.82683,1.59505 -8.8125,4.78515 -1.98568,3.19011 -2.97852,7.90104 -2.97852,14.13477 0,6.21745 0.99284,10.92123 2.97852,14.11133 1.98567,3.1901 4.92252,4.78515 8.8125,4.78515 3.88997,0 6.82877,-1.59505 8.81445,-4.78515 2.00195,-3.1901 3.00391,-7.89388 3.00391,-14.11133 0,-6.23373 -1.00196,-10.94466 -3.00391,-14.13477 -1.98568,-3.1901 -4.92448,-4.78515 -8.81445,-4.78515 z m 60.20507,0 c -3.88997,0 -6.8268,1.59505 -8.8125,4.78515 -1.98566,3.19011 -2.97851,7.90104 -2.97851,14.13477 0,6.21745 0.99286,10.92123 2.97851,14.11133 1.98569,3.1901 4.92253,4.78515 8.8125,4.78515 3.88999,0 6.82878,-1.59505 8.81446,-4.78515 2.00195,-3.1901 3.0039,-7.89388 3.0039,-14.11133 0,-6.23373 -1.00195,-10.94466 -3.0039,-14.13477 -1.98568,-3.1901 -4.92446,-4.78515 -8.81446,-4.78515 z m -91.136714,0.6582 -8.203125,1.80664 v 4.49219 l 8.251953,-1.85547 v 27.85742 h -7.666015 v 4.15039 h 20.117187 v -4.15039 H 86.935547 V 137.5 Z m 60.205074,0 -8.20312,1.80664 v 4.49219 l 8.25195,-1.85547 v 27.85742 h -7.66601 v 4.15039 h 20.11718 v -4.15039 h -7.56836 V 137.5 Z m -29.27343,3.24805 c 2.3112,0 4.02929,1.23698 5.15234,3.71093 1.13932,2.47396 1.70896,6.24089 1.70899,11.30274 0,5.04557 -0.56967,8.80534 -1.70899,11.2793 -1.12305,2.47396 -2.84114,3.71093 -5.15234,3.71093 -2.29492,0 -4.01107,-1.23697 -5.15039,-3.71093 -1.12305,-2.47396 -1.6836,-6.23373 -1.6836,-11.2793 0,-5.06185 0.56055,-8.82878 1.6836,-11.30274 1.13932,-2.47395 2.85547,-3.71093 5.15039,-3.71093 z m 60.20507,0 c 2.31121,0 4.0293,1.23698 5.15235,3.71093 1.13932,2.47396 1.70898,6.24089 1.70898,11.30274 0,5.04557 -0.56966,8.80534 -1.70898,11.2793 -1.12305,2.47396 -2.84112,3.71093 -5.15235,3.71093 -2.29491,0 -4.01106,-1.23697 -5.15039,-3.71093 -1.12304,-2.47396 -1.68554,-6.23373 -1.68554,-11.2793 0,-5.06185 0.5625,-8.82878 1.68554,-11.30274 1.13933,-2.47395 2.85549,-3.71093 5.15039,-3.71093 z M 82.833984,184.3418 c -3.889973,0 -6.826826,1.59505 -8.8125,4.78515 -1.98568,3.19011 -2.980468,7.90104 -2.980468,14.13477 0,6.21745 0.994788,10.92123 2.980468,14.11133 1.985674,3.1901 4.922527,4.78515 8.8125,4.78515 3.88998,0 6.826827,-1.59505 8.8125,-4.78515 2.001954,-3.1901 3.003907,-7.89388 3.003907,-14.11133 0,-6.23373 -1.001953,-10.94466 -3.003907,-14.13477 -1.985673,-3.1901 -4.92252,-4.78515 -8.8125,-4.78515 z m 30.101566,0 c -3.88998,0 -6.82683,1.59505 -8.8125,4.78515 -1.98568,3.19011 -2.97852,7.90104 -2.97852,14.13477 0,6.21745 0.99284,10.92123 2.97852,14.11133 1.98567,3.1901 4.92252,4.78515 8.8125,4.78515 3.88997,0 6.82877,-1.59505 8.81445,-4.78515 2.00195,-3.1901 3.00391,-7.89388 3.00391,-14.11133 0,-6.23373 -1.00196,-10.94466 -3.00391,-14.13477 -1.98568,-3.1901 -4.92448,-4.78515 -8.81445,-4.78515 z m 60.20507,0 c -3.88997,0 -6.8268,1.59505 -8.8125,4.78515 -1.98566,3.19011 -2.97851,7.90104 -2.97851,14.13477 0,6.21745 0.99286,10.92123 2.97851,14.11133 1.98569,3.1901 4.92253,4.78515 8.8125,4.78515 3.88999,0 6.82878,-1.59505 8.81446,-4.78515 2.00195,-3.1901 3.0039,-7.89388 3.0039,-14.11133 0,-6.23373 -1.00195,-10.94466 -3.0039,-14.13477 -1.98568,-3.1901 -4.92446,-4.78515 -8.81446,-4.78515 z M 142.20898,185 l -8.20312,1.80664 v 4.49219 l 8.25195,-1.85547 v 27.85742 h -7.66601 v 4.15039 h 20.11718 v -4.15039 h -7.56836 V 185 Z m -59.374996,3.24805 c 2.3112,0 4.027344,1.23698 5.150391,3.71093 1.139327,2.47396 1.710939,6.24089 1.710937,11.30274 10e-7,5.04557 -0.57161,8.80534 -1.710937,11.2793 -1.123047,2.47396 -2.839191,3.71093 -5.150391,3.71093 -2.29492,0 -4.01107,-1.23697 -5.15039,-3.71093 -1.123047,-2.47396 -1.685547,-6.23373 -1.685547,-11.2793 0,-5.06185 0.5625,-8.82878 1.685547,-11.30274 1.13932,-2.47395 2.85547,-3.71093 5.15039,-3.71093 z m 30.101566,0 c 2.3112,0 4.02929,1.23698 5.15234,3.71093 1.13932,2.47396 1.70896,6.24089 1.70899,11.30274 0,5.04557 -0.56967,8.80534 -1.70899,11.2793 -1.12305,2.47396 -2.84114,3.71093 -5.15234,3.71093 -2.29492,0 -4.01107,-1.23697 -5.15039,-3.71093 -1.12305,-2.47396 -1.6836,-6.23373 -1.6836,-11.2793 0,-5.06185 0.56055,-8.82878 1.6836,-11.30274 1.13932,-2.47395 2.85547,-3.71093 5.15039,-3.71093 z m 60.20507,0 c 2.31121,0 4.0293,1.23698 5.15235,3.71093 1.13932,2.47396 1.70898,6.24089 1.70898,11.30274 0,5.04557 -0.56966,8.80534 -1.70898,11.2793 -1.12305,2.47396 -2.84112,3.71093 -5.15235,3.71093 -2.29491,0 -4.01106,-1.23697 -5.15039,-3.71093 -1.12304,-2.47396 -1.68554,-6.23373 -1.68554,-11.2793 0,-5.06185 0.5625,-8.82878 1.68554,-11.30274 1.13933,-2.47395 2.85547,-3.71093 5.15039,-3.71093 z" />
    </g>
    <g
       inkscape:groupmode="layer"
       id="layer3-3"
       inkscape:label="Highlights"
       style="display:inline;enable-background:new"
       transform="translate(-73,-6)">
      <path
         id="path3"
         style="display:inline;opacity:0.2;fill:#ffffff;stroke-width:6.64319;stroke-linecap:round;stroke-linejoin:round;paint-order:stroke markers fill;enable-background:new"
         d="m 113,134 v 93.37109 C 113,237.69113 121.30887,246 131.62891,246 H 270.37109 C 280.69113,246 289,237.69113 289,227.37109 V 134 Z" />
      <path
         id="path1"
         style="display:inline;opacity:0.6;fill:#ffffff;stroke-width:6.64319;stroke-linecap:round;stroke-linejoin:round;paint-order:stroke markers fill;enable-background:new"
         d="M 131.62891,22 C 121.30889,22 113,30.308891 113,40.628906 v 2 C 113,32.308891 121.30889,24 131.62891,24 H 270.37109 C 280.69111,24 289,32.308891 289,42.628906 v -2 C 289,30.308891 280.69111,22 270.37109,22 Z"
         sodipodi:nodetypes="sscsscsss" />
      <path
         id="path2"
         style="display:inline;opacity:0.1;fill:#ffffff;stroke-width:6.64319;stroke-linecap:round;stroke-linejoin:round;paint-order:stroke markers fill;enable-background:new"
         d="m 201,22 v 224 h 69.37109 C 280.69112,246 289,237.69112 289,227.37109 V 40.628906 C 289,30.309038 280.69293,22 270.37305,22 Z" />
    </g>
  </g>
</svg>
