<?xml version="1.0" encoding="UTF-8" standalone="no"?>
<svg
   width="256"
   height="256"
   id="svg11300"
   sodipodi:version="0.32"
   sodipodi:docname="application-x-executable.svg"
   version="1.0"
   style="display:inline;enable-background:new"
   inkscape:version="1.4 (e7c3feb100, 2024-10-09)"
   xmlns:inkscape="http://www.inkscape.org/namespaces/inkscape"
   xmlns:sodipodi="http://sodipodi.sourceforge.net/DTD/sodipodi-0.dtd"
   xmlns="http://www.w3.org/2000/svg"
   xmlns:svg="http://www.w3.org/2000/svg">
  <sodipodi:namedview
     stroke="#ef2929"
     fill="#f57900"
     id="base"
     pagecolor="#cccccc"
     bordercolor="#666666"
     borderopacity="1"
     inkscape:pageopacity="0"
     inkscape:pageshadow="2"
     inkscape:zoom="2"
     inkscape:cx="73.5"
     inkscape:cy="122.5"
     inkscape:current-layer="g99"
     showgrid="false"
     inkscape:grid-bbox="true"
     inkscape:document-units="px"
     inkscape:showpageshadow="true"
     inkscape:window-width="1920"
     inkscape:window-height="1011"
     inkscape:window-x="0"
     inkscape:window-y="0"
     width="400px"
     height="300px"
     inkscape:snap-nodes="true"
     inkscape:snap-bbox="true"
     gridtolerance="10000"
     inkscape:object-nodes="true"
     inkscape:snap-grids="true"
     showguides="true"
     inkscape:guide-bbox="true"
     inkscape:window-maximized="1"
     inkscape:bbox-paths="true"
     inkscape:snap-bbox-midpoints="true"
     inkscape:snap-global="true"
     inkscape:object-paths="true"
     inkscape:snap-intersection-paths="true"
     inkscape:snap-smooth-nodes="true"
     inkscape:pagecheckerboard="false"
     showborder="true"
     inkscape:document-rotation="0"
     objecttolerance="20"
     inkscape:deskcolor="#d1d1d1" />
  <defs
     id="defs3" />
  <g
     style="display:inline"
     inkscape:groupmode="layer"
     inkscape:label="Icon"
     id="layer1">
    <g
       inkscape:groupmode="layer"
       id="layer4-6"
       inkscape:label="Shadow"
       style="display:inline;opacity:0.4;enable-background:new">
      <path
         id="path19"
         style="display:inline;fill:#000000;fill-opacity:1;stroke:none;stroke-width:39.5303;stroke-linecap:round;stroke-linejoin:round;enable-background:new"
         d="m 128,15.248047 c -4.76197,0 -9.52319,1.825925 -13.17188,5.474609 L 16.722656,118.82812 c -7.2973699,7.29738 -7.2973676,19.04639 0,26.34376 l 98.105464,98.10546 c 7.29738,7.29738 19.04639,7.29738 26.34376,0 l 98.10546,-98.10546 c 7.29725,-7.29726 7.29961,-19.04649 0.002,-26.34376 L 141.17188,20.722656 C 137.52319,17.073972 132.76197,15.248047 128,15.248047 Z"
         sodipodi:nodetypes="sccssssccs" />
    </g>
    <g
       inkscape:groupmode="layer"
       id="g99"
       inkscape:label="Background B"
       style="display:inline;enable-background:new">
      <path
         id="path99"
         style="display:inline;fill:#388fe6;fill-opacity:1;stroke:none;stroke-width:39.5303;stroke-linecap:round;stroke-linejoin:round;enable-background:new"
         d="m 128,11.248047 c -4.76197,0 -9.52319,1.825925 -13.17188,5.474609 L 16.722656,114.82812 c -7.2973699,7.29738 -7.2973676,19.04639 0,26.34376 l 98.105464,98.10546 c 7.29738,7.29738 19.04639,7.29738 26.34376,0 l 98.10546,-98.10546 c 7.29725,-7.29726 7.29961,-19.04649 0.002,-26.34376 L 141.17188,16.722656 C 137.52319,13.073972 132.76197,11.248047 128,11.248047 Z"
         sodipodi:nodetypes="sccssssccs" />
    </g>
    <g
       inkscape:groupmode="layer"
       id="layer2-7"
       inkscape:label="Background A"
       style="display:inline;enable-background:new">
      <path
         id="rect5"
         style="display:inline;fill:#3883e6;fill-opacity:1;stroke:none;stroke-width:39.5303;stroke-linecap:round;stroke-linejoin:round;enable-background:new"
         d="m 128,11.248047 c -4.76197,0 -9.52319,1.825925 -13.17188,5.474609 L 16.722656,114.82812 c -7.2973699,7.29738 -7.2973676,19.04639 0,26.34376 l 98.105464,98.10546 c 7.29738,7.29738 19.04639,7.29738 26.34376,0 l 98.10546,-98.10546 c 7.29725,-7.29726 7.29961,-19.04649 0.002,-26.34376 L 141.17188,16.722656 C 137.52319,13.073972 132.76197,11.248047 128,11.248047 Z"
         sodipodi:nodetypes="sccssssccs" />
    </g>
    <g
       inkscape:groupmode="layer"
       id="layer5"
       inkscape:label="Binary"
       style="display:inline">
      <path
         id="path31282"
         style="display:inline;enable-background:new;opacity:0.3;font-size:50px;line-height:0.95;font-family:monospace;-inkscape-font-specification:monospace;white-space:pre;fill:#ffffff;stroke-width:0.999998"
         d="m 127.98828,14.09375 c -3.88998,0 -6.82875,1.595066 -8.81445,4.785156 -1.98566,3.19009 -2.97852,7.901069 -2.97852,14.134766 0,6.21742 0.99287,10.921239 2.97852,14.111328 1.98569,3.190091 4.92447,4.785156 8.81445,4.785156 3.88999,0 6.82877,-1.595065 8.81445,-4.785156 2.00196,-3.19009 3.00391,-7.893908 3.00391,-14.111328 0,-6.233697 -1.00195,-10.944676 -3.00391,-14.134766 -1.98568,-3.19009 -4.92445,-4.785155 -8.81445,-4.785156 z m 0,3.90625 c 2.31121,0 4.02929,1.236991 5.15234,3.710938 1.13932,2.473948 1.70899,6.240907 1.70899,11.302734 0,5.045549 -0.56966,8.80535 -1.70899,11.279297 -1.12306,2.473947 -2.84111,3.710937 -5.15234,3.710937 -2.29492,0 -4.01301,-1.23699 -5.15234,-3.710937 -1.12305,-2.473947 -1.68555,-6.233748 -1.68555,-11.279297 0,-5.061827 0.5625,-8.828787 1.68555,-11.302734 C 123.97527,19.236991 125.69337,18 127.98828,18 Z m -19.53125,5.09375 -4.05859,4.058594 c 0.21824,1.720658 0.3457,3.64379 0.3457,5.861328 0,5.045549 -0.56772,8.80535 -1.70703,11.279297 -1.12306,2.473947 -2.84114,3.710937 -5.152344,3.710937 -2.294925,0 -4.011069,-1.23699 -5.150391,-3.710937 -0.519667,-1.144764 -0.906122,-2.595623 -1.185547,-4.291016 l -3.927734,3.927735 c 0.409101,1.17983 0.875282,2.27012 1.451172,3.195312 1.985683,3.190091 4.922522,4.785156 8.8125,4.785156 3.889994,0 6.828764,-1.595065 8.814454,-4.785156 2.00195,-3.19009 3.00195,-7.893908 3.00195,-14.111328 0,-3.937801 -0.44557,-7.196919 -1.24414,-9.919922 z m 48.85156,9.765625 v 14.193359 h -7.66406 v 4.150391 h 20.11719 v -4.150391 h -7.56836 V 37.744141 Z M 97.884766,61.59375 c -3.889978,0 -6.826817,1.595066 -8.8125,4.785156 -1.985684,3.190086 -2.980469,7.899128 -2.980469,14.132813 0,6.217427 0.994785,10.921245 2.980469,14.111328 1.985683,3.190089 4.922522,4.785156 8.8125,4.785156 3.889994,0 6.828764,-1.595067 8.814454,-4.785156 2.00195,-3.190083 3.00195,-7.893901 3.00195,-14.111328 0,-6.233685 -1,-10.942727 -3.00195,-14.132813 -1.98569,-3.19009 -4.92446,-4.785155 -8.814454,-4.785156 z m 60.205074,0 c -3.88998,0 -6.82683,1.595066 -8.8125,4.785156 -1.98569,3.190086 -2.97851,7.899128 -2.97851,14.132813 0,6.217427 0.99282,10.921245 2.97851,14.111328 1.98567,3.190089 4.92252,4.785156 8.8125,4.785156 3.88998,0 6.82878,-1.595067 8.81446,-4.785156 2.00196,-3.190083 3.0039,-7.893901 3.0039,-14.111328 0,-6.233685 -1.00194,-10.942727 -3.0039,-14.132813 -1.98568,-3.19009 -4.92448,-4.785155 -8.81446,-4.785156 z m 28.12305,0.169922 c -2.91674,0.467552 -5.20056,1.994205 -6.83203,4.615234 -1.98568,3.190086 -2.98047,7.899128 -2.98047,14.132813 0,6.217427 0.99479,10.921245 2.98047,14.111328 1.98568,3.190089 4.92252,4.785156 8.8125,4.785156 3.88998,0 6.82875,-1.595067 8.81445,-4.785156 2.00194,-3.190083 3.00196,-7.893901 3.00196,-14.111328 0,-1.917973 -0.12897,-3.640062 -0.31836,-5.269531 l -6.79688,-6.796876 c 0.14905,0.25743 0.31868,0.473766 0.45117,0.765626 1.13931,2.47395 1.70703,6.238962 1.70703,11.300781 0,5.045549 -0.56771,8.805342 -1.70703,11.279297 -1.12305,2.473944 -2.84114,3.710937 -5.15234,3.710937 -2.29493,0 -4.01107,-1.236993 -5.15039,-3.710937 -1.12306,-2.473955 -1.68555,-6.233748 -1.68555,-11.279297 2e-5,-5.061819 0.56249,-8.826831 1.68555,-11.300781 1.13932,-2.473946 2.85546,-3.710937 5.15039,-3.710938 0.87929,0 1.64407,0.237623 2.35156,0.595703 z m -116.429687,0.0039 -4.3125,4.3125 C 66.168823,65.731924 66.920332,65.5 67.78125,65.5 c 2.311204,0 4.029291,1.236993 5.152344,3.710938 1.139322,2.47395 1.708954,6.238962 1.708984,11.300781 0,5.045549 -0.569662,8.805342 -1.708984,11.279297 -1.123053,2.473944 -2.84114,3.710937 -5.152344,3.710937 -2.294925,0 -4.011069,-1.236993 -5.150391,-3.710937 -1.123052,-2.473955 -1.683593,-6.233748 -1.683593,-11.279297 0,-5.061819 0.560541,-8.826831 1.683593,-11.300781 0.125429,-0.272359 0.284415,-0.47247 0.423829,-0.714844 l -6.748047,6.748047 c -0.187818,1.628898 -0.316407,3.350421 -0.316407,5.267578 0,6.217427 0.992832,10.921245 2.978516,14.111328 1.985673,3.190089 4.922512,4.785156 8.8125,4.785156 3.889977,0 6.828769,-1.595067 8.814453,-4.785156 2.001953,-3.190083 3.003906,-7.893901 3.003906,-14.111328 0,-6.233685 -1.001953,-10.942727 -3.003906,-14.132813 -1.627441,-2.614556 -3.905666,-4.139625 -6.8125,-4.611328 z m 57.373047,0.484375 -8.20117,1.806641 v 4.492187 l 8.25,-1.855469 v 27.855469 h -7.66406 v 4.150391 h 17.5 c 0.851,-0.268229 1.72848,-0.443726 2.61718,-0.523438 v -3.626953 h -7.56836 V 62.251953 Z M 97.884766,65.5 c 2.311204,0 4.029284,1.236993 5.152344,3.710938 1.13931,2.47395 1.70703,6.238962 1.70703,11.300781 0,5.045549 -0.56772,8.805342 -1.70703,11.279297 -1.12306,2.473944 -2.84114,3.710937 -5.152344,3.710937 -2.294925,0 -4.011069,-1.236993 -5.150391,-3.710937 -1.123053,-2.473955 -1.685547,-6.233748 -1.685547,-11.279297 2e-5,-5.061819 0.562494,-8.826831 1.685547,-11.300781 1.139322,-2.473946 2.855466,-3.710937 5.150391,-3.710938 z m 60.205074,0 c 2.31121,0 4.0293,1.236993 5.15235,3.710938 1.13933,2.47395 1.70895,6.238962 1.70898,11.300781 0,5.045549 -0.56965,8.805342 -1.70898,11.279297 -1.12305,2.473944 -2.84114,3.710937 -5.15235,3.710937 -2.29492,0 -4.01106,-1.236993 -5.15039,-3.710937 -1.12305,-2.473955 -1.6836,-6.233748 -1.68359,-11.279297 0,-5.061819 0.56054,-8.826831 1.68359,-11.300781 1.13933,-2.473946 2.85547,-3.710937 5.15039,-3.710938 z M 49.427734,82.123047 44.029297,87.521484 c -0.283511,1.685278 -0.674396,3.129926 -1.199219,4.269532 -1.123043,2.473944 -2.839197,3.710937 -5.15039,3.710937 -0.507638,0 -0.974762,-0.08403 -1.425782,-0.205078 l -3.160156,3.160156 c 1.346765,0.62277 2.867199,0.951172 4.585938,0.951172 3.889986,0 6.826825,-1.595067 8.8125,-4.785156 1.817788,-2.89662 2.768176,-7.107396 2.935546,-12.5 z M 217.51367,93.0625 v 1.488281 h -7.66406 v 4.150391 h 2.49609 c 1.23633,-0.430066 2.53302,-0.661453 3.8418,-0.685547 1.30878,0.02409 2.60547,0.255481 3.8418,0.685547 h 3.12304 z M 67.78125,109.0918 c -3.889988,0 -6.826827,1.59507 -8.8125,4.78515 -1.985684,3.19009 -2.978516,7.90106 -2.978516,14.13477 0,6.21741 0.992832,10.92123 2.978516,14.11133 1.985673,3.19008 4.922512,4.78515 8.8125,4.78515 3.889977,0 6.828769,-1.59507 8.814453,-4.78515 2.001953,-3.1901 3.003906,-7.89392 3.003906,-14.11133 0,-6.23371 -1.001953,-10.94468 -3.003906,-14.13477 -1.985684,-3.19008 -4.924476,-4.78515 -8.814453,-4.78515 z m -30.931641,0.6582 -8.203125,1.80664 v 4.49219 l 8.251954,-1.85547 v 27.85742 h -7.666016 v 4.15039 h 20.117187 v -4.15039 H 41.78125 V 109.75 Z m 60.205079,0 -8.203126,1.80664 v 4.49219 l 8.251954,-1.85547 v 27.85742 H 89.4375 v 4.15039 h 20.11719 v -4.15039 h -7.56836 V 109.75 Z m 90.308592,0 -8.20312,1.80664 v 4.16211 c 0.39664,0.0177 0.79314,0.0385 1.18945,0.0625 l 7.0625,-1.58789 v 1.37305 c 1.00861,-2.33875 2.71362,-4.30974 4.88281,-5.64453 V 109.75 Z m -119.58203,3.24805 c 2.311204,0 4.029291,1.237 5.152344,3.71093 1.139322,2.47396 1.708954,6.24091 1.708984,11.30274 0,5.04555 -0.569662,8.80536 -1.708984,11.2793 -1.123053,2.47396 -2.84114,3.71093 -5.152344,3.71093 -2.294925,0 -4.011069,-1.23697 -5.150391,-3.71093 -1.123052,-2.47394 -1.683593,-6.23375 -1.683593,-11.2793 0,-5.06183 0.560541,-8.82878 1.683593,-11.30274 1.139322,-2.47393 2.855466,-3.71093 5.150391,-3.71093 z M 37.679688,156.5918 c -1.718221,0 -3.237514,0.33073 -4.583985,0.95312 l 3.158203,3.1582 c 0.45102,-0.12103 0.918145,-0.20507 1.425782,-0.20507 2.311204,0 4.027347,1.23698 5.15039,3.71093 0.52402,1.13786 0.913819,2.5825 1.197266,4.26758 l 5.398437,5.39844 c -0.169333,-5.39538 -1.118213,-9.60525 -2.933593,-12.49805 -1.985676,-3.19009 -4.922514,-4.78515 -8.8125,-4.78515 z m 30.101562,0 c -3.889988,0 -6.826827,1.59506 -8.8125,4.78515 -1.985684,3.1901 -2.978516,7.90108 -2.978516,14.13477 0,1.90634 0.127776,3.62044 0.314454,5.24219 l 6.748046,6.74804 c -0.13861,-0.24126 -0.297103,-0.44 -0.421875,-0.71093 -1.123052,-2.47395 -1.683593,-6.23375 -1.683593,-11.2793 0,-5.06182 0.560541,-8.8288 1.683593,-11.30274 1.139322,-2.47395 2.855466,-3.71093 5.150391,-3.71093 2.311204,0 4.029291,1.23698 5.152344,3.71093 1.139322,2.47394 1.708954,6.24092 1.708984,11.30274 0,5.04555 -0.569662,8.80535 -1.708984,11.2793 -1.123053,2.47394 -2.84114,3.71093 -5.152344,3.71093 -0.860275,0 -1.610874,-0.23243 -2.308594,-0.58007 l 4.3125,4.3125 c 2.905921,-0.47208 5.183462,-1.99735 6.810547,-4.61133 0.527606,-0.84074 0.976577,-1.80056 1.365235,-2.85157 v -3.71484 c 0.0616,-1.97621 0.595351,-3.90897 1.55664,-5.63672 0.02378,-0.64142 0.08203,-1.23085 0.08203,-1.9082 0,-6.23369 -1.001953,-10.94467 -3.003906,-14.13477 -1.985684,-3.19009 -4.924476,-4.78515 -8.814452,-4.78515 z m 29.273438,0.6582 -8.203126,1.80664 v 4.49219 l 8.251954,-1.85547 v 3.16016 l 4.648434,-2.6836 c 0.0778,-0.0294 0.15597,-0.058 0.23438,-0.0859 V 157.25 Z m -8.982422,53.66993 c -0.154444,0.37731 -0.312161,0.74942 -0.451172,1.15039 L 91.550781,216 c 0.165324,-1.0038 0.381752,-1.88988 0.626953,-2.70898 z m 16.576174,8.93946 c 0.0558,0.99474 0.0957,2.02824 0.0957,3.15039 0,2.20722 -0.12809,4.12278 -0.3457,5.83789 l 4.06054,4.06054 c 0.79814,-2.71909 1.24219,-5.97198 1.24219,-9.89843 0,-0.97722 -0.068,-1.84966 -0.11719,-2.75196 -1.65523,0.20071 -3.33394,0.0652 -4.93554,-0.39843 z"
         sodipodi:nodetypes="scscscscsscscscscsccscscccsscsccccccccccssssscscsssssscscscsssscscccscscscsccccscccscscccssscscsccccccccccccccscscscscsscscscscscccsccscccccccccccssssscscscccccccccccccccccccccccccccccccccscccscscssccsccccsssscccscscscsccccccscscccccccccccccccsccscc" />
      <path
         id="path67"
         style="display:inline;enable-background:new;opacity:0.5;font-size:50px;line-height:0.95;font-family:monospace;-inkscape-font-specification:monospace;white-space:pre;fill:#ffffff;fill-opacity:1;stroke-width:0.999998"
         d="m 127.98828,14.09375 c -3.88998,0 -6.82875,1.595066 -8.81445,4.785156 -1.98566,3.19009 -2.97852,7.901069 -2.97852,14.134766 0,6.21742 0.99287,10.921239 2.97852,14.111328 1.98569,3.190091 4.92447,4.785156 8.81445,4.785156 3.88999,0 6.82877,-1.595065 8.81445,-4.785156 2.00196,-3.19009 3.00391,-7.893908 3.00391,-14.111328 0,-6.233697 -1.00195,-10.944676 -3.00391,-14.134766 -1.98568,-3.19009 -4.92445,-4.785155 -8.81445,-4.785156 z m 0,3.90625 c 2.31121,0 4.02929,1.236991 5.15234,3.710938 1.13932,2.473948 1.70899,6.240907 1.70899,11.302734 0,5.045549 -0.56966,8.80535 -1.70899,11.279297 -1.12306,2.473947 -2.84111,3.710937 -5.15234,3.710937 -2.29492,0 -4.01301,-1.23699 -5.15234,-3.710937 -1.12305,-2.473947 -1.68555,-6.233748 -1.68555,-11.279297 0,-5.061827 0.5625,-8.828787 1.68555,-11.302734 C 123.97527,19.236991 125.69337,18 127.98828,18 Z M 97.884766,61.59375 c -3.889978,0 -6.826817,1.595066 -8.8125,4.785156 -1.985684,3.190086 -2.980469,7.899128 -2.980469,14.132813 0,6.217427 0.994785,10.921245 2.980469,14.111328 1.985683,3.190089 4.922522,4.785156 8.8125,4.785156 3.889994,0 6.828764,-1.595067 8.814454,-4.785156 2.00195,-3.190083 3.00195,-7.893901 3.00195,-14.111328 0,-6.233685 -1,-10.942727 -3.00195,-14.132813 -1.98569,-3.19009 -4.92446,-4.785155 -8.814454,-4.785156 z m 60.205074,0 c -3.88998,0 -6.82683,1.595066 -8.8125,4.785156 -1.98569,3.190086 -2.97851,7.899128 -2.97851,14.132813 0,6.217427 0.99282,10.921245 2.97851,14.111328 1.98567,3.190089 4.92252,4.785156 8.8125,4.785156 3.88998,0 6.82878,-1.595067 8.81446,-4.785156 2.00196,-3.190083 3.0039,-7.893901 3.0039,-14.111328 0,-6.233685 -1.00194,-10.942727 -3.0039,-14.132813 -1.98568,-3.19009 -4.92448,-4.785155 -8.81446,-4.785156 z m -30.93359,0.658197 -8.20117,1.806641 v 4.492187 l 8.25,-1.855469 v 27.855469 h -7.66406 v 4.150391 h 17.5 c 0.851,-0.268229 1.72848,-0.443726 2.61718,-0.523438 v -3.626953 h -7.56836 V 62.251953 Z M 97.884766,65.5 c 2.311204,0 4.029284,1.236993 5.152344,3.710938 1.13931,2.47395 1.70703,6.238962 1.70703,11.300781 0,5.045549 -0.56772,8.805342 -1.70703,11.279297 -1.12306,2.473944 -2.84114,3.710937 -5.152344,3.710937 -2.294925,0 -4.011069,-1.236993 -5.150391,-3.710937 -1.123053,-2.473955 -1.685547,-6.233748 -1.685547,-11.279297 2e-5,-5.061819 0.562494,-8.826831 1.685547,-11.300781 1.139322,-2.473946 2.855466,-3.710937 5.150391,-3.710938 z m 60.205074,0 c 2.31121,0 4.0293,1.236993 5.15235,3.710938 1.13933,2.47395 1.70895,6.238962 1.70898,11.300781 0,5.045549 -0.56965,8.805342 -1.70898,11.279297 -1.12305,2.473944 -2.84114,3.710937 -5.15235,3.710937 -2.29492,0 -4.01106,-1.236993 -5.15039,-3.710937 -1.12305,-2.473955 -1.6836,-6.233748 -1.68359,-11.279297 0,-5.061819 0.56054,-8.826831 1.68359,-11.300781 1.13933,-2.473946 2.85547,-3.710937 5.15039,-3.710938 z m -90.30859,43.5918 c -3.889988,0 -6.826827,1.59507 -8.8125,4.78515 -1.985684,3.19009 -2.978516,7.90106 -2.978516,14.13477 0,6.21741 0.992832,10.92123 2.978516,14.11133 1.985673,3.19008 4.922512,4.78515 8.8125,4.78515 3.889977,0 6.828769,-1.59507 8.814453,-4.78515 2.001953,-3.1901 3.003906,-7.89392 3.003906,-14.11133 0,-6.23371 -1.001953,-10.94468 -3.003906,-14.13477 -1.985684,-3.19008 -4.924476,-4.78515 -8.814453,-4.78515 z m -30.931641,0.6582 -8.203125,1.80664 v 4.49219 l 8.251954,-1.85547 v 27.85742 h -7.666016 v 4.15039 h 20.117187 v -4.15039 H 41.78125 V 109.75 Z m 60.205079,0 -8.203126,1.80664 v 4.49219 l 8.251954,-1.85547 v 27.85742 H 89.4375 v 4.15039 h 20.11719 v -4.15039 h -7.56836 V 109.75 Z m 90.308592,0 -8.20312,1.80664 v 4.16211 c 0.39664,0.0177 0.79314,0.0385 1.18945,0.0625 l 7.0625,-1.58789 v 1.37305 c 1.00861,-2.33875 2.71362,-4.30974 4.88281,-5.64453 V 109.75 Z m -119.58203,3.24805 c 2.311204,0 4.029291,1.237 5.152344,3.71093 1.139322,2.47396 1.708954,6.24091 1.708984,11.30274 0,5.04555 -0.569662,8.80536 -1.708984,11.2793 -1.123053,2.47396 -2.84114,3.71093 -5.152344,3.71093 -2.294925,0 -4.011069,-1.23697 -5.150391,-3.71093 -1.123052,-2.47394 -1.683593,-6.23375 -1.683593,-11.2793 0,-5.06183 0.560541,-8.82878 1.683593,-11.30274 1.139322,-2.47393 2.855466,-3.71093 5.150391,-3.71093 z m 29.273438,44.25195 -8.203126,1.80664 v 4.49219 l 8.251954,-1.85547 v 3.16016 l 4.648434,-2.6836 c 0.0778,-0.0294 0.15597,-0.058 0.23438,-0.0859 V 157.25 Z"
         sodipodi:nodetypes="scscscscsscscscscsssssscscsssssscscscccccccccccccscscscscsscscscscsssssscscscccccccccccccccccccccccccccccccccscccscscsccccccccc" />
    </g>
    <g
       inkscape:groupmode="layer"
       id="layer4"
       inkscape:label="Trim"
       style="display:inline">
      <path
         id="path98"
         style="fill:#4294ee;fill-opacity:1;stroke-linecap:round;stroke-linejoin:round"
         d="m 128,11.248047 c -4.76197,0 -9.52318,1.825925 -13.17188,5.474609 L 16.722656,114.82812 c -7.2973696,7.29739 -7.2973674,19.04638 0,26.34376 l 98.105464,98.10546 c 7.29739,7.29738 19.04638,7.29738 26.34376,0 l 98.10546,-98.10546 c 7.29725,-7.29726 7.29957,-19.04648 0.002,-26.34376 L 141.17188,16.722656 C 137.52319,13.073972 132.76197,11.248047 128,11.248047 Z m 0,16 c 0.67195,0 1.24261,0.174254 1.85742,0.789062 l 98.10742,98.105471 a 16.0016,16.0016 0 0 0 0.002,0 c 1.22423,1.22418 1.22263,2.48839 -0.004,3.71484 l -98.10547,98.10547 c -1.22556,1.22556 -2.48927,1.22557 -3.71484,0 L 28.037109,129.85742 c -1.225553,-1.22555 -1.225564,-2.48928 0,-3.71484 L 126.14258,28.037109 c 0.61481,-0.614808 1.18547,-0.789062 1.85742,-0.789062 z" />
    </g>
    <g
       inkscape:groupmode="layer"
       id="g32"
       inkscape:label="Cog"
       style="display:inline;opacity:1">
      <path
         id="path64"
         style="fill:#b3b3b3;fill-opacity:1;stroke-linejoin:round;paint-order:stroke fill markers"
         d="m 140.88281,98.015625 a 12.387338,12.387338 0 0 0 -6.19336,1.660156 l -12.88281,7.437499 a 12.387338,12.387338 0 0 0 -6.19336,10.72656 v 20.32032 a 12.387338,12.387338 0 0 0 18.58008,10.72656 l 30.48047,-17.59766 a 12.387338,12.387338 0 0 0 0,-21.45312 L 147.07617,99.675781 a 12.387338,12.387338 0 0 0 -6.19336,-1.660156 z m 75.30469,0 a 12.387338,12.387338 0 0 0 -6.19336,1.660156 l -17.59766,10.160159 a 12.387338,12.387338 0 0 0 0,21.45312 l 30.48047,17.59766 a 12.387338,12.387338 0 0 0 7.35352,1.33203 l 9.04687,-9.04687 c 0.77654,-0.77654 1.45314,-1.61188 2.06446,-2.47852 a 12.387338,12.387338 0 0 0 0.11328,-0.5332 l 0.002,-20.32032 a 12.387338,12.387338 0 0 0 -0.0879,-0.49804 c -0.61728,-0.87951 -1.30272,-1.72658 -2.08984,-2.51368 l -12.76758,-12.76757 -4.13086,-2.384769 a 12.387338,12.387338 0 0 0 -6.1934,-1.660156 z M 107.94531,160.51172 a 12.387338,12.387338 0 0 0 -6.19336,1.6582 l -17.597653,10.16016 a 12.387338,12.387338 0 0 0 -6.193359,10.72656 v 14.875 a 12.387338,12.387338 0 0 0 2.101562,6.58008 l 4.220703,4.2207 17.468747,10.08594 a 12.387338,12.387338 0 0 0 18.58008,-10.72656 v -35.19532 a 12.387338,12.387338 0 0 0 -10.23633,-12.19726 12.387338,12.387338 0 0 0 -2.15039,-0.1875 z M 128,230.44336 a 12.387338,12.387338 0 0 0 -2.15039,0.1875 12.387338,12.387338 0 0 0 -9.80469,9.74805 c 7.33366,6.16504 18.22103,5.80437 25.12696,-1.10157 l 1.99414,-1.99414 -8.97266,-5.18164 A 12.387338,12.387338 0 0 0 128,230.44336 Z" />
      <path
         id="path28"
         style="fill:#b3b3b3;fill-opacity:1;stroke:none;stroke-width:14.469;stroke-linecap:square;stroke-linejoin:round;stroke-miterlimit:4;stroke-dasharray:none;paint-order:stroke fill markers"
         d="m 174.64844,115.64258 a 74.951025,74.951726 89.917734 0 0 -61.02344,37.37695 74.951025,74.951726 89.917734 0 0 13.39844,91.68359 c 5.08198,0.26687 10.24998,-1.52732 14.14844,-5.42578 l 22.66601,-22.66601 a 29.980409,29.980691 89.917863 0 1 -0.29297,-0.1543 29.980409,29.980691 89.917863 0 1 -10.97461,-40.95312 29.980409,29.980691 89.917863 0 1 40.9043,-11.00196 29.980409,29.980691 89.917863 0 1 0.0508,0.0293 29.980409,29.980691 89.917863 0 1 11.00391,11.38867 l 32.27343,-32.27344 a 74.951025,74.951726 89.917734 0 0 -20.79101,-18.0625 74.951025,74.951726 89.917734 0 0 -0.4375,-0.25 74.951025,74.951726 89.917734 0 0 -40.92578,-9.6914 z" />
      <path
         id="path29"
         style="fill:#e6e6e6;fill-opacity:1;stroke:none;stroke-width:11.8663;stroke-linecap:square;stroke-linejoin:round;stroke-miterlimit:4;stroke-dasharray:none;paint-order:stroke fill markers"
         d="m 175.34766,129.11719 a 61.460363,61.45969 6.2053056 0 0 -50.03907,30.64843 61.460363,61.45969 6.2053056 0 0 15.89063,79.48438 l 26.72851,-26.72852 a 24.584152,24.583875 6.8107725 0 1 -1.68164,-0.73437 24.584152,24.583875 6.8107725 0 1 -8.99804,-33.58203 24.584152,24.583875 6.8107725 0 1 33.54101,-9.02344 24.584152,24.583875 6.8107725 0 1 0.041,0.0234 24.584152,24.583875 6.8107725 0 1 9.82031,10.59375 l 26.67578,-26.67578 a 61.460363,61.45969 6.2053056 0 0 -18.06055,-15.85352 61.460363,61.45969 6.2053056 0 0 -0.35742,-0.20703 61.460363,61.45969 6.2053056 0 0 -33.56054,-7.94531 z" />
      <path
         id="path30"
         style="color:#000000;font-style:normal;font-variant:normal;font-weight:normal;font-stretch:normal;font-size:medium;line-height:normal;font-family:sans-serif;font-variant-ligatures:normal;font-variant-position:normal;font-variant-caps:normal;font-variant-numeric:normal;font-variant-alternates:normal;font-variant-east-asian:normal;font-feature-settings:normal;font-variation-settings:normal;text-indent:0;text-align:start;text-decoration:none;text-decoration-line:none;text-decoration-style:solid;text-decoration-color:#000000;letter-spacing:normal;word-spacing:normal;text-transform:none;writing-mode:lr-tb;direction:ltr;text-orientation:mixed;dominant-baseline:auto;baseline-shift:baseline;text-anchor:start;white-space:normal;shape-padding:0;shape-margin:0;inline-size:0;clip-rule:nonzero;display:inline;overflow:visible;visibility:visible;isolation:auto;mix-blend-mode:normal;color-interpolation:sRGB;color-interpolation-filters:linearRGB;solid-color:#000000;solid-opacity:1;vector-effect:none;fill:#b3b3b3;fill-opacity:1;fill-rule:nonzero;stroke:none;stroke-width:5.01386;stroke-linecap:square;stroke-linejoin:round;stroke-miterlimit:4;stroke-dasharray:none;stroke-dashoffset:0;stroke-opacity:1;paint-order:stroke fill markers;color-rendering:auto;image-rendering:auto;shape-rendering:auto;text-rendering:auto;enable-background:accumulate;stop-color:#000000"
         d="m 179.21289,163.24414 c -9.64793,-0.23784 -19.12142,4.67126 -24.28516,13.61524 -7.52126,13.02726 -3.05667,29.68574 9.97071,37.20703 0.31757,0.18335 0.63923,0.35428 0.96094,0.52343 l 4.98828,-4.98828 c -0.89237,-0.36177 -1.77298,-0.78482 -2.63282,-1.28125 -9.92298,-5.72896 -13.26798,-18.22363 -7.53906,-28.14648 3.7543,-6.50273 10.4177,-10.17881 17.35742,-10.32813 0.99139,-0.0214 1.98542,0.0296 2.98047,0.1543 2.65352,0.33247 5.28559,1.18982 7.76563,2.61523 0.0116,0.007 0.0265,0.0113 0.0391,0.0195 4.18122,2.414 7.18832,6.03069 8.84766,10.14843 l 4.96484,-4.96484 c -2.31287,-4.41487 -5.85848,-8.25134 -10.49414,-10.92774 l -0.0469,-0.0293 h -0.002 c -4.06953,-2.33849 -8.49029,-3.50907 -12.875,-3.61719 z" />
      <path
         id="path65"
         style="fill:#e6e6e6;stroke-linejoin:round;paint-order:stroke fill markers"
         d="M 140.88281,110.40234 128,117.83984 v 20.32032 l 30.48047,-17.59766 z m 75.30469,0 -17.59766,10.16016 30.48047,17.59766 v -20.32032 z m -108.24219,62.49414 -17.597654,10.16016 v 14.875 L 107.94531,208.0918 Z M 128,242.82812 V 244.75 c 0.9706,0 1.93922,-0.0964 2.90039,-0.24805 z" />
    </g>
    <g
       inkscape:groupmode="layer"
       id="layer6"
       inkscape:label="Small trim"
       style="display:inline">
      <path
         id="path107"
         style="display:inline;fill:#4294ee;fill-opacity:1;stroke-linecap:round;stroke-linejoin:round;enable-background:new"
         d="m 128,11.248047 c -4.76197,0 -9.52318,1.825925 -13.17188,5.474609 L 16.722656,114.82812 c -7.2973696,7.29739 -7.2973674,19.04638 0,26.34376 l 98.105464,98.10546 c 7.29739,7.29738 19.04638,7.29738 26.34376,0 l 98.10546,-98.10546 c 7.29725,-7.29726 7.29957,-19.04648 0.002,-26.34376 L 141.17188,16.722656 C 137.52319,13.073972 132.76197,11.248047 128,11.248047 Z m 0,8 c 2.71696,0 5.38388,0.999113 7.51562,3.130859 l 98.10743,98.105474 c 4.26092,4.26072 4.25993,10.7694 -0.002,15.03124 l -98.10547,98.10547 c -4.26145,4.26147 -10.76977,4.26148 -15.03124,0 L 22.378906,135.51562 c -4.26146,-4.26145 -4.261467,-10.76977 0,-15.03124 L 120.48438,22.378906 C 122.61611,20.24716 125.28304,19.248047 128,19.248047 Z" />
    </g>
    <g
       inkscape:groupmode="layer"
       id="layer2"
       inkscape:label="Highlights"
       style="display:inline;enable-background:new">
      <path
         id="path9"
         style="display:inline;opacity:0.15;fill:#ffffff;fill-opacity:1;stroke:none;stroke-width:39.5303;stroke-linecap:round;stroke-linejoin:round;enable-background:new"
         d="m 11.25,128 c 0,4.7616 1.823972,9.52319 5.472656,13.17188 l 98.105464,98.10546 c 7.29739,7.29738 19.04638,7.29738 26.34376,0 l 98.10546,-98.10546 c 3.64863,-3.64863 5.47407,-8.41026 5.47461,-13.17188 z"
         sodipodi:nodetypes="ccssscc" />
      <path
         id="rect12"
         style="opacity:0.1;fill:#ffffff;fill-opacity:1;stroke:none;stroke-width:60.6551;stroke-linecap:round;stroke-linejoin:round"
         d="M 128,11.248047 V 244.75 c 4.7616,0 9.52319,-1.82397 13.17188,-5.47266 l 98.10546,-98.10546 c 7.29725,-7.29726 7.29961,-19.04649 0.002,-26.34376 L 141.17188,16.722656 C 137.52319,13.073972 132.76197,11.248047 128,11.248047 Z"
         sodipodi:nodetypes="ccssccc" />
      <path
         id="path16"
         style="display:inline;opacity:0.2;fill:#ffffff;fill-opacity:1;stroke:none;stroke-width:39.5303;stroke-linecap:round;stroke-linejoin:round;enable-background:new"
         d="m 128,11.248047 c -4.76197,0 -9.52318,1.825925 -13.17188,5.474609 L 16.722656,114.82812 c -3.90446,3.90447 -5.697534,9.08234 -5.423828,14.17188 0.237845,-4.42272 2.030919,-8.77896 5.423828,-12.17188 L 114.82812,18.722656 c 3.6487,-3.648684 8.40991,-5.474609 13.17188,-5.474609 4.76197,0 9.52319,1.825925 13.17188,5.474609 l 98.10742,98.105464 c 3.39302,3.39287 5.18648,7.74914 5.42382,12.17188 0.27429,-5.08956 -1.51923,-10.26747 -5.42382,-14.17188 L 141.17188,16.722656 C 137.52319,13.073972 132.76197,11.248047 128,11.248047 Z" />
    </g>
  </g>
</svg>
