<?xml version="1.0" encoding="UTF-8" standalone="no"?>
<svg
   width="256"
   height="256"
   id="svg11300"
   sodipodi:version="0.32"
   sodipodi:docname="application-x-desktop.svg"
   version="1.0"
   style="display:inline;enable-background:new"
   inkscape:version="1.3 (0e150ed6c4, 2023-07-21)"
   xmlns:inkscape="http://www.inkscape.org/namespaces/inkscape"
   xmlns:sodipodi="http://sodipodi.sourceforge.net/DTD/sodipodi-0.dtd"
   xmlns="http://www.w3.org/2000/svg"
   xmlns:svg="http://www.w3.org/2000/svg">
  <sodipodi:namedview
     stroke="#ef2929"
     fill="#f57900"
     id="base"
     pagecolor="#cccccc"
     bordercolor="#666666"
     borderopacity="1"
     inkscape:pageopacity="0"
     inkscape:pageshadow="2"
     inkscape:zoom="1.972793"
     inkscape:cx="68.684349"
     inkscape:cy="120.89459"
     inkscape:current-layer="layer1"
     showgrid="false"
     inkscape:grid-bbox="true"
     inkscape:document-units="px"
     inkscape:showpageshadow="true"
     inkscape:window-width="1920"
     inkscape:window-height="1011"
     inkscape:window-x="1920"
     inkscape:window-y="32"
     width="400px"
     height="300px"
     inkscape:snap-nodes="true"
     inkscape:snap-bbox="true"
     gridtolerance="10000"
     inkscape:object-nodes="true"
     inkscape:snap-grids="true"
     showguides="true"
     inkscape:guide-bbox="true"
     inkscape:window-maximized="1"
     inkscape:bbox-paths="true"
     inkscape:snap-bbox-midpoints="true"
     inkscape:snap-global="true"
     inkscape:object-paths="true"
     inkscape:snap-intersection-paths="true"
     inkscape:snap-smooth-nodes="true"
     inkscape:pagecheckerboard="false"
     showborder="true"
     inkscape:document-rotation="0"
     objecttolerance="20"
     inkscape:deskcolor="#d1d1d1" />
  <defs
     id="defs3" />
  <g
     style="display:inline"
     inkscape:groupmode="layer"
     inkscape:label="Icon"
     id="layer1">
    <g
       inkscape:groupmode="layer"
       id="layer4-6"
       inkscape:label="Shadow"
       style="display:inline;opacity:0.4;enable-background:new">
      <path
         id="rect3"
         style="display:inline;opacity:0.4;fill:#000000;stroke-width:6.64319;stroke-linecap:round;stroke-linejoin:round;paint-order:stroke markers fill;enable-background:new"
         d="m 40,128 v 97.37109 C 40,235.69114 48.308858,244 58.628906,244 H 197.37109 C 207.69114,244 216,235.69114 216,225.37109 V 128 Z" />
    </g>
    <g
       inkscape:groupmode="layer"
       id="layer2-7"
       inkscape:label="Background"
       style="display:inline;enable-background:new">
      <path
         id="rect2"
         style="display:inline;fill:#f9f9f9;stroke-width:6.64319;stroke-linecap:round;stroke-linejoin:round;paint-order:stroke markers fill;enable-background:new"
         d="M 58.628906,16 C 48.308869,16 40,24.308869 40,34.628906 V 221.37109 C 40,231.69113 48.308869,240 58.628906,240 H 197.37109 C 207.69113,240 216,231.69113 216,221.37109 V 34.628906 C 216,24.309027 207.69294,16 197.37305,16 Z"
         sodipodi:nodetypes="sssssssss" />
    </g>
    <g
       inkscape:groupmode="layer"
       id="layer8"
       inkscape:label="Graphic"
       style="display:inline;opacity:1">
      <g
         id="g913">
        <g
           id="g900">
          <path
             id="path1891"
             style="fill:#cccccc;fill-opacity:1;stroke:#b3b3b3;stroke-width:14.939;stroke-linecap:butt;stroke-linejoin:round;stroke-miterlimit:4;stroke-dasharray:none;stroke-opacity:1;paint-order:stroke fill markers"
             d="m 150.70662,79.700544 -10.61224,6.127049 18.38101,10.612283 7e-5,-12.253984 z" />
          <path
             id="path1893"
             style="fill:#cccccc;fill-opacity:1;stroke:#b3b3b3;stroke-width:14.939;stroke-linecap:butt;stroke-linejoin:round;stroke-miterlimit:4;stroke-dasharray:none;stroke-opacity:1;paint-order:stroke fill markers"
             d="m 97.5248,171.81418 5.8e-5,-12.25399 18.381012,10.61229 -10.61222,6.12705 z" />
          <path
             id="path1895"
             style="fill:#cccccc;fill-opacity:1;stroke:#b3b3b3;stroke-width:14.939;stroke-linecap:butt;stroke-linejoin:round;stroke-miterlimit:4;stroke-dasharray:none;stroke-opacity:1;paint-order:stroke fill markers"
             d="m 181.18182,123.51473 -10.61229,-6.12694 -10e-6,21.22458 10.61229,-6.12693 z" />
          <path
             id="path1897"
             style="fill:#cccccc;fill-opacity:1;stroke:#b3b3b3;stroke-width:14.939;stroke-linecap:butt;stroke-linejoin:round;stroke-miterlimit:4;stroke-dasharray:none;stroke-opacity:1;paint-order:stroke fill markers"
             d="m 74.818229,123.51476 10.612291,-6.12695 -6e-6,21.22458 -10.612288,-6.12693 z" />
          <path
             id="path1899"
             style="fill:#cccccc;fill-opacity:1;stroke:#b3b3b3;stroke-width:14.939;stroke-linecap:butt;stroke-linejoin:round;stroke-miterlimit:4;stroke-dasharray:none;stroke-opacity:1;paint-order:stroke fill markers"
             d="m 158.47529,171.81416 -5e-5,-12.254 -18.38102,10.61229 10.61222,6.12705 z" />
          <path
             id="path1901"
             style="fill:#cccccc;fill-opacity:1;stroke:#b3b3b3;stroke-width:14.939;stroke-linecap:butt;stroke-linejoin:round;stroke-miterlimit:4;stroke-dasharray:none;stroke-opacity:1;paint-order:stroke fill markers"
             d="m 105.29352,79.700541 10.61223,6.127042 -18.381019,10.612293 -6.7e-5,-12.253984 z" />
        </g>
        <g
           id="g874">
          <path
             id="path1905-0"
             style="fill:#b3b3b3;fill-opacity:1;stroke:none;stroke-width:8.72562;stroke-linecap:square;stroke-linejoin:round;stroke-miterlimit:4;stroke-dasharray:none;paint-order:stroke fill markers"
             d="M 150.33702,88.704613 A 45.199567,45.19999 89.917734 0 0 88.855694,105.40065 45.199567,45.19999 89.917734 0 0 105.40004,167.1444 45.199567,45.19999 89.917734 0 0 167.14438,150.6002 45.199567,45.19999 89.917734 0 0 150.60003,88.856456 45.199567,45.19999 89.917734 0 0 150.33704,88.70461 Z m -13.32757,23.620577 a 18.079826,18.079996 89.917863 0 1 0.0306,0.0175 18.079826,18.079996 89.917863 0 1 6.61773,24.6975 18.079826,18.079996 89.917863 0 1 -24.69774,6.61767 18.079826,18.079996 89.917863 0 1 -6.61773,-24.6975 18.079826,18.079996 89.917863 0 1 24.66715,-6.63533 z" />
          <path
             id="path1907"
             style="fill:#e6e6e6;fill-opacity:1;stroke:none;stroke-width:7.15605;stroke-linecap:square;stroke-linejoin:round;stroke-miterlimit:4;stroke-dasharray:none;paint-order:stroke fill markers"
             d="m 146.31634,95.778092 a 37.06396,37.063554 6.2053056 0 0 -50.414737,13.690648 37.06396,37.063554 6.2053056 0 0 13.566487,50.62975 37.06396,37.063554 6.2053056 0 0 50.63023,-13.56611 37.06396,37.063554 6.2053056 0 0 -13.56635,-50.629794 37.06396,37.063554 6.2053056 0 0 -0.21535,-0.124331 z m -10.92888,19.368578 a 14.825588,14.825421 6.8107725 0 1 0.0272,0.0157 14.825588,14.825421 6.8107725 0 1 5.42651,20.252 14.825588,14.825421 6.8107725 0 1 -20.25212,5.42634 14.825588,14.825421 6.8107725 0 1 -5.42661,-20.25184 14.825588,14.825421 6.8107725 0 1 20.22711,-5.44101 z" />
          <path
             id="path1029"
             style="color:#000000;font-style:normal;font-variant:normal;font-weight:normal;font-stretch:normal;font-size:medium;line-height:normal;font-family:sans-serif;font-variant-ligatures:normal;font-variant-position:normal;font-variant-caps:normal;font-variant-numeric:normal;font-variant-alternates:normal;font-variant-east-asian:normal;font-feature-settings:normal;font-variation-settings:normal;text-indent:0;text-align:start;text-decoration:none;text-decoration-line:none;text-decoration-style:solid;text-decoration-color:#000000;letter-spacing:normal;word-spacing:normal;text-transform:none;writing-mode:lr-tb;direction:ltr;text-orientation:mixed;dominant-baseline:auto;baseline-shift:baseline;text-anchor:start;white-space:normal;shape-padding:0;shape-margin:0;inline-size:0;clip-rule:nonzero;display:inline;overflow:visible;visibility:visible;isolation:auto;mix-blend-mode:normal;color-interpolation:sRGB;color-interpolation-filters:linearRGB;solid-color:#000000;solid-opacity:1;vector-effect:none;fill:#b3b3b3;fill-opacity:1;fill-rule:nonzero;stroke:none;stroke-width:3.02363;stroke-linecap:square;stroke-linejoin:round;stroke-miterlimit:4;stroke-dasharray:none;stroke-dashoffset:0;stroke-opacity:1;paint-order:stroke fill markers;color-rendering:auto;image-rendering:auto;shape-rendering:auto;text-rendering:auto;enable-background:accumulate;stop-color:#000000"
             d="m 128.40941,111.56717 c -5.81823,-0.14343 -11.53128,2.81723 -14.6453,8.21094 -4.53573,7.85616 -1.84373,17.90175 6.01249,22.4375 7.85621,4.5358 17.90322,1.84363 22.43906,-6.01249 4.53587,-7.85617 1.84378,-17.90171 -6.01249,-22.43751 l -0.0282,-0.0172 h -0.002 c -2.45415,-1.41024 -5.11985,-2.11606 -7.76407,-2.18126 z m -0.7125,3.98126 c 0.59786,-0.0129 1.19836,0.017 1.79843,0.0922 1.60022,0.2005 3.18722,0.71853 4.68282,1.57813 0.007,0.004 0.0158,0.006 0.0234,0.011 5.98415,3.45492 8.0034,10.98942 4.54844,16.97344 -3.45493,5.98398 -10.98934,8.0018 -16.97343,4.54687 -5.9841,-3.45488 -8.00172,-10.98942 -4.54687,-16.97344 2.26405,-3.9215 6.28215,-6.13807 10.46718,-6.22812 z" />
        </g>
      </g>
    </g>
    <g
       inkscape:groupmode="layer"
       id="layer3-3"
       inkscape:label="Highlights"
       style="display:inline;enable-background:new">
      <path
         id="path3"
         style="display:inline;opacity:0.2;fill:#ffffff;stroke-width:6.64319;stroke-linecap:round;stroke-linejoin:round;paint-order:stroke markers fill;enable-background:new"
         d="m 40,128 v 93.37109 C 40,231.69113 48.308869,240 58.628906,240 H 197.37109 C 207.69113,240 216,231.69113 216,221.37109 V 128 Z" />
      <path
         id="path8"
         style="display:inline;opacity:0.6;fill:#ffffff;stroke-width:6.64319;stroke-linecap:round;stroke-linejoin:round;paint-order:stroke markers fill;enable-background:new"
         d="m 216,180 -60,60 h 41.37109 C 207.69113,240 216,231.69113 216,221.37109 Z" />
      <path
         id="path1"
         style="display:inline;opacity:0.6;fill:#ffffff;stroke-width:6.64319;stroke-linecap:round;stroke-linejoin:round;paint-order:stroke markers fill;enable-background:new"
         d="M 58.628906,16 C 48.308891,16 40,24.308891 40,34.628906 v 2 C 40,26.308891 48.308891,18 58.628906,18 H 197.37109 C 207.69111,18 216,26.308891 216,36.628906 v -2 C 216,24.308891 207.69111,16 197.37109,16 Z"
         sodipodi:nodetypes="sscsscsss" />
      <path
         id="path2"
         style="display:inline;opacity:0.1;fill:#ffffff;stroke-width:6.64319;stroke-linecap:round;stroke-linejoin:round;paint-order:stroke markers fill;enable-background:new"
         d="m 128,16 v 224 h 69.37109 C 207.69112,240 216,231.69112 216,221.37109 V 34.628906 C 216,24.309038 207.69293,16 197.37305,16 Z" />
    </g>
  </g>
</svg>
