<?xml version="1.0" encoding="UTF-8" standalone="no"?>
<svg
   width="256"
   height="256"
   id="svg11300"
   sodipodi:version="0.32"
   sodipodi:docname="application-x-theme.svg"
   version="1.0"
   style="display:inline;enable-background:new"
   inkscape:version="1.4 (e7c3feb100, 2024-10-09)"
   xmlns:inkscape="http://www.inkscape.org/namespaces/inkscape"
   xmlns:sodipodi="http://sodipodi.sourceforge.net/DTD/sodipodi-0.dtd"
   xmlns="http://www.w3.org/2000/svg"
   xmlns:svg="http://www.w3.org/2000/svg"
   xmlns:rdf="http://www.w3.org/1999/02/22-rdf-syntax-ns#"
   xmlns:cc="http://creativecommons.org/ns#"
   xmlns:dc="http://purl.org/dc/elements/1.1/">
  <title
     id="title3004">Suru Icon Theme Template</title>
  <sodipodi:namedview
     stroke="#ef2929"
     fill="#f57900"
     id="base"
     pagecolor="#cccccc"
     bordercolor="#666666"
     borderopacity="1"
     inkscape:pageopacity="0"
     inkscape:pageshadow="2"
     inkscape:zoom="2"
     inkscape:cx="108.5"
     inkscape:cy="123"
     inkscape:current-layer="layer1"
     showgrid="false"
     inkscape:grid-bbox="true"
     inkscape:document-units="px"
     inkscape:showpageshadow="true"
     inkscape:window-width="1920"
     inkscape:window-height="1043"
     inkscape:window-x="0"
     inkscape:window-y="0"
     width="400px"
     height="300px"
     inkscape:snap-nodes="true"
     inkscape:snap-bbox="true"
     gridtolerance="10000"
     inkscape:object-nodes="true"
     inkscape:snap-grids="true"
     showguides="false"
     inkscape:guide-bbox="true"
     inkscape:window-maximized="1"
     inkscape:bbox-paths="true"
     inkscape:snap-bbox-midpoints="true"
     inkscape:snap-global="true"
     inkscape:object-paths="true"
     inkscape:snap-intersection-paths="true"
     inkscape:snap-smooth-nodes="true"
     inkscape:pagecheckerboard="false"
     showborder="true"
     inkscape:bbox-nodes="true"
     inkscape:measure-start="0,0"
     inkscape:measure-end="0,0"
     inkscape:document-rotation="0"
     inkscape:deskcolor="#d1d1d1">
    <inkscape:grid
       spacingy="1"
       spacingx="1"
       id="grid5883"
       type="xygrid"
       enabled="true"
       visible="false"
       empspacing="4"
       snapvisiblegridlinesonly="true"
       originx="0"
       originy="0"
       units="px" />
    <inkscape:grid
       type="xygrid"
       id="grid11592"
       empspacing="2"
       visible="false"
       enabled="true"
       spacingx="0.5"
       spacingy="0.5"
       color="#ff0000"
       opacity="0.1254902"
       empcolor="#ff0000"
       empopacity="0.25098039"
       snapvisiblegridlinesonly="true"
       originx="0"
       originy="0"
       dotted="true"
       units="px" />
  </sodipodi:namedview>
  <defs
     id="defs3" />
  <g
     style="display:inline"
     inkscape:groupmode="layer"
     inkscape:label="Icon"
     id="layer1">
    <g
       inkscape:groupmode="layer"
       id="layer4-6"
       inkscape:label="Shadow"
       style="display:inline;opacity:0.4;enable-background:new">
      <path
         id="rect3"
         style="display:inline;opacity:0.4;fill:#000000;stroke-width:6.64319;stroke-linecap:round;stroke-linejoin:round;paint-order:stroke markers fill;enable-background:new"
         d="m 40,128 v 97.37109 C 40,235.69114 48.308858,244 58.628906,244 H 197.37109 C 207.69114,244 216,235.69114 216,225.37109 V 128 Z" />
    </g>
    <g
       inkscape:groupmode="layer"
       id="layer2-7"
       inkscape:label="Background"
       style="display:inline;enable-background:new">
      <path
         id="rect2"
         style="display:inline;fill:#f9f9f9;stroke-width:6.64319;stroke-linecap:round;stroke-linejoin:round;paint-order:stroke markers fill;enable-background:new"
         d="M 58.628906,16 C 48.308869,16 40,24.308869 40,34.628906 V 221.37109 C 40,231.69113 48.308869,240 58.628906,240 H 197.37109 C 207.69113,240 216,231.69113 216,221.37109 V 34.628906 C 216,24.309027 207.69294,16 197.37305,16 Z"
         sodipodi:nodetypes="sssssssss" />
    </g>
    <g
       inkscape:groupmode="layer"
       id="g44"
       inkscape:label="Graphic"
       style="display:inline">
      <g
         id="g46">
        <g
           id="g37"
           transform="matrix(1,0,0,1.0000017,0,26.130815)"
           style="opacity:0.75">
          <path
             id="path31"
             style="fill:#ff0000;stroke-width:7.83419;stroke-linejoin:round;paint-order:stroke fill markers"
             d="m 96.108817,25.869141 c -4.637363,0 -8.370536,3.266525 -8.370536,7.324218 V 64.90625 c 0,4.057693 3.733173,7.324219 8.370536,7.324219 h 3.058036 V 25.869141 Z" />
          <path
             id="path32"
             style="fill:#ff8200;fill-opacity:1;stroke-width:7.83419;stroke-linejoin:round;paint-order:stroke fill markers"
             d="M 99.166853,25.869141 V 72.230469 H 110.59542 V 25.869141 Z" />
          <path
             id="path33"
             style="fill:#ffff00;stroke-width:7.83419;stroke-linejoin:round;paint-order:stroke fill markers"
             d="m 110.59542,25.869141 v 46.361328 h 11.42857 V 25.869141 Z" />
          <path
             id="path34"
             style="fill:#00ff00;stroke-width:7.83419;stroke-linejoin:round;paint-order:stroke fill markers"
             d="m 122.02399,25.869141 v 46.361328 h 11.42858 V 25.869141 Z" />
          <path
             id="path35"
             style="fill:#00ffff;stroke-width:7.83419;stroke-linejoin:round;paint-order:stroke fill markers"
             d="m 133.45257,25.869141 v 46.361328 h 11.42857 V 25.869141 Z" />
          <path
             id="path36"
             style="fill:#860cb4;fill-opacity:1;stroke-width:7.83419;stroke-linejoin:round;paint-order:stroke fill markers"
             d="m 144.88114,25.869141 v 46.361328 h 11.42857 V 25.869141 Z" />
          <path
             id="path37"
             style="fill:#ff00c6;fill-opacity:1;stroke-width:7.83419;stroke-linejoin:round;paint-order:stroke fill markers"
             d="m 156.30971,25.869141 v 46.361328 h 3.05803 c 4.63738,0 8.37054,-3.266526 8.37054,-7.324219 V 33.193359 c 0,-4.057693 -3.73316,-7.324218 -8.37054,-7.324218 z" />
        </g>
        <g
           id="g45">
          <path
             id="path41"
             style="fill:#bbbbbb;fill-opacity:1;stroke:none;stroke-width:23.1931;stroke-linecap:round;stroke-linejoin:round"
             d="M 88.03442,76 C 83.58247,76 80,79.26652 80,83.324219 V 108.67578 C 80,112.73348 83.58247,116 88.03442,116 h 79.93116 C 172.41753,116 176,112.73348 176,108.67578 V 83.324219 C 176,79.266519 172.41753,76 167.96558,76 Z"
             sodipodi:nodetypes="sssssssss" />
          <path
             id="path42"
             style="fill:#bbbbbb;fill-opacity:1;stroke-width:0.999943;stroke-linecap:round;stroke-linejoin:round"
             d="M 121.80664 140 C 120.6866 140.00038 119.74159 140.87731 119.40039 141.82422 L 113.09375 159.32422 C 113.02995 159.55158 113.00423 159.77772 113.00391 160 L 113 160 L 113 202.5 C 113.00013 203.88065 114.11934 204.99986 115.5 205 L 140.5 205 C 141.88065 204.99986 142.99986 203.88065 143 202.5 L 143 160 L 142.99609 160 C 142.9958 159.77763 142.97008 159.55169 142.90625 159.32422 C 142.90625 159.32422 142.89754 159.31312 136.59961 141.82422 C 136.25844 140.87675 135.31217 139.99951 134.19141 140 L 121.80664 140 z " />
          <path
             style="fill:#bbbbbb;stroke-linejoin:round"
             d="m 176,93 v 6 h 7 v 28 h -55 a 3.0003,3.0003 0 0 0 -3,3 v 10 h 6 v -7 h 55 a 3.0003,3.0003 0 0 0 3,-3 V 96 a 3.0003,3.0003 0 0 0 -3,-3 z"
             id="path44" />
        </g>
      </g>
    </g>
    <g
       inkscape:groupmode="layer"
       id="layer3-3"
       inkscape:label="Highlights"
       style="display:inline;enable-background:new">
      <path
         id="path3"
         style="display:inline;opacity:0.2;fill:#ffffff;stroke-width:6.64319;stroke-linecap:round;stroke-linejoin:round;paint-order:stroke markers fill;enable-background:new"
         d="m 40,128 v 93.37109 C 40,231.69113 48.308869,240 58.628906,240 H 197.37109 C 207.69113,240 216,231.69113 216,221.37109 V 128 Z" />
      <path
         id="path8"
         style="display:inline;opacity:0.6;fill:#ffffff;stroke-width:6.64319;stroke-linecap:round;stroke-linejoin:round;paint-order:stroke markers fill;enable-background:new"
         d="m 216,180 -60,60 h 41.37109 C 207.69113,240 216,231.69113 216,221.37109 Z" />
      <path
         id="path1"
         style="display:inline;opacity:0.6;fill:#ffffff;stroke-width:6.64319;stroke-linecap:round;stroke-linejoin:round;paint-order:stroke markers fill;enable-background:new"
         d="M 58.628906,16 C 48.308891,16 40,24.308891 40,34.628906 v 2 C 40,26.308891 48.308891,18 58.628906,18 H 197.37109 C 207.69111,18 216,26.308891 216,36.628906 v -2 C 216,24.308891 207.69111,16 197.37109,16 Z"
         sodipodi:nodetypes="sscsscsss" />
      <path
         id="path2"
         style="display:inline;opacity:0.1;fill:#ffffff;stroke-width:6.64319;stroke-linecap:round;stroke-linejoin:round;paint-order:stroke markers fill;enable-background:new"
         d="m 128,16 v 224 h 69.37109 C 207.69112,240 216,231.69112 216,221.37109 V 34.628906 C 216,24.309038 207.69293,16 197.37305,16 Z" />
    </g>
  </g>
  <metadata
     id="metadata1">
    <rdf:RDF>
      <cc:Work
         rdf:about="">
        <dc:title>Suru Icon Theme Template</dc:title>
      </cc:Work>
    </rdf:RDF>
  </metadata>
</svg>
