<?xml version="1.0" encoding="UTF-8" standalone="no"?>
<svg
   style="display:inline;enable-background:new"
   version="1.0"
   sodipodi:docname="application-x-qemu-disk.svg"
   sodipodi:version="0.32"
   id="svg11300"
   height="256"
   width="256"
   xmlns:inkscape="http://www.inkscape.org/namespaces/inkscape"
   xmlns:sodipodi="http://sodipodi.sourceforge.net/DTD/sodipodi-0.dtd"
   xmlns="http://www.w3.org/2000/svg"
   xmlns:svg="http://www.w3.org/2000/svg">
  <title
     id="title3004">Suru Icon Theme Template</title>
  <sodipodi:namedview
     inkscape:document-rotation="0"
     showborder="true"
     inkscape:pagecheckerboard="false"
     inkscape:snap-smooth-nodes="true"
     inkscape:snap-intersection-paths="true"
     inkscape:object-paths="true"
     inkscape:snap-global="true"
     inkscape:snap-bbox-midpoints="true"
     inkscape:bbox-paths="true"
     inkscape:window-maximized="1"
     inkscape:guide-bbox="true"
     showguides="true"
     inkscape:snap-grids="true"
     inkscape:object-nodes="true"
     gridtolerance="10000"
     inkscape:snap-bbox="true"
     inkscape:snap-nodes="true"
     height="300px"
     width="400px"
     inkscape:window-y="27"
     inkscape:window-x="1920"
     inkscape:window-height="1016"
     inkscape:window-width="1920"
     inkscape:showpageshadow="true"
     inkscape:document-units="px"
     inkscape:grid-bbox="true"
     showgrid="false"
     inkscape:current-layer="layer6"
     inkscape:cy="181.81792"
     inkscape:cx="91.931738"
     inkscape:zoom="2.0000001"
     inkscape:pageshadow="2"
     inkscape:pageopacity="0"
     borderopacity="1"
     bordercolor="#666666"
     pagecolor="#ffffff"
     id="base"
     fill="#f57900"
     stroke="#ef2929"
     inkscape:deskcolor="#d1d1d1">
    <inkscape:grid
       dotted="false"
       originy="0"
       originx="0"
       snapvisiblegridlinesonly="true"
       empspacing="4"
       visible="false"
       enabled="true"
       type="xygrid"
       id="grid5883"
       spacingx="1"
       spacingy="1"
       units="px" />
    <inkscape:grid
       dotted="true"
       originy="0"
       originx="0"
       snapvisiblegridlinesonly="true"
       empopacity="0.25098039"
       empcolor="#ff0000"
       opacity="0.1254902"
       color="#ff0000"
       spacingy="0.5"
       spacingx="0.5"
       enabled="false"
       visible="false"
       empspacing="0"
       id="grid11592"
       type="xygrid"
       units="px" />
  </sodipodi:namedview>
  <defs
     id="defs3" />
  <g
     id="layer1"
     inkscape:label="Icon"
     inkscape:groupmode="layer"
     style="display:inline">
    <g
       inkscape:groupmode="layer"
       id="layer3"
       inkscape:label="Shadow"
       style="display:inline;opacity:0.4">
      <path
         sodipodi:nodetypes="scccssscsss"
         inkscape:connector-curvature="0"
         id="path848"
         d="m 177.07418,20 c 35.29565,0 39.09341,3.625418 38.92042,38.99353 V 132 205.00647 C 216.16759,240.37459 212.36983,244 177.07418,244 H 78.920423 C 43.624789,244 40,240.375 40,205.00647 V 132 58.99353 C 40,23.624997 43.624789,20 78.920423,20 Z"
         style="color:#000000;display:inline;overflow:visible;visibility:visible;fill:#000000;fill-opacity:1;fill-rule:nonzero;stroke:none;stroke-width:0.999986;stroke-miterlimit:4;stroke-dasharray:none;marker:none;enable-background:accumulate" />
    </g>
    <g
       style="display:inline"
       inkscape:label="Background"
       id="layer2"
       inkscape:groupmode="layer">
      <path
         sodipodi:nodetypes="scccssscsss"
         inkscape:connector-curvature="0"
         id="rect4158"
         d="m 177.07418,16 c 35.29565,0 39.09341,3.625418 38.92042,38.99353 V 128 201.00647 C 216.16759,236.37459 212.36983,240 177.07418,240 H 78.920423 C 43.624789,240 40,236.375 40,201.00647 V 128 54.99353 C 40,19.624997 43.624789,16 78.920423,16 Z"
         style="color:#000000;display:inline;overflow:visible;visibility:visible;fill:#4a4a4a;fill-opacity:1;fill-rule:nonzero;stroke:none;stroke-width:0.999986;stroke-miterlimit:4;stroke-dasharray:none;marker:none;enable-background:accumulate" />
    </g>
    <g
       style="display:inline"
       inkscape:label="Graphic"
       id="layer6"
       inkscape:groupmode="layer">
      <path
         id="path847"
         style="font-style:normal;font-variant:normal;font-weight:normal;font-stretch:normal;font-size:47.9999px;line-height:1.25;font-family:ubuntu;-inkscape-font-specification:'ubuntu, Normal';font-variant-ligatures:normal;font-variant-caps:normal;font-variant-numeric:normal;font-feature-settings:normal;text-align:center;letter-spacing:0px;word-spacing:0px;writing-mode:lr-tb;text-anchor:middle;fill:#ffffff;fill-opacity:1;stroke:none;stroke-width:0.999999"
         d="M 108.15234 190.50195 C 106.71235 190.50195 105.30373 190.77436 103.92773 191.31836 C 102.55173 191.86235 101.33529 192.67763 100.2793 193.76562 C 99.223298 194.85362 98.376327 196.23054 97.736328 197.89453 C 97.096329 199.52653 96.775391 201.4463 96.775391 203.6543 C 96.775391 205.54229 97.016094 207.28672 97.496094 208.88672 C 98.008092 210.45471 98.776783 211.81284 99.800781 212.96484 C 100.82478 214.11684 102.11951 215.02917 103.6875 215.70117 C 105.2875 216.34117 107.17557 216.66211 109.35156 216.66211 C 111.07956 216.66211 112.61694 216.50164 113.96094 216.18164 C 115.33694 215.86165 116.29585 215.55753 116.83984 215.26953 L 116.2168 211.52539 C 115.6728 211.78139 114.85558 212.0538 113.76758 212.3418 C 112.71158 212.5978 111.40002 212.72656 109.83203 212.72656 C 107.04804 212.72656 104.9995 212.05298 103.6875 210.70898 C 102.3755 209.36498 101.62363 207.39863 101.43164 204.80664 L 118.51953 204.80664 C 118.55153 204.55064 118.56836 204.27823 118.56836 203.99023 L 118.56836 203.22266 C 118.56836 198.93466 117.67285 195.74992 115.88086 193.66992 C 114.08886 191.55793 111.51234 190.50195 108.15234 190.50195 z M 81.033203 190.59766 C 79.113207 190.59766 77.383653 190.90177 75.847656 191.50977 C 74.31166 192.11776 73.000107 192.98156 71.912109 194.10156 C 70.824112 195.22156 69.97714 196.59848 69.369141 198.23047 C 68.793142 199.83047 68.503906 201.6383 68.503906 203.6543 C 68.503906 205.54229 68.74461 207.28672 69.224609 208.88672 C 69.736608 210.48671 70.471643 211.86167 71.431641 213.01367 C 72.391639 214.16567 73.55955 215.06117 74.935547 215.70117 C 76.343544 216.34117 77.944332 216.66211 79.736328 216.66211 C 81.176325 216.66211 82.4413 216.46994 83.529297 216.08594 C 84.649295 215.70194 85.479439 215.33442 86.023438 214.98242 L 86.023438 224.96484 L 90.488281 224.96484 L 90.488281 191.89453 C 89.432283 191.63854 88.103903 191.36613 86.503906 191.07812 C 84.93591 190.75812 83.113199 190.59766 81.033203 190.59766 z M 134.88867 190.59766 C 132.68067 190.59766 130.72724 190.7413 129.03125 191.0293 C 127.36725 191.3173 126.02399 191.58971 125 191.8457 L 125 216.08594 L 129.46484 216.08594 L 129.46484 195.01367 C 129.59284 194.98167 129.84842 194.93314 130.23242 194.86914 C 130.61642 194.80514 131.03247 194.75856 131.48047 194.72656 C 131.96047 194.66256 132.45675 194.61403 132.96875 194.58203 C 133.48075 194.55003 133.9602 194.5332 134.4082 194.5332 C 135.4642 194.5332 136.328 194.7105 137 195.0625 C 137.704 195.3825 138.24881 195.89366 138.63281 196.59766 C 139.04881 197.30166 139.33609 198.18228 139.49609 199.23828 C 139.65609 200.29428 139.73633 201.5573 139.73633 203.0293 L 139.73633 216.08594 L 144.19922 216.08594 L 144.19922 202.07031 C 144.19922 200.98232 144.13581 199.94122 144.00781 198.94922 C 143.87981 197.95722 143.68764 197.04488 143.43164 196.21289 C 143.78364 195.89289 144.4404 195.5422 145.40039 195.1582 C 146.39239 194.7422 147.64053 194.5332 149.14453 194.5332 C 150.23252 194.5332 151.1112 194.7105 151.7832 195.0625 C 152.4872 195.3825 153.03202 195.89366 153.41602 196.59766 C 153.83202 197.30166 154.10442 198.18228 154.23242 199.23828 C 154.39242 200.29428 154.47266 201.5573 154.47266 203.0293 L 154.47266 216.08594 L 158.93555 216.08594 L 158.93555 202.07031 C 158.93555 200.40632 158.80873 198.86894 158.55273 197.46094 C 158.32873 196.05294 157.86416 194.83845 157.16016 193.81445 C 156.48816 192.79045 155.54412 192.00493 154.32812 191.46094 C 153.11212 190.88494 151.54499 190.59766 149.625 190.59766 C 148.633 190.59766 147.70384 190.70959 146.83984 190.93359 C 145.97584 191.12559 145.19227 191.3663 144.48828 191.6543 C 143.78428 191.9103 143.19289 192.1827 142.71289 192.4707 C 142.23289 192.7587 141.88025 192.98258 141.65625 193.14258 C 140.92025 192.31058 140.00792 191.68552 138.91992 191.26953 C 137.83192 190.82153 136.48867 190.59766 134.88867 190.59766 z M 166.03906 191.125 L 166.03906 205.14258 C 166.03906 206.83857 166.21636 208.38888 166.56836 209.79688 C 166.92036 211.17287 167.49687 212.37444 168.29688 213.39844 C 169.09687 214.42244 170.15285 215.22088 171.46484 215.79688 C 172.77684 216.34087 174.39251 216.61328 176.3125 216.61328 C 178.5205 216.61328 180.45515 216.46964 182.11914 216.18164 C 183.81514 215.89365 185.17523 215.62123 186.19922 215.36523 L 186.19922 191.125 L 181.73633 191.125 L 181.73633 212.19727 C 181.57633 212.26127 181.30392 212.32663 180.91992 212.39062 C 180.56792 212.42263 180.1687 212.4692 179.7207 212.5332 C 179.2727 212.5652 178.7913 212.59691 178.2793 212.62891 C 177.7673 212.66091 177.27102 212.67773 176.79102 212.67773 C 174.51902 212.67773 172.90336 212.02098 171.94336 210.70898 C 170.98337 209.39698 170.50391 207.22163 170.50391 204.18164 L 170.50391 191.125 L 166.03906 191.125 z M 108.10352 194.29297 C 109.92752 194.29297 111.35296 194.94972 112.37695 196.26172 C 113.43295 197.54171 113.94411 199.18908 113.91211 201.20508 L 101.52734 201.20508 C 101.62334 200.34108 101.81552 199.49411 102.10352 198.66211 C 102.42352 197.83011 102.85639 197.09312 103.40039 196.45312 C 103.94439 195.81313 104.60114 195.30197 105.36914 194.91797 C 106.16913 194.50197 107.07952 194.29297 108.10352 194.29297 z M 81.080078 194.58203 C 82.424075 194.58203 83.465173 194.63056 84.201172 194.72656 C 84.96917 194.82256 85.575438 194.9345 86.023438 195.0625 L 86.023438 210.80664 C 85.479439 211.25463 84.695873 211.68556 83.671875 212.10156 C 82.647877 212.51756 81.528497 212.72656 80.3125 212.72656 C 79.032503 212.72656 77.927998 212.50269 77 212.05469 C 76.104001 211.57469 75.368967 210.93281 74.792969 210.13281 C 74.21697 209.30081 73.800921 208.34191 73.544922 207.25391 C 73.288923 206.13391 73.160156 204.9343 73.160156 203.6543 C 73.160156 200.7423 73.880316 198.50159 75.320312 196.93359 C 76.76031 195.3656 78.680083 194.58203 81.080078 194.58203 z " />
      <path
         style="display:inline;fill:none;stroke:#ffffff;stroke-width:6.68037;stroke-linecap:butt;stroke-linejoin:round;stroke-miterlimit:4;stroke-dasharray:none;stroke-opacity:1;enable-background:new"
         d="m 87.963594,120.25127 c 13.693826,11.29093 33.799566,43.9671 39.582666,43.72494 3.03508,-1.75748 -6.01212,-27.24429 -9.01819,-40.86643 -0.79898,-7.35969 -2.857,-14.62089 2.84025,-20.72788 4.14219,-2.515551 12.77012,-4.722815 21.3439,-11.074648 13.28733,0.498313 24.73487,3.478188 37.7297,4.936267 C 176.73856,90.52838 162.58752,80.73106 151.07243,77.905041 145.11037,71.389413 144.14435,60.773258 120.37202,57.620362 88.521046,55.519444 85.053856,97.79583 87.963594,120.25129 Z"
         id="path859"
         sodipodi:nodetypes="cccccccccc" />
    </g>
    <g
       style="display:inline"
       inkscape:label="Highlights"
       id="layer5"
       inkscape:groupmode="layer">
      <path
         sodipodi:nodetypes="ccssscc"
         id="path4255"
         d="m 40.005395,128 v 73.00683 C 39.83241,236.37495 43.630439,240 78.926081,240 H 177.07932 C 212.37495,240 215.08176,236.36345 216,201.00683 V 128 Z"
         style="color:#000000;display:inline;overflow:visible;visibility:visible;opacity:0.08;fill:#ffffff;fill-opacity:1;fill-rule:nonzero;stroke:none;stroke-width:0.999985;marker:none;enable-background:accumulate"
         inkscape:connector-curvature="0" />
      <path
         inkscape:connector-curvature="0"
         id="path931"
         d="M 78.926081,16 C 43.630436,16 39.83241,19.626029 40.005395,54.994141 v 2 C 39.83241,21.626029 43.630436,18 78.926081,18 H 177.07932 C 212.37496,18 216,21.625608 216,56.994141 v -2 C 216,19.625608 212.37496,16 177.07932,16 Z"
         style="color:#000000;display:inline;overflow:visible;visibility:visible;opacity:0.4;fill:#ffffff;fill-opacity:1;fill-rule:nonzero;stroke:none;stroke-width:0.999985;marker:none;enable-background:accumulate" />
      <path
         sodipodi:nodetypes="ccsscssc"
         inkscape:connector-curvature="0"
         id="path4231"
         d="m 128.0027,16 v 224 h 49.07662 C 212.37495,240 215.08176,236.36345 216,201.00683 V 128 54.993165 C 216,19.624631 212.37495,16 177.07932,16 Z"
         style="color:#000000;display:inline;overflow:visible;visibility:visible;opacity:0.08;fill:#ffffff;fill-opacity:1;fill-rule:nonzero;stroke:none;stroke-width:0.999985;marker:none;enable-background:accumulate" />
      <path
         sodipodi:nodetypes="cccsc"
         inkscape:connector-curvature="0"
         id="path4254"
         d="m 156.00264,240 59.99986,-60 v 22.48388 C 215.95015,236.47969 212.19983,240 177.82849,240 Z"
         style="color:#000000;display:inline;overflow:visible;visibility:visible;opacity:0.08;fill:#ffffff;fill-opacity:1;fill-rule:nonzero;stroke:none;stroke-width:7.99999;stroke-linecap:butt;stroke-linejoin:miter;stroke-miterlimit:4;stroke-dasharray:none;stroke-dashoffset:0;stroke-opacity:1;marker:none;enable-background:accumulate" />
    </g>
  </g>
</svg>
