<?xml version="1.0" encoding="UTF-8" standalone="no"?>
<svg
   width="256"
   height="256"
   id="svg11300"
   sodipodi:version="0.32"
   sodipodi:docname="application-x-mswinurl.svg"
   version="1.0"
   style="display:inline;enable-background:new"
   inkscape:version="1.3 (0e150ed6c4, 2023-07-21)"
   xmlns:inkscape="http://www.inkscape.org/namespaces/inkscape"
   xmlns:sodipodi="http://sodipodi.sourceforge.net/DTD/sodipodi-0.dtd"
   xmlns="http://www.w3.org/2000/svg"
   xmlns:svg="http://www.w3.org/2000/svg">
  <sodipodi:namedview
     stroke="#ef2929"
     fill="#f57900"
     id="base"
     pagecolor="#cccccc"
     bordercolor="#666666"
     borderopacity="1"
     inkscape:pageopacity="0"
     inkscape:pageshadow="2"
     inkscape:zoom="1.9760406"
     inkscape:cx="101.97159"
     inkscape:cy="144.48084"
     inkscape:current-layer="layer1"
     showgrid="false"
     inkscape:grid-bbox="true"
     inkscape:document-units="px"
     inkscape:showpageshadow="true"
     inkscape:window-width="1920"
     inkscape:window-height="1011"
     inkscape:window-x="1920"
     inkscape:window-y="32"
     width="400px"
     height="300px"
     inkscape:snap-nodes="true"
     inkscape:snap-bbox="true"
     gridtolerance="10000"
     inkscape:object-nodes="true"
     inkscape:snap-grids="true"
     showguides="true"
     inkscape:guide-bbox="true"
     inkscape:window-maximized="1"
     inkscape:bbox-paths="true"
     inkscape:snap-bbox-midpoints="true"
     inkscape:snap-global="false"
     inkscape:object-paths="true"
     inkscape:snap-intersection-paths="true"
     inkscape:snap-smooth-nodes="true"
     inkscape:pagecheckerboard="false"
     showborder="true"
     inkscape:document-rotation="0"
     inkscape:deskcolor="#d1d1d1">
    <inkscape:grid
       spacingy="1"
       spacingx="1"
       id="grid5883"
       type="xygrid"
       enabled="true"
       visible="false"
       empspacing="4"
       snapvisiblegridlinesonly="true"
       originx="0"
       originy="0"
       units="px" />
    <inkscape:grid
       type="xygrid"
       id="grid11592"
       empspacing="2"
       visible="false"
       enabled="false"
       spacingx="0.5"
       spacingy="0.5"
       color="#ff0000"
       opacity="0.1254902"
       empcolor="#ff0000"
       empopacity="0.25098039"
       snapvisiblegridlinesonly="true"
       originx="0"
       originy="0"
       units="px" />
  </sodipodi:namedview>
  <defs
     id="defs3" />
  <g
     style="display:inline"
     inkscape:groupmode="layer"
     inkscape:label="Icon"
     id="layer1">
    <g
       inkscape:groupmode="layer"
       id="layer4-6"
       inkscape:label="Shadow"
       style="display:inline;opacity:0.4;enable-background:new">
      <path
         id="rect3"
         style="display:inline;opacity:0.4;fill:#000000;stroke-width:6.64319;stroke-linecap:round;stroke-linejoin:round;paint-order:stroke markers fill;enable-background:new"
         d="m 40,128 v 97.37109 C 40,235.69114 48.308858,244 58.628906,244 H 197.37109 C 207.69114,244 216,235.69114 216,225.37109 V 128 Z" />
    </g>
    <g
       inkscape:groupmode="layer"
       id="layer2-7"
       inkscape:label="Background"
       style="display:inline;enable-background:new">
      <path
         id="rect2"
         style="display:inline;fill:#f9f9f9;stroke-width:6.64319;stroke-linecap:round;stroke-linejoin:round;paint-order:stroke markers fill;enable-background:new"
         d="M 58.628906,16 C 48.308869,16 40,24.308869 40,34.628906 V 221.37109 C 40,231.69113 48.308869,240 58.628906,240 H 197.37109 C 207.69113,240 216,231.69113 216,221.37109 V 34.628906 C 216,24.309027 207.69294,16 197.37305,16 Z"
         sodipodi:nodetypes="sssssssss" />
    </g>
    <g
       inkscape:groupmode="layer"
       id="layer8"
       inkscape:label="Graphic"
       style="display:inline">
      <path
         inkscape:connector-curvature="0"
         d="m 151.44973,104.55691 c 2.71596,2.71593 2.71596,7.11955 0,9.83547 l -37.0508,37.05069 c -2.71594,2.71593 -7.11957,2.71593 -9.83552,0 v 0 c -2.71593,-2.71592 -2.71593,-7.11954 0,-9.83547 l 37.05082,-37.05069 c 2.71595,-2.71592 7.11957,-2.71592 9.8355,0 z m -42.56092,62.34351 c -5.45424,5.45421 -14.328541,5.45421 -19.782781,0 -5.454239,-5.45422 -5.454239,-14.3285 0,-19.78272 l 26.254101,-26.23166 c -8.80726,-2.13474 -18.497459,0.23472 -25.37114,7.10838 l -10.003167,10.00311 c -10.49493,10.49491 -10.49493,27.51697 0,38.01187 10.494938,10.4949 27.517077,10.4949 38.012007,0 L 128.001,166.00628 c 6.87368,-6.87365 9.25431,-16.56383 7.10839,-25.37106 l -26.23175,26.25402 z M 138.00416,79.990588 128.001,89.993709 c -6.88486,6.884841 -9.2655,16.541481 -7.13074,25.359861 l 26.24292,-26.242819 c 5.45424,-5.45422 14.32854,-5.45422 19.78278,0 5.45424,5.454219 5.45424,14.328499 0,19.782719 l -26.24292,26.24283 c 8.80725,2.13475 18.47511,-0.24589 25.35996,-7.13072 l 10.00316,-10.00311 c 10.49493,-10.49492 10.49493,-27.516982 0,-38.011882 -10.49493,-10.494898 -27.51707,-10.494898 -38.012,0 z"
         style="fill:#007aa6;fill-opacity:1;stroke-width:11.1767"
         id="path8" />
    </g>
    <g
       inkscape:groupmode="layer"
       id="layer3-3"
       inkscape:label="Highlights"
       style="display:inline;enable-background:new">
      <path
         id="path3"
         style="display:inline;opacity:0.2;fill:#ffffff;stroke-width:6.64319;stroke-linecap:round;stroke-linejoin:round;paint-order:stroke markers fill;enable-background:new"
         d="m 40,128 v 93.37109 C 40,231.69113 48.308869,240 58.628906,240 H 197.37109 C 207.69113,240 216,231.69113 216,221.37109 V 128 Z" />
      <path
         id="path8-2"
         style="display:inline;opacity:0.6;fill:#ffffff;stroke-width:6.64319;stroke-linecap:round;stroke-linejoin:round;paint-order:stroke markers fill;enable-background:new"
         d="m 216,180 -60,60 h 41.37109 C 207.69113,240 216,231.69113 216,221.37109 Z" />
      <path
         id="path1"
         style="display:inline;opacity:0.6;fill:#ffffff;stroke-width:6.64319;stroke-linecap:round;stroke-linejoin:round;paint-order:stroke markers fill;enable-background:new"
         d="M 58.628906,16 C 48.308891,16 40,24.308891 40,34.628906 v 2 C 40,26.308891 48.308891,18 58.628906,18 H 197.37109 C 207.69111,18 216,26.308891 216,36.628906 v -2 C 216,24.308891 207.69111,16 197.37109,16 Z"
         sodipodi:nodetypes="sscsscsss" />
      <path
         id="path2"
         style="display:inline;opacity:0.1;fill:#ffffff;stroke-width:6.64319;stroke-linecap:round;stroke-linejoin:round;paint-order:stroke markers fill;enable-background:new"
         d="m 128,16 v 224 h 69.37109 C 207.69112,240 216,231.69112 216,221.37109 V 34.628906 C 216,24.309038 207.69293,16 197.37305,16 Z" />
    </g>
  </g>
</svg>
