<?xml version="1.0" encoding="UTF-8" standalone="no"?>
<svg
   width="256"
   height="256"
   id="svg11300"
   sodipodi:version="0.32"
   sodipodi:docname="application-x-theme.svg"
   version="1.0"
   style="display:inline;enable-background:new"
   inkscape:version="1.3 (0e150ed6c4, 2023-07-21)"
   xmlns:inkscape="http://www.inkscape.org/namespaces/inkscape"
   xmlns:sodipodi="http://sodipodi.sourceforge.net/DTD/sodipodi-0.dtd"
   xmlns="http://www.w3.org/2000/svg"
   xmlns:svg="http://www.w3.org/2000/svg"
   xmlns:rdf="http://www.w3.org/1999/02/22-rdf-syntax-ns#"
   xmlns:cc="http://creativecommons.org/ns#"
   xmlns:dc="http://purl.org/dc/elements/1.1/">
  <title
     id="title3004">Suru Icon Theme Template</title>
  <sodipodi:namedview
     stroke="#ef2929"
     fill="#f57900"
     id="base"
     pagecolor="#cccccc"
     bordercolor="#666666"
     borderopacity="1"
     inkscape:pageopacity="0"
     inkscape:pageshadow="2"
     inkscape:zoom="2.0000001"
     inkscape:cx="110.24999"
     inkscape:cy="124.24999"
     inkscape:current-layer="layer1"
     showgrid="false"
     inkscape:grid-bbox="true"
     inkscape:document-units="px"
     inkscape:showpageshadow="true"
     inkscape:window-width="1920"
     inkscape:window-height="1011"
     inkscape:window-x="1920"
     inkscape:window-y="32"
     width="400px"
     height="300px"
     inkscape:snap-nodes="true"
     inkscape:snap-bbox="true"
     gridtolerance="10000"
     inkscape:object-nodes="true"
     inkscape:snap-grids="true"
     showguides="false"
     inkscape:guide-bbox="true"
     inkscape:window-maximized="1"
     inkscape:bbox-paths="true"
     inkscape:snap-bbox-midpoints="true"
     inkscape:snap-global="true"
     inkscape:object-paths="true"
     inkscape:snap-intersection-paths="true"
     inkscape:snap-smooth-nodes="true"
     inkscape:pagecheckerboard="false"
     showborder="true"
     inkscape:bbox-nodes="true"
     inkscape:measure-start="0,0"
     inkscape:measure-end="0,0"
     inkscape:document-rotation="0"
     inkscape:deskcolor="#d1d1d1">
    <inkscape:grid
       spacingy="1"
       spacingx="1"
       id="grid5883"
       type="xygrid"
       enabled="true"
       visible="false"
       empspacing="4"
       snapvisiblegridlinesonly="true"
       originx="0"
       originy="0"
       units="px" />
    <inkscape:grid
       type="xygrid"
       id="grid11592"
       empspacing="2"
       visible="false"
       enabled="true"
       spacingx="0.5"
       spacingy="0.5"
       color="#ff0000"
       opacity="0.1254902"
       empcolor="#ff0000"
       empopacity="0.25098039"
       snapvisiblegridlinesonly="true"
       originx="0"
       originy="0"
       dotted="true"
       units="px" />
  </sodipodi:namedview>
  <defs
     id="defs3" />
  <g
     style="display:inline"
     inkscape:groupmode="layer"
     inkscape:label="Icon"
     id="layer1">
    <g
       inkscape:groupmode="layer"
       id="layer4-6"
       inkscape:label="Shadow"
       style="display:inline;opacity:0.4;enable-background:new">
      <path
         id="rect3"
         style="display:inline;opacity:0.4;fill:#000000;stroke-width:6.64319;stroke-linecap:round;stroke-linejoin:round;paint-order:stroke markers fill;enable-background:new"
         d="m 40,128 v 97.37109 C 40,235.69114 48.308858,244 58.628906,244 H 197.37109 C 207.69114,244 216,235.69114 216,225.37109 V 128 Z" />
    </g>
    <g
       inkscape:groupmode="layer"
       id="layer2-7"
       inkscape:label="Background"
       style="display:inline;enable-background:new">
      <path
         id="rect2"
         style="display:inline;fill:#f9f9f9;stroke-width:6.64319;stroke-linecap:round;stroke-linejoin:round;paint-order:stroke markers fill;enable-background:new"
         d="M 58.628906,16 C 48.308869,16 40,24.308869 40,34.628906 V 221.37109 C 40,231.69113 48.308869,240 58.628906,240 H 197.37109 C 207.69113,240 216,231.69113 216,221.37109 V 34.628906 C 216,24.309027 207.69294,16 197.37305,16 Z"
         sodipodi:nodetypes="sssssssss" />
    </g>
    <g
       inkscape:groupmode="layer"
       id="layer6"
       inkscape:label="Graphic"
       style="display:inline">
      <g
         id="g1043"
         transform="matrix(1,0,0,1.0000017,0,24.540816)"
         style="opacity:0.75">
        <path
           id="rect981"
           style="fill:#ff0000;stroke-width:7.83419;stroke-linejoin:round;paint-order:stroke fill markers"
           d="m 96.108817,25.869141 c -4.637363,0 -8.370536,3.266525 -8.370536,7.324218 V 64.90625 c 0,4.057693 3.733173,7.324219 8.370536,7.324219 h 3.058036 V 25.869141 Z" />
        <path
           id="rect983"
           style="fill:#ff8200;fill-opacity:1;stroke-width:7.83419;stroke-linejoin:round;paint-order:stroke fill markers"
           d="M 99.166853,25.869141 V 72.230469 H 110.59542 V 25.869141 Z" />
        <path
           id="rect985"
           style="fill:#ffff00;stroke-width:7.83419;stroke-linejoin:round;paint-order:stroke fill markers"
           d="m 110.59542,25.869141 v 46.361328 h 11.42857 V 25.869141 Z" />
        <path
           id="rect987"
           style="fill:#00ff00;stroke-width:7.83419;stroke-linejoin:round;paint-order:stroke fill markers"
           d="m 122.02399,25.869141 v 46.361328 h 11.42858 V 25.869141 Z" />
        <path
           id="rect989"
           style="fill:#00ffff;stroke-width:7.83419;stroke-linejoin:round;paint-order:stroke fill markers"
           d="m 133.45257,25.869141 v 46.361328 h 11.42857 V 25.869141 Z" />
        <path
           id="rect991"
           style="fill:#860cb4;fill-opacity:1;stroke-width:7.83419;stroke-linejoin:round;paint-order:stroke fill markers"
           d="m 144.88114,25.869141 v 46.361328 h 11.42857 V 25.869141 Z" />
        <path
           id="rect993"
           style="fill:#ff00c6;fill-opacity:1;stroke-width:7.83419;stroke-linejoin:round;paint-order:stroke fill markers"
           d="m 156.30971,25.869141 v 46.361328 h 3.05803 c 4.63738,0 8.37054,-3.266526 8.37054,-7.324219 V 33.193359 c 0,-4.057693 -3.73316,-7.324218 -8.37054,-7.324218 z" />
      </g>
      <g
         transform="matrix(0.99996934,0,0,1.0000017,-23.992953,-15.459196)"
         inkscape:export-ydpi="192"
         inkscape:export-xdpi="192"
         inkscape:export-filename="/home/gusbemacbe/GitHub/yaru/icons/Suru/256x256@2x/mimetypes/application-x-theme.png"
         id="g947"
         inkscape:label="brush scalable"
         style="display:inline;fill:#bbbbbb;fill-opacity:1;enable-background:new">
        <path
           inkscape:label="scalable"
           d="m 207.27,108.16025 h -6.82003 v 6.40533 H 207.27 c 0.37232,0 0.61492,0.0296 0.76105,0.0615 0.0133,0.0954 0.0251,0.23211 0.0251,0.41798 v 26.57723 c 0,1.19655 -0.47601,2.16777 -0.78625,2.16777 h -49.68806 c -5.00536,0 -8.77968,3.08175 -8.77968,7.16875 v 4.04053 h 6.4017 l -0.005,-4.02613 c 0.11294,-0.21439 1.01726,-0.77783 2.38238,-0.77783 h 49.68817 c 4.16705,0 7.19156,-3.60543 7.19156,-8.5731 v -26.57722 c 7.9e-4,-4.31079 -2.68783,-6.88449 -7.19076,-6.88449 z"
           style="display:inline;fill:#bbbbbb;fill-opacity:1;stroke-width:4.91746"
           id="path1220"
           inkscape:connector-curvature="0"
           sodipodi:nodetypes="cccscssssscccsssccc"
           inkscape:export-filename="/home/gusbemacbe/Pictures/application-x-theme-half.png"
           inkscape:export-xdpi="90"
           inkscape:export-ydpi="90" />
        <path
           id="rect923"
           style="opacity:1;vector-effect:none;fill:#bbbbbb;fill-opacity:1;stroke-width:0.497797"
           d="m 110.2207,90.746094 c -4.03119,0 -7.27539,3.244201 -7.27539,7.27539 v 24.896486 c 0,4.03119 3.2442,7.27539 7.27539,7.27539 h 29.15235 5.19922 19.14648 29.54883 c 4.01895,0 7.25586,-3.2442 7.25586,-7.27539 V 98.021484 c 0,-4.031189 -3.23691,-7.27539 -7.25586,-7.27539 h -29.54883 -19.14648 -5.19922 z"
           inkscape:connector-curvature="0"
           inkscape:export-filename="/home/gusbemacbe/Pictures/application-x-theme-half.png"
           inkscape:export-xdpi="90"
           inkscape:export-ydpi="90" />
        <path
           id="rect933"
           style="display:inline;opacity:1;vector-effect:none;fill:#bbbbbb;fill-opacity:1;stroke-width:0.500177"
           inkscape:label="line"
           d="m 145.66914,154.91992 a 2.7206819,2.7206819 0 0 0 -2.58594,1.875 l -5.32617,16.30469 A 9.2458554,9.2458554 0 0 0 137.3,175.9707 v 42.67969 a 2.3987081,2.3987081 0 0 0 2.39844,2.39844 h 10.14844 2.07812 0.0195 2.69141 9.60937 a 2.3251062,2.3251062 0 0 0 2.32422,-2.32422 v -42.63086 a 10.024166,10.024166 0 0 0 -0.49609,-3.11328 l -5.25391,-16.08399 a 2.8672809,2.8672809 0 0 0 -2.72656,-1.97656 h -3.45703 -2.69141 -0.0195 -2.07812 z"
           inkscape:connector-curvature="0"
           inkscape:export-filename="/home/gusbemacbe/Pictures/application-x-theme-half.png"
           inkscape:export-xdpi="90"
           inkscape:export-ydpi="90" />
      </g>
    </g>
    <g
       inkscape:groupmode="layer"
       id="layer3-3"
       inkscape:label="Highlights"
       style="display:inline;enable-background:new">
      <path
         id="path3"
         style="display:inline;opacity:0.2;fill:#ffffff;stroke-width:6.64319;stroke-linecap:round;stroke-linejoin:round;paint-order:stroke markers fill;enable-background:new"
         d="m 40,128 v 93.37109 C 40,231.69113 48.308869,240 58.628906,240 H 197.37109 C 207.69113,240 216,231.69113 216,221.37109 V 128 Z" />
      <path
         id="path8"
         style="display:inline;opacity:0.6;fill:#ffffff;stroke-width:6.64319;stroke-linecap:round;stroke-linejoin:round;paint-order:stroke markers fill;enable-background:new"
         d="m 216,180 -60,60 h 41.37109 C 207.69113,240 216,231.69113 216,221.37109 Z" />
      <path
         id="path1"
         style="display:inline;opacity:0.6;fill:#ffffff;stroke-width:6.64319;stroke-linecap:round;stroke-linejoin:round;paint-order:stroke markers fill;enable-background:new"
         d="M 58.628906,16 C 48.308891,16 40,24.308891 40,34.628906 v 2 C 40,26.308891 48.308891,18 58.628906,18 H 197.37109 C 207.69111,18 216,26.308891 216,36.628906 v -2 C 216,24.308891 207.69111,16 197.37109,16 Z"
         sodipodi:nodetypes="sscsscsss" />
      <path
         id="path2"
         style="display:inline;opacity:0.1;fill:#ffffff;stroke-width:6.64319;stroke-linecap:round;stroke-linejoin:round;paint-order:stroke markers fill;enable-background:new"
         d="m 128,16 v 224 h 69.37109 C 207.69112,240 216,231.69112 216,221.37109 V 34.628906 C 216,24.309038 207.69293,16 197.37305,16 Z" />
    </g>
  </g>
  <metadata
     id="metadata1">
    <rdf:RDF>
      <cc:Work
         rdf:about="">
        <dc:title>Suru Icon Theme Template</dc:title>
      </cc:Work>
    </rdf:RDF>
  </metadata>
</svg>
