<?xml version="1.0" encoding="UTF-8" standalone="no"?>
<svg
   width="256"
   height="256"
   id="svg11300"
   sodipodi:version="0.32"
   sodipodi:docname="application-vnd.sqlite3.svg"
   version="1.0"
   style="display:inline;enable-background:new"
   xmlns:inkscape="http://www.inkscape.org/namespaces/inkscape"
   xmlns:sodipodi="http://sodipodi.sourceforge.net/DTD/sodipodi-0.dtd"
   xmlns:xlink="http://www.w3.org/1999/xlink"
   xmlns="http://www.w3.org/2000/svg"
   xmlns:svg="http://www.w3.org/2000/svg">
  <sodipodi:namedview
     stroke="#ef2929"
     fill="#f57900"
     id="base"
     pagecolor="#ffffff"
     bordercolor="#666666"
     borderopacity="1"
     inkscape:pageopacity="0"
     inkscape:pageshadow="2"
     inkscape:zoom="1.0000001"
     inkscape:cx="127.23576"
     inkscape:cy="203.80107"
     inkscape:current-layer="layer8"
     showgrid="false"
     inkscape:grid-bbox="true"
     inkscape:document-units="px"
     inkscape:showpageshadow="true"
     inkscape:window-width="1920"
     inkscape:window-height="1016"
     inkscape:window-x="1920"
     inkscape:window-y="27"
     width="400px"
     height="300px"
     inkscape:snap-nodes="true"
     inkscape:snap-bbox="true"
     gridtolerance="10000"
     inkscape:object-nodes="true"
     inkscape:snap-grids="true"
     showguides="false"
     inkscape:guide-bbox="true"
     inkscape:window-maximized="1"
     inkscape:bbox-paths="true"
     inkscape:snap-bbox-midpoints="true"
     inkscape:snap-global="false"
     inkscape:object-paths="true"
     inkscape:snap-intersection-paths="true"
     inkscape:snap-smooth-nodes="true"
     inkscape:pagecheckerboard="false"
     showborder="true"
     inkscape:document-rotation="0"
     inkscape:deskcolor="#d1d1d1">
    <inkscape:grid
       spacingy="1"
       spacingx="1"
       id="grid5883"
       type="xygrid"
       enabled="true"
       visible="false"
       empspacing="4"
       snapvisiblegridlinesonly="true"
       originx="0"
       originy="0"
       units="px" />
    <inkscape:grid
       type="xygrid"
       id="grid11592"
       empspacing="2"
       visible="false"
       enabled="false"
       spacingx="0.5"
       spacingy="0.5"
       color="#ff0000"
       opacity="0.1254902"
       empcolor="#ff0000"
       empopacity="0.25098039"
       snapvisiblegridlinesonly="true"
       originx="0"
       originy="0"
       units="px" />
    <sodipodi:guide
       position="394.16276,545.36183"
       orientation="0,-1"
       id="guide864"
       inkscape:locked="false" />
  </sodipodi:namedview>
  <defs
     id="defs3">
    <linearGradient
       gradientUnits="userSpaceOnUse"
       y2="401.58368"
       x2="-74.916695"
       y1="401.58368"
       x1="525.92114"
       id="linearGradient4226"
       xlink:href="#linearGradient4338"
       inkscape:collect="always"
       gradientTransform="matrix(0,-0.45312414,0.45309814,0,2.0441606,239.99957)" />
    <linearGradient
       inkscape:collect="always"
       id="linearGradient4338">
      <stop
         style="stop-color:#f2f2f2;stop-opacity:1"
         offset="0"
         id="stop4340" />
      <stop
         style="stop-color:#f9f9f9;stop-opacity:1"
         offset="1"
         id="stop4342" />
    </linearGradient>
  </defs>
  <g
     style="display:inline"
     inkscape:groupmode="layer"
     inkscape:label="Icon"
     id="layer1">
    <g
       inkscape:groupmode="layer"
       id="layer4"
       inkscape:label="Shadow"
       style="display:inline;opacity:0.4">
      <path
         style="color:#000000;display:inline;overflow:visible;visibility:visible;fill:#000000;fill-opacity:1;fill-rule:nonzero;stroke:none;stroke-width:0.999984;marker:none;enable-background:accumulate"
         d="m 78.925821,20 c -35.295639,0 -39.09341,3.625411 -38.920425,38.993455 v 73.006335 73.00633 c -0.172985,35.36805 3.624786,38.99345 38.920425,38.99345 H 177.07956 C 212.37521,243.99957 216,240.37458 216,205.00612 V 131.99979 58.993455 C 216,23.62499 212.37521,20 177.07956,20 Z"
         id="path861"
         inkscape:connector-curvature="0"
         sodipodi:nodetypes="scccssscsss" />
    </g>
    <g
       inkscape:groupmode="layer"
       id="layer2"
       inkscape:label="Background"
       style="display:inline">
      <path
         style="color:#000000;display:inline;overflow:visible;visibility:visible;fill:url(#linearGradient4226);fill-opacity:1;fill-rule:nonzero;stroke:none;stroke-width:0.999984;marker:none;enable-background:accumulate"
         d="m 78.925821,16 c -35.295639,0 -39.09341,3.625411 -38.920425,38.993455 v 73.006335 73.00633 c -0.172985,35.36805 3.624786,38.99345 38.920425,38.99345 H 177.07956 C 212.37521,239.99957 216,236.37458 216,201.00612 V 127.99979 54.993455 C 216,19.62499 212.37521,16 177.07956,16 Z"
         id="rect4158"
         inkscape:connector-curvature="0"
         sodipodi:nodetypes="scccssscsss" />
    </g>
    <g
       inkscape:groupmode="layer"
       id="layer8"
       inkscape:label="Graphic"
       style="display:inline">
      <g
         id="g949">
        <path
           id="path895"
           style="color:#000000;font-style:normal;font-variant:normal;font-weight:normal;font-stretch:normal;font-size:medium;line-height:normal;font-family:sans-serif;font-variant-ligatures:normal;font-variant-position:normal;font-variant-caps:normal;font-variant-numeric:normal;font-variant-alternates:normal;font-variant-east-asian:normal;font-feature-settings:normal;font-variation-settings:normal;text-indent:0;text-align:start;text-decoration:none;text-decoration-line:none;text-decoration-style:solid;text-decoration-color:#000000;letter-spacing:normal;word-spacing:normal;text-transform:none;writing-mode:lr-tb;direction:ltr;text-orientation:mixed;dominant-baseline:auto;baseline-shift:baseline;text-anchor:start;white-space:normal;shape-padding:0;shape-margin:0;inline-size:0;clip-rule:nonzero;display:inline;overflow:visible;visibility:visible;isolation:auto;mix-blend-mode:normal;color-interpolation:sRGB;color-interpolation-filters:linearRGB;solid-color:#000000;solid-opacity:1;vector-effect:none;fill:#000000;fill-opacity:1;fill-rule:nonzero;stroke-width:1.49918;stroke-linecap:round;stroke-linejoin:round;stroke-miterlimit:4;stroke-dasharray:none;stroke-dashoffset:0;stroke-opacity:1;paint-order:markers fill stroke;color-rendering:auto;image-rendering:auto;shape-rendering:auto;text-rendering:auto;enable-background:accumulate;stop-color:#000000;stop-opacity:1;stroke:none;opacity:0.4"
           d="M 128.00195 86.173828 C 97.136733 86.173828 72.115234 95.346812 72.115234 106.66406 L 72.115234 117.09766 C 72.115235 118.76694 72.672031 120.38792 73.699219 121.94141 C 72.672626 123.49447 72.115234 125.11441 72.115234 126.7832 L 72.115234 137.2168 C 72.115235 138.88559 72.672626 140.50553 73.699219 142.05859 C 72.672031 143.61208 72.115234 145.23306 72.115234 146.90234 L 72.115234 157.33594 C 72.115237 168.65319 97.136733 177.82617 128.00195 177.82617 C 158.86718 177.82617 183.88867 168.65319 183.88867 157.33594 C 183.88885 157.30584 183.88885 157.27424 183.88867 157.24414 L 183.88867 146.90234 C 183.88867 145.23283 183.33019 143.61227 182.30273 142.05859 C 183.3296 140.50534 183.88867 138.88581 183.88867 137.2168 C 183.88885 137.1867 183.88885 137.1551 183.88867 137.125 L 183.88867 126.7832 C 183.88867 125.11419 183.3296 123.49466 182.30273 121.94141 C 183.33019 120.38773 183.88867 118.76717 183.88867 117.09766 C 183.88885 117.06756 183.88885 117.03596 183.88867 117.00586 L 183.88867 106.66406 C 183.88867 95.346812 158.86718 86.173828 128.00195 86.173828 z " />
        <g
           id="g907"
           transform="matrix(0.74515243,0,0,0.74515243,-278.10664,37.463854)"
           style="display:inline;enable-background:new">
          <path
             id="path889"
             style="fill:#00aae8;fill-opacity:1;stroke-width:2.01191;stroke-linecap:round;stroke-linejoin:round;paint-order:markers fill stroke"
             d="m 544.66992,128 a 75,27.5 0 0 0 -64.22265,13.5 H 470 v 14 a 75,27.5 0 0 0 75,27.5 75,27.5 0 0 0 75,-27.5 75,27.5 0 0 0 0,-0.12109 V 141.5 H 609.55273 A 75,27.5 0 0 0 545,128 a 75,27.5 0 0 0 -0.33008,0 z" />
          <ellipse
             style="fill:#007aa6;fill-opacity:1;stroke-width:2.01191;stroke-linecap:round;stroke-linejoin:round;paint-order:markers fill stroke"
             id="ellipse891"
             cx="545"
             cy="141.5"
             rx="75"
             ry="27.5" />
          <path
             id="path883"
             style="fill:#00aae8;fill-opacity:1;stroke-width:2.01191;stroke-linecap:round;stroke-linejoin:round;paint-order:markers fill stroke"
             d="m 544.66992,101 a 75,27.5 0 0 0 -64.22265,13.5 H 470 v 14 a 75,27.5 0 0 0 75,27.5 75,27.5 0 0 0 75,-27.5 75,27.5 0 0 0 0,-0.12109 V 114.5 H 609.55273 A 75,27.5 0 0 0 545,101 a 75,27.5 0 0 0 -0.33008,0 z" />
          <ellipse
             style="fill:#007aa6;fill-opacity:1;stroke-width:2.01191;stroke-linecap:round;stroke-linejoin:round;paint-order:markers fill stroke"
             id="ellipse885"
             cx="545"
             cy="114.5"
             rx="75"
             ry="27.5" />
          <path
             id="ellipse866"
             style="fill:#00aae8;fill-opacity:1;stroke-width:2.01191;stroke-linecap:round;stroke-linejoin:round;paint-order:markers fill stroke"
             d="M 544.66992,74 A 75,27.5 0 0 0 480.44727,87.5 H 470 v 14 a 75,27.5 0 0 0 75,27.5 75,27.5 0 0 0 75,-27.5 75,27.5 0 0 0 0,-0.12109 V 87.5 H 609.55273 A 75,27.5 0 0 0 545,74 a 75,27.5 0 0 0 -0.33008,0 z" />
          <ellipse
             style="fill:#007aa6;fill-opacity:1;stroke-width:2.01191;stroke-linecap:round;stroke-linejoin:round;paint-order:markers fill stroke"
             id="ellipse862"
             cx="545"
             cy="87.5"
             rx="75"
             ry="27.5" />
        </g>
      </g>
    </g>
    <g
       inkscape:groupmode="layer"
       id="layer3"
       inkscape:label="Highlights"
       style="display:inline">
      <path
         style="color:#000000;display:inline;overflow:visible;visibility:visible;opacity:0.1;fill:#ffffff;fill-opacity:1;fill-rule:nonzero;stroke:none;stroke-width:0.999984;marker:none;enable-background:accumulate"
         d="m 128.00271,16 v 223.99957 h 49.07659 c 35.29565,0 38.00246,-3.63654 38.9207,-38.99309 V 127.99979 54.99309 C 216,19.624624 212.37495,16 177.0793,16 Z"
         id="path4231"
         inkscape:connector-curvature="0"
         sodipodi:nodetypes="ccsscssc" />
      <path
         inkscape:connector-curvature="0"
         style="color:#000000;display:inline;overflow:visible;visibility:visible;opacity:0.2;fill:#ffffff;fill-opacity:1;fill-rule:nonzero;stroke:none;stroke-width:0.999984;marker:none;enable-background:accumulate"
         d="m 40.005395,127.99979 v 73.00669 c -0.172985,35.36805 3.625044,38.99309 38.920685,38.99309 h 98.15322 c 35.29565,0 38.00246,-3.63654 38.9207,-38.99309 v -73.00669 z"
         id="path4255"
         sodipodi:nodetypes="ccssscc" />
      <path
         style="color:#000000;display:inline;overflow:visible;visibility:visible;opacity:0.6;fill:#ffffff;fill-opacity:1;fill-rule:nonzero;stroke:none;stroke-width:7.99987;stroke-linecap:butt;stroke-linejoin:miter;stroke-miterlimit:4;stroke-dasharray:none;stroke-dashoffset:0;stroke-opacity:1;marker:none;enable-background:accumulate"
         d="M 156.00183,239.99957 216,179.99969 v 22.48383 c -0.0523,33.99575 -3.80257,37.51605 -38.17293,37.51605 z"
         id="path4254"
         inkscape:connector-curvature="0"
         sodipodi:nodetypes="cccsc" />
      <path
         style="display:inline;enable-background:accumulate;color:#000000;overflow:visible;visibility:visible;opacity:0.6;fill:#ffffff;fill-opacity:1;fill-rule:nonzero;stroke:none;stroke-width:0.999984;marker:none"
         d="M 78.92608,16 C 43.630436,16 39.83241,19.626022 40.005395,54.994066 v 1.999997 C 39.83241,21.626018 43.630436,17.999996 78.92608,17.999996 h 98.15322 c 35.29566,0 38.9207,3.625601 38.9207,38.994067 V 54.994066 C 216,19.625601 212.37496,16 177.0793,16 Z"
         id="path931"
         inkscape:connector-curvature="0" />
    </g>
  </g>
</svg>
