<?xml version="1.0" encoding="UTF-8" standalone="no"?>
<svg
   width="256"
   height="256"
   id="svg11300"
   sodipodi:version="0.32"
   sodipodi:docname="application-vnd.sqlite3.svg"
   version="1.0"
   style="display:inline;enable-background:new"
   inkscape:version="1.3 (0e150ed6c4, 2023-07-21)"
   xmlns:inkscape="http://www.inkscape.org/namespaces/inkscape"
   xmlns:sodipodi="http://sodipodi.sourceforge.net/DTD/sodipodi-0.dtd"
   xmlns="http://www.w3.org/2000/svg"
   xmlns:svg="http://www.w3.org/2000/svg">
  <sodipodi:namedview
     stroke="#ef2929"
     fill="#f57900"
     id="base"
     pagecolor="#cccccc"
     bordercolor="#666666"
     borderopacity="1"
     inkscape:pageopacity="0"
     inkscape:pageshadow="2"
     inkscape:zoom="1.4399904"
     inkscape:cx="96.875646"
     inkscape:cy="54.514252"
     inkscape:current-layer="layer2-7"
     showgrid="false"
     inkscape:grid-bbox="true"
     inkscape:document-units="px"
     inkscape:showpageshadow="true"
     inkscape:window-width="1920"
     inkscape:window-height="1011"
     inkscape:window-x="1920"
     inkscape:window-y="32"
     width="400px"
     height="300px"
     inkscape:snap-nodes="true"
     inkscape:snap-bbox="true"
     gridtolerance="10000"
     inkscape:object-nodes="true"
     inkscape:snap-grids="true"
     showguides="false"
     inkscape:guide-bbox="true"
     inkscape:window-maximized="1"
     inkscape:bbox-paths="true"
     inkscape:snap-bbox-midpoints="true"
     inkscape:snap-global="false"
     inkscape:object-paths="true"
     inkscape:snap-intersection-paths="true"
     inkscape:snap-smooth-nodes="true"
     inkscape:pagecheckerboard="false"
     showborder="true"
     inkscape:document-rotation="0"
     inkscape:deskcolor="#d1d1d1">
    <inkscape:grid
       spacingy="1"
       spacingx="1"
       id="grid5883"
       type="xygrid"
       enabled="true"
       visible="false"
       empspacing="4"
       snapvisiblegridlinesonly="true"
       originx="0"
       originy="0"
       units="px" />
    <inkscape:grid
       type="xygrid"
       id="grid11592"
       empspacing="2"
       visible="false"
       enabled="false"
       spacingx="0.5"
       spacingy="0.5"
       color="#ff0000"
       opacity="0.1254902"
       empcolor="#ff0000"
       empopacity="0.25098039"
       snapvisiblegridlinesonly="true"
       originx="0"
       originy="0"
       units="px" />
    <sodipodi:guide
       position="394.16276,545.36183"
       orientation="0,-1"
       id="guide864"
       inkscape:locked="false" />
  </sodipodi:namedview>
  <defs
     id="defs3" />
  <g
     style="display:inline"
     inkscape:groupmode="layer"
     inkscape:label="Icon"
     id="layer1">
    <g
       inkscape:groupmode="layer"
       id="layer2-7"
       inkscape:label="Background"
       style="display:inline;enable-background:new">
      <g
         inkscape:groupmode="layer"
         id="layer4-6"
         inkscape:label="Shadow"
         style="display:inline;opacity:0.4;enable-background:new">
        <path
           id="rect3"
           style="display:inline;opacity:0.4;fill:#000000;stroke-width:6.64319;stroke-linecap:round;stroke-linejoin:round;paint-order:stroke markers fill;enable-background:new"
           d="m 40,128 v 97.37109 C 40,235.69114 48.308858,244 58.628906,244 H 197.37109 C 207.69114,244 216,235.69114 216,225.37109 V 128 Z" />
      </g>
      <path
         id="rect2"
         style="display:inline;fill:#f9f9f9;stroke-width:6.64319;stroke-linecap:round;stroke-linejoin:round;paint-order:stroke markers fill;enable-background:new"
         d="M 58.628906,16 C 48.308869,16 40,24.308869 40,34.628906 V 221.37109 C 40,231.69113 48.308869,240 58.628906,240 H 197.37109 C 207.69113,240 216,231.69113 216,221.37109 V 34.628906 C 216,24.309027 207.69294,16 197.37305,16 Z"
         sodipodi:nodetypes="sssssssss" />
    </g>
    <g
       inkscape:groupmode="layer"
       id="layer8"
       inkscape:label="Graphic"
       style="display:inline">
      <g
         id="g949">
        <path
           id="path895"
           style="color:#000000;font-style:normal;font-variant:normal;font-weight:normal;font-stretch:normal;font-size:medium;line-height:normal;font-family:sans-serif;font-variant-ligatures:normal;font-variant-position:normal;font-variant-caps:normal;font-variant-numeric:normal;font-variant-alternates:normal;font-variant-east-asian:normal;font-feature-settings:normal;font-variation-settings:normal;text-indent:0;text-align:start;text-decoration:none;text-decoration-line:none;text-decoration-style:solid;text-decoration-color:#000000;letter-spacing:normal;word-spacing:normal;text-transform:none;writing-mode:lr-tb;direction:ltr;text-orientation:mixed;dominant-baseline:auto;baseline-shift:baseline;text-anchor:start;white-space:normal;shape-padding:0;shape-margin:0;inline-size:0;clip-rule:nonzero;display:inline;overflow:visible;visibility:visible;isolation:auto;mix-blend-mode:normal;color-interpolation:sRGB;color-interpolation-filters:linearRGB;solid-color:#000000;solid-opacity:1;vector-effect:none;fill:#000000;fill-opacity:1;fill-rule:nonzero;stroke-width:1.49918;stroke-linecap:round;stroke-linejoin:round;stroke-miterlimit:4;stroke-dasharray:none;stroke-dashoffset:0;stroke-opacity:1;paint-order:markers fill stroke;color-rendering:auto;image-rendering:auto;shape-rendering:auto;text-rendering:auto;enable-background:accumulate;stop-color:#000000;stop-opacity:1;stroke:none;opacity:0.4"
           d="M 128.00195 86.173828 C 97.136733 86.173828 72.115234 95.346812 72.115234 106.66406 L 72.115234 117.09766 C 72.115235 118.76694 72.672031 120.38792 73.699219 121.94141 C 72.672626 123.49447 72.115234 125.11441 72.115234 126.7832 L 72.115234 137.2168 C 72.115235 138.88559 72.672626 140.50553 73.699219 142.05859 C 72.672031 143.61208 72.115234 145.23306 72.115234 146.90234 L 72.115234 157.33594 C 72.115237 168.65319 97.136733 177.82617 128.00195 177.82617 C 158.86718 177.82617 183.88867 168.65319 183.88867 157.33594 C 183.88885 157.30584 183.88885 157.27424 183.88867 157.24414 L 183.88867 146.90234 C 183.88867 145.23283 183.33019 143.61227 182.30273 142.05859 C 183.3296 140.50534 183.88867 138.88581 183.88867 137.2168 C 183.88885 137.1867 183.88885 137.1551 183.88867 137.125 L 183.88867 126.7832 C 183.88867 125.11419 183.3296 123.49466 182.30273 121.94141 C 183.33019 120.38773 183.88867 118.76717 183.88867 117.09766 C 183.88885 117.06756 183.88885 117.03596 183.88867 117.00586 L 183.88867 106.66406 C 183.88867 95.346812 158.86718 86.173828 128.00195 86.173828 z " />
        <g
           id="g907"
           transform="matrix(0.74515243,0,0,0.74515243,-278.10664,37.463854)"
           style="display:inline;enable-background:new">
          <path
             id="path889"
             style="fill:#00aae8;fill-opacity:1;stroke-width:2.01191;stroke-linecap:round;stroke-linejoin:round;paint-order:markers fill stroke"
             d="m 544.66992,128 a 75,27.5 0 0 0 -64.22265,13.5 H 470 v 14 a 75,27.5 0 0 0 75,27.5 75,27.5 0 0 0 75,-27.5 75,27.5 0 0 0 0,-0.12109 V 141.5 H 609.55273 A 75,27.5 0 0 0 545,128 a 75,27.5 0 0 0 -0.33008,0 z" />
          <ellipse
             style="fill:#007aa6;fill-opacity:1;stroke-width:2.01191;stroke-linecap:round;stroke-linejoin:round;paint-order:markers fill stroke"
             id="ellipse891"
             cx="545"
             cy="141.5"
             rx="75"
             ry="27.5" />
          <path
             id="path883"
             style="fill:#00aae8;fill-opacity:1;stroke-width:2.01191;stroke-linecap:round;stroke-linejoin:round;paint-order:markers fill stroke"
             d="m 544.66992,101 a 75,27.5 0 0 0 -64.22265,13.5 H 470 v 14 a 75,27.5 0 0 0 75,27.5 75,27.5 0 0 0 75,-27.5 75,27.5 0 0 0 0,-0.12109 V 114.5 H 609.55273 A 75,27.5 0 0 0 545,101 a 75,27.5 0 0 0 -0.33008,0 z" />
          <ellipse
             style="fill:#007aa6;fill-opacity:1;stroke-width:2.01191;stroke-linecap:round;stroke-linejoin:round;paint-order:markers fill stroke"
             id="ellipse885"
             cx="545"
             cy="114.5"
             rx="75"
             ry="27.5" />
          <path
             id="ellipse866"
             style="fill:#00aae8;fill-opacity:1;stroke-width:2.01191;stroke-linecap:round;stroke-linejoin:round;paint-order:markers fill stroke"
             d="M 544.66992,74 A 75,27.5 0 0 0 480.44727,87.5 H 470 v 14 a 75,27.5 0 0 0 75,27.5 75,27.5 0 0 0 75,-27.5 75,27.5 0 0 0 0,-0.12109 V 87.5 H 609.55273 A 75,27.5 0 0 0 545,74 a 75,27.5 0 0 0 -0.33008,0 z" />
          <ellipse
             style="fill:#007aa6;fill-opacity:1;stroke-width:2.01191;stroke-linecap:round;stroke-linejoin:round;paint-order:markers fill stroke"
             id="ellipse862"
             cx="545"
             cy="87.5"
             rx="75"
             ry="27.5" />
        </g>
      </g>
    </g>
    <g
       inkscape:groupmode="layer"
       id="layer3-3"
       inkscape:label="Highlights"
       style="display:inline;enable-background:new">
      <path
         id="path3"
         style="display:inline;opacity:0.2;fill:#ffffff;stroke-width:6.64319;stroke-linecap:round;stroke-linejoin:round;paint-order:stroke markers fill;enable-background:new"
         d="m 40,128 v 93.37109 C 40,231.69113 48.308869,240 58.628906,240 H 197.37109 C 207.69113,240 216,231.69113 216,221.37109 V 128 Z" />
      <path
         id="path8"
         style="display:inline;opacity:0.6;fill:#ffffff;stroke-width:6.64319;stroke-linecap:round;stroke-linejoin:round;paint-order:stroke markers fill;enable-background:new"
         d="m 216,180 -60,60 h 41.37109 C 207.69113,240 216,231.69113 216,221.37109 Z" />
      <path
         id="path1"
         style="display:inline;opacity:0.6;fill:#ffffff;stroke-width:6.64319;stroke-linecap:round;stroke-linejoin:round;paint-order:stroke markers fill;enable-background:new"
         d="M 58.628906,16 C 48.308891,16 40,24.308891 40,34.628906 v 2 C 40,26.308891 48.308891,18 58.628906,18 H 197.37109 C 207.69111,18 216,26.308891 216,36.628906 v -2 C 216,24.308891 207.69111,16 197.37109,16 Z"
         sodipodi:nodetypes="sscsscsss" />
      <path
         id="path2"
         style="display:inline;opacity:0.1;fill:#ffffff;stroke-width:6.64319;stroke-linecap:round;stroke-linejoin:round;paint-order:stroke markers fill;enable-background:new"
         d="m 128,16 v 224 h 69.37109 C 207.69112,240 216,231.69112 216,221.37109 V 34.628906 C 216,24.309038 207.69293,16 197.37305,16 Z" />
    </g>
  </g>
</svg>
