<?xml version="1.0" encoding="UTF-8" standalone="no"?>
<svg
   width="256"
   height="256"
   id="svg11300"
   sodipodi:version="0.32"
   sodipodi:docname="application-vnd.ms-publisher.svg"
   version="1.0"
   style="display:inline;enable-background:new"
   inkscape:version="1.3 (0e150ed6c4, 2023-07-21)"
   xmlns:inkscape="http://www.inkscape.org/namespaces/inkscape"
   xmlns:sodipodi="http://sodipodi.sourceforge.net/DTD/sodipodi-0.dtd"
   xmlns="http://www.w3.org/2000/svg"
   xmlns:svg="http://www.w3.org/2000/svg"
   xmlns:rdf="http://www.w3.org/1999/02/22-rdf-syntax-ns#"
   xmlns:cc="http://creativecommons.org/ns#"
   xmlns:dc="http://purl.org/dc/elements/1.1/">
  <title
     id="title3004">Suru Icon Theme Template</title>
  <sodipodi:namedview
     stroke="#ef2929"
     fill="#f57900"
     id="base"
     pagecolor="#cccccc"
     bordercolor="#666666"
     borderopacity="1"
     inkscape:pageopacity="0"
     inkscape:pageshadow="2"
     inkscape:zoom="1.4213368"
     inkscape:cx="86.186467"
     inkscape:cy="136.843"
     inkscape:current-layer="layer1"
     showgrid="false"
     inkscape:grid-bbox="true"
     inkscape:document-units="px"
     inkscape:showpageshadow="true"
     inkscape:window-width="1920"
     inkscape:window-height="1011"
     inkscape:window-x="1920"
     inkscape:window-y="32"
     width="400px"
     height="300px"
     inkscape:snap-nodes="true"
     inkscape:snap-bbox="true"
     gridtolerance="10000"
     inkscape:object-nodes="true"
     inkscape:snap-grids="true"
     showguides="true"
     inkscape:guide-bbox="true"
     inkscape:window-maximized="1"
     inkscape:bbox-paths="true"
     inkscape:snap-bbox-midpoints="true"
     inkscape:snap-global="true"
     inkscape:object-paths="true"
     inkscape:snap-intersection-paths="true"
     inkscape:snap-smooth-nodes="true"
     inkscape:pagecheckerboard="false"
     showborder="true"
     inkscape:document-rotation="0"
     inkscape:deskcolor="#d1d1d1">
    <inkscape:grid
       spacingy="1"
       spacingx="1"
       id="grid5883"
       type="xygrid"
       enabled="true"
       visible="false"
       empspacing="4"
       snapvisiblegridlinesonly="true"
       originx="0"
       originy="0"
       units="px" />
    <inkscape:grid
       type="xygrid"
       id="grid11592"
       empspacing="2"
       visible="false"
       enabled="false"
       spacingx="0.5"
       spacingy="0.5"
       color="#ff0000"
       opacity="0.1254902"
       empcolor="#ff0000"
       empopacity="0.25098039"
       snapvisiblegridlinesonly="true"
       originx="0"
       originy="0"
       units="px" />
  </sodipodi:namedview>
  <defs
     id="defs3" />
  <g
     style="display:inline"
     inkscape:groupmode="layer"
     inkscape:label="Icon"
     id="layer1">
    <g
       inkscape:groupmode="layer"
       id="layer4"
       inkscape:label="Shadow"
       style="display:inline;opacity:0.4;enable-background:new">
      <path
         id="rect3"
         style="display:inline;opacity:0.4;fill:#000000;stroke-width:6.64319;stroke-linecap:round;stroke-linejoin:round;paint-order:stroke markers fill;enable-background:new"
         d="m 40,128 v 97.37109 C 40,235.69114 48.308858,244 58.628906,244 H 197.37109 C 207.69114,244 216,235.69114 216,225.37109 V 128 Z"
         sodipodi:nodetypes="csssscc" />
    </g>
    <g
       inkscape:groupmode="layer"
       id="layer2"
       inkscape:label="Background"
       style="display:inline;enable-background:new">
      <path
         id="rect2"
         style="display:inline;fill:#067569;fill-opacity:1;stroke-width:6.64319;stroke-linecap:round;stroke-linejoin:round;paint-order:stroke markers fill;enable-background:new"
         d="M 58.628906,16 C 48.308858,16 40,24.308858 40,34.628906 V 221.37109 C 40,231.69114 48.308858,240 58.628906,240 H 197.37109 C 207.69114,240 216,231.69114 216,221.37109 L 215.994,80 l -64,-64 z"
         sodipodi:nodetypes="ssssscccs" />
    </g>
    <g
       inkscape:groupmode="layer"
       id="layer6"
       inkscape:label="Graphic"
       style="display:inline;enable-background:new">
      <path
         sodipodi:nodetypes="ccccccccccccccccccccc"
         inkscape:connector-curvature="0"
         id="path1316"
         d="m 140.00502,112.00001 h 39.99879 V 192 h -39.99879 v -8 h 31.99903 v -4 h -31.99903 v -8 h 31.99903 v -4 h -31.99903 v -7.99999 h 31.99903 v -4 h -31.99903 v -8 h 31.99903 v -28 h -31.99903 z"
         style="display:inline;fill:#ffffff;stroke-width:1.33331;enable-background:new" />
      <path
         style="display:inline;fill:#ffffff;stroke-width:1.33333;enable-background:new"
         d="m 154.53099,124.00033 c -19.5056,3.47359 -39.02175,8.08221 -58.527346,11.49219 0,29.67192 -0.01244,59.35603 2.6e-4,89.04068 19.403806,3.39725 38.817956,7.92959 58.183596,11.4668 H 160 l -2.6e-4,-111.99967 z m -29.34961,31.26758 c 3.84833,-0.0817 7.54102,0.47221 10.54102,3.18554 5.74667,6.97335 4.22703,19.79932 -4.29297,23.97266 -3.02666,1.54666 -6.49377,1.33519 -9.78711,1.22852 -0.0133,5.21334 -0.027,10.42534 -0.0137,15.63867 -2.64,-0.22666 -5.29164,-0.45269 -7.93164,-0.66602 -0.12001,-14.24 -0.14828,-27.83477 0.0117,-42.07477 3.75455,-0.46779 7.62433,-1.2029 11.47266,-1.2846 z m -0.44336,7.72656 c -1.05015,-0.0281 -2.12437,0.0683 -3.10937,0.11328 -0.04,4.48 -0.0652,8.94544 0.21484,13.41211 2.65333,-0.32 6.09328,-0.0522 7.61328,-2.79883 1.26667,-2.69333 1.34617,-6.1347 -0.17383,-8.74804 -1.10833,-1.54167 -2.79466,-1.93162 -4.54492,-1.97852 z"
         id="path6-6"
         inkscape:connector-curvature="0"
         sodipodi:nodetypes="cccccccccccccccccccccc"
         transform="translate(-23.994191,-28.00033)" />
    </g>
    <g
       inkscape:groupmode="layer"
       id="layer3"
       inkscape:label="Highlights"
       style="display:inline;enable-background:new">
      <path
         id="path2-6"
         style="display:inline;opacity:0.4;fill:#ffffff;stroke-width:6.64319;stroke-linecap:round;stroke-linejoin:round;paint-order:stroke markers fill;enable-background:new"
         d="M 58.628906,16 C 48.308869,16 40,24.308869 40,34.628906 v 2 C 40,26.308869 48.308869,18 58.628906,18 h 93.365234 l 64,64 v -2 l -64,-64 z"
         sodipodi:nodetypes="sscsccccs" />
      <path
         id="path3-4"
         style="display:inline;opacity:0.08;fill:#ffffff;stroke-width:6.64319;stroke-linecap:round;stroke-linejoin:round;paint-order:stroke markers fill;enable-background:new"
         d="m 40,128 v 93.37109 C 40,231.69113 48.308869,240 58.628906,240 H 197.37109 C 207.69113,240 216,231.69113 216,221.37109 V 128 Z"
         sodipodi:nodetypes="csssscc" />
      <path
         id="path4-9"
         style="display:inline;opacity:0.08;fill:#ffffff;stroke-width:6.64319;stroke-linecap:round;stroke-linejoin:round;paint-order:stroke markers fill;enable-background:new"
         d="m 128,16 v 224 h 69.37109 C 207.69113,240 216,231.69113 216,221.37109 L 215.994,80 l -64,-64 z"
         sodipodi:nodetypes="ccscccc" />
      <path
         id="path8-5"
         style="display:inline;opacity:0.08;fill:#ffffff;stroke-width:6.64319;stroke-linecap:round;stroke-linejoin:round;paint-order:stroke markers fill;enable-background:new"
         d="m 216,180 -60,60 h 41.37109 C 207.69113,240 216,231.69113 216,221.37109 Z"
         sodipodi:nodetypes="ccssc" />
    </g>
    <g
       inkscape:groupmode="layer"
       id="layer6-0"
       inkscape:label="Folded corner"
       style="display:inline;enable-background:new">
      <path
         id="path6-4"
         style="display:inline;opacity:0.4;fill:#000000;stroke-width:12.6323;stroke-linecap:round;stroke-linejoin:round;paint-order:stroke markers fill;enable-background:new"
         inkscape:transform-center-y="-10.667154"
         d="M 152,20 V 65.37109 C 152,75.69097 160.30706,84 170.62695,84 H 216 v -4 h -3.99023 v 0.01 C 192.0061,60.00789 172.00326,40.00325 152,20 Z"
         sodipodi:nodetypes="cssccccc" />
      <path
         id="path5-8"
         style="display:inline;fill:#49cbbd;fill-opacity:1;stroke-width:12.6323;stroke-linecap:round;stroke-linejoin:round;paint-order:stroke markers fill;enable-background:new"
         inkscape:transform-center-y="-10.667154"
         d="M 152,16 V 61.37109 C 152,71.69098 160.30706,80 170.62696,80 H 216 C 194.66606,58.66856 173.33336,37.33335 152,16 Z"
         sodipodi:nodetypes="csscc" />
    </g>
  </g>
  <metadata
     id="metadata11">
    <rdf:RDF>
      <cc:Work
         rdf:about="">
        <dc:title>Suru Icon Theme Template</dc:title>
      </cc:Work>
    </rdf:RDF>
  </metadata>
</svg>
