<?xml version="1.0" encoding="UTF-8" standalone="no"?>
<svg
   width="256"
   height="256"
   id="svg11300"
   sodipodi:version="0.32"
   sodipodi:docname="application-x-shellscript.svg"
   version="1.0"
   style="display:inline;enable-background:new"
   inkscape:version="1.4 (e7c3feb100, 2024-10-09)"
   xmlns:inkscape="http://www.inkscape.org/namespaces/inkscape"
   xmlns:sodipodi="http://sodipodi.sourceforge.net/DTD/sodipodi-0.dtd"
   xmlns="http://www.w3.org/2000/svg"
   xmlns:svg="http://www.w3.org/2000/svg">
  <sodipodi:namedview
     stroke="#ef2929"
     fill="#f57900"
     id="base"
     pagecolor="#cccccc"
     bordercolor="#666666"
     borderopacity="1"
     inkscape:pageopacity="0"
     inkscape:pageshadow="2"
     inkscape:zoom="2.7002697"
     inkscape:cx="61.845675"
     inkscape:cy="165.90935"
     inkscape:current-layer="layer1"
     showgrid="false"
     inkscape:grid-bbox="true"
     inkscape:document-units="px"
     inkscape:showpageshadow="true"
     inkscape:window-width="1920"
     inkscape:window-height="1011"
     inkscape:window-x="0"
     inkscape:window-y="0"
     width="400px"
     height="300px"
     inkscape:snap-nodes="true"
     inkscape:snap-bbox="true"
     gridtolerance="10000"
     inkscape:object-nodes="true"
     inkscape:snap-grids="true"
     showguides="false"
     inkscape:guide-bbox="true"
     inkscape:window-maximized="1"
     inkscape:bbox-paths="true"
     inkscape:snap-bbox-midpoints="true"
     inkscape:snap-global="false"
     inkscape:object-paths="true"
     inkscape:snap-intersection-paths="true"
     inkscape:snap-smooth-nodes="true"
     inkscape:pagecheckerboard="false"
     showborder="true"
     inkscape:document-rotation="0"
     inkscape:deskcolor="#d1d1d1">
    <inkscape:grid
       spacingy="1"
       spacingx="1"
       id="grid5883"
       type="xygrid"
       enabled="true"
       visible="false"
       empspacing="4"
       snapvisiblegridlinesonly="true"
       originx="0"
       originy="0"
       units="px" />
    <inkscape:grid
       type="xygrid"
       id="grid11592"
       empspacing="2"
       visible="false"
       enabled="false"
       spacingx="0.5"
       spacingy="0.5"
       color="#ff0000"
       opacity="0.1254902"
       empcolor="#ff0000"
       empopacity="0.25098039"
       snapvisiblegridlinesonly="true"
       originx="0"
       originy="0"
       units="px" />
    <sodipodi:guide
       position="394.16276,545.36183"
       orientation="0,-1"
       id="guide864"
       inkscape:locked="false" />
  </sodipodi:namedview>
  <defs
     id="defs3" />
  <g
     style="display:inline"
     inkscape:groupmode="layer"
     inkscape:label="Icon"
     id="layer1">
    <g
       inkscape:groupmode="layer"
       id="layer4"
       inkscape:label="Shadow"
       style="display:inline;opacity:0.4">
      <path
         id="rect3"
         style="display:inline;opacity:0.4;fill:#000000;stroke-width:6.64319;stroke-linecap:round;stroke-linejoin:round;paint-order:stroke markers fill;enable-background:new"
         d="m 40,128 v 97.37109 C 40,235.69114 48.308858,244 58.628906,244 H 197.37109 C 207.69114,244 216,235.69114 216,225.37109 V 128 Z"
         sodipodi:nodetypes="csssscc" />
    </g>
    <g
       inkscape:groupmode="layer"
       id="layer2"
       inkscape:label="Background"
       style="display:inline">
      <path
         id="rect2"
         style="fill:#f9f9f9;stroke-width:6.64319;stroke-linecap:round;stroke-linejoin:round;paint-order:stroke markers fill"
         d="M 58.628906,16 C 48.308858,16 40,24.308858 40,34.628906 V 221.37109 C 40,231.69114 48.308858,240 58.628906,240 H 197.37109 C 207.69114,240 216,231.69114 216,221.37109 L 215.99414,80 l -64,-64 z"
         sodipodi:nodetypes="ssssscccs" />
    </g>
    <g
       inkscape:groupmode="layer"
       id="layer8"
       inkscape:label="Graphic"
       style="display:inline">
      <g
         id="g2">
        <path
           id="path23"
           style="display:inline;fill:#c6c6c6;fill-opacity:1;stroke-width:2.81803;stroke-linecap:round;stroke-linejoin:round;paint-order:stroke markers fill;enable-background:new"
           d="M 65 133 L 65 141 L 191 141 L 191 133 L 65 133 z M 65 151 L 65 159 L 191 159 L 191 151 L 65 151 z M 65 169 L 65 177 L 191 177 L 191 169 L 65 169 z M 65 187 L 65 195 L 191 195 L 191 187 L 65 187 z M 65 205 L 65 213 L 191 213 L 191 205 L 65 205 z " />
        <g
           id="g1">
          <rect
             style="fill:#808080;stroke-width:7.95489;stroke-linecap:round;stroke-linejoin:round;paint-order:stroke markers fill"
             id="rect844"
             width="64"
             height="12"
             x="112"
             y="104" />
          <g
             id="g24"
             transform="rotate(-45,37.3137,10.100506)"
             style="fill:#808080">
            <rect
               style="fill:#808080;stroke-width:6.88914;stroke-linecap:round;stroke-linejoin:round;paint-order:stroke markers fill"
               id="rect23"
               width="48"
               height="12"
               x="-8.3725843"
               y="94.941132" />
            <rect
               style="fill:#808080;stroke-width:6.88914;stroke-linecap:round;stroke-linejoin:round;paint-order:stroke markers fill"
               id="rect24"
               width="48"
               height="12"
               x="-106.94113"
               y="27.627415"
               transform="rotate(-90)" />
          </g>
        </g>
      </g>
    </g>
    <g
       inkscape:groupmode="layer"
       id="layer3"
       inkscape:label="Highlights"
       style="display:inline;enable-background:new">
      <path
         id="path2"
         style="display:inline;opacity:0.6;fill:#ffffff;stroke-width:6.64319;stroke-linecap:round;stroke-linejoin:round;paint-order:stroke markers fill;enable-background:new"
         d="M 58.628906,16 C 48.308869,16 40,24.308869 40,34.628906 v 2 C 40,26.308869 48.308869,18 58.628906,18 h 93.365234 l 64,64 v -2 l -64,-64 z"
         sodipodi:nodetypes="sscsccccs" />
      <path
         id="path3"
         style="display:inline;opacity:0.2;fill:#ffffff;stroke-width:6.64319;stroke-linecap:round;stroke-linejoin:round;paint-order:stroke markers fill;enable-background:new"
         d="m 40,128 v 93.37109 C 40,231.69113 48.308869,240 58.628906,240 H 197.37109 C 207.69113,240 216,231.69113 216,221.37109 V 128 Z"
         sodipodi:nodetypes="csssscc" />
      <path
         id="path4"
         style="display:inline;opacity:0.1;fill:#ffffff;stroke-width:6.64319;stroke-linecap:round;stroke-linejoin:round;paint-order:stroke markers fill;enable-background:new"
         d="m 128,16 v 224 h 69.37109 C 207.69113,240 216,231.69113 216,221.37109 L 215.994,80 l -64,-64 z"
         sodipodi:nodetypes="ccscccc" />
    </g>
    <g
       inkscape:groupmode="layer"
       id="layer6"
       inkscape:label="Folded corner"
       style="display:inline">
      <path
         id="path6"
         style="opacity:0.4;fill:#000000;stroke-width:12.6323;stroke-linecap:round;stroke-linejoin:round;paint-order:stroke markers fill"
         inkscape:transform-center-y="-10.667154"
         d="M 152,20 V 65.371094 C 152,75.690974 160.30706,84 170.62695,84 H 216 v -4 h -3.99023 v 0.0098 C 192.0061,60.007887 172.00326,40.003255 152,20 Z"
         sodipodi:nodetypes="cssccccc" />
      <path
         id="path5"
         style="opacity:1;fill:#ececec;stroke-width:12.6323;stroke-linecap:round;stroke-linejoin:round;paint-order:stroke markers fill"
         inkscape:transform-center-y="-10.667154"
         d="M 152,16 V 61.371094 C 152,71.690985 160.30706,80 170.62696,80 H 216 C 194.66606,58.668561 173.33336,37.333354 152,16 Z"
         sodipodi:nodetypes="csscc" />
    </g>
  </g>
</svg>
