<?xml version="1.0" encoding="UTF-8" standalone="no"?>
<svg
   width="256"
   height="256"
   id="svg11300"
   sodipodi:version="0.32"
   sodipodi:docname="application-x-mswinurl.svg"
   version="1.0"
   style="display:inline;enable-background:new"
   xmlns:inkscape="http://www.inkscape.org/namespaces/inkscape"
   xmlns:sodipodi="http://sodipodi.sourceforge.net/DTD/sodipodi-0.dtd"
   xmlns:xlink="http://www.w3.org/1999/xlink"
   xmlns="http://www.w3.org/2000/svg"
   xmlns:svg="http://www.w3.org/2000/svg">
  <sodipodi:namedview
     stroke="#ef2929"
     fill="#f57900"
     id="base"
     pagecolor="#ffffff"
     bordercolor="#666666"
     borderopacity="1"
     inkscape:pageopacity="0"
     inkscape:pageshadow="2"
     inkscape:zoom="1.0782348"
     inkscape:cx="194.76685"
     inkscape:cy="278.47904"
     inkscape:current-layer="layer8"
     showgrid="false"
     inkscape:grid-bbox="true"
     inkscape:document-units="px"
     inkscape:showpageshadow="true"
     inkscape:window-width="1920"
     inkscape:window-height="1016"
     inkscape:window-x="1920"
     inkscape:window-y="27"
     width="400px"
     height="300px"
     inkscape:snap-nodes="true"
     inkscape:snap-bbox="true"
     gridtolerance="10000"
     inkscape:object-nodes="true"
     inkscape:snap-grids="true"
     showguides="true"
     inkscape:guide-bbox="true"
     inkscape:window-maximized="1"
     inkscape:bbox-paths="true"
     inkscape:snap-bbox-midpoints="true"
     inkscape:snap-global="false"
     inkscape:object-paths="true"
     inkscape:snap-intersection-paths="true"
     inkscape:snap-smooth-nodes="true"
     inkscape:pagecheckerboard="false"
     showborder="true"
     inkscape:document-rotation="0"
     inkscape:deskcolor="#d1d1d1">
    <inkscape:grid
       spacingy="1"
       spacingx="1"
       id="grid5883"
       type="xygrid"
       enabled="true"
       visible="false"
       empspacing="4"
       snapvisiblegridlinesonly="true"
       originx="0"
       originy="0"
       units="px" />
    <inkscape:grid
       type="xygrid"
       id="grid11592"
       empspacing="2"
       visible="false"
       enabled="false"
       spacingx="0.5"
       spacingy="0.5"
       color="#ff0000"
       opacity="0.1254902"
       empcolor="#ff0000"
       empopacity="0.25098039"
       snapvisiblegridlinesonly="true"
       originx="0"
       originy="0"
       units="px" />
  </sodipodi:namedview>
  <defs
     id="defs3">
    <linearGradient
       gradientUnits="userSpaceOnUse"
       y2="401.58368"
       x2="-36.382763"
       y1="401.58368"
       x1="529.65515"
       id="linearGradient4226"
       xlink:href="#linearGradient4338"
       inkscape:collect="always"
       gradientTransform="matrix(0,-0.45312414,0.45309814,0,2.0441607,239.99957)" />
    <linearGradient
       inkscape:collect="always"
       id="linearGradient4338">
      <stop
         style="stop-color:#f2f2f2;stop-opacity:1"
         offset="0"
         id="stop4340" />
      <stop
         style="stop-color:#f9f9f9;stop-opacity:1"
         offset="1"
         id="stop4342" />
    </linearGradient>
  </defs>
  <g
     style="display:inline"
     inkscape:groupmode="layer"
     inkscape:label="Icon"
     id="layer1">
    <g
       inkscape:groupmode="layer"
       id="g863"
       inkscape:label="Shadow"
       style="display:inline;opacity:0.4">
      <path
         style="color:#000000;display:inline;overflow:visible;visibility:visible;fill:#000000;fill-opacity:1;fill-rule:nonzero;stroke:none;stroke-width:0.999984;marker:none;enable-background:accumulate"
         d="m 78.925821,20 c -35.295639,0 -39.09341,3.625411 -38.920425,38.993455 v 73.006335 73.00633 c -0.172985,35.36805 3.624786,38.99345 38.920425,38.99345 H 177.07956 C 212.37521,243.99957 216,240.37458 216,205.00612 V 131.99979 58.993455 C 216,23.62499 212.37521,20 177.07956,20 Z"
         id="path861"
         inkscape:connector-curvature="0"
         sodipodi:nodetypes="scccssscsss" />
    </g>
    <g
       inkscape:groupmode="layer"
       id="layer2"
       inkscape:label="Background"
       style="display:inline">
      <path
         style="color:#000000;display:inline;overflow:visible;visibility:visible;fill:url(#linearGradient4226);fill-opacity:1;fill-rule:nonzero;stroke:none;stroke-width:0.999984;marker:none;enable-background:accumulate"
         d="m 78.925821,16 c -35.295639,0 -39.09341,3.625411 -38.920425,38.993455 v 73.006335 73.00633 c -0.172985,35.36805 3.624786,38.99345 38.920425,38.99345 H 177.07956 C 212.37521,239.99957 216,236.37458 216,201.00612 V 127.99979 54.993455 C 216,19.62499 212.37521,16 177.07956,16 Z"
         id="rect4158"
         inkscape:connector-curvature="0"
         sodipodi:nodetypes="scccssscsss" />
    </g>
    <g
       inkscape:groupmode="layer"
       id="layer8"
       inkscape:label="Graphic"
       style="display:inline">
      <path
         inkscape:connector-curvature="0"
         d="m 151.44973,104.55691 c 2.71596,2.71593 2.71596,7.11955 0,9.83547 l -37.0508,37.05069 c -2.71594,2.71593 -7.11957,2.71593 -9.83552,0 v 0 c -2.71593,-2.71592 -2.71593,-7.11954 0,-9.83547 l 37.05082,-37.05069 c 2.71595,-2.71592 7.11957,-2.71592 9.8355,0 z m -42.56092,62.34351 c -5.45424,5.45421 -14.328541,5.45421 -19.782781,0 -5.454239,-5.45422 -5.454239,-14.3285 0,-19.78272 l 26.254101,-26.23166 c -8.80726,-2.13474 -18.497459,0.23472 -25.37114,7.10838 l -10.003167,10.00311 c -10.49493,10.49491 -10.49493,27.51697 0,38.01187 10.494938,10.4949 27.517077,10.4949 38.012007,0 L 128.001,166.00628 c 6.87368,-6.87365 9.25431,-16.56383 7.10839,-25.37106 l -26.23175,26.25402 z M 138.00416,79.990588 128.001,89.993709 c -6.88486,6.884841 -9.2655,16.541481 -7.13074,25.359861 l 26.24292,-26.242819 c 5.45424,-5.45422 14.32854,-5.45422 19.78278,0 5.45424,5.454219 5.45424,14.328499 0,19.782719 l -26.24292,26.24283 c 8.80725,2.13475 18.47511,-0.24589 25.35996,-7.13072 l 10.00316,-10.00311 c 10.49493,-10.49492 10.49493,-27.516982 0,-38.011882 -10.49493,-10.494898 -27.51707,-10.494898 -38.012,0 z"
         style="fill:#007aa6;fill-opacity:1;stroke-width:11.1767"
         id="path8" />
    </g>
    <g
       inkscape:groupmode="layer"
       id="layer5"
       inkscape:label="Highlights"
       style="display:inline">
      <path
         style="color:#000000;display:inline;overflow:visible;visibility:visible;opacity:0.1;fill:#ffffff;fill-opacity:1;fill-rule:nonzero;stroke:none;stroke-width:0.999984;marker:none;enable-background:accumulate"
         d="m 128.0027,16 v 223.99957 h 49.0766 c 35.29565,0 38.00246,-3.63654 38.9207,-38.99309 V 127.99979 54.99309 C 216,19.624624 212.37495,16 177.0793,16 Z"
         id="path4231"
         inkscape:connector-curvature="0"
         sodipodi:nodetypes="ccsscssc" />
      <path
         inkscape:connector-curvature="0"
         style="color:#000000;display:inline;overflow:visible;visibility:visible;opacity:0.2;fill:#ffffff;fill-opacity:1;fill-rule:nonzero;stroke:none;stroke-width:0.999984;marker:none;enable-background:accumulate"
         d="m 40.005395,127.99979 v 73.00669 c -0.172985,35.36805 3.625044,38.99309 38.920685,38.99309 h 98.15322 c 35.29565,0 38.00246,-3.63654 38.9207,-38.99309 v -73.00669 z"
         id="path4255"
         sodipodi:nodetypes="ccssscc" />
      <path
         style="color:#000000;display:inline;overflow:visible;visibility:visible;opacity:0.6;fill:#ffffff;fill-opacity:1;fill-rule:nonzero;stroke:none;stroke-width:7.99987;stroke-linecap:butt;stroke-linejoin:miter;stroke-miterlimit:4;stroke-dasharray:none;stroke-dashoffset:0;stroke-opacity:1;marker:none;enable-background:accumulate"
         d="M 156.00183,239.99957 216,179.99969 v 22.48383 c -0.0523,33.99575 -3.80257,37.51605 -38.17293,37.51605 z"
         id="path4254"
         inkscape:connector-curvature="0"
         sodipodi:nodetypes="cccsc" />
      <path
         style="color:#000000;display:inline;overflow:visible;visibility:visible;opacity:0.6;fill:#ffffff;fill-opacity:1;fill-rule:nonzero;stroke:none;stroke-width:0.999984;marker:none;enable-background:accumulate"
         d="m 78.926085,16 c -35.29564,0 -39.09367,3.62602 -38.92069,38.99407 v 1.99999 C 39.832415,21.62602 43.630445,18 78.926085,18 H 177.0793 C 212.37496,18 216,21.6256 216,56.99406 V 54.99407 C 216,19.6256 212.37496,16 177.0793,16 Z"
         id="path931-3"
         inkscape:connector-curvature="0" />
    </g>
  </g>
</svg>
