<?xml version="1.0" encoding="UTF-8" standalone="no"?>
<svg
   style="display:inline;enable-background:new"
   version="1.0"
   sodipodi:docname="application-x-qemu-disk.svg"
   sodipodi:version="0.32"
   id="svg11300"
   height="256"
   width="256"
   inkscape:version="1.4.2 (ebf0e940d0, 2025-05-08)"
   xmlns:inkscape="http://www.inkscape.org/namespaces/inkscape"
   xmlns:sodipodi="http://sodipodi.sourceforge.net/DTD/sodipodi-0.dtd"
   xmlns="http://www.w3.org/2000/svg"
   xmlns:svg="http://www.w3.org/2000/svg"
   xmlns:rdf="http://www.w3.org/1999/02/22-rdf-syntax-ns#"
   xmlns:cc="http://creativecommons.org/ns#"
   xmlns:dc="http://purl.org/dc/elements/1.1/">
  <title
     id="title3004">Suru Icon Theme Template</title>
  <sodipodi:namedview
     inkscape:document-rotation="0"
     showborder="true"
     inkscape:pagecheckerboard="false"
     inkscape:snap-smooth-nodes="true"
     inkscape:snap-intersection-paths="true"
     inkscape:object-paths="true"
     inkscape:snap-global="true"
     inkscape:snap-bbox-midpoints="true"
     inkscape:bbox-paths="true"
     inkscape:window-maximized="1"
     inkscape:guide-bbox="true"
     showguides="true"
     inkscape:snap-grids="true"
     inkscape:object-nodes="true"
     gridtolerance="10000"
     inkscape:snap-bbox="true"
     inkscape:snap-nodes="true"
     height="300px"
     width="400px"
     inkscape:window-y="0"
     inkscape:window-x="0"
     inkscape:window-height="1011"
     inkscape:window-width="1920"
     inkscape:showpageshadow="true"
     inkscape:document-units="px"
     inkscape:grid-bbox="true"
     showgrid="false"
     inkscape:current-layer="layer6"
     inkscape:cy="217.01975"
     inkscape:cx="39.923445"
     inkscape:zoom="1.9537392"
     inkscape:pageshadow="2"
     inkscape:pageopacity="0"
     borderopacity="1"
     bordercolor="#666666"
     pagecolor="#ffffff"
     id="base"
     fill="#f57900"
     stroke="#ef2929"
     inkscape:deskcolor="#d1d1d1">
    <inkscape:grid
       dotted="false"
       originy="0"
       originx="0"
       snapvisiblegridlinesonly="true"
       empspacing="4"
       visible="false"
       enabled="true"
       type="xygrid"
       id="grid5883"
       spacingx="1"
       spacingy="1"
       units="px" />
    <inkscape:grid
       dotted="true"
       originy="0"
       originx="0"
       snapvisiblegridlinesonly="true"
       empopacity="0.25098039"
       empcolor="#ff0000"
       opacity="0.1254902"
       color="#ff0000"
       spacingy="0.5"
       spacingx="0.5"
       enabled="false"
       visible="false"
       empspacing="0"
       id="grid11592"
       type="xygrid"
       units="px" />
  </sodipodi:namedview>
  <defs
     id="defs3" />
  <g
     id="layer1"
     inkscape:label="Icon"
     inkscape:groupmode="layer"
     style="display:inline">
    <g
       inkscape:groupmode="layer"
       id="layer4-6"
       inkscape:label="Shadow"
       style="display:inline;enable-background:new;opacity:0.4"
       transform="translate(-1,-73)">
      <path
         id="rect3"
         style="display:inline;opacity:0.4;fill:#000000;stroke-width:6.64319;stroke-linecap:round;stroke-linejoin:round;paint-order:stroke markers fill;enable-background:new"
         d="m 41,201 v 97.37109 C 41,308.69114 49.308858,317 59.628906,317 H 198.37109 C 208.69114,317 217,308.69114 217,298.37109 V 201 Z" />
    </g>
    <g
       inkscape:groupmode="layer"
       id="layer2-7"
       inkscape:label="Background"
       style="display:inline;enable-background:new"
       transform="translate(-1,-15)">
      <path
         id="rect2"
         style="display:inline;fill:#4a4a4a;fill-opacity:1;stroke-width:6.64319;stroke-linecap:round;stroke-linejoin:round;paint-order:stroke markers fill;enable-background:new"
         d="M 59.628906,31 C 49.308869,31 41,39.308869 41,49.628906 V 236.37109 C 41,246.69113 49.308869,255 59.628906,255 H 198.37109 C 208.69113,255 217,246.69113 217,236.37109 V 49.628906 C 217,39.309027 208.69294,31 198.37305,31 Z"
         sodipodi:nodetypes="sssssssss" />
    </g>
    <g
       style="display:inline;enable-background:new"
       inkscape:label="Graphic"
       id="layer6"
       inkscape:groupmode="layer">
      <path
         style="font-size:4px;line-height:1.25;font-family:Cantarell;-inkscape-font-specification:Cantarell;white-space:pre;fill:#ffffff;stroke-width:0.0818047"
         d="m -178.44762,84.027157 c 0.324,0 0.576,-0.16 0.724,-0.424 l -0.116,-0.144 c -0.108,0.18 -0.288,0.288 -0.516,0.288 -0.384,0 -0.632,-0.3 -0.632,-0.744 0,-0.424 0.224,-0.704 0.596,-0.704 0.244,0 0.436,0.112 0.548,0.304 l 0.148,-0.176 c -0.14,-0.26 -0.388,-0.408 -0.708,-0.408 -0.544,0 -0.904,0.408 -0.904,1.02 0,0.592 0.344,0.988 0.86,0.988 z m 0.55999,0.828 h 0.32001 v -2.796 h -0.224 l -0.096,0.224 z m 1.852,-0.828 c 0.22,0 0.46,-0.052 0.632,-0.144 l -0.072,-0.232 c -0.148,0.072 -0.336,0.116 -0.504,0.116 -0.452,0 -0.72,-0.3 -0.72,-0.8 0,-0.436 0.196,-0.676 0.548,-0.676 0.328,0 0.52,0.212 0.52,0.58 h -1.124 v 0.24 h 1.408 c 0.008,-0.06 0.016,-0.2 0.016,-0.276 0,-0.484 -0.32,-0.816 -0.796,-0.816 -0.536,0 -0.9,0.42 -0.9,1.012 0,0.616 0.38,0.996 0.992,0.996 z m 3.836,-0.04 h 0.32 v -1.264 c 0,-0.428 -0.28,-0.704 -0.708,-0.704 -0.276,0 -0.548,0.12 -0.748,0.332 l 0.076,0.204 c 0.156,-0.164 0.364,-0.256 0.584,-0.256 0.308,0 0.476,0.176 0.476,0.488 z m -2.592,0 h 0.32 v -1.704 l -0.096,-0.224 h -0.224 z m 1.296,0 h 0.32 v -1.264 c 0,-0.428 -0.28,-0.704 -0.704,-0.704 -0.28,0 -0.552,0.12 -0.752,0.332 l 0.076,0.204 c 0.156,-0.164 0.364,-0.256 0.584,-0.256 0.308,0 0.476,0.176 0.476,0.488 z m 2.912,0.04 c 0.272,0 0.548,-0.12 0.744,-0.332 l -0.076,-0.204 c -0.152,0.164 -0.364,0.256 -0.572,0.256 -0.3,0 -0.472,-0.176 -0.472,-0.488 v -1.2 h -0.32 v 1.264 c 0,0.428 0.284,0.704 0.696,0.704 z m 0.68,-0.04 h 0.224 v -1.928 h -0.32 v 1.704 z"
         id="text1"
         transform="matrix(12.224244,0,0,12.224244,2260.4042,-812.02216)"
         aria-label="qemu" />
      <path
         style="display:inline;fill:none;stroke:#ffffff;stroke-width:6.68037;stroke-linecap:butt;stroke-linejoin:round;stroke-miterlimit:4;stroke-dasharray:none;stroke-opacity:1;enable-background:new"
         d="m 87.963594,120.25127 c 13.693826,11.29093 33.799566,43.9671 39.582666,43.72494 3.03508,-1.75748 -6.01212,-27.24429 -9.01819,-40.86643 -0.79898,-7.35969 -2.857,-14.62089 2.84025,-20.72788 4.14219,-2.515551 12.77012,-4.722815 21.3439,-11.074648 13.28733,0.498313 24.73487,3.478188 37.7297,4.936267 C 176.73856,90.52838 162.58752,80.73106 151.07243,77.905041 145.11037,71.389413 144.14435,60.773258 120.37202,57.620362 88.521046,55.519444 85.053856,97.79583 87.963594,120.25129 Z"
         id="path859"
         sodipodi:nodetypes="cccccccccc" />
    </g>
    <g
       inkscape:groupmode="layer"
       id="layer3-3"
       inkscape:label="Highlights"
       style="display:inline;enable-background:new">
      <path
         id="path3"
         style="display:inline;opacity:0.08;fill:#ffffff;stroke-width:6.64319;stroke-linecap:round;stroke-linejoin:round;paint-order:stroke markers fill;enable-background:new"
         d="m 40,128 v 93.37109 C 40,231.69113 48.308869,240 58.628906,240 H 197.37109 C 207.69113,240 216,231.69113 216,221.37109 V 128 Z" />
      <path
         id="path8"
         style="display:inline;opacity:0.08;fill:#ffffff;stroke-width:6.64319;stroke-linecap:round;stroke-linejoin:round;paint-order:stroke markers fill;enable-background:new"
         d="m 216,180 -60,60 h 41.37109 C 207.69113,240 216,231.69113 216,221.37109 Z" />
      <path
         id="path1"
         style="display:inline;opacity:0.4;fill:#ffffff;stroke-width:6.64319;stroke-linecap:round;stroke-linejoin:round;paint-order:stroke markers fill;enable-background:new"
         d="M 58.628906,16 C 48.308891,16 40,24.308891 40,34.628906 v 2 C 40,26.308891 48.308891,18 58.628906,18 H 197.37109 C 207.69111,18 216,26.308891 216,36.628906 v -2 C 216,24.308891 207.69111,16 197.37109,16 Z"
         sodipodi:nodetypes="sscsscsss" />
      <path
         id="path2"
         style="display:inline;opacity:0.08;fill:#ffffff;stroke-width:6.64319;stroke-linecap:round;stroke-linejoin:round;paint-order:stroke markers fill;enable-background:new"
         d="m 128,16 v 224 h 69.37109 C 207.69112,240 216,231.69112 216,221.37109 V 34.628906 C 216,24.309038 207.69293,16 197.37305,16 Z" />
    </g>
  </g>
  <metadata
     id="metadata1">
    <rdf:RDF>
      <cc:Work
         rdf:about="">
        <dc:title>Suru Icon Theme Template</dc:title>
      </cc:Work>
    </rdf:RDF>
  </metadata>
</svg>
