<?xml version="1.0" encoding="UTF-8" standalone="no"?>
<svg
   width="256"
   height="256"
   id="svg11300"
   sodipodi:version="0.32"
   sodipodi:docname="application-x-gettext-translation.svg"
   version="1.0"
   style="display:inline;enable-background:new"
   inkscape:version="1.3 (0e150ed6c4, 2023-07-21)"
   xmlns:inkscape="http://www.inkscape.org/namespaces/inkscape"
   xmlns:sodipodi="http://sodipodi.sourceforge.net/DTD/sodipodi-0.dtd"
   xmlns="http://www.w3.org/2000/svg"
   xmlns:svg="http://www.w3.org/2000/svg">
  <sodipodi:namedview
     stroke="#ef2929"
     fill="#f57900"
     id="base"
     pagecolor="#cccccc"
     bordercolor="#666666"
     borderopacity="1"
     inkscape:pageopacity="0"
     inkscape:pageshadow="2"
     inkscape:zoom="1.6408519"
     inkscape:cx="27.120059"
     inkscape:cy="119.75487"
     inkscape:current-layer="layer2"
     showgrid="false"
     inkscape:grid-bbox="true"
     inkscape:document-units="px"
     inkscape:showpageshadow="true"
     inkscape:window-width="1920"
     inkscape:window-height="1011"
     inkscape:window-x="1920"
     inkscape:window-y="32"
     width="400px"
     height="300px"
     inkscape:snap-nodes="true"
     inkscape:snap-bbox="true"
     gridtolerance="10000"
     inkscape:object-nodes="true"
     inkscape:snap-grids="true"
     showguides="false"
     inkscape:guide-bbox="true"
     inkscape:window-maximized="1"
     inkscape:bbox-paths="true"
     inkscape:snap-bbox-midpoints="true"
     inkscape:snap-global="false"
     inkscape:object-paths="true"
     inkscape:snap-intersection-paths="true"
     inkscape:snap-smooth-nodes="true"
     inkscape:pagecheckerboard="false"
     showborder="true"
     inkscape:document-rotation="0"
     inkscape:deskcolor="#d1d1d1">
    <inkscape:grid
       spacingy="1"
       spacingx="1"
       id="grid5883"
       type="xygrid"
       enabled="true"
       visible="false"
       empspacing="4"
       snapvisiblegridlinesonly="true"
       originx="0"
       originy="0"
       units="px" />
    <inkscape:grid
       type="xygrid"
       id="grid11592"
       empspacing="2"
       visible="false"
       enabled="false"
       spacingx="0.5"
       spacingy="0.5"
       color="#ff0000"
       opacity="0.1254902"
       empcolor="#ff0000"
       empopacity="0.25098039"
       snapvisiblegridlinesonly="true"
       originx="0"
       originy="0"
       units="px" />
    <sodipodi:guide
       position="394.16276,545.36183"
       orientation="0,-1"
       id="guide864"
       inkscape:locked="false" />
  </sodipodi:namedview>
  <defs
     id="defs3" />
  <g
     style="display:inline"
     inkscape:groupmode="layer"
     inkscape:label="Icon"
     id="layer1">
    <g
       inkscape:groupmode="layer"
       id="layer4"
       inkscape:label="Shadow"
       style="display:inline;opacity:0.4;enable-background:new"
       transform="translate(-101,-10)">
      <path
         id="rect3"
         style="display:inline;opacity:0.4;fill:#000000;stroke-width:6.64319;stroke-linecap:round;stroke-linejoin:round;paint-order:stroke markers fill;enable-background:new"
         d="m 141,138 v 97.37109 C 141,245.69114 149.30886,254 159.62891,254 H 298.37109 C 308.69114,254 317,245.69114 317,235.37109 V 138 Z" />
    </g>
    <g
       inkscape:groupmode="layer"
       id="layer2"
       inkscape:label="Background"
       style="display:inline;enable-background:new"
       transform="translate(-101,-10)">
      <path
         id="rect2"
         style="display:inline;fill:#f9f9f9;stroke-width:6.64319;stroke-linecap:round;stroke-linejoin:round;paint-order:stroke markers fill;enable-background:new"
         d="M 159.62891,26 C 149.30886,26 141,34.308858 141,44.628906 V 231.37109 C 141,241.69114 149.30886,250 159.62891,250 H 298.37109 C 308.69114,250 317,241.69114 317,231.37109 V 44.628906 c 0,-0.03957 -0.006,-0.07768 -0.006,-0.117187 V 90 l -64,-64 z" />
      <path
         id="path1"
         style="display:inline;fill:#3784cb;stroke-width:6.64319;stroke-linecap:round;stroke-linejoin:round;paint-order:stroke markers fill;enable-background:new;fill-opacity:1"
         d="M 141 190 L 141 231.37109 C 141 241.69113 149.30887 250 159.62891 250 L 298.37109 250 C 308.69113 250 317 241.69113 317 231.37109 L 317 190 L 141 190 z " />
    </g>
    <g
       inkscape:groupmode="layer"
       id="layer8"
       inkscape:label="Graphic"
       style="display:inline;enable-background:new">
      <g
         id="g4397"
         style="display:inline;enable-background:new">
        <g
           id="g4368">
          <rect
             style="opacity:0.4;fill:#000000;fill-opacity:1;stroke-width:1.72158;stroke-linecap:round;stroke-linejoin:round;paint-order:stroke markers fill"
             id="rect37208"
             width="54"
             height="54"
             x="97"
             y="111"
             ry="9.3347511" />
          <g
             id="g36348"
             transform="matrix(1.08,0,0,1.08,-2.36,-18.28)">
            <rect
               style="opacity:1;fill:#22ff60;fill-opacity:1;stroke-width:1.59406;stroke-linecap:round;stroke-linejoin:round;paint-order:stroke markers fill"
               id="rect14095"
               width="50"
               height="50"
               x="92"
               y="116"
               ry="8.6432877" />
            <path
               d="m 120.24,158.136 c 3.408,0 7.2,-0.864 10.032,-2.256 l -1.392,-4.464 c -2.16,0.816 -4.848,1.296 -7.152,1.296 -7.344,0 -11.904,-4.8 -11.904,-12.288 0,-7.056 4.128,-11.088 11.136,-11.088 2.688,0 5.712,0.528 7.872,1.392 l 1.728,-4.8 c -2.832,-1.344 -6.096,-2.064 -9.408,-2.064 -10.56,0 -17.712,6.96 -17.712,17.424 0,10.08 6.768,16.848 16.8,16.848 z"
               id="path36324"
               style="font-weight:bold;font-size:48px;line-height:1.25;font-family:Cantarell;-inkscape-font-specification:'Cantarell Bold';white-space:pre;fill:#ffffff" />
          </g>
        </g>
        <g
           id="g4374">
          <rect
             style="opacity:0.4;fill:#000000;fill-opacity:1;stroke-width:1.72158;stroke-linecap:round;stroke-linejoin:round;paint-order:stroke markers fill"
             id="rect37102"
             width="54"
             height="54"
             x="69"
             y="79"
             ry="9.3347511" />
          <g
             id="g36252"
             transform="matrix(1.08,0,0,1.08,-13.08,-33)">
            <rect
               style="fill:#ff642b;fill-opacity:1;stroke-width:1.59406;stroke-linecap:round;stroke-linejoin:round;paint-order:stroke markers fill"
               id="rect14057"
               width="50"
               height="50"
               x="76"
               y="100"
               ry="8.6432877" />
            <path
               d="M 88.231998,141.656 H 100.664 c 8.064,0 13.104,-3.984 13.104,-10.32 0,-4.176 -2.208,-7.2 -6.048,-8.592 2.112,-1.392 3.408,-3.84 3.408,-6.48 0,-5.136 -4.176,-7.92 -11.856002,-7.92 h -11.04 z m 6.144,-28.32 h 4.416 c 3.888002,0 6.048002,1.632 6.048002,4.512 0,1.728 -0.816,3.072 -2.688,4.128 h -7.776002 z m 0,23.328 v -9.84 H 101.576 c 3.6,0 5.808,2.112 5.808,5.328 0,3.072 -1.872,4.512 -5.904,4.512 z"
               id="path36228"
               style="font-weight:bold;font-size:48px;line-height:1.25;font-family:Cantarell;-inkscape-font-specification:'Cantarell Bold';white-space:pre;fill:#ffffff" />
          </g>
        </g>
        <g
           id="g4380">
          <rect
             style="opacity:0.4;fill:#000000;fill-opacity:1;stroke-width:1.72158;stroke-linecap:round;stroke-linejoin:round;paint-order:stroke markers fill"
             id="rect36996"
             width="54"
             height="54"
             x="101"
             y="51"
             ry="9.3347511" />
          <g
             id="g36278"
             transform="matrix(1.08,0,0,1.08,-7,-39.4)">
            <rect
               style="opacity:1;fill:#27d7df;fill-opacity:1;stroke-width:1.59406;stroke-linecap:round;stroke-linejoin:round;paint-order:stroke markers fill"
               id="rect11658"
               width="50"
               height="50"
               x="100"
               y="80"
               ry="8.6432877" />
            <path
               d="m 109.16,121.656 h 6.576 l 2.736,-8.352 h 12.768 l 2.736,8.352 h 6.864 L 129.272,88.344 h -7.92 z m 11.136,-13.872 4.608,-14.112003 4.56,14.112003 z"
               id="path36254"
               style="font-weight:bold;font-size:48px;line-height:1.25;font-family:Cantarell;-inkscape-font-specification:'Cantarell Bold';white-space:pre;fill:#ffffff" />
          </g>
        </g>
      </g>
      <path
         id="path11871"
         style="font-weight:bold;font-size:56px;line-height:1.25;font-family:Cantarell;-inkscape-font-specification:'Cantarell Bold';white-space:pre;fill:#ffffff"
         d="m 151.88377,190.036 c -11.53599,0 -19.20897,8.11949 -19.20897,20.27149 0,11.816 7.44844,19.65625 18.64843,19.65625 11.70399,0 19.48827,-8.11949 19.48827,-20.27149 0,-11.76 -7.55974,-19.65625 -18.92773,-19.65625 z m -66.69527,0.56055 v 38.86328 h 6.999996 v -26.0957 l 10.248044,20.10351 h 5.54296 l 10.41601,-20.88867 v 26.88086 h 7 v -38.86328 h -7 l -12.8789,25.19922 -13.216786,-25.19922 z m 66.13473,5.76758 c 7.168,0 11.98436,5.54336 11.98436,13.94336 0,8.008 -4.59182,13.38476 -11.42382,13.38476 -7.05599,0 -11.70507,-5.6 -11.70507,-14 0,-8.008 4.42454,-13.32812 11.14453,-13.32812 z" />
    </g>
    <g
       inkscape:groupmode="layer"
       id="layer3"
       inkscape:label="Highlights"
       style="display:inline;enable-background:new"
       transform="translate(-101,-10)">
      <path
         id="path2"
         style="display:inline;opacity:0.6;fill:#ffffff;stroke-width:6.64319;stroke-linecap:round;stroke-linejoin:round;paint-order:stroke markers fill;enable-background:new"
         d="M 159.62891,26 C 149.30887,26 141,34.308869 141,44.628906 v 2 C 141,36.308869 149.30887,28 159.62891,28 h 93.36523 l 64,64 v -2 l -64,-64 z m 157.36523,18.511719 v 2 c 0,0.03951 0.006,0.07762 0.006,0.117187 v -2 c 0,-0.03957 -0.006,-0.07768 -0.006,-0.117187 z" />
      <path
         id="path3"
         style="display:inline;opacity:0.2;fill:#ffffff;stroke-width:6.64319;stroke-linecap:round;stroke-linejoin:round;paint-order:stroke markers fill;enable-background:new"
         d="m 141,138 v 93.37109 C 141,241.69113 149.30887,250 159.62891,250 H 298.37109 C 308.69113,250 317,241.69113 317,231.37109 V 138 Z" />
      <path
         id="path4"
         style="display:inline;opacity:0.1;fill:#ffffff;stroke-width:6.64319;stroke-linecap:round;stroke-linejoin:round;paint-order:stroke markers fill;enable-background:new"
         d="m 229,26 v 224 h 69.37109 C 308.69113,250 317,241.69113 317,231.37109 V 44.628906 c 0,-0.03957 -0.006,-0.07768 -0.006,-0.117187 V 90 l -64,-64 z" />
      <path
         id="path8"
         style="display:inline;opacity:0.05;fill:#ffffff;stroke-width:6.64319;stroke-linecap:round;stroke-linejoin:round;paint-order:stroke markers fill;enable-background:new"
         d="m 317,190 -60,60 h 41.37109 C 308.69113,250 317,241.69113 317,231.37109 Z" />
    </g>
    <g
       inkscape:groupmode="layer"
       id="layer6"
       inkscape:label="Folded corner"
       style="display:inline;enable-background:new"
       transform="translate(-101,-10)">
      <path
         id="path6"
         style="display:inline;opacity:0.4;fill:#000000;stroke-width:12.6323;stroke-linecap:round;stroke-linejoin:round;paint-order:stroke markers fill;enable-background:new"
         inkscape:transform-center-y="-10.667154"
         d="M 253,30 V 75.37109 C 253,85.69097 261.30706,94 271.62695,94 H 317 v -4 h -3.99023 v 0.01 C 293.0061,70.00789 273.00326,50.00325 253,30 Z"
         sodipodi:nodetypes="cssccccc" />
      <path
         id="path5"
         style="display:inline;fill:#ececec;stroke-width:12.6323;stroke-linecap:round;stroke-linejoin:round;paint-order:stroke markers fill;enable-background:new"
         inkscape:transform-center-y="-10.667154"
         d="M 253,26 V 71.37109 C 253,81.69098 261.30706,90 271.62696,90 H 317 C 295.66606,68.66856 274.33336,47.33335 253,26 Z"
         sodipodi:nodetypes="csscc" />
    </g>
  </g>
</svg>
