<?xml version="1.0" encoding="UTF-8" standalone="no"?>
<svg
   width="256"
   height="256"
   id="svg11300"
   sodipodi:version="0.32"
   sodipodi:docname="application-x-gettext-translation.svg"
   version="1.0"
   style="display:inline;enable-background:new"
   xmlns:inkscape="http://www.inkscape.org/namespaces/inkscape"
   xmlns:sodipodi="http://sodipodi.sourceforge.net/DTD/sodipodi-0.dtd"
   xmlns:xlink="http://www.w3.org/1999/xlink"
   xmlns="http://www.w3.org/2000/svg"
   xmlns:svg="http://www.w3.org/2000/svg">
  <sodipodi:namedview
     stroke="#ef2929"
     fill="#f57900"
     id="base"
     pagecolor="#ffffff"
     bordercolor="#666666"
     borderopacity="1"
     inkscape:pageopacity="0"
     inkscape:pageshadow="2"
     inkscape:zoom="2.0000001"
     inkscape:cx="146.99999"
     inkscape:cy="132.24999"
     inkscape:current-layer="layer8"
     showgrid="false"
     inkscape:grid-bbox="true"
     inkscape:document-units="px"
     inkscape:showpageshadow="true"
     inkscape:window-width="1920"
     inkscape:window-height="1016"
     inkscape:window-x="1920"
     inkscape:window-y="27"
     width="400px"
     height="300px"
     inkscape:snap-nodes="true"
     inkscape:snap-bbox="true"
     gridtolerance="10000"
     inkscape:object-nodes="true"
     inkscape:snap-grids="true"
     showguides="false"
     inkscape:guide-bbox="true"
     inkscape:window-maximized="1"
     inkscape:bbox-paths="true"
     inkscape:snap-bbox-midpoints="true"
     inkscape:snap-global="false"
     inkscape:object-paths="true"
     inkscape:snap-intersection-paths="true"
     inkscape:snap-smooth-nodes="true"
     inkscape:pagecheckerboard="false"
     showborder="true"
     inkscape:document-rotation="0"
     inkscape:deskcolor="#d1d1d1">
    <inkscape:grid
       spacingy="1"
       spacingx="1"
       id="grid5883"
       type="xygrid"
       enabled="true"
       visible="false"
       empspacing="4"
       snapvisiblegridlinesonly="true"
       originx="0"
       originy="0"
       units="px" />
    <inkscape:grid
       type="xygrid"
       id="grid11592"
       empspacing="2"
       visible="false"
       enabled="false"
       spacingx="0.5"
       spacingy="0.5"
       color="#ff0000"
       opacity="0.1254902"
       empcolor="#ff0000"
       empopacity="0.25098039"
       snapvisiblegridlinesonly="true"
       originx="0"
       originy="0"
       units="px" />
    <sodipodi:guide
       position="394.16276,545.36183"
       orientation="0,-1"
       id="guide864"
       inkscape:locked="false" />
  </sodipodi:namedview>
  <defs
     id="defs3">
    <linearGradient
       gradientUnits="userSpaceOnUse"
       y2="401.58368"
       x2="-74.916695"
       y1="401.58368"
       x1="525.92114"
       id="linearGradient4226"
       xlink:href="#linearGradient4338"
       inkscape:collect="always"
       gradientTransform="matrix(0,-0.45312414,0.45309459,0,2.0444575,239.99957)" />
    <linearGradient
       inkscape:collect="always"
       id="linearGradient4338">
      <stop
         style="stop-color:#f2f2f2;stop-opacity:1"
         offset="0"
         id="stop4340" />
      <stop
         style="stop-color:#f9f9f9;stop-opacity:1"
         offset="1"
         id="stop4342" />
    </linearGradient>
  </defs>
  <g
     style="display:inline"
     inkscape:groupmode="layer"
     inkscape:label="Icon"
     id="layer1">
    <g
       inkscape:groupmode="layer"
       id="layer4"
       inkscape:label="Shadow"
       style="display:inline;opacity:0.4">
      <path
         id="path861"
         style="color:#000000;display:inline;overflow:visible;visibility:visible;fill:#000000;fill-opacity:1;fill-rule:nonzero;stroke:none;stroke-width:0.999985;marker:none;enable-background:accumulate"
         d="M 78.92654,20 C 43.630841,20 39.832874,23.626097 40.005859,58.994141 V 132 205.00586 C 39.832874,240.37391 43.630841,244 78.92654,244 h 98.15324 c 35.2957,0 38.92068,-3.62568 38.92068,-38.99414 V 132 58.994141 c 0,-0.265209 -0.005,-0.490304 -0.006,-0.751953 V 80 l -0.004,-0.0039 V 80 H 155.9923 V 20 Z" />
    </g>
    <g
       inkscape:groupmode="layer"
       id="layer2"
       inkscape:label="Background"
       style="display:inline">
      <path
         id="rect4158"
         style="color:#000000;display:inline;overflow:visible;visibility:visible;fill:url(#linearGradient4226);fill-opacity:1;fill-rule:nonzero;stroke:none;stroke-width:0.99998;marker:none;enable-background:accumulate"
         d="M 78.925781,16 C 43.630418,16 39.832875,19.626097 40.005859,54.994141 V 128 180 H 215.99609 c 5.4e-4,-41.44821 -0.004,-90.41554 -0.004,-100 l -63.996,-63.996094 C 101.29902,16.002427 90.553132,16 78.925781,16 Z" />
      <path
         id="path1365"
         style="color:#000000;display:inline;overflow:visible;visibility:visible;fill:#3784cb;fill-opacity:1;fill-rule:nonzero;stroke:none;stroke-width:0.99998;marker:none;enable-background:accumulate"
         d="m 40.005859,180 v 21.00586 C 39.832875,236.37391 43.630418,240 78.925781,240 h 98.152339 c 35.29537,0 38.91993,-3.62568 38.91993,-38.99414 0.001,-8.07156 -0.002,-12.29931 -0.002,-21.00586 z" />
    </g>
    <g
       inkscape:groupmode="layer"
       id="layer8"
       inkscape:label="Graphic"
       style="display:inline">
      <g
         id="g4397"
         style="display:inline;enable-background:new">
        <g
           id="g4368">
          <rect
             style="opacity:0.4;fill:#000000;fill-opacity:1;stroke-width:1.72158;stroke-linecap:round;stroke-linejoin:round;paint-order:stroke markers fill"
             id="rect37208"
             width="54"
             height="54"
             x="97"
             y="111"
             ry="9.3347511" />
          <g
             id="g36348"
             transform="matrix(1.08,0,0,1.08,-2.36,-18.28)">
            <rect
               style="opacity:1;fill:#22ff60;fill-opacity:1;stroke-width:1.59406;stroke-linecap:round;stroke-linejoin:round;paint-order:stroke markers fill"
               id="rect14095"
               width="50"
               height="50"
               x="92"
               y="116"
               ry="8.6432877" />
            <path
               d="m 120.24,158.136 c 3.408,0 7.2,-0.864 10.032,-2.256 l -1.392,-4.464 c -2.16,0.816 -4.848,1.296 -7.152,1.296 -7.344,0 -11.904,-4.8 -11.904,-12.288 0,-7.056 4.128,-11.088 11.136,-11.088 2.688,0 5.712,0.528 7.872,1.392 l 1.728,-4.8 c -2.832,-1.344 -6.096,-2.064 -9.408,-2.064 -10.56,0 -17.712,6.96 -17.712,17.424 0,10.08 6.768,16.848 16.8,16.848 z"
               id="path36324"
               style="font-weight:bold;font-size:48px;line-height:1.25;font-family:Cantarell;-inkscape-font-specification:'Cantarell Bold';white-space:pre;fill:#ffffff" />
          </g>
        </g>
        <g
           id="g4374">
          <rect
             style="opacity:0.4;fill:#000000;fill-opacity:1;stroke-width:1.72158;stroke-linecap:round;stroke-linejoin:round;paint-order:stroke markers fill"
             id="rect37102"
             width="54"
             height="54"
             x="69"
             y="79"
             ry="9.3347511" />
          <g
             id="g36252"
             transform="matrix(1.08,0,0,1.08,-13.08,-33)">
            <rect
               style="fill:#ff642b;fill-opacity:1;stroke-width:1.59406;stroke-linecap:round;stroke-linejoin:round;paint-order:stroke markers fill"
               id="rect14057"
               width="50"
               height="50"
               x="76"
               y="100"
               ry="8.6432877" />
            <path
               d="M 88.231998,141.656 H 100.664 c 8.064,0 13.104,-3.984 13.104,-10.32 0,-4.176 -2.208,-7.2 -6.048,-8.592 2.112,-1.392 3.408,-3.84 3.408,-6.48 0,-5.136 -4.176,-7.92 -11.856002,-7.92 h -11.04 z m 6.144,-28.32 h 4.416 c 3.888002,0 6.048002,1.632 6.048002,4.512 0,1.728 -0.816,3.072 -2.688,4.128 h -7.776002 z m 0,23.328 v -9.84 H 101.576 c 3.6,0 5.808,2.112 5.808,5.328 0,3.072 -1.872,4.512 -5.904,4.512 z"
               id="path36228"
               style="font-weight:bold;font-size:48px;line-height:1.25;font-family:Cantarell;-inkscape-font-specification:'Cantarell Bold';white-space:pre;fill:#ffffff" />
          </g>
        </g>
        <g
           id="g4380">
          <rect
             style="opacity:0.4;fill:#000000;fill-opacity:1;stroke-width:1.72158;stroke-linecap:round;stroke-linejoin:round;paint-order:stroke markers fill"
             id="rect36996"
             width="54"
             height="54"
             x="101"
             y="51"
             ry="9.3347511" />
          <g
             id="g36278"
             transform="matrix(1.08,0,0,1.08,-7,-39.4)">
            <rect
               style="opacity:1;fill:#27d7df;fill-opacity:1;stroke-width:1.59406;stroke-linecap:round;stroke-linejoin:round;paint-order:stroke markers fill"
               id="rect11658"
               width="50"
               height="50"
               x="100"
               y="80"
               ry="8.6432877" />
            <path
               d="m 109.16,121.656 h 6.576 l 2.736,-8.352 h 12.768 l 2.736,8.352 h 6.864 L 129.272,88.344 h -7.92 z m 11.136,-13.872 4.608,-14.112003 4.56,14.112003 z"
               id="path36254"
               style="font-weight:bold;font-size:48px;line-height:1.25;font-family:Cantarell;-inkscape-font-specification:'Cantarell Bold';white-space:pre;fill:#ffffff" />
          </g>
        </g>
      </g>
      <path
         id="path11871"
         style="font-weight:bold;font-size:56px;line-height:1.25;font-family:Cantarell;-inkscape-font-specification:'Cantarell Bold';white-space:pre;fill:#ffffff"
         d="m 151.88377,190.036 c -11.53599,0 -19.20897,8.11949 -19.20897,20.27149 0,11.816 7.44844,19.65625 18.64843,19.65625 11.70399,0 19.48827,-8.11949 19.48827,-20.27149 0,-11.76 -7.55974,-19.65625 -18.92773,-19.65625 z m -66.69527,0.56055 v 38.86328 h 6.999996 v -26.0957 l 10.248044,20.10351 h 5.54296 l 10.41601,-20.88867 v 26.88086 h 7 v -38.86328 h -7 l -12.8789,25.19922 -13.216786,-25.19922 z m 66.13473,5.76758 c 7.168,0 11.98436,5.54336 11.98436,13.94336 0,8.008 -4.59182,13.38476 -11.42382,13.38476 -7.05599,0 -11.70507,-5.6 -11.70507,-14 0,-8.008 4.42454,-13.32812 11.14453,-13.32812 z" />
    </g>
    <g
       inkscape:groupmode="layer"
       id="layer3"
       inkscape:label="Highlights"
       style="display:inline">
      <path
         id="path4231"
         style="color:#000000;display:inline;overflow:visible;visibility:visible;opacity:0.1;fill:#ffffff;fill-opacity:1;fill-rule:nonzero;stroke:none;stroke-width:0.999978;marker:none;enable-background:accumulate"
         d="M 128,16.001953 V 240 h 49.07812 c 35.29328,-1.4e-4 37.99976,-3.63828 38.91797,-38.99414 v -40.33594 c -0.002,-33.27599 -0.004,-72.938144 -0.004,-80.66992 L 151.99414,16.003906 c -16.64781,-4.85e-4 -14.51667,-0.0014 -23.99414,-0.002 z" />
      <path
         inkscape:connector-curvature="0"
         style="color:#000000;display:inline;overflow:visible;visibility:visible;opacity:0.2;fill:#ffffff;fill-opacity:1;fill-rule:nonzero;stroke:none;stroke-width:0.999978;marker:none;enable-background:accumulate"
         d="m 40.003546,127.99979 v 73.00669 c -0.172983,35.36805 3.625003,38.99309 38.920241,38.99309 h 98.152103 c 35.29524,0 38.00202,-3.63654 38.92025,-38.99309 v -73.00669 z"
         id="path4255"
         sodipodi:nodetypes="ccssscc" />
      <path
         style="color:#000000;display:inline;overflow:visible;visibility:visible;opacity:0.05;fill:#ffffff;fill-opacity:1;fill-rule:nonzero;stroke:none;stroke-width:7.99983;stroke-linecap:butt;stroke-linejoin:miter;stroke-miterlimit:4;stroke-dasharray:none;stroke-dashoffset:0;stroke-opacity:1;marker:none;enable-background:accumulate"
         d="m 155.99866,239.99957 59.99748,-59.99988 v 22.48383 c -0.0523,33.99575 -3.80252,37.51605 -38.1725,37.51605 z"
         id="path4254"
         inkscape:connector-curvature="0"
         sodipodi:nodetypes="cccsc" />
      <path
         style="color:#000000;display:inline;overflow:visible;visibility:visible;opacity:0.6;fill:#ffffff;fill-opacity:1;fill-rule:nonzero;stroke:none;stroke-width:0.999978;marker:none;enable-background:accumulate"
         d="m 78.924076,16 c -35.295241,0 -39.093153,3.626097 -38.92017,38.994141 v 2 C 39.830923,21.626096 43.628835,18 78.924076,18 H 153.9911 l -1.99601,-1.996094 h 25.00086 c 0.46362,-0.0023 0.86163,0.0065 1.3144,0.0059 C 177.88453,16.008609 177.51143,16 177.07603,16 Z"
         id="path931" />
    </g>
    <g
       inkscape:groupmode="layer"
       id="layer6"
       inkscape:label="Folded corner"
       style="display:inline">
      <path
         inkscape:connector-curvature="0"
         style="color:#000000;display:inline;overflow:visible;visibility:visible;opacity:0.4;fill:#000000;fill-opacity:1;fill-rule:nonzero;stroke:none;stroke-width:1.00004;marker:none;enable-background:accumulate"
         d="m 215.99229,80 -63.9972,-62 v 22.998427 1.000017 0.537119 c 0,35.294867 3.62622,39.632617 38.99602,39.459634 13.80488,0 25.00118,-0.271165 25.00118,-1.995197 z"
         id="path872"
         sodipodi:nodetypes="ccccscc" />
      <path
         inkscape:connector-curvature="0"
         style="color:#000000;display:inline;overflow:visible;visibility:visible;fill:#f9f9f9;fill-opacity:1;fill-rule:nonzero;stroke:none;stroke-width:1.00004;marker:none;enable-background:accumulate"
         d="M 215.99229,79.995197 151.99509,16 v 22.998427 1.000017 0.537119 c 0,35.294867 3.62622,39.632617 38.99602,39.459634 z"
         id="rect4158-0-3" />
    </g>
  </g>
</svg>
