<?xml version="1.0" encoding="UTF-8" standalone="no"?>
<svg
   width="256"
   height="256"
   id="svg11300"
   sodipodi:version="0.32"
   sodipodi:docname="image-x-xcf.svg"
   version="1.0"
   style="display:inline;enable-background:new"
   inkscape:version="1.3 (0e150ed6c4, 2023-07-21)"
   xmlns:inkscape="http://www.inkscape.org/namespaces/inkscape"
   xmlns:sodipodi="http://sodipodi.sourceforge.net/DTD/sodipodi-0.dtd"
   xmlns="http://www.w3.org/2000/svg"
   xmlns:svg="http://www.w3.org/2000/svg">
  <sodipodi:namedview
     stroke="#ef2929"
     fill="#f57900"
     id="base"
     pagecolor="#cccccc"
     bordercolor="#666666"
     borderopacity="1"
     inkscape:pageopacity="0"
     inkscape:pageshadow="2"
     inkscape:zoom="2.4705341"
     inkscape:cx="65.775252"
     inkscape:cy="120.82408"
     inkscape:current-layer="layer2"
     showgrid="false"
     inkscape:grid-bbox="true"
     inkscape:document-units="px"
     inkscape:showpageshadow="true"
     inkscape:window-width="1920"
     inkscape:window-height="1011"
     inkscape:window-x="1920"
     inkscape:window-y="32"
     width="400px"
     height="300px"
     inkscape:snap-nodes="true"
     inkscape:snap-bbox="true"
     gridtolerance="10000"
     inkscape:object-nodes="true"
     inkscape:snap-grids="true"
     showguides="false"
     inkscape:guide-bbox="true"
     inkscape:window-maximized="1"
     inkscape:bbox-paths="true"
     inkscape:snap-bbox-midpoints="true"
     inkscape:snap-global="false"
     inkscape:object-paths="true"
     inkscape:snap-intersection-paths="true"
     inkscape:snap-smooth-nodes="true"
     inkscape:pagecheckerboard="false"
     showborder="true"
     inkscape:document-rotation="0"
     inkscape:deskcolor="#d1d1d1">
    <inkscape:grid
       spacingy="1"
       spacingx="1"
       id="grid5883"
       type="xygrid"
       enabled="true"
       visible="false"
       empspacing="4"
       snapvisiblegridlinesonly="true"
       originx="0"
       originy="0"
       units="px" />
    <inkscape:grid
       type="xygrid"
       id="grid11592"
       empspacing="2"
       visible="false"
       enabled="false"
       spacingx="0.5"
       spacingy="0.5"
       color="#ff0000"
       opacity="0.1254902"
       empcolor="#ff0000"
       empopacity="0.25098039"
       snapvisiblegridlinesonly="true"
       originx="0"
       originy="0"
       units="px" />
    <sodipodi:guide
       position="394.16276,545.36183"
       orientation="0,-1"
       id="guide864"
       inkscape:locked="false" />
  </sodipodi:namedview>
  <defs
     id="defs3" />
  <g
     style="display:inline"
     inkscape:groupmode="layer"
     inkscape:label="Icon"
     id="layer1">
    <g
       inkscape:groupmode="layer"
       id="layer4"
       inkscape:label="Shadow"
       style="display:inline;opacity:0.4;enable-background:new">
      <path
         id="rect3"
         style="display:inline;opacity:0.4;fill:#000000;stroke-width:6.64319;stroke-linecap:round;stroke-linejoin:round;paint-order:stroke markers fill;enable-background:new"
         d="m 40,128 v 97.37109 C 40,235.69114 48.308858,244 58.628906,244 H 197.37109 C 207.69114,244 216,235.69114 216,225.37109 V 128 Z" />
    </g>
    <g
       inkscape:groupmode="layer"
       id="layer2"
       inkscape:label="Background"
       style="display:inline;enable-background:new">
      <path
         id="rect2"
         style="display:inline;fill:#f9f9f9;stroke-width:6.64319;stroke-linecap:round;stroke-linejoin:round;paint-order:stroke markers fill;enable-background:new"
         d="M 58.628906,16 C 48.308858,16 40,24.308858 40,34.628906 V 221.37109 C 40,231.69114 48.308858,240 58.628906,240 H 197.37109 C 207.69114,240 216,231.69114 216,221.37109 L 215.994,80 l -64,-64 z"
         sodipodi:nodetypes="ssssssccs" />
    </g>
    <g
       inkscape:groupmode="layer"
       id="layer8"
       inkscape:label="Graphic"
       style="display:inline;enable-background:new">
      <g
         id="g879"
         transform="translate(-6,6)">
        <path
           id="path909"
           style="color:#000000;font-style:normal;font-variant:normal;font-weight:normal;font-stretch:normal;font-size:medium;line-height:normal;font-family:sans-serif;font-variant-ligatures:normal;font-variant-position:normal;font-variant-caps:normal;font-variant-numeric:normal;font-variant-alternates:normal;font-variant-east-asian:normal;font-feature-settings:normal;font-variation-settings:normal;text-indent:0;text-align:start;text-decoration:none;text-decoration-line:none;text-decoration-style:solid;text-decoration-color:#000000;letter-spacing:normal;word-spacing:normal;text-transform:none;writing-mode:lr-tb;direction:ltr;text-orientation:mixed;dominant-baseline:auto;baseline-shift:baseline;text-anchor:start;white-space:normal;shape-padding:0;shape-margin:0;inline-size:0;clip-rule:nonzero;display:inline;overflow:visible;visibility:visible;opacity:0.4;isolation:auto;mix-blend-mode:normal;color-interpolation:sRGB;color-interpolation-filters:linearRGB;solid-color:#000000;solid-opacity:1;vector-effect:none;fill:#000000;fill-opacity:1;fill-rule:nonzero;stroke:none;stroke-width:0.620975px;stroke-linecap:butt;stroke-linejoin:miter;stroke-miterlimit:4;stroke-dasharray:none;stroke-dashoffset:0;stroke-opacity:1;color-rendering:auto;image-rendering:auto;shape-rendering:auto;text-rendering:auto;enable-background:accumulate;stop-color:#000000"
           d="m 188.19531,85.671875 c -0.14571,-8.42e-4 -0.2938,0.03068 -0.42969,0.109375 -0.26866,0.155543 -0.43717,0.46313 -0.50585,0.867188 h -0.002 c -1.04943,6.465969 -6.015,12.853218 -13.20703,18.189452 -5.69941,4.22877 -12.79385,7.7747 -20.38867,10.21094 -3.40941,-3.77715 -8.3274,-6.16602 -13.81641,-6.16602 -6.77261,0 -12.68226,3.62653 -15.94336,9.03125 -1.83373,-0.29394 -3.63275,-0.6881 -5.3789,-1.19531 -8.90074,-2.58537 -16.49378,-8.01595 -21.123049,-17.214844 -0.0042,-0.0508 -0.0063,-0.09875 -0.03125,-0.158203 -0.01609,-0.03882 -0.03745,-0.08507 -0.101563,-0.138672 -0.01588,-0.01332 -0.0534,-0.04033 -0.05469,-0.04102 -0.0011,-6.84e-4 -0.07688,-0.02705 -0.07813,-0.02734 -0.0026,-6.31e-4 -0.17521,0.0049 -0.177735,0.0059 -0.0011,4.18e-4 -0.06708,0.0305 -0.06836,0.03125 -0.0011,7.88e-4 -0.03679,0.02822 -0.05078,0.04102 -0.02803,0.02558 -0.04668,0.04838 -0.06055,0.07031 -0.02777,0.04385 -0.03962,0.07979 -0.04883,0.113282 -0.0037,0.01281 -0.0012,0.0248 -0.0039,0.03711 h -0.0059 c -0.458877,6.084857 -0.27754,15.156397 -0.445312,22.566407 -0.03553,1.56928 -0.09191,3.0379 -0.167969,4.41211 -0.631268,1.48865 -0.982422,3.12493 -0.982422,4.84375 0,0.58153 0.05352,1.15067 0.130859,1.71093 -0.101435,0.32915 -0.208883,0.61935 -0.324218,0.83399 -0.140028,0.26057 -0.287086,0.42379 -0.41211,0.50195 -0.122041,0.0762 -0.219041,0.0953 -0.371094,0.0527 -2.782526,-3.66744 -6.349852,-6.78365 -10.148437,-8.5918 -2.190638,-1.04269 -4.467238,-1.64619 -6.707031,-1.66016 -2.239792,-0.0141 -4.44255,0.56411 -6.486328,1.88477 l -0.0098,0.004 -0.01367,0.01 c -3.558497,2.81738 -5.164466,6.72968 -5.275391,10.88281 -0.11093,4.15311 1.257667,8.55356 3.621094,12.44531 4.376469,7.20653 12.213787,12.68365 20.53125,11.41211 0.453923,0.48345 0.985915,0.85746 1.527344,1.18946 v -0.002 c 23.366002,14.7567 41.091362,19.00792 54.906252,17.70118 5.2073,-0.49256 9.85428,-1.77647 14.0332,-3.57813 1.71109,1.55735 3.59792,3.30756 5.89062,5.50977 0.0249,0.0241 0.051,0.0383 0.0762,0.0605 -0.61975,1.16125 -0.84363,2.2297 -0.71485,3.20703 0.15197,1.15326 0.74958,2.16722 1.56446,3.09375 1.62977,1.85307 4.14226,3.40494 6.01757,5.10938 l 0.72266,0.65234 -0.29102,-0.92773 c -0.90101,-2.8688 -1.65133,-6.32188 -1.46484,-8.98047 v -0.002 c 0.0663,-1.27924 -0.97629,-2.42934 -2.1582,-3.05664 -0.59095,-0.31365 -1.22669,-0.50059 -1.82031,-0.48828 -0.3474,0.007 -0.67787,0.0997 -0.9668,0.26953 -2.19589,-2.18527 -3.79718,-3.74532 -5.27539,-5.17188 6.20172,-2.94839 11.34406,-7.02039 15.74219,-11.26172 3.37439,-3.3011 7.38003,-9.0699 10.04882,-20.75 2.66879,-11.6801 4.01511,-29.27843 2.11133,-56.304682 h -0.002 c -0.0444,-0.57517 -0.47903,-1.050073 -0.99219,-1.257813 -0.1293,-0.05234 -0.27226,-0.08509 -0.41797,-0.08594 z M 172.76172,192.16797 c 0.001,0.004 0.003,0.008 0.004,0.0117 -0.003,-0.002 -0.006,-0.004 -0.008,-0.006 0.002,-10e-4 0.002,-0.005 0.004,-0.006 z" />
        <g
           id="g1023"
           transform="matrix(0.52588518,0,0,0.52588384,-53.610871,70.596645)"
           style="display:inline;enable-background:new">
          <path
             id="path984"
             style="color:#000000;font-style:normal;font-variant:normal;font-weight:normal;font-stretch:normal;font-size:medium;line-height:normal;font-family:sans-serif;font-variant-ligatures:normal;font-variant-position:normal;font-variant-caps:normal;font-variant-numeric:normal;font-variant-alternates:normal;font-variant-east-asian:normal;font-feature-settings:normal;font-variation-settings:normal;text-indent:0;text-align:start;text-decoration:none;text-decoration-line:none;text-decoration-style:solid;text-decoration-color:#000000;letter-spacing:normal;word-spacing:normal;text-transform:none;writing-mode:lr-tb;direction:ltr;text-orientation:mixed;dominant-baseline:auto;baseline-shift:baseline;text-anchor:start;white-space:normal;shape-padding:0;shape-margin:0;inline-size:0;clip-rule:nonzero;display:inline;overflow:visible;visibility:visible;isolation:auto;mix-blend-mode:normal;color-interpolation:sRGB;color-interpolation-filters:linearRGB;solid-color:#000000;solid-opacity:1;vector-effect:none;fill:#524841;fill-opacity:1;fill-rule:nonzero;stroke:none;stroke-width:1.18082px;stroke-linecap:butt;stroke-linejoin:miter;stroke-miterlimit:4;stroke-dasharray:none;stroke-dashoffset:0;stroke-opacity:1;color-rendering:auto;image-rendering:auto;shape-rendering:auto;text-rendering:auto;enable-background:accumulate;stop-color:#000000"
             d="m 459.80668,21.060489 c -0.27707,-0.0016 -0.55799,0.05935 -0.8164,0.208984 -0.51087,0.295774 -0.83035,0.878144 -0.96094,1.646485 h -0.006 c -1.99554,12.295434 -11.43724,24.440717 -25.11328,34.58789 -13.67604,10.14717 -31.55007,18.287707 -50.26953,22.636719 -18.71946,4.34902 -38.27791,4.90626 -55.31641,-0.04297 -16.92526,-4.916236 -31.36501,-15.24407 -40.16783,-32.736327 -0.008,-0.09659 -0.0132,-0.187726 -0.0606,-0.300781 -0.0306,-0.07381 -0.0695,-0.159785 -0.19141,-0.261719 -0.0302,-0.02532 -0.10105,-0.07684 -0.10351,-0.07813 -0.002,-0.0013 -0.14606,-0.05217 -0.14844,-0.05273 v 0.002 c -0.005,-0.0012 -0.33504,0.0059 -0.33984,0.0078 -0.002,7.94e-4 -0.12844,0.05911 -0.13086,0.06055 -0.002,0.0015 -0.0691,0.05574 -0.0957,0.08008 -0.0533,0.04864 -0.0869,0.08917 -0.11328,0.13086 -0.0528,0.08338 -0.0782,0.153112 -0.0957,0.216797 -0.007,0.02436 -0.001,0.0469 -0.006,0.07031 h -0.0117 c -0.87258,11.570718 -0.52667,28.821528 -0.8457,42.91211 -0.1595,7.04529 -0.48726,13.300123 -1.20313,17.615243 -0.35792,2.15755 -0.81907,3.83132 -1.35156,4.82226 -0.26627,0.49548 -0.54547,0.80841 -0.78321,0.95703 -0.23773,0.14861 -0.42296,0.18682 -0.7246,0.0977 l -0.33985,1.12305 0.33985,-1.13282 c -0.005,-0.001 -0.21219,-0.0179 -0.2168,-0.0176 -0.005,2.3e-4 -0.12868,0.0147 -0.1836,0.0352 -0.10975,0.041 -0.18583,0.10044 -0.23632,0.14844 -0.10096,0.0961 -0.13475,0.16961 -0.17383,0.24414 -0.0782,0.14903 -0.13241,0.30274 -0.19141,0.49609 -0.11796,0.38676 -0.24429,0.92026 -0.38281,1.60352 -0.277,1.36651 -0.60528,3.31326 -0.95898,5.66602 -0.7074,4.7055 -1.51764,11.02077 -2.23243,17.38085 -0.71477,6.3601 -1.32899,12.767 -1.63867,17.67774 -0.0294,0.46551 -0.0407,0.84416 -0.0645,1.28125 -1.81916,0.002 -3.29101,1.44924 -3.29101,3.23437 0,0.20862 0.0241,0.41178 0.0625,0.60938 l -0.25391,0.13281 c 0.97905,1.88147 2.56318,2.98497 4.14844,3.95703 l 0.002,-0.004 c 44.43176,28.06076 78.13645,36.14305 104.40624,33.6582 26.29628,-2.48735 45.08202,-15.57109 59.62305,-29.59375 6.41659,-6.27724 14.03257,-17.24857 19.10742,-39.45898 5.07485,-22.21042 7.63771,-55.676308 4.01758,-107.06837 h -0.004 c -0.0845,-1.09372 -0.91092,-1.993641 -1.88672,-2.388672 -0.24588,-0.09953 -0.5198,-0.162442 -0.79688,-0.164062 z" />
          <g
             id="g944"
             transform="matrix(3.7795275,0,0,3.7795275,220.54301,-17.390683)">
            <ellipse
               style="display:inline;fill:#ffffff;stroke-width:0.0312418"
               id="path1075"
               cx="38.979656"
               cy="31.224228"
               rx="9.372797"
               ry="9.3728008" />
            <ellipse
               style="display:inline;fill:#ffffff;stroke-width:0.0312418"
               id="path1077"
               cx="22.727787"
               cy="33.110119"
               rx="6.2485375"
               ry="6.2485404" />
            <ellipse
               style="display:inline;fill:#000000;stroke-width:0.0312418"
               id="path1079"
               cx="24.05938"
               cy="35.514179"
               rx="1.5621344"
               ry="1.5621351" />
            <ellipse
               style="display:inline;fill:#000000;stroke-width:0.0468635"
               id="path1081"
               cx="41.669167"
               cy="34.501923"
               rx="2.3431993"
               ry="2.3432002" />
          </g>
          <g
             id="g1241"
             transform="matrix(3.7795275,0,0,3.7795275,220.54301,-17.390683)">
            <g
               id="g1235">
              <path
                 id="path1353"
                 style="color:#000000;font-style:normal;font-variant:normal;font-weight:normal;font-stretch:normal;font-size:medium;line-height:normal;font-family:sans-serif;font-variant-ligatures:normal;font-variant-position:normal;font-variant-caps:normal;font-variant-numeric:normal;font-variant-alternates:normal;font-variant-east-asian:normal;font-feature-settings:normal;font-variation-settings:normal;text-indent:0;text-align:start;text-decoration:none;text-decoration-line:none;text-decoration-style:solid;text-decoration-color:#000000;letter-spacing:normal;word-spacing:normal;text-transform:none;writing-mode:lr-tb;direction:ltr;text-orientation:mixed;dominant-baseline:auto;baseline-shift:baseline;text-anchor:start;white-space:normal;shape-padding:0;shape-margin:0;inline-size:0;clip-rule:nonzero;display:inline;overflow:visible;visibility:visible;isolation:auto;mix-blend-mode:normal;color-interpolation:sRGB;color-interpolation-filters:linearRGB;solid-color:#000000;solid-opacity:1;vector-effect:none;fill:#974611;fill-opacity:1;fill-rule:nonzero;stroke:none;stroke-width:0.999999px;stroke-linecap:butt;stroke-linejoin:miter;stroke-miterlimit:4;stroke-dasharray:none;stroke-dashoffset:0;stroke-opacity:1;color-rendering:auto;image-rendering:auto;shape-rendering:auto;text-rendering:auto;enable-background:accumulate;stop-color:#000000"
                 d="m 163.98828,186.21484 -0.67969,0.73828 c 0.45509,0.41825 0.78994,0.71757 1.2168,1.10743 -0.0925,0.009 -0.18529,0.0283 -0.27734,0.0293 -0.269,0.0747 -0.7267,-0.009 -0.88282,0.26368 -0.45042,-0.43782 -0.85143,-0.8152 -1.31835,-1.27344 l -0.70118,0.71484 c 13.19735,12.95189 19.50654,17.40719 35.74414,33.00391 0.81822,0.78993 1.72749,1.08142 2.41407,0.66601 0.34329,-0.20768 0.54273,-0.64296 0.49414,-1.05664 -0.0486,-0.41367 -0.27818,-0.81824 -0.65821,-1.22461 h -0.008 v -0.008 c -21.30916,-21.22564 -21.73649,-20.4551 -35.34356,-32.96076 z"
                 transform="scale(0.26458333)" />
              <path
                 id="path1368"
                 style="color:#000000;font-style:normal;font-variant:normal;font-weight:normal;font-stretch:normal;font-size:medium;line-height:normal;font-family:sans-serif;font-variant-ligatures:normal;font-variant-position:normal;font-variant-caps:normal;font-variant-numeric:normal;font-variant-alternates:normal;font-variant-east-asian:normal;font-feature-settings:normal;font-variation-settings:normal;text-indent:0;text-align:start;text-decoration:none;text-decoration-line:none;text-decoration-style:solid;text-decoration-color:#000000;letter-spacing:normal;word-spacing:normal;text-transform:none;writing-mode:lr-tb;direction:ltr;text-orientation:mixed;dominant-baseline:auto;baseline-shift:baseline;text-anchor:start;white-space:normal;shape-padding:0;shape-margin:0;inline-size:0;clip-rule:nonzero;display:inline;overflow:visible;visibility:visible;isolation:auto;mix-blend-mode:normal;color-interpolation:sRGB;color-interpolation-filters:linearRGB;solid-color:#000000;solid-opacity:1;vector-effect:none;fill:#808080;fill-opacity:1;fill-rule:nonzero;stroke:none;stroke-width:0.264583px;stroke-linecap:butt;stroke-linejoin:miter;stroke-miterlimit:4;stroke-dasharray:none;stroke-dashoffset:0;stroke-opacity:1;color-rendering:auto;image-rendering:auto;shape-rendering:auto;text-rendering:auto;enable-background:accumulate;stop-color:#000000"
                 d="m 53.118234,57.749816 c -0.298661,0.0062 -0.582271,0.122378 -0.755509,0.380858 l -0.0021,0.0021 c -0.460205,0.710348 -0.611822,1.351436 -0.535368,1.931665 0.07646,0.580228 0.377047,1.090334 0.787032,1.556493 0.81997,0.93232 2.084216,1.712844 3.027722,2.570387 L 56.00333,64.51943 55.856569,64.052276 C 55.403256,62.608921 55.026354,60.872318 55.12018,59.534722 v -0.0016 c 0.03337,-0.64361 -0.491082,-1.221767 -1.085723,-1.537375 -0.29732,-0.157803 -0.617561,-0.252169 -0.916223,-0.245981 z m 2.422592,6.004285 c 5.45e-4,0.0018 10e-4,0.0038 0.0015,0.0057 -0.0013,-0.0011 -0.0028,-0.002 -0.0041,-0.0031 10e-4,-6.3e-4 0.0016,-0.0019 0.0026,-0.0026 z" />
            </g>
            <path
               id="path1145"
               style="color:#000000;font-style:normal;font-variant:normal;font-weight:normal;font-stretch:normal;font-size:medium;line-height:normal;font-family:sans-serif;font-variant-ligatures:normal;font-variant-position:normal;font-variant-caps:normal;font-variant-numeric:normal;font-variant-alternates:normal;font-variant-east-asian:normal;font-feature-settings:normal;font-variation-settings:normal;text-indent:0;text-align:start;text-decoration:none;text-decoration-line:none;text-decoration-style:solid;text-decoration-color:#000000;letter-spacing:normal;word-spacing:normal;text-transform:none;writing-mode:lr-tb;direction:ltr;text-orientation:mixed;dominant-baseline:auto;baseline-shift:baseline;text-anchor:start;white-space:normal;shape-padding:0;shape-margin:0;inline-size:0;clip-rule:nonzero;display:inline;overflow:visible;visibility:visible;isolation:auto;mix-blend-mode:normal;color-interpolation:sRGB;color-interpolation-filters:linearRGB;solid-color:#000000;solid-opacity:1;vector-effect:none;fill:#000000;fill-opacity:1;fill-rule:nonzero;stroke:none;stroke-width:1.18082px;stroke-linecap:butt;stroke-linejoin:miter;stroke-miterlimit:4;stroke-dasharray:none;stroke-dashoffset:0;stroke-opacity:1;color-rendering:auto;image-rendering:auto;shape-rendering:auto;text-rendering:auto;enable-background:accumulate;stop-color:#000000"
               d="m 182.64062,171.875 c -0.32477,0 -0.59179,0.26704 -0.59179,0.5918 0,0.2259 0.13288,0.41656 0.32031,0.51562 l -0.004,0.008 c 0.96196,0.46851 1.76694,0.8826 2.48243,1.26954 -11.31974,8.43846 -30.31196,10.48517 -49.98047,10.8457 -0.32478,0 -0.58985,0.26509 -0.58985,0.58984 0,0.29145 0.21758,0.52341 0.4961,0.57031 l -0.002,0.0176 c 18.19911,3.43469 36.53555,5.25636 53.93946,-8.42187 l 0.38281,-0.30078 c 0.20907,0.39999 0.32245,0.81678 0.41016,1.33789 0.11429,0.67907 0.17774,1.52246 0.35742,2.59765 l 0.008,-0.002 c 0.0261,0.30107 0.27252,0.54102 0.58008,0.54102 0.32477,0 0.58984,-0.2651 0.58984,-0.58985 0,-0.0493 -0.0178,-0.0928 -0.0293,-0.13867 l 0.01,-0.002 c -0.17023,-1.01866 -0.21934,-1.84326 -0.34765,-2.60547 -0.12828,-0.76221 -0.34235,-1.48027 -0.82032,-2.17188 -0.9559,-1.38321 -2.82587,-2.58192 -6.97265,-4.60156 l -0.002,0.002 c -0.0729,-0.0324 -0.15164,-0.0527 -0.23633,-0.0527 z"
               transform="scale(0.26458333)" />
          </g>
          <path
             id="path944"
             style="color:#000000;font-style:normal;font-variant:normal;font-weight:normal;font-stretch:normal;font-size:medium;line-height:normal;font-family:sans-serif;font-variant-ligatures:normal;font-variant-position:normal;font-variant-caps:normal;font-variant-numeric:normal;font-variant-alternates:normal;font-variant-east-asian:normal;font-feature-settings:normal;font-variation-settings:normal;text-indent:0;text-align:start;text-decoration:none;text-decoration-line:none;text-decoration-style:solid;text-decoration-color:#000000;letter-spacing:normal;word-spacing:normal;text-transform:none;writing-mode:lr-tb;direction:ltr;text-orientation:mixed;dominant-baseline:auto;baseline-shift:baseline;text-anchor:start;white-space:normal;shape-padding:0;shape-margin:0;inline-size:0;clip-rule:nonzero;display:inline;overflow:visible;visibility:visible;isolation:auto;mix-blend-mode:normal;color-interpolation:sRGB;color-interpolation-filters:linearRGB;solid-color:#000000;solid-opacity:1;vector-effect:none;fill:#333333;fill-opacity:1;fill-rule:nonzero;stroke:none;stroke-width:1.18082px;stroke-linecap:butt;stroke-linejoin:miter;stroke-miterlimit:4;stroke-dasharray:none;stroke-dashoffset:0;stroke-opacity:1;color-rendering:auto;image-rendering:auto;shape-rendering:auto;text-rendering:auto;enable-background:accumulate;stop-color:#000000"
             d="m 248.91801,94.148377 c -4.25909,-0.0268 -8.44762,1.07268 -12.33398,3.58399 l -0.0176,0.008 -0.0273,0.0176 c -6.76668,5.357413 -9.82032,12.795953 -10.03125,20.693363 -0.21094,7.8974 2.39057,16.26561 6.88476,23.66601 8.98839,14.8008 25.64987,25.79648 42.85156,20.89453 h 0.0273 l 0.0254,-0.01 c 10.13079,-3.89673 14.74885,-11.31364 15.32422,-19.76953 0.57537,-8.45589 -2.78005,-17.939 -8.32422,-26.31446 -5.54417,-8.37542 -13.29618,-15.64774 -21.62695,-19.613253 -4.16562,-1.98273 -8.49286,-3.12968 -12.75195,-3.15625 z" />
        </g>
      </g>
    </g>
    <g
       inkscape:groupmode="layer"
       id="layer3"
       inkscape:label="Highlights"
       style="display:inline;enable-background:new">
      <path
         id="path7"
         style="display:inline;opacity:0.1;fill:#ffffff;stroke-width:6.64319;stroke-linecap:round;stroke-linejoin:round;paint-order:stroke markers fill;enable-background:new"
         d="M 40 128 L 40 221.37109 C 40 231.69112 48.30888 240 58.628906 240 L 128 240 L 128 128 L 40 128 z " />
      <path
         id="path1"
         style="display:inline;opacity:0.15;fill:#ffffff;stroke-width:6.64319;stroke-linecap:round;stroke-linejoin:round;paint-order:stroke markers fill;enable-background:new"
         d="M 128 128 L 128 240 L 197.37109 240 C 198.0161 240 198.6535 239.96767 199.28125 239.9043 C 208.69753 238.95366 216 231.04612 216 221.37109 L 216 128 L 128 128 z " />
      <path
         id="path9"
         style="display:inline;opacity:0.1;fill:#ffffff;stroke-width:6.64319;stroke-linecap:round;stroke-linejoin:round;paint-order:stroke markers fill;enable-background:new"
         d="m 128,16 v 112 h 88 c 0,-179.71615 -0.006,-99.716203 -0.006,-48 l -64,-64 z"
         sodipodi:nodetypes="cccccc" />
      <path
         id="path2"
         style="display:inline;opacity:0.6;fill:#ffffff;stroke-width:6.64319;stroke-linecap:round;stroke-linejoin:round;paint-order:stroke markers fill;enable-background:new"
         d="M 58.628906,16 C 48.308869,16 40,24.308869 40,34.628906 v 2 C 40,26.308869 48.308869,18 58.628906,18 h 93.365234 l 64,64 v -2 l -64,-64 z M 215.99414,34.511719 v 2 c 0,0.03951 0.006,0.07762 0.006,0.117187 v -2 c 0,-0.03957 -0.006,-0.07768 -0.006,-0.117187 z" />
      <path
         id="path8"
         style="display:inline;opacity:0.6;fill:#ffffff;stroke-width:6.64319;stroke-linecap:round;stroke-linejoin:round;paint-order:stroke markers fill;enable-background:new"
         d="m 216,180 -60,60 h 41.37109 C 207.69113,240 216,231.69113 216,221.37109 Z" />
    </g>
    <g
       inkscape:groupmode="layer"
       id="layer6"
       inkscape:label="Folded corner"
       style="display:inline;enable-background:new">
      <path
         id="path6"
         style="display:inline;opacity:0.4;fill:#000000;stroke-width:12.6323;stroke-linecap:round;stroke-linejoin:round;paint-order:stroke markers fill;enable-background:new"
         inkscape:transform-center-y="-10.667154"
         d="M 152,20 V 65.37109 C 152,75.69097 160.30706,84 170.62695,84 H 216 v -4 h -3.99023 v 0.01 C 192.0061,60.00789 172.00326,40.00325 152,20 Z"
         sodipodi:nodetypes="cssccccc" />
      <path
         id="path5"
         style="display:inline;fill:#ececec;stroke-width:12.6323;stroke-linecap:round;stroke-linejoin:round;paint-order:stroke markers fill;enable-background:new"
         inkscape:transform-center-y="-10.667154"
         d="M 152,16 V 61.37109 C 152,71.69098 160.30706,80 170.62696,80 H 216 C 194.66606,58.66856 173.33336,37.33335 152,16 Z"
         sodipodi:nodetypes="csscc" />
    </g>
  </g>
</svg>
