<?xml version="1.0" encoding="UTF-8" standalone="no"?>
<svg
   xmlns:dc="http://purl.org/dc/elements/1.1/"
   xmlns:cc="http://creativecommons.org/ns#"
   xmlns:rdf="http://www.w3.org/1999/02/22-rdf-syntax-ns#"
   xmlns:svg="http://www.w3.org/2000/svg"
   xmlns="http://www.w3.org/2000/svg"
   xmlns:xlink="http://www.w3.org/1999/xlink"
   xmlns:sodipodi="http://sodipodi.sourceforge.net/DTD/sodipodi-0.dtd"
   xmlns:inkscape="http://www.inkscape.org/namespaces/inkscape"
   inkscape:export-ydpi="96"
   inkscape:export-xdpi="96"
   width="256"
   height="256"
   id="svg11300"
   sodipodi:version="0.32"
   inkscape:version="1.0.1 (3bc2e813f5, 2020-09-07)"
   sodipodi:docname="image-x-xcf.svg"
   inkscape:output_extension="org.inkscape.output.svg.inkscape"
   version="1.0"
   style="display:inline;enable-background:new"
   inkscape:export-filename="/home/stuart/fold.png">
  <title
     id="title3004">Suru Icon Theme Template</title>
  <sodipodi:namedview
     stroke="#ef2929"
     fill="#f57900"
     id="base"
     pagecolor="#ffffff"
     bordercolor="#666666"
     borderopacity="1"
     inkscape:pageopacity="0"
     inkscape:pageshadow="2"
     inkscape:zoom="2.8284271"
     inkscape:cx="140.95835"
     inkscape:cy="119.88942"
     inkscape:current-layer="layer5"
     showgrid="false"
     inkscape:grid-bbox="true"
     inkscape:document-units="px"
     inkscape:showpageshadow="true"
     inkscape:window-width="1836"
     inkscape:window-height="1016"
     inkscape:window-x="2004"
     inkscape:window-y="27"
     width="400px"
     height="300px"
     inkscape:snap-nodes="true"
     inkscape:snap-bbox="true"
     gridtolerance="10000"
     inkscape:object-nodes="true"
     inkscape:snap-grids="true"
     showguides="true"
     inkscape:guide-bbox="true"
     inkscape:window-maximized="1"
     inkscape:bbox-paths="true"
     inkscape:snap-bbox-midpoints="true"
     inkscape:snap-global="true"
     inkscape:object-paths="true"
     inkscape:snap-intersection-paths="true"
     inkscape:snap-smooth-nodes="true"
     inkscape:pagecheckerboard="false"
     showborder="true"
     inkscape:document-rotation="0">
    <inkscape:grid
       spacingy="1"
       spacingx="1"
       id="grid5883"
       type="xygrid"
       enabled="true"
       visible="true"
       empspacing="4"
       snapvisiblegridlinesonly="true"
       originx="0"
       originy="0" />
    <inkscape:grid
       type="xygrid"
       id="grid11592"
       empspacing="2"
       visible="true"
       enabled="false"
       spacingx="0.5"
       spacingy="0.5"
       color="#ff0000"
       opacity="0.1254902"
       empcolor="#ff0000"
       empopacity="0.25098039"
       snapvisiblegridlinesonly="true"
       originx="0"
       originy="0" />
  </sodipodi:namedview>
  <defs
     id="defs3">
    <linearGradient
       inkscape:collect="always"
       id="linearGradient1750">
      <stop
         style="stop-color:#000000;stop-opacity:1;"
         offset="0"
         id="stop1746" />
      <stop
         style="stop-color:#000000;stop-opacity:0;"
         offset="1"
         id="stop1748" />
    </linearGradient>
    <linearGradient
       gradientUnits="userSpaceOnUse"
       y2="119.09284"
       x2="-35.310345"
       y1="401.58368"
       x1="529.65515"
       id="linearGradient4226"
       xlink:href="#linearGradient4338"
       inkscape:collect="always"
       gradientTransform="matrix(0,-0.45312514,0.45309781,0,2.0443476,240.00004)" />
    <linearGradient
       inkscape:collect="always"
       id="linearGradient4338">
      <stop
         style="stop-color:#f2f2f2;stop-opacity:1"
         offset="0"
         id="stop4340" />
      <stop
         style="stop-color:#f9f9f9;stop-opacity:1"
         offset="1"
         id="stop4342" />
    </linearGradient>
    <radialGradient
       inkscape:collect="always"
       xlink:href="#linearGradient1750"
       id="radialGradient1752"
       cx="179.99261"
       cy="103.2822"
       fx="179.99261"
       fy="103.2822"
       r="35.068905"
       gradientTransform="matrix(1.3687341,-2.0954866e-7,2.0316901e-7,1.3528551,-93.356457,-55.725806)"
       gradientUnits="userSpaceOnUse" />
    <filter
       inkscape:collect="always"
       style="color-interpolation-filters:sRGB"
       id="filter2553"
       x="-0.071999997"
       width="1.1440001"
       y="-0.071999997"
       height="1.1440001">
      <feGaussianBlur
         inkscape:collect="always"
         stdDeviation="1.98"
         id="feGaussianBlur2555" />
    </filter>
  </defs>
  <metadata
     id="metadata4">
    <rdf:RDF>
      <cc:Work
         rdf:about="">
        <dc:format>image/svg+xml</dc:format>
        <dc:type
           rdf:resource="http://purl.org/dc/dcmitype/StillImage" />
        <dc:creator>
          <cc:Agent>
            <dc:title>Sam Hewitt</dc:title>
          </cc:Agent>
        </dc:creator>
        <dc:source />
        <cc:license
           rdf:resource="http://creativecommons.org/licenses/by-sa/4.0/" />
        <dc:title>Suru Icon Theme Template</dc:title>
        <dc:subject>
          <rdf:Bag />
        </dc:subject>
        <dc:date />
        <dc:rights>
          <cc:Agent>
            <dc:title />
          </cc:Agent>
        </dc:rights>
        <dc:publisher>
          <cc:Agent>
            <dc:title />
          </cc:Agent>
        </dc:publisher>
        <dc:identifier />
        <dc:relation />
        <dc:language />
        <dc:coverage />
        <dc:description />
        <dc:contributor>
          <cc:Agent>
            <dc:title />
          </cc:Agent>
        </dc:contributor>
      </cc:Work>
      <cc:Work
         rdf:about="">
        <dc:format>image/svg+xml</dc:format>
        <dc:type
           rdf:resource="http://purl.org/dc/dcmitype/StillImage" />
      </cc:Work>
      <cc:License
         rdf:about="http://creativecommons.org/licenses/by-sa/4.0/">
        <cc:permits
           rdf:resource="http://creativecommons.org/ns#Reproduction" />
        <cc:permits
           rdf:resource="http://creativecommons.org/ns#Distribution" />
        <cc:requires
           rdf:resource="http://creativecommons.org/ns#Notice" />
        <cc:requires
           rdf:resource="http://creativecommons.org/ns#Attribution" />
        <cc:permits
           rdf:resource="http://creativecommons.org/ns#DerivativeWorks" />
        <cc:requires
           rdf:resource="http://creativecommons.org/ns#ShareAlike" />
      </cc:License>
    </rdf:RDF>
  </metadata>
  <g
     style="display:inline"
     inkscape:groupmode="layer"
     inkscape:label="Icon"
     id="layer1">
    <g
       inkscape:groupmode="layer"
       id="layer2"
       inkscape:label="Background"
       style="display:inline">
      <path
         sodipodi:nodetypes="scccssscccs"
         inkscape:connector-curvature="0"
         id="path1163"
         d="m 78.925955,15.99997 c -35.295614,0 -39.093382,3.625419 -38.920397,38.993541 V 128 201.00649 c -0.172985,35.36813 3.624783,38.99354 38.920397,38.99354 h 98.153675 c 35.29562,0 38.9204,-3.625 38.9204,-38.99354 V 128 79.999988 L 152.00204,15.99997 Z"
         style="color:#000000;display:inline;overflow:visible;visibility:visible;opacity:0.2;fill:none;fill-opacity:1;fill-rule:nonzero;stroke:#000000;stroke-width:3.99994;stroke-miterlimit:4;stroke-dasharray:none;stroke-opacity:1;marker:none;enable-background:accumulate" />
      <path
         style="color:#000000;display:inline;overflow:visible;visibility:visible;fill:url(#linearGradient4226);fill-opacity:1;fill-rule:nonzero;stroke:none;stroke-width:0.999984;marker:none;enable-background:accumulate"
         d="m 78.925955,15.99997 c -35.295614,0 -39.093382,3.625419 -38.920397,38.993541 V 128 201.00649 c -0.172985,35.36813 3.624783,38.99354 38.920397,38.99354 h 98.153675 c 35.29562,0 38.9204,-3.625 38.9204,-38.99354 V 128 79.999988 L 152.00204,15.99997 Z"
         id="rect4158"
         inkscape:connector-curvature="0"
         sodipodi:nodetypes="scccssscccs" />
      <path
         style="color:#000000;display:inline;overflow:visible;visibility:visible;opacity:0.6;fill:#ffffff;fill-opacity:1;fill-rule:nonzero;stroke:none;stroke-width:0.999984;marker:none;enable-background:accumulate"
         d="m 78.926215,15.99997 c -35.295619,0 -39.093642,3.62603 -38.920657,38.994152 v 2 C 39.832573,21.626 43.630596,17.99997 78.926215,17.99997 h 73.075825 v -2 z"
         id="path931"
         inkscape:connector-curvature="0"
         sodipodi:nodetypes="sccsccs" />
    </g>
    <g
       inkscape:groupmode="layer"
       id="layer6"
       inkscape:label="Graphic"
       style="display:inline">
      <path
         id="path1025"
         style="color:#000000;font-style:normal;font-variant:normal;font-weight:normal;font-stretch:normal;font-size:medium;line-height:normal;font-family:sans-serif;font-variant-ligatures:normal;font-variant-position:normal;font-variant-caps:normal;font-variant-numeric:normal;font-variant-alternates:normal;font-variant-east-asian:normal;font-feature-settings:normal;font-variation-settings:normal;text-indent:0;text-align:start;text-decoration:none;text-decoration-line:none;text-decoration-style:solid;text-decoration-color:#000000;letter-spacing:normal;word-spacing:normal;text-transform:none;writing-mode:lr-tb;direction:ltr;text-orientation:mixed;dominant-baseline:auto;baseline-shift:baseline;text-anchor:start;white-space:normal;shape-padding:0;shape-margin:0;inline-size:0;clip-rule:nonzero;display:inline;overflow:visible;visibility:visible;opacity:0.2;isolation:auto;mix-blend-mode:normal;color-interpolation:sRGB;color-interpolation-filters:linearRGB;solid-color:#000000;solid-opacity:1;vector-effect:none;fill:#000000;fill-opacity:1;fill-rule:nonzero;stroke:none;stroke-width:0.620975px;stroke-linecap:butt;stroke-linejoin:miter;stroke-miterlimit:4;stroke-dasharray:none;stroke-dashoffset:0;stroke-opacity:1;color-rendering:auto;image-rendering:auto;shape-rendering:auto;text-rendering:auto;enable-background:accumulate;stop-color:#000000"
         d="m 188.19288,84.17152 c -0.14494,-4.79e-4 -0.29211,0.03161 -0.42725,0.109862 -0.26867,0.155542 -0.4367,0.462641 -0.50538,0.8667 h -0.005 c -1.04942,6.46597 -6.01356,12.852248 -13.20558,18.188478 -5.69117,4.22266 -12.77407,7.76421 -20.35643,10.2002 -3.41525,-3.78933 -8.34522,-6.18653 -13.84767,-6.18653 -6.78781,0 -12.71145,3.63787 -15.97656,9.05762 -1.82296,-0.29344 -3.61038,-0.68462 -5.34667,-1.18897 -8.90075,-2.58536 -16.49377,-8.01791 -21.123051,-17.2168 -0.004,-0.0508 -0.007,-0.0992 -0.0318,-0.15869 -0.0161,-0.0388 -0.036,-0.0831 -0.10009,-0.13671 -0.0158,-0.0133 -0.0525,-0.0408 -0.0538,-0.0415 -0.001,-6.9e-4 -0.0769,-0.0266 -0.0781,-0.0269 -0.002,-6.4e-4 -0.17814,0.004 -0.18067,0.005 -0.001,4.1e-4 -0.067,0.031 -0.0684,0.0317 -0.001,7.8e-4 -0.0349,0.0287 -0.0488,0.0415 -0.028,0.0256 -0.0471,0.0489 -0.061,0.0708 -0.0277,0.0438 -0.0397,0.0788 -0.0488,0.1123 -0.004,0.0128 -0.001,0.0243 -0.005,0.0366 h -0.007 c -0.45887,6.08487 -0.27656,15.15837 -0.44433,22.56836 -0.0352,1.55936 -0.0982,2.98354 -0.17335,4.35058 -0.64611,1.50544 -1.00585,3.1629 -1.00585,4.90478 0,0.5942 0.0563,1.17359 0.13671,1.74561 -0.0957,0.30077 -0.19258,0.59789 -0.30029,0.79835 -0.14004,0.26055 -0.28757,0.42476 -0.4126,0.50292 -0.12125,0.0758 -0.21821,0.0929 -0.36865,0.0512 -2.7825,-3.66729 -6.35046,-6.78322 -10.148927,-8.59131 -2.190638,-1.04269 -4.46675,-1.64618 -6.706543,-1.66016 -2.239791,-0.0141 -4.443035,0.56412 -6.486816,1.88477 l -0.0098,0.005 -0.01465,0.007 c -3.558496,2.81739 -5.162512,6.73066 -5.273437,10.88379 -0.110926,4.1531 1.257179,8.55455 3.620606,12.44629 4.376058,7.20585 12.210748,12.68128 20.527347,11.41113 0.45411,0.48393 0.98653,0.8592 1.52831,1.19141 l 0.002,-0.002 c 23.366011,14.75671 41.089911,19.00695 54.904791,17.7002 5.20764,-0.49258 9.85406,-1.77724 14.0332,-3.57909 1.71141,1.5576 3.59788,3.30752 5.89112,5.51024 0.0249,0.024 0.0505,0.0387 0.0757,0.061 -0.61926,1.16078 -0.84164,2.23098 -0.7129,3.208 0.15197,1.15326 0.75006,2.16675 1.56495,3.09327 1.62977,1.85308 4.14275,3.40541 6.01806,5.10986 l 0.72021,0.65185 -0.29052,-0.93017 c -0.90102,-2.86881 -1.65133,-6.31846 -1.46485,-8.97706 v -0.005 c 0.0664,-1.27924 -0.9763,-2.4269 -2.15819,-3.0542 -0.59098,-0.31365 -1.22523,-0.503 -1.81886,-0.49071 l -0.002,0.002 c -0.3469,0.007 -0.67569,0.0993 -0.96435,0.26854 -2.19718,-2.18655 -3.79955,-3.74625 -5.27832,-5.17334 6.20105,-2.94832 11.34441,-7.01877 15.74219,-11.25976 3.37439,-3.3011 7.38003,-9.06942 10.04882,-20.74951 2.66879,-11.6801 4.0156,-29.27989 2.11182,-56.306156 h -0.002 c -0.0445,-0.575171 -0.47807,-1.049585 -0.99122,-1.257325 -0.12858,-0.05205 -0.2726,-0.08425 -0.41747,-0.08545 z m -15.43214,106.49657 h 0.002 c 0.001,0.004 0.002,0.009 0.002,0.0125 -0.002,-0.002 -0.006,-0.005 -0.0101,-0.007 0.002,-10e-4 0.004,-0.004 0.005,-0.005 z" />
      <g
         id="g1023"
         transform="matrix(0.52588518,0,0,0.52588384,-53.610871,70.596203)">
        <path
           id="path984"
           style="color:#000000;font-style:normal;font-variant:normal;font-weight:normal;font-stretch:normal;font-size:medium;line-height:normal;font-family:sans-serif;font-variant-ligatures:normal;font-variant-position:normal;font-variant-caps:normal;font-variant-numeric:normal;font-variant-alternates:normal;font-variant-east-asian:normal;font-feature-settings:normal;font-variation-settings:normal;text-indent:0;text-align:start;text-decoration:none;text-decoration-line:none;text-decoration-style:solid;text-decoration-color:#000000;letter-spacing:normal;word-spacing:normal;text-transform:none;writing-mode:lr-tb;direction:ltr;text-orientation:mixed;dominant-baseline:auto;baseline-shift:baseline;text-anchor:start;white-space:normal;shape-padding:0;shape-margin:0;inline-size:0;clip-rule:nonzero;display:inline;overflow:visible;visibility:visible;isolation:auto;mix-blend-mode:normal;color-interpolation:sRGB;color-interpolation-filters:linearRGB;solid-color:#000000;solid-opacity:1;vector-effect:none;fill:#524841;fill-opacity:1;fill-rule:nonzero;stroke:none;stroke-width:1.18082px;stroke-linecap:butt;stroke-linejoin:miter;stroke-miterlimit:4;stroke-dasharray:none;stroke-dashoffset:0;stroke-opacity:1;color-rendering:auto;image-rendering:auto;shape-rendering:auto;text-rendering:auto;enable-background:accumulate;stop-color:#000000"
           d="m 459.80668,21.060489 c -0.27707,-0.0016 -0.55799,0.05935 -0.8164,0.208984 -0.51087,0.295774 -0.83035,0.878144 -0.96094,1.646485 h -0.006 c -1.99554,12.295434 -11.43724,24.440717 -25.11328,34.58789 -13.67604,10.14717 -31.55007,18.287707 -50.26953,22.636719 -18.71946,4.34902 -38.27791,4.90626 -55.31641,-0.04297 -16.92526,-4.916236 -31.36501,-15.24407 -40.16783,-32.736327 -0.008,-0.09659 -0.0132,-0.187726 -0.0606,-0.300781 -0.0306,-0.07381 -0.0695,-0.159785 -0.19141,-0.261719 -0.0302,-0.02532 -0.10105,-0.07684 -0.10351,-0.07813 -0.002,-0.0013 -0.14606,-0.05217 -0.14844,-0.05273 v 0.002 c -0.005,-0.0012 -0.33504,0.0059 -0.33984,0.0078 -0.002,7.94e-4 -0.12844,0.05911 -0.13086,0.06055 -0.002,0.0015 -0.0691,0.05574 -0.0957,0.08008 -0.0533,0.04864 -0.0869,0.08917 -0.11328,0.13086 -0.0528,0.08338 -0.0782,0.153112 -0.0957,0.216797 -0.007,0.02436 -0.001,0.0469 -0.006,0.07031 h -0.0117 c -0.87258,11.570718 -0.52667,28.821528 -0.8457,42.91211 -0.1595,7.04529 -0.48726,13.300123 -1.20313,17.615243 -0.35792,2.15755 -0.81907,3.83132 -1.35156,4.82226 -0.26627,0.49548 -0.54547,0.80841 -0.78321,0.95703 -0.23773,0.14861 -0.42296,0.18682 -0.7246,0.0977 l -0.33985,1.12305 0.33985,-1.13282 c -0.005,-0.001 -0.21219,-0.0179 -0.2168,-0.0176 -0.005,2.3e-4 -0.12868,0.0147 -0.1836,0.0352 -0.10975,0.041 -0.18583,0.10044 -0.23632,0.14844 -0.10096,0.0961 -0.13475,0.16961 -0.17383,0.24414 -0.0782,0.14903 -0.13241,0.30274 -0.19141,0.49609 -0.11796,0.38676 -0.24429,0.92026 -0.38281,1.60352 -0.277,1.36651 -0.60528,3.31326 -0.95898,5.66602 -0.7074,4.7055 -1.51764,11.02077 -2.23243,17.38085 -0.71477,6.3601 -1.32899,12.767 -1.63867,17.67774 -0.0294,0.46551 -0.0407,0.84416 -0.0645,1.28125 -1.81916,0.002 -3.29101,1.44924 -3.29101,3.23437 0,0.20862 0.0241,0.41178 0.0625,0.60938 l -0.25391,0.13281 c 0.97905,1.88147 2.56318,2.98497 4.14844,3.95703 l 0.002,-0.004 c 44.43176,28.06076 78.13645,36.14305 104.40624,33.6582 26.29628,-2.48735 45.08202,-15.57109 59.62305,-29.59375 6.41659,-6.27724 14.03257,-17.24857 19.10742,-39.45898 5.07485,-22.21042 7.63771,-55.676308 4.01758,-107.06837 h -0.004 c -0.0845,-1.09372 -0.91092,-1.993641 -1.88672,-2.388672 -0.24588,-0.09953 -0.5198,-0.162442 -0.79688,-0.164062 z" />
        <g
           id="g944"
           transform="matrix(3.7795275,0,0,3.7795275,220.54301,-17.390683)">
          <ellipse
             style="display:inline;fill:#ffffff;stroke-width:0.0312418"
             id="path1075"
             cx="38.979656"
             cy="31.224228"
             rx="9.372797"
             ry="9.3728008" />
          <ellipse
             style="display:inline;fill:#ffffff;stroke-width:0.0312418"
             id="path1077"
             cx="22.727787"
             cy="33.110119"
             rx="6.2485375"
             ry="6.2485404" />
          <ellipse
             style="display:inline;fill:#000000;stroke-width:0.0312418"
             id="path1079"
             cx="24.05938"
             cy="35.514179"
             rx="1.5621344"
             ry="1.5621351" />
          <ellipse
             style="display:inline;fill:#000000;stroke-width:0.0468635"
             id="path1081"
             cx="41.669167"
             cy="34.501923"
             rx="2.3431993"
             ry="2.3432002" />
        </g>
        <g
           id="g1241"
           transform="matrix(3.7795275,0,0,3.7795275,220.54301,-17.390683)">
          <g
             id="g1235">
            <path
               id="path1353"
               style="color:#000000;font-style:normal;font-variant:normal;font-weight:normal;font-stretch:normal;font-size:medium;line-height:normal;font-family:sans-serif;font-variant-ligatures:normal;font-variant-position:normal;font-variant-caps:normal;font-variant-numeric:normal;font-variant-alternates:normal;font-variant-east-asian:normal;font-feature-settings:normal;font-variation-settings:normal;text-indent:0;text-align:start;text-decoration:none;text-decoration-line:none;text-decoration-style:solid;text-decoration-color:#000000;letter-spacing:normal;word-spacing:normal;text-transform:none;writing-mode:lr-tb;direction:ltr;text-orientation:mixed;dominant-baseline:auto;baseline-shift:baseline;text-anchor:start;white-space:normal;shape-padding:0;shape-margin:0;inline-size:0;clip-rule:nonzero;display:inline;overflow:visible;visibility:visible;isolation:auto;mix-blend-mode:normal;color-interpolation:sRGB;color-interpolation-filters:linearRGB;solid-color:#000000;solid-opacity:1;vector-effect:none;fill:#974611;fill-opacity:1;fill-rule:nonzero;stroke:none;stroke-width:0.999999px;stroke-linecap:butt;stroke-linejoin:miter;stroke-miterlimit:4;stroke-dasharray:none;stroke-dashoffset:0;stroke-opacity:1;color-rendering:auto;image-rendering:auto;shape-rendering:auto;text-rendering:auto;enable-background:accumulate;stop-color:#000000"
               d="m 163.98828,186.21484 -0.67969,0.73828 c 0.45509,0.41825 0.78994,0.71757 1.2168,1.10743 -0.0925,0.009 -0.18529,0.0283 -0.27734,0.0293 -0.269,0.0747 -0.7267,-0.009 -0.88282,0.26368 -0.45042,-0.43782 -0.85143,-0.8152 -1.31835,-1.27344 l -0.70118,0.71484 c 13.19735,12.95189 19.50654,17.40719 35.74414,33.00391 0.81822,0.78993 1.72749,1.08142 2.41407,0.66601 0.34329,-0.20768 0.54273,-0.64296 0.49414,-1.05664 -0.0486,-0.41367 -0.27818,-0.81824 -0.65821,-1.22461 h -0.008 v -0.008 c -21.30916,-21.22564 -21.73649,-20.4551 -35.34356,-32.96076 z"
               transform="scale(0.26458333)" />
            <path
               id="path1368"
               style="color:#000000;font-style:normal;font-variant:normal;font-weight:normal;font-stretch:normal;font-size:medium;line-height:normal;font-family:sans-serif;font-variant-ligatures:normal;font-variant-position:normal;font-variant-caps:normal;font-variant-numeric:normal;font-variant-alternates:normal;font-variant-east-asian:normal;font-feature-settings:normal;font-variation-settings:normal;text-indent:0;text-align:start;text-decoration:none;text-decoration-line:none;text-decoration-style:solid;text-decoration-color:#000000;letter-spacing:normal;word-spacing:normal;text-transform:none;writing-mode:lr-tb;direction:ltr;text-orientation:mixed;dominant-baseline:auto;baseline-shift:baseline;text-anchor:start;white-space:normal;shape-padding:0;shape-margin:0;inline-size:0;clip-rule:nonzero;display:inline;overflow:visible;visibility:visible;isolation:auto;mix-blend-mode:normal;color-interpolation:sRGB;color-interpolation-filters:linearRGB;solid-color:#000000;solid-opacity:1;vector-effect:none;fill:#808080;fill-opacity:1;fill-rule:nonzero;stroke:none;stroke-width:0.264583px;stroke-linecap:butt;stroke-linejoin:miter;stroke-miterlimit:4;stroke-dasharray:none;stroke-dashoffset:0;stroke-opacity:1;color-rendering:auto;image-rendering:auto;shape-rendering:auto;text-rendering:auto;enable-background:accumulate;stop-color:#000000"
               d="m 53.118234,57.749816 c -0.298661,0.0062 -0.582271,0.122378 -0.755509,0.380858 l -0.0021,0.0021 c -0.460205,0.710348 -0.611822,1.351436 -0.535368,1.931665 0.07646,0.580228 0.377047,1.090334 0.787032,1.556493 0.81997,0.93232 2.084216,1.712844 3.027722,2.570387 L 56.00333,64.51943 55.856569,64.052276 C 55.403256,62.608921 55.026354,60.872318 55.12018,59.534722 v -0.0016 c 0.03337,-0.64361 -0.491082,-1.221767 -1.085723,-1.537375 -0.29732,-0.157803 -0.617561,-0.252169 -0.916223,-0.245981 z m 2.422592,6.004285 c 5.45e-4,0.0018 10e-4,0.0038 0.0015,0.0057 -0.0013,-0.0011 -0.0028,-0.002 -0.0041,-0.0031 10e-4,-6.3e-4 0.0016,-0.0019 0.0026,-0.0026 z" />
          </g>
          <path
             id="path1145"
             style="color:#000000;font-style:normal;font-variant:normal;font-weight:normal;font-stretch:normal;font-size:medium;line-height:normal;font-family:sans-serif;font-variant-ligatures:normal;font-variant-position:normal;font-variant-caps:normal;font-variant-numeric:normal;font-variant-alternates:normal;font-variant-east-asian:normal;font-feature-settings:normal;font-variation-settings:normal;text-indent:0;text-align:start;text-decoration:none;text-decoration-line:none;text-decoration-style:solid;text-decoration-color:#000000;letter-spacing:normal;word-spacing:normal;text-transform:none;writing-mode:lr-tb;direction:ltr;text-orientation:mixed;dominant-baseline:auto;baseline-shift:baseline;text-anchor:start;white-space:normal;shape-padding:0;shape-margin:0;inline-size:0;clip-rule:nonzero;display:inline;overflow:visible;visibility:visible;isolation:auto;mix-blend-mode:normal;color-interpolation:sRGB;color-interpolation-filters:linearRGB;solid-color:#000000;solid-opacity:1;vector-effect:none;fill:#000000;fill-opacity:1;fill-rule:nonzero;stroke:none;stroke-width:1.18082px;stroke-linecap:butt;stroke-linejoin:miter;stroke-miterlimit:4;stroke-dasharray:none;stroke-dashoffset:0;stroke-opacity:1;color-rendering:auto;image-rendering:auto;shape-rendering:auto;text-rendering:auto;enable-background:accumulate;stop-color:#000000"
             d="m 182.64062,171.875 c -0.32477,0 -0.59179,0.26704 -0.59179,0.5918 0,0.2259 0.13288,0.41656 0.32031,0.51562 l -0.004,0.008 c 0.96196,0.46851 1.76694,0.8826 2.48243,1.26954 -11.31974,8.43846 -30.31196,10.48517 -49.98047,10.8457 -0.32478,0 -0.58985,0.26509 -0.58985,0.58984 0,0.29145 0.21758,0.52341 0.4961,0.57031 l -0.002,0.0176 c 18.19911,3.43469 36.53555,5.25636 53.93946,-8.42187 l 0.38281,-0.30078 c 0.20907,0.39999 0.32245,0.81678 0.41016,1.33789 0.11429,0.67907 0.17774,1.52246 0.35742,2.59765 l 0.008,-0.002 c 0.0261,0.30107 0.27252,0.54102 0.58008,0.54102 0.32477,0 0.58984,-0.2651 0.58984,-0.58985 0,-0.0493 -0.0178,-0.0928 -0.0293,-0.13867 l 0.01,-0.002 c -0.17023,-1.01866 -0.21934,-1.84326 -0.34765,-2.60547 -0.12828,-0.76221 -0.34235,-1.48027 -0.82032,-2.17188 -0.9559,-1.38321 -2.82587,-2.58192 -6.97265,-4.60156 l -0.002,0.002 c -0.0729,-0.0324 -0.15164,-0.0527 -0.23633,-0.0527 z"
             transform="scale(0.26458333)" />
        </g>
        <path
           id="path944"
           style="color:#000000;font-style:normal;font-variant:normal;font-weight:normal;font-stretch:normal;font-size:medium;line-height:normal;font-family:sans-serif;font-variant-ligatures:normal;font-variant-position:normal;font-variant-caps:normal;font-variant-numeric:normal;font-variant-alternates:normal;font-variant-east-asian:normal;font-feature-settings:normal;font-variation-settings:normal;text-indent:0;text-align:start;text-decoration:none;text-decoration-line:none;text-decoration-style:solid;text-decoration-color:#000000;letter-spacing:normal;word-spacing:normal;text-transform:none;writing-mode:lr-tb;direction:ltr;text-orientation:mixed;dominant-baseline:auto;baseline-shift:baseline;text-anchor:start;white-space:normal;shape-padding:0;shape-margin:0;inline-size:0;clip-rule:nonzero;display:inline;overflow:visible;visibility:visible;isolation:auto;mix-blend-mode:normal;color-interpolation:sRGB;color-interpolation-filters:linearRGB;solid-color:#000000;solid-opacity:1;vector-effect:none;fill:#333333;fill-opacity:1;fill-rule:nonzero;stroke:none;stroke-width:1.18082px;stroke-linecap:butt;stroke-linejoin:miter;stroke-miterlimit:4;stroke-dasharray:none;stroke-dashoffset:0;stroke-opacity:1;color-rendering:auto;image-rendering:auto;shape-rendering:auto;text-rendering:auto;enable-background:accumulate;stop-color:#000000"
           d="m 248.91801,94.148377 c -4.25909,-0.0268 -8.44762,1.07268 -12.33398,3.58399 l -0.0176,0.008 -0.0273,0.0176 c -6.76668,5.357413 -9.82032,12.795953 -10.03125,20.693363 -0.21094,7.8974 2.39057,16.26561 6.88476,23.66601 8.98839,14.8008 25.64987,25.79648 42.85156,20.89453 h 0.0273 l 0.0254,-0.01 c 10.13079,-3.89673 14.74885,-11.31364 15.32422,-19.76953 0.57537,-8.45589 -2.78005,-17.939 -8.32422,-26.31446 -5.54417,-8.37542 -13.29618,-15.64774 -21.62695,-19.613253 -4.16562,-1.98273 -8.49286,-3.12968 -12.75195,-3.15625 z" />
      </g>
    </g>
    <g
       inkscape:groupmode="layer"
       id="layer5"
       inkscape:label="Highlights"
       style="display:inline">
      <path
         id="path4231"
         style="color:#000000;display:inline;overflow:visible;visibility:visible;opacity:0.15;fill:#ffffff;fill-opacity:1;fill-rule:nonzero;stroke:none;stroke-width:0.999984;marker:none;enable-background:accumulate"
         d="M 128.00195 16 L 128.00195 128 L 216 128 L 216 80 L 152.00195 16 L 128.00195 16 z " />
      <path
         style="color:#000000;display:inline;overflow:visible;visibility:visible;opacity:0.4;fill:#ffffff;fill-opacity:1;fill-rule:nonzero;stroke:none;stroke-width:7.99988;stroke-linecap:butt;stroke-linejoin:miter;stroke-miterlimit:4;stroke-dasharray:none;stroke-dashoffset:0;stroke-opacity:1;marker:none;enable-background:accumulate"
         d="m 156.00192,240.00003 59.99811,-60.00002 v 22.48389 c -0.0524,33.99582 -3.80256,37.51613 -38.1729,37.51613 z"
         id="path4254"
         inkscape:connector-curvature="0"
         sodipodi:nodetypes="cccsc" />
      <g
         id="g894">
        <path
           id="path4255"
           style="color:#000000;display:inline;overflow:visible;visibility:visible;opacity:0.15;fill:#ffffff;fill-opacity:1;fill-rule:nonzero;stroke:none;stroke-width:0.999984;marker:none;enable-background:accumulate"
           d="M 40.005859 128 L 40.005859 201.00781 C 39.832874 236.37594 43.630165 240 78.925781 240 L 128.00195 240 L 128.00195 128 L 40.005859 128 z " />
        <path
           id="path883"
           style="color:#000000;display:inline;overflow:visible;visibility:visible;opacity:0.2;fill:#ffffff;fill-opacity:1;fill-rule:nonzero;stroke:none;stroke-width:0.999984;marker:none;enable-background:accumulate"
           d="m 128.00195,128 v 112 h 49.07813 C 212.3757,240 215.08176,236.36444 216,201.00781 V 128 Z"
           sodipodi:nodetypes="ccsccc" />
      </g>
    </g>
    <g
       inkscape:groupmode="layer"
       id="layer9"
       inkscape:label="Folded corner"
       style="display:inline">
      <path
         inkscape:connector-curvature="0"
         style="color:#000000;display:inline;overflow:visible;visibility:visible;opacity:0.2;fill:url(#radialGradient1752);fill-opacity:1;fill-rule:nonzero;stroke:none;stroke-width:1;marker:none;filter:url(#filter2553);enable-background:accumulate"
         d="m 213.00559,90 -66,-66 0.003,24.99857 v 1 0.53711 c 0,35.29429 3.62603,39.63197 38.99414,39.45899 z"
         id="rect4158-0-3-6"
         sodipodi:nodetypes="ccccscc"
         transform="matrix(0.9999686,0,0,1.0000003,3.0012575,-8.0000357)" />
      <path
         inkscape:connector-curvature="0"
         style="color:#000000;display:inline;overflow:visible;visibility:visible;opacity:0.15;fill:#000000;fill-opacity:1;fill-rule:nonzero;stroke:none;stroke-width:0.999984;marker:none;enable-background:accumulate"
         d="m 216.00003,81.999988 v -2 L 152.00204,15.99997 h -1.99994 v 24.999101 1 0.53711 c 0,34.463806 5.99982,39.463807 38.99292,39.459007 z"
         id="rect4158-0-3-2"
         sodipodi:nodetypes="ccccccscc" />
      <path
         inkscape:connector-curvature="0"
         style="color:#000000;display:inline;overflow:visible;visibility:visible;fill:#faf8f6;fill-opacity:1;fill-rule:nonzero;stroke:none;stroke-width:0.999984;marker:none;enable-background:accumulate"
         d="M 215.9971,79.994658 152.00497,16.000494 v 22.998056 1.000001 0.53711 c 0,35.294296 3.62592,39.631977 38.99292,39.458997 z"
         id="rect4158-0-3" />
    </g>
  </g>
</svg>
