<?xml version="1.0" encoding="UTF-8" standalone="no"?>
<svg
   width="256"
   height="256"
   id="svg11300"
   sodipodi:version="0.32"
   sodipodi:docname="image-x-xcf.svg"
   version="1.0"
   style="display:inline;enable-background:new"
   inkscape:version="1.3 (0e150ed6c4, 2023-07-21)"
   xmlns:inkscape="http://www.inkscape.org/namespaces/inkscape"
   xmlns:sodipodi="http://sodipodi.sourceforge.net/DTD/sodipodi-0.dtd"
   xmlns="http://www.w3.org/2000/svg"
   xmlns:svg="http://www.w3.org/2000/svg">
  <sodipodi:namedview
     stroke="#ef2929"
     fill="#f57900"
     id="base"
     pagecolor="#cccccc"
     bordercolor="#666666"
     borderopacity="1"
     inkscape:pageopacity="0"
     inkscape:pageshadow="2"
     inkscape:zoom="1.1947006"
     inkscape:cx="157.78012"
     inkscape:cy="175.35775"
     inkscape:current-layer="layer1"
     showgrid="false"
     inkscape:grid-bbox="true"
     inkscape:document-units="px"
     inkscape:showpageshadow="true"
     inkscape:window-width="1920"
     inkscape:window-height="1011"
     inkscape:window-x="0"
     inkscape:window-y="0"
     width="400px"
     height="300px"
     inkscape:snap-nodes="true"
     inkscape:snap-bbox="true"
     gridtolerance="10000"
     inkscape:object-nodes="true"
     inkscape:snap-grids="true"
     showguides="false"
     inkscape:guide-bbox="true"
     inkscape:window-maximized="1"
     inkscape:bbox-paths="true"
     inkscape:snap-bbox-midpoints="true"
     inkscape:snap-global="false"
     inkscape:object-paths="true"
     inkscape:snap-intersection-paths="true"
     inkscape:snap-smooth-nodes="true"
     inkscape:pagecheckerboard="false"
     showborder="true"
     inkscape:document-rotation="0"
     inkscape:deskcolor="#d1d1d1">
    <inkscape:grid
       spacingy="1"
       spacingx="1"
       id="grid5883"
       type="xygrid"
       enabled="true"
       visible="false"
       empspacing="4"
       snapvisiblegridlinesonly="true"
       originx="0"
       originy="0"
       units="px" />
    <inkscape:grid
       type="xygrid"
       id="grid11592"
       empspacing="2"
       visible="false"
       enabled="false"
       spacingx="0.5"
       spacingy="0.5"
       color="#ff0000"
       opacity="0.1254902"
       empcolor="#ff0000"
       empopacity="0.25098039"
       snapvisiblegridlinesonly="true"
       originx="0"
       originy="0"
       units="px" />
    <sodipodi:guide
       position="394.16276,545.36183"
       orientation="0,-1"
       id="guide864"
       inkscape:locked="false" />
  </sodipodi:namedview>
  <defs
     id="defs3" />
  <g
     style="display:inline"
     inkscape:groupmode="layer"
     inkscape:label="Icon"
     id="layer1">
    <g
       inkscape:groupmode="layer"
       id="layer4"
       inkscape:label="Shadow"
       style="display:inline;opacity:0.4;enable-background:new">
      <path
         id="rect3"
         style="display:inline;opacity:0.4;fill:#000000;stroke-width:6.64319;stroke-linecap:round;stroke-linejoin:round;paint-order:stroke markers fill;enable-background:new"
         d="m 40,128 v 97.37109 C 40,235.69114 48.308858,244 58.628906,244 H 197.37109 C 207.69114,244 216,235.69114 216,225.37109 V 128 Z"
         sodipodi:nodetypes="csssscc" />
    </g>
    <g
       inkscape:groupmode="layer"
       id="layer2"
       inkscape:label="Background"
       style="display:inline;enable-background:new">
      <path
         id="rect2"
         style="display:inline;fill:#f9f9f9;stroke-width:6.64319;stroke-linecap:round;stroke-linejoin:round;paint-order:stroke markers fill;enable-background:new"
         d="M 58.628906,16 C 48.308858,16 40,24.308858 40,34.628906 V 221.37109 C 40,231.69114 48.308858,240 58.628906,240 H 197.37109 C 207.69114,240 216,231.69114 216,221.37109 L 215.994,80 l -64,-64 z"
         sodipodi:nodetypes="ssssssccs" />
    </g>
    <g
       inkscape:groupmode="layer"
       id="layer8"
       inkscape:label="Graphic"
       style="display:inline;enable-background:new">
      <g
         id="g34">
        <g
           id="g33"
           transform="translate(0,4)"
           style="opacity:0.4">
          <path
             id="path23"
             style="color:#000000;font-style:normal;font-variant:normal;font-weight:normal;font-stretch:normal;font-size:medium;line-height:normal;font-family:sans-serif;font-variant-ligatures:normal;font-variant-position:normal;font-variant-caps:normal;font-variant-numeric:normal;font-variant-alternates:normal;font-variant-east-asian:normal;font-feature-settings:normal;font-variation-settings:normal;text-indent:0;text-align:start;text-decoration:none;text-decoration-line:none;text-decoration-style:solid;text-decoration-color:#000000;letter-spacing:normal;word-spacing:normal;text-transform:none;writing-mode:lr-tb;direction:ltr;text-orientation:mixed;dominant-baseline:auto;baseline-shift:baseline;text-anchor:start;white-space:normal;shape-padding:0;shape-margin:0;inline-size:0;clip-rule:nonzero;display:inline;overflow:visible;visibility:visible;isolation:auto;mix-blend-mode:normal;color-interpolation:sRGB;color-interpolation-filters:linearRGB;solid-color:#000000;solid-opacity:1;vector-effect:none;fill:#000000;fill-opacity:1;fill-rule:nonzero;stroke:none;stroke-width:0.617658px;stroke-linecap:butt;stroke-linejoin:miter;stroke-miterlimit:4;stroke-dasharray:none;stroke-dashoffset:0;stroke-opacity:1;color-rendering:auto;image-rendering:auto;shape-rendering:auto;text-rendering:auto;enable-background:accumulate;stop-color:#000000"
             d="m 181.17823,88 c -3.2368,0 -0.11931,8.91939 -13.64267,18.95333 -7.15358,5.30775 -16.50301,9.56587 -26.29464,11.84073 -9.79165,2.27487 -20.02215,2.56635 -28.93453,-0.0225 -16.557042,-4.80926 -16.221332,-17.45869 -20.337692,-17.45869 -3.92597,0 -3.71467,15.4964 -4.08383,22.71608 -0.18987,3.71332 -1.07511,7.00107 -1.65592,9.21411 -0.28981,1.10426 -0.98171,2.00408 -1.26026,2.52241 -0.47617,0.88608 -1.50404,10.55195 -2.44096,25.73935 0.51875,1.26037 1.75668,1.73383 2.58588,2.24229 l 0.001,-0.002 c 23.241132,14.67791 40.871152,18.90557 54.612182,17.60579 5.90443,-0.55849 33.03342,-5.70968 41.1818,-36.11982 4.42114,-16.49973 5.04383,-57.23101 0.26964,-57.23101 z"
             sodipodi:nodetypes="ssscsssscccsss" />
          <path
             id="path24"
             style="color:#000000;font-style:normal;font-variant:normal;font-weight:normal;font-stretch:normal;font-size:medium;line-height:normal;font-family:sans-serif;font-variant-ligatures:normal;font-variant-position:normal;font-variant-caps:normal;font-variant-numeric:normal;font-variant-alternates:normal;font-variant-east-asian:normal;font-feature-settings:normal;font-variation-settings:normal;text-indent:0;text-align:start;text-decoration:none;text-decoration-line:none;text-decoration-style:solid;text-decoration-color:#000000;letter-spacing:normal;word-spacing:normal;text-transform:none;writing-mode:lr-tb;direction:ltr;text-orientation:mixed;dominant-baseline:auto;baseline-shift:baseline;text-anchor:start;white-space:normal;shape-padding:0;shape-margin:0;inline-size:0;clip-rule:nonzero;display:inline;overflow:visible;visibility:visible;isolation:auto;mix-blend-mode:normal;color-interpolation:sRGB;color-interpolation-filters:linearRGB;solid-color:#000000;solid-opacity:1;vector-effect:none;fill:#000000;fill-opacity:1;fill-rule:nonzero;stroke:none;stroke-width:0.616894px;stroke-linecap:butt;stroke-linejoin:miter;stroke-miterlimit:4;stroke-dasharray:none;stroke-dashoffset:0;stroke-opacity:1;color-rendering:auto;image-rendering:auto;shape-rendering:auto;text-rendering:auto;enable-background:accumulate;stop-color:#000000"
             d="m 71.200658,126.65652 c -2.2226,-0.014 -4.40837,0.56102 -6.43646,1.87448 l -0.009,0.004 -0.0142,0.009 c -3.53117,2.80201 -5.1247,6.69249 -5.23478,10.82297 -0.11008,4.13047 1.24751,8.50718 3.59279,12.37771 4.69056,7.74106 14.28067,12.80543 22.36196,10.92818 4.25092,-0.98747 7.44731,-5.4433 8.0244,-10.34493 0.30026,-4.42257 -1.45076,-9.38239 -4.34397,-13.7629 -2.89328,-4.38049 -6.93865,-8.18404 -11.28604,-10.25806 -2.17381,-1.03701 -4.43197,-1.63688 -6.65456,-1.65078 z"
             sodipodi:nodetypes="ccccssascccc" />
          <rect
             style="display:inline;fill:#000000;fill-opacity:1;stroke-width:3.35027;stroke-linecap:round;stroke-linejoin:round;stroke-dasharray:none;paint-order:stroke markers fill"
             id="rect24"
             width="26.168139"
             height="3.6635392"
             x="217.47069"
             y="14.198533"
             transform="matrix(0.70710601,0.70710755,-0.70710601,0.70710755,0,0)" />
          <path
             id="path25"
             style="color:#000000;font-style:normal;font-variant:normal;font-weight:normal;font-stretch:normal;font-size:medium;line-height:normal;font-family:sans-serif;font-variant-ligatures:normal;font-variant-position:normal;font-variant-caps:normal;font-variant-numeric:normal;font-variant-alternates:normal;font-variant-east-asian:normal;font-feature-settings:normal;font-variation-settings:normal;text-indent:0;text-align:start;text-decoration:none;text-decoration-line:none;text-decoration-style:solid;text-decoration-color:#000000;letter-spacing:normal;word-spacing:normal;text-transform:none;writing-mode:lr-tb;direction:ltr;text-orientation:mixed;dominant-baseline:auto;baseline-shift:baseline;text-anchor:start;white-space:normal;shape-padding:0;shape-margin:0;inline-size:0;clip-rule:nonzero;display:inline;overflow:visible;visibility:visible;isolation:auto;mix-blend-mode:normal;color-interpolation:sRGB;color-interpolation-filters:linearRGB;solid-color:#000000;solid-opacity:1;vector-effect:none;fill:#000000;fill-opacity:1;fill-rule:nonzero;stroke:none;stroke-width:0.523363px;stroke-linecap:butt;stroke-linejoin:miter;stroke-miterlimit:4;stroke-dasharray:none;stroke-dashoffset:0;stroke-opacity:1;color-rendering:auto;image-rendering:auto;shape-rendering:auto;text-rendering:auto;enable-background:accumulate;stop-color:#000000"
             d="m 161.5091,181.99971 c -0.59076,0.0123 -1.15176,0.24207 -1.49443,0.75336 l -0.004,0.004 c -0.9103,1.40512 -1.21021,2.67323 -1.05899,3.82096 0.15132,1.14773 0.74582,2.15676 1.55681,3.07885 1.62195,1.84419 4.12268,3.38812 5.98899,5.0844 l 0.71867,0.64902 -0.2903,-0.92406 c -0.89669,-2.85505 -1.64222,-6.29017 -1.45662,-8.93602 v -0.003 c 0.0661,-1.27311 -0.9714,-2.41674 -2.14763,-3.04104 -0.58812,-0.31214 -1.22157,-0.4988 -1.81234,-0.48656 z m 4.79202,11.87687 c 0.001,0.004 0.002,0.007 0.002,0.0112 -0.002,-0.002 -0.006,-0.004 -0.008,-0.006 0.002,-0.001 0.004,-0.004 0.006,-0.005 z" />
        </g>
        <g
           id="g5">
          <g
             id="g4">
            <path
               id="path984-3"
               style="color:#000000;font-style:normal;font-variant:normal;font-weight:normal;font-stretch:normal;font-size:medium;line-height:normal;font-family:sans-serif;font-variant-ligatures:normal;font-variant-position:normal;font-variant-caps:normal;font-variant-numeric:normal;font-variant-alternates:normal;font-variant-east-asian:normal;font-feature-settings:normal;font-variation-settings:normal;text-indent:0;text-align:start;text-decoration:none;text-decoration-line:none;text-decoration-style:solid;text-decoration-color:#000000;letter-spacing:normal;word-spacing:normal;text-transform:none;writing-mode:lr-tb;direction:ltr;text-orientation:mixed;dominant-baseline:auto;baseline-shift:baseline;text-anchor:start;white-space:normal;shape-padding:0;shape-margin:0;inline-size:0;clip-rule:nonzero;display:inline;overflow:visible;visibility:visible;isolation:auto;mix-blend-mode:normal;color-interpolation:sRGB;color-interpolation-filters:linearRGB;solid-color:#000000;solid-opacity:1;vector-effect:none;fill:#544f48;fill-opacity:1;fill-rule:nonzero;stroke:none;stroke-width:0.617658px;stroke-linecap:butt;stroke-linejoin:miter;stroke-miterlimit:4;stroke-dasharray:none;stroke-dashoffset:0;stroke-opacity:1;color-rendering:auto;image-rendering:auto;shape-rendering:auto;text-rendering:auto;enable-background:accumulate;stop-color:#000000"
               d="m 181.17823,88 c -3.2368,0 -0.11931,8.91939 -13.64267,18.95333 -7.15358,5.30775 -16.50301,9.56587 -26.29464,11.84073 -9.79165,2.27487 -20.02215,2.56635 -28.93453,-0.0225 -16.557042,-4.80926 -16.221332,-17.45869 -20.337692,-17.45869 -3.92597,0 -3.71467,15.4964 -4.08383,22.71608 -0.18987,3.71332 -1.07511,7.00107 -1.65592,9.21411 -0.28981,1.10426 -0.98171,2.00408 -1.26026,2.52241 -0.47617,0.88608 -1.50404,10.55195 -2.44096,25.73935 0.51875,1.26037 1.75668,1.73383 2.58588,2.24229 l 0.001,-0.002 c 23.241132,14.67791 40.871152,18.90557 54.612182,17.60579 5.90443,-0.55849 33.03342,-5.70968 41.1818,-36.11982 4.42114,-16.49973 5.04383,-57.23101 0.26964,-57.23101 z"
               sodipodi:nodetypes="ssscsssscccsss" />
            <path
               id="path944-5"
               style="color:#000000;font-style:normal;font-variant:normal;font-weight:normal;font-stretch:normal;font-size:medium;line-height:normal;font-family:sans-serif;font-variant-ligatures:normal;font-variant-position:normal;font-variant-caps:normal;font-variant-numeric:normal;font-variant-alternates:normal;font-variant-east-asian:normal;font-feature-settings:normal;font-variation-settings:normal;text-indent:0;text-align:start;text-decoration:none;text-decoration-line:none;text-decoration-style:solid;text-decoration-color:#000000;letter-spacing:normal;word-spacing:normal;text-transform:none;writing-mode:lr-tb;direction:ltr;text-orientation:mixed;dominant-baseline:auto;baseline-shift:baseline;text-anchor:start;white-space:normal;shape-padding:0;shape-margin:0;inline-size:0;clip-rule:nonzero;display:inline;overflow:visible;visibility:visible;isolation:auto;mix-blend-mode:normal;color-interpolation:sRGB;color-interpolation-filters:linearRGB;solid-color:#000000;solid-opacity:1;vector-effect:none;fill:#333333;fill-opacity:1;fill-rule:nonzero;stroke:none;stroke-width:0.616894px;stroke-linecap:butt;stroke-linejoin:miter;stroke-miterlimit:4;stroke-dasharray:none;stroke-dashoffset:0;stroke-opacity:1;color-rendering:auto;image-rendering:auto;shape-rendering:auto;text-rendering:auto;enable-background:accumulate;stop-color:#000000"
               d="m 71.200658,126.65652 c -2.2226,-0.014 -4.40837,0.56102 -6.43646,1.87448 l -0.009,0.004 -0.0142,0.009 c -3.53117,2.80201 -5.1247,6.69249 -5.23478,10.82297 -0.11008,4.13047 1.24751,8.50718 3.59279,12.37771 4.69056,7.74106 14.28067,12.80543 22.36196,10.92818 4.25092,-0.98747 7.44731,-5.4433 8.0244,-10.34493 0.30026,-4.42257 -1.45076,-9.38239 -4.34397,-13.7629 -2.89328,-4.38049 -6.93865,-8.18404 -11.28604,-10.25806 -2.17381,-1.03701 -4.43197,-1.63688 -6.65456,-1.65078 z"
               sodipodi:nodetypes="ccccssascccc" />
          </g>
          <g
             id="g3">
            <g
               id="g2">
              <rect
                 style="display:inline;fill:#9e5f1b;fill-opacity:1;stroke-width:3.35027;stroke-linecap:round;stroke-linejoin:round;stroke-dasharray:none;paint-order:stroke markers fill"
                 id="rect17"
                 width="26.168139"
                 height="3.6635392"
                 x="217.47069"
                 y="14.198533"
                 transform="matrix(0.70710601,0.70710755,-0.70710601,0.70710755,0,0)" />
              <g
                 id="g1">
                <path
                   id="path1368-6"
                   style="color:#000000;font-style:normal;font-variant:normal;font-weight:normal;font-stretch:normal;font-size:medium;line-height:normal;font-family:sans-serif;font-variant-ligatures:normal;font-variant-position:normal;font-variant-caps:normal;font-variant-numeric:normal;font-variant-alternates:normal;font-variant-east-asian:normal;font-feature-settings:normal;font-variation-settings:normal;text-indent:0;text-align:start;text-decoration:none;text-decoration-line:none;text-decoration-style:solid;text-decoration-color:#000000;letter-spacing:normal;word-spacing:normal;text-transform:none;writing-mode:lr-tb;direction:ltr;text-orientation:mixed;dominant-baseline:auto;baseline-shift:baseline;text-anchor:start;white-space:normal;shape-padding:0;shape-margin:0;inline-size:0;clip-rule:nonzero;display:inline;overflow:visible;visibility:visible;isolation:auto;mix-blend-mode:normal;color-interpolation:sRGB;color-interpolation-filters:linearRGB;solid-color:#000000;solid-opacity:1;vector-effect:none;fill:#cccccc;fill-opacity:1;fill-rule:nonzero;stroke:none;stroke-width:0.523363px;stroke-linecap:butt;stroke-linejoin:miter;stroke-miterlimit:4;stroke-dasharray:none;stroke-dashoffset:0;stroke-opacity:1;color-rendering:auto;image-rendering:auto;shape-rendering:auto;text-rendering:auto;enable-background:accumulate;stop-color:#000000"
                   d="m 161.5091,181.99971 c -0.59076,0.0123 -1.15176,0.24207 -1.49443,0.75336 l -0.004,0.004 c -0.9103,1.40512 -1.21021,2.67323 -1.05899,3.82096 0.15132,1.14773 0.74582,2.15676 1.55681,3.07885 1.62195,1.84419 4.12268,3.38812 5.98899,5.0844 l 0.71867,0.64902 -0.2903,-0.92406 c -0.89669,-2.85505 -1.64222,-6.29017 -1.45662,-8.93602 v -0.003 c 0.0661,-1.27311 -0.9714,-2.41674 -2.14763,-3.04104 -0.58812,-0.31214 -1.22157,-0.4988 -1.81234,-0.48656 z m 4.79202,11.87687 c 0.001,0.004 0.002,0.007 0.002,0.0112 -0.002,-0.002 -0.006,-0.004 -0.008,-0.006 0.002,-0.001 0.004,-0.004 0.006,-0.005 z" />
                <path
                   id="path12"
                   style="color:#000000;font-style:normal;font-variant:normal;font-weight:normal;font-stretch:normal;font-size:medium;line-height:normal;font-family:sans-serif;font-variant-ligatures:normal;font-variant-position:normal;font-variant-caps:normal;font-variant-numeric:normal;font-variant-alternates:normal;font-variant-east-asian:normal;font-feature-settings:normal;font-variation-settings:normal;text-indent:0;text-align:start;text-decoration:none;text-decoration-line:none;text-decoration-style:solid;text-decoration-color:#000000;letter-spacing:normal;word-spacing:normal;text-transform:none;writing-mode:lr-tb;direction:ltr;text-orientation:mixed;dominant-baseline:auto;baseline-shift:baseline;text-anchor:start;white-space:normal;shape-padding:0;shape-margin:0;inline-size:0;clip-rule:nonzero;display:inline;overflow:visible;visibility:visible;isolation:auto;mix-blend-mode:normal;color-interpolation:sRGB;color-interpolation-filters:linearRGB;solid-color:#000000;solid-opacity:1;vector-effect:none;fill:#fb3d2b;fill-opacity:1;fill-rule:nonzero;stroke:none;stroke-width:0.523363px;stroke-linecap:butt;stroke-linejoin:miter;stroke-miterlimit:4;stroke-dasharray:none;stroke-dashoffset:0;stroke-opacity:1;color-rendering:auto;image-rendering:auto;shape-rendering:auto;text-rendering:auto;enable-background:accumulate;stop-color:#000000"
                   d="m 165.72614,189.53346 a 3.9935971,3.9935971 0 0 0 -3.04205,2.1415 c 1.27684,1.03472 2.66358,2.02207 3.81278,3.06658 l 0.7186,0.64909 -0.2903,-0.92406 c -0.48587,-1.54699 -0.92624,-3.26339 -1.19903,-4.93311 z m 0.57447,4.34433 c 0.001,0.003 0.002,0.007 0.004,0.0103 -0.002,-0.002 -0.006,-0.004 -0.008,-0.006 0.002,-0.001 0.003,-0.003 0.004,-0.004 z" />
              </g>
            </g>
            <path
               id="path1145-7"
               style="color:#000000;font-style:normal;font-variant:normal;font-weight:normal;font-stretch:normal;font-size:medium;line-height:normal;font-family:sans-serif;font-variant-ligatures:normal;font-variant-position:normal;font-variant-caps:normal;font-variant-numeric:normal;font-variant-alternates:normal;font-variant-east-asian:normal;font-feature-settings:normal;font-variation-settings:normal;text-indent:0;text-align:start;text-decoration:none;text-decoration-line:none;text-decoration-style:solid;text-decoration-color:#000000;letter-spacing:normal;word-spacing:normal;text-transform:none;writing-mode:lr-tb;direction:ltr;text-orientation:mixed;dominant-baseline:auto;baseline-shift:baseline;text-anchor:start;white-space:normal;shape-padding:0;shape-margin:0;inline-size:0;clip-rule:nonzero;display:inline;overflow:visible;visibility:visible;isolation:auto;mix-blend-mode:normal;color-interpolation:sRGB;color-interpolation-filters:linearRGB;solid-color:#000000;solid-opacity:1;vector-effect:none;fill:#000000;fill-opacity:1;fill-rule:nonzero;stroke:none;stroke-width:0.617998px;stroke-linecap:butt;stroke-linejoin:miter;stroke-miterlimit:4;stroke-dasharray:none;stroke-dashoffset:0;stroke-opacity:1;color-rendering:auto;image-rendering:auto;shape-rendering:auto;text-rendering:auto;enable-background:accumulate;stop-color:#000000"
               d="m 152.02518,157.71983 c -0.16991,0 -0.30972,0.13975 -0.30972,0.30973 0,0.11822 0.0696,0.21801 0.16754,0.26985 l -0.002,0.004 c 0.50346,0.2452 0.92476,0.46192 1.29921,0.66443 -5.92429,4.41638 -15.86408,5.48756 -26.1578,5.67625 -0.16991,0 -0.3087,0.13873 -0.3087,0.3087 0,0.15252 0.11394,0.27393 0.25964,0.29848 l -10e-4,0.009 c 9.52468,1.79759 19.12126,2.75098 28.22977,-4.4077 l 0.20036,-0.15741 c 0.10938,0.20934 0.16872,0.42747 0.21465,0.7002 0.0597,0.3554 0.093,0.7968 0.18713,1.35951 l 0.004,-0.001 c 0.0139,0.15757 0.14263,0.28315 0.30359,0.28315 0.16992,0 0.3087,-0.13874 0.3087,-0.3087 0,-0.0258 -0.01,-0.0486 -0.0158,-0.0726 l 0.006,-0.001 c -0.089,-0.53313 -0.11473,-0.9647 -0.18198,-1.36361 -0.0671,-0.39891 -0.17921,-0.77472 -0.42932,-1.13668 -0.50027,-0.72392 -1.47895,-1.35129 -3.64921,-2.40829 l -0.001,0.001 c -0.0382,-0.017 -0.0793,-0.0276 -0.12363,-0.0276 z" />
          </g>
          <g
             id="g15"
             transform="matrix(1.9780661,0,0,1.9780661,58.453008,66.992846)"
             style="display:inline">
            <g
               id="g14">
              <circle
                 style="display:inline;fill:#ffffff;stroke-width:0.0310876"
                 id="path1077-3"
                 cx="22.092709"
                 cy="32.940624"
                 r="6.2177081" />
              <circle
                 style="display:inline;fill:#000000;stroke-width:0.0370406"
                 id="path1079-5"
                 cx="23.283333"
                 cy="35.189583"
                 r="1.8520833" />
            </g>
            <g
               id="g13">
              <circle
                 style="display:inline;fill:#ffffff;stroke-width:0.0308672"
                 id="path1075-6"
                 cx="38.364586"
                 cy="30.956249"
                 r="9.260417" />
              <circle
                 style="display:inline;fill:#000000;stroke-width:0.0476245"
                 id="path1081-2"
                 cx="41.010418"
                 cy="34.395832"
                 r="2.3812499" />
            </g>
          </g>
        </g>
      </g>
    </g>
    <g
       inkscape:groupmode="layer"
       id="layer3"
       inkscape:label="Highlights"
       style="display:inline;enable-background:new">
      <path
         id="path7"
         style="display:inline;opacity:0.1;fill:#ffffff;stroke-width:6.64319;stroke-linecap:round;stroke-linejoin:round;paint-order:stroke markers fill;enable-background:new"
         d="m 40,128 v 93.37109 C 40,231.69112 48.30888,240 58.628906,240 H 128 V 128 Z"
         sodipodi:nodetypes="cssccc" />
      <path
         id="path1"
         style="display:inline;opacity:0.15;fill:#ffffff;stroke-width:6.64319;stroke-linecap:round;stroke-linejoin:round;paint-order:stroke markers fill;enable-background:new"
         d="m 128,128 v 112 h 69.37109 c 0.64501,0 1.28241,-0.0323 1.91016,-0.0957 C 208.69753,238.95366 216,231.04612 216,221.37109 V 128 Z"
         sodipodi:nodetypes="ccscscc" />
      <path
         id="path9"
         style="display:inline;opacity:0.1;fill:#ffffff;stroke-width:6.64319;stroke-linecap:round;stroke-linejoin:round;paint-order:stroke markers fill;enable-background:new"
         d="m 128,16 v 112 h 88 c 0,-179.71615 -0.006,-99.716203 -0.006,-48 l -64,-64 z"
         sodipodi:nodetypes="cccccc" />
      <path
         id="path2"
         style="display:inline;opacity:0.6;fill:#ffffff;stroke-width:6.64319;stroke-linecap:round;stroke-linejoin:round;paint-order:stroke markers fill;enable-background:new"
         d="M 58.628906,16 C 48.30888,16 40,24.30888 40,34.628906 v 2 C 40,26.30888 48.30888,18 58.628906,18 h 93.365234 l 62,62 h 2 l -64,-64 z" />
      <path
         id="path8"
         style="display:inline;opacity:0.6;fill:#ffffff;stroke-width:6.64319;stroke-linecap:round;stroke-linejoin:round;paint-order:stroke markers fill;enable-background:new"
         d="m 216,180 -60,60 h 41.37109 C 207.69113,240 216,231.69113 216,221.37109 Z"
         sodipodi:nodetypes="ccssc" />
    </g>
    <g
       inkscape:groupmode="layer"
       id="layer6"
       inkscape:label="Folded corner"
       style="display:inline;enable-background:new">
      <path
         id="path6"
         style="display:inline;opacity:0.4;fill:#000000;stroke-width:12.6323;stroke-linecap:round;stroke-linejoin:round;paint-order:stroke markers fill;enable-background:new"
         inkscape:transform-center-y="-10.667154"
         d="M 152,20 V 65.37109 C 152,75.69097 160.30706,84 170.62695,84 H 216 v -4 h -3.99023 v 0.01 C 192.0061,60.00789 172.00326,40.00325 152,20 Z"
         sodipodi:nodetypes="cssccccc" />
      <path
         id="path5"
         style="display:inline;fill:#ececec;stroke-width:12.6323;stroke-linecap:round;stroke-linejoin:round;paint-order:stroke markers fill;enable-background:new"
         inkscape:transform-center-y="-10.667154"
         d="M 152,16 V 61.37109 C 152,71.69098 160.30706,80 170.62696,80 H 216 C 194.66606,58.66856 173.33336,37.33335 152,16 Z"
         sodipodi:nodetypes="csscc" />
    </g>
  </g>
</svg>
