<?xml version="1.0" encoding="UTF-8" standalone="no"?>
<svg
   width="256"
   height="256"
   id="svg11300"
   sodipodi:version="0.32"
   sodipodi:docname="model-obj.svg"
   version="1.0"
   style="display:inline;enable-background:new"
   inkscape:version="1.4.3 (0d15f75042, 2025-12-25)"
   xmlns:inkscape="http://www.inkscape.org/namespaces/inkscape"
   xmlns:sodipodi="http://sodipodi.sourceforge.net/DTD/sodipodi-0.dtd"
   xmlns="http://www.w3.org/2000/svg"
   xmlns:svg="http://www.w3.org/2000/svg">
  <sodipodi:namedview
     stroke="#ef2929"
     fill="#f57900"
     id="base"
     pagecolor="#cccccc"
     bordercolor="#666666"
     borderopacity="1"
     inkscape:pageopacity="0"
     inkscape:pageshadow="2"
     inkscape:zoom="0.9863965"
     inkscape:cx="12.165493"
     inkscape:cy="46.127495"
     inkscape:current-layer="layer1"
     showgrid="false"
     inkscape:grid-bbox="true"
     inkscape:document-units="px"
     inkscape:showpageshadow="true"
     inkscape:window-width="1920"
     inkscape:window-height="1011"
     inkscape:window-x="0"
     inkscape:window-y="0"
     width="400px"
     height="300px"
     inkscape:snap-nodes="true"
     inkscape:snap-bbox="true"
     gridtolerance="10000"
     inkscape:object-nodes="true"
     inkscape:snap-grids="true"
     showguides="true"
     inkscape:guide-bbox="true"
     inkscape:window-maximized="1"
     inkscape:bbox-paths="true"
     inkscape:snap-bbox-midpoints="true"
     inkscape:snap-global="true"
     inkscape:object-paths="true"
     inkscape:snap-intersection-paths="true"
     inkscape:snap-smooth-nodes="true"
     inkscape:pagecheckerboard="false"
     showborder="true"
     inkscape:document-rotation="0"
     objecttolerance="20"
     inkscape:deskcolor="#d1d1d1" />
  <defs
     id="defs3" />
  <g
     style="display:inline"
     inkscape:groupmode="layer"
     inkscape:label="Icon"
     id="layer1">
    <g
       inkscape:groupmode="layer"
       id="layer4-6"
       inkscape:label="Shadow"
       style="display:inline;opacity:0.4;enable-background:new">
      <path
         id="rect3"
         style="display:inline;opacity:0.4;fill:#000000;stroke-width:6.64319;stroke-linecap:round;stroke-linejoin:round;paint-order:stroke markers fill;enable-background:new"
         d="m 40,128 v 97.37109 C 40,235.69114 48.308858,244 58.628906,244 H 197.37109 C 207.69114,244 216,235.69114 216,225.37109 V 128 Z" />
    </g>
    <g
       inkscape:groupmode="layer"
       id="layer2-7"
       inkscape:label="Background"
       style="display:inline;enable-background:new">
      <path
         id="rect2"
         style="display:inline;fill:#f9f9f9;stroke-width:6.64319;stroke-linecap:round;stroke-linejoin:round;paint-order:stroke markers fill;enable-background:new"
         d="M 58.628906,16 C 48.308869,16 40,24.308869 40,34.628906 V 221.37109 C 40,231.69113 48.308869,240 58.628906,240 H 197.37109 C 207.69113,240 216,231.69113 216,221.37109 V 34.628906 C 216,24.309027 207.69294,16 197.37305,16 Z"
         sodipodi:nodetypes="sssssssss" />
    </g>
    <g
       inkscape:groupmode="layer"
       id="layer3"
       inkscape:label="Graphic"
       style="display:inline;enable-background:new">
      <path
         id="path127"
         style="display:inline;enable-background:new;baseline-shift:baseline;overflow:visible;opacity:0.4;vector-effect:none;fill:#000000;stroke-linecap:round;stroke-linejoin:round;paint-order:stroke fill markers;stop-color:#000000"
         d="M 128 152.5 C 115.86158 152.5 104.8421 154.91 96.513672 159.07422 C 93.456549 160.60278 90.68786 162.41924 88.408203 164.5 L 82 164.5 L 82 177.5 C 82 185.46075 88.185252 191.76352 96.513672 195.92773 C 104.8421 200.09194 115.86158 202.5 128 202.5 C 140.13842 202.5 151.15985 200.09194 159.48828 195.92773 C 167.81671 191.76352 174 185.46075 174 177.5 L 174 164.5 L 167.59375 164.5 C 165.31443 162.41924 162.54541 160.60278 159.48828 159.07422 C 151.15985 154.91 140.13842 152.5 128 152.5 z M 128 160.5 C 139.05754 160.5 149.03759 162.79223 155.91016 166.22852 C 162.78276 169.66481 166 173.86277 166 177.5 C 166 181.13723 162.78276 185.33519 155.91016 188.77148 C 149.03758 192.20777 139.05754 194.5 128 194.5 C 116.94246 194.5 106.96243 192.20777 100.08984 188.77148 C 93.217268 185.33519 90 181.13723 90 177.5 C 90 173.86277 93.217268 169.66481 100.08984 166.22852 C 106.96243 162.79223 116.94246 160.5 128 160.5 z "
         inkscape:label="Shadow" />
      <g
         id="g121"
         style="display:inline;fill:#0056ff;fill-opacity:1;enable-background:new"
         transform="translate(-235.91797,-152.09766)"
         inkscape:label="Colour">
        <path
           id="path118"
           style="baseline-shift:baseline;display:inline;overflow:visible;opacity:0.2;vector-effect:none;fill:#0056ff;fill-opacity:1;stroke-linecap:round;stroke-linejoin:round;paint-order:markers fill stroke;enable-background:new;stop-color:#000000"
           d="m 363.91797,217.59766 c -11.05754,0 -21.03757,2.29222 -27.91016,5.72851 -6.87258,3.43629 -10.08984,7.63426 -10.08984,11.27149 0,3.63723 3.21726,7.83519 10.08984,11.27148 6.87259,3.43629 16.85262,5.72852 27.91016,5.72852 11.05754,0 21.03757,-2.29223 27.91015,-5.72852 6.8726,-3.43629 10.08985,-7.63425 10.08985,-11.27148 0,-3.63723 -3.21723,-7.8352 -10.08985,-11.27149 -6.87256,-3.43629 -16.85261,-5.72851 -27.91015,-5.72851 z m -46,30 v 13 h 8 v 13 h -8 v 13 h 8 v 13 h -8 v 13 h 8 v -1.34961 c 1.93347,-1.52528 4.135,-2.88783 6.51172,-4.07617 8.32842,-4.16423 19.34986,-6.57422 31.48828,-6.57422 12.13842,0 23.15789,2.40999 31.48633,6.57422 2.37694,1.18848 4.57982,2.5507 6.51367,4.07617 v 1.34961 h 8 v -13 h -8 v -13 h 8 v -13 h -8 v -13 h 8 v -13 h -8 v 1.35156 c -1.93385,1.5257 -4.13673,2.8877 -6.51367,4.07617 -8.32842,4.16422 -19.34791,6.57227 -31.48633,6.57227 -12.13842,0 -23.15986,-2.40805 -31.48828,-6.57227 -2.37672,-1.18835 -4.57825,-2.55066 -6.51172,-4.07617 v -1.35156 z m 46,61 c -11.05754,0 -21.03757,2.29222 -27.91016,5.72851 -6.87258,3.43629 -10.08984,7.63426 -10.08984,11.27149 0,3.63723 3.21726,7.83519 10.08984,11.27148 6.87259,3.43629 16.85262,5.72852 27.91016,5.72852 11.05754,0 21.03759,-2.29223 27.91015,-5.72852 6.87262,-3.43629 10.08985,-7.63425 10.08985,-11.27148 0,-3.63723 -3.21725,-7.8352 -10.08985,-11.27149 -6.87257,-3.43629 -16.85261,-5.72851 -27.91015,-5.72851 z" />
        <g
           id="g119"
           style="fill:#0056ff;fill-opacity:1">
          <path
             id="ellipse63"
             style="baseline-shift:baseline;display:inline;overflow:visible;opacity:1;vector-effect:none;fill:#0056ff;fill-opacity:1;stroke-linecap:round;stroke-linejoin:round;paint-order:stroke fill markers;enable-background:new;stop-color:#000000;stop-opacity:1"
             d="m 363.91797,209.59766 c -12.13842,0 -23.1579,2.41 -31.48633,6.57422 -8.32842,4.16422 -14.51367,10.46503 -14.51367,18.42578 0,7.96075 6.18525,14.26352 14.51367,18.42773 8.32843,4.16421 19.34791,6.57227 31.48633,6.57227 12.13842,0 23.15985,-2.40806 31.48828,-6.57227 8.32843,-4.16421 14.51172,-10.46698 14.51172,-18.42773 0,-7.96075 -6.18329,-14.26156 -14.51172,-18.42578 -8.32843,-4.16421 -19.34986,-6.57422 -31.48828,-6.57422 z m 0,8 c 11.05754,0 21.03758,2.29222 27.91015,5.72851 6.8726,3.43629 10.08985,7.63426 10.08985,11.27149 0,3.63723 -3.21725,7.83519 -10.08985,11.27148 -6.87258,3.43629 -16.85261,5.72852 -27.91015,5.72852 -11.05754,0 -21.03757,-2.29223 -27.91016,-5.72852 -6.87258,-3.43629 -10.08984,-7.63425 -10.08984,-11.27148 0,-3.63723 3.21726,-7.8352 10.08984,-11.27149 6.87259,-3.43629 16.85262,-5.72851 27.91016,-5.72851 z m 0,83 c -12.13842,0 -23.1579,2.41 -31.48633,6.57422 -8.32842,4.16422 -14.51367,10.46503 -14.51367,18.42578 0,7.96075 6.18525,14.26352 14.51367,18.42773 8.32843,4.16421 19.34791,6.57227 31.48633,6.57227 12.13842,0 23.15985,-2.40806 31.48828,-6.57227 8.32843,-4.16421 14.51172,-10.46698 14.51172,-18.42773 0,-7.96075 -6.18329,-14.26156 -14.51172,-18.42578 -8.32843,-4.16422 -19.34986,-6.57422 -31.48828,-6.57422 z m 0,8 c 11.05754,0 21.03758,2.29222 27.91015,5.72851 6.8726,3.43629 10.08985,7.63426 10.08985,11.27149 0,3.63723 -3.21725,7.83519 -10.08985,11.27148 -6.87258,3.43629 -16.85261,5.72852 -27.91015,5.72852 -11.05754,0 -21.03757,-2.29223 -27.91016,-5.72852 -6.87258,-3.43629 -10.08984,-7.63425 -10.08984,-11.27148 0,-3.63723 3.21726,-7.8352 10.08984,-11.27149 6.87259,-3.43629 16.85262,-5.72851 27.91016,-5.72851 z" />
          <path
             id="rect80"
             style="opacity:1;fill:#0056ff;fill-opacity:1;stroke:none;stroke-width:6;stroke-linecap:round;stroke-linejoin:round;stroke-dasharray:none;paint-order:stroke fill markers"
             d="m 317.91797,234.59766 v 13 h 8 v -13 z m 84,0 v 13 h 8 v -13 z m -84,26 v 13 h 8 v -13 z m 84,0 v 13 h 8 v -13 z m -84,26 v 13 h 8 v -13 z m 84,0 v 13 h 8 v -13 z m -84,26 v 13 h 8 v -13 z m 84,0 v 13 h 8 v -13 z" />
        </g>
      </g>
      <path
         id="path129"
         style="baseline-shift:baseline;display:inline;overflow:visible;opacity:0.1;vector-effect:none;fill:#ffffff;fill-opacity:1;stroke-linecap:round;stroke-linejoin:round;paint-order:stroke fill markers;enable-background:new;stop-color:#000000"
         d="m 128,57.5 c -12.13842,0 -23.1579,2.409999 -31.486328,6.574219 C 88.185252,68.238439 82,74.53925 82,82.5 c 0,0.336306 0.01143,0.669648 0.0332,1 C 82.526815,76.010696 88.53709,70.062519 96.513672,66.074219 104.8421,61.909999 115.86158,59.5 128,59.5 c 12.13842,0 23.15985,2.410009 31.48828,6.574219 7.97659,3.9883 13.98506,9.936477 14.47852,17.425781 C 173.98856,83.169648 174,82.836306 174,82.5 174,74.53925 167.81671,68.238439 159.48828,64.074219 151.15985,59.910009 140.13842,57.5 128,57.5 Z"
         sodipodi:nodetypes="ssscssscsss"
         inkscape:label="Highlights" />
    </g>
    <g
       inkscape:groupmode="layer"
       id="layer3-3"
       inkscape:label="Highlights"
       style="display:inline;enable-background:new">
      <path
         id="path3"
         style="display:inline;opacity:0.2;fill:#ffffff;stroke-width:6.64319;stroke-linecap:round;stroke-linejoin:round;paint-order:stroke markers fill;enable-background:new"
         d="m 40,128 v 93.37109 C 40,231.69113 48.308869,240 58.628906,240 H 197.37109 C 207.69113,240 216,231.69113 216,221.37109 V 128 Z" />
      <path
         id="path8"
         style="display:inline;opacity:0.6;fill:#ffffff;stroke-width:6.64319;stroke-linecap:round;stroke-linejoin:round;paint-order:stroke markers fill;enable-background:new"
         d="m 216,180 -60,60 h 41.37109 C 207.69113,240 216,231.69113 216,221.37109 Z" />
      <path
         id="path1"
         style="display:inline;opacity:0.6;fill:#ffffff;stroke-width:6.64319;stroke-linecap:round;stroke-linejoin:round;paint-order:stroke markers fill;enable-background:new"
         d="M 58.628906,16 C 48.308891,16 40,24.308891 40,34.628906 v 2 C 40,26.308891 48.308891,18 58.628906,18 H 197.37109 C 207.69111,18 216,26.308891 216,36.628906 v -2 C 216,24.308891 207.69111,16 197.37109,16 Z"
         sodipodi:nodetypes="sscsscsss" />
      <path
         id="path2"
         style="display:inline;opacity:0.1;fill:#ffffff;stroke-width:6.64319;stroke-linecap:round;stroke-linejoin:round;paint-order:stroke markers fill;enable-background:new"
         d="m 128,16 v 224 h 69.37109 C 207.69112,240 216,231.69112 216,221.37109 V 34.628906 C 216,24.309038 207.69293,16 197.37305,16 Z" />
    </g>
  </g>
</svg>
