<?xml version="1.0" encoding="UTF-8" standalone="no"?>
<svg
   width="256"
   height="256"
   id="svg11300"
   sodipodi:version="0.32"
   sodipodi:docname="org.wireshark.Wireshark-mimetype.svg"
   version="1.0"
   style="display:inline;enable-background:new"
   inkscape:version="1.3 (0e150ed6c4, 2023-07-21)"
   xmlns:inkscape="http://www.inkscape.org/namespaces/inkscape"
   xmlns:sodipodi="http://sodipodi.sourceforge.net/DTD/sodipodi-0.dtd"
   xmlns="http://www.w3.org/2000/svg"
   xmlns:svg="http://www.w3.org/2000/svg">
  <sodipodi:namedview
     stroke="#ef2929"
     fill="#f57900"
     id="base"
     pagecolor="#cccccc"
     bordercolor="#666666"
     borderopacity="1"
     inkscape:pageopacity="0"
     inkscape:pageshadow="2"
     inkscape:zoom="1.5997757"
     inkscape:cx="101.57674"
     inkscape:cy="169.08621"
     inkscape:current-layer="layer3-3"
     showgrid="false"
     inkscape:grid-bbox="true"
     inkscape:document-units="px"
     inkscape:showpageshadow="true"
     inkscape:window-width="1920"
     inkscape:window-height="1011"
     inkscape:window-x="1920"
     inkscape:window-y="32"
     width="400px"
     height="300px"
     inkscape:snap-nodes="true"
     inkscape:snap-bbox="true"
     gridtolerance="10000"
     inkscape:object-nodes="true"
     inkscape:snap-grids="true"
     showguides="false"
     inkscape:guide-bbox="true"
     inkscape:window-maximized="1"
     inkscape:bbox-paths="true"
     inkscape:snap-bbox-midpoints="true"
     inkscape:snap-global="false"
     inkscape:object-paths="true"
     inkscape:snap-intersection-paths="true"
     inkscape:snap-smooth-nodes="true"
     inkscape:pagecheckerboard="false"
     showborder="true"
     inkscape:document-rotation="0"
     inkscape:deskcolor="#d1d1d1">
    <inkscape:grid
       spacingy="1"
       spacingx="1"
       id="grid5883"
       type="xygrid"
       enabled="true"
       visible="false"
       empspacing="4"
       snapvisiblegridlinesonly="true"
       originx="0"
       originy="0"
       units="px" />
    <inkscape:grid
       type="xygrid"
       id="grid11592"
       empspacing="2"
       visible="false"
       enabled="false"
       spacingx="0.5"
       spacingy="0.5"
       color="#ff0000"
       opacity="0.1254902"
       empcolor="#ff0000"
       empopacity="0.25098039"
       snapvisiblegridlinesonly="true"
       originx="0"
       originy="0"
       units="px" />
    <sodipodi:guide
       position="394.16276,545.36183"
       orientation="0,-1"
       id="guide864"
       inkscape:locked="false" />
  </sodipodi:namedview>
  <defs
     id="defs3" />
  <g
     style="display:inline"
     inkscape:groupmode="layer"
     inkscape:label="Icon"
     id="layer1">
    <g
       inkscape:groupmode="layer"
       id="layer4-6"
       inkscape:label="Shadow"
       style="display:inline;enable-background:new;opacity:0.4">
      <path
         id="rect3"
         style="display:inline;opacity:0.4;fill:#000000;stroke-width:6.64319;stroke-linecap:round;stroke-linejoin:round;paint-order:stroke markers fill;enable-background:new"
         d="m 40,128 v 97.37109 C 40,235.69114 48.308858,244 58.628906,244 H 197.37109 C 207.69114,244 216,235.69114 216,225.37109 V 128 Z" />
    </g>
    <g
       inkscape:groupmode="layer"
       id="layer2-7"
       inkscape:label="Background"
       style="display:inline;enable-background:new">
      <path
         id="rect2"
         style="display:inline;fill:#f9f9f9;stroke-width:6.64319;stroke-linecap:round;stroke-linejoin:round;paint-order:stroke markers fill;enable-background:new"
         d="M 58.628906,16 C 48.308869,16 40,24.308869 40,34.628906 V 221.37109 C 40,231.69113 48.308869,240 58.628906,240 H 197.37109 C 207.69113,240 216,231.69113 216,221.37109 V 34.628906 C 216,24.309027 207.69294,16 197.37305,16 Z"
         sodipodi:nodetypes="sssssssss" />
    </g>
    <g
       inkscape:groupmode="layer"
       id="layer8-5"
       inkscape:label="Graphic"
       style="display:inline;enable-background:new">
      <g
         id="g21">
        <path
           id="path31282"
           style="font-size:50px;line-height:0.95;font-family:monospace;-inkscape-font-specification:monospace;white-space:pre;display:inline;opacity:0.25;fill:#808080;enable-background:new"
           d="M 82.833984 33.841797 C 78.944019 33.841797 76.007154 35.436855 74.021484 38.626953 C 72.035808 41.817051 71.041016 46.528007 71.041016 52.761719 C 71.041016 58.979155 72.035808 63.682949 74.021484 66.873047 C 76.007154 70.063145 78.944019 71.658203 82.833984 71.658203 C 86.723956 71.658203 89.660815 70.063145 91.646484 66.873047 C 93.648434 63.682949 94.650391 58.979155 94.650391 52.761719 C 94.650391 46.528007 93.648434 41.817051 91.646484 38.626953 C 89.660815 35.436855 86.723956 33.841797 82.833984 33.841797 z M 143.03906 33.841797 C 139.14911 33.841797 136.21224 35.436855 134.22656 38.626953 C 132.24088 41.817051 131.24609 46.528007 131.24609 52.761719 C 131.24609 58.979155 132.24088 63.682949 134.22656 66.873047 C 136.21224 70.063145 139.14911 71.658203 143.03906 71.658203 C 146.92904 71.658203 149.86784 70.063145 151.85352 66.873047 C 153.85545 63.682949 154.85547 58.979155 154.85547 52.761719 C 154.85547 46.528007 153.85545 41.817051 151.85352 38.626953 C 149.86784 35.436855 146.92904 33.841797 143.03906 33.841797 z M 173.14062 33.841797 C 169.25067 33.841797 166.31382 35.436855 164.32812 38.626953 C 162.34248 41.817051 161.34961 46.528007 161.34961 52.761719 C 161.34961 58.979155 162.34249 63.682949 164.32812 66.873047 C 166.31381 70.063145 169.25067 71.658203 173.14062 71.658203 C 177.03061 71.658203 179.9694 70.063145 181.95508 66.873047 C 183.95703 63.682949 184.95898 58.979155 184.95898 52.761719 C 184.95898 46.528007 183.95703 41.817051 181.95508 38.626953 C 179.9694 35.436855 177.03062 33.841797 173.14062 33.841797 z M 112.10742 34.5 L 103.90234 36.306641 L 103.90234 40.798828 L 112.1543 38.943359 L 112.1543 66.800781 L 104.49023 66.800781 L 104.49023 70.951172 L 124.60742 70.951172 L 124.60742 66.800781 L 117.03906 66.800781 L 117.03906 34.5 L 112.10742 34.5 z M 82.833984 37.748047 C 85.14518 37.748047 86.86133 38.985032 87.984375 41.458984 C 89.1237 43.932939 89.695313 47.69988 89.695312 52.761719 C 89.695313 57.807281 89.1237 61.567061 87.984375 64.041016 C 86.86133 66.514968 85.14518 67.751953 82.833984 67.751953 C 80.53907 67.751953 78.822912 66.514968 77.683594 64.041016 C 76.560549 61.567061 75.998047 57.807281 75.998047 52.761719 C 75.998047 47.69988 76.560549 43.932939 77.683594 41.458984 C 78.822912 38.985032 80.53907 37.748047 82.833984 37.748047 z M 143.03906 37.748047 C 145.35026 37.748047 147.06836 38.985032 148.19141 41.458984 C 149.33073 43.932939 149.89844 47.69988 149.89844 52.761719 C 149.89844 57.807281 149.33073 61.567061 148.19141 64.041016 C 147.06836 66.514968 145.35026 67.751953 143.03906 67.751953 C 140.74414 67.751953 139.02799 66.514968 137.88867 64.041016 C 136.76562 61.567061 136.20313 57.807281 136.20312 52.761719 C 136.20314 47.69988 136.76562 43.932939 137.88867 41.458984 C 139.02799 38.985032 140.74414 37.748047 143.03906 37.748047 z M 173.14062 37.748047 C 175.45183 37.748047 177.16992 38.985032 178.29297 41.458984 C 179.43229 43.932939 180.00195 47.69988 180.00195 52.761719 C 180.00195 57.807281 179.43229 61.567061 178.29297 64.041016 C 177.16992 66.514968 175.45185 67.751953 173.14062 67.751953 C 170.84573 67.751953 169.12956 66.514968 167.99023 64.041016 C 166.86721 61.567061 166.30469 57.807281 166.30469 52.761719 C 166.30469 47.69988 166.86721 43.932939 167.99023 41.458984 C 169.12956 38.985032 170.84574 37.748047 173.14062 37.748047 z M 82.833984 184.3418 C 78.944019 184.3418 76.007154 185.93687 74.021484 189.12695 C 72.035808 192.31706 71.041016 197.02799 71.041016 203.26172 C 71.041016 209.47915 72.035808 214.18295 74.021484 217.37305 C 76.007154 220.56313 78.944019 222.1582 82.833984 222.1582 C 86.723956 222.1582 89.660815 220.56313 91.646484 217.37305 C 93.648434 214.18295 94.650391 209.47915 94.650391 203.26172 C 94.650391 197.02799 93.648434 192.31706 91.646484 189.12695 C 89.660815 185.93687 86.723956 184.3418 82.833984 184.3418 z M 112.93555 184.3418 C 109.04557 184.3418 106.1087 185.93687 104.12305 189.12695 C 102.13737 192.31706 101.14453 197.02799 101.14453 203.26172 C 101.14453 209.47915 102.13737 214.18295 104.12305 217.37305 C 106.1087 220.56313 109.04557 222.1582 112.93555 222.1582 C 116.8255 222.1582 119.76432 220.56313 121.75 217.37305 C 123.75195 214.18295 124.75391 209.47915 124.75391 203.26172 C 124.75391 197.02799 123.75195 192.31706 121.75 189.12695 C 119.76432 185.93687 116.8255 184.3418 112.93555 184.3418 z M 173.14062 184.3418 C 169.25067 184.3418 166.31382 185.93687 164.32812 189.12695 C 162.34248 192.31706 161.34961 197.02799 161.34961 203.26172 C 161.34961 209.47915 162.34249 214.18295 164.32812 217.37305 C 166.31381 220.56313 169.25067 222.1582 173.14062 222.1582 C 177.03061 222.1582 179.9694 220.56313 181.95508 217.37305 C 183.95703 214.18295 184.95898 209.47915 184.95898 203.26172 C 184.95898 197.02799 183.95703 192.31706 181.95508 189.12695 C 179.9694 185.93687 177.03062 184.3418 173.14062 184.3418 z M 142.20898 185 L 134.00586 186.80664 L 134.00586 191.29883 L 142.25781 189.44336 L 142.25781 217.30078 L 134.5918 217.30078 L 134.5918 221.45117 L 154.70898 221.45117 L 154.70898 217.30078 L 147.14062 217.30078 L 147.14062 185 L 142.20898 185 z M 82.833984 188.24805 C 85.14518 188.24805 86.86133 189.48505 87.984375 191.95898 C 89.1237 194.43294 89.695314 198.19987 89.695312 203.26172 C 89.695313 208.30727 89.1237 212.06706 87.984375 214.54102 C 86.86133 217.01496 85.14518 218.25195 82.833984 218.25195 C 80.53907 218.25195 78.822912 217.01496 77.683594 214.54102 C 76.560549 212.06706 75.998047 208.30727 75.998047 203.26172 C 75.998047 198.19987 76.560549 194.43294 77.683594 191.95898 C 78.822912 189.48505 80.53907 188.24805 82.833984 188.24805 z M 112.93555 188.24805 C 115.24673 188.24805 116.96484 189.48505 118.08789 191.95898 C 119.22721 194.43294 119.79685 198.19987 119.79688 203.26172 C 119.79688 208.30727 119.22721 212.06706 118.08789 214.54102 C 116.96484 217.01496 115.24673 218.25195 112.93555 218.25195 C 110.64063 218.25195 108.92448 217.01496 107.78516 214.54102 C 106.66211 212.06706 106.10156 208.30727 106.10156 203.26172 C 106.10156 198.19987 106.66211 194.43294 107.78516 191.95898 C 108.92448 189.48505 110.64063 188.24805 112.93555 188.24805 z M 173.14062 188.24805 C 175.45183 188.24805 177.16992 189.48505 178.29297 191.95898 C 179.43229 194.43294 180.00195 198.19987 180.00195 203.26172 C 180.00195 208.30727 179.43229 212.06706 178.29297 214.54102 C 177.16992 217.01496 175.45185 218.25195 173.14062 218.25195 C 170.84573 218.25195 169.12956 217.01496 167.99023 214.54102 C 166.86721 212.06706 166.30469 208.30727 166.30469 203.26172 C 166.30469 198.19987 166.86721 194.43294 167.99023 191.95898 C 169.12956 189.48505 170.84572 188.24805 173.14062 188.24805 z " />
        <g
           id="g20">
          <path
             id="rect1168"
             style="display:inline;fill:#3caae9;fill-opacity:1;stroke-width:0.0416667;stroke-miterlimit:4;stroke-dasharray:none;paint-order:stroke fill markers"
             d="M 86.423728,78 C 81.757363,78 78,81.757363 78,86.423728 78,114.14124 78,141.85876 78,169.57628 78,174.24265 81.757363,178 86.423728,178 h 83.152552 c 4.66637,0 8.42372,-3.75735 8.42372,-8.42372 0,-27.71752 0,-55.43504 0,-83.152552 C 178,81.757363 174.24265,78 169.57628,78 Z"
             sodipodi:nodetypes="sccssccss" />
          <g
             id="g19">
            <path
               id="path19"
               style="display:inline;fill:#000000;fill-opacity:1;stroke:none;stroke-width:5.905;stroke-linecap:round;stroke-linejoin:round;stroke-opacity:1;paint-order:stroke markers fill;opacity:0.4"
               d="m 144.13682,101.64554 c -20.50336,-0.35616 -44.708249,34.80412 -44.708249,54.92275 0,3.20704 2.587599,5.78886 5.801829,5.78886 h 45.5392 c 3.21423,0 5.80183,-2.58182 5.80183,-5.78886 0,-3.01264 -0.94922,-4.81451 -2.38696,-8.42658 -14.83597,-36.74363 0.53765,-42.82416 -6.00451,-45.93676 -1.23884,-0.58942 -2.67625,-0.53566 -4.04314,-0.55941 z"
               sodipodi:nodetypes="ssssccss" />
            <path
               id="path3-3"
               style="display:inline;fill:#2f425a;fill-opacity:1;stroke:none;stroke-width:5.905;stroke-linecap:round;stroke-linejoin:round;stroke-opacity:1;paint-order:stroke markers fill"
               d="m 144.13682,97.645536 c -20.50336,-0.356161 -44.708249,34.804124 -44.708249,54.922754 0,3.20704 2.587599,5.78886 5.801829,5.78886 h 45.5392 c 3.21423,0 5.80183,-2.58182 5.80183,-5.78886 0,-3.01264 -0.94922,-4.81451 -2.38696,-8.42658 -14.83597,-36.74363 0.53765,-42.82416 -6.00451,-45.936764 -1.23884,-0.589419 -2.67625,-0.53566 -4.04314,-0.55941 z"
               sodipodi:nodetypes="ssssccss" />
          </g>
        </g>
      </g>
    </g>
    <g
       inkscape:groupmode="layer"
       id="layer3-3"
       inkscape:label="Highlights"
       style="display:inline;enable-background:new">
      <path
         id="path3"
         style="display:inline;opacity:0.1;fill:#ffffff;stroke-width:6.64319;stroke-linecap:round;stroke-linejoin:round;paint-order:stroke markers fill;enable-background:new"
         d="m 40,128 v 93.37109 C 40,231.69113 48.308869,240 58.628906,240 H 197.37109 C 207.69113,240 216,231.69113 216,221.37109 V 128 Z" />
      <path
         id="path1"
         style="display:inline;opacity:0.6;fill:#ffffff;stroke-width:6.64319;stroke-linecap:round;stroke-linejoin:round;paint-order:stroke markers fill;enable-background:new"
         d="M 58.628906,16 C 48.308891,16 40,24.308891 40,34.628906 v 2 C 40,26.308891 48.308891,18 58.628906,18 H 197.37109 C 207.69111,18 216,26.308891 216,36.628906 v -2 C 216,24.308891 207.69111,16 197.37109,16 Z"
         sodipodi:nodetypes="sscsscsss" />
      <path
         id="path2"
         style="display:inline;opacity:0.1;fill:#ffffff;stroke-width:6.64319;stroke-linecap:round;stroke-linejoin:round;paint-order:stroke markers fill;enable-background:new"
         d="m 128,16 v 224 h 69.37109 C 207.69112,240 216,231.69112 216,221.37109 V 34.628906 C 216,24.309038 207.69293,16 197.37305,16 Z" />
    </g>
  </g>
</svg>
