<?xml version="1.0" encoding="UTF-8" standalone="no"?>
<svg
   width="256"
   height="256"
   id="svg11300"
   sodipodi:version="0.32"
   sodipodi:docname="text-css.svg"
   version="1.0"
   style="display:inline;enable-background:new"
   inkscape:version="1.4 (e7c3feb100, 2024-10-09)"
   xmlns:inkscape="http://www.inkscape.org/namespaces/inkscape"
   xmlns:sodipodi="http://sodipodi.sourceforge.net/DTD/sodipodi-0.dtd"
   xmlns="http://www.w3.org/2000/svg"
   xmlns:svg="http://www.w3.org/2000/svg">
  <sodipodi:namedview
     stroke="#ef2929"
     fill="#f57900"
     id="base"
     pagecolor="#cccccc"
     bordercolor="#666666"
     borderopacity="1"
     inkscape:pageopacity="0"
     inkscape:pageshadow="2"
     inkscape:zoom="4"
     inkscape:cx="94.25"
     inkscape:cy="115"
     inkscape:current-layer="layer1"
     showgrid="false"
     inkscape:grid-bbox="true"
     inkscape:document-units="px"
     inkscape:showpageshadow="true"
     inkscape:window-width="1920"
     inkscape:window-height="1011"
     inkscape:window-x="0"
     inkscape:window-y="0"
     width="400px"
     height="300px"
     inkscape:snap-nodes="true"
     inkscape:snap-bbox="true"
     gridtolerance="10000"
     inkscape:object-nodes="true"
     inkscape:snap-grids="true"
     showguides="false"
     inkscape:guide-bbox="true"
     inkscape:window-maximized="1"
     inkscape:bbox-paths="true"
     inkscape:snap-bbox-midpoints="true"
     inkscape:snap-global="false"
     inkscape:object-paths="true"
     inkscape:snap-intersection-paths="true"
     inkscape:snap-smooth-nodes="true"
     inkscape:pagecheckerboard="false"
     showborder="true"
     inkscape:document-rotation="0"
     inkscape:deskcolor="#d1d1d1">
    <inkscape:grid
       spacingy="1"
       spacingx="1"
       id="grid5883"
       type="xygrid"
       enabled="true"
       visible="false"
       empspacing="4"
       snapvisiblegridlinesonly="true"
       originx="0"
       originy="0"
       units="px" />
    <inkscape:grid
       type="xygrid"
       id="grid11592"
       empspacing="2"
       visible="false"
       enabled="false"
       spacingx="0.5"
       spacingy="0.5"
       color="#ff0000"
       opacity="0.1254902"
       empcolor="#ff0000"
       empopacity="0.25098039"
       snapvisiblegridlinesonly="true"
       originx="0"
       originy="0"
       units="px" />
    <sodipodi:guide
       position="394.16276,545.36183"
       orientation="0,-1"
       id="guide864"
       inkscape:locked="false" />
  </sodipodi:namedview>
  <defs
     id="defs3" />
  <g
     style="display:inline"
     inkscape:groupmode="layer"
     inkscape:label="Icon"
     id="layer1">
    <g
       inkscape:groupmode="layer"
       id="layer4"
       inkscape:label="Shadow"
       style="display:inline;opacity:0.4">
      <path
         id="rect3"
         style="display:inline;opacity:0.4;fill:#000000;stroke-width:6.64319;stroke-linecap:round;stroke-linejoin:round;paint-order:stroke markers fill;enable-background:new"
         d="m 40,128 v 97.37109 C 40,235.69114 48.308858,244 58.628906,244 H 197.37109 C 207.69114,244 216,235.69114 216,225.37109 V 128 Z"
         sodipodi:nodetypes="csssscc" />
    </g>
    <g
       inkscape:groupmode="layer"
       id="layer2"
       inkscape:label="Background"
       style="display:inline">
      <path
         id="rect2"
         style="fill:#f9f9f9;stroke-width:6.64319;stroke-linecap:round;stroke-linejoin:round;paint-order:stroke markers fill"
         d="M 58.628906,16 C 48.308858,16 40,24.308858 40,34.628906 V 221.37109 C 40,231.69114 48.308858,240 58.628906,240 H 197.37109 C 207.69114,240 216,231.69114 216,221.37109 L 215.99414,80 l -64,-64 z"
         sodipodi:nodetypes="ssssscccs" />
    </g>
    <g
       inkscape:groupmode="layer"
       id="layer8"
       inkscape:label="Graphic"
       style="display:inline">
      <path
         id="rect1"
         style="display:inline;fill:#c6c6c6;fill-opacity:1;stroke-width:2.81803;stroke-linecap:round;stroke-linejoin:round;paint-order:stroke markers fill;enable-background:new"
         d="m 65,43 v 8 h 70 v -8 z m 0,18 v 8 h 70 v -8 z m 0,18 v 8 h 30.730469 c 2.255883,-1.277657 4.841841,-2 7.462891,-2 H 135 v -6 z m 0,18 v 8 h 23.626953 v -6.255859 c 0,-0.596458 0.04983,-1.175474 0.125,-1.744141 z m 102.24805,0 c 0.0752,0.568667 0.12501,1.147683 0.125,1.744141 V 105 H 191 V 97 Z M 65,115 v 8 h 17.558594 v -5.43164 c 0,-0.89401 0.121001,-1.74329 0.296875,-2.56836 z m 108.52734,0 c 0.14765,0.70408 0.25877,1.42457 0.28125,2.17969 3.96354,0.0475 7.4605,2.43774 9.1543,5.82031 H 191 v -8 z M 65,133 v 8 h 18.0625 c -0.316379,-1.12543 -0.503906,-2.3078 -0.503906,-3.54883 V 133 Z m 119.04883,0 v 8 H 191 v -8 z M 65,151 v 8 h 49.76367 c 0.76139,-1.3127 1.78772,-2.46065 3.08789,-3.33008 v -1.49414 -0.006 c 7.2e-4,-1.04808 0.31274,-2.01362 0.61719,-2.97461 H 96.859375 c -0.757988,0 -1.50756,-0.0767 -2.248047,-0.19531 z m 119.04883,0 v 3.17383 0.002 c -9e-5,1.73051 -0.45201,3.37462 -1.23633,4.82422 H 191 v -8 z M 65,169 v 8 h 43.48828 c 0.0427,-0.62202 0.1259,-1.28405 0.32227,-1.98438 0.0525,-0.18633 0.11182,-0.3707 0.17773,-0.55273 L 110.95703,169 Z m 80.45312,0 c 0.47296,1.31313 1.15678,3.20928 1.34961,3.74414 0.30911,0.85733 0.46267,1.28486 0.53907,1.49609 0.0381,0.10564 0.0574,0.15834 0.0644,0.17774 -0.002,-0.006 -0.006,-0.0122 -0.0156,-0.0391 -0.0105,-0.0281 -1.02929,-1.91602 -1.02929,-1.91602 0.56175,0.77094 0.98111,1.63612 1.23828,2.55469 0.19595,0.69913 0.27937,1.36075 0.32227,1.98242 H 191 v -8 z M 65,187 v 8 h 43.44141 v -8 z m 82.9707,0 v 8 H 191 v -8 z M 65,205 v 8 h 43.64453 c -0.1325,-0.6359 -0.20306,-1.29191 -0.20312,-1.96094 V 205 Z m 82.9707,0 v 6.03906 c -6e-5,0.66904 -0.0706,1.32503 -0.20312,1.96094 H 191 v -8 z"
         sodipodi:nodetypes="cccccccccccccsccccccscccccccccccscccccccccccsccccccccccccscsccccsccccccccccccsccscccccccccccccccccccccccccccc" />
      <g
         id="g46"
         style="display:inline;enable-background:new"
         transform="matrix(0.78431373,0,0,0.78431373,27.813113,52.215686)">
        <g
           id="g37"
           transform="matrix(1,0,0,1.0000017,0,26.130815)"
           style="opacity:0.75">
          <path
             id="path31"
             style="fill:#ff0000;stroke-width:7.83419;stroke-linejoin:round;paint-order:stroke fill markers"
             d="m 96.108817,25.869141 c -4.637363,0 -8.370536,3.266525 -8.370536,7.324218 V 64.90625 c 0,4.057693 3.733173,7.324219 8.370536,7.324219 h 3.058036 V 25.869141 Z" />
          <path
             id="path32"
             style="fill:#ff8200;fill-opacity:1;stroke-width:7.83419;stroke-linejoin:round;paint-order:stroke fill markers"
             d="M 99.166853,25.869141 V 72.230469 H 110.59542 V 25.869141 Z" />
          <path
             id="path33"
             style="fill:#ffff00;stroke-width:7.83419;stroke-linejoin:round;paint-order:stroke fill markers"
             d="m 110.59542,25.869141 v 46.361328 h 11.42857 V 25.869141 Z" />
          <path
             id="path34"
             style="fill:#00ff00;stroke-width:7.83419;stroke-linejoin:round;paint-order:stroke fill markers"
             d="m 122.02399,25.869141 v 46.361328 h 11.42858 V 25.869141 Z" />
          <path
             id="path35"
             style="fill:#00ffff;stroke-width:7.83419;stroke-linejoin:round;paint-order:stroke fill markers"
             d="m 133.45257,25.869141 v 46.361328 h 11.42857 V 25.869141 Z" />
          <path
             id="path36"
             style="fill:#860cb4;fill-opacity:1;stroke-width:7.83419;stroke-linejoin:round;paint-order:stroke fill markers"
             d="m 144.88114,25.869141 v 46.361328 h 11.42857 V 25.869141 Z" />
          <path
             id="path37"
             style="fill:#ff00c6;fill-opacity:1;stroke-width:7.83419;stroke-linejoin:round;paint-order:stroke fill markers"
             d="m 156.30971,25.869141 v 46.361328 h 3.05803 c 4.63738,0 8.37054,-3.266526 8.37054,-7.324219 V 33.193359 c 0,-4.057693 -3.73316,-7.324218 -8.37054,-7.324218 z" />
        </g>
        <g
           id="g45">
          <path
             id="path41"
             style="fill:#bbbbbb;fill-opacity:1;stroke:none;stroke-width:23.1931;stroke-linecap:round;stroke-linejoin:round"
             d="M 88.03442,76 C 83.58247,76 80,79.26652 80,83.324219 V 108.67578 C 80,112.73348 83.58247,116 88.03442,116 h 79.93116 C 172.41753,116 176,112.73348 176,108.67578 V 83.324219 C 176,79.266519 172.41753,76 167.96558,76 Z"
             sodipodi:nodetypes="sssssssss" />
          <path
             id="path42"
             style="fill:#bbbbbb;fill-opacity:1;stroke-width:0.999943;stroke-linecap:round;stroke-linejoin:round"
             d="m 121.80664,140 c -1.12004,3.8e-4 -2.06505,0.87731 -2.40625,1.82422 l -6.30664,17.5 c -0.0638,0.22736 -0.0895,0.4535 -0.0898,0.67578 H 113 v 42.5 c 1.3e-4,1.38065 1.11934,2.49986 2.5,2.5 h 25 c 1.38065,-1.4e-4 2.49986,-1.11935 2.5,-2.5 V 160 h -0.004 c -2.9e-4,-0.22237 -0.026,-0.44831 -0.0898,-0.67578 0,0 -0.009,-0.0111 -6.30664,-17.5 -0.34117,-0.94747 -1.28744,-1.82471 -2.4082,-1.82422 z" />
          <path
             style="fill:#bbbbbb;stroke-linejoin:round"
             d="m 176,93 v 6 h 7 v 28 h -55 a 3.0003,3.0003 0 0 0 -3,3 v 10 h 6 v -7 h 55 a 3.0003,3.0003 0 0 0 3,-3 V 96 a 3.0003,3.0003 0 0 0 -3,-3 z"
             id="path44" />
        </g>
      </g>
    </g>
    <g
       inkscape:groupmode="layer"
       id="layer3"
       inkscape:label="Highlights"
       style="display:inline;enable-background:new">
      <path
         id="path2"
         style="display:inline;opacity:0.6;fill:#ffffff;stroke-width:6.64319;stroke-linecap:round;stroke-linejoin:round;paint-order:stroke markers fill;enable-background:new"
         d="M 58.628906,16 C 48.308869,16 40,24.308869 40,34.628906 v 2 C 40,26.308869 48.308869,18 58.628906,18 h 93.365234 l 64,64 v -2 l -64,-64 z"
         sodipodi:nodetypes="sscsccccs" />
      <path
         id="path3"
         style="display:inline;opacity:0.2;fill:#ffffff;stroke-width:6.64319;stroke-linecap:round;stroke-linejoin:round;paint-order:stroke markers fill;enable-background:new"
         d="m 40,128 v 93.37109 C 40,231.69113 48.308869,240 58.628906,240 H 197.37109 C 207.69113,240 216,231.69113 216,221.37109 V 128 Z"
         sodipodi:nodetypes="csssscc" />
      <path
         id="path4"
         style="display:inline;opacity:0.1;fill:#ffffff;stroke-width:6.64319;stroke-linecap:round;stroke-linejoin:round;paint-order:stroke markers fill;enable-background:new"
         d="m 128,16 v 224 h 69.37109 C 207.69113,240 216,231.69113 216,221.37109 L 215.994,80 l -64,-64 z"
         sodipodi:nodetypes="ccscccc" />
    </g>
    <g
       inkscape:groupmode="layer"
       id="layer6"
       inkscape:label="Folded corner"
       style="display:inline">
      <path
         id="path6"
         style="opacity:0.4;fill:#000000;stroke-width:12.6323;stroke-linecap:round;stroke-linejoin:round;paint-order:stroke markers fill"
         inkscape:transform-center-y="-10.667154"
         d="M 152,20 V 65.371094 C 152,75.690974 160.30706,84 170.62695,84 H 216 v -4 h -3.99023 v 0.0098 C 192.0061,60.007887 172.00326,40.003255 152,20 Z"
         sodipodi:nodetypes="cssccccc" />
      <path
         id="path5"
         style="opacity:1;fill:#ececec;stroke-width:12.6323;stroke-linecap:round;stroke-linejoin:round;paint-order:stroke markers fill"
         inkscape:transform-center-y="-10.667154"
         d="M 152,16 V 61.371094 C 152,71.690985 160.30706,80 170.62696,80 H 216 C 194.66606,58.668561 173.33336,37.333354 152,16 Z"
         sodipodi:nodetypes="csscc" />
    </g>
  </g>
</svg>
