<?xml version="1.0" encoding="UTF-8" standalone="no"?>
<svg
   width="256"
   height="256"
   id="svg11300"
   sodipodi:version="0.32"
   sodipodi:docname="text-x-c++src.svg"
   version="1.0"
   style="display:inline;enable-background:new"
   inkscape:version="1.4.2 (ebf0e940d0, 2025-05-08)"
   xmlns:inkscape="http://www.inkscape.org/namespaces/inkscape"
   xmlns:sodipodi="http://sodipodi.sourceforge.net/DTD/sodipodi-0.dtd"
   xmlns="http://www.w3.org/2000/svg"
   xmlns:svg="http://www.w3.org/2000/svg">
  <sodipodi:namedview
     stroke="#ef2929"
     fill="#f57900"
     id="base"
     pagecolor="#cccccc"
     bordercolor="#666666"
     borderopacity="1"
     inkscape:pageopacity="0"
     inkscape:pageshadow="2"
     inkscape:zoom="2.7002697"
     inkscape:cx="138.50468"
     inkscape:cy="114.43301"
     inkscape:current-layer="layer8"
     showgrid="false"
     inkscape:grid-bbox="true"
     inkscape:document-units="px"
     inkscape:showpageshadow="true"
     inkscape:window-width="1920"
     inkscape:window-height="1011"
     inkscape:window-x="0"
     inkscape:window-y="0"
     width="400px"
     height="300px"
     inkscape:snap-nodes="true"
     inkscape:snap-bbox="true"
     gridtolerance="10000"
     inkscape:object-nodes="true"
     inkscape:snap-grids="true"
     showguides="false"
     inkscape:guide-bbox="true"
     inkscape:window-maximized="1"
     inkscape:bbox-paths="true"
     inkscape:snap-bbox-midpoints="true"
     inkscape:snap-global="false"
     inkscape:object-paths="true"
     inkscape:snap-intersection-paths="true"
     inkscape:snap-smooth-nodes="true"
     inkscape:pagecheckerboard="false"
     showborder="true"
     inkscape:document-rotation="0"
     inkscape:deskcolor="#d1d1d1">
    <inkscape:grid
       spacingy="1"
       spacingx="1"
       id="grid5883"
       type="xygrid"
       enabled="true"
       visible="false"
       empspacing="4"
       snapvisiblegridlinesonly="true"
       originx="0"
       originy="0"
       units="px" />
    <inkscape:grid
       type="xygrid"
       id="grid11592"
       empspacing="2"
       visible="false"
       enabled="false"
       spacingx="0.5"
       spacingy="0.5"
       color="#ff0000"
       opacity="0.1254902"
       empcolor="#ff0000"
       empopacity="0.25098039"
       snapvisiblegridlinesonly="true"
       originx="0"
       originy="0"
       units="px" />
    <sodipodi:guide
       position="394.16276,545.36183"
       orientation="0,-1"
       id="guide864"
       inkscape:locked="false" />
  </sodipodi:namedview>
  <defs
     id="defs3" />
  <g
     style="display:inline"
     inkscape:groupmode="layer"
     inkscape:label="Icon"
     id="layer1">
    <g
       inkscape:groupmode="layer"
       id="layer4"
       inkscape:label="Shadow"
       style="display:inline;opacity:0.4">
      <path
         id="rect3"
         style="display:inline;opacity:0.4;fill:#000000;stroke-width:6.64319;stroke-linecap:round;stroke-linejoin:round;paint-order:stroke markers fill;enable-background:new"
         d="m 40,128 v 97.37109 C 40,235.69114 48.308858,244 58.628906,244 H 197.37109 C 207.69114,244 216,235.69114 216,225.37109 V 128 Z"
         sodipodi:nodetypes="csssscc" />
    </g>
    <g
       inkscape:groupmode="layer"
       id="layer2"
       inkscape:label="Background"
       style="display:inline">
      <path
         id="rect2"
         style="fill:#f9f9f9;stroke-width:6.64319;stroke-linecap:round;stroke-linejoin:round;paint-order:stroke markers fill"
         d="M 58.628906,16 C 48.308858,16 40,24.308858 40,34.628906 V 221.37109 C 40,231.69114 48.308858,240 58.628906,240 H 197.37109 C 207.69114,240 216,231.69114 216,221.37109 L 215.99414,80 l -64,-64 z"
         sodipodi:nodetypes="ssssscccs" />
    </g>
    <g
       inkscape:groupmode="layer"
       id="layer8"
       inkscape:label="Graphic"
       style="display:inline">
      <g
         id="g8"
         style="display:inline">
        <path
           id="rect1-2"
           style="display:inline;fill:#c6c6c6;fill-opacity:1;stroke-width:2.81803;stroke-linecap:round;stroke-linejoin:round;paint-order:stroke markers fill;enable-background:new"
           d="m 65,43 v 8 h 70 v -8 z m 0,18 v 8 h 70 v -8 z m 0,18 v 8 h 70 v -8 z m 0,18 v 8 h 126 v -8 z m 0,18 v 8 h 3.167969 c 1.428702,-2.98856 3.322552,-5.69396 5.646484,-8 z m 76.95312,0 v 8 h 13.8379 v -8 z m 37.7793,0 v 8 H 191 v -8 z m -61.71875,1.125 -2.54297,6.875 h 2.54297 z M 89.916016,133 c -0.24481,0.79535 -0.402344,1.85219 -0.402344,3.29883 0,2.08688 0.350941,3.5897 0.878906,4.70117 h 16.353512 v -8 z M 65,151 v 8 h 8.173828 c -2.231911,-2.31696 -4.032308,-5.02259 -5.36914,-8 z m 50.27539,0 2.4668,8 h 0.27148 v -8 z m 26.67773,0 v 8 h 13.8379 v -8 z m 37.7793,0 v 8 H 191 v -8 z M 65,169 v 8 h 126 v -8 z m 0,18 v 8 h 126 v -8 z m 0,18 v 8 h 126 v -8 z"
           sodipodi:nodetypes="ccccccccccccccccccccccccccccccccccccccccsccccccccccccccccccccccccccccccccccccccc" />
        <g
           id="g7">
          <path
             style="font-weight:bold;font-size:40px;line-height:1.25;font-family:Cantarell;-inkscape-font-specification:'Cantarell Bold';white-space:pre;fill:#333333;stroke-width:1"
             d="m 95.345647,159.86299 c 4.609973,0 9.604143,-1.08848 13.381773,-2.94529 l -1.8568,-6.01863 c -2.81722,1.08848 -6.46679,1.72876 -9.540132,1.72876 -9.732184,0 -15.814808,-6.33877 -15.814808,-16.32713 0,-9.47613 5.506376,-14.79045 14.854409,-14.79045 3.521504,0 7.555261,0.7043 10.436501,1.85681 l 2.36902,-6.4028 c -3.84167,-1.79278 -8.19555,-2.7532 -12.54941,-2.7532 -14.086078,0 -23.626211,9.28405 -23.626211,23.24214 0,13.44587 9.027896,22.40979 22.345658,22.40979 z"
             id="text1-1"
             aria-label="C++"
             sodipodi:nodetypes="sccsssccsss" />
          <path
             style="font-weight:bold;font-size:40px;line-height:1.25;font-family:Cantarell;-inkscape-font-specification:'Cantarell Bold';white-space:pre;fill:#1c4ed6;fill-opacity:1;stroke-width:1"
             d="m 126.01483,153.33214 h 7.93943 v -30.41328 h -7.93943 z m -11.26886,-11.39698 h 30.41313 v -7.74738 h -30.41313 z m 49.04517,11.39698 h 7.93943 v -30.41328 h -7.93943 z m -11.26886,-11.39698 h 30.41313 v -7.74738 h -30.41313 z"
             id="text2"
             aria-label="C++"
             sodipodi:nodetypes="cccccccccccccccccccc" />
        </g>
      </g>
    </g>
    <g
       inkscape:groupmode="layer"
       id="layer3"
       inkscape:label="Highlights"
       style="display:inline;enable-background:new">
      <path
         id="path2"
         style="display:inline;opacity:0.6;fill:#ffffff;stroke-width:6.64319;stroke-linecap:round;stroke-linejoin:round;paint-order:stroke markers fill;enable-background:new"
         d="M 58.628906,16 C 48.308869,16 40,24.308869 40,34.628906 v 2 C 40,26.308869 48.308869,18 58.628906,18 h 93.365234 l 64,64 v -2 l -64,-64 z"
         sodipodi:nodetypes="sscsccccs" />
      <path
         id="path3"
         style="display:inline;opacity:0.2;fill:#ffffff;stroke-width:6.64319;stroke-linecap:round;stroke-linejoin:round;paint-order:stroke markers fill;enable-background:new"
         d="m 40,128 v 93.37109 C 40,231.69113 48.308869,240 58.628906,240 H 197.37109 C 207.69113,240 216,231.69113 216,221.37109 V 128 Z"
         sodipodi:nodetypes="csssscc" />
      <path
         id="path4"
         style="display:inline;opacity:0.1;fill:#ffffff;stroke-width:6.64319;stroke-linecap:round;stroke-linejoin:round;paint-order:stroke markers fill;enable-background:new"
         d="m 128,16 v 224 h 69.37109 C 207.69113,240 216,231.69113 216,221.37109 L 215.994,80 l -64,-64 z"
         sodipodi:nodetypes="ccscccc" />
    </g>
    <g
       inkscape:groupmode="layer"
       id="layer6"
       inkscape:label="Folded corner"
       style="display:inline">
      <path
         id="path6"
         style="opacity:0.4;fill:#000000;stroke-width:12.6323;stroke-linecap:round;stroke-linejoin:round;paint-order:stroke markers fill"
         inkscape:transform-center-y="-10.667154"
         d="M 152,20 V 65.371094 C 152,75.690974 160.30706,84 170.62695,84 H 216 v -4 h -3.99023 v 0.0098 C 192.0061,60.007887 172.00326,40.003255 152,20 Z"
         sodipodi:nodetypes="cssccccc" />
      <path
         id="path5"
         style="opacity:1;fill:#ececec;stroke-width:12.6323;stroke-linecap:round;stroke-linejoin:round;paint-order:stroke markers fill"
         inkscape:transform-center-y="-10.667154"
         d="M 152,16 V 61.371094 C 152,71.690985 160.30706,80 170.62696,80 H 216 C 194.66606,58.668561 173.33336,37.333354 152,16 Z"
         sodipodi:nodetypes="csscc" />
    </g>
  </g>
</svg>
