<?xml version="1.0" encoding="UTF-8" standalone="no"?>
<svg
   width="256"
   height="256"
   id="svg11300"
   sodipodi:version="0.32"
   sodipodi:docname="text-javascript.svg"
   version="1.0"
   style="display:inline;enable-background:new"
   inkscape:version="1.4 (e7c3feb100, 2024-10-09)"
   xmlns:inkscape="http://www.inkscape.org/namespaces/inkscape"
   xmlns:sodipodi="http://sodipodi.sourceforge.net/DTD/sodipodi-0.dtd"
   xmlns="http://www.w3.org/2000/svg"
   xmlns:svg="http://www.w3.org/2000/svg">
  <sodipodi:namedview
     stroke="#ef2929"
     fill="#f57900"
     id="base"
     pagecolor="#cccccc"
     bordercolor="#666666"
     borderopacity="1"
     inkscape:pageopacity="0"
     inkscape:pageshadow="2"
     inkscape:zoom="3.4174906"
     inkscape:cx="95.245324"
     inkscape:cy="138.99087"
     inkscape:current-layer="layer1"
     showgrid="false"
     inkscape:grid-bbox="true"
     inkscape:document-units="px"
     inkscape:showpageshadow="true"
     inkscape:window-width="1920"
     inkscape:window-height="1011"
     inkscape:window-x="0"
     inkscape:window-y="0"
     width="400px"
     height="300px"
     inkscape:snap-nodes="true"
     inkscape:snap-bbox="true"
     gridtolerance="10000"
     inkscape:object-nodes="true"
     inkscape:snap-grids="true"
     showguides="false"
     inkscape:guide-bbox="true"
     inkscape:window-maximized="1"
     inkscape:bbox-paths="true"
     inkscape:snap-bbox-midpoints="true"
     inkscape:snap-global="false"
     inkscape:object-paths="true"
     inkscape:snap-intersection-paths="true"
     inkscape:snap-smooth-nodes="true"
     inkscape:pagecheckerboard="false"
     showborder="true"
     inkscape:document-rotation="0"
     inkscape:deskcolor="#d1d1d1">
    <inkscape:grid
       spacingy="1"
       spacingx="1"
       id="grid5883"
       type="xygrid"
       enabled="true"
       visible="false"
       empspacing="4"
       snapvisiblegridlinesonly="true"
       originx="0"
       originy="0"
       units="px" />
    <inkscape:grid
       type="xygrid"
       id="grid11592"
       empspacing="2"
       visible="false"
       enabled="false"
       spacingx="0.5"
       spacingy="0.5"
       color="#ff0000"
       opacity="0.1254902"
       empcolor="#ff0000"
       empopacity="0.25098039"
       snapvisiblegridlinesonly="true"
       originx="0"
       originy="0"
       units="px" />
    <sodipodi:guide
       position="394.16276,545.36183"
       orientation="0,-1"
       id="guide864"
       inkscape:locked="false" />
  </sodipodi:namedview>
  <defs
     id="defs3" />
  <g
     style="display:inline"
     inkscape:groupmode="layer"
     inkscape:label="Icon"
     id="layer1">
    <g
       inkscape:groupmode="layer"
       id="layer4"
       inkscape:label="Shadow"
       style="display:inline;opacity:0.4;enable-background:new"
       transform="translate(-22,-8)">
      <path
         id="rect3"
         style="display:inline;opacity:0.4;fill:#000000;stroke-width:6.64319;stroke-linecap:round;stroke-linejoin:round;paint-order:stroke markers fill;enable-background:new"
         d="m 62,136 v 97.37109 C 62,243.69114 70.308858,252 80.628906,252 H 219.37109 C 229.69114,252 238,243.69114 238,233.37109 V 136 Z"
         sodipodi:nodetypes="csssscc" />
    </g>
    <g
       inkscape:groupmode="layer"
       id="layer2"
       inkscape:label="Background"
       style="display:inline;enable-background:new"
       transform="translate(-22,-8)">
      <path
         id="rect2"
         style="display:inline;fill:#f9f9f9;stroke-width:6.64319;stroke-linecap:round;stroke-linejoin:round;paint-order:stroke markers fill;enable-background:new"
         d="M 80.628906,24 C 70.308858,24 62,32.308858 62,42.628906 V 229.37109 C 62,239.69114 70.308858,248 80.628906,248 H 219.37109 C 229.69114,248 238,239.69114 238,229.37109 L 237.994,88 l -64,-64 z"
         sodipodi:nodetypes="ssssscccs" />
    </g>
    <g
       inkscape:groupmode="layer"
       id="layer8"
       inkscape:label="Graphic"
       style="display:inline;enable-background:new">
      <path
         id="rect1-2"
         style="display:inline;fill:#c6c6c6;fill-opacity:1;stroke-width:2.81803;stroke-linecap:round;stroke-linejoin:round;paint-order:stroke markers fill;enable-background:new"
         d="m 65,43 v 8 h 70 v -8 z m 0,18 v 8 h 70 v -8 z m 0,18 v 8 h 70 v -8 z m 0,18 v 8 h 126 v -8 z m 87,18 v 8 h 39 v -8 z m 0,18 v 8 h 39 v -8 z m 0,18 v 8 h 39 v -8 z m 0,18 v 8 h 39 v -8 z m 0,18 v 8 h 39 v -8 z m 0,18 v 8 h 39 v -8 z"
         sodipodi:nodetypes="cccccccccccccccccccccccccccccccccccccccccccccccccc" />
      <g
         id="g6">
        <rect
           style="display:inline;fill:#edcf36;fill-opacity:1;stroke-width:11.2585;stroke-linecap:round;stroke-linejoin:round;paint-order:stroke markers fill;enable-background:new"
           id="rect1019"
           width="70"
           height="98"
           x="65"
           y="115"
           rx="8"
           ry="8" />
        <path
           d="m 107.70681,183.06466 c 1.71159,2.79466 3.93843,4.84885 7.87688,4.84885 3.30855,0 5.42209,-1.65359 5.42209,-3.93844 0,-2.73802 -2.17154,-3.70779 -5.81324,-5.3007 l -1.99619,-0.85647 c -5.762,-2.45479 -9.58983,-5.53 -9.58983,-12.03112 0,-5.98859 4.56292,-10.54746 11.69393,-10.54746 5.07679,0 8.7266,1.7669 11.35672,6.39322 l -6.21787,3.99238 c -1.36902,-2.45477 -2.84593,-3.42184 -5.13885,-3.42184 -2.3388,0 -3.8211,1.48365 -3.8211,3.42184 0,2.39544 1.48365,3.36521 4.90956,4.84887 l 1.99619,0.85513 C 125.16947,174.23824 129,177.2042 129,183.87256 129,191.06157 123.35266,195 115.76847,195 c -7.41559,0 -12.20647,-3.5338 -14.55065,-8.16551 z m -28.207037,0.69191 c 1.254367,2.2255 2.39543,4.10705 5.138855,4.10705 2.623375,0 4.278332,-1.02643 4.278332,-5.01748 V 155.6952 h 7.98478 v 27.25885 c 0,8.26802 -4.847526,12.03112 -11.923224,12.03112 -6.393212,0 -10.095614,-3.30856 -11.978516,-7.29353 z"
           id="path1"
           style="fill:#333333;stroke-width:0.134878" />
      </g>
    </g>
    <g
       inkscape:groupmode="layer"
       id="layer3"
       inkscape:label="Highlights"
       style="display:inline;enable-background:new"
       transform="translate(-22,-8)">
      <path
         id="path2"
         style="display:inline;opacity:0.6;fill:#ffffff;stroke-width:6.64319;stroke-linecap:round;stroke-linejoin:round;paint-order:stroke markers fill;enable-background:new"
         d="M 80.628906,24 C 70.30888,24 62,32.30888 62,42.628906 v 2 C 62,34.30888 70.30888,26 80.628906,26 h 93.365234 l 62,62 h 2 l -64,-64 z" />
      <path
         id="path3"
         style="display:inline;opacity:0.1;fill:#ffffff;stroke-width:6.64319;stroke-linecap:round;stroke-linejoin:round;paint-order:stroke markers fill;enable-background:new"
         d="m 62,136 v 93.37109 C 62,239.69113 70.308869,248 80.628906,248 H 219.37109 C 229.69113,248 238,239.69113 238,229.37109 V 136 Z"
         sodipodi:nodetypes="csssscc" />
      <path
         id="path4"
         style="display:inline;opacity:0.1;fill:#ffffff;stroke-width:6.64319;stroke-linecap:round;stroke-linejoin:round;paint-order:stroke markers fill;enable-background:new"
         d="m 150,24 v 224 h 69.37109 C 229.69113,248 238,239.69113 238,229.37109 L 237.994,88 l -64,-64 z"
         sodipodi:nodetypes="ccscccc" />
      <path
         id="path8"
         style="display:inline;opacity:0.6;fill:#ffffff;stroke-width:6.64319;stroke-linecap:round;stroke-linejoin:round;paint-order:stroke markers fill;enable-background:new"
         d="m 238,188 -60,60 h 41.37109 C 229.69113,248 238,239.69113 238,229.37109 Z"
         sodipodi:nodetypes="ccssc" />
    </g>
    <g
       inkscape:groupmode="layer"
       id="layer6"
       inkscape:label="Folded corner"
       style="display:inline;enable-background:new"
       transform="translate(-22,-8)">
      <path
         id="path6"
         style="display:inline;opacity:0.4;fill:#000000;stroke-width:12.6323;stroke-linecap:round;stroke-linejoin:round;paint-order:stroke markers fill;enable-background:new"
         inkscape:transform-center-y="-10.667154"
         d="M 174,28 V 73.37109 C 174,83.69097 182.30706,92 192.62695,92 H 238 v -4 h -3.99023 v 0.01 C 214.0061,68.00789 194.00326,48.00325 174,28 Z"
         sodipodi:nodetypes="cssccccc" />
      <path
         id="path5"
         style="display:inline;fill:#ececec;stroke-width:12.6323;stroke-linecap:round;stroke-linejoin:round;paint-order:stroke markers fill;enable-background:new"
         inkscape:transform-center-y="-10.667154"
         d="M 174,24 V 69.37109 C 174,79.69098 182.30706,88 192.62696,88 H 238 C 216.66606,66.66856 195.33336,45.33335 174,24 Z"
         sodipodi:nodetypes="csscc" />
    </g>
  </g>
</svg>
