<?xml version="1.0" encoding="UTF-8" standalone="no"?>
<svg
   width="256"
   height="256"
   id="svg11300"
   sodipodi:version="0.32"
   sodipodi:docname="text-x-xges.svg"
   version="1.0"
   style="display:inline;enable-background:new"
   inkscape:version="1.3 (0e150ed6c4, 2023-07-21)"
   xmlns:inkscape="http://www.inkscape.org/namespaces/inkscape"
   xmlns:sodipodi="http://sodipodi.sourceforge.net/DTD/sodipodi-0.dtd"
   xmlns="http://www.w3.org/2000/svg"
   xmlns:svg="http://www.w3.org/2000/svg">
  <sodipodi:namedview
     stroke="#ef2929"
     fill="#f57900"
     id="base"
     pagecolor="#cccccc"
     bordercolor="#666666"
     borderopacity="1"
     inkscape:pageopacity="0"
     inkscape:pageshadow="2"
     inkscape:zoom="2.3546831"
     inkscape:cx="71.134836"
     inkscape:cy="122.52179"
     inkscape:current-layer="layer8"
     showgrid="false"
     inkscape:grid-bbox="true"
     inkscape:document-units="px"
     inkscape:showpageshadow="true"
     inkscape:window-width="1920"
     inkscape:window-height="1011"
     inkscape:window-x="1920"
     inkscape:window-y="32"
     width="400px"
     height="300px"
     inkscape:snap-nodes="true"
     inkscape:snap-bbox="true"
     gridtolerance="10000"
     inkscape:object-nodes="true"
     inkscape:snap-grids="true"
     showguides="false"
     inkscape:guide-bbox="true"
     inkscape:window-maximized="1"
     inkscape:bbox-paths="true"
     inkscape:snap-bbox-midpoints="true"
     inkscape:snap-global="false"
     inkscape:object-paths="true"
     inkscape:snap-intersection-paths="true"
     inkscape:snap-smooth-nodes="true"
     inkscape:pagecheckerboard="false"
     showborder="true"
     inkscape:document-rotation="0"
     inkscape:deskcolor="#d1d1d1">
    <inkscape:grid
       spacingy="1"
       spacingx="1"
       id="grid5883"
       type="xygrid"
       enabled="true"
       visible="false"
       empspacing="4"
       snapvisiblegridlinesonly="true"
       originx="0"
       originy="0"
       units="px" />
    <inkscape:grid
       type="xygrid"
       id="grid11592"
       empspacing="2"
       visible="false"
       enabled="false"
       spacingx="0.5"
       spacingy="0.5"
       color="#ff0000"
       opacity="0.1254902"
       empcolor="#ff0000"
       empopacity="0.25098039"
       snapvisiblegridlinesonly="true"
       originx="0"
       originy="0"
       units="px" />
    <sodipodi:guide
       position="394.16276,545.36183"
       orientation="0,-1"
       id="guide864"
       inkscape:locked="false" />
  </sodipodi:namedview>
  <defs
     id="defs3" />
  <g
     style="display:inline"
     inkscape:groupmode="layer"
     inkscape:label="Icon"
     id="layer1">
    <g
       inkscape:groupmode="layer"
       id="layer4"
       inkscape:label="Shadow"
       style="display:inline;opacity:0.4;enable-background:new">
      <path
         id="rect3"
         style="display:inline;opacity:0.4;fill:#000000;stroke-width:6.64319;stroke-linecap:round;stroke-linejoin:round;paint-order:stroke markers fill;enable-background:new"
         d="m 40,128 v 97.37109 C 40,235.69114 48.308858,244 58.628906,244 H 197.37109 C 207.69114,244 216,235.69114 216,225.37109 V 128 Z" />
    </g>
    <g
       inkscape:groupmode="layer"
       id="layer2"
       inkscape:label="Background"
       style="display:inline;enable-background:new">
      <path
         id="rect2"
         style="display:inline;fill:#f9f9f9;stroke-width:6.64319;stroke-linecap:round;stroke-linejoin:round;paint-order:stroke markers fill;enable-background:new"
         d="M 58.628906,16 C 48.308858,16 40,24.308858 40,34.628906 V 221.37109 C 40,231.69114 48.308858,240 58.628906,240 H 197.37109 C 207.69114,240 216,231.69114 216,221.37109 V 34.628906 c 0,-0.03957 -0.006,-0.07768 -0.006,-0.117187 V 80 l -64,-64 z" />
    </g>
    <g
       inkscape:groupmode="layer"
       id="layer8"
       inkscape:label="Graphic"
       style="display:inline;enable-background:new">
      <path
         id="path1169"
         style="display:inline;fill:#951eaf;fill-opacity:1;stroke-width:0.0466669;stroke-miterlimit:4;stroke-dasharray:none;paint-order:stroke fill markers"
         d="M 81.433593,98 C 76.207273,98 72,102.20738 72,107.4338 c 0,23.04413 0,46.08826 0,69.1324 0,5.22642 4.207283,9.4338 9.433593,9.4338 H 174.56445 C 179.79076,186 184,181.79262 184,176.5662 184,150.37746 184,124.18874 184,98 h -14.27148 l 4.65039,7.99823 v 0.002 l -4.65039,8.00017 h -13.10938 l 4.65039,-8.00017 -4.65039,-8.000182 h -11.89062 l 4.65039,8.000182 -4.65039,8.00017 h -13.10743 l 4.65039,-8.00017 -4.65039,-8.000182 h -11.89062 l 4.65039,7.998182 v 0.002 l -4.65039,8.00017 h -13.10938 l 4.65039,-8.00017 -4.65039,-8.000184 H 94.730469 l 4.65039,7.998174 v 0.002 l -4.65039,8.00017 H 81.621093 l 4.650391,-8.00017 -4.650391,-8.000176 z M 110,130.00071 h 2 v 12.00027 h 32 v -12.00027 h 2 v 12.00027 h 20 c 1.06199,0 2,0.93406 2,1.99809 -26.66667,0 -53.33333,0 -80,0 0,-1.10803 0.983,-1.99809 2,-1.99809 h 20 z m -22,29.99872 h 80 c 0,1.054 -0.91301,2.00003 -2,2.00003 H 90 c -0.985,0 -2,-1.03003 -2,-2.00003 z"
         sodipodi:nodetypes="sccsscccccccccccccccccccccccccccccscccccccsccsccccssc" />
    </g>
    <g
       inkscape:groupmode="layer"
       id="layer3"
       inkscape:label="Highlights"
       style="display:inline;enable-background:new">
      <path
         id="path2"
         style="display:inline;opacity:0.6;fill:#ffffff;stroke-width:6.64319;stroke-linecap:round;stroke-linejoin:round;paint-order:stroke markers fill;enable-background:new"
         d="M 58.628906,16 C 48.308869,16 40,24.308869 40,34.628906 v 2 C 40,26.308869 48.308869,18 58.628906,18 h 93.365234 l 64,64 v -2 l -64,-64 z M 215.99414,34.511719 v 2 c 0,0.03951 0.006,0.07762 0.006,0.117187 v -2 c 0,-0.03957 -0.006,-0.07768 -0.006,-0.117187 z" />
      <path
         id="path3"
         style="display:inline;opacity:0.2;fill:#ffffff;stroke-width:6.64319;stroke-linecap:round;stroke-linejoin:round;paint-order:stroke markers fill;enable-background:new"
         d="m 40,128 v 93.37109 C 40,231.69113 48.308869,240 58.628906,240 H 197.37109 C 207.69113,240 216,231.69113 216,221.37109 V 128 Z" />
      <path
         id="path4"
         style="display:inline;opacity:0.1;fill:#ffffff;stroke-width:6.64319;stroke-linecap:round;stroke-linejoin:round;paint-order:stroke markers fill;enable-background:new"
         d="m 128,16 v 224 h 69.37109 C 207.69113,240 216,231.69113 216,221.37109 V 34.628906 c 0,-0.03957 -0.006,-0.07768 -0.006,-0.117187 V 80 l -64,-64 z" />
      <path
         id="path8"
         style="display:inline;opacity:0.6;fill:#ffffff;stroke-width:6.64319;stroke-linecap:round;stroke-linejoin:round;paint-order:stroke markers fill;enable-background:new"
         d="m 216,180 -60,60 h 41.37109 C 207.69113,240 216,231.69113 216,221.37109 Z" />
    </g>
    <g
       inkscape:groupmode="layer"
       id="layer6"
       inkscape:label="Folded corner"
       style="display:inline;enable-background:new">
      <path
         id="path6"
         style="display:inline;opacity:0.4;fill:#000000;stroke-width:12.6323;stroke-linecap:round;stroke-linejoin:round;paint-order:stroke markers fill;enable-background:new"
         inkscape:transform-center-y="-10.667154"
         d="M 152,20 V 65.37109 C 152,75.69097 160.30706,84 170.62695,84 H 216 v -4 h -3.99023 v 0.01 C 192.0061,60.00789 172.00326,40.00325 152,20 Z"
         sodipodi:nodetypes="cssccccc" />
      <path
         id="path5"
         style="display:inline;fill:#ececec;stroke-width:12.6323;stroke-linecap:round;stroke-linejoin:round;paint-order:stroke markers fill;enable-background:new"
         inkscape:transform-center-y="-10.667154"
         d="M 152,16 V 61.37109 C 152,71.69098 160.30706,80 170.62696,80 H 216 C 194.66606,58.66856 173.33336,37.33335 152,16 Z"
         sodipodi:nodetypes="csscc" />
    </g>
  </g>
</svg>
