<?xml version="1.0" encoding="UTF-8" standalone="no"?>
<svg
   width="256"
   height="256"
   id="svg11300"
   sodipodi:version="0.32"
   sodipodi:docname="text-x-makefile.svg"
   version="1.0"
   style="display:inline;enable-background:new"
   inkscape:version="1.4 (e7c3feb100, 2024-10-09)"
   xmlns:inkscape="http://www.inkscape.org/namespaces/inkscape"
   xmlns:sodipodi="http://sodipodi.sourceforge.net/DTD/sodipodi-0.dtd"
   xmlns="http://www.w3.org/2000/svg"
   xmlns:svg="http://www.w3.org/2000/svg">
  <sodipodi:namedview
     stroke="#ef2929"
     fill="#f57900"
     id="base"
     pagecolor="#cccccc"
     bordercolor="#666666"
     borderopacity="1"
     inkscape:pageopacity="0"
     inkscape:pageshadow="2"
     inkscape:zoom="5.6568543"
     inkscape:cx="114.99324"
     inkscape:cy="114.37452"
     inkscape:current-layer="layer2"
     showgrid="false"
     inkscape:grid-bbox="true"
     inkscape:document-units="px"
     inkscape:showpageshadow="true"
     inkscape:window-width="1920"
     inkscape:window-height="1011"
     inkscape:window-x="0"
     inkscape:window-y="0"
     width="400px"
     height="300px"
     inkscape:snap-nodes="true"
     inkscape:snap-bbox="true"
     gridtolerance="10000"
     inkscape:object-nodes="true"
     inkscape:snap-grids="true"
     showguides="false"
     inkscape:guide-bbox="true"
     inkscape:window-maximized="1"
     inkscape:bbox-paths="true"
     inkscape:snap-bbox-midpoints="true"
     inkscape:snap-global="false"
     inkscape:object-paths="true"
     inkscape:snap-intersection-paths="true"
     inkscape:snap-smooth-nodes="true"
     inkscape:pagecheckerboard="false"
     showborder="true"
     inkscape:document-rotation="0"
     inkscape:deskcolor="#d1d1d1">
    <inkscape:grid
       spacingy="1"
       spacingx="1"
       id="grid5883"
       type="xygrid"
       enabled="true"
       visible="false"
       empspacing="4"
       snapvisiblegridlinesonly="true"
       originx="0"
       originy="0"
       units="px" />
    <inkscape:grid
       type="xygrid"
       id="grid11592"
       empspacing="2"
       visible="false"
       enabled="false"
       spacingx="0.5"
       spacingy="0.5"
       color="#ff0000"
       opacity="0.1254902"
       empcolor="#ff0000"
       empopacity="0.25098039"
       snapvisiblegridlinesonly="true"
       originx="0"
       originy="0"
       units="px" />
    <sodipodi:guide
       position="394.16276,545.36183"
       orientation="0,-1"
       id="guide864"
       inkscape:locked="false" />
  </sodipodi:namedview>
  <defs
     id="defs3" />
  <g
     style="display:inline"
     inkscape:groupmode="layer"
     inkscape:label="Icon"
     id="layer1">
    <g
       inkscape:groupmode="layer"
       id="layer4"
       inkscape:label="Shadow"
       style="display:inline;opacity:0.4">
      <path
         id="rect3"
         style="display:inline;opacity:0.4;fill:#000000;stroke-width:6.64319;stroke-linecap:round;stroke-linejoin:round;paint-order:stroke markers fill;enable-background:new"
         d="m 40,128 v 97.37109 C 40,235.69114 48.308858,244 58.628906,244 H 197.37109 C 207.69114,244 216,235.69114 216,225.37109 V 128 Z"
         sodipodi:nodetypes="csssscc" />
    </g>
    <g
       inkscape:groupmode="layer"
       id="layer2"
       inkscape:label="Background"
       style="display:inline">
      <path
         id="rect2"
         style="fill:#f9f9f9;stroke-width:6.64319;stroke-linecap:round;stroke-linejoin:round;paint-order:stroke markers fill"
         d="M 58.628906,16 C 48.308858,16 40,24.308858 40,34.628906 V 221.37109 C 40,231.69114 48.308858,240 58.628906,240 H 197.37109 C 207.69114,240 216,231.69114 216,221.37109 L 215.99414,80 l -64,-64 z"
         sodipodi:nodetypes="ssssscccs" />
    </g>
    <g
       inkscape:groupmode="layer"
       id="layer8"
       inkscape:label="Graphic"
       style="display:inline">
      <path
         id="rect1-5"
         style="display:inline;fill:#c6c6c6;fill-opacity:1;stroke-width:2.81803;stroke-linecap:round;stroke-linejoin:round;paint-order:stroke markers fill;enable-background:new"
         d="M 65 43 L 65 51 L 135 51 L 135 43 L 65 43 z M 65 61 L 65 69 L 83.091797 69 C 84.485653 68.343353 86.00137 67.953038 87.5625 67.882812 C 87.997949 67.863221 88.419113 67.869771 88.818359 67.894531 A 8.0008 8.0008 0 0 1 90.376953 68.146484 L 93.587891 69 L 135 69 L 135 61 L 65 61 z M 65 79 L 65 86.392578 C 68.243946 84.161145 72.430302 83.738704 76.033203 85.136719 C 75.275421 83.182885 75.071153 81.056552 75.376953 79 L 65 79 z M 120.97266 79 C 121.82572 80.108914 122.49043 81.351155 122.96094 82.673828 A 8.0008 8.0008 0 0 1 123.25 83.441406 L 123.36914 83.888672 A 8.0008 8.0008 0 0 1 123.37109 83.892578 L 124.19727 87 L 135 87 L 135 79 L 120.97266 79 z M 126.85547 97 L 128.98242 105 L 191 105 L 191 97 L 126.85547 97 z M 138.42383 115 L 146.42383 123 L 191 123 L 191 115 L 138.42383 115 z M 65 121.88477 L 65 123 L 65.3125 123 C 65.284587 122.88825 65.239818 122.7826 65.214844 122.66992 L 65.294922 122.99414 L 65 121.88477 z M 65 133 L 65 141 L 99.371094 141 L 96.65625 138.28516 L 76.769531 133 L 65 133 z M 156.42383 133 L 164.42188 141 L 191 141 L 191 133 L 156.42383 133 z M 65 151 L 65 159 L 117.37109 159 L 109.37109 151 L 65 151 z M 174.42188 151 L 182.42188 159 L 191 159 L 191 151 L 174.42188 151 z M 65 169 L 65 177 L 135.37109 177 L 127.37109 169 L 65 169 z M 65 187 L 65 195 L 153.37109 195 L 145.37109 187 L 65 187 z M 65 205 L 65 213 L 191 213 L 191 205 L 181.79297 205 C 176.90553 206.67934 171.56127 206.67934 166.67383 205 L 65 205 z " />
      <g
         id="g122"
         transform="rotate(-45,-49.111941,-92.965249)"
         style="display:inline">
        <g
           id="g118"
           style="fill:#999999">
          <path
             id="path118"
             style="fill:#999999;stroke:none;stroke-width:16;stroke-linecap:round;stroke-linejoin:round;paint-order:stroke markers fill"
             d="m -221.99164,5.8141711 c -0.35615,3.63e-5 -0.69519,0.1535152 -0.93114,0.4215203 l -6.5e-4,6.505e-4 -4.04636,7.0097261 c -0.16962,0.267438 -0.25971,0.57797 -0.25966,0.895081 9e-5,0.271193 0.0661,0.53826 0.19231,0.777991 l 6.5e-4,0.0013 4.35718,7.546384 h 9.61441 l 4.28725,-7.426043 0.0771,-0.133351 6.4e-4,-0.0013 c 0.12181,-0.236654 0.18531,-0.499214 0.18519,-0.765632 -3e-5,-0.26894 -0.0649,-0.533872 -0.18907,-0.772137 l -6.5e-4,-0.002 -0.0699,-0.120992 -4.04637,-7.0084256 c -0.23598,-0.2684171 -0.57531,-0.4221569 -0.93179,-0.4221708 -0.19762,0 -0.24153,-6.505e-4 -0.55557,-6.505e-4 -0.68662,0 -1.24324,0.5591748 -1.24324,1.2489491 V 13.14129 h -4.64144 V 7.0637707 c 0,-0.6897782 -0.55662,-1.2489529 -1.24325,-1.2489491 -0.24062,0 -0.32724,-6.505e-4 -0.55564,-6.505e-4 z"
             transform="matrix(3.0163044,0,0,3.0025244,570.60999,104.8807)"
             sodipodi:nodetypes="ccccccccccccccccccssccscc" />
          <circle
             style="display:inline;fill:#999999;stroke:none;stroke-width:13.6472;stroke-linecap:round;stroke-linejoin:round;paint-order:stroke markers fill;enable-background:new"
             id="circle118"
             cx="-86.557953"
             cy="260.33856"
             r="15" />
          <rect
             style="display:inline;fill:#999999;stroke:none;stroke-width:10.8472;stroke-linecap:round;stroke-linejoin:round;paint-order:stroke markers fill;enable-background:new"
             id="rect118"
             width="30"
             height="88.862076"
             x="-101.55795"
             y="171.4765" />
        </g>
        <g
           id="g121">
          <rect
             style="display:inline;fill:#cccccc;stroke:none;stroke-width:6.53164;stroke-linecap:round;stroke-linejoin:round;paint-order:stroke markers fill;enable-background:new"
             id="rect119"
             width="10"
             height="96.660255"
             x="-91.557953"
             y="163.67831" />
          <circle
             style="display:inline;fill:#cccccc;stroke:none;stroke-width:4.54906;stroke-linecap:round;stroke-linejoin:round;paint-order:stroke markers fill;enable-background:new"
             id="circle119"
             cx="-86.557587"
             cy="260.33859"
             r="5" />
          <circle
             style="opacity:1;fill:#cccccc;stroke:none;stroke-width:3.75446;stroke-linecap:round;stroke-linejoin:round;stroke-dasharray:none;paint-order:stroke markers fill"
             id="circle120"
             cx="79.308136"
             cy="159.83858"
             r="5"
             transform="scale(-1,1)" />
          <path
             style="fill:#cccccc"
             d="m -83.632812,157.33008 -7.25,12.5 8.65039,5.01758 7.25,-12.5 z"
             id="path120" />
          <circle
             style="opacity:1;fill:#cccccc;stroke:none;stroke-width:3.75446;stroke-linecap:round;stroke-linejoin:round;stroke-dasharray:none;paint-order:stroke markers fill"
             id="circle121"
             cx="-93.807755"
             cy="159.83858"
             r="5" />
          <path
             style="fill:#cccccc"
             d="m -89.482422,157.33008 -8.65039,5.01758 7.25,12.5 8.65039,-5.01758 z"
             id="path121" />
        </g>
      </g>
    </g>
    <g
       inkscape:groupmode="layer"
       id="layer3"
       inkscape:label="Highlights"
       style="display:inline;enable-background:new">
      <path
         id="path2"
         style="display:inline;opacity:0.6;fill:#ffffff;stroke-width:6.64319;stroke-linecap:round;stroke-linejoin:round;paint-order:stroke markers fill;enable-background:new"
         d="M 58.628906,16 C 48.308869,16 40,24.308869 40,34.628906 v 2 C 40,26.308869 48.308869,18 58.628906,18 h 93.365234 l 64,64 v -2 l -64,-64 z"
         sodipodi:nodetypes="sscsccccs" />
      <path
         id="path3"
         style="display:inline;opacity:0.2;fill:#ffffff;stroke-width:6.64319;stroke-linecap:round;stroke-linejoin:round;paint-order:stroke markers fill;enable-background:new"
         d="m 40,128 v 93.37109 C 40,231.69113 48.308869,240 58.628906,240 H 197.37109 C 207.69113,240 216,231.69113 216,221.37109 V 128 Z"
         sodipodi:nodetypes="csssscc" />
      <path
         id="path4"
         style="display:inline;opacity:0.1;fill:#ffffff;stroke-width:6.64319;stroke-linecap:round;stroke-linejoin:round;paint-order:stroke markers fill;enable-background:new"
         d="m 128,16 v 224 h 69.37109 C 207.69113,240 216,231.69113 216,221.37109 L 215.994,80 l -64,-64 z"
         sodipodi:nodetypes="ccscccc" />
    </g>
    <g
       inkscape:groupmode="layer"
       id="layer6"
       inkscape:label="Folded corner"
       style="display:inline">
      <path
         id="path6"
         style="opacity:0.4;fill:#000000;stroke-width:12.6323;stroke-linecap:round;stroke-linejoin:round;paint-order:stroke markers fill"
         inkscape:transform-center-y="-10.667154"
         d="M 152,20 V 65.371094 C 152,75.690974 160.30706,84 170.62695,84 H 216 v -4 h -3.99023 v 0.0098 C 192.0061,60.007887 172.00326,40.003255 152,20 Z"
         sodipodi:nodetypes="cssccccc" />
      <path
         id="path5"
         style="opacity:1;fill:#ececec;stroke-width:12.6323;stroke-linecap:round;stroke-linejoin:round;paint-order:stroke markers fill"
         inkscape:transform-center-y="-10.667154"
         d="M 152,16 V 61.371094 C 152,71.690985 160.30706,80 170.62696,80 H 216 C 194.66606,58.668561 173.33336,37.333354 152,16 Z"
         sodipodi:nodetypes="csscc" />
    </g>
  </g>
</svg>
