<?xml version="1.0" encoding="UTF-8" standalone="no"?>
<svg
   width="256"
   height="256"
   id="svg11300"
   sodipodi:version="0.32"
   sodipodi:docname="text-x-chdr.svg"
   version="1.0"
   style="display:inline;enable-background:new"
   inkscape:version="1.4.2 (ebf0e940d0, 2025-05-08)"
   xmlns:inkscape="http://www.inkscape.org/namespaces/inkscape"
   xmlns:sodipodi="http://sodipodi.sourceforge.net/DTD/sodipodi-0.dtd"
   xmlns="http://www.w3.org/2000/svg"
   xmlns:svg="http://www.w3.org/2000/svg">
  <sodipodi:namedview
     stroke="#ef2929"
     fill="#f57900"
     id="base"
     pagecolor="#cccccc"
     bordercolor="#666666"
     borderopacity="1"
     inkscape:pageopacity="0"
     inkscape:pageshadow="2"
     inkscape:zoom="2"
     inkscape:cx="194.25"
     inkscape:cy="168.5"
     inkscape:current-layer="layer8"
     showgrid="false"
     inkscape:grid-bbox="true"
     inkscape:document-units="px"
     inkscape:showpageshadow="true"
     inkscape:window-width="1920"
     inkscape:window-height="1011"
     inkscape:window-x="0"
     inkscape:window-y="0"
     width="400px"
     height="300px"
     inkscape:snap-nodes="true"
     inkscape:snap-bbox="true"
     gridtolerance="10000"
     inkscape:object-nodes="true"
     inkscape:snap-grids="true"
     showguides="false"
     inkscape:guide-bbox="true"
     inkscape:window-maximized="1"
     inkscape:bbox-paths="true"
     inkscape:snap-bbox-midpoints="true"
     inkscape:snap-global="false"
     inkscape:object-paths="true"
     inkscape:snap-intersection-paths="true"
     inkscape:snap-smooth-nodes="true"
     inkscape:pagecheckerboard="false"
     showborder="true"
     inkscape:document-rotation="0"
     inkscape:deskcolor="#d1d1d1">
    <inkscape:grid
       spacingy="1"
       spacingx="1"
       id="grid5883"
       type="xygrid"
       enabled="true"
       visible="false"
       empspacing="4"
       snapvisiblegridlinesonly="true"
       originx="0"
       originy="0"
       units="px" />
    <inkscape:grid
       type="xygrid"
       id="grid11592"
       empspacing="2"
       visible="false"
       enabled="false"
       spacingx="0.5"
       spacingy="0.5"
       color="#ff0000"
       opacity="0.1254902"
       empcolor="#ff0000"
       empopacity="0.25098039"
       snapvisiblegridlinesonly="true"
       originx="0"
       originy="0"
       units="px" />
    <sodipodi:guide
       position="394.16276,545.36183"
       orientation="0,-1"
       id="guide864"
       inkscape:locked="false" />
  </sodipodi:namedview>
  <defs
     id="defs3" />
  <g
     style="display:inline"
     inkscape:groupmode="layer"
     inkscape:label="Icon"
     id="layer1">
    <g
       inkscape:groupmode="layer"
       id="layer4"
       inkscape:label="Shadow"
       style="display:inline;opacity:0.4">
      <path
         id="rect3"
         style="display:inline;opacity:0.4;fill:#000000;stroke-width:6.64319;stroke-linecap:round;stroke-linejoin:round;paint-order:stroke markers fill;enable-background:new"
         d="m 40,128 v 97.37109 C 40,235.69114 48.308858,244 58.628906,244 H 197.37109 C 207.69114,244 216,235.69114 216,225.37109 V 128 Z"
         sodipodi:nodetypes="csssscc" />
    </g>
    <g
       inkscape:groupmode="layer"
       id="layer2"
       inkscape:label="Background"
       style="display:inline">
      <path
         id="rect2"
         style="fill:#f9f9f9;stroke-width:6.64319;stroke-linecap:round;stroke-linejoin:round;paint-order:stroke markers fill"
         d="M 58.628906,16 C 48.308858,16 40,24.308858 40,34.628906 V 221.37109 C 40,231.69114 48.308858,240 58.628906,240 H 197.37109 C 207.69114,240 216,231.69114 216,221.37109 L 215.99414,80 l -64,-64 z"
         sodipodi:nodetypes="ssssscccs" />
    </g>
    <g
       inkscape:groupmode="layer"
       id="layer8"
       inkscape:label="Graphic"
       style="display:inline">
      <path
         style="font-weight:bold;font-size:40px;line-height:1.25;font-family:Cantarell;-inkscape-font-specification:'Cantarell Bold';white-space:pre;fill:#333333;stroke-width:1"
         d="m 141.56945,192 h 18.04457 v -43.19349 c 0,-16.6238 -9.8037,-26.99592 -25.43286,-26.99592 -9.94582,0 -19.03915,4.40459 -25.57501,13.35588 l 2.69961,11.08253 c 4.68872,-5.96752 10.22996,-8.66711 16.62371,-8.66711 9.09332,0 13.63998,4.97294 13.63998,14.35047 z m -45.324542,0 H 114.14743 V 87.000045 H 96.244908 Z"
         id="text1"
         aria-label="h" />
      <path
         id="rect1"
         style="display:inline;fill:#c6c6c6;fill-opacity:1;stroke-width:2.81803;stroke-linecap:round;stroke-linejoin:round;paint-order:stroke markers fill;enable-background:new"
         d="m 65,43 v 8 h 70 v -8 z m 0,18 v 8 h 70 v -8 z m 0,18 v 8 h 23.242188 v -8 z m 57.14648,0 v 8 H 135 V 79 Z M 65,97 v 8 h 23.242188 v -8 z m 57.14648,0 v 8 H 191 V 97 Z M 65,115 v 8 h 23.242188 v -8 z m 78.72266,0 c 5.49514,1.42806 10.41584,4.1252 14.28515,8 H 191 v -8 z M 65,133 v 8 h 23.242188 v -8 z m 99.62891,0 c 1.05111,2.50974 1.82618,5.19139 2.32226,8 H 191 v -8 z M 65,151 v 8 h 23.242188 v -8 z m 57.14648,0 v 8 h 11.42579 v -7.06641 c 0,-0.33042 -0.006,-0.6415 -0.0195,-0.93359 z m 45.46875,0 v 8 H 191 v -8 z M 65,169 v 8 h 23.242188 v -8 z m 57.14648,0 v 8 h 11.42579 v -8 z m 45.46875,0 v 8 H 191 v -8 z M 65,187 v 8 h 23.242188 v -8 z m 57.14648,0 v 8 h 11.42579 v -8 z m 45.46875,0 v 8 H 191 v -8 z M 65,205 v 8 h 126 v -8 z"
         sodipodi:nodetypes="ccccccccccccccccccccccccccccccccccccccccccccccccccccccccccscccccccccccccccccccccccccccccccccccccccccc" />
    </g>
    <g
       inkscape:groupmode="layer"
       id="layer3"
       inkscape:label="Highlights"
       style="display:inline;enable-background:new">
      <path
         id="path2"
         style="display:inline;opacity:0.6;fill:#ffffff;stroke-width:6.64319;stroke-linecap:round;stroke-linejoin:round;paint-order:stroke markers fill;enable-background:new"
         d="M 58.628906,16 C 48.308869,16 40,24.308869 40,34.628906 v 2 C 40,26.308869 48.308869,18 58.628906,18 h 93.365234 l 64,64 v -2 l -64,-64 z"
         sodipodi:nodetypes="sscsccccs" />
      <path
         id="path3"
         style="display:inline;opacity:0.2;fill:#ffffff;stroke-width:6.64319;stroke-linecap:round;stroke-linejoin:round;paint-order:stroke markers fill;enable-background:new"
         d="m 40,128 v 93.37109 C 40,231.69113 48.308869,240 58.628906,240 H 197.37109 C 207.69113,240 216,231.69113 216,221.37109 V 128 Z"
         sodipodi:nodetypes="csssscc" />
      <path
         id="path4"
         style="display:inline;opacity:0.1;fill:#ffffff;stroke-width:6.64319;stroke-linecap:round;stroke-linejoin:round;paint-order:stroke markers fill;enable-background:new"
         d="m 128,16 v 224 h 69.37109 C 207.69113,240 216,231.69113 216,221.37109 L 215.994,80 l -64,-64 z"
         sodipodi:nodetypes="ccscccc" />
    </g>
    <g
       inkscape:groupmode="layer"
       id="layer6"
       inkscape:label="Folded corner"
       style="display:inline">
      <path
         id="path6"
         style="opacity:0.4;fill:#000000;stroke-width:12.6323;stroke-linecap:round;stroke-linejoin:round;paint-order:stroke markers fill"
         inkscape:transform-center-y="-10.667154"
         d="M 152,20 V 65.371094 C 152,75.690974 160.30706,84 170.62695,84 H 216 v -4 h -3.99023 v 0.0098 C 192.0061,60.007887 172.00326,40.003255 152,20 Z"
         sodipodi:nodetypes="cssccccc" />
      <path
         id="path5"
         style="opacity:1;fill:#ececec;stroke-width:12.6323;stroke-linecap:round;stroke-linejoin:round;paint-order:stroke markers fill"
         inkscape:transform-center-y="-10.667154"
         d="M 152,16 V 61.371094 C 152,71.690985 160.30706,80 170.62696,80 H 216 C 194.66606,58.668561 173.33336,37.333354 152,16 Z"
         sodipodi:nodetypes="csscc" />
    </g>
  </g>
</svg>
