<?xml version="1.0" encoding="UTF-8" standalone="no"?>
<svg
   width="256"
   height="256"
   id="svg11300"
   sodipodi:version="0.32"
   sodipodi:docname="text-x-po.svg"
   version="1.0"
   style="display:inline;enable-background:new"
   inkscape:version="1.3 (0e150ed6c4, 2023-07-21)"
   xmlns:inkscape="http://www.inkscape.org/namespaces/inkscape"
   xmlns:sodipodi="http://sodipodi.sourceforge.net/DTD/sodipodi-0.dtd"
   xmlns="http://www.w3.org/2000/svg"
   xmlns:svg="http://www.w3.org/2000/svg">
  <sodipodi:namedview
     stroke="#ef2929"
     fill="#f57900"
     id="base"
     pagecolor="#cccccc"
     bordercolor="#666666"
     borderopacity="1"
     inkscape:pageopacity="0"
     inkscape:pageshadow="2"
     inkscape:zoom="2.0282194"
     inkscape:cx="48.071723"
     inkscape:cy="127.94474"
     inkscape:current-layer="layer1"
     showgrid="false"
     inkscape:grid-bbox="true"
     inkscape:document-units="px"
     inkscape:showpageshadow="true"
     inkscape:window-width="1920"
     inkscape:window-height="1011"
     inkscape:window-x="1920"
     inkscape:window-y="32"
     width="400px"
     height="300px"
     inkscape:snap-nodes="true"
     inkscape:snap-bbox="true"
     gridtolerance="10000"
     inkscape:object-nodes="true"
     inkscape:snap-grids="true"
     showguides="false"
     inkscape:guide-bbox="true"
     inkscape:window-maximized="1"
     inkscape:bbox-paths="true"
     inkscape:snap-bbox-midpoints="true"
     inkscape:snap-global="false"
     inkscape:object-paths="true"
     inkscape:snap-intersection-paths="true"
     inkscape:snap-smooth-nodes="true"
     inkscape:pagecheckerboard="false"
     showborder="true"
     inkscape:document-rotation="0"
     inkscape:deskcolor="#d1d1d1">
    <inkscape:grid
       spacingy="1"
       spacingx="1"
       id="grid5883"
       type="xygrid"
       enabled="true"
       visible="false"
       empspacing="4"
       snapvisiblegridlinesonly="true"
       originx="0"
       originy="0"
       units="px" />
    <inkscape:grid
       type="xygrid"
       id="grid11592"
       empspacing="2"
       visible="false"
       enabled="false"
       spacingx="0.5"
       spacingy="0.5"
       color="#ff0000"
       opacity="0.1254902"
       empcolor="#ff0000"
       empopacity="0.25098039"
       snapvisiblegridlinesonly="true"
       originx="0"
       originy="0"
       units="px" />
    <sodipodi:guide
       position="394.16276,545.36183"
       orientation="0,-1"
       id="guide864"
       inkscape:locked="false" />
  </sodipodi:namedview>
  <defs
     id="defs3" />
  <g
     style="display:inline"
     inkscape:groupmode="layer"
     inkscape:label="Icon"
     id="layer1">
    <g
       inkscape:groupmode="layer"
       id="layer4"
       inkscape:label="Shadow"
       style="display:inline;opacity:0.4;enable-background:new"
       transform="translate(-86,5)">
      <path
         id="rect3"
         style="display:inline;opacity:0.4;fill:#000000;stroke-width:6.64319;stroke-linecap:round;stroke-linejoin:round;paint-order:stroke markers fill;enable-background:new"
         d="m 126,123 v 97.37109 C 126,230.69114 134.30886,239 144.62891,239 H 283.37109 C 293.69114,239 302,230.69114 302,220.37109 V 123 Z" />
    </g>
    <g
       inkscape:groupmode="layer"
       id="layer2"
       inkscape:label="Background"
       style="display:inline;enable-background:new"
       transform="translate(-86,5)">
      <path
         id="rect2"
         style="display:inline;fill:#f9f9f9;stroke-width:6.64319;stroke-linecap:round;stroke-linejoin:round;paint-order:stroke markers fill;enable-background:new"
         d="M 144.62891,11 C 134.30886,11 126,19.308858 126,29.628906 V 216.37109 C 126,226.69114 134.30886,235 144.62891,235 H 283.37109 C 293.69114,235 302,226.69114 302,216.37109 V 29.628906 c 0,-0.03957 -0.006,-0.07768 -0.006,-0.117187 V 75 l -64,-64 z" />
      <path
         id="path1"
         style="display:inline;fill:#3784cb;stroke-width:6.64319;stroke-linecap:round;stroke-linejoin:round;paint-order:stroke markers fill;enable-background:new;fill-opacity:1"
         d="M 126 175 L 126 216.37109 C 126 226.69113 134.30887 235 144.62891 235 L 283.37109 235 C 293.69113 235 302 226.69113 302 216.37109 L 302 175 L 126 175 z " />
    </g>
    <g
       inkscape:groupmode="layer"
       id="layer8"
       inkscape:label="Graphic"
       style="display:inline;enable-background:new">
      <path
         id="path857"
         style="font-weight:bold;font-size:56px;line-height:1.25;font-family:Cantarell;-inkscape-font-specification:'Cantarell Bold';white-space:pre;display:inline;fill:#ffffff;enable-background:new"
         d="m 144.43555,190.03516 c -11.536,0 -19.20703,8.12144 -19.20703,20.27343 0,11.816 7.44648,19.65625 18.64648,19.65625 11.704,0 19.48828,-8.12144 19.48828,-20.27343 0,-11.76 -7.55973,-19.65625 -18.92773,-19.65625 z m -51.798831,0.56054 v 38.86524 h 7.222656 v -12.48828 h 4.873045 c 9.632,0 16.01563,-5.43271 16.01563,-13.72071 0,-7.784 -5.71121,-12.65625 -14.78321,-12.65625 z m 51.238281,5.76758 c 7.168,0 11.98437,5.54532 11.98438,13.94531 0,8.008 -4.59183,13.38282 -11.42383,13.38282 -7.056,0 -11.70313,-5.60001 -11.70313,-14 0,-8.00801 4.42258,-13.32813 11.14258,-13.32813 z m -44.015625,0.56055 h 5.431645 c 4.76,0 7.95312,2.91261 7.95312,7.22461 0,4.2 -2.63261,6.55078 -7.22461,6.55078 h -6.160155 z" />
      <g
         id="g917"
         style="display:inline;enable-background:new">
        <g
           id="g888">
          <rect
             style="opacity:0.4;fill:#000000;fill-opacity:1;stroke-width:1.72158;stroke-linecap:round;stroke-linejoin:round;paint-order:stroke markers fill"
             id="rect37208"
             width="54"
             height="54"
             x="97"
             y="111"
             ry="9.3347511" />
          <g
             id="g36348"
             transform="matrix(1.08,0,0,1.08,-2.36,-18.28)">
            <rect
               style="opacity:1;fill:#22ff60;fill-opacity:1;stroke-width:1.59406;stroke-linecap:round;stroke-linejoin:round;paint-order:stroke markers fill"
               id="rect14095"
               width="50"
               height="50"
               x="92"
               y="116"
               ry="8.6432877" />
            <path
               d="m 120.24,158.136 c 3.408,0 7.2,-0.864 10.032,-2.256 l -1.392,-4.464 c -2.16,0.816 -4.848,1.296 -7.152,1.296 -7.344,0 -11.904,-4.8 -11.904,-12.288 0,-7.056 4.128,-11.088 11.136,-11.088 2.688,0 5.712,0.528 7.872,1.392 l 1.728,-4.8 c -2.832,-1.344 -6.096,-2.064 -9.408,-2.064 -10.56,0 -17.712,6.96 -17.712,17.424 0,10.08 6.768,16.848 16.8,16.848 z"
               id="path36324"
               style="font-weight:bold;font-size:48px;line-height:1.25;font-family:Cantarell;-inkscape-font-specification:'Cantarell Bold';white-space:pre;fill:#ffffff" />
          </g>
        </g>
        <g
           id="g894">
          <rect
             style="opacity:0.4;fill:#000000;fill-opacity:1;stroke-width:1.72158;stroke-linecap:round;stroke-linejoin:round;paint-order:stroke markers fill"
             id="rect37102"
             width="54"
             height="54"
             x="69"
             y="79"
             ry="9.3347511" />
          <g
             id="g36252"
             transform="matrix(1.08,0,0,1.08,-13.08,-33)">
            <rect
               style="fill:#ff642b;fill-opacity:1;stroke-width:1.59406;stroke-linecap:round;stroke-linejoin:round;paint-order:stroke markers fill"
               id="rect14057"
               width="50"
               height="50"
               x="76"
               y="100"
               ry="8.6432877" />
            <path
               d="M 88.231998,141.656 H 100.664 c 8.064,0 13.104,-3.984 13.104,-10.32 0,-4.176 -2.208,-7.2 -6.048,-8.592 2.112,-1.392 3.408,-3.84 3.408,-6.48 0,-5.136 -4.176,-7.92 -11.856002,-7.92 h -11.04 z m 6.144,-28.32 h 4.416 c 3.888002,0 6.048002,1.632 6.048002,4.512 0,1.728 -0.816,3.072 -2.688,4.128 h -7.776002 z m 0,23.328 v -9.84 H 101.576 c 3.6,0 5.808,2.112 5.808,5.328 0,3.072 -1.872,4.512 -5.904,4.512 z"
               id="path36228"
               style="font-weight:bold;font-size:48px;line-height:1.25;font-family:Cantarell;-inkscape-font-specification:'Cantarell Bold';white-space:pre;fill:#ffffff" />
          </g>
        </g>
        <g
           id="g900">
          <rect
             style="opacity:0.4;fill:#000000;fill-opacity:1;stroke-width:1.72158;stroke-linecap:round;stroke-linejoin:round;paint-order:stroke markers fill"
             id="rect36996"
             width="54"
             height="54"
             x="101"
             y="51"
             ry="9.3347511" />
          <g
             id="g36278"
             transform="matrix(1.08,0,0,1.08,-7,-39.4)">
            <rect
               style="opacity:1;fill:#27d7df;fill-opacity:1;stroke-width:1.59406;stroke-linecap:round;stroke-linejoin:round;paint-order:stroke markers fill"
               id="rect11658"
               width="50"
               height="50"
               x="100"
               y="80"
               ry="8.6432877" />
            <path
               d="m 109.16,121.656 h 6.576 l 2.736,-8.352 h 12.768 l 2.736,8.352 h 6.864 L 129.272,88.344 h -7.92 z m 11.136,-13.872 4.608,-14.112003 4.56,14.112003 z"
               id="path36254"
               style="font-weight:bold;font-size:48px;line-height:1.25;font-family:Cantarell;-inkscape-font-specification:'Cantarell Bold';white-space:pre;fill:#ffffff" />
          </g>
        </g>
      </g>
    </g>
    <g
       inkscape:groupmode="layer"
       id="layer3"
       inkscape:label="Highlights"
       style="display:inline;enable-background:new"
       transform="translate(-86,5)">
      <path
         id="path2"
         style="display:inline;opacity:0.6;fill:#ffffff;stroke-width:6.64319;stroke-linecap:round;stroke-linejoin:round;paint-order:stroke markers fill;enable-background:new"
         d="M 144.62891,11 C 134.30887,11 126,19.308869 126,29.628906 v 2 C 126,21.308869 134.30887,13 144.62891,13 h 93.36523 l 64,64 v -2 l -64,-64 z m 157.36523,18.511719 v 2 c 0,0.03951 0.006,0.07762 0.006,0.117187 v -2 c 0,-0.03957 -0.006,-0.07768 -0.006,-0.117187 z" />
      <path
         id="path3"
         style="display:inline;opacity:0.2;fill:#ffffff;stroke-width:6.64319;stroke-linecap:round;stroke-linejoin:round;paint-order:stroke markers fill;enable-background:new"
         d="m 126,123 v 93.37109 C 126,226.69113 134.30887,235 144.62891,235 H 283.37109 C 293.69113,235 302,226.69113 302,216.37109 V 123 Z" />
      <path
         id="path4"
         style="display:inline;opacity:0.1;fill:#ffffff;stroke-width:6.64319;stroke-linecap:round;stroke-linejoin:round;paint-order:stroke markers fill;enable-background:new"
         d="m 214,11 v 224 h 69.37109 C 293.69113,235 302,226.69113 302,216.37109 V 29.628906 c 0,-0.03957 -0.006,-0.07768 -0.006,-0.117187 V 75 l -64,-64 z" />
      <path
         id="path8"
         style="display:inline;opacity:0.05;fill:#ffffff;stroke-width:6.64319;stroke-linecap:round;stroke-linejoin:round;paint-order:stroke markers fill;enable-background:new"
         d="m 302,175 -60,60 h 41.37109 C 293.69113,235 302,226.69113 302,216.37109 Z" />
    </g>
    <g
       inkscape:groupmode="layer"
       id="layer6"
       inkscape:label="Folded corner"
       style="display:inline;enable-background:new"
       transform="translate(-86,5)">
      <path
         id="path6"
         style="display:inline;opacity:0.4;fill:#000000;stroke-width:12.6323;stroke-linecap:round;stroke-linejoin:round;paint-order:stroke markers fill;enable-background:new"
         inkscape:transform-center-y="-10.667154"
         d="M 238,15 V 60.37109 C 238,70.69097 246.30706,79 256.62695,79 H 302 v -4 h -3.99023 v 0.01 C 278.0061,55.00789 258.00326,35.00325 238,15 Z"
         sodipodi:nodetypes="cssccccc" />
      <path
         id="path5"
         style="display:inline;fill:#ececec;stroke-width:12.6323;stroke-linecap:round;stroke-linejoin:round;paint-order:stroke markers fill;enable-background:new"
         inkscape:transform-center-y="-10.667154"
         d="M 238,11 V 56.37109 C 238,66.69098 246.30706,75 256.62696,75 H 302 C 280.66606,53.66856 259.33336,32.33335 238,11 Z"
         sodipodi:nodetypes="csscc" />
    </g>
  </g>
</svg>
