<?xml version="1.0" encoding="UTF-8" standalone="no"?>
<svg
   width="256"
   height="256"
   id="svg11300"
   sodipodi:version="0.32"
   sodipodi:docname="text-x-python3.svg"
   version="1.0"
   style="display:inline;enable-background:new"
   inkscape:version="1.3 (0e150ed6c4, 2023-07-21)"
   xmlns:inkscape="http://www.inkscape.org/namespaces/inkscape"
   xmlns:sodipodi="http://sodipodi.sourceforge.net/DTD/sodipodi-0.dtd"
   xmlns="http://www.w3.org/2000/svg"
   xmlns:svg="http://www.w3.org/2000/svg">
  <sodipodi:namedview
     stroke="#ef2929"
     fill="#f57900"
     id="base"
     pagecolor="#cccccc"
     bordercolor="#666666"
     borderopacity="1"
     inkscape:pageopacity="0"
     inkscape:pageshadow="2"
     inkscape:zoom="1.7087453"
     inkscape:cx="111.48531"
     inkscape:cy="106.80351"
     inkscape:current-layer="layer3"
     showgrid="false"
     inkscape:grid-bbox="true"
     inkscape:document-units="px"
     inkscape:showpageshadow="true"
     inkscape:window-width="1920"
     inkscape:window-height="1011"
     inkscape:window-x="1920"
     inkscape:window-y="32"
     width="400px"
     height="300px"
     inkscape:snap-nodes="true"
     inkscape:snap-bbox="true"
     gridtolerance="10000"
     inkscape:object-nodes="true"
     inkscape:snap-grids="true"
     showguides="false"
     inkscape:guide-bbox="true"
     inkscape:window-maximized="1"
     inkscape:bbox-paths="true"
     inkscape:snap-bbox-midpoints="true"
     inkscape:snap-global="false"
     inkscape:object-paths="true"
     inkscape:snap-intersection-paths="true"
     inkscape:snap-smooth-nodes="true"
     inkscape:pagecheckerboard="false"
     showborder="true"
     inkscape:document-rotation="0"
     inkscape:deskcolor="#d1d1d1">
    <inkscape:grid
       spacingy="1"
       spacingx="1"
       id="grid5883"
       type="xygrid"
       enabled="true"
       visible="false"
       empspacing="4"
       snapvisiblegridlinesonly="true"
       originx="0"
       originy="0"
       units="px" />
    <inkscape:grid
       type="xygrid"
       id="grid11592"
       empspacing="2"
       visible="false"
       enabled="false"
       spacingx="0.5"
       spacingy="0.5"
       color="#ff0000"
       opacity="0.1254902"
       empcolor="#ff0000"
       empopacity="0.25098039"
       snapvisiblegridlinesonly="true"
       originx="0"
       originy="0"
       units="px" />
    <sodipodi:guide
       position="394.16276,545.36183"
       orientation="0,-1"
       id="guide864"
       inkscape:locked="false" />
  </sodipodi:namedview>
  <defs
     id="defs3" />
  <g
     style="display:inline"
     inkscape:groupmode="layer"
     inkscape:label="Icon"
     id="layer1">
    <g
       inkscape:groupmode="layer"
       id="layer4"
       inkscape:label="Shadow"
       style="display:inline;opacity:0.4;enable-background:new"
       transform="translate(-22,-8)">
      <path
         id="rect3"
         style="display:inline;opacity:0.4;fill:#000000;stroke-width:6.64319;stroke-linecap:round;stroke-linejoin:round;paint-order:stroke markers fill;enable-background:new"
         d="m 62,136 v 97.37109 C 62,243.69114 70.308858,252 80.628906,252 H 219.37109 C 229.69114,252 238,243.69114 238,233.37109 V 136 Z"
         sodipodi:nodetypes="csssscc" />
    </g>
    <g
       inkscape:groupmode="layer"
       id="layer2"
       inkscape:label="Background"
       style="display:inline;enable-background:new"
       transform="translate(-22,-8)">
      <path
         id="rect2"
         style="display:inline;fill:#f9f9f9;stroke-width:6.64319;stroke-linecap:round;stroke-linejoin:round;paint-order:stroke markers fill;enable-background:new"
         d="M 80.628906,24 C 70.308858,24 62,32.308858 62,42.628906 V 229.37109 C 62,239.69114 70.308858,248 80.628906,248 H 219.37109 C 229.69114,248 238,239.69114 238,229.37109 L 237.994,88 l -64,-64 z"
         sodipodi:nodetypes="ssssscccs" />
    </g>
    <g
       inkscape:groupmode="layer"
       id="layer8"
       inkscape:label="Graphic"
       style="display:inline;enable-background:new">
      <g
         id="g1"
         transform="translate(0,4)">
        <path
           id="rect9"
           style="display:inline;fill:#e9d944;fill-opacity:1;stroke-width:4.61813;stroke-linecap:round;stroke-linejoin:round;paint-order:stroke markers fill;enable-background:new"
           d="m 159.59961,113.59961 v 18.66601 c -6.1e-4,0.30592 -0.0163,0.61163 -0.0469,0.91602 -0.0111,0.11492 -0.0317,0.22621 -0.0469,0.33984 -0.0217,0.17586 -0.0484,0.35106 -0.0801,0.5254 -0.0349,0.18178 -0.0798,0.3593 -0.125,0.5371 -0.0238,0.0987 -0.0492,0.19704 -0.0762,0.29493 -0.0686,0.23702 -0.1499,0.46852 -0.23633,0.69726 -0.01,0.0274 -0.0194,0.0547 -0.0293,0.082 -0.0943,0.24272 -0.19899,0.47868 -0.3125,0.71094 -0.0142,0.0294 -0.0285,0.0587 -0.043,0.0879 -0.11385,0.22686 -0.23782,0.44639 -0.36914,0.66211 -0.02,0.0333 -0.0402,0.0665 -0.0605,0.0996 -0.12958,0.20696 -0.26715,0.40796 -0.41211,0.60352 -0.0296,0.0406 -0.0596,0.081 -0.0898,0.12109 -0.14312,0.18668 -0.29461,0.36592 -0.45118,0.54102 -0.0386,0.044 -0.0777,0.0876 -0.11718,0.13085 -0.15686,0.16893 -0.31936,0.33143 -0.48829,0.48829 -0.0433,0.0395 -0.0869,0.0785 -0.13085,0.11718 -0.1751,0.15657 -0.35434,0.30806 -0.54102,0.45118 -0.0401,0.0303 -0.0805,0.0602 -0.12109,0.0898 -0.19556,0.14496 -0.39656,0.28253 -0.60352,0.41211 -0.0331,0.0204 -0.0663,0.0406 -0.0996,0.0605 -0.21572,0.13132 -0.43525,0.25529 -0.66211,0.36914 -0.0292,0.0145 -0.0585,0.0288 -0.0879,0.043 -0.23226,0.11351 -0.46822,0.21818 -0.71094,0.3125 -0.0273,0.01 -0.0546,0.0197 -0.082,0.0293 -0.22874,0.0864 -0.46024,0.16771 -0.69726,0.23633 -0.0979,0.027 -0.19621,0.0524 -0.29493,0.0762 -0.1778,0.0452 -0.35532,0.0901 -0.5371,0.125 -0.17434,0.0317 -0.34954,0.0584 -0.5254,0.0801 -0.11363,0.0152 -0.22492,0.0358 -0.33984,0.0469 -0.30439,0.0306 -0.6101,0.0463 -0.91602,0.0469 h -42.93164 v 0.002 c -2.06111,6e-4 -3.73182,1.67131 -3.73242,3.73242 v 28.17579 h -0.002 v 20.35546 c 0,5.17064 4.16339,9.33399 9.33398,9.33399 h 37.33203 c 5.17061,0 9.33399,-4.16335 9.33399,-9.33399 v -18.66601 h -25.19922 c -1.54623,4.7e-4 -2.80013,-1.25256 -2.80078,-2.79883 -4.3e-4,-1.54703 1.25378,-2.80125 2.80078,-2.80078 h 43.86523 c 5.17065,0 9.33399,-4.16334 9.33399,-9.33399 v -37.33203 c 0,-5.17063 -4.16334,-9.33398 -9.33399,-9.33398 z m -11,74.59961 c 2.20914,0 4,1.79086 4,4 0,2.20914 -1.79086,4 -4,4 -2.20914,0 -4,-1.79086 -4,-4 0,-2.20914 1.79086,-4 4,-4 z"
           sodipodi:nodetypes="ccccccccccccccccccccccccccccccccccccccssssccccsssscsssss" />
        <path
           id="rect10"
           style="display:inline;fill:#5379ea;fill-opacity:1;stroke-width:4.61813;stroke-linecap:round;stroke-linejoin:round;paint-order:stroke markers fill;enable-background:new"
           d="m 107.33398,74.400391 c -5.17059,0 -9.33398,4.16336 -9.33398,9.333984 v 18.666015 h 25.19922 c 1.54623,-4.7e-4 2.80013,1.25256 2.80078,2.79883 4.3e-4,1.54703 -1.25378,2.80125 -2.80078,2.80078 H 79.333984 C 74.163341,108 70,112.16335 70,117.33398 v 37.33204 C 70,159.83665 74.163341,164 79.333984,164 H 98 v -18.66602 c 0,-0.81874 0.114297,-1.60757 0.310547,-2.36328 0.0083,-0.0313 0.01677,-0.0625 0.02539,-0.0937 0.211078,-0.77927 0.517106,-1.516 0.910156,-2.19922 0.0045,-0.008 0.0091,-0.0169 0.01367,-0.0254 0.815047,-1.40662 1.985957,-2.57753 3.392577,-3.39257 0.008,-0.005 0.0169,-0.009 0.0254,-0.0137 0.68322,-0.39305 1.41995,-0.69907 2.19922,-0.91015 0.0312,-0.009 0.0625,-0.0171 0.0937,-0.0254 C 105.72641,136.1143 106.51524,136 107.33398,136 h 42.93164 v -0.002 c 2.06112,-5.9e-4 3.73184,-1.67131 3.73243,-3.73243 H 154 v -8.30659 -40.224605 c 0,-5.170624 -4.16339,-9.333984 -9.33398,-9.333984 z m 1.66602,7 c 2.20914,0 4,1.790869 4,4 0,2.209127 -1.79086,4 -4,4 -2.20914,0 -4,-1.790873 -4,-4 0,-2.209131 1.79086,-4 4,-4 z"
           sodipodi:nodetypes="ssccccsssscsccccccccscccccssssssss" />
      </g>
    </g>
    <g
       inkscape:groupmode="layer"
       id="layer3"
       inkscape:label="Highlights"
       style="display:inline;enable-background:new"
       transform="translate(-22,-8)">
      <path
         id="path2"
         style="display:inline;opacity:0.6;fill:#ffffff;stroke-width:6.64319;stroke-linecap:round;stroke-linejoin:round;paint-order:stroke markers fill;enable-background:new"
         d="M 80.628906 24 C 70.30888 24 62 32.30888 62 42.628906 L 62 44.628906 C 62 34.30888 70.30888 26 80.628906 26 L 173.99414 26 L 235.99414 88 L 237.99414 88 L 173.99414 24 L 80.628906 24 z " />
      <path
         id="path3"
         style="display:inline;opacity:0.1;fill:#ffffff;stroke-width:6.64319;stroke-linecap:round;stroke-linejoin:round;paint-order:stroke markers fill;enable-background:new"
         d="m 62,136 v 93.37109 C 62,239.69113 70.308869,248 80.628906,248 H 219.37109 C 229.69113,248 238,239.69113 238,229.37109 V 136 Z"
         sodipodi:nodetypes="csssscc" />
      <path
         id="path4"
         style="display:inline;opacity:0.1;fill:#ffffff;stroke-width:6.64319;stroke-linecap:round;stroke-linejoin:round;paint-order:stroke markers fill;enable-background:new"
         d="m 150,24 v 224 h 69.37109 C 229.69113,248 238,239.69113 238,229.37109 L 237.994,88 l -64,-64 z"
         sodipodi:nodetypes="ccscccc" />
      <path
         id="path8"
         style="display:inline;opacity:0.6;fill:#ffffff;stroke-width:6.64319;stroke-linecap:round;stroke-linejoin:round;paint-order:stroke markers fill;enable-background:new"
         d="m 238,188 -60,60 h 41.37109 C 229.69113,248 238,239.69113 238,229.37109 Z"
         sodipodi:nodetypes="ccssc" />
    </g>
    <g
       inkscape:groupmode="layer"
       id="layer6"
       inkscape:label="Folded corner"
       style="display:inline;enable-background:new"
       transform="translate(-22,-8)">
      <path
         id="path6"
         style="display:inline;opacity:0.4;fill:#000000;stroke-width:12.6323;stroke-linecap:round;stroke-linejoin:round;paint-order:stroke markers fill;enable-background:new"
         inkscape:transform-center-y="-10.667154"
         d="M 174,28 V 73.37109 C 174,83.69097 182.30706,92 192.62695,92 H 238 v -4 h -3.99023 v 0.01 C 214.0061,68.00789 194.00326,48.00325 174,28 Z"
         sodipodi:nodetypes="cssccccc" />
      <path
         id="path5"
         style="display:inline;fill:#ececec;stroke-width:12.6323;stroke-linecap:round;stroke-linejoin:round;paint-order:stroke markers fill;enable-background:new"
         inkscape:transform-center-y="-10.667154"
         d="M 174,24 V 69.37109 C 174,79.69098 182.30706,88 192.62696,88 H 238 C 216.66606,66.66856 195.33336,45.33335 174,24 Z"
         sodipodi:nodetypes="csscc" />
    </g>
  </g>
</svg>
