<?xml version="1.0" encoding="UTF-8" standalone="no"?>
<svg
   xmlns:dc="http://purl.org/dc/elements/1.1/"
   xmlns:cc="http://creativecommons.org/ns#"
   xmlns:rdf="http://www.w3.org/1999/02/22-rdf-syntax-ns#"
   xmlns:svg="http://www.w3.org/2000/svg"
   xmlns="http://www.w3.org/2000/svg"
   xmlns:xlink="http://www.w3.org/1999/xlink"
   xmlns:sodipodi="http://sodipodi.sourceforge.net/DTD/sodipodi-0.dtd"
   xmlns:inkscape="http://www.inkscape.org/namespaces/inkscape"
   inkscape:export-ydpi="90.000000"
   inkscape:export-xdpi="90.000000"
   width="256"
   height="256"
   id="svg11300"
   sodipodi:version="0.32"
   inkscape:version="1.0.2 (e86c870879, 2021-01-15)"
   sodipodi:docname="text-x-xges.svg"
   inkscape:output_extension="org.inkscape.output.svg.inkscape"
   version="1.0"
   style="display:inline;enable-background:new"
   inkscape:export-filename="/home/sam/suru-template.png">
  <sodipodi:namedview
     stroke="#ef2929"
     fill="#f57900"
     id="base"
     pagecolor="#ffffff"
     bordercolor="#666666"
     borderopacity="1"
     inkscape:pageopacity="0"
     inkscape:pageshadow="2"
     inkscape:zoom="2.0000001"
     inkscape:cx="272.15903"
     inkscape:cy="145.90465"
     inkscape:current-layer="layer2"
     showgrid="false"
     inkscape:grid-bbox="true"
     inkscape:document-units="px"
     inkscape:showpageshadow="true"
     inkscape:window-width="1920"
     inkscape:window-height="1016"
     inkscape:window-x="1920"
     inkscape:window-y="27"
     width="400px"
     height="300px"
     inkscape:snap-nodes="true"
     inkscape:snap-bbox="true"
     gridtolerance="10000"
     inkscape:object-nodes="true"
     inkscape:snap-grids="true"
     showguides="false"
     inkscape:guide-bbox="true"
     inkscape:window-maximized="1"
     inkscape:bbox-paths="true"
     inkscape:snap-bbox-midpoints="true"
     inkscape:snap-global="false"
     inkscape:object-paths="true"
     inkscape:snap-intersection-paths="true"
     inkscape:snap-smooth-nodes="true"
     inkscape:pagecheckerboard="false"
     showborder="true"
     inkscape:document-rotation="0">
    <inkscape:grid
       spacingy="1"
       spacingx="1"
       id="grid5883"
       type="xygrid"
       enabled="true"
       visible="true"
       empspacing="4"
       snapvisiblegridlinesonly="true"
       originx="0"
       originy="0" />
    <inkscape:grid
       type="xygrid"
       id="grid11592"
       empspacing="2"
       visible="true"
       enabled="false"
       spacingx="0.5"
       spacingy="0.5"
       color="#ff0000"
       opacity="0.1254902"
       empcolor="#ff0000"
       empopacity="0.25098039"
       snapvisiblegridlinesonly="true"
       originx="0"
       originy="0" />
    <sodipodi:guide
       position="394.16276,545.36183"
       orientation="0,-1"
       id="guide864" />
  </sodipodi:namedview>
  <defs
     id="defs3">
    <linearGradient
       gradientUnits="userSpaceOnUse"
       y2="401.58368"
       x2="-74.916695"
       y1="401.58368"
       x1="525.92114"
       id="linearGradient4226"
       xlink:href="#linearGradient4338"
       inkscape:collect="always"
       gradientTransform="matrix(0,-0.45312414,0.45309296,0,2.0445942,239.99957)" />
    <linearGradient
       inkscape:collect="always"
       id="linearGradient4338">
      <stop
         style="stop-color:#f2f2f2;stop-opacity:1"
         offset="0"
         id="stop4340" />
      <stop
         style="stop-color:#f9f9f9;stop-opacity:1"
         offset="1"
         id="stop4342" />
    </linearGradient>
  </defs>
  <metadata
     id="metadata4">
    <rdf:RDF>
      <cc:Work
         rdf:about="">
        <dc:format>image/svg+xml</dc:format>
        <dc:type
           rdf:resource="http://purl.org/dc/dcmitype/StillImage" />
        <dc:creator>
          <cc:Agent>
            <dc:title>Sam Hewitt</dc:title>
          </cc:Agent>
        </dc:creator>
        <dc:source />
        <cc:license
           rdf:resource="http://creativecommons.org/licenses/by-sa/4.0/" />
        <dc:title>Suru Icon Theme Template</dc:title>
        <dc:subject>
          <rdf:Bag />
        </dc:subject>
        <dc:date />
        <dc:rights>
          <cc:Agent>
            <dc:title />
          </cc:Agent>
        </dc:rights>
        <dc:publisher>
          <cc:Agent>
            <dc:title />
          </cc:Agent>
        </dc:publisher>
        <dc:identifier />
        <dc:relation />
        <dc:language />
        <dc:coverage />
        <dc:description />
        <dc:contributor>
          <cc:Agent>
            <dc:title />
          </cc:Agent>
        </dc:contributor>
      </cc:Work>
      <cc:Work
         rdf:about="">
        <dc:format>image/svg+xml</dc:format>
        <dc:type
           rdf:resource="http://purl.org/dc/dcmitype/StillImage" />
      </cc:Work>
      <cc:License
         rdf:about="http://creativecommons.org/licenses/by-sa/4.0/">
        <cc:permits
           rdf:resource="http://creativecommons.org/ns#Reproduction" />
        <cc:permits
           rdf:resource="http://creativecommons.org/ns#Distribution" />
        <cc:requires
           rdf:resource="http://creativecommons.org/ns#Notice" />
        <cc:requires
           rdf:resource="http://creativecommons.org/ns#Attribution" />
        <cc:permits
           rdf:resource="http://creativecommons.org/ns#DerivativeWorks" />
        <cc:requires
           rdf:resource="http://creativecommons.org/ns#ShareAlike" />
      </cc:License>
    </rdf:RDF>
  </metadata>
  <g
     style="display:inline"
     inkscape:groupmode="layer"
     inkscape:label="Icon"
     id="layer1">
    <g
       inkscape:groupmode="layer"
       id="layer4"
       inkscape:label="Shadow"
       style="display:inline;opacity:0.4">
      <path
         id="path861"
         style="color:#000000;display:inline;overflow:visible;visibility:visible;fill:#000000;fill-opacity:1;fill-rule:nonzero;stroke:none;stroke-width:0.999985;marker:none;enable-background:accumulate"
         d="M 78.92654,20 C 43.630841,20 39.832874,23.626097 40.005859,58.994141 V 132 205.00586 C 39.832874,240.37391 43.630841,244 78.92654,244 h 98.15324 c 35.2957,0 38.92068,-3.62568 38.92068,-38.99414 V 132 58.994141 c 0,-0.265209 -0.005,-0.490304 -0.006,-0.751953 V 80 l -0.004,-0.0039 V 80 H 155.9923 V 20 Z" />
    </g>
    <g
       inkscape:groupmode="layer"
       id="layer2"
       inkscape:label="Background"
       style="display:inline">
      <path
         id="rect4158"
         style="color:#000000;display:inline;overflow:visible;visibility:visible;fill:url(#linearGradient4226);fill-opacity:1;fill-rule:nonzero;stroke:none;stroke-width:0.999978;marker:none;enable-background:accumulate"
         d="m 78.926029,16 c -35.295236,0 -39.093153,3.626097 -38.92017,38.994141 0,48.670569 0,97.341149 0,146.011719 C 39.832876,236.37391 43.630793,240 78.926029,240 h 98.151951 c 35.29524,0 38.92017,-3.62568 38.92017,-38.99414 0.007,-38.9552 -0.005,-86.92306 -0.006,-121.00586 L 151.99509,16.003906 C 126.16771,16.003152 90.553338,16 78.926029,16 Z"
         sodipodi:nodetypes="cccsscccc" />
    </g>
    <g
       inkscape:groupmode="layer"
       id="layer8"
       inkscape:label="Graphic"
       style="display:inline">
      <path
         id="path1169"
         style="display:inline;fill:#951eaf;fill-opacity:1;stroke-width:0.0466669;stroke-miterlimit:4;stroke-dasharray:none;paint-order:stroke fill markers"
         d="M 81.433593,84 C 76.207273,84 72,88.207379 72,93.4338 c 0,23.04413 0,46.08826 0,69.1324 0,5.22642 4.207283,9.4338 9.433593,9.4338 H 174.56445 C 179.79076,172 184,167.79262 184,162.5662 184,136.37746 184,110.18874 184,84 h -14.27148 l 4.65039,7.998228 v 0.002 l -4.65039,8.000172 h -13.10938 l 4.65039,-8.000172 -4.65039,-8.000178 h -11.89062 l 4.65039,8.000178 -4.65039,8.000172 h -13.10743 l 4.65039,-8.000172 -4.65039,-8.000178 h -11.89062 l 4.65039,7.998178 v 0.002 l -4.65039,8.000172 h -13.10938 l 4.65039,-8.000172 -4.65039,-8.000178 H 94.730469 l 4.65039,7.998178 v 0.002 l -4.65039,8.000172 H 81.621093 L 86.271484,92.000228 81.621093,84.00005 Z M 110,116.00071 h 2 v 12.00027 h 32 v -12.00027 h 2 v 12.00027 h 20 c 1.06199,0 2,0.93406 2,1.99809 -26.66667,0 -53.33333,0 -80,0 0,-1.10803 0.983,-1.99809 2,-1.99809 h 20 z m -22,29.99872 h 80 c 0,1.054 -0.91301,2.00003 -2,2.00003 H 90 c -0.985,0 -2,-1.03003 -2,-2.00003 z"
         sodipodi:nodetypes="sccsscccccccccccccccccccccccccccccscccccccsccsccccssc" />
    </g>
    <g
       inkscape:groupmode="layer"
       id="layer3"
       inkscape:label="Highlights"
       style="display:inline">
      <path
         id="path4231"
         style="color:#000000;display:inline;overflow:visible;visibility:visible;opacity:0.1;fill:#ffffff;fill-opacity:1;fill-rule:nonzero;stroke:none;stroke-width:0.999978;marker:none;enable-background:accumulate"
         d="M 128 16.001953 L 128 240 L 177.07812 240 C 212.3714 239.99986 215.07788 236.36172 215.99609 201.00586 L 215.99609 128 L 215.99609 112 C 215.99432 100.81565 215.99219 89.113631 215.99219 80 L 151.99414 16.003906 C 143.51296 16.003659 137.39596 16.002521 128 16.001953 z " />
      <path
         inkscape:connector-curvature="0"
         style="color:#000000;display:inline;overflow:visible;visibility:visible;opacity:0.2;fill:#ffffff;fill-opacity:1;fill-rule:nonzero;stroke:none;stroke-width:0.999978;marker:none;enable-background:accumulate"
         d="m 40.003546,127.99979 v 73.00669 c -0.172983,35.36805 3.625003,38.99309 38.920241,38.99309 h 98.152103 c 35.29524,0 38.00202,-3.63654 38.92025,-38.99309 v -73.00669 z"
         id="path4255"
         sodipodi:nodetypes="ccssscc" />
      <path
         style="color:#000000;display:inline;overflow:visible;visibility:visible;opacity:0.6;fill:#ffffff;fill-opacity:1;fill-rule:nonzero;stroke:none;stroke-width:7.99983;stroke-linecap:butt;stroke-linejoin:miter;stroke-miterlimit:4;stroke-dasharray:none;stroke-dashoffset:0;stroke-opacity:1;marker:none;enable-background:accumulate"
         d="m 155.99866,239.99957 59.99748,-59.99988 v 22.48383 c -0.0523,33.99575 -3.80252,37.51605 -38.1725,37.51605 z"
         id="path4254"
         inkscape:connector-curvature="0"
         sodipodi:nodetypes="cccsc" />
      <path
         style="color:#000000;display:inline;overflow:visible;visibility:visible;opacity:0.6;fill:#ffffff;fill-opacity:1;fill-rule:nonzero;stroke:none;stroke-width:0.999978;marker:none;enable-background:accumulate"
         d="m 78.924076,16 c -35.295241,0 -39.093153,3.626097 -38.92017,38.994141 v 2 C 39.830923,21.626096 43.628835,18 78.924076,18 H 153.9911 l -1.99601,-1.996094 h 25.00086 c 0.46362,-0.0023 0.86163,0.0065 1.3144,0.0059 C 177.88453,16.008609 177.51143,16 177.07603,16 Z"
         id="path931" />
    </g>
    <g
       inkscape:groupmode="layer"
       id="layer6"
       inkscape:label="Folded corner"
       style="display:inline">
      <path
         inkscape:connector-curvature="0"
         style="color:#000000;display:inline;overflow:visible;visibility:visible;opacity:0.4;fill:#000000;fill-opacity:1;fill-rule:nonzero;stroke:none;stroke-width:1.00004;marker:none;enable-background:accumulate"
         d="m 215.99229,80 -63.9972,-62 v 22.998427 1.000017 0.537119 c 0,35.294867 3.62622,39.632617 38.99602,39.459634 13.80488,0 25.00118,-0.271165 25.00118,-1.995197 z"
         id="path872"
         sodipodi:nodetypes="ccccscc" />
      <path
         inkscape:connector-curvature="0"
         style="color:#000000;display:inline;overflow:visible;visibility:visible;fill:#f9f9f9;fill-opacity:1;fill-rule:nonzero;stroke:none;stroke-width:1.00004;marker:none;enable-background:accumulate"
         d="M 215.99229,79.995197 151.99509,16 v 22.998427 1.000017 0.537119 c 0,35.294867 3.62622,39.632617 38.99602,39.459634 z"
         id="rect4158-0-3" />
    </g>
  </g>
</svg>
