<?xml version="1.0" encoding="UTF-8" standalone="no"?>
<svg
   width="256"
   height="256"
   id="svg11300"
   sodipodi:version="0.32"
   sodipodi:docname="x-office-spreadsheet.svg"
   version="1.0"
   style="display:inline;enable-background:new"
   inkscape:version="1.4 (e7c3feb100, 2024-10-09)"
   xmlns:inkscape="http://www.inkscape.org/namespaces/inkscape"
   xmlns:sodipodi="http://sodipodi.sourceforge.net/DTD/sodipodi-0.dtd"
   xmlns:xlink="http://www.w3.org/1999/xlink"
   xmlns="http://www.w3.org/2000/svg"
   xmlns:svg="http://www.w3.org/2000/svg">
  <sodipodi:namedview
     stroke="#ef2929"
     fill="#f57900"
     id="base"
     pagecolor="#cccccc"
     bordercolor="#666666"
     borderopacity="1"
     inkscape:pageopacity="0"
     inkscape:pageshadow="2"
     inkscape:zoom="1.909379"
     inkscape:cx="127.26651"
     inkscape:cy="108.41221"
     inkscape:current-layer="layer2"
     showgrid="false"
     inkscape:grid-bbox="true"
     inkscape:document-units="px"
     inkscape:showpageshadow="true"
     inkscape:window-width="1920"
     inkscape:window-height="1011"
     inkscape:window-x="0"
     inkscape:window-y="0"
     width="400px"
     height="300px"
     inkscape:snap-nodes="true"
     inkscape:snap-bbox="true"
     gridtolerance="10000"
     inkscape:object-nodes="true"
     inkscape:snap-grids="true"
     showguides="false"
     inkscape:guide-bbox="true"
     inkscape:window-maximized="1"
     inkscape:bbox-paths="true"
     inkscape:snap-bbox-midpoints="true"
     inkscape:snap-global="false"
     inkscape:object-paths="true"
     inkscape:snap-intersection-paths="true"
     inkscape:snap-smooth-nodes="true"
     inkscape:pagecheckerboard="false"
     showborder="true"
     inkscape:document-rotation="0"
     inkscape:deskcolor="#d1d1d1">
    <inkscape:grid
       spacingy="1"
       spacingx="1"
       id="grid5883"
       type="xygrid"
       enabled="true"
       visible="false"
       empspacing="4"
       snapvisiblegridlinesonly="true"
       originx="0"
       originy="0"
       units="px" />
    <inkscape:grid
       type="xygrid"
       id="grid11592"
       empspacing="2"
       visible="false"
       enabled="false"
       spacingx="0.5"
       spacingy="0.5"
       color="#ff0000"
       opacity="0.1254902"
       empcolor="#ff0000"
       empopacity="0.25098039"
       snapvisiblegridlinesonly="true"
       originx="0"
       originy="0"
       units="px" />
    <sodipodi:guide
       position="394.16276,545.36183"
       orientation="0,-1"
       id="guide864"
       inkscape:locked="false" />
  </sodipodi:namedview>
  <defs
     id="defs3">
    <linearGradient
       inkscape:collect="always"
       id="linearGradient1070">
      <stop
         style="stop-color:#2f9dd5;stop-opacity:0.99993408;"
         offset="0"
         id="stop1066" />
      <stop
         style="stop-color:#20e9a7;stop-opacity:0.99993408;"
         offset="1"
         id="stop1068" />
    </linearGradient>
    <linearGradient
       inkscape:collect="always"
       xlink:href="#linearGradient1070"
       id="linearGradient1072"
       x1="65"
       y1="213"
       x2="135"
       y2="115"
       gradientUnits="userSpaceOnUse"
       gradientTransform="matrix(0,-1.1428571,-1.1817298,0,321.80304,276.2857)" />
  </defs>
  <g
     style="display:inline"
     inkscape:groupmode="layer"
     inkscape:label="Icon"
     id="layer1">
    <g
       inkscape:groupmode="layer"
       id="layer4"
       inkscape:label="Shadow"
       style="display:inline;opacity:0.4">
      <path
         id="rect3"
         style="display:inline;opacity:0.4;fill:#000000;stroke-width:6.64319;stroke-linecap:round;stroke-linejoin:round;paint-order:stroke markers fill;enable-background:new"
         d="m 40,128 v 97.37109 C 40,235.69114 48.308858,244 58.628906,244 H 197.37109 C 207.69114,244 216,235.69114 216,225.37109 V 128 Z"
         sodipodi:nodetypes="csssscc" />
    </g>
    <g
       inkscape:groupmode="layer"
       id="layer2"
       inkscape:label="Background"
       style="display:inline">
      <path
         id="rect2"
         style="fill:#f9f9f9;stroke-width:6.64319;stroke-linecap:round;stroke-linejoin:round;paint-order:stroke markers fill"
         d="M 58.628906,16 C 48.308858,16 40,24.308858 40,34.628906 V 221.37109 C 40,231.69114 48.308858,240 58.628906,240 H 197.37109 C 207.69114,240 216,231.69114 216,221.37109 L 215.99414,80 l -64,-64 z"
         sodipodi:nodetypes="ssssscccs" />
      <path
         id="path63"
         style="display:inline;enable-background:new;opacity:0.07;fill:#000000;fill-opacity:1;stroke-width:2.81803;stroke-linecap:round;stroke-linejoin:round;paint-order:stroke markers fill"
         d="M 58.628906 16 C 48.308858 16 40 24.308858 40 34.628906 L 40 221.37109 C 40 231.69114 48.308858 240 58.628906 240 L 66 240 L 76 240 L 84 240 L 94 240 L 102 240 L 112 240 L 120 240 L 130 240 L 138 240 L 148 240 L 156 240 L 166 240 L 174 240 L 184 240 L 192 240 L 197.37109 240 C 203.73156 240 209.31953 236.83792 212.67773 232 L 210 232 L 210 222 L 215.96875 222 C 215.97573 221.7894 216 221.58345 216 221.37109 L 216 214 L 210 214 L 210 204 L 216 204 L 215.99805 196 L 210 196 L 210 186 L 215.99805 186 L 215.99805 178 L 210 178 L 210 168 L 215.99805 168 L 215.99805 160 L 210 160 L 210 150 L 215.99609 150 L 215.99609 142 L 210 142 L 210 132 L 215.99609 132 L 215.99609 124 L 210 124 L 210 114 L 215.99609 114 L 215.99609 106 L 210 106 L 210 96 L 215.99414 96 L 215.99414 88 L 210 88 L 210 78 L 213.99414 78 L 202 66.005859 L 202 70 L 192 70 L 192 60 L 195.99414 60 L 184 48.005859 L 184 52 L 174 52 L 174 42 L 177.99414 42 L 166 30.005859 L 166 34 L 156 34 L 156 24 L 159.99414 24 L 151.99414 16 L 58.628906 16 z M 48 24 L 58 24 L 58 34 L 48 34 L 48 24 z M 66 24 L 76 24 L 76 34 L 66 34 L 66 24 z M 84 24 L 94 24 L 94 34 L 84 34 L 84 24 z M 102 24 L 112 24 L 112 34 L 102 34 L 102 24 z M 120 24 L 130 24 L 130 34 L 120 34 L 120 24 z M 138 24 L 148 24 L 148 34 L 138 34 L 138 24 z M 48 42 L 58 42 L 58 52 L 48 52 L 48 42 z M 66 42 L 76 42 L 76 52 L 66 52 L 66 42 z M 84 42 L 94 42 L 94 52 L 84 52 L 84 42 z M 102 42 L 112 42 L 112 52 L 102 52 L 102 42 z M 120 42 L 130 42 L 130 52 L 120 52 L 120 42 z M 138 42 L 148 42 L 148 52 L 138 52 L 138 42 z M 156 42 L 166 42 L 166 52 L 156 52 L 156 42 z M 48 60 L 58 60 L 58 70 L 48 70 L 48 60 z M 66 60 L 76 60 L 76 70 L 66 70 L 66 60 z M 84 60 L 94 60 L 94 70 L 84 70 L 84 60 z M 102 60 L 112 60 L 112 70 L 102 70 L 102 60 z M 120 60 L 130 60 L 130 70 L 120 70 L 120 60 z M 138 60 L 148 60 L 148 70 L 138 70 L 138 60 z M 156 60 L 166 60 L 166 70 L 156 70 L 156 60 z M 174 60 L 184 60 L 184 70 L 174 70 L 174 60 z M 48 78 L 58 78 L 58 88 L 48 88 L 48 78 z M 66 78 L 76 78 L 76 88 L 66 88 L 66 78 z M 84 78 L 94 78 L 94 88 L 84 88 L 84 78 z M 102 78 L 112 78 L 112 88 L 102 88 L 102 78 z M 120 78 L 130 78 L 130 88 L 120 88 L 120 78 z M 138 78 L 148 78 L 148 88 L 138 88 L 138 78 z M 156 78 L 166 78 L 166 88 L 156 88 L 156 78 z M 174 78 L 184 78 L 184 88 L 174 88 L 174 78 z M 192 78 L 202 78 L 202 88 L 192 88 L 192 78 z M 48 96 L 58 96 L 58 106 L 48 106 L 48 96 z M 66 96 L 76 96 L 76 106 L 66 106 L 66 96 z M 84 96 L 94 96 L 94 106 L 84 106 L 84 96 z M 102 96 L 112 96 L 112 106 L 102 106 L 102 96 z M 120 96 L 130 96 L 130 106 L 120 106 L 120 96 z M 138 96 L 148 96 L 148 106 L 138 106 L 138 96 z M 156 96 L 166 96 L 166 106 L 156 106 L 156 96 z M 174 96 L 184 96 L 184 106 L 174 106 L 174 96 z M 192 96 L 202 96 L 202 106 L 192 106 L 192 96 z M 48 114 L 58 114 L 58 124 L 48 124 L 48 114 z M 66 114 L 76 114 L 76 124 L 66 124 L 66 114 z M 84 114 L 94 114 L 94 124 L 84 124 L 84 114 z M 102 114 L 112 114 L 112 124 L 102 124 L 102 114 z M 120 114 L 130 114 L 130 124 L 120 124 L 120 114 z M 138 114 L 148 114 L 148 124 L 138 124 L 138 114 z M 156 114 L 166 114 L 166 124 L 156 124 L 156 114 z M 174 114 L 184 114 L 184 124 L 174 124 L 174 114 z M 192 114 L 202 114 L 202 124 L 192 124 L 192 114 z M 48 132 L 58 132 L 58 142 L 48 142 L 48 132 z M 66 132 L 76 132 L 76 142 L 66 142 L 66 132 z M 84 132 L 94 132 L 94 142 L 84 142 L 84 132 z M 102 132 L 112 132 L 112 142 L 102 142 L 102 132 z M 120 132 L 130 132 L 130 142 L 120 142 L 120 132 z M 138 132 L 148 132 L 148 142 L 138 142 L 138 132 z M 156 132 L 166 132 L 166 142 L 156 142 L 156 132 z M 174 132 L 184 132 L 184 142 L 174 142 L 174 132 z M 192 132 L 202 132 L 202 142 L 192 142 L 192 132 z M 48 150 L 58 150 L 58 160 L 48 160 L 48 150 z M 66 150 L 76 150 L 76 160 L 66 160 L 66 150 z M 84 150 L 94 150 L 94 160 L 84 160 L 84 150 z M 102 150 L 112 150 L 112 160 L 102 160 L 102 150 z M 120 150 L 130 150 L 130 160 L 120 160 L 120 150 z M 138 150 L 148 150 L 148 160 L 138 160 L 138 150 z M 156 150 L 166 150 L 166 160 L 156 160 L 156 150 z M 174 150 L 184 150 L 184 160 L 174 160 L 174 150 z M 192 150 L 202 150 L 202 160 L 192 160 L 192 150 z M 48 168 L 58 168 L 58 178 L 48 178 L 48 168 z M 66 168 L 76 168 L 76 178 L 66 178 L 66 168 z M 84 168 L 94 168 L 94 178 L 84 178 L 84 168 z M 102 168 L 112 168 L 112 178 L 102 178 L 102 168 z M 120 168 L 130 168 L 130 178 L 120 178 L 120 168 z M 138 168 L 148 168 L 148 178 L 138 178 L 138 168 z M 156 168 L 166 168 L 166 178 L 156 178 L 156 168 z M 174 168 L 184 168 L 184 178 L 174 178 L 174 168 z M 192 168 L 202 168 L 202 178 L 192 178 L 192 168 z M 48 186 L 58 186 L 58 196 L 48 196 L 48 186 z M 66 186 L 76 186 L 76 196 L 66 196 L 66 186 z M 84 186 L 94 186 L 94 196 L 84 196 L 84 186 z M 102 186 L 112 186 L 112 196 L 102 196 L 102 186 z M 120 186 L 130 186 L 130 196 L 120 196 L 120 186 z M 138 186 L 148 186 L 148 196 L 138 196 L 138 186 z M 156 186 L 166 186 L 166 196 L 156 196 L 156 186 z M 174 186 L 184 186 L 184 196 L 174 196 L 174 186 z M 192 186 L 202 186 L 202 196 L 192 196 L 192 186 z M 48 204 L 58 204 L 58 214 L 48 214 L 48 204 z M 66 204 L 76 204 L 76 214 L 66 214 L 66 204 z M 84 204 L 94 204 L 94 214 L 84 214 L 84 204 z M 102 204 L 112 204 L 112 214 L 102 214 L 102 204 z M 120 204 L 130 204 L 130 214 L 120 214 L 120 204 z M 138 204 L 148 204 L 148 214 L 138 214 L 138 204 z M 156 204 L 166 204 L 166 214 L 156 214 L 156 204 z M 174 204 L 184 204 L 184 214 L 174 214 L 174 204 z M 192 204 L 202 204 L 202 214 L 192 214 L 192 204 z M 48 222 L 58 222 L 58 232 L 48 232 L 48 222 z M 66 222 L 76 222 L 76 232 L 66 232 L 66 222 z M 84 222 L 94 222 L 94 232 L 84 232 L 84 222 z M 102 222 L 112 222 L 112 232 L 102 232 L 102 222 z M 120 222 L 130 222 L 130 232 L 120 232 L 120 222 z M 138 222 L 148 222 L 148 232 L 138 232 L 138 222 z M 156 222 L 166 222 L 166 232 L 156 232 L 156 222 z M 174 222 L 184 222 L 184 232 L 174 232 L 174 222 z M 192 222 L 202 222 L 202 232 L 192 232 L 192 222 z " />
    </g>
    <g
       inkscape:groupmode="layer"
       id="layer8"
       inkscape:label="Graphic"
       style="display:inline">
      <g
         id="g69"
         transform="translate(0,-2)">
        <path
           id="path45"
           style="display:inline;opacity:1;fill:url(#linearGradient1072);fill-opacity:1;stroke-width:13.0838;stroke-linecap:round;stroke-linejoin:round;paint-order:stroke markers fill;enable-background:new"
           d="M 73.843254,116 C 68.390338,116 64,120.32174 64,125.68945 v 72.6211 C 64,203.67826 68.390338,208 73.843254,208 H 182.15675 C 187.60966,208 192,203.67826 192,198.31055 v -72.6211 C 192,120.32174 187.60966,116 182.15675,116 Z" />
        <g
           id="g68">
          <rect
             style="opacity:1;fill:#ffffff;fill-opacity:1;stroke:none;stroke-width:30.5183;stroke-linecap:round;stroke-linejoin:round"
             id="rect45"
             width="16"
             height="60"
             x="72"
             y="142"
             ry="8" />
          <rect
             style="opacity:1;fill:#ffffff;fill-opacity:1;stroke:none;stroke-width:32.9635;stroke-linecap:round;stroke-linejoin:round"
             id="rect46"
             width="16"
             height="70"
             x="96"
             y="132"
             ry="8" />
          <rect
             style="opacity:1;fill:#ffffff;fill-opacity:1;stroke:none;stroke-width:30.5183;stroke-linecap:round;stroke-linejoin:round"
             id="rect47"
             width="16"
             height="60"
             x="120"
             y="142"
             ry="8" />
          <rect
             style="opacity:1;fill:#ffffff;fill-opacity:1;stroke:none;stroke-width:27.8593;stroke-linecap:round;stroke-linejoin:round"
             id="rect48"
             width="16"
             height="50"
             x="144"
             y="152"
             ry="8" />
          <rect
             style="opacity:1;fill:#ffffff;fill-opacity:1;stroke:none;stroke-width:30.5183;stroke-linecap:round;stroke-linejoin:round"
             id="rect49"
             width="16"
             height="60"
             x="168"
             y="142"
             ry="8" />
        </g>
      </g>
    </g>
    <g
       inkscape:groupmode="layer"
       id="layer3"
       inkscape:label="Highlights"
       style="display:inline;enable-background:new">
      <path
         id="path2"
         style="display:inline;opacity:0.6;fill:#ffffff;stroke-width:6.64319;stroke-linecap:round;stroke-linejoin:round;paint-order:stroke markers fill;enable-background:new"
         d="M 58.628906,16 C 48.308869,16 40,24.308869 40,34.628906 v 2 C 40,26.308869 48.308869,18 58.628906,18 h 93.365234 l 64,64 v -2 l -64,-64 z"
         sodipodi:nodetypes="sscsccccs" />
      <path
         id="path3"
         style="display:inline;opacity:0.15;fill:#ffffff;stroke-width:6.64319;stroke-linecap:round;stroke-linejoin:round;paint-order:stroke markers fill;enable-background:new"
         d="m 40,128 v 93.37109 C 40,231.69113 48.308869,240 58.628906,240 H 197.37109 C 207.69113,240 216,231.69113 216,221.37109 V 128 Z"
         sodipodi:nodetypes="csssscc" />
      <path
         id="path4"
         style="display:inline;opacity:0.08;fill:#ffffff;stroke-width:6.64319;stroke-linecap:round;stroke-linejoin:round;paint-order:stroke markers fill;enable-background:new"
         d="m 128,16 v 224 h 69.37109 C 207.69113,240 216,231.69113 216,221.37109 L 215.994,80 l -64,-64 z"
         sodipodi:nodetypes="ccscccc" />
    </g>
    <g
       inkscape:groupmode="layer"
       id="layer6"
       inkscape:label="Folded corner"
       style="display:inline">
      <path
         id="path6"
         style="opacity:0.4;fill:#000000;stroke-width:12.6323;stroke-linecap:round;stroke-linejoin:round;paint-order:stroke markers fill"
         inkscape:transform-center-y="-10.667154"
         d="M 152,20 V 65.371094 C 152,75.690974 160.30706,84 170.62695,84 H 216 v -4 h -3.99023 v 0.0098 C 192.0061,60.007887 172.00326,40.003255 152,20 Z"
         sodipodi:nodetypes="cssccccc" />
      <path
         id="path5"
         style="opacity:1;fill:#e6e6e6;stroke-width:12.6323;stroke-linecap:round;stroke-linejoin:round;paint-order:stroke markers fill"
         inkscape:transform-center-y="-10.667154"
         d="M 152,16 V 61.371094 C 152,71.690985 160.30706,80 170.62696,80 H 216 C 194.66606,58.668561 173.33336,37.333354 152,16 Z"
         sodipodi:nodetypes="csscc" />
    </g>
  </g>
</svg>
