<?xml version="1.0" encoding="UTF-8" standalone="no"?>
<svg
   width="256"
   height="256"
   id="svg11300"
   sodipodi:version="0.32"
   sodipodi:docname="x-office-presentation.svg"
   version="1.0"
   style="display:inline;enable-background:new"
   inkscape:version="1.4 (e7c3feb100, 2024-10-09)"
   xmlns:inkscape="http://www.inkscape.org/namespaces/inkscape"
   xmlns:sodipodi="http://sodipodi.sourceforge.net/DTD/sodipodi-0.dtd"
   xmlns:xlink="http://www.w3.org/1999/xlink"
   xmlns="http://www.w3.org/2000/svg"
   xmlns:svg="http://www.w3.org/2000/svg">
  <sodipodi:namedview
     stroke="#ef2929"
     fill="#f57900"
     id="base"
     pagecolor="#cccccc"
     bordercolor="#666666"
     borderopacity="1"
     inkscape:pageopacity="0"
     inkscape:pageshadow="2"
     inkscape:zoom="0.47734475"
     inkscape:cx="370.80119"
     inkscape:cy="134.07501"
     inkscape:current-layer="layer8"
     showgrid="false"
     inkscape:grid-bbox="true"
     inkscape:document-units="px"
     inkscape:showpageshadow="true"
     inkscape:window-width="1920"
     inkscape:window-height="1011"
     inkscape:window-x="0"
     inkscape:window-y="0"
     width="400px"
     height="300px"
     inkscape:snap-nodes="true"
     inkscape:snap-bbox="true"
     gridtolerance="10000"
     inkscape:object-nodes="true"
     inkscape:snap-grids="true"
     showguides="false"
     inkscape:guide-bbox="true"
     inkscape:window-maximized="1"
     inkscape:bbox-paths="true"
     inkscape:snap-bbox-midpoints="true"
     inkscape:snap-global="false"
     inkscape:object-paths="true"
     inkscape:snap-intersection-paths="true"
     inkscape:snap-smooth-nodes="true"
     inkscape:pagecheckerboard="false"
     showborder="true"
     inkscape:document-rotation="0"
     inkscape:deskcolor="#d1d1d1">
    <inkscape:grid
       spacingy="1"
       spacingx="1"
       id="grid5883"
       type="xygrid"
       enabled="true"
       visible="false"
       empspacing="4"
       snapvisiblegridlinesonly="true"
       originx="0"
       originy="0"
       units="px" />
    <inkscape:grid
       type="xygrid"
       id="grid11592"
       empspacing="2"
       visible="false"
       enabled="false"
       spacingx="0.5"
       spacingy="0.5"
       color="#ff0000"
       opacity="0.1254902"
       empcolor="#ff0000"
       empopacity="0.25098039"
       snapvisiblegridlinesonly="true"
       originx="0"
       originy="0"
       units="px" />
    <sodipodi:guide
       position="394.16276,545.36183"
       orientation="0,-1"
       id="guide864"
       inkscape:locked="false" />
  </sodipodi:namedview>
  <defs
     id="defs3">
    <linearGradient
       inkscape:collect="always"
       id="linearGradient1070">
      <stop
         style="stop-color:#2f9dd5;stop-opacity:0.99993408;"
         offset="0"
         id="stop1066" />
      <stop
         style="stop-color:#20e9a7;stop-opacity:0.99993408;"
         offset="1"
         id="stop1068" />
    </linearGradient>
    <linearGradient
       inkscape:collect="always"
       xlink:href="#linearGradient1070"
       id="linearGradient1072"
       x1="65"
       y1="213"
       x2="135"
       y2="115"
       gradientUnits="userSpaceOnUse"
       gradientTransform="translate(-256.00001,-256)" />
  </defs>
  <g
     style="display:inline"
     inkscape:groupmode="layer"
     inkscape:label="Icon"
     id="layer1">
    <g
       inkscape:groupmode="layer"
       id="layer4"
       inkscape:label="Shadow"
       style="display:inline;opacity:0.4">
      <path
         id="path10"
         style="display:inline;fill:#000000;stroke-width:6.64319;stroke-linecap:round;stroke-linejoin:round;paint-order:stroke markers fill;enable-background:new"
         d="M 240,201.3711 C 240,211.69115 231.69115,220 221.3711,220 H 34.62891 C 24.30886,220 16,211.69115 16,201.3711 V 62.62891 C 16,52.30886 24.30886,44 34.62891,44 L 176,44.006 l 64,64 z"
         sodipodi:nodetypes="ssssscccs" />
    </g>
    <g
       inkscape:groupmode="layer"
       id="layer2"
       inkscape:label="Background"
       style="display:inline">
      <path
         id="rect2"
         style="fill:#f9f9f9;stroke-width:6.64319;stroke-linecap:round;stroke-linejoin:round;paint-order:stroke markers fill"
         d="M 240,197.3711 C 240,207.69115 231.69115,216 221.3711,216 H 34.62891 C 24.30886,216 16,207.69115 16,197.3711 V 58.62891 C 16,48.30886 24.30886,40 34.62891,40 L 176,40.006 l 64,64 z"
         sodipodi:nodetypes="ssssscccs" />
    </g>
    <g
       inkscape:groupmode="layer"
       id="layer8"
       inkscape:label="Graphic"
       style="display:inline">
      <rect
         style="display:inline;opacity:1;fill:url(#linearGradient1072);fill-opacity:1;stroke-width:11.2585;stroke-linecap:round;stroke-linejoin:round;paint-order:stroke markers fill"
         id="rect1019"
         width="70"
         height="98"
         x="-191"
         y="-141"
         rx="8"
         ry="8"
         transform="matrix(0,-1,-1,0,0,0)" />
      <path
         id="path30"
         style="display:inline;fill:#c6c6c6;fill-opacity:1;stroke-width:2.81803;stroke-linecap:round;stroke-linejoin:round;paint-order:stroke markers fill;enable-background:new"
         d="M 43 65 L 43 73 L 133 73 L 133 65 L 43 65 z M 43 83 L 43 91 L 113 91 L 113 83 L 43 83 z M 43 101 L 43 109 L 113 109 L 113 101 L 43 101 z M 151 125 L 151 133 L 213 133 L 213 125 L 151 125 z M 151 143 L 151 151 L 213 151 L 213 143 L 151 143 z M 151 161 L 151 169 L 213 169 L 213 161 L 151 161 z M 151 179 L 151 187 L 213 187 L 213 179 L 151 179 z " />
    </g>
    <g
       inkscape:groupmode="layer"
       id="layer3"
       inkscape:label="Highlights"
       style="display:inline;enable-background:new">
      <path
         id="path7"
         style="display:inline;opacity:0.6;fill:#ffffff;stroke-width:6.64319;stroke-linecap:round;stroke-linejoin:round;paint-order:stroke markers fill;enable-background:new"
         d="M 34.628906,40 C 24.308856,40 16,48.308856 16,58.628906 v 2 C 16,50.308856 24.308856,42 34.628906,42 L 176,42.005859 240,106.00586 v -2 L 176,40.005859 Z" />
      <path
         id="rect7"
         style="display:inline;opacity:0.1;fill:#ffffff;stroke-width:168.699;stroke-linecap:round;stroke-linejoin:round;enable-background:new"
         d="M -40.003906,128 H -216 v 93.37109 C -216,231.69114 -207.69114,240 -197.37109,240 h 93.36523 l 64.000001,-64 z"
         transform="rotate(-90)" />
      <path
         id="path9"
         style="display:inline;opacity:0.2;fill:#ffffff;stroke-width:6.64319;stroke-linecap:round;stroke-linejoin:round;paint-order:stroke markers fill;enable-background:new"
         d="m 16,128 v 69.37109 C 16,207.69114 24.308856,216 34.628906,216 H 221.37109 C 231.69114,216 240,207.69114 240,197.37109 V 128 Z" />
    </g>
    <g
       inkscape:groupmode="layer"
       id="layer6"
       inkscape:label="Folded corner"
       style="display:inline">
      <path
         id="path6"
         style="opacity:0.4;fill:#000000;stroke-width:12.6323;stroke-linecap:round;stroke-linejoin:round;paint-order:stroke markers fill"
         d="m 176,44.00586 v 45.37109 c 0,10.31988 8.30706,18.62891 18.62695,18.62891 H 240 v -4 h -3.99023 v 0.01 C 216.0061,84.01394 196.00326,64.00931 176,44.00606 Z"
         sodipodi:nodetypes="cssccccc"
         inkscape:transform-center-y="-10.66715" />
      <path
         id="path5"
         style="opacity:1;fill:#ececec;stroke-width:12.6323;stroke-linecap:round;stroke-linejoin:round;paint-order:stroke markers fill"
         d="m 176,40.00586 v 45.37109 c 0,10.31989 8.30706,18.62891 18.62696,18.62891 H 240 c -21.33394,-21.33144 -42.66664,-42.66665 -64,-64 z"
         sodipodi:nodetypes="csscc"
         inkscape:transform-center-y="-10.66715" />
    </g>
  </g>
</svg>
