<?xml version="1.0" encoding="UTF-8" standalone="no"?>
<svg
   sodipodi:docname="battery-level-0-charging-symbolic.svg"
   id="svg8"
   version="1.1"
   viewBox="0 0 4.2333333 4.2333334"
   height="16"
   width="16"
   inkscape:version="1.4.2 (ebf0e940d0, 2025-05-08)"
   xmlns:inkscape="http://www.inkscape.org/namespaces/inkscape"
   xmlns:sodipodi="http://sodipodi.sourceforge.net/DTD/sodipodi-0.dtd"
   xmlns="http://www.w3.org/2000/svg"
   xmlns:svg="http://www.w3.org/2000/svg">
  <defs
     id="defs2" />
  <sodipodi:namedview
     inkscape:window-maximized="1"
     inkscape:window-y="0"
     inkscape:window-x="0"
     inkscape:window-height="1011"
     inkscape:window-width="1920"
     units="px"
     showgrid="true"
     inkscape:document-rotation="0"
     inkscape:current-layer="g847"
     inkscape:document-units="px"
     inkscape:cy="10.69499"
     inkscape:cx="7.4246212"
     inkscape:zoom="22.627417"
     inkscape:pageshadow="2"
     inkscape:pageopacity="0.0"
     borderopacity="1.0"
     bordercolor="#666666"
     pagecolor="#ffffff"
     id="base"
     inkscape:showpageshadow="2"
     inkscape:pagecheckerboard="0"
     inkscape:deskcolor="#d1d1d1">
    <inkscape:grid
       type="xygrid"
       id="grid841"
       originx="0"
       originy="0"
       spacingy="1"
       spacingx="1"
       units="px"
       visible="true" />
  </sodipodi:namedview>
  <g
     inkscape:label="Graphic"
     id="g1156"
     inkscape:groupmode="layer"
     style="display:inline">
    <g
       id="g847">
      <path
         id="path866"
         style="color:#000000;font-style:normal;font-variant:normal;font-weight:normal;font-stretch:normal;font-size:medium;line-height:normal;font-family:sans-serif;font-variant-ligatures:normal;font-variant-position:normal;font-variant-caps:normal;font-variant-numeric:normal;font-variant-alternates:normal;font-variant-east-asian:normal;font-feature-settings:normal;font-variation-settings:normal;text-indent:0;text-align:start;text-decoration:none;text-decoration-line:none;text-decoration-style:solid;text-decoration-color:#000000;letter-spacing:normal;word-spacing:normal;text-transform:none;writing-mode:lr-tb;direction:ltr;text-orientation:mixed;dominant-baseline:auto;baseline-shift:baseline;text-anchor:start;white-space:normal;shape-padding:0;shape-margin:0;inline-size:0;clip-rule:nonzero;display:inline;overflow:visible;visibility:visible;isolation:auto;mix-blend-mode:normal;color-interpolation:sRGB;color-interpolation-filters:linearRGB;solid-color:#000000;solid-opacity:1;vector-effect:none;fill:#000000;fill-opacity:1;fill-rule:nonzero;stroke:none;stroke-width:1.00002;stroke-linecap:round;stroke-linejoin:round;stroke-miterlimit:4;stroke-dasharray:none;stroke-dashoffset:0;stroke-opacity:1;paint-order:stroke markers fill;color-rendering:auto;image-rendering:auto;shape-rendering:auto;text-rendering:auto;enable-background:accumulate;stop-color:#000000"
         d="m 2.6458357,0.26458333 c -0.1465792,0 -0.2645834,0.11800417 -0.2645834,0.26458333 H 1.9668074 C 1.7513935,0.52826729 1.5896861,0.71285697 1.5875023,0.91208901 c -2.6e-6,6.8792e-4 -2.6e-6,0.001378 0,0.002066 V 1.0583333 3.8467934 C 1.5867879,4.0481332 1.7491355,4.2342278 1.9668074,4.2333333 H 3.8545473 C 4.0722687,4.2342593 4.2340482,4.0481294 4.2333356,3.8467934 V 0.91415607 c 2.7e-6,-6.8792e-4 2.7e-6,-0.001378 0,-0.002066 C 4.2311557,0.71285276 4.0699615,0.52826729 3.8545473,0.52916666 H 3.4395857 c 0,-0.14657916 -0.1180043,-0.26458333 -0.2645834,-0.26458333 z M 1.9662906,0.79374999 H 3.855064 c 0.062281,-2.6003e-4 0.1129528,0.0538278 0.1136883,0.12092284 V 3.8473104 c 2.403e-4,0.067842 -0.050718,0.1227421 -0.1136883,0.122473 -0.6139523,-0.00206 -1.2746988,1.918e-4 -1.8887734,0 -0.06297,2.593e-4 -0.1139286,-0.054631 -0.1136882,-0.122473 V 0.91467283 C 1.853338,0.84757791 1.9040075,0.79348996 1.9662906,0.79374999 Z" />
      <path
         id="path834"
         style="display:inline;fill:#000000;stroke-width:0.284756;stroke-linecap:round;stroke-linejoin:round;paint-order:stroke markers fill"
         inkscape:transform-center-y="-0.29944983"
         d="M 0.89827973,0.52916667 0.44913984,1.4264495 0,2.3260715 H 0.47955036 V 3.7041667 L 0.92869023,2.8057143 1.37783,1.9072618 H 0.89827973 Z" />
      <path
         id="path3"
         class="error"
         style="line-height:normal;-inkscape-font-specification:sans-serif;text-indent:0;text-align:start;text-decoration-line:none;text-transform:none;fill:#000000;stroke-width:0.264583;marker:none"
         d="m 2.6716408,1.0583332 0.052717,1.728799 h 0.3757359 l 0.052717,-1.728799 z M 2.912484,3.0579517 c -0.1954561,0 -0.323536,0.1354566 -0.3235361,0.3271538 0,0.1841795 0.12808,0.3194014 0.3235361,0.3194014 0.1916972,0 0.3194013,-0.1352219 0.3194013,-0.3194014 0,-0.1916972 -0.1277041,-0.3271538 -0.3194013,-0.3271538 z" />
    </g>
  </g>
</svg>
