<?xml version="1.0" encoding="UTF-8" standalone="no"?>
<svg
   sodipodi:docname="battery-missing-symbolic.svg"
   id="svg8"
   version="1.1"
   viewBox="0 0 4.2333333 4.2333334"
   height="16"
   width="16"
   inkscape:version="1.4.2 (ebf0e940d0, 2025-05-08)"
   xmlns:inkscape="http://www.inkscape.org/namespaces/inkscape"
   xmlns:sodipodi="http://sodipodi.sourceforge.net/DTD/sodipodi-0.dtd"
   xmlns="http://www.w3.org/2000/svg"
   xmlns:svg="http://www.w3.org/2000/svg">
  <defs
     id="defs2" />
  <sodipodi:namedview
     inkscape:window-maximized="1"
     inkscape:window-y="0"
     inkscape:window-x="0"
     inkscape:window-height="1011"
     inkscape:window-width="1920"
     units="px"
     showgrid="true"
     inkscape:document-rotation="0"
     inkscape:current-layer="g851"
     inkscape:document-units="px"
     inkscape:cy="10.076272"
     inkscape:cx="3.2703689"
     inkscape:zoom="22.627417"
     inkscape:pageshadow="2"
     inkscape:pageopacity="0.0"
     borderopacity="1.0"
     bordercolor="#666666"
     pagecolor="#ffffff"
     id="base"
     inkscape:showpageshadow="2"
     inkscape:pagecheckerboard="0"
     inkscape:deskcolor="#d1d1d1">
    <inkscape:grid
       type="xygrid"
       id="grid841"
       originx="0"
       originy="0"
       spacingy="1"
       spacingx="1"
       units="px"
       visible="true" />
  </sodipodi:namedview>
  <g
     inkscape:label="Graphic"
     id="g1156"
     inkscape:groupmode="layer"
     style="display:inline">
    <g
       id="g851">
      <path
         id="path866"
         style="color:#000000;font-style:normal;font-variant:normal;font-weight:normal;font-stretch:normal;font-size:medium;line-height:normal;font-family:sans-serif;font-variant-ligatures:normal;font-variant-position:normal;font-variant-caps:normal;font-variant-numeric:normal;font-variant-alternates:normal;font-variant-east-asian:normal;font-feature-settings:normal;font-variation-settings:normal;text-indent:0;text-align:start;text-decoration:none;text-decoration-line:none;text-decoration-style:solid;text-decoration-color:#000000;letter-spacing:normal;word-spacing:normal;text-transform:none;writing-mode:lr-tb;direction:ltr;text-orientation:mixed;dominant-baseline:auto;baseline-shift:baseline;text-anchor:start;white-space:normal;shape-padding:0;shape-margin:0;inline-size:0;clip-rule:nonzero;display:inline;overflow:visible;visibility:visible;opacity:0.6;isolation:auto;mix-blend-mode:normal;color-interpolation:sRGB;color-interpolation-filters:linearRGB;solid-color:#000000;solid-opacity:1;vector-effect:none;fill:#000000;fill-opacity:1;fill-rule:nonzero;stroke:none;stroke-width:1.00002;stroke-linecap:round;stroke-linejoin:round;stroke-miterlimit:4;stroke-dasharray:none;stroke-dashoffset:0;stroke-opacity:1;paint-order:stroke markers fill;color-rendering:auto;image-rendering:auto;shape-rendering:auto;text-rendering:auto;enable-background:accumulate;stop-color:#000000"
         d="M 1.8520833,0.26458333 C 1.7055041,0.26458333 1.5875,0.3825875 1.5875,0.52916666 H 1.173055 C 0.95764113,0.52826729 0.7959337,0.71285697 0.79374999,0.91208901 c -2.7e-6,6.8792e-4 -2.7e-6,0.001378 0,0.002066 V 1.0583333 3.8467934 C 0.79303559,4.0481332 0.95538313,4.2342278 1.173055,4.2333333 H 3.0607949 C 3.2785163,4.2342593 3.4402958,4.0481294 3.4395833,3.8467934 V 0.91415607 c 2.6e-6,-6.8792e-4 2.6e-6,-0.001378 0,-0.002066 C 3.4374034,0.71285276 3.2762092,0.52826729 3.0607949,0.52916666 H 2.6458333 C 2.6458333,0.3825875 2.5278291,0.26458333 2.38125,0.26458333 Z M 1.1725382,0.79374999 H 3.0613117 C 3.1235927,0.79348996 3.1742644,0.84757783 3.175,0.91467283 V 3.8473104 c 2.402e-4,0.067842 -0.050718,0.1227421 -0.1136883,0.122473 -0.6139524,-0.00206 -1.2746989,1.918e-4 -1.8887735,0 -0.06297,2.593e-4 -0.1139285,-0.054631 -0.1136881,-0.122473 V 0.91467283 c 7.355e-4,-0.0670949 0.051405,-0.12118287 0.1136881,-0.12092284 z" />
      <path
         style="display:inline;font-size:4px;line-height:1.25;font-family:Cantarell;-inkscape-font-specification:Cantarell;white-space:pre;stroke-width:0.2856"
         d="m -11.303641,-1.5154993 h 0.304 v -0.212 c 0,-0.436 0.644,-0.604 0.644,-1.172 0,-0.392 -0.312,-0.652 -0.784,-0.652 -0.264,0 -0.556,0.08 -0.792,0.212 l 0.076,0.244 c 0.216,-0.108 0.432,-0.164 0.632,-0.164 0.332,0 0.528,0.156 0.528,0.396 0,0.42 -0.608,0.564 -0.608,1.136 z m 0.156,0.82000003 c 0.152,0 0.256,-0.108 0.256,-0.256 0,-0.14800003 -0.104,-0.25600003 -0.256,-0.25600003 -0.152,0 -0.256,0.108 -0.256,0.25600003 0,0.148 0.104,0.256 0.256,0.256 z"
         id="text1"
         transform="matrix(0.92641132,0,0,0.92641132,12.440288,4.3484843)"
         aria-label="?" />
    </g>
  </g>
</svg>
