<?xml version="1.0" encoding="UTF-8" standalone="no"?>
<svg
   height="16"
   width="16"
   version="1.1"
   id="svg4"
   sodipodi:docname="computer-fail-symbolic.symbolic.svg"
   inkscape:version="1.2.2 (b0a8486541, 2022-12-01)"
   xmlns:inkscape="http://www.inkscape.org/namespaces/inkscape"
   xmlns:sodipodi="http://sodipodi.sourceforge.net/DTD/sodipodi-0.dtd"
   xmlns="http://www.w3.org/2000/svg"
   xmlns:svg="http://www.w3.org/2000/svg">
  <defs
     id="defs8" />
  <sodipodi:namedview
     pagecolor="#ffffff"
     bordercolor="#666666"
     borderopacity="1"
     objecttolerance="10"
     gridtolerance="10"
     guidetolerance="10"
     inkscape:pageopacity="0"
     inkscape:pageshadow="2"
     inkscape:window-width="1920"
     inkscape:window-height="1011"
     id="namedview6"
     showgrid="false"
     inkscape:zoom="32"
     inkscape:cx="5.828125"
     inkscape:cy="6.96875"
     inkscape:window-x="0"
     inkscape:window-y="0"
     inkscape:window-maximized="1"
     inkscape:current-layer="layer1"
     inkscape:document-rotation="0"
     inkscape:showpageshadow="2"
     inkscape:pagecheckerboard="0"
     inkscape:deskcolor="#d1d1d1" />
  <g
     inkscape:groupmode="layer"
     id="layer1"
     inkscape:label="Graphic">
    <g
       id="g324">
      <rect
         style="fill:#000000;fill-opacity:1;stroke:none;stroke-width:0.582914;stroke-linecap:round;stroke-linejoin:round;stroke-miterlimit:4;stroke-dasharray:none;paint-order:stroke markers fill"
         id="rect871"
         width="1.750001"
         height="2.5"
         x="4.2750001"
         y="3"
         ry="0.83333331" />
      <rect
         style="fill:#000000;fill-opacity:1;stroke:none;stroke-width:0.582914;stroke-linecap:round;stroke-linejoin:round;stroke-miterlimit:4;stroke-dasharray:none;paint-order:stroke markers fill"
         id="rect873"
         width="1.750001"
         height="2.5"
         x="9.9749994"
         y="3"
         ry="0.83333331" />
      <path
         style="color:#000000;fill:#000000;stroke-linecap:round;stroke-linejoin:round;-inkscape-stroke:none"
         d="M 8.2148438,6.6816406 C 6.8722713,6.6609813 5.4638875,7.0412487 4.1347656,7.8769531 A 0.5,0.5 0 0 0 3.9765625,8.5664063 0.5,0.5 0 0 0 4.6660156,8.7246094 C 7.0220147,7.2432413 9.516021,7.4019962 11.306641,8.7050781 A 0.5,0.5 0 0 0 12.003906,8.59375 0.5,0.5 0 0 0 11.894531,7.8964844 C 10.8336,7.1244166 9.5574162,6.7023 8.2148438,6.6816406 Z"
         id="path875" />
      <path
         style="color:#000000;fill:#000000;stroke-linecap:round;stroke-linejoin:round;-inkscape-stroke:none;paint-order:stroke markers fill"
         d="M 2.7871094,1 C 1.8060878,1 1,1.8060878 1,2.7871094 V 9.2128906 C 1,10.193912 1.8060878,11 2.7871094,11 H 13.212891 C 14.193912,11 15,10.193912 15,9.2128906 V 2.7871094 C 15,1.8060878 14.193912,1 13.212891,1 Z m 0,1 H 13.212891 C 13.65721,2 14,2.3427901 14,2.7871094 V 9.2128906 C 14,9.6572099 13.65721,10 13.212891,10 H 2.7871094 C 2.3427901,10 2,9.6572099 2,9.2128906 V 2.7871094 C 2,2.3427901 2.3427901,2 2.7871094,2 Z"
         id="rect863" />
      <rect
         style="fill:#000000;fill-opacity:1;stroke:none;stroke-width:1.98248;stroke-linecap:round;stroke-linejoin:round;stroke-miterlimit:4;stroke-dasharray:none;paint-order:stroke markers fill"
         id="rect869"
         width="4"
         height="2"
         x="6"
         y="10.7"
         ry="0.34080496" />
      <path
         id="rect877"
         style="fill:#000000;fill-opacity:1;stroke:none;stroke-width:1.13098;stroke-linecap:round;stroke-linejoin:round;stroke-miterlimit:4;stroke-dasharray:none;paint-order:stroke markers fill"
         d="M 4.6992188,13.199219 3.5996094,13.599609 2.5,14 v 0.800781 h 11 V 14 l -1.099609,-0.400391 -1.09961,-0.40039 z" />
    </g>
  </g>
</svg>
