<?xml version="1.0" encoding="UTF-8" standalone="no"?>
<svg
   height="16"
   width="16"
   version="1.1"
   id="svg4"
   sodipodi:docname="weather-clear.svg"
   inkscape:version="1.4 (e7c3feb100, 2024-10-09)"
   xmlns:inkscape="http://www.inkscape.org/namespaces/inkscape"
   xmlns:sodipodi="http://sodipodi.sourceforge.net/DTD/sodipodi-0.dtd"
   xmlns="http://www.w3.org/2000/svg"
   xmlns:svg="http://www.w3.org/2000/svg">
  <defs
     id="defs8" />
  <sodipodi:namedview
     pagecolor="#333333"
     bordercolor="#666666"
     borderopacity="1"
     objecttolerance="10"
     gridtolerance="10"
     guidetolerance="10"
     inkscape:pageopacity="0"
     inkscape:pageshadow="2"
     inkscape:window-width="1920"
     inkscape:window-height="1011"
     id="namedview6"
     showgrid="false"
     inkscape:zoom="11.313709"
     inkscape:cx="-1.9445436"
     inkscape:cy="9.3691648"
     inkscape:window-x="0"
     inkscape:window-y="0"
     inkscape:window-maximized="1"
     inkscape:current-layer="layer1"
     inkscape:document-rotation="0"
     inkscape:showpageshadow="2"
     inkscape:pagecheckerboard="0"
     inkscape:deskcolor="#d1d1d1" />
  <g
     inkscape:groupmode="layer"
     id="layer1"
     inkscape:label="Icon">
    <path
       id="path4"
       style="fill:#000000;fill-opacity:1"
       d="M 7.9746094 0 C 7.709695 0.013342072 7.5 0.23165625 7.5 0.5 L 7.5 1.5 C 7.5 1.777 7.723 2 8 2 C 8.277 2 8.5 1.777 8.5 1.5 L 8.5 0.5 C 8.5 0.223 8.277 0 8 0 C 7.9913438 0 7.983155 -0.0004303894 7.9746094 0 z M 4.2363281 1.0058594 C 4.1557646 1.0080355 4.0749653 1.0289844 4 1.0722656 C 3.760111 1.2107656 3.6779063 1.5159703 3.8164062 1.7558594 L 4.3164062 2.6210938 C 4.4549063 2.8609828 4.760111 2.9431875 5 2.8046875 C 5.239889 2.6661875 5.3220938 2.3609828 5.1835938 2.1210938 L 4.6835938 1.2558594 C 4.588375 1.0909357 4.413568 1.0010719 4.2363281 1.0058594 z M 11.714844 1.0058594 C 11.554859 1.0170431 11.402969 1.1059287 11.316406 1.2558594 L 10.816406 2.1210938 C 10.677906 2.3609828 10.760111 2.6661875 11 2.8046875 C 11.239889 2.9431875 11.545094 2.8609828 11.683594 2.6210938 L 12.183594 1.7558594 C 12.322094 1.5159703 12.239889 1.2107656 12 1.0722656 C 11.910042 1.0203281 11.810835 0.99914915 11.714844 1.0058594 z M 8 3 C 1.3333362 3 1.3333362 13 8 13 C 10.761426 13 13 10.761424 13 8 C 13 5.2385763 10.761426 3 8 3 z M 1.4707031 3.75 C 1.3107184 3.7611837 1.1588281 3.8500694 1.0722656 4 C 0.93376562 4.239889 1.0159703 4.5450938 1.2558594 4.6835938 L 2.1210938 5.1835938 C 2.3609828 5.3220938 2.6661875 5.239889 2.8046875 5 C 2.9431875 4.760111 2.8609828 4.4549062 2.6210938 4.3164062 L 1.7558594 3.8164062 C 1.665901 3.7644687 1.566694 3.7432898 1.4707031 3.75 z M 14.480469 3.75 C 14.399905 3.7521761 14.319106 3.773125 14.244141 3.8164062 L 13.378906 4.3164062 C 13.139017 4.4549062 13.056812 4.760111 13.195312 5 C 13.333812 5.239889 13.639017 5.3220937 13.878906 5.1835938 L 14.744141 4.6835938 C 14.98403 4.5450937 15.066234 4.239889 14.927734 4 C 14.832516 3.8350763 14.657709 3.7452126 14.480469 3.75 z M 0.47460938 7.5 C 0.20969504 7.5133421 0 7.7316562 0 8 C 0 8.277 0.223 8.5 0.5 8.5 L 1.5 8.5 C 1.777 8.5 2 8.277 2 8 C 2 7.723 1.777 7.5 1.5 7.5 L 0.5 7.5 C 0.49134375 7.5 0.483155 7.4995696 0.47460938 7.5 z M 14.474609 7.5 C 14.209695 7.5133421 14 7.7316562 14 8 C 14 8.277 14.223 8.5 14.5 8.5 L 15.5 8.5 C 15.777 8.5 16 8.277 16 8 C 16 7.723 15.777 7.5 15.5 7.5 L 14.5 7.5 C 14.491344 7.5 14.483155 7.4995696 14.474609 7.5 z M 2.359375 10.748047 C 2.2788114 10.750223 2.1960591 10.773125 2.1210938 10.816406 L 1.2558594 11.316406 C 1.0159703 11.454906 0.93376563 11.758158 1.0722656 11.998047 C 1.2107656 12.237936 1.5159703 12.320141 1.7558594 12.181641 L 2.6210938 11.681641 C 2.8609828 11.543141 2.9431875 11.237936 2.8046875 10.998047 C 2.7094688 10.833123 2.5366149 10.743259 2.359375 10.748047 z M 13.59375 10.75 C 13.433765 10.761184 13.281875 10.850069 13.195312 11 C 13.056812 11.239889 13.139017 11.543141 13.378906 11.681641 L 14.244141 12.181641 C 14.48403 12.320141 14.789234 12.239889 14.927734 12 C 15.066234 11.760111 14.98403 11.454906 14.744141 11.316406 L 13.878906 10.816406 C 13.788948 10.764469 13.689741 10.74329 13.59375 10.75 z M 4.7148438 13.128906 C 4.554859 13.14009 4.4029687 13.228976 4.3164062 13.378906 L 3.8164062 14.244141 C 3.6779062 14.48403 3.760111 14.789234 4 14.927734 C 4.239889 15.066234 4.5450938 14.98403 4.6835938 14.744141 L 5.1835938 13.878906 C 5.3220937 13.639017 5.239889 13.333812 5 13.195312 C 4.9100416 13.143375 4.8108346 13.122196 4.7148438 13.128906 z M 11.236328 13.128906 C 11.155765 13.131082 11.074965 13.152031 11 13.195312 C 10.760111 13.333813 10.677906 13.639017 10.816406 13.878906 L 11.316406 14.744141 C 11.454906 14.98403 11.760111 15.066234 12 14.927734 C 12.239889 14.789234 12.322094 14.48403 12.183594 14.244141 L 11.683594 13.378906 C 11.588375 13.213983 11.413568 13.124119 11.236328 13.128906 z M 7.9746094 14 C 7.709695 14.013342 7.5 14.231656 7.5 14.5 L 7.5 15.5 C 7.5 15.777 7.723 16 8 16 C 8.277 16 8.5 15.777 8.5 15.5 L 8.5 14.5 C 8.5 14.223 8.277 14 8 14 C 7.9913438 14 7.983155 13.99957 7.9746094 14 z " />
  </g>
</svg>
