<?xml version="1.0" encoding="UTF-8" standalone="no"?>
<svg
   height="16"
   width="16.001"
   version="1.1"
   id="svg6"
   sodipodi:docname="weather-severe-alert-symbolic.svg"
   inkscape:version="1.4 (e7c3feb100, 2024-10-09)"
   xmlns:inkscape="http://www.inkscape.org/namespaces/inkscape"
   xmlns:sodipodi="http://sodipodi.sourceforge.net/DTD/sodipodi-0.dtd"
   xmlns="http://www.w3.org/2000/svg"
   xmlns:svg="http://www.w3.org/2000/svg">
  <defs
     id="defs10" />
  <sodipodi:namedview
     pagecolor="#333333"
     bordercolor="#666666"
     borderopacity="1"
     objecttolerance="10"
     gridtolerance="10"
     guidetolerance="10"
     inkscape:pageopacity="0"
     inkscape:pageshadow="2"
     inkscape:window-width="1920"
     inkscape:window-height="1011"
     id="namedview8"
     showgrid="false"
     inkscape:zoom="19.047689"
     inkscape:cx="4.7774825"
     inkscape:cy="4.8299823"
     inkscape:window-x="0"
     inkscape:window-y="0"
     inkscape:window-maximized="1"
     inkscape:current-layer="layer1"
     inkscape:document-rotation="0"
     inkscape:showpageshadow="2"
     inkscape:pagecheckerboard="0"
     inkscape:deskcolor="#d1d1d1" />
  <g
     inkscape:groupmode="layer"
     id="layer1"
     inkscape:label="Icon">
    <path
       id="path3"
       class="error"
       style="line-height:normal;-inkscape-font-specification:sans-serif;text-indent:0;text-align:start;text-decoration-line:none;text-transform:none;fill:#000000;marker:none"
       d="M 7.0976562 6 L 7.296875 12.533203 L 8.7167969 12.533203 L 8.9160156 6 L 7.0976562 6 z M 8.0078125 13.556641 C 7.2691762 13.556641 6.7851564 14.068537 6.7851562 14.792969 C 6.7851562 15.488991 7.2691762 16 8.0078125 16 C 8.7322444 16 9.2148438 15.488991 9.2148438 14.792969 C 9.2148438 14.068537 8.7322444 13.556641 8.0078125 13.556641 z " />
    <path
       style="line-height:normal;-inkscape-font-specification:sans-serif;text-indent:0;text-align:start;text-decoration-line:none;text-transform:none;fill:#000000;marker:none"
       d="m 8.640625,0.66796875 c -2.158,0.002 -3.9931406,1.33142185 -4.8691406,3.23242185 l -0.060547,0.1289063 -0.1386719,0.00977 C 1.5782656,4.1830625 0,5.9098125 0,8.0078125 0,10.200813 1.7158906,12 3.8378906,12 H 6 V 11 H 3.8378906 C 2.2808906,11 1,9.6788125 1,8.0078125 1,6.4108125 2.1845313,5.1421562 3.6445312,5.0351562 L 4.3671875,4.984375 4.6777344,4.3222656 v -0.00391 c 0.729,-1.58 2.2129375,-2.6493907 3.9609375,-2.6503906 2.3680001,0.002 4.2912971,1.9522656 4.4042971,4.4472656 V 6.125 l 0.05078,0.7753906 0.703125,0.296875 a 1.944,1.944 0 0 1 1.195313,1.8144532 C 15.002187,10.125719 14.146094,11 13.121094,11 H 9.9980469 v 1 h 3.1230471 c 1.591,0 2.876953,-1.350281 2.876953,-2.9882812 A 2.958,2.958 0 0 0 14.193359,6.2773438 L 14.056641,6.21875 14.046875,6.0703125 c -0.136,-2.993 -2.486297,-5.40034375 -5.4042969,-5.40234375 z"
       id="path2" />
  </g>
</svg>
