<?xml version="1.0" encoding="UTF-8" standalone="no"?>
<svg
   xmlns:dc="http://purl.org/dc/elements/1.1/"
   xmlns:cc="http://creativecommons.org/ns#"
   xmlns:rdf="http://www.w3.org/1999/02/22-rdf-syntax-ns#"
   xmlns:svg="http://www.w3.org/2000/svg"
   xmlns="http://www.w3.org/2000/svg"
   xmlns:sodipodi="http://sodipodi.sourceforge.net/DTD/sodipodi-0.dtd"
   xmlns:inkscape="http://www.inkscape.org/namespaces/inkscape"
   width="16"
   height="16"
   version="1.1"
   id="svg6"
   sodipodi:docname="edit-undo-symbolic.symbolic.svg"
   inkscape:version="1.0.1 (3bc2e813f5, 2020-09-07)">
  <metadata
     id="metadata12">
    <rdf:RDF>
      <cc:Work
         rdf:about="">
        <dc:format>image/svg+xml</dc:format>
        <dc:type
           rdf:resource="http://purl.org/dc/dcmitype/StillImage" />
      </cc:Work>
    </rdf:RDF>
  </metadata>
  <defs
     id="defs10" />
  <sodipodi:namedview
     pagecolor="#ffffff"
     bordercolor="#666666"
     borderopacity="1"
     objecttolerance="10"
     gridtolerance="10"
     guidetolerance="10"
     inkscape:pageopacity="0"
     inkscape:pageshadow="2"
     inkscape:window-width="1836"
     inkscape:window-height="1016"
     id="namedview8"
     showgrid="false"
     inkscape:zoom="22.627417"
     inkscape:cx="9.2442385"
     inkscape:cy="9.2052226"
     inkscape:window-x="2004"
     inkscape:window-y="27"
     inkscape:window-maximized="1"
     inkscape:current-layer="svg6"
     inkscape:document-rotation="0" />
  <path
     d="M 10.432894,6.2 A 3.1636062,3.1635 0 0 1 13.583,9.35 c 0,1.7289 -1.422048,3.15 -3.150106,3.15 H 9.9828791 V 10.7 H 10.432894 C 11.18892,10.7 11.78294,10.106 11.78294,9.35 11.78294,8.594 11.18892,8 10.432894,8 H 4.5826977 V 6.2 Z"
     style="line-height:normal;font-variant-ligatures:normal;font-variant-position:normal;font-variant-caps:normal;font-variant-numeric:normal;font-variant-alternates:normal;font-feature-settings:normal;text-indent:0;text-align:start;text-decoration:none;text-decoration-line:none;text-decoration-style:solid;text-decoration-color:#000000;text-transform:none;text-orientation:mixed;shape-padding:0;isolation:auto;mix-blend-mode:normal;fill:#000000;stroke-width:0.900015;marker:none"
     color="#000000"
     font-weight="400"
     font-family="sans-serif"
     overflow="visible"
     fill="#474747"
     id="path2" />
  <path
     id="path4"
     style="line-height:normal;-inkscape-font-specification:'Bitstream Vera Sans';text-indent:0;text-align:start;text-decoration:none;text-decoration-line:none;text-transform:none;fill:#000000;fill-opacity:1;stroke-width:0.900015;marker:none"
     d="m 6.3827582,3.5 a 0.90003023,0.9 0 0 1 0.9000302,0.9 c 0,0.2313 -0.1165539,0.474975 -0.2812594,0.646875 L 4.948335,7.1 7.001529,9.153125 C 7.1662345,9.325025 7.2827884,9.5687 7.2827884,9.8 A 0.90003023,0.9 0 0 1 6.3827582,10.7 C 6.1037488,10.7 5.8859415,10.61788 5.7077355,10.446875 L 2.417,7.1 5.7077355,3.753125 C 5.8859415,3.582125 6.1037488,3.5 6.3827582,3.5 Z" />
</svg>
