<?xml version="1.0" encoding="UTF-8" standalone="no"?>
<svg
   xmlns:dc="http://purl.org/dc/elements/1.1/"
   xmlns:cc="http://creativecommons.org/ns#"
   xmlns:rdf="http://www.w3.org/1999/02/22-rdf-syntax-ns#"
   xmlns:svg="http://www.w3.org/2000/svg"
   xmlns="http://www.w3.org/2000/svg"
   xmlns:sodipodi="http://sodipodi.sourceforge.net/DTD/sodipodi-0.dtd"
   xmlns:inkscape="http://www.inkscape.org/namespaces/inkscape"
   height="16"
   width="16"
   version="1.1"
   id="svg8"
   sodipodi:docname="system-reboot-symbolic.symbolic.svg"
   inkscape:version="1.0.1 (3bc2e813f5, 2020-09-07)">
  <metadata
     id="metadata14">
    <rdf:RDF>
      <cc:Work
         rdf:about="">
        <dc:format>image/svg+xml</dc:format>
        <dc:type
           rdf:resource="http://purl.org/dc/dcmitype/StillImage" />
      </cc:Work>
    </rdf:RDF>
  </metadata>
  <defs
     id="defs12" />
  <sodipodi:namedview
     pagecolor="#ffffff"
     bordercolor="#666666"
     borderopacity="1"
     objecttolerance="10"
     gridtolerance="10"
     guidetolerance="10"
     inkscape:pageopacity="0"
     inkscape:pageshadow="2"
     inkscape:window-width="1836"
     inkscape:window-height="1016"
     id="namedview10"
     showgrid="false"
     inkscape:zoom="19.047689"
     inkscape:cx="12.80672"
     inkscape:cy="13.921448"
     inkscape:window-x="2004"
     inkscape:window-y="27"
     inkscape:window-maximized="1"
     inkscape:current-layer="svg8"
     inkscape:document-rotation="0" />
  <path
     id="path845"
     style="fill:#000000;fill-opacity:1;stroke:#4d4d4d;stroke-width:0;stroke-linecap:round;paint-order:stroke fill markers"
     d="M 7.8574219 1.2773438 L 3.3769531 1.6933594 L 4.2441406 2.9179688 A 6.4999957 6.5002382 0 0 0 1.5 8.2226562 A 6.4999957 6.5002382 0 0 0 8 14.722656 A 6.4999957 6.5002382 0 0 0 14.5 8.2226562 A 6.4999957 6.5002382 0 0 0 11.755859 2.9179688 L 10.888672 4.1425781 A 4.9999995 5.0001852 0 0 1 13 8.2226562 A 4.9999995 5.0001852 0 0 1 8 13.222656 A 4.9999995 5.0001852 0 0 1 3 8.2226562 A 4.9999995 5.0001852 0 0 1 5.1113281 4.1425781 L 5.9785156 5.3652344 L 7.8574219 1.2773438 z " />
</svg>
