<?xml version="1.0" encoding="UTF-8" standalone="no"?>
<svg
   xmlns:dc="http://purl.org/dc/elements/1.1/"
   xmlns:cc="http://creativecommons.org/ns#"
   xmlns:rdf="http://www.w3.org/1999/02/22-rdf-syntax-ns#"
   xmlns:svg="http://www.w3.org/2000/svg"
   xmlns="http://www.w3.org/2000/svg"
   xmlns:sodipodi="http://sodipodi.sourceforge.net/DTD/sodipodi-0.dtd"
   xmlns:inkscape="http://www.inkscape.org/namespaces/inkscape"
   height="16"
   width="16"
   version="1.1"
   id="svg8"
   sodipodi:docname="system-shutdown-symbolic.symbolic.svg"
   inkscape:version="1.0.1 (3bc2e813f5, 2020-09-07)">
  <metadata
     id="metadata14">
    <rdf:RDF>
      <cc:Work
         rdf:about="">
        <dc:format>image/svg+xml</dc:format>
        <dc:type
           rdf:resource="http://purl.org/dc/dcmitype/StillImage" />
      </cc:Work>
    </rdf:RDF>
  </metadata>
  <defs
     id="defs12" />
  <sodipodi:namedview
     pagecolor="#ffffff"
     bordercolor="#666666"
     borderopacity="1"
     objecttolerance="10"
     gridtolerance="10"
     guidetolerance="10"
     inkscape:pageopacity="0"
     inkscape:pageshadow="2"
     inkscape:window-width="1836"
     inkscape:window-height="1016"
     id="namedview10"
     showgrid="false"
     inkscape:zoom="38.095378"
     inkscape:cx="6.6826762"
     inkscape:cy="9.0624303"
     inkscape:window-x="2004"
     inkscape:window-y="27"
     inkscape:window-maximized="1"
     inkscape:current-layer="svg8"
     inkscape:document-rotation="0" />
  <path
     d="m 7.25,1 v 7 h 1.5 V 1 Z"
     style="color:#000000;font-weight:400;line-height:normal;font-family:sans-serif;font-variant-ligatures:none;font-variant-position:normal;font-variant-caps:normal;font-variant-numeric:normal;font-variant-alternates:normal;font-feature-settings:normal;text-indent:0;text-align:start;text-decoration:none;text-decoration-line:none;text-decoration-style:solid;text-decoration-color:#000000;text-transform:none;white-space:normal;shape-padding:0;isolation:auto;mix-blend-mode:normal;solid-color:#000000;solid-opacity:1;fill:#000000;stroke-width:1.22474;marker:none"
     overflow="visible"
     id="path4" />
  <path
     id="path845"
     style="fill:#000000;stroke:#4d4d4d;stroke-width:0;stroke-linecap:round;paint-order:stroke fill markers;fill-opacity:1"
     d="M 4.2441406 2.6953125 A 6.4999957 6.4999967 0 0 0 1.5 8 A 6.4999957 6.4999967 0 0 0 8 14.5 A 6.4999957 6.4999967 0 0 0 14.5 8 A 6.4999957 6.4999967 0 0 0 11.755859 2.6953125 L 10.888672 3.9199219 A 4.9999995 4.9999995 0 0 1 13 8 A 4.9999995 4.9999995 0 0 1 8 13 A 4.9999995 4.9999995 0 0 1 3 8 A 4.9999995 4.9999995 0 0 1 5.1113281 3.9199219 L 4.2441406 2.6953125 z " />
</svg>
