<?xml version="1.0" encoding="UTF-8" standalone="no"?>
<svg
   width="16"
   height="16"
   viewBox="0 0 4.2333333 4.2333334"
   version="1.1"
   id="svg8"
   sodipodi:docname="drive-harddisk-solidstate-symbolic.symbolic.svg"
   xmlns:inkscape="http://www.inkscape.org/namespaces/inkscape"
   xmlns:sodipodi="http://sodipodi.sourceforge.net/DTD/sodipodi-0.dtd"
   xmlns="http://www.w3.org/2000/svg"
   xmlns:svg="http://www.w3.org/2000/svg">
  <defs
     id="defs2" />
  <sodipodi:namedview
     id="base"
     pagecolor="#ffffff"
     bordercolor="#666666"
     borderopacity="1.0"
     inkscape:pageopacity="0.0"
     inkscape:pageshadow="2"
     inkscape:zoom="22.627418"
     inkscape:cx="6.7175141"
     inkscape:cy="7.3583296"
     inkscape:document-units="px"
     inkscape:current-layer="layer3"
     inkscape:document-rotation="0"
     showgrid="false"
     inkscape:window-width="1920"
     inkscape:window-height="1016"
     inkscape:window-x="1920"
     inkscape:window-y="27"
     inkscape:window-maximized="1"
     units="px"
     inkscape:pagecheckerboard="0"
     width="16px"
     inkscape:showpageshadow="2"
     inkscape:deskcolor="#d1d1d1" />
  <g
     inkscape:groupmode="layer"
     id="layer3"
     inkscape:label="Graphic">
    <path
       id="rect1509"
       style="display:inline;fill:#000000;fill-opacity:1;stroke-width:0.267557;paint-order:stroke fill markers"
       d="M 3.3574219 0 L 3.3574219 0.00390625 C 2.4768823 0.064818099 1.7851562 0.79486547 1.7851562 1.6914062 L 1.7851562 14.310547 C 1.7851562 15.207089 2.4768823 15.935175 3.3574219 15.996094 L 3.3574219 16 L 3.4765625 16 L 6.3085938 16 L 8 16 L 8.1425781 16 L 9.6914062 16 L 12.523438 16 L 12.642578 16 L 12.642578 15.996094 C 13.523085 15.935181 14.214844 15.207089 14.214844 14.310547 L 14.214844 1.6914062 C 14.214844 0.79486547 13.523114 0.064824902 12.642578 0.00390625 L 12.642578 0 L 12.523438 0 L 9.6914062 0 L 8.1425781 0 L 8 0 L 6.3085938 0 L 3.4765625 0 L 3.3574219 0 z M 4.1035156 1 L 4.203125 1 L 6.5800781 1 L 8 1 L 8.1191406 1 L 9.4179688 1 L 11.794922 1 L 11.894531 1 L 11.894531 1.0039062 C 12.633376 1.0572082 13.214844 1.6960235 13.214844 2.4804688 L 13.214844 13.519531 C 13.214844 14.303977 12.633353 14.942797 11.894531 14.996094 L 11.894531 15 L 11.794922 15 L 9.4179688 15 L 8.1191406 15 L 8 15 L 6.5800781 15 L 4.203125 15 L 4.1035156 15 L 4.1035156 14.996094 C 3.3646673 14.942792 2.7851562 14.303977 2.7851562 13.519531 L 2.7851562 2.4804688 C 2.7851562 1.6960235 3.3646673 1.0572041 4.1035156 1.0039062 L 4.1035156 1 z "
       transform="scale(0.26458333)" />
    <path
       id="path1131"
       style="display:inline;color:#000000;-inkscape-font-specification:Cantarell;fill:#000000;stroke-width:0.239;-inkscape-stroke:none"
       d="M 4.6992188 9.4492188 C 4.2832224 9.4623584 3.9262988 9.5744277 3.6679688 9.7734375 C 3.3924166 9.9857147 3.2324219 10.303155 3.2324219 10.673828 C 3.2324219 11.038144 3.3919171 11.305786 3.6171875 11.478516 C 3.8424579 11.651244 4.1271637 11.742727 4.4003906 11.826172 C 4.6736165 11.909616 4.9407901 11.982444 5.1230469 12.083984 C 5.3053033 12.185525 5.3964844 12.294909 5.3964844 12.498047 C 5.3964844 12.659115 5.3400575 12.775353 5.2109375 12.867188 C 5.0818175 12.959022 4.8753346 13.013672 4.5996094 13.013672 C 4.2697624 13.013672 3.8418214 12.921879 3.4765625 12.771484 L 3.3652344 12.726562 L 3.1367188 13.308594 L 3.2402344 13.353516 C 3.6825205 13.554556 4.137128 13.671875 4.5703125 13.671875 C 5.0228584 13.671875 5.4082023 13.55584 5.6835938 13.339844 C 5.9589852 13.123851 6.1191406 12.797025 6.1191406 12.423828 C 6.1191406 12.04933 5.954836 11.786345 5.7285156 11.611328 C 5.5021918 11.436315 5.2195395 11.338521 4.9453125 11.257812 C 4.6710859 11.177105 4.404992 11.112801 4.2226562 11.013672 C 4.0403205 10.914542 3.9492188 10.805909 3.9492188 10.599609 C 3.9492188 10.428227 4.0077433 10.317232 4.1347656 10.230469 C 4.261788 10.143706 4.4655266 10.091797 4.7460938 10.091797 C 5.0589517 10.091797 5.4096496 10.158263 5.6699219 10.267578 L 5.7792969 10.3125 L 6.0019531 9.7285156 L 5.8984375 9.6855469 C 5.5533035 9.5334602 5.1682141 9.4492188 4.7832031 9.4492188 C 4.7549513 9.4492188 4.7269518 9.4483428 4.6992188 9.4492188 z M 7.7851562 9.4492188 C 7.3691599 9.4623584 7.012236 9.5744277 6.7539062 9.7734375 C 6.478356 9.9857147 6.3183594 10.303155 6.3183594 10.673828 C 6.3183594 11.038144 6.4778557 11.305786 6.703125 11.478516 C 6.9283962 11.651244 7.211148 11.742727 7.484375 11.826172 C 7.7576008 11.909616 8.0267272 11.982444 8.2089844 12.083984 C 8.3912408 12.185525 8.4824219 12.294909 8.4824219 12.498047 C 8.4824219 12.659115 8.4181787 12.775353 8.2890625 12.867188 C 8.1599425 12.959022 7.959319 13.013672 7.6835938 13.013672 C 7.3537468 13.013672 6.9277588 12.921879 6.5625 12.771484 L 6.4511719 12.726562 L 6.2226562 13.308594 L 6.3261719 13.353516 C 6.7684673 13.554556 7.2211131 13.671875 7.6542969 13.671875 C 8.1068431 13.671875 8.4863605 13.555844 8.7617188 13.339844 C 9.0370762 13.123844 9.1972656 12.797017 9.1972656 12.423828 C 9.1972656 12.04933 9.0407731 11.786345 8.8144531 11.611328 C 8.588129 11.436315 8.3054766 11.338521 8.03125 11.257812 C 7.7570234 11.177105 7.4909299 11.112801 7.3085938 11.013672 C 7.126258 10.914542 7.0351563 10.805909 7.0351562 10.599609 C 7.0351562 10.428242 7.0916861 10.317239 7.21875 10.230469 C 7.3458139 10.143698 7.5514678 10.091797 7.8320312 10.091797 C 8.1448892 10.091797 8.4877656 10.158259 8.7480469 10.267578 L 8.8652344 10.3125 L 9.0878906 9.7285156 L 8.984375 9.6855469 C 8.6392679 9.5334647 8.2541513 9.4492188 7.8691406 9.4492188 C 7.8408888 9.4492188 7.8128893 9.4483428 7.7851562 9.4492188 z M 9.6621094 9.5 L 9.6621094 9.6191406 L 9.6621094 13.611328 L 10.96875 13.611328 C 11.580352 13.611328 12.104283 13.408201 12.474609 13.037109 C 12.844935 12.666018 13.058594 12.133737 13.058594 11.486328 C 13.058594 10.876814 12.868968 10.376163 12.519531 10.03125 C 12.170094 9.6863375 11.665273 9.5 11.050781 9.5 L 9.6621094 9.5 z M 10.363281 10.142578 L 10.992188 10.142578 C 11.440134 10.142578 11.773166 10.27035 11.996094 10.503906 C 12.219022 10.737462 12.341797 11.091018 12.341797 11.560547 C 12.341797 12.027393 12.223145 12.373181 12.003906 12.607422 C 11.784667 12.841662 11.457471 12.970703 11.021484 12.970703 L 10.363281 12.970703 L 10.363281 10.142578 z "
       transform="scale(0.26458333)" />
  </g>
</svg>
