<?xml version="1.0" encoding="UTF-8" standalone="no"?>
<svg
   width="256"
   height="256"
   viewBox="0 0 67.733332 67.733335"
   version="1.1"
   id="svg8"
   sodipodi:docname="drive-harddisk-solidstate.svg"
   xmlns:inkscape="http://www.inkscape.org/namespaces/inkscape"
   xmlns:sodipodi="http://sodipodi.sourceforge.net/DTD/sodipodi-0.dtd"
   xmlns="http://www.w3.org/2000/svg"
   xmlns:svg="http://www.w3.org/2000/svg">
  <defs
     id="defs2" />
  <sodipodi:namedview
     id="base"
     pagecolor="#ffffff"
     bordercolor="#666666"
     borderopacity="1.0"
     inkscape:pageopacity="0.0"
     inkscape:pageshadow="2"
     inkscape:zoom="2.0000001"
     inkscape:cx="129.99999"
     inkscape:cy="110.24999"
     inkscape:document-units="px"
     inkscape:current-layer="layer2"
     inkscape:document-rotation="0"
     showgrid="false"
     inkscape:window-width="1920"
     inkscape:window-height="1016"
     inkscape:window-x="1920"
     inkscape:window-y="27"
     inkscape:window-maximized="1"
     units="px"
     inkscape:pagecheckerboard="0"
     inkscape:showpageshadow="2"
     inkscape:deskcolor="#d1d1d1" />
  <g
     inkscape:groupmode="layer"
     id="layer4"
     inkscape:label="Disk"
     style="display:inline">
    <g
       inkscape:groupmode="layer"
       id="layer1"
       inkscape:label="Shadow"
       style="display:inline;opacity:0.4">
      <path
         transform="scale(0.26458333)"
         d="m 63,20 v 0.06445 C 50.672882,20.917288 41,31.120739 41,43.671875 V 220.32812 c 0,12.55114 9.672882,22.7546 22,23.60743 V 244 H 64.671875 104.32812 128 151.67188 191.32812 193 v -0.0644 c 12.32711,-0.85283 22,-11.05628 22,-23.60743 V 43.671875 C 215,31.12074 205.32711,20.917285 193,20.064453 V 20 H 191.32812 151.67188 128 104.32812 64.671875 Z"
         style="display:inline;opacity:1;fill:#000000;fill-opacity:1;stroke-width:3.74566;paint-order:stroke fill markers"
         id="path1561" />
    </g>
    <g
       style="display:inline"
       inkscape:label="Colour"
       id="layer9"
       inkscape:groupmode="layer">
      <path
         id="rect1509"
         style="fill:#bdbdbd;fill-opacity:1;stroke-width:3.74566;paint-order:stroke fill markers"
         d="m 63,16 v 0.06445 C 50.672882,16.917291 41,27.120738 41,39.671875 V 216.32812 c 0,12.55115 9.672882,22.7546 22,23.60743 V 240 H 64.671875 104.32812 128 130 151.67188 191.32812 193 v -0.0644 c 12.32711,-0.85283 22,-11.05628 22,-23.60743 V 39.671875 c 0,-12.551136 -9.67289,-22.75459 -22,-23.607422 V 16 H 191.32812 151.67188 130 128 104.32812 64.671875 Z"
         transform="scale(0.26458333)" />
    </g>
    <g
       inkscape:groupmode="layer"
       id="layer5"
       inkscape:label="Highlight"
       style="display:inline;opacity:0.4">
      <path
         d="m 16.66875,4.2333332 v 0.017053 c -3.26155,0.225646 -5.820833,2.9253087 -5.820833,6.2461298 v 1.058334 c 0,-3.3208215 2.559283,-6.0204845 5.820833,-6.2461304 v -0.017053 h 0.44235 10.492381 6.263185 6.263185 10.49238 0.442352 v 0.017053 c 3.261548,0.2256451 5.820833,2.9253092 5.820833,6.2461304 v -1.058334 c 0,-3.3208208 -2.559285,-6.0204846 -5.820833,-6.2461298 V 4.2333332 H 50.622231 40.129851 33.866666 27.603481 17.1111 Z"
         style="opacity:1;fill:#ffffff;fill-opacity:1;stroke-width:0.991039;paint-order:stroke fill markers"
         id="path1539" />
    </g>
  </g>
  <g
     inkscape:groupmode="layer"
     id="layer2"
     inkscape:label="Graphic"
     style="display:inline">
    <path
       id="path13588"
       style="font-size:40px;font-family:Cantarell;-inkscape-font-specification:Cantarell;white-space:pre;fill:#4d4d4d;stroke-width:0.516463"
       d="m 21.945623,39.6875 c -3.202067,0 -5.288489,1.59087 -5.288489,4.090541 0,4.916712 8.015183,3.077979 8.015183,6.734523 0,1.446093 -1.239225,2.375835 -3.408367,2.375835 -1.301486,0 -2.912829,-0.351352 -4.317605,-0.929787 l -0.516778,1.342795 c 1.590705,0.723047 3.201888,1.115743 4.730617,1.115743 3.202067,0 5.289002,-1.63237 5.289002,-4.152701 0,-5.081976 -8.036242,-3.057208 -8.036242,-6.755068 0,-1.508066 1.218563,-2.334224 3.408365,-2.334224 1.218851,0 2.541365,0.247843 3.57429,0.681672 l 0.516263,-1.342796 C 24.693011,39.976912 23.309085,39.6875 21.945623,39.6875 Z m 11.424062,0 c -3.202067,0 -5.28849,1.59087 -5.28849,4.090541 0,4.916712 8.015183,3.077979 8.015183,6.734523 0,1.446093 -1.239222,2.375835 -3.408364,2.375835 -1.301488,0 -2.91283,-0.351352 -4.317608,-0.929787 l -0.516777,1.342795 c 1.590705,0.723047 3.202401,1.115743 4.731131,1.115743 3.202069,0 5.288488,-1.63237 5.288488,-4.152701 0,-5.081976 -8.036244,-3.057208 -8.036244,-6.755068 0,-1.508066 1.219081,-2.334224 3.408881,-2.334224 1.218852,0 2.540849,0.247843 3.573775,0.681672 l 0.516263,-1.342796 C 36.117071,39.976912 34.733145,39.6875 33.369685,39.6875 Z m 7.106455,0.185957 v 14.337188 h 4.379765 c 4.338282,0 7.292412,-2.830424 7.292412,-7.437255 0,-4.338274 -2.603053,-6.899933 -6.982655,-6.899933 z m 1.714716,1.487657 h 2.768301 c 3.491288,0 5.432838,2.045051 5.432838,5.680937 0,3.615227 -1.920933,5.680937 -5.329587,5.680937 h -2.871552 z" />
  </g>
</svg>
