<?xml version="1.0" encoding="UTF-8" standalone="no"?>
<svg
   width="256"
   height="256"
   viewBox="0 0 67.733332 67.733335"
   version="1.1"
   id="svg8"
   sodipodi:docname="drive-harddisk-solidstate.svg"
   inkscape:version="1.4 (e7c3feb100, 2024-10-09)"
   xmlns:inkscape="http://www.inkscape.org/namespaces/inkscape"
   xmlns:sodipodi="http://sodipodi.sourceforge.net/DTD/sodipodi-0.dtd"
   xmlns="http://www.w3.org/2000/svg"
   xmlns:svg="http://www.w3.org/2000/svg">
  <defs
     id="defs2" />
  <sodipodi:namedview
     id="base"
     pagecolor="#ffffff"
     bordercolor="#666666"
     borderopacity="1.0"
     inkscape:pageopacity="0.0"
     inkscape:pageshadow="2"
     inkscape:zoom="1"
     inkscape:cx="-12"
     inkscape:cy="170"
     inkscape:document-units="px"
     inkscape:current-layer="layer2"
     inkscape:document-rotation="0"
     showgrid="false"
     inkscape:window-width="1920"
     inkscape:window-height="1011"
     inkscape:window-x="0"
     inkscape:window-y="0"
     inkscape:window-maximized="1"
     units="px"
     inkscape:pagecheckerboard="0"
     inkscape:showpageshadow="2"
     inkscape:deskcolor="#d1d1d1" />
  <g
     inkscape:groupmode="layer"
     id="layer4"
     inkscape:label="Background"
     style="display:inline">
    <g
       inkscape:groupmode="layer"
       id="layer1"
       inkscape:label="Shadow"
       style="display:inline;opacity:0.4">
      <rect
         style="display:inline;opacity:0.4;fill:#000000;fill-opacity:1;stroke:none;stroke-width:0.309707;stroke-linecap:round;stroke-linejoin:round"
         id="rect4"
         width="46.566666"
         height="59.266666"
         x="10.583333"
         y="5.2916665"
         ry="6.2591023" />
    </g>
    <g
       style="display:inline"
       inkscape:label="Colour"
       id="layer9"
       inkscape:groupmode="layer">
      <rect
         style="display:inline;fill:#bdbdbd;fill-opacity:1;stroke:none;stroke-width:0.309707;stroke-linecap:round;stroke-linejoin:round"
         id="rect2"
         width="46.566666"
         height="59.266666"
         x="10.583333"
         y="4.2333331"
         ry="6.2591023"
         inkscape:label="rect2" />
    </g>
    <g
       inkscape:groupmode="layer"
       id="layer5"
       inkscape:label="Highlight"
       style="display:inline;opacity:0.4">
      <path
         id="rect5"
         style="display:inline;opacity:1;fill:#ffffff;fill-opacity:1;stroke:none;stroke-width:0.309707;stroke-linecap:round;stroke-linejoin:round"
         inkscape:label="rect2"
         d="m 16.842383,4.2333333 c -3.467543,0 -6.25905,2.791507 -6.25905,6.2590497 v 1.058333 c 0,-3.4675422 2.791507,-6.2590487 6.25905,-6.2590487 h 34.048566 c 3.46754,0 6.25905,2.7915065 6.25905,6.2590487 v -1.058333 c 0,-3.4675427 -2.79151,-6.2590497 -6.25905,-6.2590497 z" />
    </g>
  </g>
  <g
     inkscape:groupmode="layer"
     id="layer2"
     inkscape:label="Graphic"
     style="display:inline">
    <g
       id="g308">
      <g
         id="g306">
        <rect
           style="fill:#333333;stroke-width:11.3004;stroke-linecap:round;stroke-linejoin:round"
           id="rect287"
           width="26.458334"
           height="26.458334"
           x="20.637491"
           y="19.579021"
           ry="3.5079134" />
        <rect
           style="fill:#4d4d4d;stroke-width:11.3004;stroke-linecap:round;stroke-linejoin:round"
           id="rect244"
           width="26.458334"
           height="26.458334"
           x="20.637491"
           y="18.520687"
           ry="3.5079134" />
      </g>
      <g
         id="g307">
        <path
           id="path306"
           style="opacity:0.4;fill:#000000;fill-opacity:1;stroke-width:2.43586;stroke-linecap:round;stroke-linejoin:round"
           d="m 16.270842,23.283334 c -0.805595,4.4e-5 -1.454175,0.648061 -1.454175,1.453658 v 1.74873 c 0,0.805597 0.64858,1.454198 1.454175,1.454175 H 20.6375 v -4.656563 z m 30.824991,0 v 4.656563 h 4.366659 c 0.805595,2.3e-5 1.454175,-0.648578 1.454175,-1.454175 v -1.74873 c 0,-0.805597 -0.64858,-1.453614 -1.454175,-1.453658 z m -30.824991,7.19646 c -0.805595,4.4e-5 -1.454175,0.648577 -1.454175,1.454174 v 1.748214 c 0,0.805597 0.64858,1.454198 1.454175,1.454175 H 20.6375 v -4.656563 z m 30.824991,0 v 4.656563 h 4.366659 c 0.805595,2.3e-5 1.454175,-0.648061 1.454175,-1.453658 v -1.748731 c 0,-0.805597 -0.64858,-1.45413 -1.454175,-1.454174 z M 16.270842,37.67677 c -0.805595,4.4e-5 -1.454175,0.648061 -1.454175,1.453658 v 1.748731 c 0,0.805597 0.64858,1.454198 1.454175,1.454175 H 20.6375 V 37.67677 Z m 30.824991,0 v 4.656564 h 4.366659 c 0.805595,2.3e-5 1.454175,-0.648578 1.454175,-1.454175 v -1.748731 c 0,-0.805597 -0.64858,-1.453614 -1.454175,-1.453658 z m -22.754166,8.889897 v 4.366659 c -2.3e-5,0.805595 0.648578,1.454174 1.454175,1.454174 h 1.748213 c 0.805597,0 1.454131,-0.648579 1.454175,-1.454174 v -4.366659 z m 7.19646,0 v 4.366659 c -2.3e-5,0.805595 0.648578,1.454174 1.454175,1.454174 h 1.74873 c 0.805597,0 1.454131,-0.648579 1.454175,-1.454174 v -4.366659 z m 7.196976,0 v 4.366659 c -2.3e-5,0.805595 0.648578,1.454174 1.454175,1.454174 h 1.748214 c 0.805597,0 1.454131,-0.648579 1.454175,-1.454174 v -4.366659 z" />
        <path
           id="path298"
           style="fill:#ffb100;fill-opacity:1;stroke-width:2.43586;stroke-linecap:round;stroke-linejoin:round"
           d="m 16.270842,22.754167 c -0.805595,4.4e-5 -1.454175,0.648061 -1.454175,1.453658 v 1.74873 c 0,0.805597 0.64858,1.454198 1.454175,1.454175 H 20.6375 v -4.656563 z m 30.824991,0 v 4.656563 h 4.366659 c 0.805595,2.3e-5 1.454175,-0.648578 1.454175,-1.454175 v -1.74873 c 0,-0.805597 -0.64858,-1.453614 -1.454175,-1.453658 z m -30.824991,7.19646 c -0.805595,4.4e-5 -1.454175,0.648577 -1.454175,1.454174 v 1.748214 c 0,0.805597 0.64858,1.454198 1.454175,1.454175 H 20.6375 v -4.656563 z m 30.824991,0 v 4.656563 h 4.366659 c 0.805595,2.3e-5 1.454175,-0.648061 1.454175,-1.453658 v -1.748731 c 0,-0.805597 -0.64858,-1.45413 -1.454175,-1.454174 z m -30.824991,7.196976 c -0.805595,4.4e-5 -1.454175,0.648061 -1.454175,1.453658 v 1.748731 c 0,0.805597 0.64858,1.454198 1.454175,1.454175 H 20.6375 v -4.656564 z m 30.824991,0 v 4.656564 h 4.366659 c 0.805595,2.3e-5 1.454175,-0.648578 1.454175,-1.454175 v -1.748731 c 0,-0.805597 -0.64858,-1.453614 -1.454175,-1.453658 z M 24.341667,46.0375 v 4.366659 c -2.3e-5,0.805595 0.648578,1.454174 1.454175,1.454174 h 1.748213 c 0.805597,0 1.454131,-0.648579 1.454175,-1.454174 V 46.0375 Z m 7.19646,0 v 4.366659 c -2.3e-5,0.805595 0.648578,1.454174 1.454175,1.454174 h 1.74873 c 0.805597,0 1.454131,-0.648579 1.454175,-1.454174 V 46.0375 Z m 7.196976,0 v 4.366659 c -2.3e-5,0.805595 0.648578,1.454174 1.454175,1.454174 h 1.748214 c 0.805597,0 1.454131,-0.648579 1.454175,-1.454174 V 46.0375 Z" />
        <path
           id="path297"
           style="fill:#fffd00;fill-opacity:1;stroke-width:2.43586;stroke-linecap:round;stroke-linejoin:round"
           d="m 25.795842,12.7 c -0.805597,0 -1.454198,0.64858 -1.454175,1.454175 v 4.366658 H 28.99823 V 14.154175 C 28.998186,13.34858 28.349652,12.7 27.544055,12.7 Z m 7.19646,0 c -0.805597,0 -1.454198,0.64858 -1.454175,1.454175 v 4.366658 h 4.65708 V 14.154175 C 36.195163,13.34858 35.546629,12.7 34.741032,12.7 Z m 7.196976,0 c -0.805597,0 -1.454198,0.64858 -1.454175,1.454175 v 4.366658 h 4.656564 V 14.154175 C 43.391623,13.34858 42.743089,12.7 41.937492,12.7 Z m -23.918436,9.525 c -0.805595,4.4e-5 -1.454175,0.648061 -1.454175,1.453658 v 1.748731 c 0,0.805597 0.64858,1.454197 1.454175,1.454174 H 20.6375 V 22.225 Z m 30.824991,0 v 4.656563 h 4.366659 c 0.805595,2.3e-5 1.454175,-0.648577 1.454175,-1.454174 v -1.748731 c 0,-0.805597 -0.64858,-1.453614 -1.454175,-1.453658 z m -30.824991,7.19646 c -0.805595,4.4e-5 -1.454175,0.648578 -1.454175,1.454175 v 1.748214 c 0,0.805597 0.64858,1.454197 1.454175,1.454174 H 20.6375 V 29.42146 Z m 30.824991,0 v 4.656563 h 4.366659 c 0.805595,2.3e-5 1.454175,-0.648061 1.454175,-1.453658 v -1.74873 c 0,-0.805597 -0.64858,-1.454131 -1.454175,-1.454175 z m -30.824991,7.196977 c -0.805595,4.4e-5 -1.454175,0.648061 -1.454175,1.453658 v 1.74873 c 0,0.805597 0.64858,1.454198 1.454175,1.454175 H 20.6375 v -4.656563 z m 30.824991,0 V 41.275 h 4.366659 c 0.805595,2.3e-5 1.454175,-0.648578 1.454175,-1.454175 v -1.74873 c 0,-0.805597 -0.64858,-1.453614 -1.454175,-1.453658 z m -22.754166,8.889896 v 4.366659 c -2.3e-5,0.805595 0.648578,1.454175 1.454175,1.454175 h 1.748213 c 0.805597,0 1.454131,-0.64858 1.454175,-1.454175 v -4.366659 z m 7.19646,0 v 4.366659 c -2.3e-5,0.805595 0.648578,1.454175 1.454175,1.454175 h 1.74873 c 0.805597,0 1.454131,-0.64858 1.454175,-1.454175 v -4.366659 z m 7.196976,0 v 4.366659 c -2.3e-5,0.805595 0.648578,1.454175 1.454175,1.454175 h 1.748214 c 0.805597,0 1.454131,-0.64858 1.454175,-1.454175 v -4.366659 z" />
      </g>
    </g>
    <g
       id="g1"
       style="display:inline">
      <circle
         cy="56.356243"
         cx="17.727215"
         id="circle861"
         style="display:inline;opacity:1;fill:#ececec;fill-opacity:1;stroke-width:0.017581"
         r="1.3229166" />
      <circle
         style="display:inline;opacity:1;fill:#ececec;fill-opacity:1;stroke-width:0.0330729"
         id="path18"
         cx="17.727083"
         cy="11.377084"
         r="1.3229166" />
      <circle
         r="1.3229166"
         cy="11.377084"
         cx="50.006248"
         id="path18-3"
         style="display:inline;opacity:1;fill:#ececec;fill-opacity:1;stroke-width:0.0330729" />
      <circle
         r="1.3229166"
         cy="56.356251"
         cx="50.006248"
         id="circle856"
         style="display:inline;opacity:1;fill:#ececec;fill-opacity:1;stroke-width:0.0330729" />
    </g>
  </g>
</svg>
