<?xml version="1.0" encoding="UTF-8" standalone="no"?>
<svg
   sodipodi:docname="input-gaming-symbolic.symbolic.svg"
   id="svg4705"
   version="1.1"
   viewBox="0 0 4.2333333 4.2333333"
   height="16"
   width="16"
   xmlns:inkscape="http://www.inkscape.org/namespaces/inkscape"
   xmlns:sodipodi="http://sodipodi.sourceforge.net/DTD/sodipodi-0.dtd"
   xmlns="http://www.w3.org/2000/svg"
   xmlns:svg="http://www.w3.org/2000/svg">
  <defs
     id="defs4699" />
  <sodipodi:namedview
     units="px"
     inkscape:document-rotation="0"
     inkscape:window-maximized="1"
     inkscape:window-y="32"
     inkscape:window-x="1920"
     inkscape:window-height="1011"
     inkscape:window-width="1920"
     fit-margin-bottom="0"
     fit-margin-right="0"
     fit-margin-left="0"
     fit-margin-top="0"
     showgrid="false"
     inkscape:current-layer="layer1"
     inkscape:document-units="px"
     inkscape:cy="11.05873"
     inkscape:cx="17.641308"
     inkscape:zoom="17.09057"
     inkscape:pageshadow="2"
     inkscape:pageopacity="0.0"
     borderopacity="1.0"
     bordercolor="#666666"
     pagecolor="#ffffff"
     id="base"
     inkscape:showpageshadow="2"
     inkscape:pagecheckerboard="0"
     inkscape:deskcolor="#d1d1d1"
     showguides="false" />
  <g
     style="display:inline"
     transform="translate(-130.05163,-144.32544)"
     id="layer1"
     inkscape:groupmode="layer"
     inkscape:label="Icon">
    <path
       id="rect775"
       style="fill:#000000;stroke-width:0.413213;stroke-linecap:round;stroke-linejoin:round;paint-order:stroke markers fill"
       d="M 130.90636 145.11919 C 130.4329 145.11919 130.05163 145.50046 130.05163 145.97392 L 130.05163 146.9103 C 130.05163 147.38375 130.4329 147.76502 130.90636 147.76502 L 133.43024 147.76502 C 133.90369 147.76502 134.28496 147.38375 134.28496 146.9103 L 134.28496 145.97392 C 134.28496 145.50046 133.90369 145.11919 133.43024 145.11919 L 130.90636 145.11919 z M 131.35439 145.64836 C 131.35739 145.64817 131.35811 145.64848 131.36111 145.64836 C 131.36211 145.64825 131.36528 145.64844 131.36628 145.64836 C 131.37028 145.64829 131.37355 145.64836 131.37455 145.64836 C 131.52118 145.64836 131.63913 145.76644 131.63913 145.91294 L 131.63913 146.17701 L 131.90371 146.17701 C 132.04551 146.17701 132.1603 146.28762 132.1683 146.42712 L 132.1683 146.42764 C 132.16831 146.43064 132.16823 146.43187 132.1683 146.43487 C 132.16835 146.43887 132.1683 146.43962 132.1683 146.44262 C 132.1683 146.58899 132.0504 146.70721 131.90371 146.70721 L 131.63913 146.70721 L 131.63913 146.97127 C 131.63913 147.1176 131.52124 147.23586 131.37455 147.23586 C 131.37355 147.23586 131.37028 147.23591 131.36628 147.23586 C 131.36528 147.23578 131.36211 147.23595 131.36111 147.23586 C 131.22084 147.22787 131.10996 147.11338 131.10996 146.97127 L 131.10996 146.70721 L 130.84538 146.70721 C 130.70357 146.70721 130.5888 146.59681 130.5808 146.45709 C 130.58078 146.45609 130.58086 146.45344 130.5808 146.45244 C 130.58074 146.44844 130.5808 146.44517 130.5808 146.44417 C 130.5808 146.29785 130.6987 146.18011 130.84538 146.18011 L 131.10996 146.18011 L 131.10996 145.91552 C 131.10996 145.77574 131.21783 145.66346 131.35491 145.65146 L 131.35439 145.64836 z M 133.35892 145.64836 A 0.39687499 0.39688259 0 0 1 133.7558 146.04523 A 0.39687499 0.39688259 0 0 1 133.35892 146.44211 A 0.39687499 0.39688259 0 0 1 132.96205 146.04523 A 0.39687499 0.39688259 0 0 1 133.35892 145.64836 z M 132.82975 146.44211 A 0.39687499 0.39688259 0 0 1 133.22663 146.83898 A 0.39687499 0.39688259 0 0 1 132.82975 147.23586 A 0.39687499 0.39688259 0 0 1 132.43288 146.83898 A 0.39687499 0.39688259 0 0 1 132.82975 146.44211 z " />
  </g>
</svg>
