<?xml version="1.0" encoding="UTF-8" standalone="no"?>
<svg
   sodipodi:docname="input-gaming.svg"
   id="svg4705"
   version="1.1"
   viewBox="0 0 67.733332 67.733332"
   height="256"
   width="256"
   xmlns:inkscape="http://www.inkscape.org/namespaces/inkscape"
   xmlns:sodipodi="http://sodipodi.sourceforge.net/DTD/sodipodi-0.dtd"
   xmlns="http://www.w3.org/2000/svg"
   xmlns:svg="http://www.w3.org/2000/svg">
  <defs
     id="defs4699" />
  <sodipodi:namedview
     units="px"
     inkscape:document-rotation="0"
     inkscape:window-maximized="1"
     inkscape:window-y="27"
     inkscape:window-x="2004"
     inkscape:window-height="1016"
     inkscape:window-width="1836"
     fit-margin-bottom="0"
     fit-margin-right="0"
     fit-margin-left="0"
     fit-margin-top="0"
     showgrid="false"
     inkscape:current-layer="layer5"
     inkscape:document-units="px"
     inkscape:cy="147.17115"
     inkscape:cx="92.180896"
     inkscape:zoom="2.8284271"
     inkscape:pageshadow="2"
     inkscape:pageopacity="0.0"
     borderopacity="1.0"
     bordercolor="#666666"
     pagecolor="#ffffff"
     id="base"
     inkscape:showpageshadow="2"
     inkscape:pagecheckerboard="0"
     inkscape:deskcolor="#d1d1d1" />
  <g
     inkscape:label="Icon"
     id="layer5"
     inkscape:groupmode="layer"
     style="display:inline">
    <g
       style="display:inline;opacity:0.4"
       inkscape:label="Shadow"
       id="layer4"
       inkscape:groupmode="layer">
      <path
         id="path976"
         style="display:inline;fill:#000000;stroke-width:2.20511;stroke-linejoin:round"
         d="m 156.55153,157.56109 c -6.77591,0.0213 -12.03877,0.3837 -14.13003,3.12664 -5.07332,6.77438 -10.78322,25.65486 -10.2138,33.93532 0.79012,5.16247 8.2696,6.94254 11.78572,3.15877 l 9.03668,-12.196 h 10.8882 10.8882 l 9.03668,12.196 c 3.51611,3.78377 10.9956,2.0037 11.78572,-3.15877 0.56942,-8.28046 -5.14047,-27.16095 -10.21381,-33.93532 -2.09124,-2.74294 -7.35412,-3.10532 -14.13002,-3.12664 -2.6039,-0.008 -5.15921,0.0207 -7.36677,0.0177 -2.52054,0.0101 -5.14863,-0.0234 -7.36677,-0.0177 z"
         sodipodi:nodetypes="ccccccccccccc"
         transform="translate(-130.05163,-144.32544)" />
    </g>
    <g
       style="display:inline"
       transform="translate(-130.05163,-144.32544)"
       id="layer1"
       inkscape:groupmode="layer"
       inkscape:label="Colour">
      <path
         id="rect876"
         style="display:inline;fill:#4d4d4d;stroke-width:2.20511;stroke-linejoin:round"
         d="m 156.55153,156.50275 c -6.77591,0.0213 -12.03877,0.3837 -14.13003,3.12664 -5.07332,6.77438 -10.78322,25.65486 -10.2138,33.93532 0.79012,5.16247 8.2696,6.94254 11.78572,3.15877 l 9.03668,-12.196 h 10.8882 10.8882 l 9.03668,12.196 c 3.51611,3.78377 10.9956,2.0037 11.78572,-3.15877 0.56942,-8.28046 -5.14047,-27.16095 -10.21381,-33.93532 -2.09124,-2.74294 -7.35412,-3.10532 -14.13002,-3.12664 -2.6039,-0.008 -5.15921,0.0207 -7.36677,0.0177 -2.52054,0.0101 -5.14863,-0.0234 -7.36677,-0.0177 z"
         sodipodi:nodetypes="ccccccccccccc" />
    </g>
    <g
       style="display:inline;opacity:0.1"
       inkscape:label="Highlight"
       id="layer3"
       inkscape:groupmode="layer">
      <path
         id="path979"
         style="display:inline;fill:#ffffff;stroke-width:2.20511;stroke-linejoin:round"
         d="m 156.5513,156.50299 c -6.77591,0.0213 -12.03862,0.38348 -14.12988,3.12642 -4.93367,6.58791 -10.46752,24.62155 -10.24486,33.22485 0.21232,-8.94712 5.50548,-25.83805 10.24486,-32.16651 2.09126,-2.74294 7.35397,-3.10513 14.12988,-3.12643 2.21814,-0.006 4.84646,0.0277 7.367,0.0176 2.20756,0.003 4.76309,-0.0256 7.36699,-0.0176 6.7759,0.0213 12.03865,0.38349 14.12989,3.12643 4.73939,6.32845 10.03254,23.21939 10.24485,32.16651 0.22266,-8.6033 -5.31117,-26.63695 -10.24485,-33.22485 -2.09124,-2.74294 -7.35399,-3.1051 -14.12989,-3.12642 -2.6039,-0.008 -5.15943,0.0206 -7.36699,0.0176 -2.52054,0.0101 -5.14886,-0.0233 -7.367,-0.0176 z"
         transform="translate(-130.05163,-144.32544)" />
    </g>
    <g
       inkscape:label="Graphic"
       id="layer6"
       inkscape:groupmode="layer"
       style="display:inline">
      <g
         id="g1138"
         transform="matrix(1.0714444,0,0,1.0714446,-3.5535276,-1.9505008)">
        <g
           id="g994"
           transform="matrix(1.3333333,0,0,1.3333326,-7.5696521,-11.640668)"
           style="opacity:0.4;fill:#000000">
          <rect
             style="fill:#000000;stroke:none;stroke-width:19.9397;stroke-linejoin:round;stroke-miterlimit:4;stroke-dasharray:none"
             id="rect990"
             width="2.6458333"
             height="7.9375"
             x="22.41214"
             y="25.751091"
             ry="1.3229166" />
          <rect
             style="fill:#000000;stroke:none;stroke-width:19.9397;stroke-linejoin:round;stroke-miterlimit:4;stroke-dasharray:none"
             id="rect992"
             width="2.6458333"
             height="7.9375"
             x="-31.042763"
             y="19.766304"
             transform="rotate(-90)"
             ry="1.3229166" />
        </g>
        <g
           id="g923"
           transform="matrix(1.3333333,0,0,1.3333326,-7.5696521,-12.699001)"
           style="fill:#e6e6e6">
          <rect
             style="fill:#e6e6e6;stroke:none;stroke-width:19.9397;stroke-linejoin:round;stroke-miterlimit:4;stroke-dasharray:none"
             id="rect911"
             width="2.6458333"
             height="7.9375"
             x="22.41214"
             y="25.751091"
             ry="1.3229166" />
          <rect
             style="fill:#e6e6e6;stroke:none;stroke-width:19.9397;stroke-linejoin:round;stroke-miterlimit:4;stroke-dasharray:none"
             id="rect913"
             width="2.6458333"
             height="7.9375"
             x="-31.042763"
             y="19.766304"
             transform="rotate(-90)"
             ry="1.3229166" />
        </g>
      </g>
      <g
         id="g1152"
         transform="matrix(1.0714444,0,0,1.0714446,-1.2856371,-1.9505008)">
        <path
           id="circle996"
           style="opacity:0.4;fill:#000000;stroke:none;stroke-width:1.70083;stroke-linejoin:round;stroke-miterlimit:4;stroke-dasharray:none"
           d="m 43.642817,22.694102 a 1.7638894,1.7638885 0 0 0 -1.750283,1.763716 1.7638894,1.7638885 0 0 0 1.763718,1.764231 1.7638894,1.7638885 0 0 0 1.763718,-1.764231 1.7638894,1.7638885 0 0 0 -1.763718,-1.763716 1.7638894,1.7638885 0 0 0 -0.01344,0 z m -3.527433,3.527947 a 1.7638894,1.7638885 0 0 0 -1.750798,1.763717 1.7638894,1.7638885 0 0 0 1.763717,1.763717 1.7638894,1.7638885 0 0 0 1.764231,-1.763717 1.7638894,1.7638885 0 0 0 -1.764231,-1.763717 1.7638894,1.7638885 0 0 0 -0.01292,0 z m 7.055381,0 a 1.7638894,1.7638885 0 0 0 -1.750795,1.763717 1.7638894,1.7638885 0 0 0 1.764231,1.763717 1.7638894,1.7638885 0 0 0 1.763718,-1.763717 1.7638894,1.7638885 0 0 0 -1.763718,-1.763717 1.7638894,1.7638885 0 0 0 -0.01344,0 z m -3.527948,3.527434 a 1.7638894,1.7638885 0 0 0 -1.750283,1.764231 1.7638894,1.7638885 0 0 0 1.763718,1.763717 1.7638894,1.7638885 0 0 0 1.763718,-1.763717 1.7638894,1.7638885 0 0 0 -1.763718,-1.764231 1.7638894,1.7638885 0 0 0 -0.01344,0 z" />
        <g
           id="g1144">
          <circle
             style="fill:#ff1f1f;fill-opacity:1;stroke:none;stroke-width:1.70083;stroke-linejoin:round;stroke-miterlimit:4;stroke-dasharray:none"
             id="path931"
             cx="43.65625"
             cy="30.455229"
             r="1.7638894" />
          <circle
             style="fill:#108fff;fill-opacity:1;stroke:none;stroke-width:1.70083;stroke-linejoin:round;stroke-miterlimit:4;stroke-dasharray:none"
             id="circle935"
             cx="40.128475"
             cy="26.92745"
             r="1.7638894" />
          <circle
             style="fill:#2cff2c;fill-opacity:1;stroke:none;stroke-width:1.70083;stroke-linejoin:round;stroke-miterlimit:4;stroke-dasharray:none"
             id="circle937"
             cx="47.184032"
             cy="26.92745"
             r="1.7638894" />
          <circle
             style="fill:#ffed3f;fill-opacity:1;stroke:none;stroke-width:1.70083;stroke-linejoin:round;stroke-miterlimit:4;stroke-dasharray:none"
             id="circle939"
             cx="43.65625"
             cy="23.399672"
             r="1.7638894" />
        </g>
      </g>
    </g>
  </g>
</svg>
