<?xml version="1.0" encoding="UTF-8" standalone="no"?>
<svg
   sodipodi:docname="input-keyboard.svg"
   id="svg8"
   version="1.1"
   viewBox="0 0 67.733332 67.733335"
   height="256"
   width="256"
   xmlns:inkscape="http://www.inkscape.org/namespaces/inkscape"
   xmlns:sodipodi="http://sodipodi.sourceforge.net/DTD/sodipodi-0.dtd"
   xmlns="http://www.w3.org/2000/svg"
   xmlns:svg="http://www.w3.org/2000/svg">
  <defs
     id="defs2" />
  <sodipodi:namedview
     inkscape:window-maximized="1"
     inkscape:window-y="27"
     inkscape:window-x="1920"
     inkscape:window-height="1016"
     inkscape:window-width="1920"
     units="px"
     showgrid="false"
     inkscape:document-rotation="0"
     inkscape:current-layer="g1174"
     inkscape:document-units="px"
     inkscape:cy="112.42727"
     inkscape:cx="102.67145"
     inkscape:zoom="2"
     inkscape:pageshadow="2"
     inkscape:pageopacity="0.0"
     borderopacity="1.0"
     bordercolor="#666666"
     pagecolor="#ffffff"
     id="base"
     inkscape:showpageshadow="2"
     inkscape:pagecheckerboard="0"
     inkscape:deskcolor="#d1d1d1" />
  <g
     inkscape:groupmode="layer"
     id="layer1"
     inkscape:label="Background"
     style="display:inline">
    <g
       inkscape:label="Shadow"
       id="layer10"
       inkscape:groupmode="layer"
       style="display:inline;opacity:0.4">
      <rect
         style="display:inline;opacity:1;fill:#000000;stroke:none;stroke-width:0.0896488;stroke-linecap:round;stroke-linejoin:round;paint-order:stroke markers fill"
         id="rect919"
         width="67.73333"
         height="46.566666"
         x="0"
         y="11.641665"
         ry="9.3488445" />
    </g>
    <g
       style="display:inline"
       inkscape:label="Colour"
       id="g1174"
       inkscape:groupmode="layer">
      <rect
         style="opacity:1;fill:#b3b3b3;stroke:none;stroke-width:0.0896488;stroke-linecap:round;stroke-linejoin:round;paint-order:stroke markers fill"
         id="rect864"
         width="67.73333"
         height="46.566666"
         x="0"
         y="10.583333"
         ry="9.3488445" />
      <path
         id="rect894"
         style="opacity:0.4;fill:#000000;stroke:none;stroke-width:0.162189;stroke-linecap:round;stroke-linejoin:round;paint-order:stroke markers fill"
         d="M 35.248047 65 C 28.462237 65 23 70.462237 23 77.248047 L 23 86.751953 C 23 93.537763 28.462237 99 35.248047 99 L 44.751953 99 C 51.537763 99 57 93.537763 57 86.751953 L 57 77.248047 C 57 70.462237 51.537763 65 44.751953 65 L 35.248047 65 z M 79.248047 65 C 72.462237 65 67 70.462237 67 77.248047 L 67 86.751953 C 67 93.537763 72.462237 99 79.248047 99 L 88.751953 99 C 95.537763 99 101 93.537763 101 86.751953 L 101 77.248047 C 101 70.462237 95.537763 65 88.751953 65 L 79.248047 65 z M 123.24805 65 C 116.46224 65 111 70.462237 111 77.248047 L 111 86.751953 C 111 93.537763 116.46224 99 123.24805 99 L 132.75195 99 C 139.53776 99 145 93.537763 145 86.751953 L 145 77.248047 C 145 70.462237 139.53776 65 132.75195 65 L 123.24805 65 z M 167.24805 65 C 160.46224 65 155 70.462237 155 77.248047 L 155 86.751953 C 155 93.537763 160.46224 99 167.24805 99 L 176.75195 99 C 183.53776 99 189 93.537763 189 86.751953 L 189 77.248047 C 189 70.462237 183.53776 65 176.75195 65 L 167.24805 65 z M 211.24805 65 C 204.46224 65 199 70.462237 199 77.248047 L 199 86.751953 C 199 93.537763 204.46224 99 211.24805 99 L 220.75195 99 C 227.53776 99 233 93.537763 233 86.751953 L 233 77.248047 C 233 70.462237 227.53776 65 220.75195 65 L 211.24805 65 z M 57.248047 115 C 50.462237 115 45 120.46224 45 127.24805 L 45 136.75195 C 45 143.53776 50.462237 149 57.248047 149 L 66.751953 149 C 73.537763 149 79 143.53776 79 136.75195 L 79 127.24805 C 79 120.46224 73.537763 115 66.751953 115 L 57.248047 115 z M 101.24805 115 C 94.462237 115 89 120.46224 89 127.24805 L 89 136.75195 C 89 143.53776 94.462237 149 101.24805 149 L 110.75195 149 C 117.53776 149 123 143.53776 123 136.75195 L 123 127.24805 C 123 120.46224 117.53776 115 110.75195 115 L 101.24805 115 z M 145.24805 115 C 138.46224 115 133 120.46224 133 127.24805 L 133 136.75195 C 133 143.53776 138.46224 149 145.24805 149 L 154.75195 149 C 161.53776 149 167 143.53776 167 136.75195 L 167 127.24805 C 167 120.46224 161.53776 115 154.75195 115 L 145.24805 115 z M 189.24805 115 C 182.46224 115 177 120.46224 177 127.24805 L 177 136.75195 C 177 143.53776 182.46224 149 189.24805 149 L 198.75195 149 C 205.53776 149 211 143.53776 211 136.75195 L 211 127.24805 C 211 120.46224 205.53776 115 198.75195 115 L 189.24805 115 z M 33.748047 164 C 26.962237 164 21.5 169.46224 21.5 176.24805 L 21.5 185.75195 C 21.5 192.53776 26.962237 198 33.748047 198 L 43.251953 198 C 50.037763 198 55.5 192.53776 55.5 185.75195 L 55.5 176.24805 C 55.5 169.46224 50.037763 164 43.251953 164 L 33.748047 164 z M 77.748047 164 C 70.962237 164 65.5 169.46224 65.5 176.24805 L 65.5 185.75195 C 65.5 192.53776 70.962237 198 77.748047 198 L 178.25195 198 C 185.03776 198 190.5 192.53776 190.5 185.75195 L 190.5 176.24805 C 190.5 169.46224 185.03776 164 178.25195 164 L 77.748047 164 z M 212.74805 164 C 205.96224 164 200.5 169.46224 200.5 176.24805 L 200.5 185.75195 C 200.5 192.53776 205.96224 198 212.74805 198 L 222.25195 198 C 229.03776 198 234.5 192.53776 234.5 185.75195 L 234.5 176.24805 C 234.5 169.46224 229.03776 164 222.25195 164 L 212.74805 164 z "
         transform="scale(0.26458333)" />
      <g
         id="g863">
        <rect
           style="opacity:1;fill:#f2f2f2;stroke:none;stroke-width:0.0429126;stroke-linecap:round;stroke-linejoin:round;paint-order:stroke markers fill"
           id="rect866"
           width="33.072918"
           height="8.9958334"
           x="17.330208"
           y="42.333332"
           ry="3.2408164" />
        <rect
           style="opacity:1;fill:#f2f2f2;stroke:none;stroke-width:0.0223805;stroke-linecap:round;stroke-linejoin:round;paint-order:stroke markers fill"
           id="rect872"
           width="8.9958334"
           height="8.9958334"
           x="6.0854168"
           y="16.139584"
           ry="3.2408164" />
        <rect
           style="opacity:1;fill:#f2f2f2;stroke:none;stroke-width:0.0223805;stroke-linecap:round;stroke-linejoin:round;paint-order:stroke markers fill"
           id="rect874"
           width="8.9958334"
           height="8.9958334"
           x="11.90625"
           y="29.36875"
           ry="3.2408164" />
        <rect
           style="opacity:1;fill:#f2f2f2;stroke:none;stroke-width:0.0223805;stroke-linecap:round;stroke-linejoin:round;paint-order:stroke markers fill"
           id="rect876"
           width="8.9958334"
           height="8.9958334"
           x="5.68854"
           y="42.333332"
           ry="3.2408164" />
        <rect
           style="opacity:1;fill:#f2f2f2;stroke:none;stroke-width:0.0223805;stroke-linecap:round;stroke-linejoin:round;paint-order:stroke markers fill"
           id="rect878"
           width="8.9958334"
           height="8.9958334"
           x="53.048962"
           y="42.333332"
           ry="3.2408164" />
        <rect
           style="opacity:1;fill:#f2f2f2;stroke:none;stroke-width:0.0223805;stroke-linecap:round;stroke-linejoin:round;paint-order:stroke markers fill"
           id="rect880"
           width="8.9958334"
           height="8.9958334"
           x="23.547918"
           y="29.36875"
           ry="3.2408164" />
        <rect
           style="opacity:1;fill:#f2f2f2;stroke:none;stroke-width:0.0223805;stroke-linecap:round;stroke-linejoin:round;paint-order:stroke markers fill"
           id="rect882"
           width="8.9958334"
           height="8.9958334"
           x="35.18959"
           y="29.36875"
           ry="3.2408164" />
        <rect
           style="opacity:1;fill:#f2f2f2;stroke:none;stroke-width:0.0223805;stroke-linecap:round;stroke-linejoin:round;paint-order:stroke markers fill"
           id="rect884"
           width="8.9958334"
           height="8.9958334"
           x="46.831261"
           y="29.36875"
           ry="3.2408164" />
        <rect
           style="opacity:1;fill:#f2f2f2;stroke:none;stroke-width:0.0223805;stroke-linecap:round;stroke-linejoin:round;paint-order:stroke markers fill"
           id="rect886"
           width="8.9958334"
           height="8.9958334"
           x="17.727085"
           y="16.139584"
           ry="3.2408164" />
        <rect
           style="opacity:1;fill:#f2f2f2;stroke:none;stroke-width:0.0223805;stroke-linecap:round;stroke-linejoin:round;paint-order:stroke markers fill"
           id="rect888"
           width="8.9958334"
           height="8.9958334"
           x="29.368755"
           y="16.139584"
           ry="3.2408164" />
        <rect
           style="opacity:1;fill:#f2f2f2;stroke:none;stroke-width:0.0223805;stroke-linecap:round;stroke-linejoin:round;paint-order:stroke markers fill"
           id="rect890"
           width="8.9958334"
           height="8.9958334"
           x="41.010426"
           y="16.139584"
           ry="3.2408164" />
        <rect
           style="opacity:1;fill:#f2f2f2;stroke:none;stroke-width:0.0223805;stroke-linecap:round;stroke-linejoin:round;paint-order:stroke markers fill"
           id="rect892"
           width="8.9958334"
           height="8.9958334"
           x="52.652096"
           y="16.139584"
           ry="3.2408164" />
      </g>
    </g>
    <g
       inkscape:groupmode="layer"
       id="layer2"
       inkscape:label="Highlight"
       style="display:inline;opacity:0.1">
      <path
         id="rect922"
         style="display:inline;opacity:1;fill:#ffffff;stroke:none;stroke-width:0.33883;stroke-linecap:round;stroke-linejoin:round;paint-order:stroke markers fill"
         d="M 35.333984 40 C 15.758829 40 0 55.758829 0 75.333984 L 0 79.333984 C 0 59.758829 15.758829 44 35.333984 44 L 220.66602 44 C 240.24117 44 256 59.758829 256 79.333984 L 256 75.333984 C 256 55.758829 240.24117 40 220.66602 40 L 35.333984 40 z "
         transform="scale(0.26458333)" />
    </g>
  </g>
  <g
     inkscape:label="Graphic"
     id="g1156"
     inkscape:groupmode="layer"
     style="display:inline" />
</svg>
