<?xml version="1.0" encoding="UTF-8" standalone="no"?>
<svg
   sodipodi:docname="media-optical.svg"
   id="svg4705"
   version="1.1"
   viewBox="0 0 67.733332 67.733332"
   height="256"
   width="256"
   inkscape:version="1.4.3 (0d15f75042, 2025-12-25)"
   xmlns:inkscape="http://www.inkscape.org/namespaces/inkscape"
   xmlns:sodipodi="http://sodipodi.sourceforge.net/DTD/sodipodi-0.dtd"
   xmlns="http://www.w3.org/2000/svg"
   xmlns:svg="http://www.w3.org/2000/svg">
  <defs
     id="defs4699" />
  <sodipodi:namedview
     units="px"
     inkscape:document-rotation="0"
     inkscape:window-maximized="1"
     inkscape:window-y="0"
     inkscape:window-x="0"
     inkscape:window-height="1043"
     inkscape:window-width="1920"
     fit-margin-bottom="0"
     fit-margin-right="0"
     fit-margin-left="0"
     fit-margin-top="0"
     showgrid="false"
     inkscape:current-layer="g7"
     inkscape:document-units="px"
     inkscape:cy="159.98291"
     inkscape:cx="110.66221"
     inkscape:zoom="2.8284271"
     inkscape:pageshadow="2"
     inkscape:pageopacity="0.0"
     borderopacity="1.0"
     bordercolor="#666666"
     pagecolor="#ffffff"
     id="base"
     inkscape:showpageshadow="2"
     inkscape:pagecheckerboard="0"
     inkscape:deskcolor="#d1d1d1" />
  <g
     inkscape:label="Background"
     id="layer5"
     inkscape:groupmode="layer"
     style="display:inline">
    <g
       style="display:inline;opacity:0.4"
       inkscape:label="Shadow"
       id="layer4"
       inkscape:groupmode="layer">
      <path
         id="path14"
         style="display:inline;fill:#000000;fill-opacity:1;stroke:none;stroke-width:2.11668;stroke-linecap:round;stroke-linejoin:round;paint-order:stroke fill markers"
         d="m 33.86667,3.1750034 a 31.75,31.75 0 0 0 -31.75,31.7500006 31.75,31.75 0 0 0 31.75,31.75 31.75,31.75 0 0 0 31.75,-31.75 31.75,31.75 0 0 0 -31.75,-31.7500006 z m -5.1e-4,23.2833406 a 8.4666662,8.4666662 0 0 1 8.46666,8.46666 8.4666662,8.4666662 0 0 1 -8.46666,8.46667 8.4666662,8.4666662 0 0 1 -8.46667,-8.46667 8.4666662,8.4666662 0 0 1 8.46667,-8.46666 z" />
    </g>
    <g
       style="display:inline"
       transform="translate(-130.05163,-144.32544)"
       id="g7"
       inkscape:groupmode="layer"
       inkscape:label="Colour">
      <g
         id="g8"
         style="display:inline">
        <path
           id="path6"
           style="display:inline;fill:#b3b3b3;fill-opacity:1;stroke:none;stroke-width:2.11668;stroke-linecap:round;stroke-linejoin:round;paint-order:stroke fill markers"
           d="m 163.9183,146.44211 a 31.75,31.75 0 0 0 -31.75,31.75 31.75,31.75 0 0 0 31.75,31.75 31.75,31.75 0 0 0 31.75,-31.75 31.75,31.75 0 0 0 -31.75,-31.75 z m -5.1e-4,23.28334 a 8.4666662,8.4666662 0 0 1 8.46666,8.46666 8.4666662,8.4666662 0 0 1 -8.46666,8.46667 8.4666662,8.4666662 0 0 1 -8.46667,-8.46667 8.4666662,8.4666662 0 0 1 8.46667,-8.46666 z" />
        <path
           id="path7"
           style="display:inline;fill:#e6e6e6;fill-opacity:1;stroke:none;stroke-width:2.11668;stroke-linecap:round;stroke-linejoin:round;paint-order:stroke fill markers"
           d="m 163.9183,150.67545 a 27.516666,27.516666 0 0 0 -27.51667,27.51666 27.516666,27.516666 0 0 0 27.51667,27.51667 27.516666,27.516666 0 0 0 27.51666,-27.51667 27.516666,27.516666 0 0 0 -27.51666,-27.51666 z m 0,14.81666 a 12.7,12.7 0 0 1 12.7,12.7 12.7,12.7 0 0 1 -12.7,12.7 12.7,12.7 0 0 1 -12.7,-12.7 12.7,12.7 0 0 1 12.7,-12.7 z" />
      </g>
    </g>
    <g
       style="display:inline;opacity:0.1"
       inkscape:label="Highlight"
       id="layer3"
       inkscape:groupmode="layer">
      <path
         d="M 33.866666,2.1166667 A 31.75,31.75 0 0 0 2.1166666,33.866667 31.75,31.75 0 0 0 2.1213166,34.384464 31.75,31.75 0 0 1 33.866665,3.175 a 31.75,31.75 0 0 1 31.745348,31.232202 31.75,31.75 0 0 0 0.0047,-0.540535 31.75,31.75 0 0 0 -31.75,-31.7500003 z"
         style="display:inline;fill:#ffffff;fill-opacity:1;stroke-width:5.60202;paint-order:stroke fill markers"
         id="circle908" />
    </g>
  </g>
  <g
     inkscape:label="Graphic"
     id="layer6"
     inkscape:groupmode="layer"
     style="display:inline">
    <path
       id="rect8"
       style="display:inline;opacity:0.25;fill:#ffffff;fill-opacity:1;stroke:none;stroke-width:4.23333;stroke-linecap:round;stroke-linejoin:round;stroke-dasharray:none;paint-order:stroke fill markers"
       d="M 33.866666 6.3499999 A 27.516666 27.516666 0 0 0 6.3499999 33.866666 L 21.166666 33.866666 A 12.7 12.7 0 0 1 33.866666 21.166666 L 33.866666 6.3499999 z M 46.566666 33.866666 A 12.7 12.7 0 0 1 33.866666 46.566666 L 33.866666 61.383332 A 27.516666 27.516666 0 0 0 61.383332 33.866666 L 46.566666 33.866666 z " />
    <path
       id="path11"
       style="display:inline;opacity:0.8;fill:#ffffff;fill-opacity:1;stroke:none;stroke-width:4.23333;stroke-linecap:round;stroke-linejoin:round;stroke-dasharray:none;paint-order:stroke fill markers"
       d="m 18.637622,10.954887 a 27.516666,27.516666 0 0 0 -0.03307,0.0186 27.516666,27.516666 0 0 0 -1.483631,1.132231 27.516666,27.516666 0 0 0 -1.374076,1.055749 27.516666,27.516666 0 0 0 -1.295528,1.289844 27.516666,27.516666 0 0 0 -1.253153,1.254187 27.516666,27.516666 0 0 0 -1.081071,1.401982 27.516666,27.516666 0 0 0 -1.113111,1.451591 27.516666,27.516666 0 0 0 -0.01912,0.03307 l 12.319144,8.223271 a 12.7,12.7 0 0 1 1.018543,-1.327568 12.7,12.7 0 0 1 2.514058,-2.197798 z m 25.791707,29.963028 a 12.7,12.7 0 0 1 -1.018543,1.327568 12.7,12.7 0 0 1 -2.514058,2.197798 l 8.198982,12.335164 a 27.516666,27.516666 0 0 0 0.03307,-0.0186 27.516666,27.516666 0 0 0 1.483631,-1.132231 27.516666,27.516666 0 0 0 1.374076,-1.055749 27.516666,27.516666 0 0 0 1.295528,-1.289844 27.516666,27.516666 0 0 0 1.253153,-1.254187 27.516666,27.516666 0 0 0 1.081071,-1.401982 27.516666,27.516666 0 0 0 1.113111,-1.451591 27.516666,27.516666 0 0 0 0.01912,-0.03307 z" />
  </g>
</svg>
