<?xml version="1.0" encoding="UTF-8" standalone="no"?>
<svg
   sodipodi:docname="media-optical-symbolic.symbolic.svg"
   id="svg4705"
   version="1.1"
   viewBox="0 0 4.2333332 4.2333333"
   height="16"
   width="16"
   xmlns:inkscape="http://www.inkscape.org/namespaces/inkscape"
   xmlns:sodipodi="http://sodipodi.sourceforge.net/DTD/sodipodi-0.dtd"
   xmlns="http://www.w3.org/2000/svg"
   xmlns:svg="http://www.w3.org/2000/svg">
  <defs
     id="defs4699" />
  <sodipodi:namedview
     units="px"
     inkscape:document-rotation="0"
     inkscape:window-maximized="1"
     inkscape:window-y="27"
     inkscape:window-x="1920"
     inkscape:window-height="1016"
     inkscape:window-width="1920"
     fit-margin-bottom="0"
     fit-margin-right="0"
     fit-margin-left="0"
     fit-margin-top="0"
     showgrid="false"
     inkscape:current-layer="layer1"
     inkscape:document-units="px"
     inkscape:cy="5.5344905"
     inkscape:cx="8.4418529"
     inkscape:zoom="16"
     inkscape:pageshadow="2"
     inkscape:pageopacity="0.0"
     borderopacity="1.0"
     bordercolor="#666666"
     pagecolor="#ffffff"
     id="base"
     inkscape:showpageshadow="2"
     inkscape:pagecheckerboard="0"
     inkscape:deskcolor="#d1d1d1" />
  <g
     style="display:inline"
     transform="translate(-130.05163,-144.32544)"
     id="layer1"
     inkscape:groupmode="layer"
     inkscape:label="Graphic">
    <path
       style="color:#000000;font-style:normal;font-variant:normal;font-weight:normal;font-stretch:normal;font-size:medium;line-height:normal;font-family:sans-serif;font-variant-ligatures:normal;font-variant-position:normal;font-variant-caps:normal;font-variant-numeric:normal;font-variant-alternates:normal;font-variant-east-asian:normal;font-feature-settings:normal;font-variation-settings:normal;text-indent:0;text-align:start;text-decoration:none;text-decoration-line:none;text-decoration-style:solid;text-decoration-color:#000000;letter-spacing:normal;word-spacing:normal;text-transform:none;writing-mode:lr-tb;direction:ltr;text-orientation:mixed;dominant-baseline:auto;baseline-shift:baseline;text-anchor:start;white-space:normal;shape-padding:0;shape-margin:0;inline-size:0;clip-rule:nonzero;display:inline;overflow:visible;visibility:visible;opacity:1;isolation:auto;mix-blend-mode:normal;color-interpolation:sRGB;color-interpolation-filters:linearRGB;solid-color:#000000;solid-opacity:1;vector-effect:none;fill:#000000;fill-opacity:1;fill-rule:nonzero;stroke:none;stroke-width:1.00012;stroke-linecap:butt;stroke-linejoin:miter;stroke-miterlimit:4;stroke-dasharray:none;stroke-dashoffset:0;stroke-opacity:1;paint-order:normal;color-rendering:auto;image-rendering:auto;shape-rendering:auto;text-rendering:auto;enable-background:accumulate;stop-color:#000000;stop-opacity:1"
       d="m 132.15387,144.32544 c -0.54555,0 -1.0903,0.20467 -1.50579,0.61737 -0.44874,0.44565 -0.62076,1.02438 -0.59372,1.5688 0.027,0.54443 0.24548,1.06087 0.58981,1.42424 l 0.002,0.002 0.002,0.002 c 0.83098,0.82536 2.18252,0.82536 3.01352,0 0.83103,-0.82536 0.83103,-2.17161 0,-2.99694 -0.4155,-0.4127 -0.9622,-0.61737 -1.50773,-0.61737 z m 0,0.37511 c 0.44866,0 0.8971,0.17112 1.24016,0.51186 0.68616,0.68146 0.68616,1.77821 0,2.45969 -0.68547,0.68084 -1.79212,0.6815 -2.47838,0.002 -0.2736,-0.28967 -0.46188,-0.72924 -0.48436,-1.18197 -0.0225,-0.45364 0.1141,-0.91389 0.4824,-1.27967 0.34306,-0.34074 0.7915,-0.51186 1.24018,-0.51186 z m 0,0.85376 c -0.22875,0 -0.45703,0.0853 -0.63083,0.25788 l -0.002,0.002 -0.002,0.004 c -0.34318,0.34572 -0.34211,0.90864 0.004,1.2523 0.34759,0.34524 0.91407,0.34525 1.26165,0 0.34762,-0.34522 0.34762,-0.91294 0,-1.25817 -0.17379,-0.17262 -0.40208,-0.25788 -0.63082,-0.25788 z m -0.36523,0.52749 c 0.20274,-0.20135 0.52773,-0.20134 0.73044,0 0.20274,0.20135 0.20273,0.51958 0,0.72091 -0.20271,0.20135 -0.5277,0.20136 -0.73044,0 -0.20242,-0.20105 -0.20207,-0.51946 0,-0.72091 z"
       id="path902" />
  </g>
</svg>
