<?xml version="1.0" encoding="UTF-8" standalone="no"?>
<svg
   sodipodi:docname="printer-network.svg"
   id="svg8"
   version="1.1"
   viewBox="0 0 67.733332 67.733335"
   height="256"
   width="256"
   xmlns:inkscape="http://www.inkscape.org/namespaces/inkscape"
   xmlns:sodipodi="http://sodipodi.sourceforge.net/DTD/sodipodi-0.dtd"
   xmlns="http://www.w3.org/2000/svg"
   xmlns:svg="http://www.w3.org/2000/svg">
  <defs
     id="defs2" />
  <sodipodi:namedview
     inkscape:window-maximized="1"
     inkscape:window-y="27"
     inkscape:window-x="1920"
     inkscape:window-height="1016"
     inkscape:window-width="1920"
     units="px"
     showgrid="false"
     inkscape:document-rotation="0"
     inkscape:current-layer="g1156"
     inkscape:document-units="px"
     inkscape:cy="150.79051"
     inkscape:cx="120.5617"
     inkscape:zoom="2.8284273"
     inkscape:pageshadow="2"
     inkscape:pageopacity="0.0"
     borderopacity="1.0"
     bordercolor="#666666"
     pagecolor="#ffffff"
     id="base"
     inkscape:pagecheckerboard="0"
     inkscape:showpageshadow="2"
     inkscape:deskcolor="#d1d1d1" />
  <g
     inkscape:groupmode="layer"
     id="layer1"
     inkscape:label="Background"
     style="display:inline">
    <g
       inkscape:label="Shadow"
       id="layer10"
       inkscape:groupmode="layer"
       style="display:inline;opacity:0.4">
      <path
         id="path839"
         style="display:inline;opacity:1;fill:#000000;fill-opacity:1;stroke-width:0.0246944;stroke-miterlimit:4;stroke-dasharray:none;paint-order:stroke fill markers"
         d="m 4.2333333,34.925001 v 24.641082 c 0,2.765599 2.2266527,4.992251 4.9922512,4.992251 H 58.50775 c 2.765599,0 4.99225,-2.226652 4.99225,-4.992251 V 34.925001 Z" />
    </g>
    <g
       style="display:inline"
       inkscape:label="Colour"
       id="g1174"
       inkscape:groupmode="layer">
      <path
         id="rect1168"
         style="display:inline;fill:#666666;fill-opacity:1;stroke-width:0.0933332;stroke-miterlimit:4;stroke-dasharray:none;paint-order:stroke fill markers"
         d="M 34.869141,16 C 24.416485,16 16,24.416483 16,34.869141 16,96.956381 16,159.04362 16,221.13086 16,231.58352 24.416485,240 34.869141,240 H 221.13086 C 231.58352,240 240,231.58352 240,221.13086 240,159.04362 240,96.956381 240,34.869141 240,24.416483 231.58352,16 221.13086,16 Z"
         transform="scale(0.26458333)"
         sodipodi:nodetypes="sccssccss" />
    </g>
    <g
       inkscape:groupmode="layer"
       id="layer2"
       inkscape:label="Highlight"
       style="opacity:0.1">
      <path
         d="m 9.2257931,4.2333333 c -2.7655986,0 -4.9924598,2.2268608 -4.9924598,4.9924598 v 1.0583329 c 0,-2.7655979 2.2268612,-4.9924597 4.9924598,-4.9924597 H 58.50754 c 2.765599,0 4.99246,2.2268618 4.99246,4.9924597 V 9.2257931 c 0,-2.765599 -2.226861,-4.9924598 -4.99246,-4.9924598 z"
         style="display:inline;opacity:1;fill:#ffffff;fill-opacity:1;stroke-width:0.0246944;stroke-miterlimit:4;stroke-dasharray:none;paint-order:stroke fill markers"
         id="path955" />
    </g>
  </g>
  <g
     inkscape:label="Graphic"
     id="g1156"
     inkscape:groupmode="layer"
     style="display:inline">
    <g
       id="g875"
       style="display:inline">
      <path
         id="path851"
         style="opacity:1;fill:#e6e6e6;stroke-width:0.441177;stroke-linecap:round;stroke-linejoin:round;paint-order:stroke markers fill"
         d="m 14.519889,55.5625 h 38.693553 c 1.008219,0 1.81989,0.811671 1.81989,1.819889 V 63.5 c -13.281095,0 -29.035145,0 -42.333332,0 v -6.117611 c 0,-1.008218 0.81167,-1.819889 1.819889,-1.819889 z"
         sodipodi:nodetypes="sssccss" />
      <path
         id="rect848"
         style="opacity:0.4;fill:#000000;stroke-width:1.66744;stroke-linecap:round;stroke-linejoin:round;paint-order:stroke markers fill"
         d="M 54.878906,210 C 51.068315,210 48,213.06832 48,216.87891 v 4 C 48,217.06832 51.068315,214 54.878906,214 H 201.12109 c 3.8106,0 6.87891,3.06832 6.87891,6.87891 v -4 C 208,213.06832 204.93169,210 201.12109,210 Z"
         transform="scale(0.26458333)" />
    </g>
    <g
       id="g873">
      <path
         id="path867"
         style="display:inline;opacity:0.4;fill:#000000;stroke-width:0.619638;stroke-linecap:round;stroke-linejoin:round;paint-order:stroke markers fill"
         d="m 18.377689,11.641664 c -1.679767,0 -3.031856,1.352089 -3.031856,3.031857 v 30.977955 c 0,1.679765 1.352089,3.031855 3.031856,3.031855 h 23.426477 l 5.291151,-5.291667 5.292182,-5.291667 V 14.673521 c 0,-1.679768 -1.352089,-3.031857 -3.031855,-3.031857 z" />
      <g
         id="g867">
        <path
           id="rect840"
           style="display:inline;opacity:1;fill:#ffffff;stroke-width:0.619638;stroke-linecap:round;stroke-linejoin:round;paint-order:stroke markers fill"
           d="m 18.377689,11.112497 c -1.679767,0 -3.031856,1.352089 -3.031856,3.031857 v 30.977955 c 0,1.679765 1.352089,3.031855 3.031856,3.031855 h 23.426477 l 5.291151,-5.291667 5.292182,-5.291667 V 14.144354 c 0,-1.679768 -1.352089,-3.031857 -3.031855,-3.031857 z" />
        <path
           id="path860"
           style="display:inline;opacity:1;fill:#e6e6e6;stroke-width:0.619638;stroke-linecap:round;stroke-linejoin:round;paint-order:stroke markers fill"
           d="m 41.804166,48.154166 5.292182,-5.291667 5.291151,-5.291666 h -7.551478 c -1.679763,0 -3.031855,1.352089 -3.031855,3.031855 z" />
      </g>
    </g>
    <g
       id="g918">
      <g
         id="g906">
        <circle
           style="opacity:0.4;fill:#000000;stroke-width:0.417323;stroke-linecap:round;stroke-linejoin:round;paint-order:stroke markers fill"
           id="circle858"
           cx="9.7895832"
           cy="17.79323"
           r="1.6536459" />
        <circle
           style="fill:#ff0000;stroke-width:0.417323;stroke-linecap:round;stroke-linejoin:round;paint-order:stroke markers fill"
           id="path856"
           cx="9.7895832"
           cy="17.528646"
           r="1.6536459" />
      </g>
      <g
         id="g910">
        <rect
           style="opacity:0.4;fill:#000000;stroke-width:0.439974;stroke-linecap:round;stroke-linejoin:round;paint-order:stroke markers fill"
           id="rect888"
           width="3.3072917"
           height="5.2916665"
           x="8.1359377"
           y="21.828125"
           ry="0.95613933" />
        <rect
           style="fill:#f2f2f2;stroke-width:0.439974;stroke-linecap:round;stroke-linejoin:round;paint-order:stroke markers fill"
           id="rect886"
           width="3.3072917"
           height="5.2916665"
           x="8.1359377"
           y="21.298958"
           ry="0.95613933" />
      </g>
    </g>
    <g
       id="g7120">
      <path
         id="path7071"
         style="display:inline;fill:#000000;stroke:none;stroke-width:86.1256;stroke-linecap:round;stroke-linejoin:round;opacity:0.4"
         d="M 118.08984 68.001953 C 114.68839 68.173241 112 70.993155 112 74.439453 L 112 93.564453 C 112 97.123158 114.84772 100.00195 118.40625 100.00195 C 119.99988 100.01063 121.59392 100.01594 123.1875 100.01758 L 123.1875 111.18945 L 104.0625 111.18945 C 102.53064 111.17565 101.16376 111.88005 100.27539 112.98633 C 100.27279 112.98961 100.27005 112.99277 100.26758 112.99609 C 100.2616 113.0038 100.25583 113.01158 100.25 113.01953 C 99.596899 113.84739 99.208421 114.89493 99.21875 116.0332 L 99.21875 132 L 94.4375 132 C 94.32865 132 94.2026 131.99395 94.09375 132 C 90.690444 132.16932 88 134.98981 88 138.4375 L 88 157.5625 C 88 161.1212 90.879147 164 94.4375 164 L 113.5625 164 C 117.12121 164 120 161.12139 120 157.5625 L 120 138.4375 C 120 134.87879 117.12139 132 113.5625 132 L 108.78125 132 L 108.78125 120.75195 L 147.1543 120.75195 L 147.1543 132 L 142.4375 132 C 142.32865 132 142.20065 131.99395 142.0918 132 C 138.68849 132.16932 135.99805 134.98981 135.99805 138.4375 L 135.99805 157.5625 C 135.99805 161.1212 138.87659 164 142.43555 164 L 161.56055 164 C 165.11926 164 167.99805 161.12139 167.99805 157.5625 L 167.99805 138.4375 C 167.99805 134.87879 165.1195 132 161.56055 132 L 156.8418 132 L 156.8418 116.0332 C 156.84284 115.9176 156.83904 115.80306 156.83203 115.68945 C 156.83014 115.66534 156.82817 115.641 156.82617 115.61719 C 156.80832 115.38431 156.77258 115.156 156.72266 114.93359 C 156.7201 114.92266 156.71879 114.91145 156.7168 114.90039 C 156.54427 114.15632 156.19859 113.47897 155.72461 112.91211 C 155.71159 112.89652 155.69698 112.88239 155.68359 112.86719 C 155.67025 112.85188 155.6581 112.83549 155.64453 112.82031 C 154.75581 111.81044 153.45151 111.17626 151.99805 111.18945 L 132.74805 111.18945 L 132.74805 100.00977 C 134.35205 100.00703 135.95649 100.00195 137.56055 100.00195 C 141.11926 100.00195 143.99805 97.1234 143.99805 93.564453 L 143.99805 74.439453 C 143.99805 70.880744 141.11944 68.001953 137.56055 68.001953 L 118.4043 68.001953 C 118.29681 68.001953 118.20098 67.996662 118.09375 68.001953 L 118.08984 68.001953 z M 131.94727 100.00977 C 130.48321 100.02545 127.05463 100.05459 124.22461 100.01758 C 126.79905 100.01844 129.37281 100.01437 131.94727 100.00977 z "
         transform="scale(0.26458333)" />
      <g
         id="g7114">
        <path
           id="rect2726"
           style="display:inline;fill:#666666;stroke:none;stroke-width:22.7874;stroke-linecap:round;stroke-linejoin:round"
           d="m 31.244603,16.93385 c -0.899967,0.04532 -1.61127,0.791422 -1.61127,1.703255 v 5.060156 c 0,0.941574 0.753459,1.703255 1.694987,1.703255 1.689346,0.0092 3.378546,0 5.067908,0 0.941576,0 1.703256,-0.761617 1.703256,-1.703255 v -5.060156 c 0,-0.941575 -0.761633,-1.703255 -1.703256,-1.703255 h -5.068424 c -0.02844,0 -0.0538,-0.0014 -0.08217,0 z m 9.936345,11.85819 c 0.0071,0.0081 0.01429,0.01603 0.02119,0.02429 -0.007,-0.0082 -0.01402,-0.01627 -0.02119,-0.02429 z m -14.649751,0.04393 c -0.0024,0.0029 -0.0045,0.0058 -0.0067,0.0088 0.0024,-0.0029 0.0044,-0.0059 0.0067,-0.0088 z m 14.931905,0.499711 c 0.0013,0.0051 0.0019,0.01037 0.0031,0.0155 -0.0011,-0.0052 -0.0021,-0.01035 -0.0031,-0.0155 z m 0.03049,0.196371 c 5.29e-4,0.0063 0.0011,0.01275 0.0016,0.01913 -5.29e-4,-0.0064 -0.0011,-0.01275 -0.0016,-0.01913 z M 24.89564,33.86667 c -0.900458,0.0448 -1.612305,0.791054 -1.612305,1.703255 v 5.060157 c 0,0.941572 0.761774,1.703255 1.703255,1.703255 h 5.060156 c 0.941576,0 1.703256,-0.761632 1.703256,-1.703255 v -5.060157 c 0,-0.941575 -0.761633,-1.703255 -1.703256,-1.703255 -1.686718,0 -3.373437,0 -5.060156,0 -0.0288,0 -0.06215,-0.0016 -0.09095,0 z m 12.699484,0 c -0.900459,0.0448 -1.612305,0.791054 -1.612305,1.703255 v 5.060157 c 0,0.941572 0.761614,1.703255 1.703255,1.703255 h 5.060156 c 0.941576,0 1.703256,-0.761632 1.703256,-1.703255 v -5.060157 c 0,-0.941575 -0.761617,-1.703255 -1.703256,-1.703255 -1.686546,0 -3.373093,0 -5.05964,0 -0.0288,0 -0.06267,-0.0016 -0.09147,0 z"
           sodipodi:nodetypes="cssccsssscccccccccccccccssssssccccssssssccc" />
        <path
           style="display:inline;fill:#efe151;stroke:none;stroke-width:22.7874;stroke-linecap:round;stroke-linejoin:round;fill-opacity:1"
           d="m 32.593327,25.400444 v 2.959937 h -5.060035 c -0.710444,-0.0064 -1.288016,0.571123 -1.281569,1.281566 v 4.224942 c 1.312623,0 1.508268,0 2.529935,0 v -2.97648 h 10.153126 v 2.97648 c 2.562877,0 1.330011,0 2.562877,0 v -4.224942 c 0.0064,-0.710442 -0.571124,-1.288013 -1.281568,-1.281566 h -5.093106 v -2.959937 c 0,0 -1.556348,0.02069 -2.52966,0 z"
           id="path3180"
           sodipodi:nodetypes="ccccccccccccccc" />
      </g>
    </g>
  </g>
</svg>
