<?xml version="1.0" encoding="UTF-8" standalone="no"?>
<svg
   xmlns:dc="http://purl.org/dc/elements/1.1/"
   xmlns:cc="http://creativecommons.org/ns#"
   xmlns:rdf="http://www.w3.org/1999/02/22-rdf-syntax-ns#"
   xmlns:svg="http://www.w3.org/2000/svg"
   xmlns="http://www.w3.org/2000/svg"
   xmlns:sodipodi="http://sodipodi.sourceforge.net/DTD/sodipodi-0.dtd"
   xmlns:inkscape="http://www.inkscape.org/namespaces/inkscape"
   sodipodi:docname="document-encrypt.svg"
   inkscape:version="1.0.2 (e86c870879, 2021-01-15)"
   id="svg8"
   version="1.1"
   viewBox="0 0 4.2333333 4.2333334"
   height="16"
   width="16">
  <defs
     id="defs2" />
  <sodipodi:namedview
     inkscape:window-maximized="1"
     inkscape:window-y="27"
     inkscape:window-x="1920"
     inkscape:window-height="1016"
     inkscape:window-width="1920"
     units="px"
     showgrid="false"
     inkscape:document-rotation="0"
     inkscape:current-layer="layer3"
     inkscape:document-units="px"
     inkscape:cy="9.4167355"
     inkscape:cx="9.9905866"
     inkscape:zoom="16"
     inkscape:pageshadow="2"
     inkscape:pageopacity="0.0"
     borderopacity="1.0"
     bordercolor="#666666"
     pagecolor="#ffffff"
     id="base"
     inkscape:lockguides="false" />
  <metadata
     id="metadata5">
    <rdf:RDF>
      <cc:Work
         rdf:about="">
        <dc:format>image/svg+xml</dc:format>
        <dc:type
           rdf:resource="http://purl.org/dc/dcmitype/StillImage" />
        <dc:title />
      </cc:Work>
    </rdf:RDF>
  </metadata>
  <g
     inkscape:groupmode="layer"
     id="layer3"
     inkscape:label="Graphic"
     style="display:inline">
    <path
       id="rect832"
       style="fill:#ff3392;fill-opacity:1;stroke:none;stroke-width:0.823514;stroke-linecap:round;stroke-linejoin:round;paint-order:stroke markers fill"
       d="M 2.1148469,0 C 1.3280868,0 0.68792237,0.64009775 0.68792237,1.4269245 v 0.00186 0.4232404 h -0.1720867 c -0.036749,0 -0.066044,0.029295 -0.066044,0.066044 v 2.2492197 c 0,0.036749 0.029295,0.066044 0.066044,0.066044 H 3.7175788 c 0.036749,0 0.066044,-0.029295 0.066044,-0.066044 V 1.9180694 c 0,-0.036749 -0.029295,-0.066044 -0.066044,-0.066044 H 3.5454922 V 1.4287848 c 9e-7,-5.571e-4 0,-0.00131 0,-0.00186 0,-0.78682495 -0.643885,-1.42692265 -1.4306453,-1.4269227 z m 0,0.31533735 c 0.6152656,0 1.1125173,0.4962697 1.1125173,1.11158715 0,5.619e-4 9e-7,0.00131 0,0.00186 h 9.525e-4 V 1.8520253 H 1.0051201 V 1.4287848 h 0.00186 c -9e-7,-5.62e-4 0,-0.00131 0,-0.00186 0,-0.61531745 0.4926009,-1.11158725 1.1078668,-1.11158745 z"
       sodipodi:nodetypes="ssccssssssssccssssccccccss" />
  </g>
</svg>
