<?xml version="1.0" encoding="UTF-8" standalone="no"?>
<svg
   xmlns:dc="http://purl.org/dc/elements/1.1/"
   xmlns:cc="http://creativecommons.org/ns#"
   xmlns:rdf="http://www.w3.org/1999/02/22-rdf-syntax-ns#"
   xmlns:svg="http://www.w3.org/2000/svg"
   xmlns="http://www.w3.org/2000/svg"
   xmlns:sodipodi="http://sodipodi.sourceforge.net/DTD/sodipodi-0.dtd"
   xmlns:inkscape="http://www.inkscape.org/namespaces/inkscape"
   sodipodi:docname="object-locked.svg"
   inkscape:version="1.0.2 (e86c870879, 2021-01-15)"
   id="svg8"
   version="1.1"
   viewBox="0 0 4.2333333 4.2333334"
   height="16"
   width="16">
  <defs
     id="defs2" />
  <sodipodi:namedview
     inkscape:window-maximized="1"
     inkscape:window-y="27"
     inkscape:window-x="1920"
     inkscape:window-height="1016"
     inkscape:window-width="1920"
     units="px"
     showgrid="false"
     inkscape:document-rotation="0"
     inkscape:current-layer="layer3"
     inkscape:document-units="px"
     inkscape:cy="7.1608063"
     inkscape:cx="9.4621348"
     inkscape:zoom="32"
     inkscape:pageshadow="2"
     inkscape:pageopacity="0.0"
     borderopacity="1.0"
     bordercolor="#666666"
     pagecolor="#ffffff"
     id="base"
     inkscape:lockguides="false" />
  <metadata
     id="metadata5">
    <rdf:RDF>
      <cc:Work
         rdf:about="">
        <dc:format>image/svg+xml</dc:format>
        <dc:type
           rdf:resource="http://purl.org/dc/dcmitype/StillImage" />
        <dc:title />
      </cc:Work>
    </rdf:RDF>
  </metadata>
  <g
     inkscape:groupmode="layer"
     id="layer3"
     inkscape:label="Graphic"
     style="display:inline">
    <circle
       style="fill:#da2214;fill-opacity:1;stroke-width:0.943848;stroke-linecap:round;stroke-miterlimit:1.6;paint-order:stroke markers fill"
       id="path835"
       cx="-7.6545659e-09"
       cy="2.9934189"
       r="2.1166668"
       transform="rotate(-45)" />
    <path
       id="rect832"
       style="fill:#ffffff;fill-opacity:1;stroke:none;stroke-width:0.522853;stroke-linecap:round;stroke-linejoin:round;paint-order:stroke markers fill"
       d="m 2.1154858,0.63842564 c -0.4995181,0 -0.9059617,0.40640136 -0.9059617,0.90596166 v 0.00118 0.2687175 H 1.1002653 c -0.023332,0 -0.041932,0.0186 -0.041932,0.041932 v 1.4280421 c 0,0.023332 0.0186,0.041932 0.041932,0.041932 h 2.0328032 c 0.023332,0 0.041932,-0.0186 0.041932,-0.041932 V 1.8562177 c 0,-0.023332 -0.0186,-0.041932 -0.041932,-0.041932 H 3.0238098 V 1.5455685 c 6e-7,-3.538e-4 0,-8.346e-4 0,-0.00118 0,-0.4995592 -0.4088059,-0.90596053 -0.908324,-0.90596056 z m 0,0.20020925 c 0.3906353,0 0.7063429,0.31508421 0.7063429,0.70575241 0,3.569e-4 6e-7,8.346e-4 0,0.00118 h 6.047e-4 V 1.814286 H 1.4109145 V 1.5455685 h 0.00118 c -6e-7,-3.568e-4 0,-8.346e-4 0,-0.00118 0,-0.3906682 0.3127549,-0.70575241 0.7033901,-0.70575241 z"
       sodipodi:nodetypes="ssccssssssssccssssccccccss" />
  </g>
</svg>
