<?xml version="1.0" encoding="UTF-8" standalone="no"?>
<svg
   xmlns:dc="http://purl.org/dc/elements/1.1/"
   xmlns:cc="http://creativecommons.org/ns#"
   xmlns:rdf="http://www.w3.org/1999/02/22-rdf-syntax-ns#"
   xmlns:svg="http://www.w3.org/2000/svg"
   xmlns="http://www.w3.org/2000/svg"
   xmlns:sodipodi="http://sodipodi.sourceforge.net/DTD/sodipodi-0.dtd"
   xmlns:inkscape="http://www.inkscape.org/namespaces/inkscape"
   sodipodi:docname="gparted.svg"
   inkscape:version="1.0 (4035a4fb49, 2020-05-01)"
   id="svg8"
   version="1.1"
   viewBox="0 0 67.733332 67.733335"
   height="256"
   width="256">
  <defs
     id="defs2" />
  <sodipodi:namedview
     units="px"
     inkscape:window-maximized="1"
     inkscape:window-y="27"
     inkscape:window-x="2004"
     inkscape:window-height="1016"
     inkscape:window-width="1836"
     showgrid="false"
     inkscape:document-rotation="0"
     inkscape:current-layer="layer8"
     inkscape:document-units="mm"
     inkscape:cy="184.63991"
     inkscape:cx="121.03606"
     inkscape:zoom="5.6568543"
     inkscape:pageshadow="2"
     inkscape:pageopacity="0.0"
     borderopacity="1.0"
     bordercolor="#666666"
     pagecolor="#ffffff"
     id="base" />
  <metadata
     id="metadata5">
    <rdf:RDF>
      <cc:Work
         rdf:about="">
        <dc:format>image/svg+xml</dc:format>
        <dc:type
           rdf:resource="http://purl.org/dc/dcmitype/StillImage" />
        <dc:title />
      </cc:Work>
    </rdf:RDF>
  </metadata>
  <g
     style="display:inline"
     inkscape:label="Disk"
     id="layer4"
     inkscape:groupmode="layer">
    <path
       d="m 19.748037,4.7624999 c -4.637457,0 -8.370954,3.5097498 -8.370954,7.8692871 v 42.469758 c 0,4.359539 3.733497,7.869288 8.370954,7.869288 H 33.893125 V 4.7624999 Z"
       style="display:inline;fill:#d6d6d6;fill-opacity:1;stroke-width:0.0312662"
       id="rect28" />
    <path
       d="M 33.840208,4.7624999 V 62.970833 h 14.145087 c 4.637461,0 8.370955,-3.509749 8.370955,-7.869288 V 12.631787 c 0,-4.3595373 -3.733494,-7.8692871 -8.370955,-7.8692871 z"
       style="display:inline;fill:#dfdfdf;fill-opacity:1;stroke-width:0.0312662"
       id="rect28-9" />
  </g>
  <g
     style="display:inline"
     inkscape:label="Screws"
     id="layer5"
     inkscape:groupmode="layer">
    <circle
       r="1.0583333"
       cy="11.1125"
       cx="17.727083"
       id="path18"
       style="display:inline;fill:#b8b8b8;fill-opacity:1;stroke-width:0.0264583" />
    <circle
       style="display:inline;fill:#b8b8b8;fill-opacity:1;stroke-width:0.0264583"
       id="path18-3"
       cx="49.97979"
       cy="11.1125"
       r="1.0583333" />
  </g>
  <g
     style="display:inline"
     inkscape:label="Read head shadow"
     id="layer8"
     inkscape:groupmode="layer">
    <path
       id="path868"
       style="display:inline;fill:#999999;fill-opacity:1;stroke-width:0.0212132"
       inkscape:transform-center-x="1.6101484"
       d="m 30.635611,48.62649 c -1.762123,-0.01498 -9.977558,3.9747 -14.565519,7.211446 -4.228992,2.822927 0.708951,9.198639 4.841565,5.407422 4.291147,-3.936656 10.631964,-11.693189 9.987505,-12.560991 -0.05713,-0.038 -0.146076,-0.05688 -0.263551,-0.05788 z" />
  </g>
  <g
     style="display:inline"
     inkscape:label="Details"
     id="layer2"
     inkscape:groupmode="layer">
    <path
       d="m 33.845307,11.773958 a 11.244797,11.244655 0 0 0 -4.088867,0.778011 11.244798,11.244656 0 0 0 -0.138913,0.05545 11.244797,11.244655 0 0 0 -0.411248,0.177893 11.244798,11.244656 0 0 0 -0.270689,0.12738 11.244797,11.244655 0 0 0 -0.530392,0.276725 11.244798,11.244656 0 0 0 -0.38764,0.225663 11.244797,11.244655 0 0 0 -0.866968,0.584743 11.244798,11.244656 0 0 0 -0.237746,0.181738 11.244797,11.244655 0 0 0 -0.681935,0.582548 11.244798,11.244656 0 0 0 -0.109263,0.102128 11.244797,11.244655 0 0 0 -0.723665,0.754951 11.244798,11.244656 0 0 0 -0.09773,0.113106 11.244797,11.244655 0 0 0 -0.553454,0.706085 11.244798,11.244656 0 0 0 -0.171308,0.244879 11.244797,11.244655 0 0 0 -0.323946,0.502934 11.244798,11.244656 0 0 0 -0.07632,0.12793 11.244797,11.244655 0 0 0 -0.07522,0.129579 11.244798,11.244656 0 0 0 -0.07303,0.130125 11.244797,11.244655 0 0 0 -0.07138,0.131773 11.244798,11.244656 0 0 0 -0.06973,0.131774 11.244797,11.244655 0 0 0 -0.493609,1.089326 11.244798,11.244656 0 0 0 -0.104868,0.280018 11.244798,11.244656 0 0 0 -0.04997,0.140558 11.244797,11.244655 0 0 0 0,5.62e-4 11.244798,11.244656 0 0 0 -0.04777,0.141108 11.244797,11.244655 0 0 0 0,5.62e-4 11.244798,11.244656 0 0 0 -0.04612,0.141656 11.244797,11.244655 0 0 0 -0.126284,0.43046 11.244798,11.244656 0 0 0 -0.03843,0.144402 11.244797,11.244655 0 0 0 0,5.62e-4 11.244798,11.244656 0 0 0 -0.03624,0.144401 11.244797,11.244655 0 0 0 0,5.62e-4 11.244798,11.244656 0 0 0 -0.03459,0.144951 11.244797,11.244655 0 0 0 -0.118597,0.586391 11.244798,11.244656 0 0 0 -0.0247,0.147147 11.244797,11.244655 0 0 0 0,5.62e-4 11.244798,11.244656 0 0 0 -0.02251,0.147147 11.244797,11.244655 0 0 0 -0.02087,0.148246 11.244798,11.244656 0 0 0 -0.03569,0.297038 11.244797,11.244655 0 0 0 -0.028,0.297588 11.244798,11.244656 0 0 0 -0.01976,0.298138 11.244797,11.244655 0 0 0 0,5.62e-4 11.244798,11.244656 0 0 0 -0.01428,0.404105 11.244797,11.244655 0 0 0 0,0.01099 c -1.63e-4,0.01138 -0.0017,0.02247 -0.0017,0.03396 v 0.148244 8.899092 c 0,1.29933 1.046251,2.345566 2.345594,2.345566 h 8.030589 c 0.09056,0 0.179559,-0.0061 0.267393,-0.01592 a 11.244798,11.244656 0 0 0 0.131223,0.0061 11.244797,11.244655 0 0 0 0.140561,0.005 11.244798,11.244656 0 0 0 0.0093,5.63e-4 11.244797,11.244655 0 0 0 0.0615,0.0012 11.244798,11.244656 0 0 0 0.105421,0.0022 11.244798,11.244656 0 0 0 0.131774,0.0012 11.244797,11.244655 0 0 0 0.01814,0 11.244798,11.244656 0 0 0 0.0033,0 11.244798,11.244656 0 0 0 0.299238,-0.0038 11.244797,11.244655 0 0 0 7.749468,-3.388223 11.244798,11.244656 0 0 0 0.103764,-0.108295 11.244797,11.244655 0 0 0 3.092318,-7.744429 11.244798,11.244656 0 0 0 -0.0012,-0.149341 11.244797,11.244655 0 0 0 -1.332574,-5.161672 11.244798,11.244656 0 0 0 0,-5.62e-4 11.244797,11.244655 0 0 0 -9.9111,-5.933081 11.244797,11.244655 0 0 0 -0.02142,0 z m -0.02581,4.216747 a 7.0279992,7.0279108 0 0 1 0.04722,0 7.0279992,7.0279108 0 0 1 7.027999,7.027909 7.0279992,7.0279108 0 0 1 -7.027999,7.027911 7.0279992,7.0279108 0 0 1 -7.027998,-7.027911 7.0279992,7.0279108 0 0 1 6.980779,-7.027909 z"
       style="fill:#4d4d4d;stroke-width:0.0381325"
       id="path31" />
    <path
       transform="scale(0.26458333)"
       d="m 114.98828,183.18555 c -6.65999,-0.0566 -37.710455,15.02249 -55.05078,27.25586 -15.983592,10.66933 2.6795,34.76651 18.298828,20.4375 16.218508,-14.8787 40.183802,-44.19473 37.748052,-47.47461 -0.21591,-0.14363 -0.5521,-0.21498 -0.9961,-0.21875 z"
       inkscape:transform-center-x="1.6101484"
       style="fill:#f9f9f9;fill-opacity:1;stroke-width:0.0801759"
       id="path1106" />
    <circle
       r="1.3229166"
       style="display:inline;fill:#b8b8b8;fill-opacity:1;stroke-width:0.017581"
       id="circle861"
       cx="17.780001"
       cy="58.737499" />
  </g>
  <g
     style="display:inline"
     inkscape:label="Gauge"
     id="layer3"
     inkscape:groupmode="layer">
    <g
       transform="matrix(1.3749998,0,0,1.375,-17.859367,-18.620052)"
       id="g1077">
      <path
         id="path31-3"
         style="fill:#00ffff;stroke-width:0.135646"
         d="m 140,185 a 39.999999,39.999999 0 0 0 11.71484,28.28516 39.999999,39.999999 0 0 0 0.0547,0.0527 A 39.999999,39.999999 0 0 0 180,225 v -15 a 25.000001,25.000001 0 0 1 -17.55859,-7.20312 25.000001,25.000001 0 0 1 -0.11914,-0.11915 A 25.000001,25.000001 0 0 1 155,185 Z"
         transform="scale(0.26458333)" />
      <path
         id="path31-3-5"
         style="display:inline;fill:#00ff00;stroke-width:0.0358897"
         d="m 55.108549,56.431463 a 10.583333,10.583333 0 0 0 0,-14.967093 10.583333,10.583333 0 0 0 -14.967093,-1e-6 l 2.80633,2.80633 a 6.6145835,6.6145835 0 0 1 9.354433,10e-7 6.6145835,6.6145835 0 0 1 0,9.354433 z" />
      <path
         id="path31-3-56"
         style="display:inline;fill:#d40000;stroke-width:0.0358897"
         d="m 47.625006,59.53085 a 10.583333,10.583333 0 0 0 7.483544,-3.099388 l -2.80633,-2.80633 a 6.6145835,6.6145835 0 0 1 -4.677216,1.937391 z" />
      <path
         d="m 37.042071,48.947916 a 10.583333,10.583333 0 0 1 3.099386,-7.483546 l 2.80633,2.80633 a 6.6145836,6.6145836 0 0 0 -1.93739,4.677217 z"
         style="display:inline;fill:#ff7500;fill-opacity:1;stroke-width:0.0358897"
         id="path31-3-56-2" />
    </g>
  </g>
</svg>
