<?xml version="1.0" encoding="UTF-8" standalone="no"?>
<svg
   width="256"
   height="256"
   id="svg11300"
   sodipodi:version="0.32"
   sodipodi:docname="flat-mimetype.svg"
   version="1.0"
   style="display:inline;enable-background:new"
   inkscape:version="1.3 (0e150ed6c4, 2023-07-21)"
   xmlns:inkscape="http://www.inkscape.org/namespaces/inkscape"
   xmlns:sodipodi="http://sodipodi.sourceforge.net/DTD/sodipodi-0.dtd"
   xmlns="http://www.w3.org/2000/svg"
   xmlns:svg="http://www.w3.org/2000/svg">
  <sodipodi:namedview
     stroke="#ef2929"
     fill="#f57900"
     id="base"
     pagecolor="#cccccc"
     bordercolor="#666666"
     borderopacity="1"
     inkscape:pageopacity="0"
     inkscape:pageshadow="2"
     inkscape:zoom="2.0369296"
     inkscape:cx="85.422688"
     inkscape:cy="132.79791"
     inkscape:current-layer="layer3-3"
     showgrid="false"
     inkscape:grid-bbox="true"
     inkscape:document-units="px"
     inkscape:showpageshadow="true"
     inkscape:window-width="1920"
     inkscape:window-height="1011"
     inkscape:window-x="1920"
     inkscape:window-y="32"
     width="400px"
     height="300px"
     inkscape:snap-nodes="true"
     inkscape:snap-bbox="true"
     gridtolerance="10000"
     inkscape:object-nodes="true"
     inkscape:snap-grids="true"
     showguides="false"
     inkscape:guide-bbox="true"
     inkscape:window-maximized="1"
     inkscape:bbox-paths="true"
     inkscape:snap-bbox-midpoints="true"
     inkscape:snap-global="false"
     inkscape:object-paths="true"
     inkscape:snap-intersection-paths="true"
     inkscape:snap-smooth-nodes="true"
     inkscape:pagecheckerboard="false"
     showborder="true"
     inkscape:document-rotation="0"
     inkscape:deskcolor="#d1d1d1">
    <inkscape:grid
       spacingy="1"
       spacingx="1"
       id="grid5883"
       type="xygrid"
       enabled="true"
       visible="false"
       empspacing="4"
       snapvisiblegridlinesonly="true"
       originx="0"
       originy="0"
       units="px" />
    <inkscape:grid
       type="xygrid"
       id="grid11592"
       empspacing="2"
       visible="false"
       enabled="false"
       spacingx="0.5"
       spacingy="0.5"
       color="#ff0000"
       opacity="0.1254902"
       empcolor="#ff0000"
       empopacity="0.25098039"
       snapvisiblegridlinesonly="true"
       originx="0"
       originy="0"
       units="px" />
    <sodipodi:guide
       position="394.16276,545.36183"
       orientation="0,-1"
       id="guide864"
       inkscape:locked="false" />
  </sodipodi:namedview>
  <defs
     id="defs3" />
  <g
     style="display:inline"
     inkscape:groupmode="layer"
     inkscape:label="Icon"
     id="layer1">
    <g
       inkscape:groupmode="layer"
       id="layer4-6"
       inkscape:label="Shadow"
       style="display:inline;enable-background:new;opacity:0.4">
      <path
         id="rect3"
         style="display:inline;opacity:0.4;fill:#000000;stroke-width:6.64319;stroke-linecap:round;stroke-linejoin:round;paint-order:stroke markers fill;enable-background:new"
         d="m 40,128 v 97.37109 C 40,235.69114 48.308858,244 58.628906,244 H 197.37109 C 207.69114,244 216,235.69114 216,225.37109 V 128 Z" />
    </g>
    <g
       inkscape:groupmode="layer"
       id="layer2-7"
       inkscape:label="Background"
       style="display:inline;enable-background:new">
      <path
         id="rect2"
         style="display:inline;fill:#f9f9f9;stroke-width:6.64319;stroke-linecap:round;stroke-linejoin:round;paint-order:stroke markers fill;enable-background:new"
         d="M 58.628906,16 C 48.308869,16 40,24.308869 40,34.628906 V 221.37109 C 40,231.69113 48.308869,240 58.628906,240 H 197.37109 C 207.69113,240 216,231.69113 216,221.37109 V 34.628906 C 216,24.309027 207.69294,16 197.37305,16 Z"
         sodipodi:nodetypes="sssssssss" />
    </g>
    <g
       inkscape:groupmode="layer"
       id="layer8-5"
       inkscape:label="Graphic"
       style="display:inline;enable-background:new">
      <path
         id="path3804"
         style="font-size:48px;line-height:1.25;font-family:Cantarell;-inkscape-font-specification:Cantarell;white-space:pre;opacity:0.4;stroke-width:0.98995"
         d="m 90.175017,114.917 c -1.710629,0 -2.707017,0.99834 -2.707017,2.70898 0,1.71064 0.996388,2.70899 2.707017,2.70899 1.710628,0 2.708969,-0.99835 2.708969,-2.70899 0,-1.71064 -0.998341,-2.70898 -2.708969,-2.70898 z m 19.767463,10.3125 c -6.79499,0 -11.355402,5.03648 -11.355402,12.59178 0,7.08015 3.895662,11.26172 10.453062,11.26172 2.75602,0 5.60708,-0.66426 7.50777,-1.80468 l -0.85546,-2.75782 c -1.9007,0.90283 -3.99182,1.42578 -5.74997,1.42578 -4.75174,0 -7.45894,-3.32519 -7.45894,-8.88476 0,-5.51205 2.66033,-8.50585 7.41207,-8.50585 1.80567,0 3.84927,0.42788 5.74997,1.2832 l 0.90233,-3.08984 c -2.09077,-0.99787 -4.32459,-1.51953 -6.60543,-1.51953 z m 22.04871,0 c -6.74749,0 -11.26166,4.84633 -11.26166,12.16405 0,7.08014 4.18146,11.68945 10.69135,11.68945 6.74748,0 11.30853,-4.89517 11.30853,-12.21289 0,-7.08013 -4.22834,-11.64061 -10.73822,-11.64061 z m 28.035,0 c -2.61347,0 -5.22626,0.90197 -7.41207,2.51758 l -0.85547,-2.04297 h -2.66209 v 22.90428 h 3.80271 v -17.91405 c 1.75815,-1.37801 3.84868,-2.13867 6.082,-2.13867 3.70636,0 5.74997,2.0905 5.74997,5.79687 v 14.25585 h 3.80076 v -15.01562 c 0,-5.08439 -3.37393,-8.36327 -8.50581,-8.36327 z m -71.798428,0.47461 v 22.90428 h 3.800759 v -22.90428 z m 43.239988,2.85156 c 4.41912,0 7.4609,3.61093 7.4609,8.83788 0,5.03688 -2.75529,8.36328 -6.98433,8.36328 -4.41913,0 -7.41403,-3.56343 -7.41403,-8.83789 0,-5.08439 2.7084,-8.36327 6.93746,-8.36327 z" />
      <path
         id="path3692"
         style="font-size:48px;line-height:1.25;font-family:Cantarell;-inkscape-font-specification:Cantarell;white-space:pre;stroke-width:0.98995"
         d="m 90.175017,110.917 c -1.710629,0 -2.707017,0.99834 -2.707017,2.70898 0,1.71064 0.996388,2.70899 2.707017,2.70899 1.710628,0 2.708969,-0.99835 2.708969,-2.70899 0,-1.71064 -0.998341,-2.70898 -2.708969,-2.70898 z m 19.767463,10.3125 c -6.79499,0 -11.355402,5.03648 -11.355402,12.59178 0,7.08015 3.895662,11.26172 10.453062,11.26172 2.75602,0 5.60708,-0.66426 7.50777,-1.80468 l -0.85546,-2.75782 c -1.9007,0.90283 -3.99182,1.42578 -5.74997,1.42578 -4.75174,0 -7.45894,-3.32519 -7.45894,-8.88476 0,-5.51205 2.66033,-8.50585 7.41207,-8.50585 1.80567,0 3.84927,0.42788 5.74997,1.2832 l 0.90233,-3.08984 c -2.09077,-0.99787 -4.32459,-1.51953 -6.60543,-1.51953 z m 22.04871,0 c -6.74749,0 -11.26166,4.84633 -11.26166,12.16405 0,7.08014 4.18146,11.68945 10.69135,11.68945 6.74748,0 11.30853,-4.89517 11.30853,-12.21289 0,-7.08013 -4.22834,-11.64061 -10.73822,-11.64061 z m 28.035,0 c -2.61347,0 -5.22626,0.90197 -7.41207,2.51758 l -0.85547,-2.04297 h -2.66209 v 22.90428 h 3.80271 v -17.91405 c 1.75815,-1.37801 3.84868,-2.13867 6.082,-2.13867 3.70636,0 5.74997,2.0905 5.74997,5.79687 v 14.25585 h 3.80076 v -15.01562 c 0,-5.08439 -3.37393,-8.36327 -8.50581,-8.36327 z m -71.798428,0.47461 v 22.90428 h 3.800759 v -22.90428 z m 43.239988,2.85156 c 4.41912,0 7.4609,3.61093 7.4609,8.83788 0,5.03688 -2.75529,8.36328 -6.98433,8.36328 -4.41913,0 -7.41403,-3.56343 -7.41403,-8.83789 0,-5.08439 2.7084,-8.36327 6.93746,-8.36327 z" />
    </g>
    <g
       inkscape:groupmode="layer"
       id="layer3-3"
       inkscape:label="Highlights"
       style="display:inline;enable-background:new">
      <path
         id="path3"
         style="display:inline;opacity:0.2;fill:#ffffff;stroke-width:6.64319;stroke-linecap:round;stroke-linejoin:round;paint-order:stroke markers fill;enable-background:new"
         d="m 40,128 v 93.37109 C 40,231.69113 48.308869,240 58.628906,240 H 197.37109 C 207.69113,240 216,231.69113 216,221.37109 V 128 Z" />
      <path
         id="path8"
         style="display:inline;opacity:0.6;fill:#ffffff;stroke-width:6.64319;stroke-linecap:round;stroke-linejoin:round;paint-order:stroke markers fill;enable-background:new"
         d="m 216,180 -60,60 h 41.37109 C 207.69113,240 216,231.69113 216,221.37109 Z" />
      <path
         id="path1"
         style="display:inline;opacity:0.6;fill:#ffffff;stroke-width:6.64319;stroke-linecap:round;stroke-linejoin:round;paint-order:stroke markers fill;enable-background:new"
         d="M 58.628906,16 C 48.308891,16 40,24.308891 40,34.628906 v 2 C 40,26.308891 48.308891,18 58.628906,18 H 197.37109 C 207.69111,18 216,26.308891 216,36.628906 v -2 C 216,24.308891 207.69111,16 197.37109,16 Z"
         sodipodi:nodetypes="sscsscsss" />
      <path
         id="path2"
         style="display:inline;opacity:0.1;fill:#ffffff;stroke-width:6.64319;stroke-linecap:round;stroke-linejoin:round;paint-order:stroke markers fill;enable-background:new"
         d="m 128,16 v 224 h 69.37109 C 207.69112,240 216,231.69112 216,221.37109 V 34.628906 C 216,24.309038 207.69293,16 197.37305,16 Z" />
    </g>
  </g>
</svg>
