<?xml version="1.0" encoding="UTF-8" standalone="no"?>
<svg
   width="256"
   height="256"
   id="svg11300"
   sodipodi:version="0.32"
   sodipodi:docname="flat-mimetype.svg"
   version="1.0"
   style="display:inline;enable-background:new"
   xmlns:inkscape="http://www.inkscape.org/namespaces/inkscape"
   xmlns:sodipodi="http://sodipodi.sourceforge.net/DTD/sodipodi-0.dtd"
   xmlns:xlink="http://www.w3.org/1999/xlink"
   xmlns="http://www.w3.org/2000/svg"
   xmlns:svg="http://www.w3.org/2000/svg">
  <sodipodi:namedview
     stroke="#ef2929"
     fill="#f57900"
     id="base"
     pagecolor="#ffffff"
     bordercolor="#666666"
     borderopacity="1"
     inkscape:pageopacity="0"
     inkscape:pageshadow="2"
     inkscape:zoom="2.8284273"
     inkscape:cx="114.19774"
     inkscape:cy="144.073"
     inkscape:current-layer="layer8"
     showgrid="false"
     inkscape:grid-bbox="true"
     inkscape:document-units="px"
     inkscape:showpageshadow="true"
     inkscape:window-width="1920"
     inkscape:window-height="1016"
     inkscape:window-x="1920"
     inkscape:window-y="27"
     width="400px"
     height="300px"
     inkscape:snap-nodes="true"
     inkscape:snap-bbox="true"
     gridtolerance="10000"
     inkscape:object-nodes="true"
     inkscape:snap-grids="true"
     showguides="false"
     inkscape:guide-bbox="true"
     inkscape:window-maximized="1"
     inkscape:bbox-paths="true"
     inkscape:snap-bbox-midpoints="true"
     inkscape:snap-global="false"
     inkscape:object-paths="true"
     inkscape:snap-intersection-paths="true"
     inkscape:snap-smooth-nodes="true"
     inkscape:pagecheckerboard="false"
     showborder="true"
     inkscape:document-rotation="0"
     inkscape:deskcolor="#d1d1d1">
    <inkscape:grid
       spacingy="1"
       spacingx="1"
       id="grid5883"
       type="xygrid"
       enabled="true"
       visible="false"
       empspacing="4"
       snapvisiblegridlinesonly="true"
       originx="0"
       originy="0"
       units="px" />
    <inkscape:grid
       type="xygrid"
       id="grid11592"
       empspacing="2"
       visible="false"
       enabled="false"
       spacingx="0.5"
       spacingy="0.5"
       color="#ff0000"
       opacity="0.1254902"
       empcolor="#ff0000"
       empopacity="0.25098039"
       snapvisiblegridlinesonly="true"
       originx="0"
       originy="0"
       units="px" />
    <sodipodi:guide
       position="394.16276,545.36183"
       orientation="0,-1"
       id="guide864"
       inkscape:locked="false" />
  </sodipodi:namedview>
  <defs
     id="defs3">
    <linearGradient
       gradientUnits="userSpaceOnUse"
       y2="401.58368"
       x2="-74.916695"
       y1="401.58368"
       x1="525.92114"
       id="linearGradient4226"
       xlink:href="#linearGradient4338"
       inkscape:collect="always"
       gradientTransform="matrix(0,-0.45312414,0.45309814,0,2.0441606,239.99957)" />
    <linearGradient
       inkscape:collect="always"
       id="linearGradient4338">
      <stop
         style="stop-color:#f2f2f2;stop-opacity:1"
         offset="0"
         id="stop4340" />
      <stop
         style="stop-color:#f9f9f9;stop-opacity:1"
         offset="1"
         id="stop4342" />
    </linearGradient>
  </defs>
  <g
     style="display:inline"
     inkscape:groupmode="layer"
     inkscape:label="Icon"
     id="layer1">
    <g
       inkscape:groupmode="layer"
       id="layer4"
       inkscape:label="Shadow"
       style="display:inline;opacity:0.4">
      <path
         style="color:#000000;display:inline;overflow:visible;visibility:visible;fill:#000000;fill-opacity:1;fill-rule:nonzero;stroke:none;stroke-width:0.999984;marker:none;enable-background:accumulate"
         d="m 78.925821,20 c -35.295639,0 -39.09341,3.625411 -38.920425,38.993455 v 73.006335 73.00633 c -0.172985,35.36805 3.624786,38.99345 38.920425,38.99345 H 177.07956 C 212.37521,243.99957 216,240.37458 216,205.00612 V 131.99979 58.993455 C 216,23.62499 212.37521,20 177.07956,20 Z"
         id="path861"
         inkscape:connector-curvature="0"
         sodipodi:nodetypes="scccssscsss" />
    </g>
    <g
       inkscape:groupmode="layer"
       id="layer2"
       inkscape:label="Background"
       style="display:inline">
      <path
         style="color:#000000;display:inline;overflow:visible;visibility:visible;fill:url(#linearGradient4226);fill-opacity:1;fill-rule:nonzero;stroke:none;stroke-width:0.999984;marker:none;enable-background:accumulate"
         d="m 78.925821,16 c -35.295639,0 -39.09341,3.625411 -38.920425,38.993455 v 73.006335 73.00633 c -0.172985,35.36805 3.624786,38.99345 38.920425,38.99345 H 177.07956 C 212.37521,239.99957 216,236.37458 216,201.00612 V 127.99979 54.993455 C 216,19.62499 212.37521,16 177.07956,16 Z"
         id="rect4158"
         inkscape:connector-curvature="0"
         sodipodi:nodetypes="scccssscsss" />
    </g>
    <g
       inkscape:groupmode="layer"
       id="layer8"
       inkscape:label="Graphic"
       style="display:inline">
      <path
         id="path1445"
         style="font-size:48px;line-height:1.25;font-family:Cantarell;-inkscape-font-specification:Cantarell;white-space:pre;stroke-width:0.989953;opacity:0.4"
         d="m 90.175032,114.917 c -1.710638,0 -2.707032,0.99834 -2.707032,2.70898 0,1.71064 0.996394,2.70899 2.707032,2.70899 1.710638,0 2.708984,-0.99835 2.708984,-2.70899 0,-1.71064 -0.998346,-2.70898 -2.708984,-2.70898 z m 19.767578,10.3125 c -6.79503,0 -11.355469,5.03648 -11.355469,12.59179 0,7.08015 3.895689,11.26172 10.453129,11.26172 2.75603,0 5.60711,-0.66622 7.50781,-1.80664 l -0.85547,-2.75586 c -1.90071,0.90284 -3.99184,1.42578 -5.75,1.42578 -4.75177,0 -7.45898,-3.32519 -7.45898,-8.88476 0,-5.51206 2.66034,-8.50586 7.41211,-8.50586 1.80568,0 3.84929,0.42788 5.75,1.2832 l 0.90234,-3.08984 c -2.09078,-0.99787 -4.32462,-1.51953 -6.60547,-1.51953 z m 22.04883,0 c -6.74752,0 -11.26172,4.84634 -11.26172,12.16406 0,7.08014 4.18148,11.68945 10.69141,11.68945 6.74752,0 11.30859,-4.89517 11.30859,-12.21289 0,-7.08014 -4.22836,-11.64062 -10.73828,-11.64062 z m 28.03516,0 c -2.61348,0 -5.22629,0.90197 -7.41211,2.51758 l -0.85547,-2.04297 h -2.66211 v 22.90429 h 3.80273 v -17.91601 c 1.75816,-1.37802 3.8487,-2.13672 6.08204,-2.13672 3.70638,0 5.75,2.0905 5.75,5.79688 v 14.25585 h 3.80078 v -15.01562 c 0,-5.0844 -3.37395,-8.36328 -8.50586,-8.36328 z m -71.798834,0.47461 v 22.90429 h 3.800781 v -22.90429 z m 43.240234,2.85156 c 4.41915,0 7.46094,3.61095 7.46094,8.83789 0,5.03688 -2.7553,8.36328 -6.98437,8.36328 -4.41915,0 -7.41407,-3.56343 -7.41407,-8.83789 0,-5.0844 2.70842,-8.36328 6.9375,-8.36328 z" />
      <path
         id="path1413"
         style="font-size:48px;line-height:1.25;font-family:Cantarell;-inkscape-font-specification:Cantarell;white-space:pre;stroke-width:0.989953"
         d="m 90.175032,110.917 c -1.710638,0 -2.707032,0.99834 -2.707032,2.70898 0,1.71064 0.996394,2.70899 2.707032,2.70899 1.710638,0 2.708984,-0.99835 2.708984,-2.70899 0,-1.71064 -0.998346,-2.70898 -2.708984,-2.70898 z m 19.767578,10.3125 c -6.79503,0 -11.355469,5.03648 -11.355469,12.59179 0,7.08015 3.895689,11.26172 10.453129,11.26172 2.75603,0 5.60711,-0.66622 7.50781,-1.80664 l -0.85547,-2.75586 c -1.90071,0.90284 -3.99184,1.42578 -5.75,1.42578 -4.75177,0 -7.45898,-3.32519 -7.45898,-8.88476 0,-5.51206 2.66034,-8.50586 7.41211,-8.50586 1.80568,0 3.84929,0.42788 5.75,1.2832 l 0.90234,-3.08984 c -2.09078,-0.99787 -4.32462,-1.51953 -6.60547,-1.51953 z m 22.04883,0 c -6.74752,0 -11.26172,4.84634 -11.26172,12.16406 0,7.08014 4.18148,11.68945 10.69141,11.68945 6.74752,0 11.30859,-4.89517 11.30859,-12.21289 0,-7.08014 -4.22836,-11.64062 -10.73828,-11.64062 z m 28.03516,0 c -2.61348,0 -5.22629,0.90197 -7.41211,2.51758 l -0.85547,-2.04297 h -2.66211 v 22.90429 h 3.80273 v -17.91601 c 1.75816,-1.37802 3.8487,-2.13672 6.08204,-2.13672 3.70638,0 5.75,2.0905 5.75,5.79688 v 14.25585 h 3.80078 v -15.01562 c 0,-5.0844 -3.37395,-8.36328 -8.50586,-8.36328 z m -71.798834,0.47461 v 22.90429 h 3.800781 v -22.90429 z m 43.240234,2.85156 c 4.41915,0 7.46094,3.61095 7.46094,8.83789 0,5.03688 -2.7553,8.36328 -6.98437,8.36328 -4.41915,0 -7.41407,-3.56343 -7.41407,-8.83789 0,-5.0844 2.70842,-8.36328 6.9375,-8.36328 z" />
    </g>
    <g
       inkscape:groupmode="layer"
       id="layer3"
       inkscape:label="Highlights"
       style="display:inline">
      <path
         style="color:#000000;display:inline;overflow:visible;visibility:visible;opacity:0.1;fill:#ffffff;fill-opacity:1;fill-rule:nonzero;stroke:none;stroke-width:0.999984;marker:none;enable-background:accumulate"
         d="m 128.00271,16 v 223.99957 h 49.07659 c 35.29565,0 38.00246,-3.63654 38.9207,-38.99309 V 127.99979 54.99309 C 216,19.624624 212.37495,16 177.0793,16 Z"
         id="path4231"
         inkscape:connector-curvature="0"
         sodipodi:nodetypes="ccsscssc" />
      <path
         inkscape:connector-curvature="0"
         style="color:#000000;display:inline;overflow:visible;visibility:visible;opacity:0.2;fill:#ffffff;fill-opacity:1;fill-rule:nonzero;stroke:none;stroke-width:0.999984;marker:none;enable-background:accumulate"
         d="m 40.005395,127.99979 v 73.00669 c -0.172985,35.36805 3.625044,38.99309 38.920685,38.99309 h 98.15322 c 35.29565,0 38.00246,-3.63654 38.9207,-38.99309 v -73.00669 z"
         id="path4255"
         sodipodi:nodetypes="ccssscc" />
      <path
         style="color:#000000;display:inline;overflow:visible;visibility:visible;opacity:0.6;fill:#ffffff;fill-opacity:1;fill-rule:nonzero;stroke:none;stroke-width:7.99987;stroke-linecap:butt;stroke-linejoin:miter;stroke-miterlimit:4;stroke-dasharray:none;stroke-dashoffset:0;stroke-opacity:1;marker:none;enable-background:accumulate"
         d="M 156.00183,239.99957 216,179.99969 v 22.48383 c -0.0523,33.99575 -3.80257,37.51605 -38.17293,37.51605 z"
         id="path4254"
         inkscape:connector-curvature="0"
         sodipodi:nodetypes="cccsc" />
      <path
         style="color:#000000;display:inline;overflow:visible;visibility:visible;opacity:0.6;fill:#ffffff;fill-opacity:1;fill-rule:nonzero;stroke:none;stroke-width:0.999984;marker:none;enable-background:accumulate"
         d="M 78.92608,16 C 43.630436,16 39.83241,19.626022 40.005395,54.994066 v 1.999997 C 39.83241,21.626018 43.630436,17.999996 78.92608,17.999996 h 98.15322 c 35.29566,0 38.9207,3.625601 38.9207,38.994067 V 54.994066 C 216,19.625601 212.37496,16 177.0793,16 Z"
         id="path931"
         inkscape:connector-curvature="0" />
    </g>
  </g>
</svg>
