<?xml version="1.0" encoding="UTF-8" standalone="no"?>
<svg
   sodipodi:docname="Icon Template Horizontal.svg"
   id="svg8"
   version="1.1"
   viewBox="0 0 67.733332 67.733335"
   height="256"
   width="256"
   xmlns:inkscape="http://www.inkscape.org/namespaces/inkscape"
   xmlns:sodipodi="http://sodipodi.sourceforge.net/DTD/sodipodi-0.dtd"
   xmlns="http://www.w3.org/2000/svg"
   xmlns:svg="http://www.w3.org/2000/svg">
  <defs
     id="defs2" />
  <sodipodi:namedview
     inkscape:window-maximized="1"
     inkscape:window-y="27"
     inkscape:window-x="1920"
     inkscape:window-height="1016"
     inkscape:window-width="1920"
     units="px"
     showgrid="false"
     inkscape:document-rotation="0"
     inkscape:current-layer="layer10"
     inkscape:document-units="px"
     inkscape:cy="129.7541"
     inkscape:cx="88.388348"
     inkscape:zoom="1.4142136"
     inkscape:pageshadow="2"
     inkscape:pageopacity="0.0"
     borderopacity="1.0"
     bordercolor="#666666"
     pagecolor="#ffffff"
     id="base"
     inkscape:pagecheckerboard="0"
     inkscape:showpageshadow="2"
     inkscape:deskcolor="#d1d1d1" />
  <g
     inkscape:groupmode="layer"
     id="layer1"
     inkscape:label="Background"
     style="display:inline">
    <g
       inkscape:label="Shadow"
       id="layer10"
       inkscape:groupmode="layer"
       style="display:inline;opacity:0.4">
      <path
         id="path1156"
         style="display:inline;fill:#000000;fill-opacity:1;stroke-width:0.0246944;stroke-miterlimit:4;stroke-dasharray:none;paint-order:stroke fill markers"
         d="m 9.2257934,11.641667 c -2.7655985,0 -4.9924601,2.22686 -4.9924601,4.99246 0,12.193915 0,24.387831 0,36.581746 0,2.7656 2.2268616,4.99246 4.9924601,4.99246 H 58.507539 c 2.7656,0 4.99246,-2.22686 4.99246,-4.99246 0,-12.193915 0,-24.387831 0,-36.581746 0,-2.7656 -2.22686,-4.99246 -4.99246,-4.99246 z"
         sodipodi:nodetypes="sccssccss" />
    </g>
    <g
       style="display:inline"
       inkscape:label="Colour"
       id="g1174"
       inkscape:groupmode="layer">
      <path
         id="rect1168"
         style="display:inline;fill:#323232;fill-opacity:1;stroke-width:0.0246944;stroke-miterlimit:4;stroke-dasharray:none;paint-order:stroke fill markers"
         d="m 9.2257934,10.583333 c -2.7655985,0 -4.9924601,2.22686 -4.9924601,4.99246 0,12.193915 0,24.387831 0,36.581746 0,2.765599 2.2268616,4.99246 4.9924601,4.99246 H 58.507539 c 2.7656,0 4.99246,-2.226861 4.99246,-4.99246 0,-12.193915 0,-24.387831 0,-36.581746 0,-2.7656 -2.22686,-4.99246 -4.99246,-4.99246 z"
         sodipodi:nodetypes="sccssccss" />
    </g>
    <g
       inkscape:groupmode="layer"
       id="layer2"
       inkscape:label="Highlight"
       style="opacity:0.1">
      <path
         id="path1159"
         style="display:inline;fill:#ffffff;fill-opacity:1;stroke-width:0.0246944;stroke-miterlimit:4;stroke-dasharray:none;paint-order:stroke fill markers"
         d="m 9.2257934,10.583333 c -2.7655985,0 -4.9924601,2.22686 -4.9924601,4.99246 v 1.058333 c 0,-2.7656 2.2268616,-4.99246 4.9924601,-4.99246 H 58.507539 c 2.7656,0 4.99246,2.22686 4.99246,4.99246 v -1.058333 c 0,-2.7656 -2.22686,-4.99246 -4.99246,-4.99246 z" />
    </g>
  </g>
  <g
     inkscape:label="Graphic"
     id="g1156"
     inkscape:groupmode="layer"
     style="display:inline" />
  <g
     inkscape:groupmode="layer"
     id="layer3"
     inkscape:label="Large Highlight"
     style="opacity:0.055">
    <path
       id="path974"
       style="display:inline;opacity:1;fill:#ffffff;fill-opacity:1;stroke-width:0.0246944;stroke-miterlimit:4;stroke-dasharray:none;paint-order:stroke fill markers"
       d="M 61.8562,11.874764 33.869796,33.866703 5.8771896,55.858642 c 0.884888,0.800637 2.055956,1.291394 3.348633,1.291394 H 58.507568 c 2.765599,0 4.99246,-2.22686 4.99246,-4.99246 0,-12.193915 0,-24.387831 0,-36.581746 0,-1.472923 -0.635556,-2.78879 -1.643828,-3.701066 z"
       sodipodi:nodetypes="cccssccc" />
  </g>
</svg>
