<?xml version="1.0" encoding="UTF-8" standalone="no"?>
<svg
   xmlns:dc="http://purl.org/dc/elements/1.1/"
   xmlns:cc="http://creativecommons.org/ns#"
   xmlns:rdf="http://www.w3.org/1999/02/22-rdf-syntax-ns#"
   xmlns:svg="http://www.w3.org/2000/svg"
   xmlns="http://www.w3.org/2000/svg"
   xmlns:sodipodi="http://sodipodi.sourceforge.net/DTD/sodipodi-0.dtd"
   xmlns:inkscape="http://www.inkscape.org/namespaces/inkscape"
   sodipodi:docname="multimedia-volume-control-symbolic.symbolic.svg"
   inkscape:version="1.0.2 (e86c870879, 2021-01-15)"
   id="svg8"
   version="1.1"
   viewBox="0 0 4.2333332 4.2333332"
   height="16"
   width="16">
  <defs
     id="defs2" />
  <sodipodi:namedview
     inkscape:window-maximized="1"
     inkscape:window-y="27"
     inkscape:window-x="1920"
     inkscape:window-height="1016"
     inkscape:window-width="1920"
     units="px"
     showgrid="false"
     inkscape:document-rotation="0"
     inkscape:current-layer="g1939"
     inkscape:document-units="px"
     inkscape:cy="8.4635001"
     inkscape:cx="9.7429186"
     inkscape:zoom="22.627417"
     inkscape:pageshadow="2"
     inkscape:pageopacity="0.0"
     borderopacity="1.0"
     bordercolor="#666666"
     pagecolor="#ffffff"
     id="base" />
  <metadata
     id="metadata5">
    <rdf:RDF>
      <cc:Work
         rdf:about="">
        <dc:format>image/svg+xml</dc:format>
        <dc:type
           rdf:resource="http://purl.org/dc/dcmitype/StillImage" />
        <dc:title />
      </cc:Work>
    </rdf:RDF>
  </metadata>
  <g
     id="g1043"
     transform="translate(75.382088,-6.1796408)" />
  <g
     inkscape:groupmode="layer"
     id="g1939"
     inkscape:label="Icon"
     style="display:inline">
    <path
       d="m 2.7361078,0.87919231 c -0.025843,-0.00178 -0.056162,4.445e-4 -0.091954,0.00348 L 1.027928,1.1348871 C 0.84558528,1.1534525 0.82575708,1.2385683 0.82737818,1.3446308 V 3.4788606 C 0.73470071,3.4179783 0.63551875,3.3746468 0.50334853,3.3746468 c -0.17018925,0 -0.27179206,0.065238 -0.33322169,0.1510695 -0.0614332,0.085832 -0.0818883,0.1939825 -0.0818883,0.2776206 0,0.1008503 0.0347753,0.2082939 0.10947296,0.2903109 0.0746942,0.082015 0.18955971,0.1396827 0.35467758,0.1396854 0.18646097,0 0.3173262,-0.052009 0.391468,-0.1536974 0.058383,-0.080059 0.090944,-0.1872794 0.10246362,-0.3192097 0.00161,-0.016007 0.00246,-0.032538 0.00348,-0.049478 9.309e-4,-0.013432 6.669e-4,-0.022828 9.309e-4,-0.038538 h 9.309e-4 v -1.727 C 1.0565721,1.8065478 1.1825789,1.7860206 1.1825789,1.7860206 L 2.4949072,1.5810923 c 0.125982,-0.038512 0.1261101,0.1173509 0.1261101,0.1173509 V 3.2546747 C 2.5283393,3.1937924 2.4291578,3.1504598 2.2969876,3.1504576 c -0.1701891,0 -0.271792,0.065238 -0.3332218,0.1510696 -0.061433,0.085832 -0.081888,0.1939854 -0.081888,0.2776217 0,0.1008492 0.034776,0.2082931 0.109473,0.290311 0.074695,0.082024 0.1895597,0.1396801 0.3546776,0.1396828 0.1864609,0 0.3173262,-0.05201 0.391468,-0.1536956 0.058382,-0.080059 0.090944,-0.187281 0.1024637,-0.319209 0.00161,-0.016007 0.00246,-0.032538 0.00348,-0.049486 9.31e-4,-0.013432 6.948e-4,-0.022828 9.31e-4,-0.038529 H 2.845302 V 1.0789244 C 2.8479239,0.92520691 2.8137945,0.88472791 2.7362599,0.87925171 Z"
       color="#000000"
       color-rendering="auto"
       dominant-baseline="auto"
       fill="#808080"
       fill-rule="evenodd"
       image-rendering="auto"
       shape-rendering="auto"
       solid-color="#000000"
       style="font-variant-ligatures:normal;font-variant-position:normal;font-variant-caps:normal;font-variant-numeric:normal;font-variant-alternates:normal;font-feature-settings:normal;text-indent:0;text-decoration:none;text-decoration-line:none;text-decoration-style:solid;text-decoration-color:#000000;text-transform:none;text-orientation:mixed;white-space:normal;shape-padding:0;isolation:auto;mix-blend-mode:normal;fill:#000000;stroke-width:0.218972;stroke-miterlimit:4;stroke-dasharray:none"
       id="path870" />
    <path
       id="path884"
       style="font-variant-ligatures:normal;font-variant-position:normal;font-variant-caps:normal;font-variant-numeric:normal;font-variant-alternates:normal;font-feature-settings:normal;text-indent:0;text-decoration:none;text-decoration-line:none;text-decoration-style:solid;text-decoration-color:#000000;text-transform:none;text-orientation:mixed;white-space:normal;shape-padding:0;isolation:auto;mix-blend-mode:normal;fill:#000000;stroke-width:0.224194"
       d="M 3.9933048,6.0213227e-4 C 3.9780208,0.00131455 3.9615888,0.00251213 3.9436938,0.00402313 L 2.3276362,0.25663951 C 2.1452934,0.27520491 2.125291,0.35985487 2.126912,0.4659173 v 0.38662221 l 0.5040915,-0.078693 h 0.00399 c 0.034078,-0.00289 0.066194,-0.00571 0.1009325,-0.00399 h 0.00741 0.00114 c 0.048061,0.00339 0.1093974,0.027769 0.1499726,0.072991 l 0.8998429,-0.1402809 c 0.1259821,-0.0385126 0.1265931,0.1174692 0.1265931,0.1174692 V 2.3762185 C 3.8282064,2.3153362 3.7285882,2.271867 3.5964183,2.2718648 c -0.170189,0 -0.2715896,0.065281 -0.3330197,0.1511133 -0.061433,0.085833 -0.082114,0.1940704 -0.082114,0.2777065 0,0.1008494 0.03479,0.2082335 0.1094859,0.2902519 0.074695,0.082023 0.1895712,0.1397058 0.3546888,0.1397084 0.186461,0 0.3176126,-0.052279 0.3917544,-0.1539647 0.058382,-0.080058 0.091124,-0.1868361 0.1026432,-0.3187634 0.00161,-0.016006 0.00241,-0.032662 0.00342,-0.049611 9.302e-4,-0.013432 3.352e-4,-0.023074 5.702e-4,-0.038776 h 0.00114 V 0.20018586 C 4.1476148,0.04646829 4.1136067,0.0060785 4.0360729,6.0213227e-4 h -5.702e-4 c -0.012923,-8.9005e-4 -0.026912,-7.1064e-4 -0.042198,0 z" />
  </g>
</svg>
