<?xml version="1.0" encoding="UTF-8" standalone="no"?>
<svg
   xmlns:dc="http://purl.org/dc/elements/1.1/"
   xmlns:cc="http://creativecommons.org/ns#"
   xmlns:rdf="http://www.w3.org/1999/02/22-rdf-syntax-ns#"
   xmlns:svg="http://www.w3.org/2000/svg"
   xmlns="http://www.w3.org/2000/svg"
   xmlns:sodipodi="http://sodipodi.sourceforge.net/DTD/sodipodi-0.dtd"
   xmlns:inkscape="http://www.inkscape.org/namespaces/inkscape"
   sodipodi:docname="emblem-system-symbolic.symbolic.svg"
   inkscape:version="1.0.2 (e86c870879, 2021-01-15)"
   id="svg4705"
   version="1.1"
   viewBox="0 0 4.2333333 4.2333333"
   height="16"
   width="16">
  <defs
     id="defs4699" />
  <sodipodi:namedview
     units="px"
     inkscape:document-rotation="0"
     inkscape:window-maximized="1"
     inkscape:window-y="27"
     inkscape:window-x="1920"
     inkscape:window-height="1016"
     inkscape:window-width="1920"
     fit-margin-bottom="0"
     fit-margin-right="0"
     fit-margin-left="0"
     fit-margin-top="0"
     showgrid="false"
     inkscape:current-layer="layer6"
     inkscape:document-units="px"
     inkscape:cy="6.5346134"
     inkscape:cx="10.840826"
     inkscape:zoom="44.8"
     inkscape:pageshadow="2"
     inkscape:pageopacity="0.0"
     borderopacity="1.0"
     bordercolor="#666666"
     pagecolor="#ffffff"
     id="base" />
  <metadata
     id="metadata4702">
    <rdf:RDF>
      <cc:Work
         rdf:about="">
        <dc:format>image/svg+xml</dc:format>
        <dc:type
           rdf:resource="http://purl.org/dc/dcmitype/StillImage" />
        <dc:title />
      </cc:Work>
    </rdf:RDF>
  </metadata>
  <g
     inkscape:label="Graphic"
     id="layer6"
     inkscape:groupmode="layer">
    <path
       id="path1905-0"
       style="fill:#000000;stroke:none;stroke-width:1.0133;stroke-linecap:square;stroke-linejoin:round;stroke-miterlimit:4;stroke-dasharray:none;paint-order:stroke fill markers"
       d="M 8.0019531 2.75 C 7.5264334 2.750192 7.0537747 2.8157471 6.5957031 2.9433594 C 5.2704458 3.311724 4.1426548 4.1838562 3.4550781 5.375 C 2.0047614 7.8855164 2.8637441 11.097371 5.375 12.546875 C 7.8860047 13.995567 11.097761 13.13549 12.546875 10.625 C 13.996021 8.1148657 13.135224 4.9045358 10.625 3.4550781 C 10.61472 3.4487399 10.604106 3.4418171 10.59375 3.4355469 C 9.8037577 2.9863738 8.9107534 2.7505311 8.0019531 2.75 z M 8.0019531 4.25 C 8.6511433 4.2503795 9.289174 4.4194473 9.8535156 4.7402344 C 9.8609235 4.744732 9.8676677 4.7493708 9.875 4.7539062 C 11.66815 5.789123 12.281272 8.08222 11.246094 9.875 C 10.210936 11.668033 7.9187056 12.282727 6.125 11.248047 C 4.3311164 10.212787 3.7178902 7.9180525 4.7539062 6.125 C 5.2450676 5.274265 6.0494132 4.6498098 6.9960938 4.3867188 C 7.3233109 4.2955736 7.662273 4.2501368 8.0019531 4.25 z "
       transform="scale(0.26458333)" />
    <path
       id="path839"
       style="fill:#000000;stroke:none;stroke-width:0.2803;stroke-linecap:square;stroke-linejoin:round;stroke-miterlimit:4;stroke-dasharray:none;paint-order:stroke fill markers"
       d="m 2.1172609,1.3559896 c -0.0689,2.77e-5 -0.1378511,0.00961 -0.2042239,0.028094 -0.1920254,0.053374 -0.3552841,0.1796667 -0.4549115,0.3522595 -0.210146,0.3637652 -0.08563,0.8289208 0.2782416,1.0389486 0.3638362,0.2099104 0.8289774,0.08552 1.0389486,-0.2782415 0.2099767,-0.3637099 0.085481,-0.8289273 -0.2782415,-1.0389487 -0.00148,-9.2e-4 -0.00282,-0.00178 -0.00432,-0.0027 C 2.3782795,1.3903214 2.248943,1.3560659 2.1172609,1.3559896 Z M 2.1064549,1.716353 c 0.01928,-4.15e-4 0.040147,0.00137 0.05943,0.00378 0.051481,0.00645 0.1027807,0.022375 0.151277,0.050246 C 2.511054,1.8823226 2.5760552,2.123278 2.4641174,2.3171387 2.3521815,2.5109946 2.1101702,2.5760277 1.9162786,2.4640935 1.722395,2.352165 1.6584667,2.1112021 1.7704044,1.9173352 1.8437469,1.7903118 1.9717923,1.7192492 2.1064549,1.716353 Z" />
    <path
       id="path995"
       style="color:#000000;font-style:normal;font-variant:normal;font-weight:normal;font-stretch:normal;font-size:medium;line-height:normal;font-family:sans-serif;font-variant-ligatures:normal;font-variant-position:normal;font-variant-caps:normal;font-variant-numeric:normal;font-variant-alternates:normal;font-variant-east-asian:normal;font-feature-settings:normal;font-variation-settings:normal;text-indent:0;text-align:start;text-decoration:none;text-decoration-line:none;text-decoration-style:solid;text-decoration-color:#000000;letter-spacing:normal;word-spacing:normal;text-transform:none;writing-mode:lr-tb;direction:ltr;text-orientation:mixed;dominant-baseline:auto;baseline-shift:baseline;text-anchor:start;white-space:normal;shape-padding:0;shape-margin:0;inline-size:0;clip-rule:nonzero;display:inline;overflow:visible;visibility:visible;opacity:0.9;isolation:auto;mix-blend-mode:normal;color-interpolation:sRGB;color-interpolation-filters:linearRGB;solid-color:#000000;solid-opacity:1;vector-effect:none;fill:#000000;fill-opacity:1;fill-rule:nonzero;stroke:none;stroke-width:0.0999907;stroke-linecap:butt;stroke-linejoin:round;stroke-miterlimit:4;stroke-dasharray:none;stroke-dashoffset:0;stroke-opacity:1;paint-order:stroke fill markers;color-rendering:auto;image-rendering:auto;shape-rendering:auto;text-rendering:auto;enable-background:accumulate;stop-color:#000000"
       d="m 1.3698259,0.27209206 a 0.2470367,0.24704236 8.52e-4 0 0 -0.072479,0.009795 0.2470367,0.24704236 8.52e-4 0 0 -0.055338,0.0230169 L 0.98539322,0.45377931 A 0.2470367,0.24704236 8.52e-4 0 0 0.86198306,0.66729852 l -1e-7,0.40549068 A 0.2470367,0.24704236 8.52e-4 0 0 0.91585216,1.2260725 1.4947322,1.4947519 0.060153 0 1 1.7165493,0.67611362 1.4947322,1.4947519 0.060153 0 1 1.9457397,0.63154879 0.2470367,0.24704236 8.52e-4 0 0 1.8399594,0.50813863 L 1.4893183,0.30490352 A 0.2470367,0.24704236 8.52e-4 0 0 1.3698259,0.27209206 Z m 1.5014907,10e-9 a 0.2470367,0.24704236 8.52e-4 0 0 -0.07199,0.009305 0.2470367,0.24704236 8.52e-4 0 0 -0.055339,0.0239964 L 2.3933468,0.50764912 a 0.2470367,0.24704236 8.52e-4 0 0 -0.1067596,0.1238999 1.4947322,1.4947519 0.060153 0 1 0.5685683,0.18511525 1.4947322,1.4947519 0.060153 0 1 0.00881,0.005382 1.4947322,1.4947519 0.060153 0 1 0.4539703,0.40451159 0.2470367,0.24704236 8.52e-4 0 0 0.05338,-0.1537731 l 3e-6,-0.40548666 A 0.2470367,0.24704236 8.52e-4 0 0 3.2479134,0.4537793 L 2.9908088,0.3049035 A 0.2470367,0.24704236 8.52e-4 0 0 2.8713166,0.27209207 Z M 0.70380256,1.5184371 a 0.2470367,0.24704236 8.52e-4 0 0 -0.0558286,0.00784 0.2470367,0.24704236 8.52e-4 0 0 -0.062195,0.025465 L 0.23415821,1.7544835 A 0.2470367,0.24704236 8.52e-4 0 0 0.11123775,1.9684924 l -4.8978e-4,0.2962824 a 0.2470367,0.24704236 8.52e-4 0 0 0.1234102,0.2140089 l 0.35113136,0.2022556 a 0.2470367,0.24704236 8.52e-4 0 0 0.16013941,0.030362 1.4947322,1.4947519 0.060153 0 1 10e-9,-1.1900268 0.2470367,0.24704236 8.52e-4 0 0 -0.0416264,-0.00294 z m 2.82423224,-1e-7 a 0.2470367,0.24704236 8.52e-4 0 0 -0.040157,0.00245 1.4947322,1.4947519 0.060153 0 1 5.013e-4,1.1905165 0.2470367,0.24704236 8.52e-4 0 0 0.1596496,-0.030363 L 3.9986586,2.4787837 A 0.2470367,0.24704236 8.52e-4 0 0 4.1225585,2.2652646 l 0,-0.297262 a 0.2470367,0.24704236 8.52e-4 0 0 -0.1239,-0.2140089 L 3.6480171,1.5517382 A 0.2470367,0.24704236 8.52e-4 0 0 3.5280348,1.518437 Z M 3.3174539,3.0062154 a 1.4947322,1.4947519 0.060153 0 1 -1.030377,0.595503 0.2470367,0.24704236 8.52e-4 0 0 0.1062697,0.1234103 l 0.3506415,0.2022556 a 0.2470367,0.24704236 8.52e-4 0 0 0.2473101,5.015e-4 l 0.257105,-0.148876 A 0.2470367,0.24704236 8.52e-4 0 0 3.3713236,3.5650011 l -1e-7,-0.4045113 a 0.2470367,0.24704236 8.52e-4 0 0 -0.05387,-0.1542627 z m -2.40160134,5.013e-4 a 0.2470367,0.24704236 8.52e-4 0 0 -0.0538695,0.1537731 l -1e-8,0.405001 a 0.2470367,0.24704236 8.52e-4 0 0 0.1234102,0.213519 L 1.2424978,3.927396 a 0.2470367,0.24704236 8.52e-4 0 0 0.2468205,2e-7 L 1.8399598,3.7251407 A 0.2470367,0.24704236 8.52e-4 0 0 1.9467194,3.6012287 1.4947322,1.4947519 0.060153 0 1 1.3693361,3.4112162 1.4947322,1.4947519 0.060153 0 1 0.9158526,3.0067051 Z" />
  </g>
</svg>
