<?xml version="1.0" encoding="UTF-8" standalone="no"?>
<svg
   xmlns:dc="http://purl.org/dc/elements/1.1/"
   xmlns:cc="http://creativecommons.org/ns#"
   xmlns:rdf="http://www.w3.org/1999/02/22-rdf-syntax-ns#"
   xmlns:svg="http://www.w3.org/2000/svg"
   xmlns="http://www.w3.org/2000/svg"
   xmlns:sodipodi="http://sodipodi.sourceforge.net/DTD/sodipodi-0.dtd"
   xmlns:inkscape="http://www.inkscape.org/namespaces/inkscape"
   sodipodi:docname="emblem-shared.svg"
   inkscape:version="1.0.2 (e86c870879, 2021-01-15)"
   id="svg8"
   version="1.1"
   viewBox="0 0 4.2333333 4.2333334"
   height="16"
   width="16">
  <defs
     id="defs2" />
  <sodipodi:namedview
     inkscape:window-maximized="1"
     inkscape:window-y="27"
     inkscape:window-x="1920"
     inkscape:window-height="1016"
     inkscape:window-width="1920"
     units="px"
     showgrid="false"
     inkscape:document-rotation="0"
     inkscape:current-layer="layer3"
     inkscape:document-units="px"
     inkscape:cy="7.3637404"
     inkscape:cx="11.26053"
     inkscape:zoom="22.627417"
     inkscape:pageshadow="2"
     inkscape:pageopacity="0.0"
     borderopacity="1.0"
     bordercolor="#666666"
     pagecolor="#ffffff"
     id="base"
     inkscape:lockguides="false" />
  <metadata
     id="metadata5">
    <rdf:RDF>
      <cc:Work
         rdf:about="">
        <dc:format>image/svg+xml</dc:format>
        <dc:type
           rdf:resource="http://purl.org/dc/dcmitype/StillImage" />
        <dc:title />
      </cc:Work>
    </rdf:RDF>
  </metadata>
  <g
     inkscape:groupmode="layer"
     id="layer3"
     inkscape:label="Graphic"
     style="display:inline">
    <circle
       style="fill:#00a80e;fill-opacity:1;stroke-width:0.825867;stroke-linecap:round;stroke-miterlimit:1.6;paint-order:stroke markers fill"
       id="path835"
       cx="2.220446e-16"
       cy="2.9934185"
       r="1.8520833"
       transform="rotate(-45)" />
    <path
       id="rect832"
       style="color:#000000;font-style:normal;font-variant:normal;font-weight:normal;font-stretch:normal;font-size:medium;line-height:normal;font-family:sans-serif;font-variant-ligatures:normal;font-variant-position:normal;font-variant-caps:normal;font-variant-numeric:normal;font-variant-alternates:normal;font-variant-east-asian:normal;font-feature-settings:normal;font-variation-settings:normal;text-indent:0;text-align:start;text-decoration:none;text-decoration-line:none;text-decoration-style:solid;text-decoration-color:#000000;letter-spacing:normal;word-spacing:normal;text-transform:none;writing-mode:lr-tb;direction:ltr;text-orientation:mixed;dominant-baseline:auto;baseline-shift:baseline;text-anchor:start;white-space:normal;shape-padding:0;shape-margin:0;inline-size:0;clip-rule:nonzero;display:inline;overflow:visible;visibility:visible;opacity:1;isolation:auto;mix-blend-mode:normal;color-interpolation:sRGB;color-interpolation-filters:linearRGB;solid-color:#000000;solid-opacity:1;vector-effect:none;fill:#ffffff;fill-opacity:1;fill-rule:nonzero;stroke:none;stroke-width:0.274321;stroke-linecap:round;stroke-linejoin:miter;stroke-miterlimit:4;stroke-dasharray:none;stroke-dashoffset:0;stroke-opacity:1;paint-order:stroke markers fill;color-rendering:auto;image-rendering:auto;shape-rendering:auto;text-rendering:auto;enable-background:accumulate;stop-color:#000000;stop-opacity:1"
       d="m 2.7678534,0.92604167 c -0.2643318,0 -0.4807201,0.21786353 -0.4807201,0.48218473 0,0.01 0.00235,0.019329 0.00297,0.029178 L 1.624907,1.8211742 C 1.5362414,1.7093964 1.4006843,1.6362131 1.2480463,1.6362131 c -0.26433157,0 -0.48022546,0.2158853 -0.48022546,0.4802065 0,0.2643211 0.21589389,0.4821846 0.48022546,0.4821846 0.152887,0 0.2887036,-0.073827 0.3773553,-0.1864447 L 2.2901008,2.795929 c -6.03e-4,0.0098 -0.00297,0.019233 -0.00297,0.029178 0,0.2643211 0.2163884,0.4821843 0.4807201,0.4821843 0.2643315,0 0.4802254,-0.2178632 0.4802254,-0.4821843 0,-0.2643212 -0.2158939,-0.4807012 -0.4802254,-0.4807012 -0.1630789,0 -0.3072391,0.08264 -0.3941707,0.2077104 L 1.7238205,2.1767546 c 0.00258,-0.020029 0.00643,-0.039656 0.00643,-0.060335 0,-0.020494 -0.0034,-0.040004 -0.00593,-0.05984 l 0.6498568,-0.374868 c 0.086999,0.1245722 0.2309825,0.2067212 0.3936761,0.2067212 0.2643314,0 0.4802253,-0.2158854 0.4802253,-0.4802064 0,-0.2643212 -0.2158939,-0.48218473 -0.4802253,-0.48218473 z m 0,0.23342673 c 0.1388403,0 0.2482729,0.1099229 0.2482729,0.248758 0,0.1388348 -0.1094326,0.2482632 -0.2482729,0.2482632 -0.1388403,0 -0.2487677,-0.1094284 -0.2487677,-0.2482632 0,-0.1388351 0.1099274,-0.248758 0.2487677,-0.248758 z M 1.2480463,1.8676617 c 0.1388403,0 0.2487676,0.1099229 0.2487676,0.2487579 0,0.1388349 -0.1099273,0.2487579 -0.2487676,0.2487579 -0.1388405,0 -0.24876768,-0.109923 -0.24876768,-0.2487579 0,-0.138835 0.10992718,-0.2487579 0.24876768,-0.2487579 z m 1.5198071,0.7086879 c 0.1388403,0 0.2482729,0.1099231 0.2482729,0.248758 0,0.1388348 -0.1094326,0.2502413 -0.2482729,0.2502413 -0.1388403,0 -0.2487677,-0.1114065 -0.2487677,-0.2502413 0,-0.1388349 0.1099274,-0.248758 0.2487677,-0.248758 z" />
  </g>
</svg>
