<?xml version="1.0" encoding="UTF-8" standalone="no"?>
<svg
   xmlns:dc="http://purl.org/dc/elements/1.1/"
   xmlns:cc="http://creativecommons.org/ns#"
   xmlns:rdf="http://www.w3.org/1999/02/22-rdf-syntax-ns#"
   xmlns:svg="http://www.w3.org/2000/svg"
   xmlns="http://www.w3.org/2000/svg"
   xmlns:sodipodi="http://sodipodi.sourceforge.net/DTD/sodipodi-0.dtd"
   xmlns:inkscape="http://www.inkscape.org/namespaces/inkscape"
   sodipodi:docname="emblem-shared-symbolic.symbolic.svg"
   inkscape:version="1.0.2 (e86c870879, 2021-01-15)"
   id="svg8"
   version="1.1"
   viewBox="0 0 4.2333333 4.2333334"
   height="16"
   width="16">
  <defs
     id="defs2" />
  <sodipodi:namedview
     inkscape:window-maximized="1"
     inkscape:window-y="27"
     inkscape:window-x="1920"
     inkscape:window-height="1016"
     inkscape:window-width="1920"
     units="px"
     showgrid="false"
     inkscape:document-rotation="0"
     inkscape:current-layer="layer3"
     inkscape:document-units="px"
     inkscape:cy="7.3637404"
     inkscape:cx="11.26053"
     inkscape:zoom="22.627417"
     inkscape:pageshadow="2"
     inkscape:pageopacity="0.0"
     borderopacity="1.0"
     bordercolor="#666666"
     pagecolor="#ffffff"
     id="base"
     inkscape:lockguides="false" />
  <metadata
     id="metadata5">
    <rdf:RDF>
      <cc:Work
         rdf:about="">
        <dc:format>image/svg+xml</dc:format>
        <dc:type
           rdf:resource="http://purl.org/dc/dcmitype/StillImage" />
        <dc:title />
      </cc:Work>
    </rdf:RDF>
  </metadata>
  <g
     inkscape:groupmode="layer"
     id="layer3"
     inkscape:label="Graphic"
     style="display:inline">
    <path
       id="rect832"
       style="color:#000000;font-style:normal;font-variant:normal;font-weight:normal;font-stretch:normal;font-size:medium;line-height:normal;font-family:sans-serif;font-variant-ligatures:normal;font-variant-position:normal;font-variant-caps:normal;font-variant-numeric:normal;font-variant-alternates:normal;font-variant-east-asian:normal;font-feature-settings:normal;font-variation-settings:normal;text-indent:0;text-align:start;text-decoration:none;text-decoration-line:none;text-decoration-style:solid;text-decoration-color:#000000;letter-spacing:normal;word-spacing:normal;text-transform:none;writing-mode:lr-tb;direction:ltr;text-orientation:mixed;dominant-baseline:auto;baseline-shift:baseline;text-anchor:start;white-space:normal;shape-padding:0;shape-margin:0;inline-size:0;clip-rule:nonzero;display:inline;overflow:visible;visibility:visible;opacity:1;isolation:auto;mix-blend-mode:normal;color-interpolation:sRGB;color-interpolation-filters:linearRGB;solid-color:#000000;solid-opacity:1;vector-effect:none;fill:#000000;fill-opacity:1;fill-rule:nonzero;stroke:none;stroke-width:0.468209;stroke-linecap:round;stroke-linejoin:miter;stroke-miterlimit:4;stroke-dasharray:none;stroke-dashoffset:0;stroke-opacity:1;paint-order:stroke markers fill;color-rendering:auto;image-rendering:auto;shape-rendering:auto;text-rendering:auto;enable-background:accumulate;stop-color:#000000;stop-opacity:1"
       d="m 3.4136792,0.08453438 c -0.4511646,0 -0.8204987,0.37184471 -0.8204987,0.82298244 0,0.0170677 0.00401,0.0329903 0.00507,0.0498 L 1.4628848,1.6123271 C 1.3115494,1.4215471 1.0801789,1.2966396 0.81965446,1.2966396 0.36849026,1.2966396 0,1.6651078 0,2.1162454 c 0,0.4511377 0.36849026,0.8229823 0.81965446,0.8229823 0.26094944,0 0.49276284,-0.1260064 0.64407454,-0.3182198 l 1.1345165,0.6550094 c -0.00103,0.016727 -0.00507,0.032826 -0.00507,0.0498 0,0.4511375 0.3693342,0.8229816 0.8204987,0.8229816 0.451164,0 0.8196544,-0.3718441 0.8196544,-0.8229816 0,-0.4511378 -0.3684904,-0.8204504 -0.8196544,-0.8204504 -0.278345,0 -0.5243993,0.1410482 -0.6727752,0.3545156 L 1.6317116,2.219224 c 0.00441,-0.034185 0.010975,-0.067685 0.010975,-0.1029786 0,-0.034979 -0.0058,-0.068278 -0.010121,-0.1021334 L 2.7417482,1.3742953 c 0.1484909,0.2126172 0.3942436,0.3528273 0.671931,0.3528273 0.451164,0 0.8196542,-0.3684685 0.8196542,-0.81960578 0,-0.45113773 -0.3684902,-0.82298244 -0.8196542,-0.82298244 z m 0,0.39840769 c 0.2369743,0 0.4237552,0.18761401 0.4237552,0.42457475 0,0.23696028 -0.1867809,0.42373018 -0.4237552,0.42373018 -0.2369742,0 -0.4245996,-0.1867699 -0.4245996,-0.42373018 0,-0.23696074 0.1876254,-0.42457475 0.4245996,-0.42457475 z M 0.81965446,1.691671 c 0.23697434,0 0.42459954,0.1876139 0.42459954,0.4245744 0,0.2369605 -0.1876252,0.4245747 -0.42459954,0.4245747 -0.2369746,0 -0.4245996,-0.1876142 -0.4245996,-0.4245747 0,-0.2369605 0.187625,-0.4245744 0.4245996,-0.4245744 z M 3.4136792,2.901244 c 0.2369743,0 0.4237552,0.1876144 0.4237552,0.4245748 0,0.2369602 -0.1867809,0.4271064 -0.4237552,0.4271064 -0.2369742,0 -0.4245996,-0.1901462 -0.4245996,-0.4271064 0,-0.2369604 0.1876254,-0.4245748 0.4245996,-0.4245748 z" />
  </g>
</svg>
