<?xml version="1.0" encoding="UTF-8" standalone="no"?>
<svg
   xmlns:dc="http://purl.org/dc/elements/1.1/"
   xmlns:cc="http://creativecommons.org/ns#"
   xmlns:rdf="http://www.w3.org/1999/02/22-rdf-syntax-ns#"
   xmlns:svg="http://www.w3.org/2000/svg"
   xmlns="http://www.w3.org/2000/svg"
   xmlns:sodipodi="http://sodipodi.sourceforge.net/DTD/sodipodi-0.dtd"
   xmlns:inkscape="http://www.inkscape.org/namespaces/inkscape"
   sodipodi:docname="emblem-dropbox-infinite.svg"
   inkscape:version="1.0.2 (e86c870879, 2021-01-15)"
   id="svg8"
   version="1.1"
   viewBox="0 0 4.2333333 4.2333334"
   height="16"
   width="16">
  <defs
     id="defs2" />
  <sodipodi:namedview
     inkscape:window-maximized="1"
     inkscape:window-y="27"
     inkscape:window-x="1920"
     inkscape:window-height="1016"
     inkscape:window-width="1920"
     units="px"
     showgrid="false"
     inkscape:document-rotation="0"
     inkscape:current-layer="layer3"
     inkscape:document-units="px"
     inkscape:cy="9.1312604"
     inkscape:cx="9.6406115"
     inkscape:zoom="45.254834"
     inkscape:pageshadow="2"
     inkscape:pageopacity="0.0"
     borderopacity="1.0"
     bordercolor="#666666"
     pagecolor="#ffffff"
     id="base"
     inkscape:lockguides="false"
     inkscape:pagecheckerboard="true" />
  <metadata
     id="metadata5">
    <rdf:RDF>
      <cc:Work
         rdf:about="">
        <dc:format>image/svg+xml</dc:format>
        <dc:type
           rdf:resource="http://purl.org/dc/dcmitype/StillImage" />
        <dc:title />
      </cc:Work>
    </rdf:RDF>
  </metadata>
  <g
     inkscape:groupmode="layer"
     id="layer3"
     inkscape:label="Graphic"
     style="display:inline">
    <circle
       style="fill:#ffffff;fill-opacity:1;stroke-width:0.825867;stroke-linecap:round;stroke-miterlimit:1.6;paint-order:stroke markers fill"
       id="path835"
       cx="2.220446e-16"
       cy="2.9934185"
       r="1.8520833"
       transform="rotate(-45)" />
    <path
       style="color:#000000;font-style:normal;font-variant:normal;font-weight:normal;font-stretch:normal;font-size:medium;line-height:normal;font-family:sans-serif;-inkscape-font-specification:sans-serif;font-variant-ligatures:normal;font-variant-position:normal;font-variant-caps:normal;font-variant-numeric:normal;font-variant-alternates:normal;font-variant-east-asian:normal;font-feature-settings:normal;font-variation-settings:normal;text-indent:0;text-align:start;text-decoration:none;text-decoration-line:none;text-decoration-style:solid;text-decoration-color:#000000;letter-spacing:normal;word-spacing:normal;text-transform:none;writing-mode:lr-tb;direction:ltr;text-orientation:mixed;dominant-baseline:auto;baseline-shift:baseline;text-anchor:start;white-space:normal;shape-padding:0;shape-margin:0;inline-size:0;clip-rule:nonzero;display:inline;overflow:visible;visibility:visible;opacity:1;isolation:auto;mix-blend-mode:normal;color-interpolation:sRGB;color-interpolation-filters:linearRGB;solid-color:#000000;solid-opacity:1;vector-effect:none;fill:#4d4d4d;fill-opacity:1;fill-rule:nonzero;stroke:none;stroke-width:0.0499987;stroke-linecap:butt;stroke-linejoin:miter;stroke-miterlimit:4;stroke-dasharray:none;stroke-dashoffset:0;stroke-opacity:1;marker:none;color-rendering:auto;image-rendering:auto;shape-rendering:auto;text-rendering:auto;enable-background:accumulate;stop-color:#000000;stop-opacity:1"
       d="M 2.2110994,1.0839844 C 1.8576596,1.0843119 1.5592664,1.2938182 1.399792,1.5894402 l -0.00352,0.00547 -0.0084,0.00147 c -0.3379665,0.054996 -0.59490665,0.3548065 -0.59490665,0.7122865 0,0.395366 0.31292075,0.7263486 0.70349765,0.7263486 h 1.3816053 c 0.3116599,0 0.5606226,-0.2638724 0.5607279,-0.5768408 6.27e-4,-0.2080253 -0.1156631,-0.3939771 -0.2938402,-0.4950068 -0.0042,-0.00254 0,0 -0.0042,-0.00254 -0.00137,-0.00996 0,0 -0.00137,-0.00996 C 3.0865278,1.469246 2.6971383,1.084317 2.2118806,1.0839844 h -6.834e-4 z m 10e-5,0.2646417 h 1.95e-4 3.9e-4 c 0.3613452,3.02e-4 0.6550307,0.2981511 0.6721508,0.6776194 l 1e-4,0.00137 0.00684,0.1043918 0.095212,0.040819 2.95e-4,10e-5 c 0.1145914,0.048515 0.1882238,0.1602251 0.1877843,0.284658 v 1.95e-4 1.95e-4 c 0,0.1744752 -0.1339549,0.312492 -0.2960861,0.312492 H 1.4964692 c -0.2410341,0 -0.4388559,-0.2044511 -0.4388559,-0.4618046 0,-0.2457614 0.1827432,-0.4421985 0.4085833,-0.4586797 l 0.098142,-0.00693 0.042186,-0.089841 1.95e-4,-4.9e-4 C 1.7174834,1.5123606 1.9443778,1.3489546 2.2111971,1.3486261 Z"
       id="path2"
       sodipodi:nodetypes="scccsssccccccsscccccccccssssccccss" />
  </g>
</svg>
