<?xml version="1.0" encoding="UTF-8" standalone="no"?>
<svg
   xmlns:dc="http://purl.org/dc/elements/1.1/"
   xmlns:cc="http://creativecommons.org/ns#"
   xmlns:rdf="http://www.w3.org/1999/02/22-rdf-syntax-ns#"
   xmlns:svg="http://www.w3.org/2000/svg"
   xmlns="http://www.w3.org/2000/svg"
   xmlns:sodipodi="http://sodipodi.sourceforge.net/DTD/sodipodi-0.dtd"
   xmlns:inkscape="http://www.inkscape.org/namespaces/inkscape"
   sodipodi:docname="emblem-people.svg"
   inkscape:version="1.0.2 (e86c870879, 2021-01-15)"
   id="svg8"
   version="1.1"
   viewBox="0 0 4.2333333 4.2333334"
   height="16"
   width="16">
  <defs
     id="defs2" />
  <sodipodi:namedview
     inkscape:window-maximized="1"
     inkscape:window-y="27"
     inkscape:window-x="1920"
     inkscape:window-height="1016"
     inkscape:window-width="1920"
     units="px"
     showgrid="false"
     inkscape:document-rotation="0"
     inkscape:current-layer="layer3"
     inkscape:document-units="px"
     inkscape:cy="8.6490669"
     inkscape:cx="10.332162"
     inkscape:zoom="45.254834"
     inkscape:pageshadow="2"
     inkscape:pageopacity="0.0"
     borderopacity="1.0"
     bordercolor="#666666"
     pagecolor="#ffffff"
     id="base"
     inkscape:lockguides="false" />
  <metadata
     id="metadata5">
    <rdf:RDF>
      <cc:Work
         rdf:about="">
        <dc:format>image/svg+xml</dc:format>
        <dc:type
           rdf:resource="http://purl.org/dc/dcmitype/StillImage" />
        <dc:title />
      </cc:Work>
    </rdf:RDF>
  </metadata>
  <g
     inkscape:groupmode="layer"
     id="layer3"
     inkscape:label="Graphic"
     style="display:inline">
    <circle
       style="fill:#008fd4;fill-opacity:1;stroke-width:0.825867;stroke-linecap:round;stroke-miterlimit:1.6;paint-order:stroke markers fill"
       id="path835"
       cx="2.1166666"
       cy="2.1166666"
       r="1.8520833" />
    <g
       id="g882">
      <path
         id="path834"
         style="color:#000000;font-style:normal;font-variant:normal;font-weight:normal;font-stretch:normal;font-size:medium;line-height:normal;font-family:sans-serif;font-variant-ligatures:normal;font-variant-position:normal;font-variant-caps:normal;font-variant-numeric:normal;font-variant-alternates:normal;font-variant-east-asian:normal;font-feature-settings:normal;font-variation-settings:normal;text-indent:0;text-align:start;text-decoration:none;text-decoration-line:none;text-decoration-style:solid;text-decoration-color:#000000;letter-spacing:normal;word-spacing:normal;text-transform:none;writing-mode:lr-tb;direction:ltr;text-orientation:mixed;dominant-baseline:auto;baseline-shift:baseline;text-anchor:start;white-space:normal;shape-padding:0;shape-margin:0;inline-size:0;clip-rule:nonzero;display:inline;overflow:visible;visibility:visible;isolation:auto;mix-blend-mode:normal;color-interpolation:sRGB;color-interpolation-filters:linearRGB;solid-color:#000000;solid-opacity:1;vector-effect:none;fill:#ffffff;fill-opacity:1;fill-rule:nonzero;stroke:none;stroke-width:2.51924;stroke-linecap:round;stroke-linejoin:miter;stroke-miterlimit:4;stroke-dasharray:none;stroke-dashoffset:0;stroke-opacity:1;paint-order:stroke markers fill;color-rendering:auto;image-rendering:auto;shape-rendering:auto;text-rendering:auto;enable-background:accumulate;stop-color:#000000"
         d="M 5.4472656 2.9003906 C 4.3834348 2.9003906 3.5332031 3.8107119 3.5332031 4.9023438 C 3.5332031 5.9939748 4.3834348 6.9003906 5.4472656 6.9003906 C 5.6352167 6.9003906 5.8129679 6.8631549 5.984375 6.8105469 C 5.9710133 6.6941192 5.9453125 6.5809588 5.9453125 6.4609375 C 5.9453125 6.3424286 5.9679757 6.2290483 5.9804688 6.1132812 C 5.8168948 6.1941527 5.6386973 6.2460938 5.4472656 6.2460938 C 4.7545754 6.2460938 4.1835938 5.6589336 4.1835938 4.9023438 C 4.1835938 4.145753 4.7545754 3.5546875 5.4472656 3.5546875 C 5.9987475 3.5546875 6.4696464 3.932248 6.640625 4.4667969 C 6.7853728 4.2797112 6.9475699 4.1110913 7.1289062 3.9609375 C 6.8048264 3.3364592 6.1792517 2.9003906 5.4472656 2.9003906 z M 3.3808594 7.4335938 C 2.5986391 7.4335938 1.9492188 8.0830317 1.9492188 8.8652344 A 0.63642726 0.63641305 0 0 0 2.5859375 9.5019531 L 4.8066406 9.5019531 C 5.1520598 9.1801119 5.5855584 8.9528683 6.0664062 8.8652344 L 2.5859375 8.8652344 C 2.5859375 8.4245619 2.9401765 8.0703125 3.3808594 8.0703125 L 6.4121094 8.0703125 C 6.2918227 7.8697929 6.19381 7.658455 6.1191406 7.4335938 L 3.3808594 7.4335938 z "
         transform="scale(0.26458333)" />
      <path
         id="path837"
         style="color:#000000;font-style:normal;font-variant:normal;font-weight:normal;font-stretch:normal;font-size:medium;line-height:normal;font-family:sans-serif;font-variant-ligatures:normal;font-variant-position:normal;font-variant-caps:normal;font-variant-numeric:normal;font-variant-alternates:normal;font-variant-east-asian:normal;font-feature-settings:normal;font-variation-settings:normal;text-indent:0;text-align:start;text-decoration:none;text-decoration-line:none;text-decoration-style:solid;text-decoration-color:#000000;letter-spacing:normal;word-spacing:normal;text-transform:none;writing-mode:lr-tb;direction:ltr;text-orientation:mixed;dominant-baseline:auto;baseline-shift:baseline;text-anchor:start;white-space:normal;shape-padding:0;shape-margin:0;inline-size:0;clip-rule:nonzero;display:inline;overflow:visible;visibility:visible;isolation:auto;mix-blend-mode:normal;color-interpolation:sRGB;color-interpolation-filters:linearRGB;solid-color:#000000;solid-opacity:1;vector-effect:none;fill:#ffffff;fill-opacity:1;fill-rule:nonzero;stroke:none;stroke-width:3.09507;stroke-linecap:round;stroke-linejoin:miter;stroke-miterlimit:4;stroke-dasharray:none;stroke-dashoffset:0;stroke-opacity:1;paint-order:stroke markers fill;color-rendering:auto;image-rendering:auto;shape-rendering:auto;text-rendering:auto;enable-background:accumulate;stop-color:#000000"
         d="M 9.046875 4 C 7.739883 4 6.6953125 5.1197899 6.6953125 6.4609375 C 6.6953125 7.8020843 7.739883 8.9140625 9.046875 8.9140625 C 10.353867 8.9140625 11.404297 7.8020843 11.404297 6.4609375 C 11.404297 5.1197899 10.353867 4 9.046875 4 z M 9.046875 4.8046875 C 9.8978938 4.8046875 10.601562 5.5314122 10.601562 6.4609375 C 10.601562 7.3904624 9.8978938 8.109375 9.046875 8.109375 C 8.1958558 8.109375 7.4941406 7.3904624 7.4941406 6.4609375 C 7.4941406 5.5314122 8.1958558 4.8046875 9.046875 4.8046875 z M 6.5097656 9.5703125 C 5.5487523 9.5703125 4.75 10.367133 4.75 11.328125 A 0.78189637 0.78187891 0 0 0 5.53125 12.109375 L 12.568359 12.109375 A 0.78189637 0.78187891 0 0 0 13.349609 11.328125 C 13.349609 10.367133 12.55281 9.5703125 11.591797 9.5703125 L 6.5097656 9.5703125 z M 6.5097656 10.351562 L 11.591797 10.351562 C 12.133206 10.351562 12.568359 10.786727 12.568359 11.328125 L 5.53125 11.328125 C 5.53125 10.786727 5.9683555 10.351562 6.5097656 10.351562 z "
         transform="scale(0.26458333)" />
    </g>
  </g>
</svg>
