<?xml version="1.0" encoding="UTF-8" standalone="no"?>
<svg
   width="16"
   height="16"
   viewBox="0 0 4.2333333 4.2333334"
   version="1.1"
   id="svg8"
   sodipodi:docname="drive-harddisk-solidstate-symbolic.svg"
   inkscape:version="1.4 (e7c3feb100, 2024-10-09)"
   xmlns:inkscape="http://www.inkscape.org/namespaces/inkscape"
   xmlns:sodipodi="http://sodipodi.sourceforge.net/DTD/sodipodi-0.dtd"
   xmlns="http://www.w3.org/2000/svg"
   xmlns:svg="http://www.w3.org/2000/svg">
  <defs
     id="defs2" />
  <sodipodi:namedview
     id="base"
     pagecolor="#ffffff"
     bordercolor="#666666"
     borderopacity="1.0"
     inkscape:pageopacity="0.0"
     inkscape:pageshadow="2"
     inkscape:zoom="32"
     inkscape:cx="7.90625"
     inkscape:cy="10.125"
     inkscape:document-units="px"
     inkscape:current-layer="layer3"
     inkscape:document-rotation="0"
     showgrid="false"
     inkscape:window-width="1920"
     inkscape:window-height="1043"
     inkscape:window-x="0"
     inkscape:window-y="0"
     inkscape:window-maximized="1"
     units="px"
     inkscape:pagecheckerboard="0"
     width="16px"
     inkscape:showpageshadow="2"
     inkscape:deskcolor="#d1d1d1" />
  <g
     inkscape:groupmode="layer"
     id="layer3"
     inkscape:label="Graphic">
    <path
       style="stroke-width:0.999985;stroke-linecap:round;stroke-linejoin:round"
       d="M 1.132664,0 C 0.8006024,0 0.52929688,0.27143073 0.52929687,0.60364559 V 3.6296878 c 0,0.3322148 0.27130553,0.6036455 0.60336713,0.6036455 h 1.9663131 c 0.3320616,0 0.6053198,-0.2714307 0.6053198,-0.6036455 V 0.60364559 C 3.7042969,0.27143073 3.4310387,0 3.0989771,0 Z m 0,0.26372866 h 1.9663131 c 0.1900941,0 0.3397601,0.14973507 0.3397601,0.33991693 V 3.6296878 c 0,0.1901818 -0.149666,0.3399169 -0.3397601,0.3399169 H 1.132664 c -0.1900941,0 -0.33976011,-0.1497351 -0.33976011,-0.3399169 V 0.60364559 c 0,-0.19018186 0.14966601,-0.33991693 0.33976011,-0.33991693 z"
       id="rect11" />
    <path
       id="rect12"
       style="fill:#000000;stroke-width:0.732349;stroke-linecap:round;stroke-linejoin:round"
       d="m 1.5683797,1.3229167 c -0.1360368,0 -0.245463,0.1094262 -0.245463,0.245463 V 1.5875 H 1.1244792 c -0.036616,2.4e-6 -0.066146,0.036908 -0.066146,0.082682 v 0.099219 c 0,0.045771 0.02953,0.082682 0.066146,0.082682 H 1.3229167 V 2.1166667 H 1.1244792 c -0.036616,2.4e-6 -0.066146,0.036908 -0.066146,0.082682 v 0.099219 c 0,0.045771 0.02953,0.082682 0.066146,0.082682 H 1.3229167 V 2.6458333 H 1.1244792 c -0.036616,2.4e-6 -0.066146,0.036908 -0.066146,0.082682 v 0.099219 c 0,0.045771 0.02953,0.082682 0.066146,0.082682 h 0.1984375 v 0.01912 c 0,0.1360368 0.1094262,0.245463 0.245463,0.245463 h 1.0965739 c 0.1360369,0 0.2454631,-0.1094262 0.2454631,-0.245463 v -0.01912 h 0.1984375 c 0.036616,0 0.066146,-0.036911 0.066146,-0.082682 v -0.099219 c 0,-0.045774 -0.02953,-0.08268 -0.066146,-0.082682 H 2.9104167 V 2.38125 h 0.1984375 c 0.036616,0 0.066146,-0.036911 0.066146,-0.082682 V 2.199349 c 0,-0.045774 -0.02953,-0.08268 -0.066146,-0.082682 H 2.9104167 V 1.8520833 h 0.1984375 c 0.036616,0 0.066146,-0.036911 0.066146,-0.082682 v -0.099219 c 0,-0.045774 -0.02953,-0.08268 -0.066146,-0.082682 H 2.9104167 v -0.01912 c 0,-0.1360368 -0.1094262,-0.245463 -0.2454631,-0.245463 z" />
  </g>
</svg>
