<?xml version="1.0" encoding="UTF-8" standalone="no"?>
<svg
   xmlns:osb="http://www.openswatchbook.org/uri/2009/osb"
   xmlns:dc="http://purl.org/dc/elements/1.1/"
   xmlns:cc="http://creativecommons.org/ns#"
   xmlns:rdf="http://www.w3.org/1999/02/22-rdf-syntax-ns#"
   xmlns:svg="http://www.w3.org/2000/svg"
   xmlns="http://www.w3.org/2000/svg"
   xmlns:sodipodi="http://sodipodi.sourceforge.net/DTD/sodipodi-0.dtd"
   xmlns:inkscape="http://www.inkscape.org/namespaces/inkscape"
   sodipodi:docname="chromium.svg"
   inkscape:version="1.0.1 (3bc2e813f5, 2020-09-07)"
   id="svg4705"
   version="1.1"
   viewBox="0 0 67.733332 67.733332"
   height="256"
   width="256">
  <defs
     id="defs4699">
    <linearGradient
       id="linearGradient3270"
       osb:paint="solid">
      <stop
         style="stop-color:#000000;stop-opacity:1;"
         offset="0"
         id="stop3268" />
    </linearGradient>
  </defs>
  <sodipodi:namedview
     units="px"
     inkscape:document-rotation="0"
     inkscape:window-maximized="1"
     inkscape:window-y="27"
     inkscape:window-x="2004"
     inkscape:window-height="1016"
     inkscape:window-width="1836"
     fit-margin-bottom="0"
     fit-margin-right="0"
     fit-margin-left="0"
     fit-margin-top="0"
     showgrid="false"
     inkscape:current-layer="layer5"
     inkscape:document-units="px"
     inkscape:cy="146.45836"
     inkscape:cx="116.16179"
     inkscape:zoom="2.0000001"
     inkscape:pageshadow="2"
     inkscape:pageopacity="0.0"
     borderopacity="1.0"
     bordercolor="#666666"
     pagecolor="#ffffff"
     id="base" />
  <metadata
     id="metadata4702">
    <rdf:RDF>
      <cc:Work
         rdf:about="">
        <dc:format>image/svg+xml</dc:format>
        <dc:type
           rdf:resource="http://purl.org/dc/dcmitype/StillImage" />
        <dc:title />
      </cc:Work>
    </rdf:RDF>
  </metadata>
  <g
     style="display:inline;opacity:0.4"
     inkscape:label="Shadow"
     id="layer4"
     inkscape:groupmode="layer">
    <circle
       style="display:inline;fill:#000000;fill-opacity:1;stroke-width:5.60201;paint-order:stroke fill markers"
       id="circle904"
       cx="33.866665"
       cy="34.924999"
       r="31.75" />
  </g>
  <g
     inkscape:groupmode="layer"
     id="layer5"
     inkscape:label="Colour"
     style="display:inline">
    <g
       id="g878">
      <path
         id="path1043"
         style="display:inline;fill:#a2c3fa;fill-opacity:1;stroke-width:4.28572"
         d="M 117.45312,49.728516 128.00195,68 h 103.74219 a 119.99849,119.99927 0 0 0 -6.51172,-10.078125 119.99849,119.99927 0 0 0 -6.47656,-8.193359 z M 128.00195,68 h -0.19336 c 0.0191,0 0.0314,0.01444 0.0488,0.01953 0.0493,-0.0057 0.0951,-0.014 0.14453,-0.01953 z m 0.13282,0.002 c -0.13282,0 19.04539,8.553023 27.13671,13.224609 9.17659,5.298211 14.69956,16.645403 18.01563,29.134771 h 73.36328 A 119.99849,119.99927 0 0 0 231.74414,68.001953 Z"
         transform="scale(0.26458333)" />
      <g
         id="g864">
        <path
           style="display:inline;opacity:1;fill:#669cf6;fill-opacity:1;stroke-width:1.13393"
           d="m 7.4459714,16.295423 c -0.54627,0.82997 -1.051542,1.71942 -1.563561,2.60004 a 31.7496,31.749804 0 0 0 -3.76495,14.97131 31.7496,31.749804 0 0 0 31.7495966,31.7498 31.7496,31.749804 0 0 0 0.48723,-0.0176 l 15.033222,-24.99957 c -1.20426,1.96157 -6.22156,4.47327 -8.362618,5.70947 -6.851108,3.95557 -15.551325,1.39877 -19.50687,-5.45257 z"
           id="path976-3" />
        <path
           style="fill:#4172d9;fill-opacity:1;stroke-width:1.13393"
           d="m 33.853755,2.1170603 a 31.749599,31.749805 0 0 0 -0.54924,0.017572 31.749599,31.749805 0 0 0 -1.683153,0.062015 31.749599,31.749805 0 0 0 -0.09304,0.013286 31.749599,31.749805 0 0 0 -2.870223,0.3454735 c -0.09716,0.015857 -0.195342,0.027857 -0.292328,0.044315 -0.006,0.00102 -0.012,0.00338 -0.01757,0.00429 A 31.749599,31.749805 0 0 0 25.376083,3.2728555 31.749599,31.749805 0 0 0 19.467325,5.5717045 31.749599,31.749805 0 0 0 18.763059,5.9747782 31.749599,31.749805 0 0 0 6.3874463,18.013835 l 12.9027077,22.350656 0.270171,0.540389 0.06643,0.03986 0.606822,1.054193 5.567696,4.473677 1.545843,-0.659978 1.771739,1.116204 C 28.909197,46.542431 28.699069,45.966097 28.494319,45.320961 L 38.907727,40.869437 28.131114,22.199592 c 0.98585,-2.274322 2.709649,-3.869281 5.736013,-4.20791 h 27.448698 a 31.749599,31.749805 0 0 0 -1.723018,-2.666488 31.749599,31.749805 0 0 0 -1.94006,-2.427302 31.749599,31.749805 0 0 0 -0.08417,-0.09746 31.749599,31.749805 0 0 0 -2.059644,-2.112814 31.749599,31.749805 0 0 0 -0.217028,-0.19933 A 31.749599,31.749805 0 0 0 53.117093,8.6678166 31.749599,31.749805 0 0 0 52.811479,8.437501 31.749599,31.749805 0 0 0 50.565796,6.909365 31.749599,31.749805 0 0 0 50.131722,6.6436064 31.749599,31.749805 0 0 0 47.872749,5.4122364 31.749599,31.749805 0 0 0 47.230493,5.1066204 31.749599,31.749805 0 0 0 45.060114,4.1985966 31.749599,31.749805 0 0 0 44.222965,3.8885233 31.749599,31.749805 0 0 0 42.132309,3.2506897 31.749599,31.749805 0 0 0 41.082554,2.9805167 31.749599,31.749805 0 0 0 39.129208,2.5907287 31.749599,31.749805 0 0 0 37.884561,2.4046848 31.749599,31.749805 0 0 0 36.103959,2.2275123 a 31.749599,31.749805 0 0 0 -2.23682,-0.1107435 31.749599,31.749805 0 0 0 -0.01329,0 z"
           id="path980" />
        <a
           id="a854"
           style="display:inline;opacity:1;fill:#a2c3fa;fill-opacity:1"
           transform="translate(-52.193711,-87.760997)">
          <path
             style="display:inline;fill:#a2c3fa;fill-opacity:1;stroke-width:1.13393"
             d="m 86.096204,105.75287 c -0.03514,0 5.039151,2.26319 7.179979,3.49921 5.470993,3.15874 6.042017,14.44017 6.054921,19.00647 -0.0977,1.33851 0.274248,1.62273 -0.372052,2.75952 l -12.898271,22.3418 c 0.08417,0.002 0.168429,0.009 0.252471,0.009 0.438796,-0.007 0.877395,-0.0234 1.315516,-0.0487 0.254315,-0.012 0.508191,-0.0133 0.761855,-0.0309 1.000305,-0.0738 1.996548,-0.19506 2.985378,-0.36322 0.06519,-0.0107 0.12977,-0.024 0.194913,-0.0356 15.173226,-2.67389 26.236836,-15.85543 26.239476,-31.26256 -0.0144,-5.57755 -1.49777,-11.0529 -4.3009,-15.8749 z"
             id="path978-6"
             sodipodi:nodetypes="ccccccccccccc" />
        </a>
      </g>
      <a
         id="a1053"
         transform="matrix(1.0166666,0,0,1.0166666,-0.56444178,-0.56444262)">
        <g
           id="g940"
           style="display:inline">
          <circle
             style="display:inline;opacity:1;fill:#ffffff;fill-opacity:1;stroke-width:0.764378;paint-order:stroke fill markers"
             id="path1122"
             cx="33.866665"
             cy="33.866665"
             r="15.875" />
          <g
             id="g1145"
             style="display:inline">
            <circle
               style="display:inline;opacity:1;fill:#ffffff;stroke-width:1.58493;paint-order:stroke fill markers"
               id="circle1141"
               cx="33.866665"
               cy="33.866665"
               r="14.287499" />
            <circle
               style="display:inline;opacity:1;fill:#4285f4;fill-opacity:1;stroke-width:1.2565;paint-order:stroke fill markers"
               id="circle1143"
               cx="33.866665"
               cy="33.866665"
               r="11.377083" />
          </g>
        </g>
      </a>
    </g>
  </g>
  <g
     style="display:inline;opacity:0.1"
     inkscape:label="Highlight"
     id="layer3"
     inkscape:groupmode="layer">
    <path
       d="M 33.866642,2.1166667 A 31.749976,31.75 0 0 0 2.1166666,33.866667 31.749976,31.75 0 0 0 2.1213166,34.384464 31.749976,31.75 0 0 1 33.866641,3.175 31.749976,31.75 0 0 1 65.611965,34.407202 31.749976,31.75 0 0 0 65.616665,33.866667 31.749976,31.75 0 0 0 33.866689,2.1166667 Z"
       style="display:inline;fill:#ffffff;fill-opacity:1;stroke-width:5.60202;paint-order:stroke fill markers"
       id="circle908" />
  </g>
</svg>
