<?xml version="1.0" encoding="UTF-8" standalone="no"?>
<svg
   xmlns:dc="http://purl.org/dc/elements/1.1/"
   xmlns:cc="http://creativecommons.org/ns#"
   xmlns:rdf="http://www.w3.org/1999/02/22-rdf-syntax-ns#"
   xmlns:svg="http://www.w3.org/2000/svg"
   xmlns="http://www.w3.org/2000/svg"
   xmlns:sodipodi="http://sodipodi.sourceforge.net/DTD/sodipodi-0.dtd"
   xmlns:inkscape="http://www.inkscape.org/namespaces/inkscape"
   width="256"
   height="256"
   viewBox="0 0 67.733331 67.733331"
   version="1.1"
   id="svg8"
   inkscape:version="1.0 (4035a4fb49, 2020-05-01)"
   sodipodi:docname="com.obsproject.Studio.svg">
  <defs
     id="defs2" />
  <sodipodi:namedview
     id="base"
     pagecolor="#ffffff"
     bordercolor="#666666"
     borderopacity="1.0"
     inkscape:pageopacity="0.0"
     inkscape:pageshadow="2"
     inkscape:zoom="1.979899"
     inkscape:cx="137.0817"
     inkscape:cy="119.04458"
     inkscape:document-units="px"
     inkscape:current-layer="layer10"
     inkscape:document-rotation="0"
     showgrid="false"
     units="px"
     inkscape:window-width="1836"
     inkscape:window-height="1016"
     inkscape:window-x="2004"
     inkscape:window-y="27"
     inkscape:window-maximized="1" />
  <metadata
     id="metadata5">
    <rdf:RDF>
      <cc:Work
         rdf:about="">
        <dc:format>image/svg+xml</dc:format>
        <dc:type
           rdf:resource="http://purl.org/dc/dcmitype/StillImage" />
        <dc:title />
      </cc:Work>
    </rdf:RDF>
  </metadata>
  <g
     style="display:inline"
     inkscape:label="Background"
     id="layer10"
     inkscape:groupmode="layer">
    <g
       style="display:inline"
       inkscape:label="Shadow"
       id="layer13"
       inkscape:groupmode="layer">
      <circle
         style="display:inline;opacity:0.4;fill:#000000;fill-opacity:1;stroke-width:1.5875;paint-order:stroke fill markers"
         id="circle1383"
         cx="33.866665"
         cy="34.924999"
         r="29.633333" />
    </g>
    <circle
       r="29.633333"
       cy="33.866665"
       cx="33.866665"
       id="path1327"
       style="display:inline;opacity:1;fill:#333333;fill-opacity:1;stroke-width:1.5875;paint-order:stroke fill markers" />
  </g>
  <g
     style="display:inline"
     inkscape:label="Icon"
     id="layer7"
     inkscape:groupmode="layer">
    <g
       style="display:inline"
       inkscape:label="Shadow"
       id="layer12"
       inkscape:groupmode="layer">
      <path
         id="path1367"
         style="display:inline;opacity:0.4;fill:#000000;stroke-width:3.38548;paint-order:stroke fill markers"
         d="m 33.866665,14.667838 a 9.0807961,9.0807961 0 0 1 0.130225,10e-4 10.914417,10.914417 0 0 0 -0.130225,-10e-4 z m 0.130225,10e-4 a 9.0807961,9.0807961 0 0 1 0.680577,0.03514 9.0926018,10.074161 0 0 1 0.0047,-0.0057 10.914417,10.914417 0 0 0 -0.685228,-0.02946 z m -0.234611,-5.29e-4 a 10.914417,10.914417 0 0 0 -0.08268,0.0016 9.0807961,9.0807961 0 0 1 0.08268,-0.0016 z m -0.08268,0.0016 a 10.914417,10.914417 0 0 0 -10.727511,10.912512 10.914417,10.914417 0 0 0 1.708423,5.862692 9.0807956,9.0807946 0 0 1 8.607743,9.068178 9.0807956,9.0807946 0 0 1 -9.080582,9.080584 9.0807956,9.0807946 0 0 1 -7.225399,-3.580661 10.058408,13.022118 0 0 1 -0.02274,-0.0098 10.914417,10.914417 0 0 0 8.836153,4.507219 10.914417,10.914417 0 0 0 9.680029,-5.873028 9.0807959,9.0807959 0 0 1 -0.990637,-4.124295 9.0807959,9.0807959 0 0 1 9.080582,-9.081098 9.0807959,9.0807959 0 0 1 9.080581,9.081098 9.0807959,9.0807959 0 0 1 -0.992187,4.127915 9.5085086,10.791339 0 0 1 5.29e-4,0.0036 10.914417,10.914417 0 0 0 1.23765,-5.048271 10.914417,10.914417 0 0 0 -10.914578,-10.914578 10.914417,10.914417 0 0 0 -0.473874,0.01035 9.0807961,9.0807961 0 0 1 -7.617116,4.137197 9.0807961,9.0807961 0 0 1 -9.080582,-9.0811 9.0807961,9.0807961 0 0 1 8.893514,-9.078515 z" />
      <path
         id="path1370"
         style="display:inline;opacity:0.4;fill:#000000;stroke-width:2.97002;paint-order:stroke fill markers"
         d="M 33.866666,11.773959 A 23.151041,23.151041 0 0 0 10.715625,34.925 23.151041,23.151041 0 0 0 33.866666,58.076041 23.151041,23.151041 0 0 0 57.017707,34.925 23.151041,23.151041 0 0 0 33.866666,11.773959 Z m 0,2.89388 A 20.257161,20.257161 0 0 1 54.123827,34.925 20.257161,20.257161 0 0 1 33.866666,55.182161 20.257161,20.257161 0 0 1 13.609505,34.925 20.257161,20.257161 0 0 1 33.866666,14.667839 Z" />
    </g>
    <g
       style="display:inline"
       inkscape:label="Logo"
       id="layer6"
       inkscape:groupmode="layer">
      <path
         transform="scale(0.26458332)"
         d="m 128,51.4375 a 34.321121,34.321121 0 0 1 0.49219,0.0039 A 41.251342,41.251342 0 0 0 128,51.4375 Z m 0.49219,0.0039 a 34.321121,34.321121 0 0 1 2.57226,0.132813 34.365741,38.075571 0 0 1 0.0176,-0.02148 41.251342,41.251342 0 0 0 -2.58984,-0.111328 z m -0.88672,-0.002 a 41.251342,41.251342 0 0 0 -0.3125,0.0059 34.321121,34.321121 0 0 1 0.3125,-0.0059 z m -0.3125,0.0059 a 41.251342,41.251342 0 0 0 -40.544923,41.244141 41.251342,41.251342 0 0 0 6.457031,22.158209 34.321119,34.321115 0 0 1 32.533202,34.27343 34.321119,34.321115 0 0 1 -34.320311,34.32032 34.321119,34.321115 0 0 1 -27.308594,-13.53321 38.016032,49.217456 0 0 1 -0.08594,-0.0371 41.251342,41.251342 0 0 0 33.396484,17.03516 41.251342,41.251342 0 0 0 36.585941,-22.19727 34.32112,34.32112 0 0 1 -3.74414,-15.58789 34.32112,34.32112 0 0 1 34.32031,-34.32226 34.32112,34.32112 0 0 1 34.32031,34.32226 34.32112,34.32112 0 0 1 -3.75,15.60157 35.937672,40.786165 0 0 1 0.002,0.0137 41.251342,41.251342 0 0 0 4.67773,-19.08008 41.251342,41.251342 0 0 0 -41.25195,-41.25195 41.251342,41.251342 0 0 0 -1.79102,0.0391 A 34.321121,34.321121 0 0 1 128,120.08008 34.321121,34.321121 0 0 1 93.679688,85.757812 34.321121,34.321121 0 0 1 127.29297,51.445312 Z"
         style="display:inline;fill:#ffffff;stroke-width:12.7955;paint-order:stroke fill markers"
         id="path1231" />
      <path
         d="M 33.866666,10.715625 A 23.151041,23.151041 0 0 0 10.715625,33.866666 23.151041,23.151041 0 0 0 33.866666,57.017707 23.151041,23.151041 0 0 0 57.017707,33.866666 23.151041,23.151041 0 0 0 33.866666,10.715625 Z m 0,2.89388 A 20.257161,20.257161 0 0 1 54.123827,33.866666 20.257161,20.257161 0 0 1 33.866666,54.123827 20.257161,20.257161 0 0 1 13.609505,33.866666 20.257161,20.257161 0 0 1 33.866666,13.609505 Z"
         style="display:inline;fill:#ffffff;stroke-width:2.97002;paint-order:stroke fill markers"
         id="path830" />
    </g>
  </g>
</svg>
