<?xml version="1.0" encoding="UTF-8" standalone="no"?>
<svg
   xmlns:dc="http://purl.org/dc/elements/1.1/"
   xmlns:cc="http://creativecommons.org/ns#"
   xmlns:rdf="http://www.w3.org/1999/02/22-rdf-syntax-ns#"
   xmlns:svg="http://www.w3.org/2000/svg"
   xmlns="http://www.w3.org/2000/svg"
   xmlns:xlink="http://www.w3.org/1999/xlink"
   xmlns:sodipodi="http://sodipodi.sourceforge.net/DTD/sodipodi-0.dtd"
   xmlns:inkscape="http://www.inkscape.org/namespaces/inkscape"
   sodipodi:docname="com.github.maoschanz.drawing.svg"
   inkscape:version="1.0.2 (e86c870879, 2021-01-15)"
   id="svg8"
   version="1.1"
   viewBox="0 0 67.733332 67.733335"
   height="256"
   width="256">
  <defs
     id="defs2">
    <linearGradient
       inkscape:collect="always"
       id="linearGradient1012">
      <stop
         style="stop-color:#000000;stop-opacity:0.5"
         offset="0"
         id="stop1008" />
      <stop
         style="stop-color:#000000;stop-opacity:1"
         offset="1"
         id="stop1010" />
    </linearGradient>
    <linearGradient
       inkscape:collect="always"
       xlink:href="#linearGradient1012"
       id="linearGradient1014"
       x1="199.96602"
       y1="191.89037"
       x2="237.71739"
       y2="229.64174"
       gradientUnits="userSpaceOnUse"
       gradientTransform="scale(0.26458333)" />
  </defs>
  <sodipodi:namedview
     inkscape:window-maximized="1"
     inkscape:window-y="27"
     inkscape:window-x="1920"
     inkscape:window-height="1016"
     inkscape:window-width="1920"
     units="px"
     showgrid="false"
     inkscape:document-rotation="0"
     inkscape:current-layer="g1174"
     inkscape:document-units="px"
     inkscape:cy="154.05004"
     inkscape:cx="147.78612"
     inkscape:zoom="2"
     inkscape:pageshadow="2"
     inkscape:pageopacity="0.0"
     borderopacity="1.0"
     bordercolor="#666666"
     pagecolor="#ffffff"
     id="base"
     inkscape:pagecheckerboard="true" />
  <metadata
     id="metadata5">
    <rdf:RDF>
      <cc:Work
         rdf:about="">
        <dc:format>image/svg+xml</dc:format>
        <dc:type
           rdf:resource="http://purl.org/dc/dcmitype/StillImage" />
        <dc:title />
      </cc:Work>
    </rdf:RDF>
  </metadata>
  <g
     inkscape:groupmode="layer"
     id="layer1"
     inkscape:label="Background"
     style="display:inline">
    <g
       inkscape:label="Shadow"
       id="layer10"
       inkscape:groupmode="layer"
       style="display:inline;opacity:0.4">
      <path
         id="path1156"
         style="display:inline;fill:#000000;fill-opacity:1;stroke-width:0.0246944;stroke-miterlimit:4;stroke-dasharray:none;paint-order:stroke fill markers"
         d="m 9.2257934,15.875001 c -2.7655985,0 -4.9924601,2.22686 -4.9924601,4.99246 v 11.940873 12.7 11.940873 c 0,2.7656 2.2268616,4.99246 4.9924601,4.99246 H 58.507539 c 2.7656,0 4.99246,-2.22686 4.99246,-4.99246 v -11.940873 -12.7 -11.940873 c 0,-2.7656 -2.22686,-4.99246 -4.99246,-4.99246 z" />
    </g>
    <g
       style="display:inline"
       inkscape:label="Colour"
       id="g1174"
       inkscape:groupmode="layer">
      <g
         id="g887">
        <path
           id="rect1168"
           style="display:inline;fill:#f9f9f9;fill-opacity:1;stroke-width:0.0246944;stroke-miterlimit:4;stroke-dasharray:none;paint-order:stroke fill markers"
           d="m 4.2333333,25.4 v 6.35 12.699999 11.940874 c 0,2.765599 2.2268616,4.99246 4.9924601,4.99246 H 58.507539 c 2.7656,0 4.99246,-2.226861 4.99246,-4.99246 V 44.449999 31.75 25.4 Z" />
        <g
           id="g1023">
          <path
             id="path839"
             style="display:inline;fill:#333333;fill-opacity:1;stroke-width:0.0933332;stroke-miterlimit:4;stroke-dasharray:none;paint-order:stroke fill markers"
             d="M 34.869141,56 C 24.416485,56 16,64.416479 16,74.869141 V 96 H 240 V 74.869141 C 240,64.416479 231.58352,56 221.13086,56 Z"
             transform="scale(0.26458333)" />
          <rect
             style="opacity:1;fill:#1a1a1a;stroke:none;stroke-width:6.17227;stroke-linecap:round;stroke-linejoin:round;stroke-miterlimit:4;stroke-dasharray:none;stroke-opacity:1"
             id="rect846"
             width="59.266666"
             height="1.984375"
             x="4.2333331"
             y="23.415625" />
        </g>
        <g
           id="g876">
          <path
             id="path977"
             style="display:inline;opacity:0.2;fill:#000000;fill-opacity:1;stroke-width:0.0246944;stroke-miterlimit:4;stroke-dasharray:none;paint-order:stroke fill markers"
             d="m 63.499999,50.799999 -5.291666,5.291151 -5.291667,5.292183 h 0.529167 l 4.7625,-4.763016 0.264583,-0.264584 0.264583,-0.264583 4.7625,-4.761984 z" />
          <path
             style="display:inline;opacity:0.2;fill:url(#linearGradient1014);fill-opacity:1;stroke-width:0.02460625;stroke-miterlimit:4;stroke-dasharray:none;paint-order:stroke fill markers"
             d="m 57.776834,50.667708 c -2.765599,0 -4.99246,2.22686 -4.99246,4.99246 v 0.529166 5.061707 0.132292 h 0.132292 v -5.590874 c 0,-2.765599 2.22686,-4.99246 4.99246,-4.99246 h 5.590873 v -0.132291 h -0.132291 -4.929415 z"
             id="path988" />
          <path
             id="path968"
             style="display:inline;fill:#ffffff;fill-opacity:1;stroke-width:0.02460625;stroke-miterlimit:4;stroke-dasharray:none;paint-order:stroke fill markers"
             d="m 52.916666,61.383333 5.291667,-5.292183 5.291666,-5.291151 h -5.590873 c -2.7656,0 -4.99246,2.226861 -4.99246,4.99246 z" />
        </g>
      </g>
    </g>
    <g
       inkscape:groupmode="layer"
       id="layer2"
       inkscape:label="Highlight"
       style="display:inline;opacity:0.1">
      <path
         id="path1159"
         style="display:inline;fill:#ffffff;fill-opacity:1;stroke-width:0.0246944;stroke-miterlimit:4;stroke-dasharray:none;paint-order:stroke fill markers"
         d="m 9.2257934,14.816667 c -2.7655985,0 -4.9924601,2.22686 -4.9924601,4.99246 v 1.058333 c 0,-2.7656 2.2268616,-4.99246 4.9924601,-4.99246 H 58.507539 c 2.7656,0 4.99246,2.22686 4.99246,4.99246 v -1.058333 c 0,-2.7656 -2.22686,-4.99246 -4.99246,-4.99246 z" />
    </g>
  </g>
  <g
     inkscape:label="Graphic"
     id="g1156"
     inkscape:groupmode="layer"
     style="display:inline">
    <path
       style="fill:none;stroke:#ff3636;stroke-width:2.64583334;stroke-linecap:round;stroke-linejoin:round;stroke-miterlimit:4;stroke-dasharray:none;stroke-opacity:1"
       d="m 9.1545832,33.036384 c 3.9668088,1.331296 8.2913818,1.535464 7.5517738,5.762192 -0.406709,2.324273 -4.629956,4.217404 -3.219549,7.041175 1.169998,2.342448 5.250347,1.284103 8.015909,2.530948 4.246357,1.914457 2.966923,8.486399 2.966923,8.486399"
       id="path844"
       sodipodi:nodetypes="csssc" />
    <g
       id="g1143">
      <path
         id="rect1093"
         style="opacity:0.4;fill:#000000;fill-opacity:1;stroke:none;stroke-width:13.0029;stroke-linecap:round;stroke-linejoin:round;stroke-miterlimit:4;stroke-dasharray:none;stroke-opacity:1"
         d="M 204.11719 115.88672 C 203.1434 115.80687 202.13939 116.10017 201.33203 116.78516 L 193.65039 123.30273 L 186.08008 129.72656 L 131.07422 176.39453 L 123.50586 182.81641 L 106.23438 197.46875 C 105.13023 198.40554 104.70718 199.82407 104.97656 201.14453 A 4.0003389 4.6327291 49.68773 0 0 104.88281 201.23242 A 4.0003389 4.6327287 49.687731 0 0 104.82031 201.29297 A 4.0003389 4.6327291 49.68773 0 0 104.78516 201.32617 A 4.0003389 4.6327287 49.687731 0 0 104.68555 201.42969 A 4.0003389 4.6327291 49.68773 0 0 104.68164 201.43359 A 4.0003389 4.6327287 49.687731 0 0 104.58203 201.54102 A 4.0003389 4.6327291 49.68773 0 0 104.45898 201.68359 A 4.0003389 4.6327291 49.68773 0 0 104.34375 201.82812 A 4.0003389 4.6327291 49.68773 0 0 104.23242 201.97656 A 4.0003389 4.6327291 49.68773 0 0 104.15234 202.0918 A 4.0003389 4.6327287 49.687731 0 0 104.12695 202.12891 A 4.0003389 4.6327291 49.68773 0 0 104.10547 202.16211 A 4.0003389 4.6327287 49.687731 0 0 104.05469 202.24023 A 4.0003389 4.6327291 49.68773 0 0 103.68945 202.93359 L 99.898438 211.76367 L 96.115234 220.59961 A 4.0003389 4.6327291 49.68773 0 0 96.730469 224.90039 A 4.0003389 4.6327291 49.68773 0 0 100.60156 225.89062 L 109.9375 223.5957 L 119.26758 221.29297 A 4.0003389 4.6327291 49.68773 0 0 120.00977 221.04492 A 4.0003389 4.6327291 49.68773 0 0 120.17969 220.9707 A 4.0003389 4.6327287 49.687731 0 0 120.29883 220.91406 A 4.0003389 4.6327291 49.68773 0 0 120.3457 220.89062 A 4.0003389 4.6327287 49.687731 0 0 120.36914 220.87891 A 4.0003389 4.6327291 49.68773 0 0 120.50977 220.80273 A 4.0003389 4.6327291 49.68773 0 0 120.67188 220.70898 A 4.0003389 4.6327287 49.687731 0 0 120.78516 220.64062 A 4.0003389 4.6327291 49.68773 0 0 120.83008 220.61133 A 4.0003389 4.6327291 49.68773 0 0 121.24219 220.31641 C 122.50104 220.7971 123.96824 220.61052 125.07227 219.67383 L 142.34375 205.01953 L 145.9668 201.94531 L 204.91797 151.92969 L 208.59375 148.8125 L 220.17188 138.98828 C 221.78658 137.61831 221.98325 135.21627 220.61328 133.60156 L 206.7207 117.22656 C 206.03572 116.41921 205.09098 115.96657 204.11719 115.88672 z "
         transform="scale(0.26458333)" />
      <g
         id="g897"
         style="display:inline"
         transform="matrix(1.0092759,-0.85629983,0.85629983,1.0092759,-34.565787,49.251697)">
        <g
           id="g881">
          <rect
             style="opacity:1;fill:#ff2121;fill-opacity:1;stroke:none;stroke-width:2.59926;stroke-linecap:round;stroke-linejoin:round;stroke-miterlimit:4;stroke-dasharray:none;stroke-opacity:1"
             id="rect848"
             width="26.458334"
             height="5.8208332"
             x="34.395832"
             y="31.75"
             ry="0.76407737" />
          <g
             id="path854"
             inkscape:transform-center-x="0.57336191"
             transform="matrix(0,-0.95039503,1.1006374,0,-11.146649,62.651592)"
             style="opacity:1">
            <path
               style="color:#000000;font-style:normal;font-variant:normal;font-weight:normal;font-stretch:normal;font-size:medium;line-height:normal;font-family:sans-serif;font-variant-ligatures:normal;font-variant-position:normal;font-variant-caps:normal;font-variant-numeric:normal;font-variant-alternates:normal;font-variant-east-asian:normal;font-feature-settings:normal;font-variation-settings:normal;text-indent:0;text-align:start;text-decoration:none;text-decoration-line:none;text-decoration-style:solid;text-decoration-color:#000000;letter-spacing:normal;word-spacing:normal;text-transform:none;writing-mode:lr-tb;direction:ltr;text-orientation:mixed;dominant-baseline:auto;baseline-shift:baseline;text-anchor:start;white-space:normal;shape-padding:0;shape-margin:0;inline-size:0;clip-rule:nonzero;display:inline;overflow:visible;visibility:visible;isolation:auto;mix-blend-mode:normal;color-interpolation:sRGB;color-interpolation-filters:linearRGB;solid-color:#000000;solid-opacity:1;vector-effect:none;fill:#ff2121;fill-opacity:1;fill-rule:nonzero;stroke:none;stroke-width:1.68263;stroke-linecap:round;stroke-linejoin:round;stroke-miterlimit:4;stroke-dasharray:none;stroke-dashoffset:0;stroke-opacity:1;color-rendering:auto;image-rendering:auto;shape-rendering:auto;text-rendering:auto;enable-background:accumulate;stop-color:#000000;stop-opacity:1"
               d="m 29.452141,38.373039 0.902289,1.562811 0.90229,1.562811 h -1.804579 -1.804579 l 0.902289,-1.562811 z"
               id="path858" />
            <path
               style="color:#000000;font-style:normal;font-variant:normal;font-weight:normal;font-stretch:normal;font-size:medium;line-height:normal;font-family:sans-serif;font-variant-ligatures:normal;font-variant-position:normal;font-variant-caps:normal;font-variant-numeric:normal;font-variant-alternates:normal;font-variant-east-asian:normal;font-feature-settings:normal;font-variation-settings:normal;text-indent:0;text-align:start;text-decoration:none;text-decoration-line:none;text-decoration-style:solid;text-decoration-color:#000000;letter-spacing:normal;word-spacing:normal;text-transform:none;writing-mode:lr-tb;direction:ltr;text-orientation:mixed;dominant-baseline:auto;baseline-shift:baseline;text-anchor:start;white-space:normal;shape-padding:0;shape-margin:0;inline-size:0;clip-rule:nonzero;display:inline;overflow:visible;visibility:visible;isolation:auto;mix-blend-mode:normal;color-interpolation:sRGB;color-interpolation-filters:linearRGB;solid-color:#000000;solid-opacity:1;vector-effect:none;fill:#ff2121;fill-opacity:1;fill-rule:nonzero;stroke:none;stroke-linecap:round;stroke-linejoin:round;stroke-miterlimit:4;stroke-dasharray:none;stroke-dashoffset:0;stroke-opacity:1;color-rendering:auto;image-rendering:auto;shape-rendering:auto;text-rendering:auto;enable-background:accumulate;stop-color:#000000;stop-opacity:1"
               d="m 29.408203,37.533203 a 0.8413991,0.8413991 0 0 0 -0.685547,0.419922 l -0.902344,1.5625 -0.90039,1.5625 a 0.8413991,0.8413991 0 0 0 0.728516,1.261719 h 1.802734 1.804687 a 0.8413991,0.8413991 0 0 0 0.728516,-1.261719 l -0.900391,-1.5625 -0.902343,-1.5625 a 0.8413991,0.8413991 0 0 0 -0.773438,-0.419922 z m 0.04492,2.525391 0.171875,0.298828 0.173828,0.300781 H 29.45117 29.105467 l 0.173828,-0.300781 z"
               id="path860" />
          </g>
        </g>
        <g
           id="g886">
          <rect
             style="opacity:1;fill:#1a1a1a;stroke:none;stroke-width:0.711837;stroke-linecap:round;stroke-linejoin:round;stroke-miterlimit:4;stroke-dasharray:none;stroke-opacity:1"
             id="rect850"
             width="1.984375"
             height="5.8208332"
             x="56.091667"
             y="31.75" />
          <rect
             style="opacity:1;fill:#1a1a1a;stroke:none;stroke-width:0.711837;stroke-linecap:round;stroke-linejoin:round;stroke-miterlimit:4;stroke-dasharray:none;stroke-opacity:1"
             id="rect852"
             width="1.984375"
             height="5.8208332"
             x="39.687485"
             y="31.75" />
          <path
             id="rect862"
             style="opacity:1;fill:#1a1a1a;stroke:none;stroke-width:1.38932;stroke-linecap:round;stroke-linejoin:round;stroke-miterlimit:4;stroke-dasharray:none;stroke-opacity:1"
             d="m 131.30078,120.49805 c -0.38283,0.25847 -0.70965,0.59628 -0.93359,1.0039 a 3.500127,3.0223427 0 0 0 -1.06641,0.18164 v 18.63282 a 3.500127,3.0223427 0 0 0 1.06641,0.17968 c 0.22424,0.40874 0.54989,0.74688 0.93359,1.00586 z"
             transform="scale(0.26458333)" />
        </g>
      </g>
    </g>
  </g>
</svg>
