<?xml version="1.0" encoding="UTF-8" standalone="no"?>
<svg
   xmlns:dc="http://purl.org/dc/elements/1.1/"
   xmlns:cc="http://creativecommons.org/ns#"
   xmlns:rdf="http://www.w3.org/1999/02/22-rdf-syntax-ns#"
   xmlns:svg="http://www.w3.org/2000/svg"
   xmlns="http://www.w3.org/2000/svg"
   xmlns:sodipodi="http://sodipodi.sourceforge.net/DTD/sodipodi-0.dtd"
   xmlns:inkscape="http://www.inkscape.org/namespaces/inkscape"
   sodipodi:docname="com.obsproject.Studio.svg"
   inkscape:version="1.0.1 (3bc2e813f5, 2020-09-07)"
   id="svg8"
   version="1.1"
   viewBox="0 0 67.733331 67.733331"
   height="256"
   width="256">
  <defs
     id="defs2" />
  <sodipodi:namedview
     inkscape:window-maximized="1"
     inkscape:window-y="27"
     inkscape:window-x="2004"
     inkscape:window-height="1016"
     inkscape:window-width="1836"
     units="px"
     showgrid="false"
     inkscape:document-rotation="0"
     inkscape:current-layer="layer12"
     inkscape:document-units="px"
     inkscape:cy="121.72562"
     inkscape:cx="161.93734"
     inkscape:zoom="2.8"
     inkscape:pageshadow="2"
     inkscape:pageopacity="0.0"
     borderopacity="1.0"
     bordercolor="#666666"
     pagecolor="#ffffff"
     id="base" />
  <metadata
     id="metadata5">
    <rdf:RDF>
      <cc:Work
         rdf:about="">
        <dc:format>image/svg+xml</dc:format>
        <dc:type
           rdf:resource="http://purl.org/dc/dcmitype/StillImage" />
        <dc:title />
      </cc:Work>
    </rdf:RDF>
  </metadata>
  <g
     inkscape:label="Background"
     id="layer2"
     inkscape:groupmode="layer">
    <g
       inkscape:groupmode="layer"
       id="layer13"
       inkscape:label="Shadow"
       style="display:inline;opacity:0.4">
      <circle
         cy="34.924999"
         cx="33.866665"
         id="circle1383"
         style="display:inline;opacity:1;fill:#000000;fill-opacity:1;stroke-width:1.70089;paint-order:stroke fill markers"
         r="31.749998" />
    </g>
    <g
       inkscape:groupmode="layer"
       id="layer10"
       inkscape:label="Colour"
       style="display:inline">
      <circle
         style="display:inline;opacity:1;fill:#333333;fill-opacity:1;stroke-width:1.70089;paint-order:stroke fill markers"
         id="path1327"
         cx="33.866665"
         cy="33.866665"
         r="31.749998" />
    </g>
    <g
       style="display:inline;opacity:0.1"
       inkscape:label="Highlight"
       id="layer1"
       inkscape:groupmode="layer">
      <path
         d="M 33.866666,2.1166681 A 31.749998,31.749998 0 0 0 2.1166681,33.866666 31.749998,31.749998 0 0 0 2.1216512,34.430308 31.749998,31.749998 0 0 1 33.866666,3.2505966 31.749998,31.749998 0 0 1 65.611679,34.436953 31.749998,31.749998 0 0 0 65.616663,33.866666 31.749998,31.749998 0 0 0 33.866666,2.1166681 Z"
         style="display:inline;opacity:1;fill:#ffffff;fill-opacity:1;stroke-width:1.70089;paint-order:stroke fill markers"
         id="circle849" />
    </g>
  </g>
  <g
     inkscape:groupmode="layer"
     id="layer7"
     inkscape:label="Icon"
     style="display:inline">
    <g
       inkscape:groupmode="layer"
       id="layer12"
       inkscape:label="Shadow"
       style="display:inline;opacity:0.4">
      <path
         d="m 33.866666,13.296495 a 9.7294241,9.7294241 0 0 1 0.139526,0.0011 11.694018,11.694018 0 0 0 -0.139526,-0.0011 z m 0.139526,0.0011 a 9.7294241,9.7294241 0 0 1 0.72919,0.03765 9.7420731,10.793744 0 0 1 0.005,-0.0061 11.694018,11.694018 0 0 0 -0.734173,-0.03156 z m -0.251368,-5.67e-4 a 11.694018,11.694018 0 0 0 -0.08859,0.0017 9.7294241,9.7294241 0 0 1 0.08859,-0.0017 z m -0.08859,0.0017 a 11.694018,11.694018 0 0 0 -11.493762,11.691977 11.694018,11.694018 0 0 0 1.830454,6.281456 9.7294236,9.7294225 0 0 1 9.222581,9.715904 9.7294236,9.7294225 0 0 1 -9.729195,9.729197 9.7294236,9.7294225 0 0 1 -7.741498,-3.836422 10.776865,13.952269 0 0 1 -0.02437,-0.0105 11.694018,11.694018 0 0 0 9.467307,4.829163 11.694018,11.694018 0 0 0 10.371459,-6.29253 9.7294239,9.7294239 0 0 1 -1.061397,-4.418887 9.7294239,9.7294239 0 0 1 9.729195,-9.729748 9.7294239,9.7294239 0 0 1 9.729194,9.729748 9.7294239,9.7294239 0 0 1 -1.063058,4.422766 10.187687,11.562149 0 0 1 5.67e-4,0.0039 11.694018,11.694018 0 0 0 1.326054,-5.408862 11.694018,11.694018 0 0 0 -11.694191,-11.69419 11.694018,11.694018 0 0 0 -0.507722,0.01109 9.7294241,9.7294241 0 0 1 -8.161195,4.432711 9.7294241,9.7294241 0 0 1 -9.729195,-9.72975 9.7294241,9.7294241 0 0 1 9.528765,-9.72698 z"
         style="display:inline;opacity:1;fill:#000000;stroke-width:3.6273;paint-order:stroke fill markers"
         id="path1367" />
      <path
         d="M 33.866667,10.19591 A 24.804686,24.804686 0 0 0 9.0619809,35.000596 24.804686,24.804686 0 0 0 33.866667,59.805282 24.804686,24.804686 0 0 0 58.671353,35.000596 24.804686,24.804686 0 0 0 33.866667,10.19591 Z m 0,3.100586 a 21.7041,21.7041 0 0 1 21.7041,21.7041 21.7041,21.7041 0 0 1 -21.7041,21.7041 21.7041,21.7041 0 0 1 -21.704101,-21.7041 21.7041,21.7041 0 0 1 21.704101,-21.7041 z"
         style="display:inline;opacity:1;fill:#000000;stroke-width:3.18216;paint-order:stroke fill markers"
         id="path1370" />
    </g>
    <g
       inkscape:groupmode="layer"
       id="layer6"
       inkscape:label="Logo"
       style="display:inline">
      <path
         id="path1231"
         style="display:inline;fill:#ffffff;stroke-width:3.6273;paint-order:stroke fill markers"
         d="m 33.866666,12.162566 a 9.7294241,9.7294241 0 0 1 0.139527,0.0011 11.694018,11.694018 0 0 0 -0.139527,-0.0011 z m 0.139527,0.0011 a 9.7294241,9.7294241 0 0 1 0.729189,0.03765 9.7420731,10.793744 0 0 1 0.005,-0.0061 11.694018,11.694018 0 0 0 -0.734174,-0.03157 z m -0.25137,-5.67e-4 a 11.694018,11.694018 0 0 0 -0.08859,0.0017 9.7294241,9.7294241 0 0 1 0.08859,-0.0017 z m -0.08859,0.0017 a 11.694018,11.694018 0 0 0 -11.49376,11.691977 11.694018,11.694018 0 0 0 1.830452,6.281457 9.7294236,9.7294225 0 0 1 9.222581,9.715903 9.7294236,9.7294225 0 0 1 -9.729194,9.729198 9.7294236,9.7294225 0 0 1 -7.741498,-3.836423 10.776865,13.952269 0 0 1 -0.02436,-0.0105 11.694018,11.694018 0 0 0 9.467306,4.829163 11.694018,11.694018 0 0 0 10.371461,-6.292529 9.7294239,9.7294239 0 0 1 -1.061397,-4.418888 9.7294239,9.7294239 0 0 1 9.729194,-9.729747 9.7294239,9.7294239 0 0 1 9.729194,9.729747 9.7294239,9.7294239 0 0 1 -1.063058,4.422766 10.187687,11.562149 0 0 1 5.67e-4,0.0039 11.694018,11.694018 0 0 0 1.326053,-5.408862 11.694018,11.694018 0 0 0 -11.69419,-11.69419 11.694018,11.694018 0 0 0 -0.507722,0.01109 9.7294241,9.7294241 0 0 1 -8.161195,4.432711 9.7294241,9.7294241 0 0 1 -9.729195,-9.729749 9.7294241,9.7294241 0 0 1 9.528764,-9.726981 z" />
      <path
         id="path830"
         style="display:inline;fill:#ffffff;stroke-width:3.18216;paint-order:stroke fill markers"
         d="M 33.866667,9.0619806 A 24.804686,24.804686 0 0 0 9.0619809,33.866667 24.804686,24.804686 0 0 0 33.866667,58.671353 24.804686,24.804686 0 0 0 58.671353,33.866667 24.804686,24.804686 0 0 0 33.866667,9.0619806 Z m 0,3.1005854 a 21.7041,21.7041 0 0 1 21.7041,21.704101 21.7041,21.7041 0 0 1 -21.7041,21.7041 21.7041,21.7041 0 0 1 -21.704101,-21.7041 21.7041,21.7041 0 0 1 21.704101,-21.704101 z" />
    </g>
  </g>
</svg>
