<?xml version="1.0" encoding="UTF-8" standalone="no"?>
<svg
   sodipodi:docname="com.github.maoschanz.drawing.svg"
   id="svg8"
   version="1.1"
   viewBox="0 0 67.733332 67.733335"
   height="256"
   width="256"
   xmlns:inkscape="http://www.inkscape.org/namespaces/inkscape"
   xmlns:sodipodi="http://sodipodi.sourceforge.net/DTD/sodipodi-0.dtd"
   xmlns:xlink="http://www.w3.org/1999/xlink"
   xmlns="http://www.w3.org/2000/svg"
   xmlns:svg="http://www.w3.org/2000/svg">
  <defs
     id="defs2">
    <linearGradient
       inkscape:collect="always"
       id="linearGradient1012">
      <stop
         style="stop-color:#000000;stop-opacity:0.5"
         offset="0"
         id="stop1008" />
      <stop
         style="stop-color:#000000;stop-opacity:1"
         offset="1"
         id="stop1010" />
    </linearGradient>
    <linearGradient
       inkscape:collect="always"
       xlink:href="#linearGradient1012"
       id="linearGradient1014"
       x1="199.96602"
       y1="191.89037"
       x2="237.71739"
       y2="229.64174"
       gradientUnits="userSpaceOnUse"
       gradientTransform="scale(0.26458333)" />
  </defs>
  <sodipodi:namedview
     inkscape:window-maximized="1"
     inkscape:window-y="27"
     inkscape:window-x="1920"
     inkscape:window-height="1016"
     inkscape:window-width="1920"
     units="px"
     showgrid="false"
     inkscape:document-rotation="0"
     inkscape:current-layer="g1174"
     inkscape:document-units="px"
     inkscape:cy="154.25"
     inkscape:cx="148"
     inkscape:zoom="2"
     inkscape:pageshadow="2"
     inkscape:pageopacity="0.0"
     borderopacity="1.0"
     bordercolor="#666666"
     pagecolor="#ffffff"
     id="base"
     inkscape:pagecheckerboard="true"
     inkscape:showpageshadow="2"
     inkscape:deskcolor="#d1d1d1" />
  <g
     inkscape:groupmode="layer"
     id="layer1"
     inkscape:label="Background"
     style="display:inline">
    <g
       inkscape:label="Shadow"
       id="layer10"
       inkscape:groupmode="layer"
       style="display:inline;opacity:0.4">
      <path
         id="path1156"
         style="display:inline;fill:#000000;fill-opacity:1;stroke-width:0.0246944;stroke-miterlimit:4;stroke-dasharray:none;paint-order:stroke fill markers"
         d="m 9.2257934,11.641668 c -2.7655985,0 -4.9924601,2.22686 -4.9924601,4.99246 v 11.940873 12.7 11.940873 c 0,2.7656 2.2268616,4.99246 4.9924601,4.99246 H 58.507539 c 2.7656,0 4.99246,-2.22686 4.99246,-4.99246 v -11.940873 -12.7 -11.940873 c 0,-2.7656 -2.22686,-4.99246 -4.99246,-4.99246 z" />
    </g>
    <g
       style="display:inline"
       inkscape:label="Colour"
       id="g1174"
       inkscape:groupmode="layer">
      <g
         id="g887"
         transform="translate(0,-4.2333331)">
        <path
           id="rect1168"
           style="display:inline;fill:#f9f9f9;fill-opacity:1;stroke-width:0.0246944;stroke-miterlimit:4;stroke-dasharray:none;paint-order:stroke fill markers"
           d="m 4.2333333,25.4 v 6.35 12.699999 11.940874 c 0,2.765599 2.2268616,4.99246 4.9924601,4.99246 H 58.507539 c 2.7656,0 4.99246,-2.226861 4.99246,-4.99246 V 44.449999 31.75 25.4 Z" />
        <g
           id="g1023">
          <path
             id="path839"
             style="display:inline;fill:#333333;fill-opacity:1;stroke-width:0.0933332;stroke-miterlimit:4;stroke-dasharray:none;paint-order:stroke fill markers"
             d="M 34.869141,56 C 24.416485,56 16,64.416479 16,74.869141 V 96 H 240 V 74.869141 C 240,64.416479 231.58352,56 221.13086,56 Z"
             transform="scale(0.26458333)" />
          <rect
             style="opacity:1;fill:#1a1a1a;stroke:none;stroke-width:6.17227;stroke-linecap:round;stroke-linejoin:round;stroke-miterlimit:4;stroke-dasharray:none;stroke-opacity:1"
             id="rect846"
             width="59.266666"
             height="1.984375"
             x="4.2333331"
             y="23.415625" />
        </g>
        <g
           id="g876">
          <path
             id="path977"
             style="display:inline;opacity:0.2;fill:#000000;fill-opacity:1;stroke-width:0.0246944;stroke-miterlimit:4;stroke-dasharray:none;paint-order:stroke fill markers"
             d="m 63.499999,50.799999 -5.291666,5.291151 -5.291667,5.292183 h 0.529167 l 4.7625,-4.763016 0.264583,-0.264584 0.264583,-0.264583 4.7625,-4.761984 z" />
          <path
             style="display:inline;opacity:0.2;fill:url(#linearGradient1014);fill-opacity:1;stroke-width:0.0246063;stroke-miterlimit:4;stroke-dasharray:none;paint-order:stroke fill markers"
             d="m 57.776834,50.667708 c -2.765599,0 -4.99246,2.22686 -4.99246,4.99246 v 0.529166 5.061707 0.132292 h 0.132292 v -5.590874 c 0,-2.765599 2.22686,-4.99246 4.99246,-4.99246 h 5.590873 v -0.132291 h -0.132291 -4.929415 z"
             id="path988" />
          <path
             id="path968"
             style="display:inline;fill:#ffffff;fill-opacity:1;stroke-width:0.0246063;stroke-miterlimit:4;stroke-dasharray:none;paint-order:stroke fill markers"
             d="m 52.916666,61.383333 5.291667,-5.292183 5.291666,-5.291151 h -5.590873 c -2.7656,0 -4.99246,2.226861 -4.99246,4.99246 z" />
        </g>
      </g>
    </g>
    <g
       inkscape:groupmode="layer"
       id="layer2"
       inkscape:label="Highlight"
       style="display:inline;opacity:0.1">
      <path
         id="path1159"
         style="display:inline;fill:#ffffff;fill-opacity:1;stroke-width:0.0246944;stroke-miterlimit:4;stroke-dasharray:none;paint-order:stroke fill markers"
         d="m 9.2257934,10.583334 c -2.7655985,0 -4.9924601,2.22686 -4.9924601,4.99246 v 1.058333 c 0,-2.7656 2.2268616,-4.99246 4.9924601,-4.99246 H 58.507539 c 2.7656,0 4.99246,2.22686 4.99246,4.99246 v -1.058333 c 0,-2.7656 -2.22686,-4.99246 -4.99246,-4.99246 z" />
    </g>
  </g>
  <g
     inkscape:label="Graphic"
     id="g1156"
     inkscape:groupmode="layer"
     style="display:inline">
    <path
       style="fill:none;stroke:#ff3636;stroke-width:2.64583;stroke-linecap:round;stroke-linejoin:round;stroke-miterlimit:4;stroke-dasharray:none;stroke-opacity:1"
       d="m 9.1545832,28.803051 c 3.9668088,1.331296 8.2913818,1.535464 7.5517738,5.762192 -0.406709,2.324273 -4.629956,4.217404 -3.219549,7.041175 1.169998,2.342448 5.250347,1.284103 8.015909,2.530948 4.246357,1.914457 2.966923,8.486399 2.966923,8.486399"
       id="path844"
       sodipodi:nodetypes="csssc" />
    <g
       id="g1143"
       transform="translate(0,-4.2333331)">
      <path
         id="rect1093"
         style="opacity:0.4;fill:#000000;fill-opacity:1;stroke:none;stroke-width:13.0029;stroke-linecap:round;stroke-linejoin:round;stroke-miterlimit:4;stroke-dasharray:none;stroke-opacity:1"
         d="m 204.11719,115.88672 c -0.97379,-0.0798 -1.9778,0.21345 -2.78516,0.89844 l -7.68164,6.51757 -7.57031,6.42383 -55.00586,46.66797 -7.56836,6.42188 -17.27148,14.65234 c -1.10415,0.93679 -1.5272,2.35532 -1.25782,3.67578 a 4.0003389,4.6327291 49.68773 0 0 -0.0937,0.0879 4.0003389,4.6327287 49.687731 0 0 -0.0625,0.0606 4.0003389,4.6327291 49.68773 0 0 -0.0352,0.0332 4.0003389,4.6327287 49.687731 0 0 -0.0996,0.10352 4.0003389,4.6327291 49.68773 0 0 -0.004,0.004 4.0003389,4.6327287 49.687731 0 0 -0.0996,0.10743 4.0003389,4.6327291 49.68773 0 0 -0.12305,0.14257 4.0003389,4.6327291 49.68773 0 0 -0.11523,0.14453 4.0003389,4.6327291 49.68773 0 0 -0.11133,0.14844 4.0003389,4.6327291 49.68773 0 0 -0.0801,0.11524 4.0003389,4.6327287 49.687731 0 0 -0.0254,0.0371 4.0003389,4.6327291 49.68773 0 0 -0.0215,0.0332 4.0003389,4.6327287 49.687731 0 0 -0.0508,0.0781 4.0003389,4.6327291 49.68773 0 0 -0.36524,0.69336 l -3.791012,8.83008 -3.783204,8.83594 a 4.0003389,4.6327291 49.68773 0 0 0.615235,4.30078 4.0003389,4.6327291 49.68773 0 0 3.871091,0.99023 l 9.33594,-2.29492 9.33008,-2.30273 a 4.0003389,4.6327291 49.68773 0 0 0.74219,-0.24805 4.0003389,4.6327291 49.68773 0 0 0.16992,-0.0742 4.0003389,4.6327287 49.687731 0 0 0.11914,-0.0566 4.0003389,4.6327291 49.68773 0 0 0.0469,-0.0234 4.0003389,4.6327287 49.687731 0 0 0.0234,-0.0117 4.0003389,4.6327291 49.68773 0 0 0.14063,-0.0762 4.0003389,4.6327291 49.68773 0 0 0.16211,-0.0937 4.0003389,4.6327287 49.687731 0 0 0.11328,-0.0684 4.0003389,4.6327291 49.68773 0 0 0.0449,-0.0293 4.0003389,4.6327291 49.68773 0 0 0.41211,-0.29492 c 1.25885,0.48069 2.72605,0.29411 3.83008,-0.64258 l 17.27148,-14.6543 3.62305,-3.07422 58.95117,-50.01562 3.67578,-3.11719 11.57813,-9.82422 c 1.6147,-1.36997 1.81137,-3.77201 0.4414,-5.38672 l -13.89258,-16.375 c -0.68498,-0.80735 -1.62972,-1.25999 -2.60351,-1.33984 z"
         transform="scale(0.26458333)" />
      <g
         id="g897"
         style="display:inline"
         transform="matrix(1.0092759,-0.85629983,0.85629983,1.0092759,-34.565787,49.251697)">
        <g
           id="g881">
          <rect
             style="opacity:1;fill:#ff2121;fill-opacity:1;stroke:none;stroke-width:2.59926;stroke-linecap:round;stroke-linejoin:round;stroke-miterlimit:4;stroke-dasharray:none;stroke-opacity:1"
             id="rect848"
             width="26.458334"
             height="5.8208332"
             x="34.395832"
             y="31.75"
             ry="0.76407737" />
          <g
             id="path854"
             inkscape:transform-center-x="0.57336191"
             transform="matrix(0,-0.95039503,1.1006374,0,-11.146649,62.651592)"
             style="opacity:1">
            <path
               style="color:#000000;font-style:normal;font-variant:normal;font-weight:normal;font-stretch:normal;font-size:medium;line-height:normal;font-family:sans-serif;font-variant-ligatures:normal;font-variant-position:normal;font-variant-caps:normal;font-variant-numeric:normal;font-variant-alternates:normal;font-variant-east-asian:normal;font-feature-settings:normal;font-variation-settings:normal;text-indent:0;text-align:start;text-decoration:none;text-decoration-line:none;text-decoration-style:solid;text-decoration-color:#000000;letter-spacing:normal;word-spacing:normal;text-transform:none;writing-mode:lr-tb;direction:ltr;text-orientation:mixed;dominant-baseline:auto;baseline-shift:baseline;text-anchor:start;white-space:normal;shape-padding:0;shape-margin:0;inline-size:0;clip-rule:nonzero;display:inline;overflow:visible;visibility:visible;isolation:auto;mix-blend-mode:normal;color-interpolation:sRGB;color-interpolation-filters:linearRGB;solid-color:#000000;solid-opacity:1;vector-effect:none;fill:#ff2121;fill-opacity:1;fill-rule:nonzero;stroke:none;stroke-width:1.68263;stroke-linecap:round;stroke-linejoin:round;stroke-miterlimit:4;stroke-dasharray:none;stroke-dashoffset:0;stroke-opacity:1;color-rendering:auto;image-rendering:auto;shape-rendering:auto;text-rendering:auto;enable-background:accumulate;stop-color:#000000;stop-opacity:1"
               d="m 29.452141,38.373039 0.902289,1.562811 0.90229,1.562811 h -1.804579 -1.804579 l 0.902289,-1.562811 z"
               id="path858" />
            <path
               style="color:#000000;font-style:normal;font-variant:normal;font-weight:normal;font-stretch:normal;font-size:medium;line-height:normal;font-family:sans-serif;font-variant-ligatures:normal;font-variant-position:normal;font-variant-caps:normal;font-variant-numeric:normal;font-variant-alternates:normal;font-variant-east-asian:normal;font-feature-settings:normal;font-variation-settings:normal;text-indent:0;text-align:start;text-decoration:none;text-decoration-line:none;text-decoration-style:solid;text-decoration-color:#000000;letter-spacing:normal;word-spacing:normal;text-transform:none;writing-mode:lr-tb;direction:ltr;text-orientation:mixed;dominant-baseline:auto;baseline-shift:baseline;text-anchor:start;white-space:normal;shape-padding:0;shape-margin:0;inline-size:0;clip-rule:nonzero;display:inline;overflow:visible;visibility:visible;isolation:auto;mix-blend-mode:normal;color-interpolation:sRGB;color-interpolation-filters:linearRGB;solid-color:#000000;solid-opacity:1;vector-effect:none;fill:#ff2121;fill-opacity:1;fill-rule:nonzero;stroke:none;stroke-linecap:round;stroke-linejoin:round;stroke-miterlimit:4;stroke-dasharray:none;stroke-dashoffset:0;stroke-opacity:1;color-rendering:auto;image-rendering:auto;shape-rendering:auto;text-rendering:auto;enable-background:accumulate;stop-color:#000000;stop-opacity:1"
               d="m 29.408203,37.533203 a 0.8413991,0.8413991 0 0 0 -0.685547,0.419922 l -0.902344,1.5625 -0.90039,1.5625 a 0.8413991,0.8413991 0 0 0 0.728516,1.261719 h 1.802734 1.804687 a 0.8413991,0.8413991 0 0 0 0.728516,-1.261719 l -0.900391,-1.5625 -0.902343,-1.5625 a 0.8413991,0.8413991 0 0 0 -0.773438,-0.419922 z m 0.04492,2.525391 0.171875,0.298828 0.173828,0.300781 H 29.45117 29.105467 l 0.173828,-0.300781 z"
               id="path860" />
          </g>
        </g>
        <g
           id="g886">
          <rect
             style="opacity:1;fill:#1a1a1a;stroke:none;stroke-width:0.711837;stroke-linecap:round;stroke-linejoin:round;stroke-miterlimit:4;stroke-dasharray:none;stroke-opacity:1"
             id="rect850"
             width="1.984375"
             height="5.8208332"
             x="56.091667"
             y="31.75" />
          <rect
             style="opacity:1;fill:#1a1a1a;stroke:none;stroke-width:0.711837;stroke-linecap:round;stroke-linejoin:round;stroke-miterlimit:4;stroke-dasharray:none;stroke-opacity:1"
             id="rect852"
             width="1.984375"
             height="5.8208332"
             x="39.687485"
             y="31.75" />
          <path
             id="rect862"
             style="opacity:1;fill:#1a1a1a;stroke:none;stroke-width:1.38932;stroke-linecap:round;stroke-linejoin:round;stroke-miterlimit:4;stroke-dasharray:none;stroke-opacity:1"
             d="m 131.30078,120.49805 c -0.38283,0.25847 -0.70965,0.59628 -0.93359,1.0039 a 3.500127,3.0223427 0 0 0 -1.06641,0.18164 v 18.63282 a 3.500127,3.0223427 0 0 0 1.06641,0.17968 c 0.22424,0.40874 0.54989,0.74688 0.93359,1.00586 z"
             transform="scale(0.26458333)" />
        </g>
      </g>
    </g>
  </g>
</svg>
