<?xml version="1.0" encoding="UTF-8" standalone="no"?>
<svg
   xmlns:dc="http://purl.org/dc/elements/1.1/"
   xmlns:cc="http://creativecommons.org/ns#"
   xmlns:rdf="http://www.w3.org/1999/02/22-rdf-syntax-ns#"
   xmlns:svg="http://www.w3.org/2000/svg"
   xmlns="http://www.w3.org/2000/svg"
   xmlns:sodipodi="http://sodipodi.sourceforge.net/DTD/sodipodi-0.dtd"
   xmlns:inkscape="http://www.inkscape.org/namespaces/inkscape"
   sodipodi:docname="discord-symbolic.symbolic.svg"
   inkscape:version="1.0.2 (e86c870879, 2021-01-15)"
   id="svg8"
   version="1.1"
   viewBox="0 0 4.2333333 4.2333334"
   height="16"
   width="16">
  <defs
     id="defs2" />
  <sodipodi:namedview
     inkscape:window-maximized="1"
     inkscape:window-y="27"
     inkscape:window-x="1920"
     inkscape:window-height="1016"
     inkscape:window-width="1920"
     units="px"
     showgrid="false"
     inkscape:document-rotation="0"
     inkscape:current-layer="layer5"
     inkscape:document-units="px"
     inkscape:cy="10.703175"
     inkscape:cx="5.9376229"
     inkscape:zoom="22.627418"
     inkscape:pageshadow="2"
     inkscape:pageopacity="0.0"
     borderopacity="1.0"
     bordercolor="#666666"
     pagecolor="#ffffff"
     id="base" />
  <metadata
     id="metadata5">
    <rdf:RDF>
      <cc:Work
         rdf:about="">
        <dc:format>image/svg+xml</dc:format>
        <dc:type
           rdf:resource="http://purl.org/dc/dcmitype/StillImage" />
        <dc:title></dc:title>
      </cc:Work>
    </rdf:RDF>
  </metadata>
  <g
     inkscape:groupmode="layer"
     id="layer5"
     inkscape:label="Graphic"
     style="display:inline">
    <path
       id="path1664"
       style="color:#000000;font-style:normal;font-variant:normal;font-weight:normal;font-stretch:normal;font-size:medium;line-height:normal;font-family:sans-serif;font-variant-ligatures:normal;font-variant-position:normal;font-variant-caps:normal;font-variant-numeric:normal;font-variant-alternates:normal;font-variant-east-asian:normal;font-feature-settings:normal;font-variation-settings:normal;text-indent:0;text-align:start;text-decoration:none;text-decoration-line:none;text-decoration-style:solid;text-decoration-color:#000000;letter-spacing:normal;word-spacing:normal;text-transform:none;writing-mode:lr-tb;direction:ltr;text-orientation:mixed;dominant-baseline:auto;baseline-shift:baseline;text-anchor:start;white-space:normal;shape-padding:0;shape-margin:0;inline-size:0;clip-rule:nonzero;display:inline;overflow:visible;visibility:visible;opacity:1;isolation:auto;mix-blend-mode:normal;color-interpolation:sRGB;color-interpolation-filters:linearRGB;solid-color:#000000;solid-opacity:1;vector-effect:none;fill:#000000;fill-opacity:1;fill-rule:nonzero;stroke:none;stroke-width:0.0239479px;stroke-linecap:butt;stroke-linejoin:miter;stroke-miterlimit:4;stroke-dasharray:none;stroke-dashoffset:0;stroke-opacity:1;color-rendering:auto;image-rendering:auto;shape-rendering:auto;text-rendering:auto;enable-background:accumulate;stop-color:#000000;stop-opacity:1"
       d="m 1.6068051,0.92604238 a 0.02993593,0.02993587 0 0 0 -0.00463,3.2795e-4 C 1.4585043,0.93224162 1.2810583,0.97291748 1.1192245,1.0338167 0.95536497,1.0954782 0.80793617,1.177096 0.72887884,1.2662794 0.62146467,1.381198 0.50864927,1.6546155 0.41968643,1.9938055 0.33071844,2.3330188 0.26720619,2.7370419 0.26465617,3.1094863 c -0.001187,0.027041 0.0122103,0.05525 0.034644,0.084667 0.0224359,0.029418 0.0543696,0.060166 0.0933078,0.091406 0.077873,0.062477 0.183423,0.1265563 0.29472292,0.1800004 0.11130068,0.053446 0.22824588,0.096335 0.32899491,0.1159628 0.1007507,0.019627 0.1867152,0.01736 0.2348192,-0.027244 l 2.881e-4,-3.281e-4 2.879e-4,-2.88e-4 C 1.288529,3.5132664 1.295987,3.5011464 1.308649,3.4820584 1.32131,3.4629714 1.339748,3.4359864 1.401461,3.3623751 l 1.68e-4,-1.68e-4 1.68e-4,-1.281e-4 C 1.406457,3.356199 1.408857,3.348399 1.407787,3.341036 1.406727,3.333666 1.402907,3.327464 1.398077,3.322061 1.388407,3.311253 1.37381,3.301924 1.354958,3.291509 1.3172506,3.2706815 1.2626299,3.2468858 1.2034394,3.2165578 1.089853,3.1583597 0.96101257,3.0765949 0.90693887,2.9551562 1.3133698,3.2182906 1.7280051,3.3188458 2.116671,3.3153225 c 0.3886669,0.00353 0.8033014,-0.097041 1.2097323,-0.3601663 -0.054075,0.1214387 -0.182915,0.2032035 -0.2965005,0.2614016 -0.059191,0.030327 -0.1138113,0.054123 -0.1515163,0.074952 -0.018851,0.010414 -0.03345,0.019742 -0.043119,0.030552 -0.00484,0.00541 -0.00865,0.01157 -0.00971,0.018936 -0.00106,0.00737 0.00134,0.015204 0.00599,0.021084 l 1.68e-4,1.28e-4 1.68e-4,1.68e-4 c 0.061712,0.073611 0.080151,0.1005967 0.092811,0.1196834 0.012664,0.019087 0.020078,0.031206 0.056886,0.071604 l 3.28e-4,2.88e-4 2.88e-4,3.28e-4 c 0.048104,0.044604 0.1340705,0.046871 0.2348194,0.027244 0.10074,-0.019629 0.2176864,-0.062517 0.3289867,-0.1159638 C 3.6573022,3.4121164 3.7628524,3.3480382 3.8407253,3.285561 3.8796623,3.254322 3.9115993,3.223573 3.9340333,3.194155 3.9564683,3.164737 3.9698673,3.136528 3.9686773,3.109488 3.9661638,2.7370475 3.9026226,2.3330188 3.8136546,1.9938055 3.7247117,1.6546182 3.6119175,1.3812388 3.5045035,1.2663209 3.4254573,1.1771391 3.2780593,1.0955192 3.1141992,1.0338579 2.9523649,0.9729587 2.7749192,0.93228453 2.631249,0.92641165 a 0.02993593,0.02993587 0 0 0 -0.00463,-3.2805e-4 0.02993593,0.02993587 0 0 0 -4.961e-4,0 c -1.039e-4,-3.92e-6 -2.24e-4,4.7e-6 -3.279e-4,0 v 4.144e-5 a 0.02993593,0.02993587 0 0 0 -0.029022,0.0298896 0.02993593,0.02993587 0 0 0 0.023069,0.0291044 c 1.519e-4,4.536e-5 2.56e-4,8.008e-5 4.159e-4,1.2006e-4 C 2.9584588,1.0818712 3.2090568,1.2020568 3.3646146,1.3520616 2.9641482,1.1613444 2.5587405,1.0578863 2.1519832,1.0542381 2.1402152,1.054142 2.1284482,1.05439 2.1166772,1.054446 2.1049062,1.054384 2.0931402,1.05415 2.0813712,1.0542381 1.6746154,1.0578889 1.2691625,1.1613458 0.86870387,1.3520616 1.0242601,1.2020567 1.2749007,1.0818717 1.6130973,0.98523924 c 1.521e-4,-4.615e-5 2.641e-4,-7.605e-5 4.159e-4,-1.2007e-4 a 0.02993593,0.02993587 0 0 0 0.023069,-0.0291044 0.02993593,0.02993587 0 0 0 -0.029022,-0.0298897 v -4.144e-5 c -1.04e-4,4.48e-6 -2.24e-4,-3.7e-6 -3.28e-4,0 a 0.02993593,0.02993587 0 0 0 -4.56e-4,0 z M 1.5420233,2.1121275 A 0.35923106,0.35923047 0 0 1 1.9012388,2.4713429 0.35923106,0.35923047 0 0 1 1.5420233,2.8305999 0.35923106,0.35923047 0 0 1 1.1828077,2.4713429 0.35923106,0.35923047 0 0 1 1.5420233,2.1121275 Z m 1.1495393,0 A 0.35923106,0.35923047 0 0 1 3.050778,2.4713429 0.35923106,0.35923047 0 0 1 2.6915626,2.8305999 0.35923106,0.35923047 0 0 1 2.3323469,2.4713429 0.35923106,0.35923047 0 0 1 2.6915626,2.1121275 Z" />
  </g>
</svg>
