<?xml version="1.0" encoding="UTF-8" standalone="no"?>
<svg
   sodipodi:docname="display-im6.q16.svg"
   id="svg8"
   version="1.1"
   viewBox="0 0 67.733332 67.733335"
   height="256"
   width="256"
   inkscape:version="1.4 (e7c3feb100, 2024-10-09)"
   xmlns:inkscape="http://www.inkscape.org/namespaces/inkscape"
   xmlns:sodipodi="http://sodipodi.sourceforge.net/DTD/sodipodi-0.dtd"
   xmlns="http://www.w3.org/2000/svg"
   xmlns:svg="http://www.w3.org/2000/svg">
  <defs
     id="defs2" />
  <sodipodi:namedview
     inkscape:window-maximized="1"
     inkscape:window-y="0"
     inkscape:window-x="0"
     inkscape:window-height="1011"
     inkscape:window-width="1920"
     units="px"
     showgrid="false"
     inkscape:document-rotation="0"
     inkscape:current-layer="g1156"
     inkscape:document-units="px"
     inkscape:cy="37.476659"
     inkscape:cx="102.35371"
     inkscape:zoom="2.8284271"
     inkscape:pageshadow="2"
     inkscape:pageopacity="0.0"
     borderopacity="1.0"
     bordercolor="#666666"
     pagecolor="#ffffff"
     id="base"
     inkscape:showpageshadow="2"
     inkscape:pagecheckerboard="0"
     inkscape:deskcolor="#d1d1d1" />
  <g
     inkscape:groupmode="layer"
     id="layer1"
     inkscape:label="Background"
     style="display:inline">
    <g
       inkscape:label="Shadow"
       id="layer10"
       inkscape:groupmode="layer"
       style="display:inline;opacity:0.4">
      <path
         id="path839"
         style="display:inline;opacity:1;fill:#000000;fill-opacity:1;stroke-width:0.0246944;stroke-miterlimit:4;stroke-dasharray:none;paint-order:stroke fill markers"
         d="m 4.2333333,34.925001 v 24.641082 c 0,2.765599 2.2266527,4.992251 4.9922512,4.992251 H 58.50775 c 2.765599,0 4.99225,-2.226652 4.99225,-4.992251 V 34.925001 Z" />
    </g>
    <g
       style="display:inline"
       inkscape:label="Colour"
       id="g1174"
       inkscape:groupmode="layer">
      <path
         id="rect1168"
         style="display:inline;fill:#00d3f1;fill-opacity:1;stroke-width:0.093;stroke-miterlimit:4;stroke-dasharray:none;paint-order:stroke fill markers"
         d="M 34.869141,16 C 24.416485,16 16,24.416485 16,34.869141 16,96.956381 16,159.04362 16,221.13086 16,231.58352 24.416485,240 34.869141,240 H 221.13086 C 231.58352,240 240,231.58352 240,221.13086 240,159.04362 240,96.956381 240,34.869141 240,24.416485 231.58352,16 221.13086,16 Z"
         sodipodi:nodetypes="sccssccss"
         transform="scale(0.26458333)" />
    </g>
    <g
       inkscape:groupmode="layer"
       id="layer2"
       inkscape:label="Highlight"
       style="opacity:0.1">
      <path
         d="m 9.2257931,4.2333333 c -2.7655986,0 -4.9924598,2.2268608 -4.9924598,4.9924598 v 1.0583329 c 0,-2.7655979 2.2268612,-4.9924597 4.9924598,-4.9924597 H 58.50754 c 2.765599,0 4.99246,2.2268618 4.99246,4.9924597 V 9.2257931 c 0,-2.765599 -2.226861,-4.9924598 -4.99246,-4.9924598 z"
         style="display:inline;opacity:1;fill:#ffffff;fill-opacity:1;stroke-width:0.0246944;stroke-miterlimit:4;stroke-dasharray:none;paint-order:stroke fill markers"
         id="path955" />
    </g>
  </g>
  <g
     inkscape:label="Graphic"
     id="g1156"
     inkscape:groupmode="layer"
     style="display:inline">
    <path
       id="path58"
       style="fill:#000000;stroke-width:1.89976;stroke-linejoin:round;opacity:0.4"
       inkscape:transform-center-y="-0.4409717"
       d="M 15.630054 14.051339 C 15.614004 14.052303 15.597646 14.054758 15.581478 14.05909 L 11.579138 15.131893 C 11.449782 15.166553 11.372912 15.299168 11.407572 15.428516 C 11.58628 16.09546 11.765267 16.762485 11.943974 17.429427 L 12.303125 18.769914 L 17.09353 36.648409 L 19.152836 38.970748 L 20.322274 40.289531 C 19.714787 40.874059 19.12531 41.471048 18.555457 42.080119 C 16.759556 41.704734 15.206536 41.435116 14.100431 41.339596 L 14.098364 41.339596 C 13.933716 41.327186 13.773378 41.319278 13.617257 41.316858 C 11.275435 41.280398 9.8876263 42.334296 9.2950399 43.519308 C 8.9789943 44.151315 8.8835846 44.815521 8.981364 45.376559 C 9.079142 45.937596 9.3812086 46.409237 9.8660645 46.584754 L 9.8707154 46.587337 L 9.8743327 46.587337 C 23.108696 50.594626 36.085203 54.647623 48.636825 58.773674 L 48.643026 58.775741 L 48.649744 58.777808 C 49.896628 59.087394 51.560419 58.53429 52.382332 57.419751 C 52.793289 56.862482 52.980108 56.149581 52.760604 55.365096 C 52.541134 54.580595 51.92989 53.733857 50.788631 52.853105 C 49.63989 51.966578 47.245246 50.867459 44.159062 49.677071 C 43.971459 49.60471 43.759868 49.529847 43.567367 49.45693 C 46.134385 41.757956 50.778046 35.174255 56.680261 29.752706 C 57.710944 28.80596 58.350332 27.967489 58.616577 27.225728 C 58.882821 26.483967 58.743668 25.812029 58.229004 25.350907 C 57.71434 24.889783 56.869025 24.621302 55.72063 24.515816 C 55.433531 24.489446 55.126728 24.473871 54.801306 24.468791 C 53.825032 24.453561 52.678093 24.535217 51.368958 24.721489 C 41.432153 26.13536 29.29457 31.799445 20.634399 39.98929 L 20.940841 38.491707 L 21.563025 35.450549 L 16.77262 17.572571 L 16.413468 16.231567 C 16.234761 15.564625 16.055774 14.8976 15.877067 14.230656 C 15.84674 14.117475 15.742399 14.04459 15.630054 14.051339 z " />
    <g
       inkscape:groupmode="layer"
       id="layer3"
       inkscape:label="Shadow"
       style="display:inline;opacity:0.4" />
    <g
       id="layer1-6"
       inkscape:label="Pencil"
       transform="matrix(-0.4476162,-0.25843135,-0.25843135,0.4476162,43.360965,23.684577)">
      <g
         id="g862">
        <path
           id="path839-7"
           style="fill:#ff9955;stroke-width:3.67557;stroke-linejoin:round"
           inkscape:transform-center-y="-0.4409717"
           d="m 26.797749,47.257459 5.697351,-1.899116 -6.330388,-6.330388 -1.899118,5.69735 z" />
        <rect
           style="fill:#0000ff;stroke-width:24.5962;stroke-linejoin:round"
           id="rect841"
           width="8.9525223"
           height="35.810089"
           x="-55.050705"
           y="-9.095686"
           transform="rotate(-135)" />
        <rect
           style="fill:#e6bb00;fill-opacity:1;stroke-width:9.16802;stroke-linejoin:round"
           id="rect843"
           width="8.9525223"
           height="2.6857567"
           x="-55.050705"
           y="26.714405"
           transform="rotate(-135)" />
        <path
           id="rect845"
           style="fill:#f41f1f;fill-opacity:1;stroke-width:12.8857;stroke-linejoin:round"
           d="m 59.715777,18.137665 c 0.944613,-0.944613 1.889221,-1.889222 2.833838,-2.833836 0.183199,-0.183201 0.183207,-0.479506 0,-0.662714 L 56.880699,8.9722015 c -0.183199,-0.183201 -0.478266,-0.181968 -0.661473,0.00124 -0.944616,0.944616 -1.889224,1.8892225 -2.833838,2.8338365 2.11013,2.110129 4.220261,4.22026 6.330389,6.330388 z"
           sodipodi:nodetypes="ccssccc" />
        <path
           id="rect847"
           style="fill:#3b3b3b;fill-opacity:1;stroke-width:45.4272;stroke-linejoin:round"
           d="M 22.999516,48.523537 26.79775,47.257459 24.265594,44.725305 Z" />
        <rect
           style="opacity:0.2;fill:#ffffff;stroke-width:21.332;stroke-linejoin:round"
           id="rect858"
           width="2.9811902"
           height="35.810089"
           x="-49.079365"
           y="-9.095686"
           transform="rotate(-135)" />
        <rect
           style="opacity:0.2;fill:#000000;stroke-width:21.332;stroke-linejoin:round"
           id="rect862"
           width="2.9811902"
           height="35.810089"
           x="-55.050705"
           y="-9.095686"
           transform="rotate(-135)" />
      </g>
    </g>
    <g
       id="g1802"
       transform="matrix(1.0834163,0,0,1.0834163,-4.8444015,-3.4850559)">
      <g
         id="g892"
         transform="matrix(1.214376,0.32539105,-0.32539105,1.214376,0.2008463,-9.6436743)">
        <path
           id="path22"
           style="fill:#0000ff"
           d="m 49.23956,15.190026 c -0.695219,0.174711 -1.493251,0.450455 -2.386232,0.831307 -7.438343,3.172423 -15.785263,10.477786 -20.148373,18.875134 l -0.09941,0.189618 19.390701,0.327774 0.0077,-0.126757 c 0.315662,-6.03937 2.37376,-11.673108 5.572077,-16.706903 0.551013,-0.867233 0.844859,-1.583474 0.89272,-2.160086 0.04786,-0.576612 -0.178434,-1.026835 -0.63103,-1.256046 -0.452596,-0.229212 -1.102898,-0.258782 -1.937328,-0.115373 -0.208608,0.03585 -0.429126,0.0831 -0.660865,0.141332 z" />
        <g
           id="g882">
          <path
             sodipodi:type="star"
             style="fill:#ffff00;fill-opacity:1;stroke:#ffff00;stroke-width:0.596106;stroke-linecap:round;stroke-linejoin:round;stroke-miterlimit:4;stroke-dasharray:none;stroke-opacity:1;paint-order:markers fill stroke"
             id="path856"
             sodipodi:sides="5"
             sodipodi:cx="42.341995"
             sodipodi:cy="33.894268"
             sodipodi:r1="1.1861084"
             sodipodi:r2="0.59305412"
             sodipodi:arg1="-1.5707963"
             sodipodi:arg2="-0.9424778"
             inkscape:flatsided="false"
             inkscape:rounded="0"
             inkscape:randomized="0"
             inkscape:transform-center-y="-0.11326382"
             d="m 42.341995,32.70816 0.348589,0.706317 0.779467,0.113263 -0.564028,0.549792 0.133149,0.776318 -0.697177,-0.366528 -0.697177,0.366528 0.133149,-0.776318 -0.564028,-0.549792 0.779468,-0.113263 z" />
          <path
             sodipodi:type="star"
             style="fill:#ffff00;fill-opacity:1;stroke:#ffff00;stroke-width:0.596106;stroke-linecap:round;stroke-linejoin:round;stroke-miterlimit:4;stroke-dasharray:none;stroke-opacity:1;paint-order:markers fill stroke"
             id="path864"
             sodipodi:sides="5"
             sodipodi:cx="44.200912"
             sodipodi:cy="26.022205"
             sodipodi:r1="1.1861084"
             sodipodi:r2="0.59305412"
             sodipodi:arg1="-1.5707963"
             sodipodi:arg2="-0.9424778"
             inkscape:flatsided="false"
             inkscape:rounded="0"
             inkscape:randomized="0"
             inkscape:transform-center-y="-0.11326382"
             d="m 44.200913,24.836097 0.348588,0.706317 0.779468,0.113264 -0.564029,0.549791 0.133149,0.776318 -0.697177,-0.366528 -0.697177,0.366528 0.133149,-0.776318 -0.564028,-0.549791 0.779468,-0.113264 z" />
          <path
             sodipodi:type="star"
             style="fill:#ffff00;fill-opacity:1;stroke:#ffff00;stroke-width:0.596106;stroke-linecap:round;stroke-linejoin:round;stroke-miterlimit:4;stroke-dasharray:none;stroke-opacity:1;paint-order:markers fill stroke"
             id="path866"
             sodipodi:sides="5"
             sodipodi:cx="42.416035"
             sodipodi:cy="21.310621"
             sodipodi:r1="1.1861084"
             sodipodi:r2="0.59305412"
             sodipodi:arg1="-1.5707963"
             sodipodi:arg2="-0.9424778"
             inkscape:flatsided="false"
             inkscape:rounded="0"
             inkscape:randomized="0"
             inkscape:transform-center-y="-0.11326382"
             d="m 42.416035,20.124513 0.348588,0.706317 0.779468,0.113264 -0.564028,0.549791 0.133149,0.776318 -0.697177,-0.366528 -0.697177,0.366528 0.133149,-0.776318 -0.564028,-0.549791 0.779467,-0.113264 z" />
          <path
             sodipodi:type="star"
             style="fill:#ffff00;fill-opacity:1;stroke:#ffff00;stroke-width:0.596106;stroke-linecap:round;stroke-linejoin:round;stroke-miterlimit:4;stroke-dasharray:none;stroke-opacity:1;paint-order:markers fill stroke"
             id="path868"
             sodipodi:sides="5"
             sodipodi:cx="37.709618"
             sodipodi:cy="27.699976"
             sodipodi:r1="1.1861084"
             sodipodi:r2="0.59305412"
             sodipodi:arg1="-1.5707963"
             sodipodi:arg2="-0.9424778"
             inkscape:flatsided="false"
             inkscape:rounded="0"
             inkscape:randomized="0"
             inkscape:transform-center-y="-0.11326382"
             d="m 37.709618,26.513868 0.348588,0.706317 0.779468,0.113263 -0.564028,0.549792 0.133149,0.776318 -0.697177,-0.366528 -0.697177,0.366528 0.133149,-0.776318 -0.564028,-0.549792 0.779467,-0.113263 z" />
          <path
             sodipodi:type="star"
             style="fill:#ffff00;fill-opacity:1;stroke:#ffff00;stroke-width:0.596106;stroke-linecap:round;stroke-linejoin:round;stroke-miterlimit:4;stroke-dasharray:none;stroke-opacity:1;paint-order:markers fill stroke"
             id="path870"
             sodipodi:sides="5"
             sodipodi:cx="32.908966"
             sodipodi:cy="32.543201"
             sodipodi:r1="1.1861084"
             sodipodi:r2="0.59305412"
             sodipodi:arg1="-1.5707963"
             sodipodi:arg2="-0.9424778"
             inkscape:flatsided="false"
             inkscape:rounded="0"
             inkscape:randomized="0"
             inkscape:transform-center-y="-0.11326382"
             d="m 32.908966,31.357093 0.348589,0.706318 0.779467,0.113263 -0.564028,0.549791 0.133149,0.776318 -0.697177,-0.366527 -0.697177,0.366527 0.133149,-0.776318 -0.564028,-0.549791 0.779468,-0.113263 z" />
          <path
             sodipodi:type="star"
             style="fill:#ffff00;fill-opacity:1;stroke:#ffff00;stroke-width:0.596106;stroke-linecap:round;stroke-linejoin:round;stroke-miterlimit:4;stroke-dasharray:none;stroke-opacity:1;paint-order:markers fill stroke"
             id="path874"
             sodipodi:sides="5"
             sodipodi:cx="48.874428"
             sodipodi:cy="18.497099"
             sodipodi:r1="1.1861084"
             sodipodi:r2="0.59305412"
             sodipodi:arg1="-1.5707963"
             sodipodi:arg2="-0.9424778"
             inkscape:flatsided="false"
             inkscape:rounded="0"
             inkscape:randomized="0"
             inkscape:transform-center-y="-0.11326382"
             d="m 48.874428,17.310991 0.348588,0.706317 0.779468,0.113263 -0.564028,0.549792 0.133149,0.776318 -0.697177,-0.366528 -0.697177,0.366528 0.133149,-0.776318 -0.564028,-0.549792 0.779467,-0.113263 z" />
        </g>
      </g>
      <g
         id="g1783">
        <path
           id="path21"
           style="fill:#1735ff;fill-opacity:1"
           d="m 17.040304,40.37583 c -2.161516,-0.03365 -3.44246,0.938661 -3.989421,2.032434 -0.291712,0.583346 -0.379639,1.196783 -0.289388,1.714624 0.09025,0.517841 0.368963,0.953175 0.816488,1.115178 l 0.0041,0.0021 h 0.0036 c 12.215398,3.698776 24.192436,7.440038 35.777661,11.248409 l 0.0057,0.0015 0.0062,0.0021 c 1.150882,0.28575 2.686637,-0.224944 3.445268,-1.25367 0.379316,-0.514363 0.551935,-1.172441 0.349332,-1.896525 -0.202566,-0.7241 -0.766618,-1.505281 -1.820007,-2.318221 C 50.289542,50.205489 48.078881,49.19089 45.230314,48.092155 42.381746,46.99342 38.9046,45.820442 35.347713,44.728536 28.23394,42.544723 20.824481,40.68478 17.486271,40.396501 h -0.0021 c -0.151971,-0.01145 -0.299799,-0.01843 -0.4439,-0.02067 z" />
        <g
           id="g1764">
          <path
             id="path1719"
             style="color:#000000;font-style:normal;font-variant:normal;font-weight:normal;font-stretch:normal;font-size:medium;line-height:normal;font-family:sans-serif;font-variant-ligatures:normal;font-variant-position:normal;font-variant-caps:normal;font-variant-numeric:normal;font-variant-alternates:normal;font-variant-east-asian:normal;font-feature-settings:normal;font-variation-settings:normal;text-indent:0;text-align:start;text-decoration:none;text-decoration-line:none;text-decoration-style:solid;text-decoration-color:#000000;letter-spacing:normal;word-spacing:normal;text-transform:none;writing-mode:lr-tb;direction:ltr;text-orientation:mixed;dominant-baseline:auto;baseline-shift:baseline;text-anchor:start;white-space:normal;shape-padding:0;shape-margin:0;inline-size:0;clip-rule:nonzero;display:inline;overflow:visible;visibility:visible;isolation:auto;mix-blend-mode:normal;color-interpolation:sRGB;color-interpolation-filters:linearRGB;solid-color:#000000;solid-opacity:1;vector-effect:none;fill:#ffff00;fill-opacity:1;fill-rule:nonzero;stroke:none;stroke-width:1.25721px;stroke-linecap:butt;stroke-linejoin:miter;stroke-miterlimit:4;stroke-dasharray:none;stroke-dashoffset:0;stroke-opacity:1;color-rendering:auto;image-rendering:auto;shape-rendering:auto;text-rendering:auto;enable-background:accumulate;stop-color:#000000"
             d="m 92.431641,157.69727 -0.933594,1.0625 -2.193359,-0.25782 a 1.0451156,1.0451156 0 0 0 -1.025391,1.57422 l 1.132812,1.90039 -0.927734,2.00586 a 1.0451156,1.0451156 0 0 0 1.177734,1.45508 l 2.16211,-0.48242 1.625,1.49609 a 1.0451156,1.0451156 0 0 0 1.746093,-0.66992 l 0.207032,-2.19922 1.925781,-1.08203 a 1.0451156,1.0451156 0 0 0 -0.0957,-1.875 l -2.035156,-0.87305 -0.28711,-1.46484 c -0.13708,-0.0337 -0.287214,-0.074 -0.423828,-0.10742 -0.714221,-0.175 -1.353712,-0.31393 -2.054687,-0.48242 z"
             transform="scale(0.26458333)" />
          <path
             id="path1639"
             style="color:#000000;font-style:normal;font-variant:normal;font-weight:normal;font-stretch:normal;font-size:medium;line-height:normal;font-family:sans-serif;font-variant-ligatures:normal;font-variant-position:normal;font-variant-caps:normal;font-variant-numeric:normal;font-variant-alternates:normal;font-variant-east-asian:normal;font-feature-settings:normal;font-variation-settings:normal;text-indent:0;text-align:start;text-decoration:none;text-decoration-line:none;text-decoration-style:solid;text-decoration-color:#000000;letter-spacing:normal;word-spacing:normal;text-transform:none;writing-mode:lr-tb;direction:ltr;text-orientation:mixed;dominant-baseline:auto;baseline-shift:baseline;text-anchor:start;white-space:normal;shape-padding:0;shape-margin:0;inline-size:0;clip-rule:nonzero;display:inline;overflow:visible;visibility:visible;isolation:auto;mix-blend-mode:normal;color-interpolation:sRGB;color-interpolation-filters:linearRGB;solid-color:#000000;solid-opacity:1;vector-effect:none;fill:#ffff00;fill-opacity:1;fill-rule:nonzero;stroke:none;stroke-width:2.09002;stroke-linecap:round;stroke-linejoin:round;stroke-miterlimit:4;stroke-dasharray:none;stroke-dashoffset:0;stroke-opacity:1;paint-order:markers fill stroke;color-rendering:auto;image-rendering:auto;shape-rendering:auto;text-rendering:auto;enable-background:accumulate;stop-color:#000000"
             d="m 180.24023,203.9707 a 1.0451156,1.0451156 0 0 0 -0.79492,0.35547 l -1.46093,1.66406 -2.19336,-0.25781 a 1.0451156,1.0451156 0 0 0 -1.0254,1.57422 l 1.13282,1.90039 -0.32422,0.70508 c 2.07242,0.67557 4.14297,1.35069 6.20898,2.02734 l 0.10547,-1.12695 1.92578,-1.08203 a 1.0451156,1.0451156 0 0 0 -0.0937,-1.875 l -2.03711,-0.87305 -0.42578,-2.16992 a 1.0451156,1.0451156 0 0 0 -0.76172,-0.80859 1.0451156,1.0451156 0 0 0 -0.25586,-0.0332 z"
             transform="scale(0.26458333)" />
          <path
             sodipodi:type="star"
             style="fill:#ffff00;fill-opacity:1;stroke:#ffff00;stroke-width:0.552985;stroke-linecap:round;stroke-linejoin:round;stroke-miterlimit:4;stroke-dasharray:none;stroke-opacity:1;paint-order:markers fill stroke"
             id="path1613"
             sodipodi:sides="5"
             sodipodi:cx="46.161453"
             sodipodi:cy="52.350159"
             sodipodi:r1="1.1003087"
             sodipodi:r2="0.55015433"
             sodipodi:arg1="-1.5707963"
             sodipodi:arg2="-0.9424778"
             inkscape:flatsided="false"
             inkscape:rounded="0"
             inkscape:randomized="0"
             inkscape:transform-center-y="-0.083572326"
             inkscape:transform-center-x="1.7952488e-06"
             transform="rotate(15,55.099833,30.508422)"
             d="m 46.161453,51.24985 0.323373,0.655224 0.723083,0.105071 -0.523228,0.510021 0.123517,0.720161 -0.646745,-0.340014 -0.646745,0.340014 0.123517,-0.720161 -0.523227,-0.510021 0.723083,-0.105071 z" />
          <path
             sodipodi:type="star"
             style="fill:#ffff00;fill-opacity:1;stroke:#ffff00;stroke-width:0.552985;stroke-linecap:round;stroke-linejoin:round;stroke-miterlimit:4;stroke-dasharray:none;stroke-opacity:1;paint-order:markers fill stroke"
             id="path1617"
             sodipodi:sides="5"
             sodipodi:cx="46.161453"
             sodipodi:cy="52.350159"
             sodipodi:r1="1.1003087"
             sodipodi:r2="0.55015433"
             sodipodi:arg1="-1.5707963"
             sodipodi:arg2="-0.9424778"
             inkscape:flatsided="false"
             inkscape:rounded="0"
             inkscape:randomized="0"
             inkscape:transform-center-y="-0.083572326"
             inkscape:transform-center-x="1.7952488e-06"
             transform="rotate(15,56.744415,-7.8517687)"
             d="m 46.161453,51.24985 0.323373,0.655224 0.723083,0.105071 -0.523228,0.510021 0.123517,0.720161 -0.646745,-0.340014 -0.646745,0.340014 0.123517,-0.720161 -0.523227,-0.510021 0.723083,-0.105071 z" />
          <path
             sodipodi:type="star"
             style="fill:#ffff00;fill-opacity:1;stroke:#ffff00;stroke-width:0.552985;stroke-linecap:round;stroke-linejoin:round;stroke-miterlimit:4;stroke-dasharray:none;stroke-opacity:1;paint-order:markers fill stroke"
             id="path1621"
             sodipodi:sides="5"
             sodipodi:cx="46.161453"
             sodipodi:cy="52.350159"
             sodipodi:r1="1.1003087"
             sodipodi:r2="0.55015433"
             sodipodi:arg1="-1.5707963"
             sodipodi:arg2="-0.9424778"
             inkscape:flatsided="false"
             inkscape:rounded="0"
             inkscape:randomized="0"
             inkscape:transform-center-y="-0.083572326"
             inkscape:transform-center-x="1.7952488e-06"
             transform="rotate(15,63.276118,-60.427132)"
             d="m 46.161453,51.24985 0.323373,0.655224 0.723083,0.105071 -0.523228,0.510021 0.123517,0.720161 -0.646745,-0.340014 -0.646745,0.340014 0.123517,-0.720161 -0.523227,-0.510021 0.723083,-0.105071 z" />
        </g>
      </g>
    </g>
  </g>
</svg>
