<?xml version="1.0" encoding="UTF-8" standalone="no"?>
<svg
   sodipodi:docname="fr.handbrake.ghb.svg"
   id="svg4705"
   version="1.1"
   viewBox="0 0 67.733332 67.733332"
   height="256"
   width="256"
   xmlns:inkscape="http://www.inkscape.org/namespaces/inkscape"
   xmlns:sodipodi="http://sodipodi.sourceforge.net/DTD/sodipodi-0.dtd"
   xmlns="http://www.w3.org/2000/svg"
   xmlns:svg="http://www.w3.org/2000/svg">
  <defs
     id="defs4699" />
  <sodipodi:namedview
     units="px"
     inkscape:document-rotation="0"
     inkscape:window-maximized="1"
     inkscape:window-y="32"
     inkscape:window-x="1920"
     inkscape:window-height="1011"
     inkscape:window-width="1920"
     fit-margin-bottom="0"
     fit-margin-right="0"
     fit-margin-left="0"
     fit-margin-top="0"
     showgrid="false"
     inkscape:current-layer="layer6"
     inkscape:document-units="px"
     inkscape:cy="121.68141"
     inkscape:cx="75.408198"
     inkscape:zoom="2.6257092"
     inkscape:pageshadow="2"
     inkscape:pageopacity="0.0"
     borderopacity="1.0"
     bordercolor="#666666"
     pagecolor="#ffffff"
     id="base"
     inkscape:showpageshadow="2"
     inkscape:pagecheckerboard="0"
     inkscape:deskcolor="#d1d1d1" />
  <g
     inkscape:label="Background"
     id="layer5"
     inkscape:groupmode="layer">
    <g
       style="display:inline;opacity:0.4"
       inkscape:label="Shadow"
       id="layer4"
       inkscape:groupmode="layer">
      <path
         id="circle904"
         style="display:inline;fill:#000000;fill-opacity:1;stroke-width:21.173;paint-order:stroke fill markers"
         d="M 128 12 A 120 120 0 0 0 8 132 A 120 120 0 0 0 128 252 A 120 120 0 0 0 248 132 A 120 120 0 0 0 128 12 z M 127.92383 88 A 40 40 0 0 1 128 88 A 40 40 0 0 1 168 128 A 40 40 0 0 1 128 168 A 40 40 0 0 1 88 128 A 40 40 0 0 1 127.92383 88 z "
         transform="scale(0.26458333)" />
    </g>
    <g
       style="display:inline"
       transform="translate(-130.05163,-144.32544)"
       id="layer1"
       inkscape:groupmode="layer"
       inkscape:label="Colour">
      <path
         id="path902"
         style="display:inline;fill:#808080;fill-opacity:1;stroke:#e6e6e6;stroke-width:2.64583;stroke-miterlimit:4;stroke-dasharray:none;stroke-opacity:1;paint-order:normal"
         d="m 163.87949,147.76502 a 30.427154,30.427154 0 0 0 -30.38828,30.42708 30.427154,30.427154 0 0 0 30.42708,30.42709 30.427154,30.427154 0 0 0 30.42709,-30.42709 30.427154,30.427154 0 0 0 -30.42709,-30.42708 30.427154,30.427154 0 0 0 -0.0388,0 z m 0.0178,19.38993 a 11.037154,11.037154 0 0 1 0.021,0 11.037154,11.037154 0 0 1 11.03716,11.03715 11.037154,11.037154 0 0 1 -11.03716,11.03716 11.037154,11.037154 0 0 1 -11.03715,-11.03716 11.037154,11.037154 0 0 1 11.01614,-11.03715 z" />
    </g>
    <g
       style="display:inline;opacity:0.1"
       inkscape:label="Highlight"
       id="layer3"
       inkscape:groupmode="layer">
      <path
         d="M 33.866666,2.1166667 A 31.75,31.75 0 0 0 2.1166666,33.866667 31.75,31.75 0 0 0 2.1213166,34.384464 31.75,31.75 0 0 1 33.866665,3.175 a 31.75,31.75 0 0 1 31.745348,31.232202 31.75,31.75 0 0 0 0.0047,-0.540535 31.75,31.75 0 0 0 -31.75,-31.7500003 z"
         style="display:inline;fill:#ffffff;fill-opacity:1;stroke-width:5.60202;paint-order:stroke fill markers"
         id="circle908" />
    </g>
  </g>
  <g
     inkscape:label="Graphic"
     id="layer6"
     inkscape:groupmode="layer">
    <g
       inkscape:groupmode="layer"
       id="layer2"
       inkscape:label="Shadow"
       style="display:inline;opacity:0.4">
      <path
         id="path3059"
         style="color:#000000;font-style:normal;font-variant:normal;font-weight:normal;font-stretch:normal;font-size:medium;line-height:normal;font-family:sans-serif;font-variant-ligatures:normal;font-variant-position:normal;font-variant-caps:normal;font-variant-numeric:normal;font-variant-alternates:normal;font-variant-east-asian:normal;font-feature-settings:normal;font-variation-settings:normal;text-indent:0;text-align:start;text-decoration:none;text-decoration-line:none;text-decoration-style:solid;text-decoration-color:#000000;letter-spacing:normal;word-spacing:normal;text-transform:none;writing-mode:lr-tb;direction:ltr;text-orientation:mixed;dominant-baseline:auto;baseline-shift:baseline;text-anchor:start;white-space:normal;shape-padding:0;shape-margin:0;inline-size:0;clip-rule:nonzero;display:inline;overflow:visible;visibility:visible;isolation:auto;mix-blend-mode:normal;color-interpolation:sRGB;color-interpolation-filters:linearRGB;solid-color:#000000;solid-opacity:1;vector-effect:none;fill:#000000;fill-opacity:1;fill-rule:nonzero;stroke:none;stroke-width:7.8299;stroke-linecap:round;stroke-linejoin:round;stroke-miterlimit:4;stroke-dasharray:none;stroke-dashoffset:0;stroke-opacity:1;paint-order:markers fill stroke;color-rendering:auto;image-rendering:auto;shape-rendering:auto;text-rendering:auto;enable-background:accumulate;stop-color:#000000"
         d="M 116.46875 88.304688 A 3.9149243 3.9149243 0 0 0 116.13867 88.326172 A 3.9149243 3.9149243 0 0 0 112.64648 92.613281 C 112.79316 94.052966 112.85593 95.481979 112.84961 96.896484 C 112.72717 96.883462 112.678 96.872331 112.55078 96.859375 C 109.81756 96.581013 105.98825 96.314866 101.64453 96.353516 C 92.957075 96.430807 82.197541 97.754114 73.912109 102.61133 C 66.385868 107.02347 55.938637 107.66144 47.361328 107.25 C 41.658888 106.97645 36.977254 106.24822 34.339844 105.77539 C 33.952226 104.11709 33.65583 102.42017 33.478516 100.67969 A 3.9149243 3.9149243 0 0 0 29.191406 97.183594 A 3.9149243 3.9149243 0 0 0 25.685547 101.47266 C 28.212586 126.27745 49.47374 144.73329 73.978516 144.24609 L 78.353516 187.19141 L 67.029297 188.3457 A 0.36511148 0.36511148 0 0 0 66.699219 188.74219 L 67.419922 195.80664 A 0.36511148 0.36511148 0 0 0 67.824219 196.13867 L 98.255859 193.03906 A 0.36511148 0.36511148 0 0 0 98.576172 192.63281 L 97.855469 185.56836 A 0.36511148 0.36511148 0 0 0 97.462891 185.24414 L 86.138672 186.39844 L 81.763672 143.45312 C 105.86278 138.98829 122.96451 116.62481 120.4375 91.820312 A 3.9149243 3.9149243 0 0 0 116.46875 88.304688 z "
         transform="scale(0.26458333)" />
      <path
         id="path1"
         style="color:#000000;fill:#000000;stroke-linecap:round;stroke-linejoin:round;-inkscape-stroke:none;paint-order:markers fill stroke"
         d="m 50.306163,20.046613 a 0.62769777,0.62769777 0 0 0 -0.237195,0.01705 0.62769777,0.62769777 0 0 0 -0.456819,0.501778 l -0.538985,3.234428 a 0.62769777,0.62769777 0 0 0 0.257348,0.617016 l 1.306897,0.919841 -0.222725,0.492476 A 0.62769777,0.62769777 0 0 0 50.096357,25.41114 L 47.02626,24.260823 a 0.62769777,0.62769777 0 0 0 -0.808736,0.806669 l 1.152384,3.070096 a 0.62769777,0.62769777 0 0 0 0.531234,0.406177 l 0.803569,0.07286 a 10.583333,13.229166 15 0 0 -9.481592,10.090857 10.583333,13.229166 15 0 0 6.799068,15.517915 10.583333,13.229166 15 0 0 13.646712,-10.03918 10.583333,13.229166 15 0 0 -4.4974,-14.518493 l 0.993221,-0.09043 a 0.62769777,0.62769777 0 0 0 0.531234,-0.404627 l 0.734322,-1.959053 0.537435,0.76171 a 0.62769777,0.62769777 0 0 0 0.617016,0.257866 l 3.232361,-0.538985 a 0.62769777,0.62769777 0 0 0 0.29662,-1.103292 l -2.531109,-2.082044 a 0.62769777,0.62769777 0 0 0 -0.661975,-0.0863 l -1.881022,0.871264 -0.0036,0.0021 -1.072286,0.40256 0.1757,-1.795239 1.421618,0.245979 a 0.62769777,0.62769777 0 0 0 0.617534,-0.253731 l 1.906343,-2.668054 a 0.62769777,0.62769777 0 0 0 -0.570508,-0.988053 l -3.263883,0.316259 a 0.62769777,0.62769777 0 0 0 -0.529167,0.408244 l -0.664042,1.806608 -2.509924,1.794723 a 0.62769777,0.62769777 0 0 0 -0.253731,0.617533 l 0.09353,0.541052 -0.271301,-0.597896 0.767395,-1.661914 A 0.62769777,0.62769777 0 0 0 52.7975,22.802029 l -2.082044,-2.531628 a 0.62769777,0.62769777 0 0 0 -0.409277,-0.223759 z" />
    </g>
    <g
       id="g2697"
       transform="translate(11.266246,6.9935351)">
      <g
         id="g2625"
         transform="rotate(15,-29.806353,-127.91484)">
        <path
           id="path2545"
           style="fill:#552200;stroke:#f49f00;stroke-width:1.25527;stroke-linecap:round;stroke-linejoin:round;stroke-miterlimit:4;stroke-dasharray:none;stroke-opacity:1;paint-order:markers fill stroke"
           inkscape:transform-center-y="-0.49747624"
           d="m 77.613355,-4.483257 -1.356753,2.984858 1.356753,1.628103 1.356753,-1.628103 z" />
        <path
           id="path2547"
           style="fill:#00ce00;fill-opacity:1;stroke:#008000;stroke-width:1.25518;stroke-linecap:round;stroke-linejoin:round;stroke-miterlimit:4;stroke-dasharray:none;stroke-opacity:1;paint-order:markers fill stroke"
           inkscape:transform-center-y="-0.49747624"
           d="m 77.613355,-4.483257 -1.356753,2.984858 1.356753,1.628103 1.356753,-1.628103 z" />
        <path
           id="path2549"
           style="fill:#00ce00;fill-opacity:1;stroke:#008000;stroke-width:1.25518;stroke-linecap:round;stroke-linejoin:round;stroke-miterlimit:4;stroke-dasharray:none;stroke-opacity:1;paint-order:markers fill stroke"
           inkscape:transform-center-y="-0.48052474"
           d="m 75.300137,-5.975215 -0.537985,3.234304 1.731907,1.221474 0.889138,-1.923781 z"
           inkscape:transform-center-x="-0.0468205" />
        <path
           id="path2551"
           style="fill:#00ce00;fill-opacity:1;stroke:#008000;stroke-width:1.25518;stroke-linecap:round;stroke-linejoin:round;stroke-miterlimit:4;stroke-dasharray:none;stroke-opacity:1;paint-order:markers fill stroke"
           inkscape:transform-center-y="-0.43082674"
           d="m 72.993657,-9.970157 0.317446,3.263339 1.989034,0.731603 0.360931,-2.088356 z"
           inkscape:transform-center-x="0.0682725" />
        <path
           id="path2553"
           style="fill:#00ce00;fill-opacity:1;stroke:#008000;stroke-width:1.25518;stroke-linecap:round;stroke-linejoin:round;stroke-miterlimit:4;stroke-dasharray:none;stroke-opacity:1;paint-order:markers fill stroke"
           inkscape:transform-center-y="-0.43082724"
           d="m 81.132001,-6.753433 -2.667411,1.906586 0.360931,2.088355 1.989034,-0.731602 z"
           inkscape:transform-center-x="-0.0682725" />
        <path
           id="path2555"
           style="fill:#00ce00;fill-opacity:1;stroke:#008000;stroke-width:1.25518;stroke-linecap:round;stroke-linejoin:round;stroke-miterlimit:4;stroke-dasharray:none;stroke-opacity:1;paint-order:markers fill stroke"
           inkscape:transform-center-y="-0.48052524"
           d="m 78.807276,-8.939034 -2.08306,2.531997 0.889139,1.92378 1.731907,-1.221473 z"
           inkscape:transform-center-x="0.04682" />
        <path
           id="path2557"
           style="fill:#00ce00;fill-opacity:1;stroke:#008000;stroke-width:1.25518;stroke-linecap:round;stroke-linejoin:round;stroke-miterlimit:4;stroke-dasharray:none;stroke-opacity:1;paint-order:markers fill stroke"
           d="m 85.744961,-6.753434 -2.984857,-1.356752 -1.628103,1.356753 1.628103,1.356753 z"
           inkscape:transform-center-x="-0.497476" />
        <path
           id="path2559"
           style="fill:#00ce00;fill-opacity:1;stroke:#008000;stroke-width:1.25518;stroke-linecap:round;stroke-linejoin:round;stroke-miterlimit:4;stroke-dasharray:none;stroke-opacity:1;paint-order:markers fill stroke"
           inkscape:transform-center-y="-0.35176874"
           d="m 82.06913,-12.20089 -3.069981,1.151244 -0.191873,2.110612 2.110612,-0.191874 z"
           inkscape:transform-center-x="-0.351769" />
        <path
           id="path2561"
           style="fill:#00ce00;fill-opacity:1;stroke:#008000;stroke-width:1.25518;stroke-linecap:round;stroke-linejoin:round;stroke-miterlimit:4;stroke-dasharray:none;stroke-opacity:1;paint-order:markers fill stroke"
           inkscape:transform-center-y="-0.06827274"
           d="m 70.767211,-5.047392 1.906585,2.667412 2.088356,-0.360931 -0.731603,-1.989034 z"
           inkscape:transform-center-x="0.4308265" />
      </g>
      <g
         id="g2425"
         transform="rotate(15,35.135158,48.930224)">
        <ellipse
           style="fill:#ffca00;fill-opacity:1;stroke:none;stroke-width:1.69846;stroke-linecap:round;stroke-linejoin:round;stroke-miterlimit:4;stroke-dasharray:none;stroke-opacity:1;paint-order:markers fill stroke"
           id="ellipse1417"
           cx="-33.136734"
           cy="34.055313"
           rx="13.229166"
           ry="10.583333"
           transform="rotate(-90)" />
        <path
           id="path1955"
           style="color:#000000;font-style:normal;font-variant:normal;font-weight:normal;font-stretch:normal;font-size:medium;line-height:normal;font-family:sans-serif;font-variant-ligatures:normal;font-variant-position:normal;font-variant-caps:normal;font-variant-numeric:normal;font-variant-alternates:normal;font-variant-east-asian:normal;font-feature-settings:normal;font-variation-settings:normal;text-indent:0;text-align:start;text-decoration:none;text-decoration-line:none;text-decoration-style:solid;text-decoration-color:#000000;letter-spacing:normal;word-spacing:normal;text-transform:none;writing-mode:lr-tb;direction:ltr;text-orientation:mixed;dominant-baseline:auto;baseline-shift:baseline;text-anchor:start;white-space:normal;shape-padding:0;shape-margin:0;inline-size:0;clip-rule:nonzero;display:inline;overflow:visible;visibility:visible;isolation:auto;mix-blend-mode:normal;color-interpolation:sRGB;color-interpolation-filters:linearRGB;solid-color:#000000;solid-opacity:1;vector-effect:none;fill:#f49f00;fill-opacity:1;fill-rule:nonzero;stroke:none;stroke-width:3;stroke-linecap:round;stroke-linejoin:round;stroke-miterlimit:4;stroke-dasharray:none;stroke-dashoffset:0;stroke-opacity:1;paint-order:markers fill stroke;color-rendering:auto;image-rendering:auto;shape-rendering:auto;text-rendering:auto;enable-background:accumulate;stop-color:#000000"
           d="m 130.7793,75.306641 -0.20118,0.203125 a 1.50015,1.50015 0 0 0 0.006,2.125 l 7.06641,7.066406 a 1.50015,1.50015 0 0 0 2.11914,0 l 5.16406,-5.16211 A 40,49.999999 0 0 0 130.7793,75.306641 Z m -4.13868,0.0039 a 40,49.999999 0 0 0 -14.15234,4.230469 l 5.16016,5.160156 a 1.50015,1.50015 0 0 0 2.125,0.0059 l 7.07226,-7.072265 a 1.50015,1.50015 0 0 0 -0.006,-2.125 z m 2.01368,6.828125 a 1.50015,1.50015 0 0 0 -1.00391,0.443359 l -7.06836,7.06836 a 1.50015,1.50015 0 0 0 -0.006,2.123047 l 7.07422,7.074218 a 1.50015,1.50015 0 0 0 2.12305,-0.0059 l 7.06836,-7.068359 a 1.50015,1.50015 0 0 0 0.006,-2.123047 l -7.07422,-7.074219 a 1.50015,1.50015 0 0 0 -1.01563,-0.4375 1.50015,1.50015 0 0 0 -0.10351,0 z m -20.14258,0.0059 a 1.50015,1.50015 0 0 0 -0.0879,0.0059 40,49.999999 0 0 0 -2.35742,1.876953 l -4.54883,4.548828 a 40,49.999999 0 0 0 -1.47852,1.802734 1.50015,1.50015 0 0 0 0.40039,1.394532 l 7.07227,7.074218 a 1.50015,1.50015 0 0 0 2.11914,0 l 7.07226,-7.074218 a 1.50015,1.50015 0 0 0 0,-2.119141 l -7.07226,-7.072266 a 1.50015,1.50015 0 0 0 -1.11914,-0.4375 z m 40.28711,0 a 1.50015,1.50015 0 0 0 -1,0.4375 l -7.07422,7.072266 a 1.50015,1.50015 0 0 0 0,2.119141 l 7.06836,7.068359 a 1.50015,1.50015 0 0 0 2.125,0.0059 l 7.07226,-7.074218 a 1.50015,1.50015 0 0 0 0.40039,-1.390626 40,49.999999 0 0 0 -1.49804,-1.824218 l -4.50391,-4.503906 a 40,49.999999 0 0 0 -2.39062,-1.904297 1.50015,1.50015 0 0 0 -0.19922,-0.0059 z m -50.283205,14.14059 a 1.50015,1.50015 0 0 0 -1.005859,0.44336 l -3.373047,3.373044 a 40,49.999999 0 0 0 -2.654297,6.86328 l 6.023437,6.02344 a 1.50015,1.50015 0 0 0 2.128907,0 l 7.068354,-7.06836 a 1.50015,1.50015 0 0 0 0,-2.1289 l -7.068354,-7.068364 a 1.50015,1.50015 0 0 0 -1.119141,-0.4375 z m 20.138675,0 a 1.50015,1.50015 0 0 0 -1,0.4375 l -7.07227,7.072264 a 1.50015,1.50015 0 0 0 0,2.11914 l 7.07227,7.07422 a 1.50015,1.50015 0 0 0 2.11914,0 l 7.07226,-7.07422 a 1.50015,1.50015 0 0 0 0,-2.11914 l -7.07226,-7.072264 a 1.50015,1.50015 0 0 0 -1.11914,-0.4375 z m 20.14453,0 a 1.50015,1.50015 0 0 0 -1.00781,0.4375 l -7.07227,7.072264 a 1.50015,1.50015 0 0 0 0.006,2.125 l 7.06641,7.06836 a 1.50015,1.50015 0 0 0 2.12109,0 l 7.07227,-7.07422 a 1.50015,1.50015 0 0 0 0,-2.11914 l -7.06836,-7.066404 a 1.50015,1.50015 0 0 0 -1.11719,-0.44336 z m 19.99609,0 a 1.50015,1.50015 0 0 0 -1,0.4375 l -7.07422,7.072264 a 1.50015,1.50015 0 0 0 0,2.11914 l 7.07422,7.07422 a 1.50015,1.50015 0 0 0 2.11914,0 l 6.0293,-6.0293 a 40,49.999999 0 0 0 -2.66016,-6.86718 l -3.36914,-3.369144 a 1.50015,1.50015 0 0 0 -1.11914,-0.4375 z m -29.99804,14.140624 a 1.50015,1.50015 0 0 0 -1,0.4375 l -7.07422,7.07227 a 1.50015,1.50015 0 0 0 0,2.11914 l 7.07422,7.07226 a 1.50015,1.50015 0 0 0 2.11914,0 l 7.07226,-7.07226 a 1.50015,1.50015 0 0 0 0,-2.11914 l -7.07226,-7.07227 a 1.50015,1.50015 0 0 0 -1.11914,-0.4375 z m 20.00195,0 a 1.50015,1.50015 0 0 0 -1.00586,0.44336 l -7.06836,7.06641 a 1.50015,1.50015 0 0 0 0,2.11914 l 7.07422,7.07226 a 1.50015,1.50015 0 0 0 2.11914,0 l 7.06641,-7.0664 a 1.50015,1.50015 0 0 0 0.006,-2.125 l -7.07226,-7.07227 a 1.50015,1.50015 0 0 0 -1.11914,-0.4375 z m -40.14649,0.004 a 1.50015,1.50015 0 0 0 -1,0.4375 l -7.0664,7.06836 a 1.50015,1.50015 0 0 0 -0.006,2.125 l 7.07226,7.07226 a 1.50015,1.50015 0 0 0 2.125,-0.006 l 7.06836,-7.0664 a 1.50015,1.50015 0 0 0 0,-2.11914 l -7.07422,-7.07422 a 1.50015,1.50015 0 0 0 -1.01562,-0.4375 1.50015,1.50015 0 0 0 -0.10352,0 z m -18.396481,1.06054 a 40,49.999999 0 0 0 -1.542968,13.75 40,49.999999 0 0 0 0.04297,2.3125 1.50015,1.50015 0 0 0 0.873047,-0.42578 l 7.072266,-7.07226 a 1.50015,1.50015 0 0 0 0,-2.11914 z m 76.914061,0.002 -6.4414,6.44336 a 1.50015,1.50015 0 0 0 -0.006,2.125 l 7.07226,7.07226 a 1.50015,1.50015 0 0 0 0.87305,0.42578 40,49.999999 0 0 0 0.0449,-2.31836 40,49.999999 0 0 0 -1.54297,-13.74804 z m -8.36719,13.07422 a 1.50015,1.50015 0 0 0 -1.00781,0.4375 l -7.07422,7.07226 a 1.50015,1.50015 0 0 0 0.006,2.125 l 7.06836,7.06641 a 1.50015,1.50015 0 0 0 2.12305,0.006 l 7.07422,-7.07227 a 1.50015,1.50015 0 0 0 -0.006,-2.125 l -7.06836,-7.06836 a 1.50015,1.50015 0 0 0 -1.11524,-0.4414 z m -60.14648,0.004 a 1.50015,1.50015 0 0 0 -1,0.4375 l -7.072266,7.07422 a 1.50015,1.50015 0 0 0 0,2.11914 l 7.06836,7.06641 a 1.50015,1.50015 0 0 0 2.123047,0.006 l 7.074219,-7.07227 a 1.50015,1.50015 0 0 0 -0.006,-2.125 l -7.068359,-7.06836 a 1.50015,1.50015 0 0 0 -1.015625,-0.4375 1.50015,1.50015 0 0 0 -0.103516,0 z m 20.13867,0 a 1.50015,1.50015 0 0 0 -1,0.4375 l -7.07226,7.07422 a 1.50015,1.50015 0 0 0 0,2.11914 l 7.07226,7.07227 a 1.50015,1.50015 0 0 0 2.11914,0 l 7.07227,-7.07227 a 1.50015,1.50015 0 0 0 0,-2.11914 l -7.07227,-7.07422 a 1.50015,1.50015 0 0 0 -1.01562,-0.4375 1.50015,1.50015 0 0 0 -0.10352,0 z m 20.00196,0 a 1.50015,1.50015 0 0 0 -1,0.4375 l -7.07227,7.07422 a 1.50015,1.50015 0 0 0 0,2.11914 l 7.07227,7.07227 a 1.50015,1.50015 0 0 0 2.11914,0 l 7.07226,-7.07227 a 1.50015,1.50015 0 0 0 0,-2.11914 l -7.07226,-7.07422 a 1.50015,1.50015 0 0 0 -1.01563,-0.4375 1.50015,1.50015 0 0 0 -0.10351,0 z m -29.99805,14.14063 a 1.50015,1.50015 0 0 0 -1.00586,0.44336 l -7.06641,7.06836 a 1.50015,1.50015 0 0 0 0,2.11914 l 7.07227,7.07226 a 1.50015,1.50015 0 0 0 2.11914,0 l 7.06836,-7.06836 a 1.50015,1.50015 0 0 0 0.004,-2.12304 l -7.07226,-7.07422 a 1.50015,1.50015 0 0 0 -1.01563,-0.4375 1.50015,1.50015 0 0 0 -0.10351,0 z m 20,0 a 1.50015,1.50015 0 0 0 -1.00781,0.4375 l -7.06836,7.06836 a 1.50015,1.50015 0 0 0 0,2.1289 l 7.06836,7.06836 a 1.50015,1.50015 0 0 0 2.1289,0 l 7.06836,-7.06836 a 1.50015,1.50015 0 0 0 -0.006,-2.12304 l -7.0664,-7.06836 a 1.50015,1.50015 0 0 0 -1.11719,-0.44336 z m 19.99414,0 a 1.50015,1.50015 0 0 0 -1,0.4375 l -7.07227,7.07422 a 1.50015,1.50015 0 0 0 0,2.11914 l 7.07227,7.07226 a 1.50015,1.50015 0 0 0 2.11914,0 l 7.07227,-7.07226 a 1.50015,1.50015 0 0 0 0,-2.11914 l -7.07227,-7.07422 a 1.50015,1.50015 0 0 0 -1.01563,-0.4375 1.50015,1.50015 0 0 0 -0.10351,0 z m -58.339845,1.12109 a 40,49.999999 0 0 0 3.898437,11 l 2.490235,-2.49023 a 1.50015,1.50015 0 0 0 0,-2.11914 z m 76.474605,0.18555 -6.20507,6.20508 a 1.50015,1.50015 0 0 0 0,2.11914 l 2.39843,2.39843 a 40,49.999999 0 0 0 3.80664,-10.72265 z m -68.126949,12.83398 a 1.50015,1.50015 0 0 0 -1.007812,0.4375 l -1.404297,1.4043 A 40,49.999999 0 0 0 104.4668,165.01 l 2.52343,-2.52344 a 1.50015,1.50015 0 0 0 -0.006,-2.125 l -7.066411,-7.06641 a 1.50015,1.50015 0 0 0 -1.117188,-0.44336 z m 19.994139,0 a 1.50015,1.50015 0 0 0 -1,0.4375 l -7.07226,7.07227 a 1.50015,1.50015 0 0 0 0,2.12109 l 7.07226,7.07227 a 1.50015,1.50015 0 0 0 2.11914,0 l 7.07227,-7.07227 a 1.50015,1.50015 0 0 0 0,-2.12109 l -7.07227,-7.07227 a 1.50015,1.50015 0 0 0 -1.11914,-0.4375 z m 20.00196,0 a 1.50015,1.50015 0 0 0 -1.00586,0.44336 l -7.06641,7.06641 a 1.50015,1.50015 0 0 0 0,2.12109 l 7.07227,7.07227 a 1.50015,1.50015 0 0 0 2.11914,0 l 7.06836,-7.06836 a 1.50015,1.50015 0 0 0 0.004,-2.125 l -7.07226,-7.07227 a 1.50015,1.50015 0 0 0 -1.11914,-0.4375 z m 19.99804,0.006 a 1.50015,1.50015 0 0 0 -1,0.4375 l -7.06836,7.06641 a 1.50015,1.50015 0 0 0 -0.006,2.125 l 2.38477,2.38281 a 40,49.999999 0 0 0 8.0332,-10.34961 l -1.22461,-1.22461 a 1.50015,1.50015 0 0 0 -1.11914,-0.4375 z m -50,14.14063 a 1.50015,1.50015 0 0 0 -1.00195,0.4375 l -0.23828,0.23828 a 40,49.999999 0 0 0 6.86133,4.26367 l -4.50391,-4.50195 a 1.50015,1.50015 0 0 0 -1.11719,-0.4375 z m 20.00196,0 a 1.50015,1.50015 0 0 0 -1,0.4375 l -6.85352,6.85156 a 40,49.999999 0 0 0 7.76953,0.95312 40,49.999999 0 0 0 7.99805,-1.00976 l -6.79492,-6.79492 a 1.50015,1.50015 0 0 0 -1.11914,-0.4375 z m 20.00195,0 a 1.50015,1.50015 0 0 0 -1,0.4375 l -4.23047,4.22851 a 40,49.999999 0 0 0 6.46289,-4.11523 l -0.11328,-0.11328 a 1.50015,1.50015 0 0 0 -1.11914,-0.4375 z"
           transform="scale(0.26458333)" />
      </g>
    </g>
    <g
       id="g3042"
       transform="matrix(1.1586479,-0.1180396,0.1180396,1.1586479,-10.558248,-2.5571866)">
      <path
         id="path3020"
         style="color:#000000;font-style:normal;font-variant:normal;font-weight:normal;font-stretch:normal;font-size:medium;line-height:normal;font-family:sans-serif;font-variant-ligatures:normal;font-variant-position:normal;font-variant-caps:normal;font-variant-numeric:normal;font-variant-alternates:normal;font-variant-east-asian:normal;font-feature-settings:normal;font-variation-settings:normal;text-indent:0;text-align:start;text-decoration:none;text-decoration-line:none;text-decoration-style:solid;text-decoration-color:#000000;letter-spacing:normal;word-spacing:normal;text-transform:none;writing-mode:lr-tb;direction:ltr;text-orientation:mixed;dominant-baseline:auto;baseline-shift:baseline;text-anchor:start;white-space:normal;shape-padding:0;shape-margin:0;inline-size:0;clip-rule:nonzero;display:inline;overflow:visible;visibility:visible;isolation:auto;mix-blend-mode:normal;color-interpolation:sRGB;color-interpolation-filters:linearRGB;solid-color:#000000;solid-opacity:1;vector-effect:none;fill:#00ffff;fill-opacity:1;fill-rule:nonzero;stroke:none;stroke-width:6.723;stroke-linecap:round;stroke-linejoin:round;stroke-miterlimit:4;stroke-dasharray:none;stroke-dashoffset:0;stroke-opacity:1;paint-order:markers fill stroke;color-rendering:auto;image-rendering:auto;shape-rendering:auto;text-rendering:auto;enable-background:accumulate;stop-color:#000000"
         d="m 51.798828,101.08789 h -1.53125 C 52.200979,119.99701 68.174086,134.75 87.59375,134.75 c 19.21837,0 35.05169,-14.45137 37.25195,-33.07812 -0.0338,-0.01 -0.06,-0.0186 -0.10742,-0.0313 -0.1636,-0.0435 -0.40662,-0.10541 -0.72266,-0.18359 -0.63204,-0.15636 -1.55372,-0.37547 -2.70898,-0.61328 -2.31052,-0.47562 -5.55767,-1.035864 -9.27148,-1.380859 -7.42763,-0.689987 -16.73419,-0.496402 -24.234379,2.931639 -6.812946,3.11393 -15.792973,2.75024 -23.083984,1.65235 -7.291011,-1.09791 -12.917969,-2.95899 -12.917969,-2.95899 z"
         sodipodi:nodetypes="ccsccsssssc"
         transform="scale(0.26458333)" />
      <path
         id="path2956"
         style="color:#000000;font-style:normal;font-variant:normal;font-weight:normal;font-stretch:normal;font-size:medium;line-height:normal;font-family:sans-serif;font-variant-ligatures:normal;font-variant-position:normal;font-variant-caps:normal;font-variant-numeric:normal;font-variant-alternates:normal;font-variant-east-asian:normal;font-feature-settings:normal;font-variation-settings:normal;text-indent:0;text-align:start;text-decoration:none;text-decoration-line:none;text-decoration-style:solid;text-decoration-color:#000000;letter-spacing:normal;word-spacing:normal;text-transform:none;writing-mode:lr-tb;direction:ltr;text-orientation:mixed;dominant-baseline:auto;baseline-shift:baseline;text-anchor:start;white-space:normal;shape-padding:0;shape-margin:0;inline-size:0;clip-rule:nonzero;display:inline;overflow:visible;visibility:visible;opacity:1;isolation:auto;mix-blend-mode:normal;color-interpolation:sRGB;color-interpolation-filters:linearRGB;solid-color:#000000;solid-opacity:1;vector-effect:none;fill:#ffffff;fill-opacity:1;fill-rule:nonzero;stroke:none;stroke-width:3.77953;stroke-linecap:round;stroke-linejoin:round;stroke-miterlimit:4;stroke-dasharray:none;stroke-dashoffset:0;stroke-opacity:1;paint-order:markers fill stroke;color-rendering:auto;image-rendering:auto;shape-rendering:auto;text-rendering:auto;enable-background:accumulate;stop-color:#000000;stop-opacity:1"
         d="m 50.072266,93.867188 a 3.361474,3.361474 0 0 0 -3.367188,3.359374 c 0,21.408398 16.554694,39.023898 37.529297,40.740238 v 37.06445 h -9.773437 a 0.31349591,0.31349591 0 0 0 -0.316407,0.31055 v 6.09765 a 0.31349591,0.31349591 0 0 0 0.316407,0.31836 h 26.265622 a 0.31349591,0.31349591 0 0 0 0.3086,-0.31836 v -6.09765 a 0.31349591,0.31349591 0 0 0 -0.3086,-0.31055 H 90.953125 V 137.9668 c 20.974225,-1.7167 37.529295,-19.3321 37.529295,-40.740238 a 3.361474,3.361474 0 0 0 -3.36719,-3.359374 3.361474,3.361474 0 0 0 -3.35742,3.359374 c 0,18.906968 -15.25709,34.164058 -34.16406,34.164058 -18.907,0 -34.164063,-15.25709 -34.164062,-34.164058 a 3.361474,3.361474 0 0 0 -3.357422,-3.359374 z"
         transform="scale(0.26458333)" />
    </g>
  </g>
</svg>
