<?xml version="1.0" encoding="UTF-8" standalone="no"?>
<svg
   sodipodi:docname="gnome-power-manager.svg"
   id="svg8"
   version="1.1"
   viewBox="0 0 67.733331 67.733331"
   height="256"
   width="256"
   xmlns:inkscape="http://www.inkscape.org/namespaces/inkscape"
   xmlns:sodipodi="http://sodipodi.sourceforge.net/DTD/sodipodi-0.dtd"
   xmlns="http://www.w3.org/2000/svg"
   xmlns:svg="http://www.w3.org/2000/svg">
  <defs
     id="defs2" />
  <sodipodi:namedview
     inkscape:window-maximized="1"
     inkscape:window-y="27"
     inkscape:window-x="1920"
     inkscape:window-height="1016"
     inkscape:window-width="1920"
     units="px"
     showgrid="false"
     inkscape:document-rotation="0"
     inkscape:current-layer="g1939"
     inkscape:document-units="px"
     inkscape:cy="130.0966"
     inkscape:cx="108.27573"
     inkscape:zoom="1.8101934"
     inkscape:pageshadow="2"
     inkscape:pageopacity="0.0"
     borderopacity="1.0"
     bordercolor="#666666"
     pagecolor="#ffffff"
     id="base"
     inkscape:pagecheckerboard="0"
     inkscape:showpageshadow="2"
     inkscape:deskcolor="#d1d1d1" />
  <g
     id="g1043"
     transform="translate(75.382088,-6.1796408)" />
  <g
     inkscape:label="Background"
     id="layer2"
     inkscape:groupmode="layer"
     style="display:inline">
    <g
       inkscape:groupmode="layer"
       id="layer13"
       inkscape:label="Shadow"
       style="display:inline;opacity:0.4">
      <circle
         cy="34.924999"
         cx="33.866665"
         id="circle1383"
         style="display:inline;opacity:1;fill:#000000;fill-opacity:1;stroke-width:1.70089;paint-order:stroke fill markers"
         r="31.749998" />
    </g>
    <g
       inkscape:groupmode="layer"
       id="g962"
       inkscape:label="Colour"
       style="display:inline">
      <circle
         style="fill:#333333;stroke:none;stroke-width:6.82436;stroke-linecap:round;stroke-linejoin:round;paint-order:stroke fill markers"
         id="path861"
         cx="33.866665"
         cy="33.866665"
         r="31.749998" />
    </g>
    <g
       style="display:inline;opacity:0.1"
       inkscape:label="Highlight"
       id="layer1"
       inkscape:groupmode="layer">
      <path
         d="M 33.866666,2.1166681 A 31.749998,31.749998 0 0 0 2.1166681,33.866666 31.749998,31.749998 0 0 0 2.1216512,34.430308 31.749998,31.749998 0 0 1 33.866666,3.2505966 31.749998,31.749998 0 0 1 65.611679,34.436953 31.749998,31.749998 0 0 0 65.616663,33.866666 31.749998,31.749998 0 0 0 33.866666,2.1166681 Z"
         style="display:inline;opacity:1;fill:#ffffff;fill-opacity:1;stroke-width:1.70089;paint-order:stroke fill markers"
         id="circle849" />
    </g>
  </g>
  <g
     inkscape:groupmode="layer"
     id="g1939"
     inkscape:label="Graphic"
     style="display:inline">
    <path
       id="path1293"
       style="color:#000000;font-style:normal;font-variant:normal;font-weight:normal;font-stretch:normal;font-size:medium;line-height:normal;font-family:sans-serif;font-variant-ligatures:normal;font-variant-position:normal;font-variant-caps:normal;font-variant-numeric:normal;font-variant-alternates:normal;font-variant-east-asian:normal;font-feature-settings:normal;font-variation-settings:normal;text-indent:0;text-align:start;text-decoration:none;text-decoration-line:none;text-decoration-style:solid;text-decoration-color:#000000;letter-spacing:normal;word-spacing:normal;text-transform:none;writing-mode:lr-tb;direction:ltr;text-orientation:mixed;dominant-baseline:auto;baseline-shift:baseline;text-anchor:start;white-space:normal;shape-padding:0;shape-margin:0;inline-size:0;clip-rule:nonzero;display:inline;overflow:visible;visibility:visible;opacity:0.4;isolation:auto;mix-blend-mode:normal;color-interpolation:sRGB;color-interpolation-filters:linearRGB;solid-color:#000000;solid-opacity:1;vector-effect:none;fill:#000000;fill-opacity:1;fill-rule:nonzero;stroke:none;stroke-width:1.34268;stroke-linecap:square;stroke-linejoin:round;stroke-miterlimit:4;stroke-dasharray:none;stroke-dashoffset:0;stroke-opacity:1;paint-order:stroke fill markers;color-rendering:auto;image-rendering:auto;shape-rendering:auto;text-rendering:auto;enable-background:accumulate;stop-color:#000000"
       d="m 38.626064,16.317866 c -0.02294,-5.29e-4 -0.04643,-3.7e-4 -0.06976,5.29e-4 -0.27909,0.0099 -0.544065,0.124996 -0.742074,0.321945 L 22.129914,32.323091 c -0.603603,0.603494 -0.327254,1.633969 0.497127,1.855182 l 7.805208,2.091862 -3.202387,11.950691 c -0.194064,0.721572 0.36644,1.424784 1.11311,1.396299 0.279091,-0.0099 0.544066,-0.124995 0.742072,-0.321945 L 44.769358,33.612416 c 0.603604,-0.603493 0.327774,-1.633971 -0.49661,-1.855184 L 36.467022,29.66537 39.669411,17.71468 c 0.188,-0.699022 -0.331817,-1.380788 -1.043347,-1.396814 z" />
    <g
       id="g2165">
      <path
         style="color:#000000;font-style:normal;font-variant:normal;font-weight:normal;font-stretch:normal;font-size:medium;line-height:normal;font-family:sans-serif;font-variant-ligatures:normal;font-variant-position:normal;font-variant-caps:normal;font-variant-numeric:normal;font-variant-alternates:normal;font-variant-east-asian:normal;font-feature-settings:normal;font-variation-settings:normal;text-indent:0;text-align:start;text-decoration:none;text-decoration-line:none;text-decoration-style:solid;text-decoration-color:#000000;letter-spacing:normal;word-spacing:normal;text-transform:none;writing-mode:lr-tb;direction:ltr;text-orientation:mixed;dominant-baseline:auto;baseline-shift:baseline;text-anchor:start;white-space:normal;shape-padding:0;shape-margin:0;inline-size:0;clip-rule:nonzero;display:inline;overflow:visible;visibility:visible;isolation:auto;mix-blend-mode:normal;color-interpolation:sRGB;color-interpolation-filters:linearRGB;solid-color:#000000;solid-opacity:1;vector-effect:none;fill:#f3c500;fill-opacity:1;fill-rule:nonzero;stroke:none;stroke-width:1.34268;stroke-linecap:square;stroke-linejoin:round;stroke-miterlimit:4;stroke-dasharray:none;stroke-dashoffset:0;stroke-opacity:1;paint-order:stroke fill markers;color-rendering:auto;image-rendering:auto;shape-rendering:auto;text-rendering:auto;enable-background:accumulate;stop-color:#000000"
         d="m 28.342952,48.558733 c 0.279091,-0.0099 0.544114,-0.125024 0.742121,-0.321973 L 44.769266,32.554012 c 0.603604,-0.603494 0.327708,-1.634085 -0.496675,-1.855298 l -10.71168,-2.870318 c -0.592592,-0.159633 -1.202157,0.192386 -1.360077,0.785437 L 27.229768,47.16256 c -0.194063,0.721571 0.366515,1.424658 1.113184,1.396173 z"
         id="path1951" />
      <path
         style="color:#000000;font-style:normal;font-variant:normal;font-weight:normal;font-stretch:normal;font-size:medium;line-height:normal;font-family:sans-serif;font-variant-ligatures:normal;font-variant-position:normal;font-variant-caps:normal;font-variant-numeric:normal;font-variant-alternates:normal;font-variant-east-asian:normal;font-feature-settings:normal;font-variation-settings:normal;text-indent:0;text-align:start;text-decoration:none;text-decoration-line:none;text-decoration-style:solid;text-decoration-color:#000000;letter-spacing:normal;word-spacing:normal;text-transform:none;writing-mode:lr-tb;direction:ltr;text-orientation:mixed;dominant-baseline:auto;baseline-shift:baseline;text-anchor:start;white-space:normal;shape-padding:0;shape-margin:0;inline-size:0;clip-rule:nonzero;display:inline;overflow:visible;visibility:visible;isolation:auto;mix-blend-mode:normal;color-interpolation:sRGB;color-interpolation-filters:linearRGB;solid-color:#000000;solid-opacity:1;vector-effect:none;fill:#e7e700;fill-opacity:1;fill-rule:nonzero;stroke:none;stroke-width:1.34268;stroke-linecap:square;stroke-linejoin:round;stroke-miterlimit:4;stroke-dasharray:none;stroke-dashoffset:0;stroke-opacity:1;paint-order:stroke fill markers;color-rendering:auto;image-rendering:auto;shape-rendering:auto;text-rendering:auto;enable-background:accumulate;stop-color:#000000"
         d="m 38.55647,15.260088 c -0.279091,0.0099 -0.544114,0.125024 -0.742122,0.321973 L 22.130154,31.264809 c -0.603603,0.603494 -0.327706,1.634085 0.496676,1.855298 l 10.71168,2.870318 c 0.592592,0.159633 1.202157,-0.192385 1.360077,-0.785437 L 39.669653,16.656261 C 39.863717,15.93469 39.303138,15.231603 38.55647,15.260088 Z"
         id="path1959" />
    </g>
    <g
       id="g1100">
      <path
         d="M 33.866665,10.120312 A 24.804686,24.804686 0 0 0 9.061979,34.924998 24.804686,24.804686 0 0 0 33.866665,59.729684 24.804686,24.804686 0 0 0 58.671351,34.924998 24.804686,24.804686 0 0 0 33.866665,10.120312 Z m 0,3.100586 a 21.7041,21.7041 0 0 1 21.7041,21.7041 21.7041,21.7041 0 0 1 -21.7041,21.7041 21.7041,21.7041 0 0 1 -21.704101,-21.7041 21.7041,21.7041 0 0 1 21.704101,-21.7041 z"
         style="display:inline;opacity:0.4;fill:#000000;stroke-width:3.18216;paint-order:stroke fill markers"
         id="path1370" />
      <path
         id="path830"
         style="display:inline;fill:#ffffff;stroke-width:3.18216;paint-order:stroke fill markers"
         d="M -41.515423,15.24162 A 24.804686,24.804686 0 0 0 -66.320109,40.046306 24.804686,24.804686 0 0 0 -41.515423,64.850992 24.804686,24.804686 0 0 0 -16.710737,40.046306 24.804686,24.804686 0 0 0 -41.515423,15.24162 Z m 0,3.100585 a 21.7041,21.7041 0 0 1 21.7041,21.704101 21.7041,21.7041 0 0 1 -21.7041,21.7041 21.7041,21.7041 0 0 1 -21.704101,-21.7041 21.7041,21.7041 0 0 1 21.704101,-21.704101 z"
         transform="translate(75.382088,-6.1796409)" />
    </g>
  </g>
</svg>
