<?xml version="1.0" encoding="UTF-8" standalone="no"?>
<svg
   width="256"
   height="256"
   viewBox="0 0 67.733332 67.733335"
   version="1.1"
   id="svg8"
   sodipodi:docname="gparted.svg"
   xmlns:inkscape="http://www.inkscape.org/namespaces/inkscape"
   xmlns:sodipodi="http://sodipodi.sourceforge.net/DTD/sodipodi-0.dtd"
   xmlns="http://www.w3.org/2000/svg"
   xmlns:svg="http://www.w3.org/2000/svg">
  <defs
     id="defs2" />
  <sodipodi:namedview
     id="base"
     pagecolor="#ffffff"
     bordercolor="#666666"
     borderopacity="1.0"
     inkscape:pageopacity="0.0"
     inkscape:pageshadow="2"
     inkscape:zoom="2.8284273"
     inkscape:cx="128.69343"
     inkscape:cy="121.44558"
     inkscape:document-units="px"
     inkscape:current-layer="layer2"
     inkscape:document-rotation="0"
     showgrid="false"
     inkscape:window-width="1920"
     inkscape:window-height="1016"
     inkscape:window-x="1920"
     inkscape:window-y="27"
     inkscape:window-maximized="1"
     units="px"
     inkscape:pagecheckerboard="0"
     inkscape:showpageshadow="2"
     inkscape:deskcolor="#d1d1d1" />
  <g
     inkscape:groupmode="layer"
     id="layer4"
     inkscape:label="Disk"
     style="display:inline">
    <g
       inkscape:groupmode="layer"
       id="layer1"
       inkscape:label="Shadow"
       style="display:inline;opacity:0.4">
      <path
         transform="scale(0.26458333)"
         d="m 63,20 v 0.06445 C 50.672882,20.917288 41,31.120739 41,43.671875 V 220.32812 c 0,12.55114 9.672882,22.7546 22,23.60743 V 244 H 64.671875 104.32812 128 151.67188 191.32812 193 v -0.0644 c 12.32711,-0.85283 22,-11.05628 22,-23.60743 V 43.671875 C 215,31.12074 205.32711,20.917285 193,20.064453 V 20 H 191.32812 151.67188 128 104.32812 64.671875 Z"
         style="display:inline;opacity:1;fill:#000000;fill-opacity:1;stroke-width:3.74566;paint-order:stroke fill markers"
         id="path1561" />
    </g>
    <g
       style="display:inline"
       inkscape:label="Colour"
       id="layer9"
       inkscape:groupmode="layer">
      <path
         id="rect1509"
         style="fill:#bdbdbd;fill-opacity:1;stroke-width:3.74566;paint-order:stroke fill markers"
         d="m 63,16 v 0.06445 C 50.672882,16.917288 41,27.120738 41,39.671875 V 216.32812 c 0,12.55115 9.672882,22.7546 22,23.60743 V 240 h 1.671875 39.656245 c 8.22396,0 16.44792,0 24.67188,0 V 16 c -8.22396,0 -16.44792,0 -24.67188,0 H 64.671875 Z"
         transform="scale(0.26458333)"
         sodipodi:nodetypes="ccssccccccccc" />
      <path
         d="m 51.064583,4.2333333 v 0.017053 c 3.261549,0.2256451 5.820833,2.9253092 5.820833,6.2461307 v 46.740297 c 0,3.320823 -2.559284,6.020488 -5.820833,6.246133 v 0.01705 H 50.622233 40.129851 33.866667 V 57.236814 10.496517 4.2333333 h 6.263184 10.492382 z"
         style="fill:#c5c5c5;fill-opacity:1;stroke-width:0.991039;paint-order:stroke fill markers"
         id="path1533" />
    </g>
    <g
       inkscape:groupmode="layer"
       id="layer5"
       inkscape:label="Highlight"
       style="display:inline;opacity:0.4">
      <path
         d="m 16.66875,4.2333332 v 0.017053 c -3.26155,0.225646 -5.820833,2.9253087 -5.820833,6.2461298 v 1.058334 c 0,-3.3208215 2.559283,-6.0204845 5.820833,-6.2461304 v -0.017053 h 0.44235 10.492381 6.263185 6.263185 10.49238 0.442352 v 0.017053 c 3.261548,0.2256451 5.820833,2.9253092 5.820833,6.2461304 v -1.058334 c 0,-3.3208208 -2.559285,-6.0204846 -5.820833,-6.2461298 V 4.2333332 H 50.622231 40.129851 33.866666 27.603481 17.1111 Z"
         style="fill:#ffffff;fill-opacity:1;stroke-width:0.991039;paint-order:stroke fill markers;opacity:1"
         id="path1539" />
    </g>
  </g>
  <g
     inkscape:groupmode="layer"
     id="layer2"
     inkscape:label="Details"
     style="display:inline">
    <g
       inkscape:groupmode="layer"
       id="layer8"
       inkscape:label="Shadow"
       style="display:inline;opacity:0.4">
      <path
         id="path870"
         style="display:inline;fill:#000000;stroke-width:0.0493482"
         d="m 48.462676,35.189583 a 14.552081,14.552083 0 0 0 -10.333735,4.262273 14.552081,14.552083 0 0 0 -4.261758,10.28981 h -5.16e-4 a 14.552081,14.552083 0 0 0 4.261755,10.290328 14.552081,14.552083 0 0 0 0.02015,0.01912 14.552081,14.552083 0 0 0 10.270175,4.242636 v -5.16e-4 a 14.552081,14.552083 0 0 0 10.28981,-4.261757 14.552081,14.552083 0 0 0 0,-20.57962 14.552081,14.552083 0 0 0 -10.245884,-4.262273 z m -0.01292,5.457031 a 9.0950509,9.0950522 0 0 1 6.400125,2.66392 9.0950509,9.0950522 0 0 1 0,12.862264 9.0950509,9.0950522 0 0 1 -6.431132,2.66392 9.0950509,9.0950522 0 0 1 -6.387724,-2.620513 9.0950509,9.0950522 0 0 1 -0.04341,-0.04341 9.0950509,9.0950522 0 0 1 -2.663921,-6.431132 9.0950509,9.0950522 0 0 1 2.663921,-6.431132 9.0950509,9.0950522 0 0 1 6.462138,-2.66392 z" />
      <path
         id="path886"
         style="display:inline;fill:#000000;fill-opacity:1;stroke-width:0.0248451"
         inkscape:transform-center-x="2.0385723"
         d="m 34.178686,40.614414 c -2.170522,0.653646 -12.16402,8.183951 -17.713645,13.503178 -5.120398,4.725724 1.158564,9.888311 6.13022,4.12997 5.162375,-5.979242 12.730369,-16.956273 11.909785,-17.66947 -0.07154,-0.02023 -0.181659,-0.0073 -0.32636,0.03633 z"
         inkscape:transform-center-y="0.045890486" />
    </g>
    <path
       id="path31"
       style="fill:#4d4d4d;stroke-width:0.0426186"
       d="m 33.842787,11.90625 c -1.564141,0.0029 -3.113987,0.297844 -4.569906,0.869541 -0.05189,0.02032 -0.103642,0.04098 -0.155256,0.06198 -0.154515,0.06321 -0.307756,0.129501 -0.45963,0.198821 -0.101472,0.04611 -0.202325,0.09357 -0.302534,0.142366 -0.200305,0.09782 -0.397971,0.200949 -0.59279,0.309282 -0.146078,0.08118 -0.290521,0.165269 -0.433245,0.252212 -0.332948,0.2027 -0.656286,0.420781 -0.968964,0.653534 -0.08947,0.06653 -0.178049,0.134238 -0.265716,0.20312 -0.262612,0.206805 -0.516868,0.424005 -0.762162,0.651082 -0.04096,0.03778 -0.08167,0.07582 -0.122117,0.114142 -0.28254,0.268561 -0.552432,0.550122 -0.808801,0.843769 -0.03669,0.0419 -0.0731,0.08403 -0.109228,0.126413 -0.216604,0.254718 -0.422957,0.517979 -0.618566,0.789154 -0.06503,0.09038 -0.128857,0.181614 -0.191462,0.273687 -0.125649,0.184123 -0.246377,0.371557 -0.362056,0.562102 -0.02875,0.04747 -0.05718,0.09513 -0.0853,0.14298 -0.02834,0.04809 -0.05637,0.09636 -0.08407,0.144825 -0.02753,0.0483 -0.05473,0.09678 -0.08162,0.145433 -0.02692,0.04891 -0.05351,0.09801 -0.07977,0.147275 -0.02631,0.04892 -0.05229,0.09801 -0.07794,0.147277 -0.20536,0.395754 -0.389514,0.802156 -0.551681,1.217482 -0.04045,0.103796 -0.07953,0.208125 -0.117205,0.31296 -0.01896,0.05224 -0.03758,0.104606 -0.05585,0.157094 v 6.29e-4 c -0.01815,0.05245 -0.03594,0.105021 -0.05339,0.157708 v 6.29e-4 c -0.01753,0.05266 -0.03472,0.105434 -0.05155,0.158321 -0.05024,0.159413 -0.0973,0.319812 -0.14114,0.481102 -0.01467,0.0537 -0.02899,0.107499 -0.04295,0.16139 v 6.28e-4 c -0.01386,0.05371 -0.02736,0.107505 -0.0405,0.16139 v 6.28e-4 c -0.01325,0.05392 -0.02614,0.107919 -0.03867,0.162005 -0.04999,0.217245 -0.09419,0.435781 -0.13255,0.655377 -0.0096,0.05476 -0.01876,0.109579 -0.0276,0.164459 v 6.27e-4 c -0.0087,0.05476 -0.01714,0.109584 -0.02516,0.164458 -0.0081,0.05518 -0.01591,0.110407 -0.02332,0.165687 -0.01477,0.110479 -0.02807,0.22115 -0.03989,0.331983 -0.01191,0.110723 -0.02234,0.221599 -0.0313,0.332599 -0.0088,0.110968 -0.0162,0.222048 -0.02208,0.333212 v 6.29e-4 c -0.008,0.150441 -0.01335,0.301014 -0.01596,0.451646 v 0.01228 c -1.82e-4,0.01272 -0.0019,0.02512 -0.0019,0.03795 v 0.165683 9.946038 c 0,1.452191 1.169338,2.621513 2.621545,2.621513 3.324998,0 6.988627,-0.0039 10.280608,-0.0039 3.269854,-0.08707 6.376927,-1.445543 8.661164,-3.786835 0.03893,-0.04009 0.07758,-0.08043 0.115972,-0.121036 2.218829,-2.335585 3.456028,-5.434037 3.456118,-8.655533 -9.7e-5,-0.05564 -5.64e-4,-0.111276 -0.0014,-0.166909 -0.02685,-2.014554 -0.537654,-3.993127 -1.489347,-5.768924 v -6.28e-4 C 42.755494,14.45477 38.498794,11.906582 33.866514,11.90654 h -0.02394 z m -0.02885,4.712832 c 0.01759,-5.9e-5 0.03518,-5.9e-5 0.05277,0 4.338096,-2e-6 7.85482,3.516674 7.854821,7.854716 0,4.338041 -3.51672,7.854718 -7.854816,7.854719 -4.338096,-10e-7 -7.854816,-3.516678 -7.854816,-7.854719 -9.6e-5,-4.317513 3.484571,-7.825707 7.802041,-7.854716 z"
       sodipodi:nodetypes="ccccccccccccccccccccccccccccccccccsccccccccccscsccccccccsccccsscc" />
    <path
       id="path1106"
       style="fill:#f9f9f9;fill-opacity:1;stroke-width:0.0248451"
       inkscape:transform-center-x="2.0385723"
       d="m 34.178686,39.55608 c -2.170522,0.653646 -12.16402,8.183951 -17.713645,13.503178 -5.120398,4.725724 1.158564,9.888311 6.13022,4.12997 5.162375,-5.979242 12.730369,-16.956273 11.909785,-17.66947 -0.07154,-0.02023 -0.181659,-0.0073 -0.32636,0.03633 z"
       inkscape:transform-center-y="0.045890486" />
    <circle
       cy="56.620831"
       cx="17.727215"
       id="circle861"
       style="display:inline;fill:#b8b8b8;fill-opacity:1;stroke-width:0.017581"
       r="1.3229166" />
    <circle
       style="display:inline;fill:#e6e6e6;fill-opacity:1;stroke-width:0.0264583"
       id="path18"
       cx="17.727083"
       cy="11.1125"
       r="1.0583333" />
    <circle
       r="1.0583333"
       cy="11.1125"
       cx="49.97979"
       id="path18-3"
       style="display:inline;fill:#e6e6e6;fill-opacity:1;stroke-width:0.0264583" />
    <circle
       r="1.0583333"
       cy="56.620834"
       cx="49.97979"
       id="circle856"
       style="display:inline;fill:#e6e6e6;fill-opacity:1;stroke-width:0.0264583" />
    <g
       id="g1077"
       transform="matrix(1.3749998,0,0,1.375,-17.065616,-18.620052)"
       style="display:inline">
      <path
         transform="scale(0.26458333)"
         d="m 140,185 a 39.999999,39.999999 0 0 0 11.71484,28.28516 39.999999,39.999999 0 0 0 0.0547,0.0527 A 39.999999,39.999999 0 0 0 180,225 v -15 a 25.000001,25.000001 0 0 1 -17.55859,-7.20312 25.000001,25.000001 0 0 1 -0.11914,-0.11915 A 25.000001,25.000001 0 0 1 155,185 Z"
         style="fill:#00ffff;stroke-width:0.135646"
         id="path31-3" />
      <path
         d="m 55.108549,56.431463 a 10.583333,10.583333 0 0 0 0,-14.967093 10.583333,10.583333 0 0 0 -14.967093,-1e-6 l 2.80633,2.80633 a 6.6145835,6.6145835 0 0 1 9.354433,10e-7 6.6145835,6.6145835 0 0 1 0,9.354433 z"
         style="display:inline;fill:#00ff00;stroke-width:0.0358897"
         id="path31-3-5" />
      <path
         d="m 47.625006,59.53085 a 10.583333,10.583333 0 0 0 7.483544,-3.099388 l -2.80633,-2.80633 a 6.6145835,6.6145835 0 0 1 -4.677216,1.937391 z"
         style="display:inline;fill:#d40000;stroke-width:0.0358897"
         id="path31-3-56" />
      <path
         id="path31-3-56-2"
         style="display:inline;fill:#ff7500;fill-opacity:1;stroke-width:0.0358897"
         d="m 37.042071,48.947916 a 10.583333,10.583333 0 0 1 3.099386,-7.483546 l 2.80633,2.80633 a 6.6145836,6.6145836 0 0 0 -1.93739,4.677217 z" />
    </g>
  </g>
</svg>
