<?xml version="1.0" encoding="UTF-8" standalone="no"?>
<svg
   xmlns:dc="http://purl.org/dc/elements/1.1/"
   xmlns:cc="http://creativecommons.org/ns#"
   xmlns:rdf="http://www.w3.org/1999/02/22-rdf-syntax-ns#"
   xmlns:svg="http://www.w3.org/2000/svg"
   xmlns="http://www.w3.org/2000/svg"
   xmlns:sodipodi="http://sodipodi.sourceforge.net/DTD/sodipodi-0.dtd"
   xmlns:inkscape="http://www.inkscape.org/namespaces/inkscape"
   width="256"
   height="256"
   viewBox="0 0 67.733332 67.733335"
   version="1.1"
   id="svg8"
   inkscape:version="1.0 (4035a4fb49, 2020-05-01)"
   sodipodi:docname="gparted.svg">
  <defs
     id="defs2" />
  <sodipodi:namedview
     id="base"
     pagecolor="#ffffff"
     bordercolor="#666666"
     borderopacity="1.0"
     inkscape:pageopacity="0.0"
     inkscape:pageshadow="2"
     inkscape:zoom="2.8284271"
     inkscape:cx="156.8931"
     inkscape:cy="112.06454"
     inkscape:document-units="px"
     inkscape:current-layer="layer1"
     inkscape:document-rotation="0"
     showgrid="false"
     inkscape:window-width="1836"
     inkscape:window-height="1016"
     inkscape:window-x="2004"
     inkscape:window-y="27"
     inkscape:window-maximized="1"
     units="px" />
  <metadata
     id="metadata5">
    <rdf:RDF>
      <cc:Work
         rdf:about="">
        <dc:format>image/svg+xml</dc:format>
        <dc:type
           rdf:resource="http://purl.org/dc/dcmitype/StillImage" />
        <dc:title />
      </cc:Work>
    </rdf:RDF>
  </metadata>
  <g
     inkscape:groupmode="layer"
     id="layer4"
     inkscape:label="Disk"
     style="display:inline">
    <g
       inkscape:groupmode="layer"
       id="layer1"
       inkscape:label="Shadow"
       style="display:inline;opacity:0.4">
      <path
         transform="scale(0.26458333)"
         d="m 63,20 v 0.06445 C 50.672882,20.917288 41,31.120739 41,43.671875 V 220.32812 c 0,12.55114 9.672882,22.7546 22,23.60743 V 244 H 64.671875 104.32812 128 151.67188 191.32812 193 v -0.0644 c 12.32711,-0.85283 22,-11.05628 22,-23.60743 V 43.671875 C 215,31.12074 205.32711,20.917285 193,20.064453 V 20 H 191.32812 151.67188 128 104.32812 64.671875 Z"
         style="display:inline;opacity:1;fill:#000000;fill-opacity:1;stroke-width:3.74566;paint-order:stroke fill markers"
         id="path1561" />
    </g>
    <g
       style="display:inline"
       inkscape:label="Colour"
       id="layer9"
       inkscape:groupmode="layer">
      <g
         id="g1537">
        <path
           id="rect1509"
           style="fill:#d6d6d6;fill-opacity:1;stroke-width:3.74566;paint-order:stroke fill markers"
           d="m 63,16 v 0.06445 C 50.672884,16.917285 41,27.12074 41,39.671875 V 216.32812 c 0,12.55114 9.672884,22.7546 22,23.60743 V 240 H 64.671875 104.32812 128 V 216.32812 39.671875 16 H 104.32812 64.671875 Z"
           transform="scale(0.26458333)" />
        <path
           d="m 51.064583,4.2333333 v 0.017053 c 3.261549,0.2256451 5.820833,2.9253092 5.820833,6.2461307 v 46.740297 c 0,3.320823 -2.559284,6.020488 -5.820833,6.246133 v 0.01705 H 50.622233 40.129851 33.866667 V 57.236814 10.496517 4.2333333 h 6.263184 10.492382 z"
           style="fill:#dfdfdf;fill-opacity:1;stroke-width:0.991039;paint-order:stroke fill markers"
           id="path1533" />
      </g>
    </g>
    <g
       inkscape:groupmode="layer"
       id="layer5"
       inkscape:label="Highlight"
       style="display:inline;opacity:0.4">
      <path
         d="m 16.66875,4.2333332 v 0.017053 c -3.26155,0.225646 -5.820833,2.9253087 -5.820833,6.2461298 v 1.058334 c 0,-3.3208215 2.559283,-6.0204845 5.820833,-6.2461304 v -0.017053 h 0.44235 10.492381 6.263185 6.263185 10.49238 0.442352 v 0.017053 c 3.261548,0.2256451 5.820833,2.9253092 5.820833,6.2461304 v -1.058334 c 0,-3.3208208 -2.559285,-6.0204846 -5.820833,-6.2461298 V 4.2333332 H 50.622231 40.129851 33.866666 27.603481 17.1111 Z"
         style="fill:#ffffff;fill-opacity:1;stroke-width:0.991039;paint-order:stroke fill markers;opacity:1"
         id="path1539" />
    </g>
  </g>
  <g
     inkscape:groupmode="layer"
     id="layer2"
     inkscape:label="Details"
     style="display:inline">
    <g
       inkscape:groupmode="layer"
       id="layer3"
       inkscape:label="Indicator"
       style="display:inline">
      <g
         id="g1077"
         transform="matrix(1.3749998,0,0,1.375,-17.859367,-18.620052)">
        <path
           transform="scale(0.26458333)"
           d="m 140,185 a 39.999999,39.999999 0 0 0 11.71484,28.28516 39.999999,39.999999 0 0 0 0.0547,0.0527 A 39.999999,39.999999 0 0 0 180,225 v -15 a 25.000001,25.000001 0 0 1 -17.55859,-7.20312 25.000001,25.000001 0 0 1 -0.11914,-0.11915 A 25.000001,25.000001 0 0 1 155,185 Z"
           style="fill:#00ffff;stroke-width:0.135646"
           id="path31-3" />
        <path
           d="m 55.108549,56.431463 a 10.583333,10.583333 0 0 0 0,-14.967093 10.583333,10.583333 0 0 0 -14.967093,-1e-6 l 2.80633,2.80633 a 6.6145835,6.6145835 0 0 1 9.354433,10e-7 6.6145835,6.6145835 0 0 1 0,9.354433 z"
           style="display:inline;fill:#00ff00;stroke-width:0.0358897"
           id="path31-3-5" />
        <path
           d="m 47.625006,59.53085 a 10.583333,10.583333 0 0 0 7.483544,-3.099388 l -2.80633,-2.80633 a 6.6145835,6.6145835 0 0 1 -4.677216,1.937391 z"
           style="display:inline;fill:#d40000;stroke-width:0.0358897"
           id="path31-3-56" />
        <path
           id="path31-3-56-2"
           style="display:inline;fill:#ff7500;fill-opacity:1;stroke-width:0.0358897"
           d="m 37.042071,48.947916 a 10.583333,10.583333 0 0 1 3.099386,-7.483546 l 2.80633,2.80633 a 6.6145836,6.6145836 0 0 0 -1.93739,4.677217 z" />
      </g>
    </g>
    <g
       inkscape:groupmode="layer"
       id="layer8"
       inkscape:label="Shadow"
       style="display:inline">
      <path
         d="m 30.635611,48.62649 c -1.762123,-0.01498 -9.977558,3.9747 -14.565519,7.211446 -4.228992,2.822927 0.708951,9.198639 4.841565,5.407422 4.291147,-3.936656 10.631964,-11.693189 9.987505,-12.560991 -0.05713,-0.038 -0.146076,-0.05688 -0.263551,-0.05788 z"
         inkscape:transform-center-x="1.6101484"
         style="display:inline;fill:#999999;fill-opacity:1;stroke-width:0.0212132"
         id="path868" />
    </g>
    <path
       id="path31"
       style="fill:#4d4d4d;stroke-width:0.0381325"
       d="m 33.845307,11.773958 a 11.244797,11.244655 0 0 0 -4.088867,0.778011 11.244798,11.244656 0 0 0 -0.138913,0.05545 11.244797,11.244655 0 0 0 -0.411248,0.177893 11.244798,11.244656 0 0 0 -0.270689,0.12738 11.244797,11.244655 0 0 0 -0.530392,0.276725 11.244798,11.244656 0 0 0 -0.38764,0.225663 11.244797,11.244655 0 0 0 -0.866968,0.584743 11.244798,11.244656 0 0 0 -0.237746,0.181738 11.244797,11.244655 0 0 0 -0.681935,0.582548 11.244798,11.244656 0 0 0 -0.109263,0.102128 11.244797,11.244655 0 0 0 -0.723665,0.754951 11.244798,11.244656 0 0 0 -0.09773,0.113106 11.244797,11.244655 0 0 0 -0.553454,0.706085 11.244798,11.244656 0 0 0 -0.171308,0.244879 11.244797,11.244655 0 0 0 -0.323946,0.502934 11.244798,11.244656 0 0 0 -0.07632,0.12793 11.244797,11.244655 0 0 0 -0.07522,0.129579 11.244798,11.244656 0 0 0 -0.07303,0.130125 11.244797,11.244655 0 0 0 -0.07138,0.131773 11.244798,11.244656 0 0 0 -0.06973,0.131774 11.244797,11.244655 0 0 0 -0.493609,1.089326 11.244798,11.244656 0 0 0 -0.104868,0.280018 11.244798,11.244656 0 0 0 -0.04997,0.140558 11.244797,11.244655 0 0 0 0,5.62e-4 11.244798,11.244656 0 0 0 -0.04777,0.141108 11.244797,11.244655 0 0 0 0,5.62e-4 11.244798,11.244656 0 0 0 -0.04612,0.141656 11.244797,11.244655 0 0 0 -0.126284,0.43046 11.244798,11.244656 0 0 0 -0.03843,0.144402 11.244797,11.244655 0 0 0 0,5.62e-4 11.244798,11.244656 0 0 0 -0.03624,0.144401 11.244797,11.244655 0 0 0 0,5.62e-4 11.244798,11.244656 0 0 0 -0.03459,0.144951 11.244797,11.244655 0 0 0 -0.118597,0.586391 11.244798,11.244656 0 0 0 -0.0247,0.147147 11.244797,11.244655 0 0 0 0,5.62e-4 11.244798,11.244656 0 0 0 -0.02251,0.147147 11.244797,11.244655 0 0 0 -0.02087,0.148246 11.244798,11.244656 0 0 0 -0.03569,0.297038 11.244797,11.244655 0 0 0 -0.028,0.297588 11.244798,11.244656 0 0 0 -0.01976,0.298138 11.244797,11.244655 0 0 0 0,5.62e-4 11.244798,11.244656 0 0 0 -0.01428,0.404105 11.244797,11.244655 0 0 0 0,0.01099 c -1.63e-4,0.01138 -0.0017,0.02247 -0.0017,0.03396 v 0.148244 8.899092 c 0,1.29933 1.046251,2.345566 2.345594,2.345566 h 8.030589 c 0.09056,0 0.179559,-0.0061 0.267393,-0.01592 a 11.244798,11.244656 0 0 0 0.131223,0.0061 11.244797,11.244655 0 0 0 0.140561,0.005 11.244798,11.244656 0 0 0 0.0093,5.63e-4 11.244797,11.244655 0 0 0 0.0615,0.0012 11.244798,11.244656 0 0 0 0.105421,0.0022 11.244798,11.244656 0 0 0 0.131774,0.0012 11.244797,11.244655 0 0 0 0.01814,0 11.244798,11.244656 0 0 0 0.0033,0 11.244798,11.244656 0 0 0 0.299238,-0.0038 11.244797,11.244655 0 0 0 7.749468,-3.388223 11.244798,11.244656 0 0 0 0.103764,-0.108295 11.244797,11.244655 0 0 0 3.092318,-7.744429 11.244798,11.244656 0 0 0 -0.0012,-0.149341 11.244797,11.244655 0 0 0 -1.332574,-5.161672 11.244798,11.244656 0 0 0 0,-5.62e-4 11.244797,11.244655 0 0 0 -9.9111,-5.933081 11.244797,11.244655 0 0 0 -0.02142,0 z m -0.02581,4.216747 a 7.0279992,7.0279108 0 0 1 0.04722,0 7.0279992,7.0279108 0 0 1 7.027999,7.027909 7.0279992,7.0279108 0 0 1 -7.027999,7.027911 7.0279992,7.0279108 0 0 1 -7.027998,-7.027911 7.0279992,7.0279108 0 0 1 6.980779,-7.027909 z" />
    <path
       transform="scale(0.26458333)"
       id="path1106"
       style="fill:#f9f9f9;fill-opacity:1;stroke-width:0.0801759"
       inkscape:transform-center-x="1.6101484"
       d="m 114.98828,183.18555 c -6.65999,-0.0566 -37.710455,15.02249 -55.05078,27.25586 -15.983592,10.66933 2.6795,34.76651 18.298828,20.4375 16.218508,-14.8787 40.183802,-44.19473 37.748052,-47.47461 -0.21591,-0.14363 -0.5521,-0.21498 -0.9961,-0.21875 z" />
    <circle
       cy="58.737499"
       cx="17.780001"
       id="circle861"
       style="display:inline;fill:#b8b8b8;fill-opacity:1;stroke-width:0.017581"
       r="1.3229166" />
    <circle
       style="display:inline;fill:#b8b8b8;fill-opacity:1;stroke-width:0.0264583"
       id="path18"
       cx="17.727083"
       cy="11.1125"
       r="1.0583333" />
    <circle
       r="1.0583333"
       cy="11.1125"
       cx="49.97979"
       id="path18-3"
       style="display:inline;fill:#b8b8b8;fill-opacity:1;stroke-width:0.0264583" />
  </g>
</svg>
