<?xml version="1.0" encoding="UTF-8" standalone="no"?>
<svg
   sodipodi:docname="htop.svg"
   id="svg8"
   version="1.1"
   viewBox="0 0 67.733332 67.733335"
   height="256"
   width="256"
   xmlns:inkscape="http://www.inkscape.org/namespaces/inkscape"
   xmlns:sodipodi="http://sodipodi.sourceforge.net/DTD/sodipodi-0.dtd"
   xmlns="http://www.w3.org/2000/svg"
   xmlns:svg="http://www.w3.org/2000/svg">
  <defs
     id="defs2" />
  <sodipodi:namedview
     inkscape:window-maximized="1"
     inkscape:window-y="27"
     inkscape:window-x="2004"
     inkscape:window-height="1016"
     inkscape:window-width="1836"
     units="px"
     showgrid="false"
     inkscape:document-rotation="0"
     inkscape:current-layer="layer3"
     inkscape:document-units="px"
     inkscape:cy="126.64614"
     inkscape:cx="123.93423"
     inkscape:zoom="2.0000001"
     inkscape:pageshadow="2"
     inkscape:pageopacity="0.0"
     borderopacity="1.0"
     bordercolor="#666666"
     pagecolor="#ffffff"
     id="base"
     inkscape:showpageshadow="2"
     inkscape:pagecheckerboard="0"
     inkscape:deskcolor="#d1d1d1" />
  <g
     inkscape:groupmode="layer"
     id="layer1"
     inkscape:label="Background"
     style="display:inline">
    <g
       inkscape:label="Shadow"
       id="layer10"
       inkscape:groupmode="layer"
       style="display:inline;opacity:0.4">
      <path
         id="path839"
         style="display:inline;opacity:1;fill:#000000;fill-opacity:1;stroke-width:0.0246944;stroke-miterlimit:4;stroke-dasharray:none;paint-order:stroke fill markers"
         d="m 4.2333333,34.925001 v 24.641082 c 0,2.765599 2.2266527,4.992251 4.9922512,4.992251 H 58.50775 c 2.765599,0 4.99225,-2.226652 4.99225,-4.992251 V 34.925001 Z" />
    </g>
    <g
       style="display:inline"
       inkscape:label="Colour"
       id="g1174"
       inkscape:groupmode="layer">
      <path
         id="rect1168"
         style="display:inline;fill:#4d4d4d;fill-opacity:1;stroke-width:0.0933332;stroke-miterlimit:4;stroke-dasharray:none;paint-order:stroke fill markers"
         d="M 34.869141,16 C 24.416485,16 16,24.416483 16,34.869141 V 128 221.13086 C 16,231.58352 24.416485,240 34.869141,240 H 221.13086 C 231.58352,240 240,231.58352 240,221.13086 V 128 34.869141 C 240,24.416483 231.58352,16 221.13086,16 Z"
         transform="scale(0.26458333)" />
    </g>
    <g
       inkscape:groupmode="layer"
       id="layer2"
       inkscape:label="Highlight"
       style="opacity:0.1">
      <path
         d="m 9.2257931,4.2333333 c -2.7655986,0 -4.9924598,2.2268608 -4.9924598,4.9924598 v 1.0583329 c 0,-2.7655979 2.2268612,-4.9924597 4.9924598,-4.9924597 H 58.50754 c 2.765599,0 4.99246,2.2268618 4.99246,4.9924597 V 9.2257931 c 0,-2.765599 -2.226861,-4.9924598 -4.99246,-4.9924598 z"
         style="display:inline;opacity:1;fill:#ffffff;fill-opacity:1;stroke-width:0.0246944;stroke-miterlimit:4;stroke-dasharray:none;paint-order:stroke fill markers"
         id="path955" />
    </g>
  </g>
  <g
     inkscape:label="Graphic"
     id="g1156"
     inkscape:groupmode="layer"
     style="display:inline">
    <g
       inkscape:groupmode="layer"
       id="layer3"
       inkscape:label="Shadow"
       style="display:inline;opacity:0.4">
      <path
         id="path1640"
         style="display:inline;fill:#000000;stroke:none;stroke-width:1.03603;stroke-linecap:round;stroke-linejoin:round"
         d="M 9.6572915,10.186458 V 23.415625 H 12.303125 14.2875 V 21.43125 H 12.303125 V 12.170834 H 14.2875 v -1.984376 h -1.984375 z m 7.5406245,0 v 13.229167 h 3.175 V 10.186458 Z m 5.820834,0 v 13.229167 h 3.175 V 10.186458 Z m 18.520833,0 v 13.229167 h 3.175 V 10.186458 Z m 5.820833,0 v 13.229167 h 3.175 V 10.186458 Z m 6.085417,0 v 1.984376 h 1.984375 v 9.260416 h -1.984375 v 1.984375 h 1.984375 2.645833 V 10.186458 H 55.430208 Z M 9.6572915,28.310417 V 41.539583 H 12.303125 14.2875 V 39.555208 H 12.303125 V 30.294792 H 14.2875 v -1.984375 h -1.984375 z m 7.5406245,0 v 13.229166 h 3.175 V 28.310417 Z m 5.820834,0 v 13.229166 h 3.175 V 28.310417 Z m 6.35,0 v 13.229166 h 3.175 V 28.310417 Z m 5.820833,0 v 13.229166 h 3.175 V 28.310417 Z m 6.35,0 v 13.229166 h 3.175 V 28.310417 Z m 5.820833,0 v 13.229166 h 3.175 V 28.310417 Z m 6.085417,0 v 1.984375 h 1.984375 v 9.260416 h -1.984375 v 1.984375 h 1.984375 2.645833 V 28.310417 H 55.430208 Z M 9.6572915,46.434375 V 59.663541 H 12.303125 14.2875 V 57.679166 H 12.303125 V 48.41875 H 14.2875 v -1.984375 h -1.984375 z m 7.5406245,0 v 13.229166 h 3.175 V 46.434375 Z m 5.820834,0 v 13.229166 h 3.175 V 46.434375 Z m 18.520833,0 v 13.229166 h 3.175 V 46.434375 Z m 5.820833,0 v 13.229166 h 3.175 V 46.434375 Z m 6.085417,0 v 1.984375 h 1.984375 v 9.260416 h -1.984375 v 1.984375 h 1.984375 2.645833 V 46.434375 h -2.645833 z" />
    </g>
    <path
       id="path1502"
       style="display:inline;fill:#f2f2f2;stroke:none;stroke-width:3.9157;stroke-linecap:round;stroke-linejoin:round"
       d="M 36.5 34.5 L 36.5 84.5 L 46.5 84.5 L 54 84.5 L 54 77 L 46.5 77 L 46.5 42 L 54 42 L 54 34.5 L 46.5 34.5 L 36.5 34.5 z M 202 34.5 L 202 42 L 209.5 42 L 209.5 77 L 202 77 L 202 84.5 L 209.5 84.5 L 219.5 84.5 L 219.5 34.5 L 209.5 34.5 L 202 34.5 z M 36.5 103 L 36.5 153 L 46.5 153 L 54 153 L 54 145.5 L 46.5 145.5 L 46.5 110.5 L 54 110.5 L 54 103 L 46.5 103 L 36.5 103 z M 202 103 L 202 110.5 L 209.5 110.5 L 209.5 145.5 L 202 145.5 L 202 153 L 209.5 153 L 219.5 153 L 219.5 103 L 209.5 103 L 202 103 z M 36.5 171.5 L 36.5 221.5 L 46.5 221.5 L 54 221.5 L 54 214 L 46.5 214 L 46.5 179 L 54 179 L 54 171.5 L 46.5 171.5 L 36.5 171.5 z M 202 171.5 L 202 179 L 209.5 179 L 209.5 214 L 202 214 L 202 221.5 L 209.5 221.5 L 219.5 221.5 L 219.5 171.5 L 209.5 171.5 L 202 171.5 z "
       transform="scale(0.26458333)" />
    <path
       style="display:inline;fill:#38ff38;fill-opacity:1;stroke:none;stroke-width:1.13491;stroke-linecap:round;stroke-linejoin:round"
       d="m 23.01875,45.376041 v 13.229167 h 3.175 V 45.376041 Z"
       id="path1622" />
    <path
       style="display:inline;fill:#38ff38;fill-opacity:1;stroke:none;stroke-width:1.13491;stroke-linecap:round;stroke-linejoin:round"
       d="m 17.197917,45.376041 v 13.229167 h 3.175 V 45.376041 Z"
       id="path1620" />
    <path
       style="display:inline;fill:#38ff38;fill-opacity:1;stroke:none;stroke-width:1.13491;stroke-linecap:round;stroke-linejoin:round"
       d="m 23.01875,27.252083 v 13.229166 h 3.175 V 27.252083 Z"
       id="path1618" />
    <path
       style="display:inline;fill:#38ff38;fill-opacity:1;stroke:none;stroke-width:1.13491;stroke-linecap:round;stroke-linejoin:round"
       d="m 17.197917,27.252083 v 13.229166 h 3.175 V 27.252083 Z"
       id="path1616" />
    <path
       style="display:inline;fill:#38ff38;fill-opacity:1;stroke:none;stroke-width:1.13491;stroke-linecap:round;stroke-linejoin:round"
       d="M 23.01875,9.1281249 V 22.357291 h 3.175 V 9.1281249 Z"
       id="path1614" />
    <path
       style="display:inline;fill:#38ff38;fill-opacity:1;stroke:none;stroke-width:1.13491;stroke-linecap:round;stroke-linejoin:round"
       d="M 17.197917,9.1281249 V 22.357291 h 3.175 V 9.1281249 Z"
       id="path1530" />
    <path
       style="display:inline;fill:#ff791e;fill-opacity:1;stroke:none;stroke-width:1.13491;stroke-linecap:round;stroke-linejoin:round"
       d="m 35.189583,27.252083 v 13.229166 h 3.175 V 27.252083 Z"
       id="path1626" />
    <path
       style="display:inline;fill:#ff791e;fill-opacity:1;stroke:none;stroke-width:1.13491;stroke-linecap:round;stroke-linejoin:round"
       d="m 29.36875,27.252083 v 13.229166 h 3.175 V 27.252083 Z"
       id="path1506" />
    <path
       style="display:inline;fill:#ff2e2e;fill-opacity:1;stroke:none;stroke-width:1.13491;stroke-linecap:round;stroke-linejoin:round"
       d="m 47.360416,45.376041 v 13.229167 h 3.175 V 45.376041 Z"
       id="path1638" />
    <path
       style="display:inline;fill:#ff2e2e;fill-opacity:1;stroke:none;stroke-width:1.13491;stroke-linecap:round;stroke-linejoin:round"
       d="m 41.539583,45.376041 v 13.229167 h 3.175 V 45.376041 Z"
       id="path1636" />
    <path
       style="display:inline;fill:#ff2e2e;fill-opacity:1;stroke:none;stroke-width:1.13491;stroke-linecap:round;stroke-linejoin:round"
       d="m 47.360416,27.252083 v 13.229166 h 3.175 V 27.252083 Z"
       id="path1634" />
    <path
       style="display:inline;fill:#ff2e2e;fill-opacity:1;stroke:none;stroke-width:1.13491;stroke-linecap:round;stroke-linejoin:round"
       d="m 41.539583,27.252083 v 13.229166 h 3.175 V 27.252083 Z"
       id="path1632" />
    <path
       style="display:inline;fill:#ff2e2e;fill-opacity:1;stroke:none;stroke-width:1.13491;stroke-linecap:round;stroke-linejoin:round"
       d="M 47.360416,9.1281249 V 22.357291 h 3.175 V 9.1281249 Z"
       id="path1630" />
    <path
       style="display:inline;fill:#ff2e2e;fill-opacity:1;stroke:none;stroke-width:1.13491;stroke-linecap:round;stroke-linejoin:round"
       d="M 41.539583,9.1281249 V 22.357291 h 3.175 V 9.1281249 Z"
       id="path1518" />
  </g>
</svg>
