<?xml version="1.0" encoding="UTF-8" standalone="no"?>
<svg
   sodipodi:docname="inkscape-symbolic.symbolic.svg"
   id="svg8"
   version="1.1"
   viewBox="0 0 4.2333333 4.2333334"
   height="16"
   width="16"
   xmlns:inkscape="http://www.inkscape.org/namespaces/inkscape"
   xmlns:sodipodi="http://sodipodi.sourceforge.net/DTD/sodipodi-0.dtd"
   xmlns="http://www.w3.org/2000/svg"
   xmlns:svg="http://www.w3.org/2000/svg">
  <defs
     id="defs2" />
  <sodipodi:namedview
     inkscape:window-maximized="1"
     inkscape:window-y="27"
     inkscape:window-x="1920"
     inkscape:window-height="1016"
     inkscape:window-width="1920"
     units="px"
     showgrid="false"
     inkscape:document-rotation="0"
     inkscape:current-layer="g1156"
     inkscape:document-units="px"
     inkscape:cy="11.171875"
     inkscape:cx="7.390625"
     inkscape:zoom="32"
     inkscape:pageshadow="2"
     inkscape:pageopacity="0.0"
     borderopacity="1.0"
     bordercolor="#666666"
     pagecolor="#ffffff"
     id="base"
     inkscape:pagecheckerboard="0"
     inkscape:showpageshadow="2"
     inkscape:deskcolor="#d1d1d1" />
  <g
     inkscape:label="Graphic"
     id="g1156"
     inkscape:groupmode="layer"
     style="display:inline;opacity:1">
    <path
       id="path1099"
       style="color:#000000;fill:#000000;stroke-width:0.0698347px;-inkscape-stroke:none"
       d="M 7.8515625 0.09375 C 7.4391711 0.10095321 7.011205 0.24914408 6.6796875 0.59570312 L 0.28710938 7.2773438 L 0.28515625 7.2773438 C 0.041135291 7.5642816 -0.036843648 7.8690344 0.015625 8.1328125 C 0.068093685 8.3965895 0.25194233 8.6174585 0.51953125 8.7382812 L 0.51953125 8.7402344 L 0.52148438 8.7402344 C 1.0252427 8.9111219 1.7460844 9.0351024 2.3496094 9.1855469 C 2.6513718 9.2607708 2.924596 9.3417835 3.1230469 9.4375 C 3.3214978 9.5332165 3.4395208 9.6410393 3.4550781 9.7597656 C 3.4628866 9.8268031 3.4064731 9.9339757 3.3066406 10.056641 C 3.2068078 10.179305 3.0695008 10.31846 2.9316406 10.462891 C 2.7937805 10.607318 2.6563771 10.758012 2.5566406 10.90625 C 2.4569046 11.054491 2.3916629 11.202372 2.4121094 11.34375 C 2.4265963 11.443911 2.4963344 11.528382 2.5976562 11.603516 C 2.6989778 11.678645 2.8334845 11.745015 2.9921875 11.806641 C 3.3095934 11.929887 3.7194407 12.033995 4.125 12.136719 C 4.5305596 12.239443 4.9324467 12.341495 5.2285156 12.457031 C 5.3765484 12.514801 5.4985008 12.576071 5.5800781 12.640625 C 5.6607068 12.704423 5.6979044 12.768741 5.6972656 12.835938 C 5.6775743 13.021772 5.4642767 13.260803 5.2636719 13.490234 C 5.1630231 13.605347 5.0679919 13.720135 5.0039062 13.830078 C 4.9398207 13.940021 4.9050425 14.048869 4.9433594 14.150391 L 4.9433594 14.152344 C 4.9928296 14.276282 5.1197034 14.35787 5.2773438 14.419922 C 5.4349802 14.48197 5.627339 14.524328 5.8183594 14.560547 C 6.0093805 14.596755 6.1999539 14.626416 6.3515625 14.662109 C 6.5031707 14.697788 6.6135732 14.744079 6.6445312 14.787109 C 6.8371738 15.074731 6.9104686 15.34089 6.9960938 15.544922 C 7.0389044 15.646939 7.0844172 15.734981 7.1542969 15.798828 C 7.2241766 15.862679 7.3166064 15.900336 7.4414062 15.904297 L 7.4433594 15.904297 C 8.2136985 15.923119 8.8780339 15.782543 9.3554688 15.607422 C 9.5941874 15.519862 9.7865562 15.424769 9.921875 15.333984 C 9.9895361 15.288596 10.043329 15.243094 10.082031 15.201172 C 10.12073 15.159253 10.145651 15.120494 10.150391 15.078125 C 10.16018 14.995297 10.121671 14.918915 10.066406 14.849609 C 10.011157 14.780308 9.9366032 14.715612 9.8652344 14.654297 C 9.7938656 14.592978 9.7248151 14.534851 9.6796875 14.482422 C 9.6571237 14.456192 9.6411501 14.43125 9.6328125 14.410156 C 9.6247999 14.38986 9.6241441 14.375155 9.6289062 14.359375 C 9.7437457 14.074545 10.113549 13.799997 10.580078 13.566406 C 11.046607 13.332815 11.606375 13.136846 12.09375 12.992188 L 12.095703 12.992188 C 12.315823 12.913127 12.443707 12.778439 12.511719 12.638672 C 12.579728 12.498905 12.589697 12.354523 12.580078 12.251953 C 12.566358 12.123473 12.461235 11.99709 12.322266 11.867188 C 12.183296 11.737282 12.007644 11.604548 11.841797 11.478516 C 11.675949 11.352483 11.519581 11.23273 11.423828 11.130859 C 11.375948 11.079929 11.344151 11.033809 11.332031 10.998047 C 11.319911 10.962287 11.322133 10.940615 11.345703 10.916016 C 11.659456 10.62722 12.19703 10.368855 12.796875 10.115234 C 13.39765 9.861164 14.060656 9.612127 14.626953 9.3339844 C 15.19325 9.0558418 15.664528 8.7508396 15.878906 8.375 C 15.986095 8.18708 16.027451 7.9794373 15.980469 7.7558594 C 15.933486 7.5322814 15.799392 7.293311 15.5625 7.0332031 C 15.420805 6.88253 14.338848 5.799681 13.015625 4.4804688 C 11.692402 3.1612568 10.13174 1.607789 9.0410156 0.52734375 C 8.7675218 0.25642722 8.3190171 0.085584973 7.8515625 0.09375 z M 7.9414062 1.9335938 C 7.9569828 1.9332946 7.9708273 1.9331686 7.9863281 1.9335938 C 8.2343415 1.9403963 8.4686106 2.0403047 8.6152344 2.1855469 C 9.2295917 2.7941145 10.111868 3.6629115 10.859375 4.40625 C 11.233129 4.7779193 11.579032 5.1168297 11.833984 5.3730469 C 11.96146 5.5011555 12.06375 5.6107501 12.142578 5.6914062 C 12.221396 5.7720651 12.271702 5.8227236 12.291016 5.8457031 C 12.346197 5.9113951 12.353912 5.9867965 12.320312 6.0449219 C 12.286717 6.1030472 12.219393 6.1476493 12.142578 6.1777344 C 11.988947 6.2378969 11.783567 6.2441943 11.65625 6.1347656 C 11.539976 6.03483 11.342641 5.8566476 11.132812 5.7070312 C 10.922987 5.557415 10.695068 5.4360026 10.527344 5.4472656 C 10.427171 5.4557809 10.362628 5.5149575 10.3125 5.6035156 C 10.262372 5.6920737 10.23069 5.8127047 10.201172 5.9355469 C 10.171639 6.0583891 10.147244 6.1857869 10.105469 6.2890625 C 10.063697 6.3923381 10.00262 6.4780922 9.90625 6.5039062 C 9.8177146 6.5276303 9.7273574 6.4975731 9.6328125 6.4511719 C 9.5382676 6.4047706 9.4371221 6.3376241 9.3378906 6.2675781 C 9.1394295 6.1274862 8.9335045 5.9874887 8.7480469 5.9941406 C 8.5131118 6.0106556 8.3196183 6.1947915 8.1269531 6.3847656 C 7.9342879 6.5747417 7.7432633 6.7695312 7.5214844 6.7695312 C 7.4658346 6.7695312 7.4168167 6.7400092 7.375 6.6953125 C 7.3331833 6.6506158 7.2977632 6.5897671 7.2636719 6.5175781 C 7.1955232 6.3731975 7.14128 6.1816505 7.0800781 5.9941406 C 7.01888 5.8066322 6.9554446 5.6194289 6.8808594 5.484375 C 6.8435668 5.4168462 6.8038793 5.365908 6.7617188 5.3300781 C 6.7195619 5.2942406 6.6698004 5.2746709 6.6210938 5.2773438 C 6.5140273 5.2816825 6.4221797 5.3617787 6.3339844 5.4921875 C 6.2457891 5.6225941 6.1647312 5.802798 6.0898438 5.9863281 C 6.0149562 6.1698582 5.9438581 6.3597526 5.8691406 6.5175781 C 5.7944231 6.6754036 5.7224211 6.8011749 5.625 6.8574219 C 5.4588901 6.9533312 5.1464248 6.9964328 4.8046875 6.9902344 C 4.4629494 6.9840208 4.0907316 6.9268347 3.8085938 6.8203125 C 3.6510778 6.7608416 3.5425059 6.6336907 3.5136719 6.4804688 C 3.4848371 6.3272456 3.5371316 6.1493618 3.6757812 5.9863281 L 7.2792969 2.2226562 C 7.4674631 2.0259525 7.7077575 1.9380815 7.9414062 1.9335938 z M 14.642578 11.642578 C 14.611926 11.643413 14.580848 11.644641 14.548828 11.648438 C 14.304376 11.677388 14.053343 11.735288 13.861328 11.837891 C 13.669313 11.940497 13.532956 12.093765 13.537109 12.302734 L 13.537109 12.304688 C 13.538709 12.354966 13.567683 12.398647 13.609375 12.435547 C 13.651086 12.472435 13.707253 12.504207 13.775391 12.53125 C 13.911658 12.585339 14.09368 12.6229 14.296875 12.638672 C 14.703268 12.670193 15.188551 12.615467 15.519531 12.419922 L 15.521484 12.419922 C 15.602684 12.364771 15.629377 12.274973 15.607422 12.1875 C 15.585467 12.100035 15.521901 12.010975 15.431641 11.929688 C 15.251113 11.767111 14.959797 11.633936 14.642578 11.642578 z M 2.9082031 12.582031 C 2.5431667 12.59366 2.1453386 12.749423 1.9101562 13.107422 L 1.9101562 13.109375 C 1.8121993 13.279042 1.8433724 13.469269 1.9707031 13.609375 C 2.0980343 13.749478 2.317067 13.84375 2.59375 13.84375 C 2.9199066 13.84375 3.236108 13.649346 3.4433594 13.425781 C 3.5469849 13.313998 3.6245165 13.195023 3.6601562 13.083984 C 3.6957972 12.972949 3.6880077 12.864005 3.6152344 12.792969 C 3.4588931 12.649343 3.1921059 12.572982 2.9082031 12.582031 z M 13.214844 12.949219 C 13.171595 12.951519 13.127945 12.961923 13.082031 12.978516 L 13.080078 12.978516 L 13.080078 12.980469 C 12.920692 13.048958 12.835463 13.20099 12.824219 13.363281 C 12.812994 13.525574 12.87313 13.699421 13.007812 13.818359 L 13.009766 13.820312 C 13.107455 13.897751 13.256562 13.920975 13.392578 13.90625 C 13.528596 13.89151 13.658176 13.839801 13.701172 13.734375 C 13.723169 13.678994 13.724859 13.604317 13.714844 13.521484 C 13.704828 13.438656 13.681738 13.347144 13.642578 13.261719 C 13.60343 13.17629 13.549525 13.097339 13.478516 13.039062 C 13.407506 12.980783 13.317594 12.943867 13.214844 12.949219 z "
       transform="scale(0.26458333)" />
  </g>
</svg>
