<?xml version="1.0" encoding="UTF-8" standalone="no"?>
<svg
   sodipodi:docname="inkscape.svg"
   id="svg8"
   version="1.1"
   viewBox="0 0 67.733332 67.733335"
   height="256"
   width="256"
   xmlns:inkscape="http://www.inkscape.org/namespaces/inkscape"
   xmlns:sodipodi="http://sodipodi.sourceforge.net/DTD/sodipodi-0.dtd"
   xmlns="http://www.w3.org/2000/svg"
   xmlns:svg="http://www.w3.org/2000/svg">
  <defs
     id="defs2" />
  <sodipodi:namedview
     inkscape:window-maximized="1"
     inkscape:window-y="0"
     inkscape:window-x="0"
     inkscape:window-height="1016"
     inkscape:window-width="1836"
     units="px"
     showgrid="false"
     inkscape:document-rotation="0"
     inkscape:current-layer="layer6"
     inkscape:document-units="px"
     inkscape:cy="68.922685"
     inkscape:cx="128.61223"
     inkscape:zoom="2.8284272"
     inkscape:pageshadow="2"
     inkscape:pageopacity="0.0"
     borderopacity="1.0"
     bordercolor="#666666"
     pagecolor="#ffffff"
     id="base"
     inkscape:showpageshadow="2"
     inkscape:pagecheckerboard="0"
     inkscape:deskcolor="#d1d1d1" />
  <g
     inkscape:groupmode="layer"
     id="layer6"
     inkscape:label="Shadow"
     style="display:inline;opacity:0.4">
    <path
       id="path1007"
       style="color:#000000;font-style:normal;font-variant:normal;font-weight:normal;font-stretch:normal;font-size:medium;line-height:normal;font-family:sans-serif;font-variant-ligatures:normal;font-variant-position:normal;font-variant-caps:normal;font-variant-numeric:normal;font-variant-alternates:normal;font-variant-east-asian:normal;font-feature-settings:normal;font-variation-settings:normal;text-indent:0;text-align:start;text-decoration:none;text-decoration-line:none;text-decoration-style:solid;text-decoration-color:#000000;letter-spacing:normal;word-spacing:normal;text-transform:none;writing-mode:lr-tb;direction:ltr;text-orientation:mixed;dominant-baseline:auto;baseline-shift:baseline;text-anchor:start;white-space:normal;shape-padding:0;shape-margin:0;inline-size:0;clip-rule:nonzero;display:inline;overflow:visible;visibility:visible;isolation:auto;mix-blend-mode:normal;color-interpolation:sRGB;color-interpolation-filters:linearRGB;solid-color:#000000;solid-opacity:1;vector-effect:none;fill:#4d4d4d;fill-opacity:1;fill-rule:nonzero;stroke:none;stroke-width:0.977684px;stroke-linecap:butt;stroke-linejoin:miter;stroke-miterlimit:4;stroke-dasharray:none;stroke-dashoffset:0;stroke-opacity:1;color-rendering:auto;image-rendering:auto;shape-rendering:auto;text-rendering:auto;enable-background:accumulate;stop-color:#000000"
       d="m 125.91992,21.3125 c -5.77536,0.101709 -11.76876,2.175358 -16.41015,7.027344 l -89.498051,93.550776 -0.0059,0.0137 c -3.416118,4.01691 -4.518074,8.27631 -3.787109,11.96679 0.730965,3.69049 3.288975,6.78313 7.035156,8.47461 l 0.02148,0.006 0.02148,0.008 c 7.052804,2.39246 17.152199,4.12679 25.607422,6.23046 4.227613,1.05184 8.041765,2.19801 10.822265,3.53711 2.776029,1.33695 4.436141,2.8432 4.658204,4.50196 0.109341,0.93826 -0.683077,2.43695 -2.082032,4.15625 -1.398954,1.7193 -3.331947,3.66678 -5.263672,5.6914 -1.931724,2.02462 -3.858322,4.13174 -5.255859,6.20899 -1.397537,2.07725 -2.294089,4.14749 -2.007812,6.12695 0.202809,1.40226 1.165463,2.6028 2.583984,3.6543 1.418517,1.05149 3.31528,1.97969 5.537109,2.84179 4.443659,1.72422 10.185501,3.17677 15.863282,4.61329 5.67778,1.43651 11.298449,2.85635 15.443359,4.47265 2.072459,0.80815 3.773944,1.66692 4.916016,2.57031 1.136231,0.89878 1.676612,1.79059 1.660156,2.73828 -0.270236,2.6031 -3.264677,5.94984 -6.074219,9.16797 -1.408169,1.61296 -2.75785,3.20591 -3.654297,4.7461 -0.896447,1.54019 -1.370435,3.0827 -0.833984,4.5039 v 0.008 h 0.0078 c 0.69261,1.73522 2.464635,2.88855 4.671875,3.75586 2.207244,0.86731 4.891763,1.45961 7.566407,1.96484 2.67465,0.50523 5.34014,0.91767 7.46289,1.41601 2.11494,0.49653 3.66551,1.14962 4.10547,1.75 2.69678,4.02641 3.70567,7.76249 4.90039,10.62305 0.59736,1.43028 1.24581,2.65504 2.22266,3.55078 0.97685,0.89574 2.28382,1.42107 4.03125,1.47657 10.78488,0.26343 20.10231,-1.69253 26.78711,-4.14844 3.34239,-1.22796 6.02719,-2.58097 7.92187,-3.85352 0.94734,-0.63627 1.69447,-1.25058 2.23633,-1.83789 0.54186,-0.5873 0.89257,-1.1432 0.95898,-1.73633 0.13769,-1.15946 -0.39936,-2.2325 -1.17187,-3.20312 -0.77251,-0.97063 -1.80087,-1.87153 -2.79883,-2.73047 -0.99796,-0.85895 -1.96672,-1.67967 -2.59766,-2.41406 -0.31547,-0.36718 -0.54167,-0.7086 -0.6582,-1.00391 -0.11312,-0.28668 -0.12708,-0.50758 -0.0586,-0.73047 1.61185,-3.98464 6.79137,-7.81607 13.3164,-11.08203 6.52953,-3.26821 14.36418,-6.00598 21.1875,-8.03125 l 0.0137,-0.008 h 0.0156 c 3.08158,-1.10674 4.88129,-2.99609 5.83789,-4.95313 0.95661,-1.95704 1.08787,-3.96531 0.95313,-5.40234 v -0.008 c -0.19226,-1.79905 -1.66249,-3.563 -3.60938,-5.38086 -1.94689,-1.81786 -4.41666,-3.6702 -6.74023,-5.4336 -2.32358,-1.76339 -4.50587,-3.44762 -5.84766,-4.87304 -0.67089,-0.71272 -1.12107,-1.35899 -1.29102,-1.85938 -0.16886,-0.49723 -0.12453,-0.78738 0.19922,-1.1289 4.39193,-4.04471 11.9133,-7.67687 20.31446,-11.22852 8.41189,-3.55619 17.70188,-7.05351 25.63086,-10.94726 7.92897,-3.89376 14.52151,-8.15836 17.52343,-13.41993 1.50097,-2.63078 2.08336,-5.5301 1.42579,-8.66015 -0.65758,-3.13006 -2.52922,-6.47763 -5.84571,-10.11914 v -0.008 h -0.008 c -1.98335,-2.10903 -17.12883,-17.27116 -35.6543,-35.744137 -18.52547,-18.472985 -40.38996,-40.215521 -55.66015,-55.341797 -3.60386,-3.569892 -9.37216,-5.892629 -15.49414,-6.060547 -0.38263,-0.01049 -0.76732,-0.01264 -1.15235,-0.0059 z m 95.51172,161.68555 c -0.57885,-5e-4 -1.16454,0.0318 -1.75391,0.10156 -3.42188,0.40521 -6.92573,1.21147 -9.61132,2.64258 -2.6856,1.4311 -4.59721,3.57088 -4.53907,6.49609 v 0.008 c 0.0223,0.70388 0.41252,1.32857 0.9961,1.84571 0.58358,0.51713 1.37851,0.95642 2.33203,1.33593 1.90703,0.75904 4.47252,1.28272 7.31641,1.50586 5.68777,0.44629 12.46962,-0.2954 17.10351,-3.0332 l 0.0137,-0.008 0.0156,-0.008 c 1.19268,-0.81012 1.53416,-2.14512 1.15234,-3.43165 -0.38182,-1.28652 -1.38783,-2.59518 -2.79101,-3.76562 -2.45558,-2.04826 -6.1824,-3.68598 -10.23438,-3.68945 z M 56.740234,196.16016 c -0.567311,0.019 -1.141948,0.0622 -1.716796,0.13086 -4.603446,0.55038 -9.362085,2.7652 -12.289063,7.2207 l -0.0078,0.0137 -0.0078,0.008 c -1.371436,2.37541 -0.920365,5.03721 0.863281,6.99805 1.783646,1.96084 4.84523,3.27735 8.71875,3.27734 4.566055,0 8.997911,-2.70989 11.898438,-5.83789 1.450265,-1.564 2.528771,-3.22936 3.027343,-4.7832 0.498577,-1.55384 0.405442,-3.08179 -0.613281,-4.07617 h -0.0078 v -0.008 c -2.18745,-2.00893 -5.889557,-3.07628 -9.865235,-2.94336 z m 144.273436,5.14648 c -0.59442,0.029 -1.21937,0.15323 -1.87109,0.38867 h -0.002 l -0.0137,0.008 -0.0156,0.008 c -2.23206,0.95913 -3.42835,3.10586 -3.58008,5.38086 -0.15171,2.27499 0.7141,4.71973 2.59961,6.38476 l 0.006,0.008 0.008,0.008 c 1.36757,1.08408 3.44905,1.4103 5.35156,1.20312 1.90252,-0.20719 3.71075,-0.93857 4.3125,-2.41406 v -0.008 c 0.33956,-0.85561 0.36371,-2.02523 0.16211,-3.32813 -0.2016,-1.3029 -0.64163,-2.7306 -1.34375,-4.00195 -0.70212,-1.27135 -1.66964,-2.39533 -2.93164,-3.05469 -0.78874,-0.4121 -1.69094,-0.63037 -2.68164,-0.58203 z"
       transform="scale(0.26458333)" />
  </g>
  <g
     inkscape:label="Graphic"
     id="g1156"
     inkscape:groupmode="layer"
     style="display:inline;opacity:1">
    <g
       id="g941">
      <path
         style="display:inline;fill:#4d4d4d;stroke:#4d4d4d;stroke-width:0.258679px;stroke-linecap:butt;stroke-linejoin:miter;stroke-opacity:1"
         d="m 31.802467,63.01807 c 5.672002,0.138541 9.798819,-2.064988 9.897791,-2.948948 0.122372,-1.030461 -2.167558,-1.955931 -1.9219,-2.699638 0.900103,-2.232073 5.595235,-4.060043 9.215029,-5.134455 1.573835,-0.565237 1.779625,-1.883516 1.711965,-2.605097 -0.175547,-1.643665 -5.47876,-4.066075 -4.539756,-5.047549 C 50.91369,40.200495 68.724349,37.991129 61.787039,30.37394 60.76463,29.286754 45.710152,14.282136 37.630029,6.2781634 35.781722,4.4472749 31.632087,3.8476924 29.0671,6.5290574 L 5.3911561,31.279223 c -1.767288,2.078103 -1.1016386,4.341386 0.8138265,5.206263 3.6966885,1.253999 10.6917424,1.838837 10.9595044,3.88228 0.150739,1.293676 -4.139908,3.97789 -3.866896,5.86563 0.374209,2.587481 12.233191,3.115642 12.17588,5.552826 -0.152361,1.541184 -3.292556,3.529883 -2.805117,4.821239 0.646718,1.620253 5.639911,1.425442 6.287685,2.325723 1.451645,2.167369 1.088831,4.029069 2.846428,4.084886 z"
         id="path855"
         sodipodi:nodetypes="ccccccccccccscccc" />
      <path
         style="display:inline;fill:#4d4d4d;stroke:#4d4d4d;stroke-width:0.258679px;stroke-linecap:butt;stroke-linejoin:miter;stroke-opacity:1"
         d="m 17.534639,51.716641 c -1.236466,-1.135553 -4.620497,-1.141729 -6.120497,1.1416 -0.673281,1.166157 0.43375,2.524353 2.424664,2.524353 2.312353,0 4.598355,-2.784993 3.695833,-3.665953 z"
         id="path857"
         sodipodi:nodetypes="cccc" />
      <path
         style="display:inline;fill:#4d4d4d;stroke:#4d4d4d;stroke-width:0.258679px;stroke-linecap:butt;stroke-linejoin:miter;stroke-opacity:1"
         d="m 58.137789,47.514544 c -1.790965,0.21208 -3.657412,0.852679 -3.628889,2.28776 0.03584,1.130614 4.772739,1.732583 7.145986,0.330411 1.100065,-0.74721 -1.106836,-2.903586 -3.517097,-2.618171 z"
         id="path859"
         sodipodi:nodetypes="cccc" />
      <path
         style="display:inline;fill:#4d4d4d;stroke:#4d4d4d;stroke-width:0.258679px;stroke-linecap:butt;stroke-linejoin:miter;stroke-opacity:1"
         d="m 52.732454,52.42952 c -1.083906,0.465764 -1.158468,2.073654 -0.225894,2.897178 0.638856,0.506429 2.100491,0.359311 2.356605,-0.268682 0.297104,-0.748608 -0.406093,-3.251541 -2.130711,-2.628496 z"
         id="path861"
         sodipodi:nodetypes="cccc" />
    </g>
    <path
       id="path1072"
       style="color:#000000;font-style:normal;font-variant:normal;font-weight:normal;font-stretch:normal;font-size:medium;line-height:normal;font-family:sans-serif;font-variant-ligatures:normal;font-variant-position:normal;font-variant-caps:normal;font-variant-numeric:normal;font-variant-alternates:normal;font-variant-east-asian:normal;font-feature-settings:normal;font-variation-settings:normal;text-indent:0;text-align:start;text-decoration:none;text-decoration-line:none;text-decoration-style:solid;text-decoration-color:#000000;letter-spacing:normal;word-spacing:normal;text-transform:none;writing-mode:lr-tb;direction:ltr;text-orientation:mixed;dominant-baseline:auto;baseline-shift:baseline;text-anchor:start;white-space:normal;shape-padding:0;shape-margin:0;inline-size:0;clip-rule:nonzero;display:inline;overflow:visible;visibility:visible;isolation:auto;mix-blend-mode:normal;color-interpolation:sRGB;color-interpolation-filters:linearRGB;solid-color:#000000;solid-opacity:1;vector-effect:none;fill:#000000;fill-opacity:1;fill-rule:nonzero;stroke:none;stroke-width:0.751;stroke-linecap:butt;stroke-linejoin:miter;stroke-miterlimit:4;stroke-dasharray:none;stroke-dashoffset:0;stroke-opacity:1;color-rendering:auto;image-rendering:auto;shape-rendering:auto;text-rendering:auto;enable-background:accumulate;stop-color:#000000;opacity:0.4"
       d="M 127.83203 47.119141 C 124.35984 47.023897 120.66932 48.160215 117.85938 51.097656 L 67.449219 103.80469 L 67.441406 103.8125 C 65.500305 106.09499 64.836551 108.58341 65.240234 110.72852 C 65.643918 112.87362 67.117032 114.65765 69.322266 115.49023 C 73.272197 116.98153 78.475428 117.75089 83.259766 117.83789 C 88.044099 117.9249 92.39125 117.35633 94.716797 116.01367 C 96.080707 115.22622 97.147322 113.44785 98.193359 111.23828 C 99.239393 109.02871 100.23869 106.37409 101.28711 103.80469 C 102.33553 101.23529 103.44104 98.749525 104.67578 96.923828 C 105.91052 95.098135 107.23544 93.972854 108.73438 93.912109 L 108.74219 93.912109 C 109.42406 93.874692 110.02696 94.119399 110.61719 94.621094 C 111.20742 95.122769 111.76306 95.882737 112.28516 96.828125 C 113.32935 98.718894 114.21935 101.32602 115.07617 103.95117 C 115.93299 106.57633 116.75684 109.22475 117.71094 111.24609 C 118.18799 112.25677 118.69779 113.10667 119.2832 113.73242 C 119.86862 114.35817 120.56468 114.76562 121.34375 114.76562 C 124.44867 114.76562 127.03901 112.05223 129.73633 109.39258 C 132.43179 106.73476 135.21972 104.10545 138.50586 103.87109 C 141.10081 103.78107 143.98334 105.78629 146.75977 107.74609 C 148.149 108.72672 149.51819 109.68827 150.8418 110.33789 C 152.16541 110.98752 153.4695 111.33407 154.70898 111.00195 C 156.05817 110.64044 156.88586 109.46538 157.4707 108.01953 C 158.05555 106.57369 158.43031 104.81549 158.84375 103.0957 C 159.25719 101.37592 159.71423 99.698787 160.41602 98.458984 C 161.11584 97.222644 162.01062 96.435112 163.40625 96.3125 C 165.75435 96.154516 168.91984 97.811572 171.85742 99.90625 C 174.79501 102.00093 177.5167 104.48761 179.14453 105.88672 C 180.92699 107.41872 183.83547 107.34816 185.98633 106.50586 C 187.06176 106.08471 187.96714 105.46611 188.4375 104.65234 C 188.90786 103.83859 188.84906 102.80448 188.07617 101.88477 C 187.80601 101.56328 187.1054 100.82257 186.00195 99.693359 C 184.89849 98.563972 183.40771 97.065006 181.62305 95.271484 C 178.05371 91.684441 173.29701 86.935799 168.06445 81.732422 C 157.59934 71.32567 145.22406 59.078548 136.62305 50.558594 C 134.57031 48.5252 131.30422 47.214377 127.83203 47.119141 z "
       transform="scale(0.26458333)" />
    <path
       style="display:inline;fill:#ffffff;stroke:#ffffff;stroke-width:0.198702;stroke-linecap:butt;stroke-linejoin:miter;stroke-miterlimit:4;stroke-dasharray:none;stroke-opacity:1"
       d="m 43.2274,24.324 c 1.342971,-0.09036 3.379238,1.822951 4.235126,2.55858 0.855887,0.735628 2.963467,-0.0402 2.223784,-0.920386 -0.512995,-0.610436 -9.055867,-9.064271 -13.607281,-13.572791 -1.041123,-1.031313 -3.37855,-1.369049 -4.823368,0.141325 L 17.919358,26.472126 c -0.995487,1.170565 -0.649116,2.51446 0.458416,2.93261 2.057103,0.776661 5.47649,0.813356 6.632241,0.146083 1.28839,-0.743853 1.982676,-5.789201 3.755983,-5.861063 1.665922,-0.09148 1.958768,5.517304 3.338572,5.517304 1.523308,0 2.701266,-2.753223 4.537366,-2.882293 1.477589,-0.05302 3.090598,2.205735 4.265687,1.890871 1.258731,-0.337276 0.695814,-3.753595 2.319777,-3.891638 z"
       id="path867"
       sodipodi:nodetypes="ccccccccccccc" />
  </g>
  <g
     inkscape:groupmode="layer"
     id="layer5"
     inkscape:label="Highlight"
     style="display:inline;opacity:0.1">
    <path
       id="path1038"
       style="color:#000000;font-style:normal;font-variant:normal;font-weight:normal;font-stretch:normal;font-size:medium;line-height:normal;font-family:sans-serif;font-variant-ligatures:normal;font-variant-position:normal;font-variant-caps:normal;font-variant-numeric:normal;font-variant-alternates:normal;font-variant-east-asian:normal;font-feature-settings:normal;font-variation-settings:normal;text-indent:0;text-align:start;text-decoration:none;text-decoration-line:none;text-decoration-style:solid;text-decoration-color:#000000;letter-spacing:normal;word-spacing:normal;text-transform:none;writing-mode:lr-tb;direction:ltr;text-orientation:mixed;dominant-baseline:auto;baseline-shift:baseline;text-anchor:start;white-space:normal;shape-padding:0;shape-margin:0;inline-size:0;clip-rule:nonzero;display:inline;overflow:visible;visibility:visible;opacity:1;isolation:auto;mix-blend-mode:normal;color-interpolation:sRGB;color-interpolation-filters:linearRGB;solid-color:#000000;solid-opacity:1;vector-effect:none;fill:#ffffff;fill-opacity:1;fill-rule:nonzero;stroke:none;stroke-width:0.977684px;stroke-linecap:butt;stroke-linejoin:miter;stroke-miterlimit:4;stroke-dasharray:none;stroke-dashoffset:0;stroke-opacity:1;color-rendering:auto;image-rendering:auto;shape-rendering:auto;text-rendering:auto;enable-background:accumulate;stop-color:#000000"
       d="M 125.91992 17.3125 C 120.14456 17.414207 114.15115 19.487858 109.50977 24.339844 L 20.011719 117.89062 L 20.005859 117.9043 C 16.667952 121.82924 15.551616 125.98226 16.183594 129.61328 C 16.614061 127.08308 17.844414 124.44587 20.005859 121.9043 L 20.011719 121.89062 L 109.50977 28.339844 C 114.15115 23.487858 120.14456 21.414207 125.91992 21.3125 C 126.30495 21.305735 126.68964 21.307852 127.07227 21.318359 C 133.19425 21.486277 138.96254 23.809014 142.56641 27.378906 C 157.83659 42.505183 179.70109 64.247722 198.22656 82.720703 C 216.75203 101.19368 231.89773 116.35584 233.88086 118.46484 L 233.88867 118.46484 L 233.88867 118.47266 C 237.20516 122.11417 239.07679 125.46174 239.73438 128.5918 C 239.77306 128.77595 239.79405 128.95612 239.82422 129.13867 C 240.08064 127.68477 240.0654 126.16746 239.73438 124.5918 C 239.07679 121.46174 237.20516 118.11417 233.88867 114.47266 L 233.88867 114.46484 L 233.88086 114.46484 C 231.89773 112.35584 216.75203 97.193681 198.22656 78.720703 C 179.70109 60.247722 157.83659 38.505181 142.56641 23.378906 C 138.96254 19.809014 133.19425 17.486277 127.07227 17.318359 C 126.68964 17.307852 126.30495 17.305735 125.91992 17.3125 z M 63.607422 154.91797 C 63.264395 155.49915 62.845951 156.11755 62.302734 156.78516 C 60.90378 158.50446 58.970787 160.45194 57.039062 162.47656 C 55.107338 164.50118 53.18074 166.6083 51.783203 168.68555 C 50.385666 170.7628 49.489114 172.83304 49.775391 174.8125 C 49.830736 175.19517 49.947035 175.56232 50.109375 175.91602 C 50.469031 174.84885 51.054688 173.76839 51.783203 172.68555 C 53.18074 170.6083 55.107338 168.50118 57.039062 166.47656 C 58.970787 164.45194 60.90378 162.50446 62.302734 160.78516 C 63.701689 159.06586 64.494107 157.56717 64.384766 156.62891 C 64.305746 156.03865 64.036109 155.46885 63.607422 154.91797 z M 175.97266 171.875 C 175.57769 172.19691 175.19506 172.52053 174.83984 172.84766 C 174.51609 173.18917 174.47176 173.47933 174.64062 173.97656 C 174.81058 174.47695 175.26075 175.12322 175.93164 175.83594 C 177.27343 177.26136 179.45572 178.94559 181.7793 180.70898 C 184.10286 182.47238 186.57264 184.32472 188.51953 186.14258 C 190.16708 187.68094 191.46413 189.18022 191.94336 190.69531 C 192.19337 189.52136 192.21195 188.41694 192.12891 187.53125 L 192.12891 187.52344 C 191.93664 185.72439 190.46642 183.96044 188.51953 182.14258 C 186.57264 180.32472 184.10286 178.47238 181.7793 176.70898 C 179.47623 174.96116 177.31726 173.29235 175.97266 171.875 z M 221.43164 178.99805 C 220.85279 178.99754 220.26711 179.0298 219.67773 179.09961 C 216.25586 179.50482 212.752 180.31108 210.06641 181.74219 C 207.38081 183.17329 205.4692 185.31307 205.52734 188.23828 L 205.52734 188.24609 C 205.54329 188.74942 205.75365 189.20912 206.08203 189.62109 C 206.82472 187.99565 208.26137 186.70405 210.06641 185.74219 C 212.752 184.31108 216.25586 183.50482 219.67773 183.09961 C 220.26711 183.0298 220.85279 182.99754 221.43164 182.99805 C 225.48362 183.00152 229.21043 184.63924 231.66602 186.6875 C 232.65128 187.50934 233.42442 188.40011 233.93945 189.30273 C 234.60129 188.50897 234.75824 187.46804 234.45703 186.45312 C 234.07521 185.1666 233.0692 183.85794 231.66602 182.6875 C 229.21043 180.63924 225.48362 179.00152 221.43164 178.99805 z M 56.740234 192.16016 C 56.172924 192.17905 55.598289 192.22242 55.023438 192.29102 C 50.419992 192.84139 45.661355 195.05622 42.734375 199.51172 L 42.726562 199.52539 L 42.71875 199.5332 C 41.794467 201.13412 41.715524 202.86109 42.296875 204.41992 C 42.411236 204.12137 42.550316 203.82494 42.71875 203.5332 L 42.726562 203.52539 L 42.734375 203.51172 C 45.661355 199.05622 50.419992 196.84139 55.023438 196.29102 C 55.598289 196.22242 56.172924 196.17905 56.740234 196.16016 C 60.715912 196.02723 64.418018 197.09458 66.605469 199.10352 L 66.605469 199.11133 L 66.613281 199.11133 C 66.782343 199.27635 66.917505 199.46025 67.037109 199.65234 C 67.097086 199.49774 67.177583 199.34015 67.226562 199.1875 C 67.725139 197.63366 67.632004 196.10571 66.613281 195.11133 L 66.605469 195.11133 L 66.605469 195.10352 C 64.418018 193.09458 60.715912 192.02723 56.740234 192.16016 z M 201.01367 197.30664 C 200.41925 197.33574 199.7943 197.45986 199.14258 197.69531 L 199.14062 197.69531 L 199.12695 197.70312 L 199.11133 197.71094 C 196.87927 198.67006 195.68298 200.8168 195.53125 203.0918 C 195.47488 203.9371 195.56046 204.80692 195.78516 205.65039 C 196.25732 203.94832 197.36085 202.46313 199.11133 201.71094 L 199.12695 201.70312 L 199.14062 201.69531 L 199.14258 201.69531 C 199.7943 201.45986 200.41925 201.33574 201.01367 201.30664 C 202.00437 201.2583 202.90657 201.47657 203.69531 201.88867 C 204.95732 202.54803 205.92483 203.67201 206.62695 204.94336 C 207.19965 205.98035 207.58938 207.11848 207.82617 208.21094 C 208.14435 207.36083 208.16779 206.21903 207.9707 204.94531 C 207.7691 203.64241 207.32908 202.21471 206.62695 200.94336 C 205.92483 199.67201 204.95732 198.54803 203.69531 197.88867 C 202.90657 197.47657 202.00437 197.2583 201.01367 197.30664 z M 95.050781 197.88867 C 93.945253 200.05317 91.778551 202.49608 89.705078 204.87109 C 88.296909 206.48405 86.947228 208.077 86.050781 209.61719 C 85.154334 211.15738 84.680346 212.69989 85.216797 214.12109 L 85.216797 214.12891 L 85.224609 214.12891 C 85.303266 214.32597 85.39835 214.51478 85.503906 214.69727 C 85.659862 214.33825 85.841045 213.97754 86.050781 213.61719 C 86.947228 212.077 88.296909 210.48405 89.705078 208.87109 C 92.51462 205.65296 95.509061 202.30623 95.779297 199.70312 C 95.790124 199.07959 95.533175 198.48173 95.050781 197.88867 z M 151.85742 219.10156 C 151.42356 219.73205 151.06362 220.36771 150.80469 221.00781 C 150.7362 221.2307 150.75016 221.4516 150.86328 221.73828 C 150.97981 222.03359 151.20601 222.37501 151.52148 222.74219 C 152.15242 223.47658 153.12118 224.2973 154.11914 225.15625 C 155.1171 226.01519 156.14546 226.91609 156.91797 227.88672 C 157.0854 228.09709 157.23612 228.31533 157.37695 228.53516 C 157.77307 228.05301 158.03452 227.58399 158.08984 227.08984 C 158.22753 225.93038 157.69048 224.85734 156.91797 223.88672 C 156.14546 222.91609 155.1171 222.01519 154.11914 221.15625 C 153.27923 220.43333 152.47198 219.74164 151.85742 219.10156 z "
       transform="scale(0.26458333)" />
  </g>
</svg>
