<?xml version="1.0" encoding="UTF-8" standalone="no"?>
<svg
   width="256"
   height="256"
   id="svg11300"
   sodipodi:version="0.32"
   sodipodi:docname="io.github.stuarthayhurst.Crystal.svg"
   version="1.0"
   style="display:inline;enable-background:new"
   inkscape:version="1.4.3 (0d15f75042, 2025-12-25)"
   xmlns:inkscape="http://www.inkscape.org/namespaces/inkscape"
   xmlns:sodipodi="http://sodipodi.sourceforge.net/DTD/sodipodi-0.dtd"
   xmlns:xlink="http://www.w3.org/1999/xlink"
   xmlns="http://www.w3.org/2000/svg"
   xmlns:svg="http://www.w3.org/2000/svg">
  <sodipodi:namedview
     stroke="#ef2929"
     fill="#f57900"
     id="base"
     pagecolor="#cccccc"
     bordercolor="#666666"
     borderopacity="1"
     inkscape:pageopacity="0"
     inkscape:pageshadow="2"
     inkscape:zoom="1.4142136"
     inkscape:cx="120.91526"
     inkscape:cy="117.73328"
     inkscape:current-layer="layer3"
     showgrid="false"
     inkscape:grid-bbox="true"
     inkscape:document-units="px"
     inkscape:showpageshadow="true"
     inkscape:window-width="1920"
     inkscape:window-height="1011"
     inkscape:window-x="0"
     inkscape:window-y="0"
     width="400px"
     height="300px"
     inkscape:snap-nodes="true"
     inkscape:snap-bbox="true"
     gridtolerance="10000"
     inkscape:object-nodes="true"
     inkscape:snap-grids="true"
     showguides="true"
     inkscape:guide-bbox="true"
     inkscape:window-maximized="1"
     inkscape:bbox-paths="true"
     inkscape:snap-bbox-midpoints="true"
     inkscape:snap-global="true"
     inkscape:object-paths="true"
     inkscape:snap-intersection-paths="true"
     inkscape:snap-smooth-nodes="true"
     inkscape:pagecheckerboard="false"
     showborder="true"
     inkscape:document-rotation="0"
     objecttolerance="20"
     inkscape:deskcolor="#d1d1d1" />
  <defs
     id="defs3">
    <radialGradient
       inkscape:collect="always"
       xlink:href="#linearGradient6774"
       id="radialGradient953"
       gradientUnits="userSpaceOnUse"
       gradientTransform="matrix(-1.0583704,-0.28358947,0.17071939,-0.63713347,571.35718,318.95197)"
       cx="255.10149"
       cy="147.24631"
       fx="255.10149"
       fy="147.24631"
       r="280.6069" />
    <linearGradient
       inkscape:collect="always"
       id="linearGradient6774">
      <stop
         style="stop-color:#00ffff;stop-opacity:1;"
         offset="0"
         id="stop6770" />
      <stop
         style="stop-color:#ffffff;stop-opacity:1"
         offset="1"
         id="stop6772" />
    </linearGradient>
    <radialGradient
       inkscape:collect="always"
       xlink:href="#linearGradient6774"
       id="radialGradient955"
       gradientUnits="userSpaceOnUse"
       gradientTransform="matrix(-1.0583704,-0.28358947,0.17071939,-0.63713347,571.35718,318.95197)"
       cx="255.10149"
       cy="147.24631"
       fx="255.10149"
       fy="147.24631"
       r="280.6069" />
    <radialGradient
       inkscape:collect="always"
       xlink:href="#linearGradient6774"
       id="radialGradient975"
       gradientUnits="userSpaceOnUse"
       gradientTransform="matrix(-1.0583704,-0.28358947,0.17071939,-0.63713347,564.1978,311.93919)"
       cx="255.10149"
       cy="147.24631"
       fx="255.10149"
       fy="147.24631"
       r="280.6069" />
    <radialGradient
       inkscape:collect="always"
       xlink:href="#linearGradient6774"
       id="radialGradient959"
       gradientUnits="userSpaceOnUse"
       gradientTransform="matrix(0.65677134,-0.78225526,0.47091359,0.39537294,-84.929079,318.42578)"
       cx="255.10149"
       cy="147.24631"
       fx="255.10149"
       fy="147.24631"
       r="280.6069" />
    <radialGradient
       inkscape:collect="always"
       xlink:href="#linearGradient6774"
       id="radialGradient977"
       gradientUnits="userSpaceOnUse"
       gradientTransform="matrix(0.38587818,-0.9457113,0.56931329,0.23229666,3.7443677,361.69)"
       cx="255.10149"
       cy="147.24631"
       fx="255.10149"
       fy="147.24631"
       r="280.6069" />
    <radialGradient
       inkscape:collect="always"
       xlink:href="#linearGradient6774"
       id="radialGradient957"
       gradientUnits="userSpaceOnUse"
       gradientTransform="matrix(0.89985677,-0.48324905,0.29091342,0.5417091,-160.94035,226.88082)"
       cx="255.10149"
       cy="147.24631"
       fx="255.10149"
       fy="147.24631"
       r="280.6069" />
  </defs>
  <g
     style="display:inline"
     inkscape:groupmode="layer"
     inkscape:label="Icon"
     id="layer1">
    <g
       inkscape:groupmode="layer"
       id="layer4-6"
       inkscape:label="Shadow"
       style="display:inline;opacity:0.4;enable-background:new">
      <path
         id="path19"
         style="display:inline;fill:#000000;fill-opacity:1;stroke:none;stroke-width:39.5303;stroke-linecap:round;stroke-linejoin:round;enable-background:new"
         d="m 128,15.248047 c -4.76197,0 -9.52319,1.825925 -13.17188,5.474609 L 16.722656,118.82812 c -7.2973699,7.29738 -7.2973676,19.04639 0,26.34376 l 98.105464,98.10546 c 7.29738,7.29738 19.04639,7.29738 26.34376,0 l 98.10546,-98.10546 c 7.29725,-7.29726 7.29961,-19.04649 0.002,-26.34376 L 141.17188,20.722656 C 137.52319,17.073972 132.76197,15.248047 128,15.248047 Z"
         sodipodi:nodetypes="sccssssccs" />
    </g>
    <g
       inkscape:groupmode="layer"
       id="layer2-7"
       inkscape:label="Background"
       style="display:inline;enable-background:new">
      <path
         id="rect5"
         style="display:inline;fill:#3883e6;fill-opacity:1;stroke:none;stroke-width:39.5303;stroke-linecap:round;stroke-linejoin:round;enable-background:new"
         d="m 128,11.248047 c -4.76197,0 -9.52319,1.825925 -13.17188,5.474609 L 16.722656,114.82812 c -7.2973699,7.29738 -7.2973676,19.04639 0,26.34376 l 98.105464,98.10546 c 7.29738,7.29738 19.04639,7.29738 26.34376,0 l 98.10546,-98.10546 c 7.29725,-7.29726 7.29961,-19.04649 0.002,-26.34376 L 141.17188,16.722656 C 137.52319,13.073972 132.76197,11.248047 128,11.248047 Z"
         sodipodi:nodetypes="sccssssccs" />
    </g>
    <g
       inkscape:groupmode="layer"
       id="layer3"
       inkscape:label="Crystals"
       style="display:inline;enable-background:new">
      <g
         id="g8"
         transform="matrix(1.1791083,0,0,1.1791083,-5.5618033,-16.638184)"
         style="stroke-width:0.848099">
        <path
           id="rect1539"
           style="fill:url(#radialGradient953);fill-opacity:1;stroke-width:0.719445;paint-order:stroke fill markers"
           d="M 49.96875,92.894531 31.052734,111.81055 h 61.757813 l 16.380863,-9.45899 -16.380863,-9.457029 z" />
        <path
           id="rect1545"
           style="opacity:0.899716;fill:url(#radialGradient955);fill-opacity:1;stroke-width:0.771789;paint-order:stroke fill markers"
           d="m 48.894531,93.96875 -14.347656,14.34766 41.785156,41.7832 19.59961,5.25195 -5.251953,-19.59961 z" />
        <path
           id="rect1611"
           style="fill:url(#radialGradient975);fill-opacity:1;stroke-width:0.369821;paint-order:stroke fill markers"
           d="m 40.431058,94.459673 -2.712891,2.712894 v 29.699213 l 4.861328,8.41992 4.861329,-8.42188 V 94.459673 Z" />
      </g>
      <g
         id="g9"
         transform="matrix(1.2932235,0,0,1.2932235,-27.665527,-8.8849024)"
         style="stroke-width:0.773261">
        <path
           id="rect1557"
           style="opacity:0.915838;fill:url(#radialGradient959);fill-opacity:1;stroke-width:0.703683;paint-order:stroke fill markers"
           d="M 112.5625,30.300781 97.802734,45.060547 110.53516,80.076172 125.02344,92.240234 128.3125,73.613281 Z" />
        <path
           id="rect1617"
           style="fill:url(#radialGradient977);fill-opacity:1;stroke-width:0.337187;paint-order:stroke fill markers"
           d="m 102.66602,40.197266 -5.269536,5.269531 -3.046875,24.132812 3.513672,8.355469 5.478519,-7.220703 3.78515,-29.974609 z" />
        <path
           id="rect1551"
           style="fill:url(#radialGradient957);fill-opacity:1;stroke-width:0.577754;paint-order:stroke fill markers"
           d="m 112.35156,30.511719 -11.28125,11.28125 c 14.11316,8.737999 25.59417,15.845741 41.11524,25.455078 l 15.52148,0.478515 -7.34765,-13.683593 C 137.199,45.895022 124.55697,38.068462 112.35156,30.511719 Z" />
      </g>
    </g>
    <g
       inkscape:groupmode="layer"
       id="layer4"
       inkscape:label="Trim"
       style="display:inline">
      <path
         id="path98"
         style="fill:#4294ee;fill-opacity:1;stroke-linecap:round;stroke-linejoin:round"
         d="m 128,11.248047 c -4.76197,0 -9.52318,1.825925 -13.17188,5.474609 L 16.722656,114.82812 c -7.2973696,7.29739 -7.2973674,19.04638 0,26.34376 l 98.105464,98.10546 c 7.29739,7.29738 19.04638,7.29738 26.34376,0 l 98.10546,-98.10546 c 7.29725,-7.29726 7.29957,-19.04648 0.002,-26.34376 L 141.17188,16.722656 C 137.52319,13.073972 132.76197,11.248047 128,11.248047 Z m 0,16 c 0.67195,0 1.24261,0.174254 1.85742,0.789062 l 98.10742,98.105471 a 16.0016,16.0016 0 0 0 0.002,0 c 1.22423,1.22418 1.22263,2.48839 -0.004,3.71484 l -98.10547,98.10547 c -1.22556,1.22556 -2.48927,1.22557 -3.71484,0 L 28.037109,129.85742 c -1.225553,-1.22555 -1.225564,-2.48928 0,-3.71484 L 126.14258,28.037109 c 0.61481,-0.614808 1.18547,-0.789062 1.85742,-0.789062 z" />
    </g>
    <g
       inkscape:groupmode="layer"
       id="g32"
       inkscape:label="Cog"
       style="display:inline;opacity:1">
      <path
         id="path64"
         style="fill:#b3b3b3;fill-opacity:1;stroke-linejoin:round;paint-order:stroke fill markers"
         d="m 140.88281,98.015625 a 12.387338,12.387338 0 0 0 -6.19336,1.660156 l -12.88281,7.437499 a 12.387338,12.387338 0 0 0 -6.19336,10.72656 v 20.32032 a 12.387338,12.387338 0 0 0 18.58008,10.72656 l 30.48047,-17.59766 a 12.387338,12.387338 0 0 0 0,-21.45312 L 147.07617,99.675781 a 12.387338,12.387338 0 0 0 -6.19336,-1.660156 z m 75.30469,0 a 12.387338,12.387338 0 0 0 -6.19336,1.660156 l -17.59766,10.160159 a 12.387338,12.387338 0 0 0 0,21.45312 l 30.48047,17.59766 a 12.387338,12.387338 0 0 0 7.35352,1.33203 l 9.04687,-9.04687 c 0.77654,-0.77654 1.45314,-1.61188 2.06446,-2.47852 a 12.387338,12.387338 0 0 0 0.11328,-0.5332 l 0.002,-20.32032 a 12.387338,12.387338 0 0 0 -0.0879,-0.49804 c -0.61728,-0.87951 -1.30272,-1.72658 -2.08984,-2.51368 l -12.76758,-12.76757 -4.13086,-2.384769 a 12.387338,12.387338 0 0 0 -6.1934,-1.660156 z M 107.94531,160.51172 a 12.387338,12.387338 0 0 0 -6.19336,1.6582 l -17.597653,10.16016 a 12.387338,12.387338 0 0 0 -6.193359,10.72656 v 14.875 a 12.387338,12.387338 0 0 0 2.101562,6.58008 l 4.220703,4.2207 17.468747,10.08594 a 12.387338,12.387338 0 0 0 18.58008,-10.72656 v -35.19532 a 12.387338,12.387338 0 0 0 -10.23633,-12.19726 12.387338,12.387338 0 0 0 -2.15039,-0.1875 z M 128,230.44336 a 12.387338,12.387338 0 0 0 -2.15039,0.1875 12.387338,12.387338 0 0 0 -9.80469,9.74805 c 7.33366,6.16504 18.22103,5.80437 25.12696,-1.10157 l 1.99414,-1.99414 -8.97266,-5.18164 A 12.387338,12.387338 0 0 0 128,230.44336 Z" />
      <path
         id="path28"
         style="fill:#b3b3b3;fill-opacity:1;stroke:none;stroke-width:14.469;stroke-linecap:square;stroke-linejoin:round;stroke-miterlimit:4;stroke-dasharray:none;paint-order:stroke fill markers"
         d="m 174.64844,115.64258 a 74.951025,74.951726 89.917734 0 0 -61.02344,37.37695 74.951025,74.951726 89.917734 0 0 13.39844,91.68359 c 5.08198,0.26687 10.24998,-1.52732 14.14844,-5.42578 l 22.66601,-22.66601 a 29.980409,29.980691 89.917863 0 1 -0.29297,-0.1543 29.980409,29.980691 89.917863 0 1 -10.97461,-40.95312 29.980409,29.980691 89.917863 0 1 40.9043,-11.00196 29.980409,29.980691 89.917863 0 1 0.0508,0.0293 29.980409,29.980691 89.917863 0 1 11.00391,11.38867 l 32.27343,-32.27344 a 74.951025,74.951726 89.917734 0 0 -20.79101,-18.0625 74.951025,74.951726 89.917734 0 0 -0.4375,-0.25 74.951025,74.951726 89.917734 0 0 -40.92578,-9.6914 z" />
      <path
         id="path29"
         style="fill:#e6e6e6;fill-opacity:1;stroke:none;stroke-width:11.8663;stroke-linecap:square;stroke-linejoin:round;stroke-miterlimit:4;stroke-dasharray:none;paint-order:stroke fill markers"
         d="m 175.34766,129.11719 a 61.460363,61.45969 6.2053056 0 0 -50.03907,30.64843 61.460363,61.45969 6.2053056 0 0 15.89063,79.48438 l 26.72851,-26.72852 a 24.584152,24.583875 6.8107725 0 1 -1.68164,-0.73437 24.584152,24.583875 6.8107725 0 1 -8.99804,-33.58203 24.584152,24.583875 6.8107725 0 1 33.54101,-9.02344 24.584152,24.583875 6.8107725 0 1 0.041,0.0234 24.584152,24.583875 6.8107725 0 1 9.82031,10.59375 l 26.67578,-26.67578 a 61.460363,61.45969 6.2053056 0 0 -18.06055,-15.85352 61.460363,61.45969 6.2053056 0 0 -0.35742,-0.20703 61.460363,61.45969 6.2053056 0 0 -33.56054,-7.94531 z" />
      <path
         id="path30"
         style="color:#000000;font-style:normal;font-variant:normal;font-weight:normal;font-stretch:normal;font-size:medium;line-height:normal;font-family:sans-serif;font-variant-ligatures:normal;font-variant-position:normal;font-variant-caps:normal;font-variant-numeric:normal;font-variant-alternates:normal;font-variant-east-asian:normal;font-feature-settings:normal;font-variation-settings:normal;text-indent:0;text-align:start;text-decoration:none;text-decoration-line:none;text-decoration-style:solid;text-decoration-color:#000000;letter-spacing:normal;word-spacing:normal;text-transform:none;writing-mode:lr-tb;direction:ltr;text-orientation:mixed;dominant-baseline:auto;baseline-shift:baseline;text-anchor:start;white-space:normal;shape-padding:0;shape-margin:0;inline-size:0;clip-rule:nonzero;display:inline;overflow:visible;visibility:visible;isolation:auto;mix-blend-mode:normal;color-interpolation:sRGB;color-interpolation-filters:linearRGB;solid-color:#000000;solid-opacity:1;vector-effect:none;fill:#b3b3b3;fill-opacity:1;fill-rule:nonzero;stroke:none;stroke-width:5.01386;stroke-linecap:square;stroke-linejoin:round;stroke-miterlimit:4;stroke-dasharray:none;stroke-dashoffset:0;stroke-opacity:1;paint-order:stroke fill markers;color-rendering:auto;image-rendering:auto;shape-rendering:auto;text-rendering:auto;enable-background:accumulate;stop-color:#000000"
         d="m 179.21289,163.24414 c -9.64793,-0.23784 -19.12142,4.67126 -24.28516,13.61524 -7.52126,13.02726 -3.05667,29.68574 9.97071,37.20703 0.31757,0.18335 0.63923,0.35428 0.96094,0.52343 l 4.98828,-4.98828 c -0.89237,-0.36177 -1.77298,-0.78482 -2.63282,-1.28125 -9.92298,-5.72896 -13.26798,-18.22363 -7.53906,-28.14648 3.7543,-6.50273 10.4177,-10.17881 17.35742,-10.32813 0.99139,-0.0214 1.98542,0.0296 2.98047,0.1543 2.65352,0.33247 5.28559,1.18982 7.76563,2.61523 0.0116,0.007 0.0265,0.0113 0.0391,0.0195 4.18122,2.414 7.18832,6.03069 8.84766,10.14843 l 4.96484,-4.96484 c -2.31287,-4.41487 -5.85848,-8.25134 -10.49414,-10.92774 l -0.0469,-0.0293 h -0.002 c -4.06953,-2.33849 -8.49029,-3.50907 -12.875,-3.61719 z" />
      <path
         id="path65"
         style="fill:#e6e6e6;stroke-linejoin:round;paint-order:stroke fill markers"
         d="M 140.88281,110.40234 128,117.83984 v 20.32032 l 30.48047,-17.59766 z m 75.30469,0 -17.59766,10.16016 30.48047,17.59766 v -20.32032 z m -108.24219,62.49414 -17.597654,10.16016 v 14.875 L 107.94531,208.0918 Z M 128,242.82812 V 244.75 c 0.9706,0 1.93922,-0.0964 2.90039,-0.24805 z" />
    </g>
    <g
       inkscape:groupmode="layer"
       id="layer6"
       inkscape:label="Small trim"
       style="display:inline">
      <path
         id="path107"
         style="display:inline;fill:#4294ee;fill-opacity:1;stroke-linecap:round;stroke-linejoin:round;enable-background:new"
         d="m 128,11.248047 c -4.76197,0 -9.52318,1.825925 -13.17188,5.474609 L 16.722656,114.82812 c -7.2973696,7.29739 -7.2973674,19.04638 0,26.34376 l 98.105464,98.10546 c 7.29739,7.29738 19.04638,7.29738 26.34376,0 l 98.10546,-98.10546 c 7.29725,-7.29726 7.29957,-19.04648 0.002,-26.34376 L 141.17188,16.722656 C 137.52319,13.073972 132.76197,11.248047 128,11.248047 Z m 0,8 c 2.71696,0 5.38388,0.999113 7.51562,3.130859 l 98.10743,98.105474 c 4.26092,4.26072 4.25993,10.7694 -0.002,15.03124 l -98.10547,98.10547 c -4.26145,4.26147 -10.76977,4.26148 -15.03124,0 L 22.378906,135.51562 c -4.26146,-4.26145 -4.261467,-10.76977 0,-15.03124 L 120.48438,22.378906 C 122.61611,20.24716 125.28304,19.248047 128,19.248047 Z" />
    </g>
    <g
       inkscape:groupmode="layer"
       id="layer2"
       inkscape:label="Highlights"
       style="display:inline;enable-background:new">
      <path
         id="path9"
         style="display:inline;opacity:0.15;fill:#ffffff;fill-opacity:1;stroke:none;stroke-width:39.5303;stroke-linecap:round;stroke-linejoin:round;enable-background:new"
         d="m 11.25,128 c 0,4.7616 1.823972,9.52319 5.472656,13.17188 l 98.105464,98.10546 c 7.29739,7.29738 19.04638,7.29738 26.34376,0 l 98.10546,-98.10546 c 3.64863,-3.64863 5.47407,-8.41026 5.47461,-13.17188 z"
         sodipodi:nodetypes="ccssscc" />
      <path
         id="rect12"
         style="opacity:0.1;fill:#ffffff;fill-opacity:1;stroke:none;stroke-width:60.6551;stroke-linecap:round;stroke-linejoin:round"
         d="M 128,11.248047 V 244.75 c 4.7616,0 9.52319,-1.82397 13.17188,-5.47266 l 98.10546,-98.10546 c 7.29725,-7.29726 7.29961,-19.04649 0.002,-26.34376 L 141.17188,16.722656 C 137.52319,13.073972 132.76197,11.248047 128,11.248047 Z"
         sodipodi:nodetypes="ccssccc" />
      <path
         id="path16"
         style="display:inline;opacity:0.2;fill:#ffffff;fill-opacity:1;stroke:none;stroke-width:39.5303;stroke-linecap:round;stroke-linejoin:round;enable-background:new"
         d="m 128,11.248047 c -4.76197,0 -9.52318,1.825925 -13.17188,5.474609 L 16.722656,114.82812 c -3.90446,3.90447 -5.697534,9.08234 -5.423828,14.17188 0.237845,-4.42272 2.030919,-8.77896 5.423828,-12.17188 L 114.82812,18.722656 c 3.6487,-3.648684 8.40991,-5.474609 13.17188,-5.474609 4.76197,0 9.52319,1.825925 13.17188,5.474609 l 98.10742,98.105464 c 3.39302,3.39287 5.18648,7.74914 5.42382,12.17188 0.27429,-5.08956 -1.51923,-10.26747 -5.42382,-14.17188 L 141.17188,16.722656 C 137.52319,13.073972 132.76197,11.248047 128,11.248047 Z" />
    </g>
  </g>
</svg>
