<?xml version="1.0" encoding="UTF-8" standalone="no"?>
<svg
   xmlns:dc="http://purl.org/dc/elements/1.1/"
   xmlns:cc="http://creativecommons.org/ns#"
   xmlns:rdf="http://www.w3.org/1999/02/22-rdf-syntax-ns#"
   xmlns:svg="http://www.w3.org/2000/svg"
   xmlns="http://www.w3.org/2000/svg"
   xmlns:sodipodi="http://sodipodi.sourceforge.net/DTD/sodipodi-0.dtd"
   xmlns:inkscape="http://www.inkscape.org/namespaces/inkscape"
   sodipodi:docname="kernel-notify.svg"
   inkscape:version="1.0.1 (3bc2e813f5, 2020-09-07)"
   id="svg8"
   version="1.1"
   viewBox="0 0 67.733331 67.733331"
   height="256"
   width="256">
  <defs
     id="defs2" />
  <sodipodi:namedview
     inkscape:window-maximized="1"
     inkscape:window-y="27"
     inkscape:window-x="2004"
     inkscape:window-height="1016"
     inkscape:window-width="1836"
     units="px"
     showgrid="false"
     inkscape:document-rotation="0"
     inkscape:current-layer="layer12"
     inkscape:document-units="px"
     inkscape:cy="180.33294"
     inkscape:cx="75.407191"
     inkscape:zoom="2"
     inkscape:pageshadow="2"
     inkscape:pageopacity="0.0"
     borderopacity="1.0"
     bordercolor="#666666"
     pagecolor="#ffffff"
     id="base" />
  <metadata
     id="metadata5">
    <rdf:RDF>
      <cc:Work
         rdf:about="">
        <dc:format>image/svg+xml</dc:format>
        <dc:type
           rdf:resource="http://purl.org/dc/dcmitype/StillImage" />
        <dc:title />
      </cc:Work>
    </rdf:RDF>
  </metadata>
  <g
     inkscape:label="Background"
     id="layer2"
     inkscape:groupmode="layer"
     style="display:inline">
    <g
       inkscape:groupmode="layer"
       id="layer13"
       inkscape:label="Shadow"
       style="display:inline;opacity:0.4">
      <circle
         cy="34.924999"
         cx="33.866665"
         id="circle1383"
         style="display:inline;opacity:1;fill:#000000;fill-opacity:1;stroke-width:1.70089;paint-order:stroke fill markers"
         r="31.749998" />
    </g>
    <g
       inkscape:groupmode="layer"
       id="layer10"
       inkscape:label="Colour"
       style="display:inline">
      <circle
         style="display:inline;opacity:1;fill:#333333;fill-opacity:1;stroke-width:1.70089;paint-order:stroke fill markers"
         id="path1327"
         cx="33.866665"
         cy="33.866665"
         r="31.749998" />
    </g>
    <g
       style="display:inline;opacity:0.1"
       inkscape:label="Highlight"
       id="layer1"
       inkscape:groupmode="layer">
      <path
         d="M 33.866666,2.1166681 A 31.749998,31.749998 0 0 0 2.1166681,33.866666 31.749998,31.749998 0 0 0 2.1216512,34.430308 31.749998,31.749998 0 0 1 33.866666,3.2505966 31.749998,31.749998 0 0 1 65.611679,34.436953 31.749998,31.749998 0 0 0 65.616663,33.866666 31.749998,31.749998 0 0 0 33.866666,2.1166681 Z"
         style="display:inline;opacity:1;fill:#ffffff;fill-opacity:1;stroke-width:1.70089;paint-order:stroke fill markers"
         id="circle849" />
    </g>
  </g>
  <g
     inkscape:groupmode="layer"
     id="layer7"
     inkscape:label="Icon"
     style="display:inline">
    <g
       inkscape:groupmode="layer"
       id="layer12"
       inkscape:label="Shadow"
       style="display:inline;opacity:0.4">
      <path
         id="path1767"
         style="display:inline;fill:#000000;stroke-width:12.0271;paint-order:stroke fill markers"
         d="M 128 38.25 C 109.95747 39.820288 93.165995 43.836416 79.935547 51.511719 C 79.87103 51.550005 79.806591 51.588402 79.742188 51.626953 C 78.07226 52.706923 77.064034 54.560116 77.064453 56.548828 C 77.064801 59.784727 79.687929 62.407863 82.923828 62.408203 C 82.938946 62.40826 82.953707 62.40826 82.96875 62.408203 C 84.022959 62.399132 85.055323 62.106749 85.957031 61.560547 L 85.957031 61.564453 C 98.66832 53.976254 113.1961 49.969498 128 49.96875 C 173.30461 49.96875 210.03125 86.695391 210.03125 132 C 210.03142 147.69586 205.5238 163.03347 197.08984 176.21289 L 191.56055 170.68359 A 3.4488426 3.4488426 0 0 0 189.09375 169.67188 A 3.4488426 3.4488426 0 0 0 185.66992 173.11914 L 185.66992 193.55273 A 3.4488426 3.4488426 0 0 0 189.12305 197 L 209.54883 197 A 3.4488426 3.4488426 0 0 0 211.98633 191.10938 L 205.54883 184.67188 C 216.08756 169.1555 221.75025 150.81056 221.75 132 C 221.75 80.223302 179.77669 38.25 128 38.25 z M 46.447266 67.003906 A 3.4488426 3.4488426 0 0 0 44.011719 72.888672 L 50.451172 79.328125 C 39.912443 94.844496 34.249749 113.18944 34.25 132 C 34.249998 183.7767 76.223305 225.75 128 225.75 C 146.04253 224.17971 162.834 220.16358 176.06445 212.48828 C 176.12897 212.44999 176.19341 212.4116 176.25781 212.37305 C 177.92774 211.29308 178.93597 209.43988 178.93555 207.45117 C 178.9352 204.21527 176.31207 201.59214 173.07617 201.5918 C 173.06105 201.59174 173.04629 201.59174 173.03125 201.5918 C 171.97704 201.60087 170.94468 201.89326 170.04297 202.43945 L 170.04297 202.43555 C 157.33168 210.02375 142.8039 214.0305 128 214.03125 C 82.695391 214.03125 45.96875 177.30461 45.96875 132 C 45.968584 116.30414 50.476212 100.96653 58.910156 87.787109 L 64.443359 93.320312 A 3.4488426 3.4488426 0 0 0 70.328125 90.876953 L 70.328125 70.451172 A 3.4488426 3.4488426 0 0 0 66.880859 67.003906 L 46.447266 67.003906 z "
         transform="scale(0.26458332)" />
      <path
         id="path2048"
         style="display:inline;fill:#000000;fill-opacity:1;stroke-width:0.0410186"
         d="m 34.605638,17.331758 c -0.226012,-4.11e-4 -0.461748,0.0092 -0.707451,0.02894 -5.483018,0.441348 -4.843666,5.60231 -4.681368,8.319388 3.58e-4,0.006 1.65e-4,0.01109 5.16e-4,0.01705 0.01114,0.274474 0.01965,0.495665 0.02377,0.676961 6e-6,2.76e-4 -8e-6,7.57e-4 0,0.001 1.9e-5,0.0035 -1.3e-5,0.0069 0,0.01034 0.0021,0.09667 -2.67e-4,0.165198 -5.18e-4,0.244429 -0.11397,1.599579 -0.439373,2.86294 -1.537372,4.426604 -0.0033,0.0047 -0.007,0.0092 -0.01034,0.01395 -1.298012,1.544293 -3.123836,4.041126 -3.988905,6.640422 -0.384012,1.153961 -0.574877,2.328169 -0.448034,3.448883 -0.0056,0.127775 -0.01558,0.217091 -0.03256,0.270785 -0.03506,0.03364 -0.07074,0.06682 -0.10387,0.101804 -0.381064,0.407313 -0.662891,0.900123 -0.976685,1.231966 -0.293284,0.292912 -0.711061,0.403995 -1.170471,0.568439 -0.45941,0.164936 -0.963173,0.407903 -1.269173,0.995288 0,0 -5.17e-4,5.19e-4 -5.17e-4,5.19e-4 -4.1e-4,8.17e-4 -7.7e-4,0.0019 -0.0015,0.0026 -0.143975,0.268671 -0.190686,0.558557 -0.190686,0.852662 0,0.271952 0.04001,0.548037 0.08062,0.813387 0.0845,0.552112 0.170462,1.074198 0.05684,1.427819 -0.363426,0.993883 -0.410469,1.680885 -0.154512,2.179711 0.256778,0.499608 0.783757,0.719696 1.37976,0.844394 1.192005,0.248574 2.806312,0.1871 4.078304,0.861447 l 0.01189,-0.02222 c 2.03e-4,9.3e-5 3.13e-4,4.26e-4 5.17e-4,5.19e-4 l -0.01137,0.02222 c 1.361823,0.712083 2.742857,0.96462 3.844209,0.713134 0.777222,-0.177107 1.409171,-0.634021 1.749764,-1.332217 0.03018,-0.0272 0.06698,-0.04812 0.115239,-0.06201 0.83929,-0.02591 1.771057,-0.367498 3.236494,-0.448035 1.023374,-0.08257 2.300521,0.360651 3.769278,0.283189 l 0.01809,0.001 c 0.03855,0.159575 0.09445,0.313306 0.170532,0.459404 8.63e-4,0.0012 0.0017,0.0028 0.0026,0.0041 0.572169,1.144421 1.634919,1.668137 2.768306,1.578716 1.134539,-0.08946 2.341126,-0.758327 3.316594,-1.918745 l -0.02222,-0.01912 c 3.36e-4,-3.55e-4 7.01e-4,-6.78e-4 0.001,-10e-4 l 0.02222,0.01809 c 0.929487,-1.127194 2.472494,-1.594316 3.495911,-2.211237 0.511505,-0.308459 0.926195,-0.69456 0.958598,-1.255736 0.03191,-0.560726 -0.297511,-1.189379 -1.054716,-2.029849 -4.1e-4,-4.1e-4 -0.001,-6.96e-4 -0.001,-0.001 -0.248944,-0.28098 -0.367533,-0.80204 -0.495062,-1.357024 -0.127198,-0.55457 -0.269195,-1.152332 -0.724503,-1.539957 -8.63e-4,-8.6e-4 -0.0023,-0.0017 -0.0031,-0.0026 -0.09024,-0.07876 -0.182838,-0.145087 -0.275953,-0.200504 -0.0685,-0.04057 -0.137858,-0.07398 -0.207221,-0.10387 -0.0066,-0.0062 -0.01594,-0.01302 -0.0217,-0.01912 -0.0045,-0.0047 -0.01188,-0.0099 -0.0155,-0.01447 -0.01066,-0.01343 -0.01405,-0.02692 -0.01861,-0.04031 -0.0012,-0.0038 -0.0025,-0.0076 -0.0041,-0.01137 0.610722,-1.859304 0.362828,-3.709111 -0.270269,-5.382101 -0.783868,-2.073082 -2.152685,-3.87945 -3.198254,-5.114933 -1.011548,-1.276043 -2.002155,-2.496685 -2.238106,-4.140832 -0.01936,-0.261931 -0.03384,-0.694789 -0.04857,-1.296561 0.04509,-3.234514 0.07888,-8.526939 -5.216737,-8.534363 z" />
    </g>
    <path
       id="path830"
       style="display:inline;fill:#00ffff;stroke-width:12.0271;paint-order:stroke fill markers"
       d="M 46.447266 63.003906 A 3.4488427 3.4488427 0 0 0 44.011719 68.888672 L 50.451172 75.328125 C 39.912446 90.844497 34.249749 109.18944 34.25 128 C 34.249998 179.7767 76.223305 221.75 128 221.75 C 146.04253 220.17971 162.834 216.16358 176.06445 208.48828 C 176.12895 208.44998 176.1934 208.41158 176.25781 208.37305 C 177.92774 207.29308 178.93597 205.43988 178.93555 203.45117 C 178.9352 200.21527 176.31207 197.59214 173.07617 197.5918 C 173.06117 197.59174 173.04625 197.59174 173.03125 197.5918 C 171.97704 197.6008 170.94468 197.89324 170.04297 198.43945 L 170.04297 198.43555 C 157.33168 206.02375 142.8039 210.0305 128 210.03125 C 82.695391 210.03125 45.968747 173.30461 45.96875 128 C 45.968581 112.30414 50.476214 96.966526 58.910156 83.787109 L 64.443359 89.320312 A 3.4488427 3.4488427 0 0 0 70.328125 86.876953 L 70.328125 66.451172 A 3.4488427 3.4488427 0 0 0 66.880859 63.003906 L 46.447266 63.003906 z "
       transform="scale(0.26458332)" />
    <path
       inkscape:connector-curvature="0"
       id="path956"
       d=""
       style="fill:#ffbb00;fill-opacity:1;stroke-width:0.00146724" />
    <path
       inkscape:connector-curvature="0"
       id="path958"
       d=""
       style="fill:#ffbb00;fill-opacity:1;stroke-width:0.000183405" />
    <path
       inkscape:connector-curvature="0"
       id="path960"
       d=""
       style="fill:#ffbb00;fill-opacity:1;stroke-width:0.000183405" />
    <path
       inkscape:connector-curvature="0"
       id="path962"
       d=""
       style="fill:#ffbb00;fill-opacity:1;stroke-width:0.000183405" />
    <path
       inkscape:connector-curvature="0"
       id="path964"
       d=""
       style="fill:#ffbb00;fill-opacity:1;stroke-width:0.000183405" />
    <path
       inkscape:connector-curvature="0"
       id="path966"
       d=""
       style="fill:#ffbb00;fill-opacity:1;stroke-width:0.00146724" />
    <path
       inkscape:connector-curvature="0"
       id="path968"
       d=""
       style="fill:#ffbb00;fill-opacity:1;stroke-width:0.00146724" />
    <path
       id="path1645"
       style="display:inline;fill:#00ffff;stroke-width:12.0271;paint-order:stroke fill markers"
       d="M 128 34.25 C 109.95747 35.820288 93.165995 39.836416 79.935547 47.511719 C 79.87103 47.550005 79.806591 47.588402 79.742188 47.626953 C 78.07226 48.706923 77.064034 50.560116 77.064453 52.548828 C 77.064801 55.784727 79.687929 58.407863 82.923828 58.408203 C 82.938946 58.40826 82.953707 58.40826 82.96875 58.408203 C 84.022959 58.399132 85.055323 58.106742 85.957031 57.560547 L 85.957031 57.564453 C 98.66832 49.976254 113.1961 45.969498 128 45.96875 C 173.30461 45.96875 210.03125 82.695391 210.03125 128 C 210.03142 143.69586 205.52379 159.03347 197.08984 172.21289 L 191.56055 166.68359 A 3.4488427 3.4488427 0 0 0 189.09375 165.67188 A 3.4488427 3.4488427 0 0 0 185.66992 169.11914 L 185.66992 189.55273 A 3.4488427 3.4488427 0 0 0 189.12305 193 L 209.54883 193 A 3.4488427 3.4488427 0 0 0 211.98633 187.10938 L 205.54883 180.67188 C 216.08756 165.1555 221.75025 146.81056 221.75 128 C 221.75 76.223302 179.77669 34.25 128 34.25 z "
       transform="scale(0.26458332)" />
    <g
       id="g871">
      <path
         id="path970"
         style="fill:#000000;fill-opacity:1;stroke-width:0.155031"
         d="M 130.79297 61.505859 C 129.93875 61.504306 129.04778 61.54074 128.11914 61.615234 C 107.39592 63.283322 109.81237 82.789322 110.42578 93.058594 C 110.42713 93.081209 110.4264 93.100522 110.42773 93.123047 C 110.46983 94.16043 110.50198 94.996428 110.51758 95.681641 C 110.5176 95.682685 110.51755 95.684503 110.51758 95.685547 C 110.51765 95.698682 110.51753 95.711534 110.51758 95.724609 C 110.52559 96.089974 110.51657 96.34898 110.51562 96.648438 C 110.08487 102.69409 108.855 107.469 104.70508 113.37891 C 104.69244 113.39666 104.67872 113.41384 104.66602 113.43164 C 99.760147 119.26834 92.859395 128.70519 89.589844 138.5293 C 88.138457 142.89073 87.41708 147.32868 87.896484 151.56445 C 87.875412 152.04738 87.837617 152.38495 87.773438 152.58789 C 87.640921 152.71502 87.506067 152.84044 87.380859 152.97266 C 85.940617 154.51211 84.875446 156.3747 83.689453 157.62891 C 82.580978 158.73598 81.001978 159.15582 79.265625 159.77734 C 77.529272 160.40072 75.625285 161.31902 74.46875 163.53906 C 74.46875 163.53906 74.466797 163.54102 74.466797 163.54102 C 74.465247 163.54411 74.463886 163.54814 74.460938 163.55078 C 73.91678 164.56623 73.740234 165.66186 73.740234 166.77344 C 73.740234 167.80129 73.891435 168.84476 74.044922 169.84766 C 74.364292 171.93438 74.689188 173.90762 74.259766 175.24414 C 72.886187 179.00055 72.708385 181.59709 73.675781 183.48242 C 74.646281 185.3707 76.638015 186.20253 78.890625 186.67383 C 83.395841 187.61332 89.497159 187.38098 94.304688 189.92969 L 94.349609 189.8457 C 94.350377 189.84605 94.350794 189.84731 94.351562 189.84766 L 94.308594 189.93164 C 99.455641 192.62298 104.6753 193.57745 108.83789 192.62695 C 111.77542 191.95757 114.16389 190.23065 115.45117 187.5918 C 115.56523 187.48898 115.70433 187.40992 115.88672 187.35742 C 119.05884 187.2595 122.58048 185.96845 128.11914 185.66406 C 131.98701 185.352 136.81402 187.02715 142.36523 186.73438 L 142.43359 186.73828 C 142.5793 187.3414 142.79057 187.92243 143.07812 188.47461 C 143.08138 188.47914 143.08449 188.48532 143.08789 188.49023 C 145.25042 192.8156 149.26711 194.795 153.55078 194.45703 C 157.8388 194.11891 162.39913 191.59091 166.08594 187.20508 L 166.00195 187.13281 C 166.00322 187.13147 166.0046 187.13025 166.00586 187.12891 L 166.08984 187.19727 C 169.60286 182.93701 175.4347 181.17151 179.30273 178.83984 C 181.23598 177.67401 182.80331 176.21473 182.92578 174.09375 C 183.04639 171.97447 181.80133 169.59846 178.93945 166.42188 C 178.9379 166.42033 178.93555 166.41925 178.93555 166.41797 C 177.99466 165.356 177.54645 163.38664 177.06445 161.28906 C 176.5837 159.19305 176.04702 156.93379 174.32617 155.46875 C 174.32291 155.4655 174.31748 155.46239 174.31445 155.45898 C 173.97339 155.16131 173.62341 154.91062 173.27148 154.70117 C 173.01259 154.54782 172.75044 154.42156 172.48828 154.30859 C 172.46337 154.2851 172.42803 154.25938 172.40625 154.23633 C 172.38931 154.21868 172.36134 154.19892 172.34766 154.18164 C 172.30737 154.13087 172.29455 154.0799 172.27734 154.0293 C 172.27289 154.01496 172.2679 154.00048 172.26172 153.98633 C 174.56996 146.95904 173.63304 139.96764 171.24023 133.64453 C 168.27758 125.80926 163.1041 118.98204 159.15234 114.3125 C 155.32917 109.48966 151.58514 104.87621 150.69336 98.662109 C 150.6202 97.672133 150.56547 96.036134 150.50977 93.761719 C 150.6802 81.536786 150.80792 61.533918 130.79297 61.505859 z "
         transform="scale(0.26458332)" />
      <path
         d="m 47.932171,46.035495 c -0.01969,0.346156 -0.270314,0.603384 -0.733415,0.882311 -0.925425,0.558263 -2.565765,1.043924 -3.612933,2.31263 -0.909837,1.082482 -2.018984,1.676842 -2.9956,1.753957 -0.976616,0.07712 -1.819182,-0.328149 -2.316329,-1.325312 l -8.62e-4,-0.0021 -0.0012,-0.0025 c -0.308502,-0.586567 -0.180114,-1.511537 0.07953,-2.487739 0.259649,-0.975833 0.63292,-1.978329 0.682963,-2.792549 v -0.0025 c 0.05246,-1.043473 0.11116,-1.954948 0.286269,-2.658417 0.175561,-0.70347 0.451617,-1.179286 0.940602,-1.447137 0.02297,-0.01231 0.04549,-0.0242 0.06805,-0.03528 0.05542,0.90364 0.502931,1.82578 1.293731,2.025089 0.865537,0.228105 2.112918,-0.514373 2.639599,-1.120218 0.105377,-0.0041 0.207924,-0.0094 0.30764,-0.0119 0.462282,-0.01112 0.849499,0.01559 1.24574,0.361785 l 0.0012,0.0012 0.0012,8.61e-4 c 0.304359,0.258008 0.449156,0.745309 0.574673,1.290857 0.125558,0.545999 0.225603,1.140318 0.602196,1.56404 l 4.11e-4,4.1e-4 4.1e-4,8.62e-4 c 0.723612,0.802734 0.956188,1.345001 0.936089,1.691608 z"
         id="path972"
         style="fill:#ffbb00;fill-opacity:1;stroke-width:0.0410187"
         inkscape:connector-curvature="0" />
      <path
         d="m 30.345378,48.594237 -4.11e-4,0.0025 v 0.0029 c -0.08368,1.096838 -0.702241,1.694069 -1.652235,1.911058 -0.949174,0.216988 -2.236753,8.61e-4 -3.522281,-0.671475 -4.1e-4,0 -8.21e-4,-4.11e-4 -0.0012,-4.11e-4 -1.42253,-0.753512 -3.114554,-0.678448 -4.200321,-0.905281 -0.542678,-0.113211 -0.89708,-0.283849 -1.059514,-0.600513 -0.162435,-0.317074 -0.166126,-0.869594 0.179252,-1.811792 l 0.0016,-0.0041 0.0012,-0.0041 c 0.171048,-0.52709 0.0443,-1.103811 -0.03856,-1.645257 -0.08286,-0.540995 -0.123466,-1.033629 0.06153,-1.376586 l 0.0016,-0.0033 c 0.236679,-0.456127 0.583697,-0.619381 1.014394,-0.773611 0.431107,-0.154641 0.941791,-0.276015 1.345005,-0.6805 l 0.0025,-0.002 0.0021,-0.0021 c 0.372861,-0.393369 0.653019,-0.886823 0.980759,-1.236712 0.276466,-0.295334 0.553343,-0.490993 0.970504,-0.493864 0.0049,4.51e-4 0.0094,4.51e-4 0.01436,0 0.07301,4.51e-4 0.150539,0.0066 0.232577,0.01932 0.553753,0.08368 1.036544,0.470853 1.501697,1.10172 l 1.342954,2.447581 4.1e-4,0.0012 8.2e-4,8.2e-4 c 0.357274,0.746129 1.112019,1.566912 1.751501,2.404102 0.639483,0.836821 1.134169,1.677293 1.06977,2.320465 z"
         id="path974"
         style="fill:#ffbb00;fill-opacity:1;stroke-width:0.0410187"
         inkscape:connector-curvature="0" />
      <path
         d="m 37.042921,25.777214 c -0.10788,-0.211246 -0.32815,-0.412237 -0.703062,-0.566057 l -8.2e-4,-4.1e-4 -0.0012,-4.1e-4 c -0.779766,-0.333892 -1.118171,-0.357683 -1.55338,-0.640711 -0.708394,-0.455307 -1.293732,-0.61487 -1.780214,-0.612819 -0.254727,8.21e-4 -0.482381,0.04594 -0.686244,0.116493 -0.592721,0.203863 -0.986091,0.629226 -1.232614,0.862622 l -4.1e-4,4.1e-4 c 0,4.1e-4 -4.1e-4,4.1e-4 -4.1e-4,8.2e-4 -0.0484,0.04594 -0.110751,0.08778 -0.2617,0.198531 -0.15218,0.11116 -0.380244,0.278516 -0.708394,0.524628 -0.291643,0.218629 -0.386397,0.503299 -0.285491,0.83678 0.100496,0.333481 0.422083,0.718236 1.010293,1.050897 l 8.2e-4,8.21e-4 0.0012,4.1e-4 c 0.365067,0.214527 0.614461,0.503709 0.900772,0.733823 0.143156,0.114852 0.293695,0.217399 0.474998,0.294924 0.181303,0.07753 0.392959,0.130029 0.657941,0.145616 0.621844,0.0361 1.079613,-0.150538 1.483648,-0.381883 0.404855,-0.230935 0.747731,-0.513553 1.141142,-0.641121 l 8.2e-4,-4.11e-4 8.62e-4,-4.1e-4 c 0.806388,-0.251854 1.381512,-0.759255 1.561543,-1.241224 0.09024,-0.241189 0.08737,-0.470073 -0.0201,-0.681319 z"
         id="path976"
         style="fill:#ffbb00;fill-opacity:1;stroke-width:0.0410187"
         inkscape:connector-curvature="0" />
      <path
         d="m 34.996905,26.967575 c -0.641564,0.334412 -1.390946,0.739976 -2.188351,0.739976 -0.796994,0 -1.426632,-0.368348 -1.879479,-0.727261 -0.226424,-0.179251 -0.410188,-0.357682 -0.548831,-0.487301 -0.240548,-0.189876 -0.211734,-0.456196 -0.112903,-0.448334 0.16566,0.02068 0.190707,0.238798 0.295026,0.336353 0.141104,0.13208 0.317895,0.303128 0.532013,0.472945 0.428236,0.339224 0.999217,0.669424 1.714174,0.669424 0.713727,0 1.546889,-0.419012 2.05545,-0.70429 0.288125,-0.161623 0.654752,-0.451332 0.953956,-0.670959 0.228915,-0.168031 0.220567,-0.370366 0.409576,-0.348337 0.189009,0.02203 0.04919,0.223956 -0.215503,0.45496 -0.264692,0.231004 -0.678786,0.537507 -1.015128,0.712824 z"
         id="path978"
         inkscape:connector-curvature="0"
         style="fill:#202020;fill-opacity:1;stroke-width:0.0410187"
         sodipodi:nodetypes="sscccccssszzs" />
      <path
         d="m 44.820898,40.657953 c -0.08901,-0.0033 -0.176791,-0.0028 -0.26211,-8.21e-4 -0.0078,4.1e-4 -0.01559,4.1e-4 -0.02379,4.1e-4 0.220271,-0.695676 -0.267032,-1.208819 -1.565686,-1.796205 -1.346646,-0.592268 -2.419696,-0.533653 -2.600999,0.668193 -0.01149,0.06276 -0.02092,0.127158 -0.02789,0.191967 -0.100906,0.03528 -0.201812,0.07958 -0.303539,0.134952 -0.632099,0.346197 -0.977477,0.973782 -1.169445,1.744153 -0.191557,0.769509 -0.246933,1.699402 -0.299437,2.744966 0,4.11e-4 0,4.11e-4 0,8.21e-4 -0.03241,0.52549 -0.248984,1.236712 -0.468024,1.989855 -2.205989,1.573843 -5.267629,2.255573 -7.867398,0.481107 -0.17597,-0.278516 -0.378193,-0.554572 -0.586158,-0.826935 -0.132901,-0.173878 -0.269493,-0.346608 -0.404855,-0.517204 0.266622,4.1e-4 0.493455,-0.04352 0.676809,-0.126338 0.228065,-0.103777 0.388038,-0.269492 0.467614,-0.48283 0.158333,-0.426184 -8.2e-4,-1.027517 -0.508222,-1.714579 -0.507402,-0.686652 -1.366745,-1.461494 -2.629303,-2.235925 0,0 0,0 0,-4.1e-4 -0.927844,-0.577133 -1.446321,-1.284335 -1.689152,-2.052163 -0.243242,-0.768278 -0.209196,-1.598906 -0.02174,-2.418868 0.359324,-1.573885 1.282246,-3.1047 1.871276,-4.065357 0.158332,-0.116492 0.05661,0.216579 -0.596413,1.429089 -0.584928,1.108365 -1.678898,3.666246 -0.181303,5.663074 0.0402,-1.420927 0.379423,-2.870115 0.949174,-4.225781 0.82981,-1.880704 2.565313,-5.142916 2.703136,-7.742676 0.07137,0.05168 0.315435,0.216578 0.424134,0.278516 4.1e-4,4.1e-4 4.1e-4,4.1e-4 8.21e-4,4.1e-4 0.318305,0.187456 0.557445,0.46146 0.867136,0.710443 0.310512,0.249393 0.69814,0.464741 1.283887,0.498787 0.0562,0.0033 0.111161,0.0049 0.164896,0.0049 0.603796,0 1.074691,-0.19689 1.466831,-0.421262 0.426226,-0.24365 0.76664,-0.513553 1.089499,-0.61856 4.1e-4,-4.11e-4 8.2e-4,-4.11e-4 0.0012,-4.11e-4 0.682142,-0.213297 1.223999,-0.590668 1.532419,-1.030388 0.529963,2.088669 1.762166,5.105589 2.55428,6.577748 0.421262,0.780995 1.258824,2.440608 1.620651,4.440267 0.229295,-0.007 0.48197,0.02625 0.752284,0.09553 0.946303,-2.453324 -0.802327,-5.095334 -1.602193,-5.831208 -0.322818,-0.313383 -0.338405,-0.453667 -0.178021,-0.447104 0.867136,0.767459 2.006186,2.31017 2.420517,4.051821 0.189055,0.794079 0.229295,1.62926 0.02662,2.453324 0.09886,0.04102 0.199761,0.08573 0.301898,0.134172 1.518925,0.739525 2.080471,1.382697 1.810568,2.260496 z"
         id="path980"
         inkscape:connector-curvature="0"
         style="fill:#ffffff;stroke-width:0.0410187" />
      <path
         d="m 37.114293,23.371061 c 0.0033,0.413878 -0.06809,0.766228 -0.225193,1.125962 -0.08942,0.205093 -0.192337,0.377371 -0.315803,0.526679 -0.04188,-0.0201 -0.08532,-0.03938 -0.130481,-0.05784 -0.156281,-0.06686 -0.294514,-0.121826 -0.41835,-0.168587 -0.123918,-0.04676 -0.220595,-0.07871 -0.320312,-0.113168 0.07223,-0.08737 0.214528,-0.190327 0.267484,-0.319536 0.0804,-0.194838 0.119774,-0.385164 0.127158,-0.611997 0,-0.009 0.0029,-0.01682 0.0029,-0.02748 0.0045,-0.217399 -0.0242,-0.403213 -0.08778,-0.59354 -0.06645,-0.19976 -0.15099,-0.343325 -0.273185,-0.46269 -0.122646,-0.119364 -0.244882,-0.173509 -0.391729,-0.178431 -0.007,-4.1e-4 -0.01354,-4.1e-4 -0.02051,-4.1e-4 -0.137823,4.1e-4 -0.257597,0.04799 -0.381515,0.151359 -0.13003,0.108699 -0.226424,0.247752 -0.306779,0.44136 -0.07999,0.193608 -0.119365,0.385575 -0.1272,0.613639 -0.0012,0.009 -0.0012,0.01682 -0.0012,0.02584 -0.0029,0.125517 0.0053,0.240369 0.02461,0.35194 -0.282209,-0.140694 -0.64326,-0.243284 -0.892654,-0.302761 -0.01436,-0.107879 -0.02256,-0.219039 -0.02502,-0.335532 v -0.03158 c -0.0045,-0.412647 0.06317,-0.766638 0.221911,-1.125961 0.158743,-0.359734 0.355223,-0.618151 0.631648,-0.828576 0.276877,-0.210016 0.548872,-0.30641 0.870828,-0.309691 h 0.01518 c 0.315024,0 0.584518,0.0927 0.861394,0.293283 0.280979,0.204273 0.483611,0.459409 0.646866,0.816271 0.159973,0.347838 0.237089,0.687882 0.244923,1.091095 -4.1e-5,0.01067 -4.1e-5,0.01969 0.0028,0.03035 z"
         id="path982"
         inkscape:connector-curvature="0"
         style="fill:#ffffff;stroke-width:0.0410187"
         sodipodi:nodetypes="ccccccccccccccccccccccccscccc" />
      <path
         d="m 32.352836,23.783298 c -0.04143,0.0119 -0.08163,0.02461 -0.121416,0.03815 -0.225603,0.07794 -0.404726,0.163945 -0.577825,0.278387 0.01682,-0.119774 0.01928,-0.241189 0.0062,-0.376961 -0.0012,-0.0074 -0.0012,-0.01354 -0.0012,-0.02092 -0.01805,-0.180072 -0.0562,-0.331021 -0.119775,-0.48361 -0.06768,-0.158742 -0.143566,-0.270723 -0.243241,-0.356862 -0.09024,-0.07794 -0.17556,-0.114032 -0.269904,-0.113211 -0.0094,0 -0.01928,4.1e-4 -0.02912,0.0012 -0.105828,0.009 -0.193608,0.06071 -0.276876,0.162024 -0.08286,0.100906 -0.137413,0.226423 -0.176791,0.392958 -0.03938,0.166126 -0.04963,0.32938 -0.03323,0.516835 0,0.0074 0.0016,0.01354 0.0016,0.02092 0.01805,0.181713 0.05456,0.332662 0.119365,0.485251 0.06645,0.157101 0.143565,0.269082 0.243241,0.355221 0.01682,0.01436 0.03323,0.02748 0.04963,0.03897 -0.103368,0.07999 -0.172818,0.136721 -0.258137,0.199069 -0.05455,0.03979 -0.119365,0.08737 -0.194839,0.143155 C 30.306,24.90967 30.177611,24.716062 30.06522,24.460516 29.932319,24.158619 29.861356,23.856312 29.840027,23.499449 v -0.0029 c -0.01969,-0.356862 0.01518,-0.663681 0.113211,-0.981165 0.09845,-0.317485 0.229705,-0.547189 0.420443,-0.735875 0.190327,-0.189096 0.382294,-0.284259 0.61364,-0.296154 0.01805,-8.21e-4 0.03569,-0.0012 0.05332,-0.0012 0.209605,4.1e-4 0.396651,0.07014 0.59026,0.224782 0.210016,0.167767 0.368758,0.382294 0.501659,0.684601 0.133311,0.302308 0.204273,0.604615 0.223962,0.961477 v 0.0029 c 0.0094,0.149718 0.0082,0.290822 -0.0037,0.427414 z"
         id="path984"
         inkscape:connector-curvature="0"
         style="fill:#ffffff;stroke-width:0.0410187"
         sodipodi:nodetypes="cccccccccccccccccccccccccccccc" />
      <path
         style="fill:#000000;fill-opacity:1;stroke-width:0.00256367"
         d="m 33.838017,24.86007 c -0.04419,-0.0092 -0.05887,-0.01711 -0.118996,-0.06385 -0.04024,-0.03128 -0.06522,-0.04751 -0.08579,-0.05573 -0.0074,-0.003 -0.0423,-0.0126 -0.07756,-0.02142 -0.088,-0.02202 -0.115617,-0.03379 -0.134121,-0.05715 -0.01626,-0.02052 -0.01949,-0.03714 -0.01091,-0.05604 0.02996,-0.06597 0.166221,-0.09679 0.304334,-0.06884 0.06003,0.01215 0.13158,0.0373 0.197063,0.06927 0.10705,0.05226 0.153676,0.110837 0.13617,0.171057 -0.0077,0.02641 -0.03758,0.05245 -0.07754,0.06753 -0.04171,0.01574 -0.09875,0.02227 -0.132654,0.01519 z"
         id="path1132"
         inkscape:connector-curvature="0" />
      <path
         style="fill:#000000;fill-opacity:1;stroke-width:0.00725116"
         d="m 32.567952,27.693216 c -0.445608,-0.04121 -0.910744,-0.215331 -1.341465,-0.502173 -0.240094,-0.159892 -0.418602,-0.305884 -0.751068,-0.614257 -0.191793,-0.177894 -0.224933,-0.217733 -0.257216,-0.309213 -0.02954,-0.08372 -0.02211,-0.172993 0.01733,-0.208133 0.03214,-0.02863 0.113291,0.0071 0.16173,0.07118 0.01467,0.01941 0.04466,0.06826 0.06664,0.108538 0.02198,0.04028 0.04966,0.0866 0.06151,0.102932 0.02184,0.03009 0.242032,0.238485 0.374769,0.354686 0.58657,0.513496 1.142786,0.776113 1.743904,0.823382 0.393471,0.03094 0.852717,-0.06384 1.386633,-0.286165 0.168703,-0.07025 0.255903,-0.110971 0.484166,-0.226102 0.313994,-0.158371 0.47416,-0.252723 0.710614,-0.418613 0.188031,-0.131918 0.616275,-0.454304 0.66555,-0.501033 0.02907,-0.02757 0.07871,-0.08514 0.110305,-0.127942 0.06229,-0.08437 0.09288,-0.113502 0.148279,-0.141188 0.0445,-0.02224 0.07852,-0.0227 0.120217,-0.0016 0.04299,0.02174 0.04995,0.04534 0.02939,0.09978 -0.04757,0.125944 -0.278754,0.346128 -0.667672,0.635903 -0.159284,0.118679 -0.323163,0.228992 -0.469896,0.316306 -0.195333,0.116232 -0.693451,0.370335 -0.940455,0.47975 -0.448718,0.198768 -0.826439,0.309754 -1.145683,0.336638 -0.127981,0.01078 -0.424113,0.01506 -0.507581,0.0073 z"
         id="path1134"
         inkscape:connector-curvature="0" />
      <path
         style="fill:#000000;fill-opacity:1;stroke-width:0.00256367"
         d="m 32.164601,24.858893 c 0.04419,-0.0092 0.05887,-0.01711 0.118996,-0.06385 0.04024,-0.03128 0.06522,-0.04751 0.08579,-0.05573 0.0074,-0.003 0.0423,-0.0126 0.07756,-0.02142 0.088,-0.02202 0.115617,-0.03379 0.134121,-0.05715 0.01626,-0.02052 0.01949,-0.03714 0.01091,-0.05604 -0.02996,-0.06597 -0.166221,-0.09679 -0.304334,-0.06884 -0.06003,0.01215 -0.13158,0.0373 -0.197063,0.06927 -0.10705,0.05226 -0.153676,0.110837 -0.13617,0.171057 0.0077,0.02641 0.03758,0.05245 0.07754,0.06753 0.04171,0.01574 0.09875,0.02227 0.132654,0.01519 z"
         id="path2046"
         inkscape:connector-curvature="0" />
    </g>
  </g>
</svg>
