<?xml version="1.0" encoding="UTF-8" standalone="no"?>
<svg
   sodipodi:docname="libreoffice-math.svg"
   id="svg8"
   version="1.1"
   viewBox="0 0 67.733332 67.733335"
   height="256"
   width="256"
   xmlns:inkscape="http://www.inkscape.org/namespaces/inkscape"
   xmlns:sodipodi="http://sodipodi.sourceforge.net/DTD/sodipodi-0.dtd"
   xmlns="http://www.w3.org/2000/svg"
   xmlns:svg="http://www.w3.org/2000/svg">
  <defs
     id="defs2" />
  <sodipodi:namedview
     inkscape:window-maximized="1"
     inkscape:window-y="32"
     inkscape:window-x="1920"
     inkscape:window-height="1011"
     inkscape:window-width="1920"
     units="px"
     showgrid="false"
     inkscape:document-rotation="0"
     inkscape:current-layer="layer5"
     inkscape:document-units="px"
     inkscape:cy="131.17208"
     inkscape:cx="94.72736"
     inkscape:zoom="3.4572905"
     inkscape:pageshadow="2"
     inkscape:pageopacity="0.0"
     borderopacity="1.0"
     bordercolor="#666666"
     pagecolor="#ffffff"
     id="base"
     inkscape:pagecheckerboard="0"
     inkscape:showpageshadow="2"
     inkscape:deskcolor="#d1d1d1" />
  <g
     inkscape:groupmode="layer"
     id="layer1"
     inkscape:label="Background"
     style="display:inline">
    <g
       inkscape:label="Shadow"
       id="layer10"
       inkscape:groupmode="layer"
       style="display:inline;opacity:0.4">
      <path
         id="path4072"
         style="display:inline;opacity:1;fill:#000000;fill-opacity:1;stroke-width:0.0246944;stroke-miterlimit:4;stroke-dasharray:none;paint-order:stroke fill markers"
         d="M 11.1125,33.866667 V 60.09504 c 0,2.765595 2.226863,4.99246 4.99246,4.99246 h 36.581747 c 2.765597,0 4.99246,-2.226865 4.99246,-4.99246 V 33.866667 Z" />
      <path
         id="path5"
         style="display:inline;opacity:1;fill:#000000;fill-opacity:1;stroke-width:0.0246944;stroke-miterlimit:4;stroke-dasharray:none;paint-order:stroke fill markers"
         d="m 52.686707,5.8208334 c 2.765594,0 4.99246,2.2268657 4.99246,4.9924606 v 10.88254 l -15.875,-15.8750006 z" />
    </g>
    <g
       style="display:inline"
       inkscape:label="Colour"
       id="g1174"
       inkscape:groupmode="layer">
      <g
         id="g1"
         style="fill:#ef3c85;fill-opacity:1">
        <path
           id="path1156"
           style="display:inline;opacity:1;fill:#ef3c85;fill-opacity:1;stroke-width:0.0246944;stroke-miterlimit:4;stroke-dasharray:none;paint-order:stroke fill markers"
           d="m 16.10496,4.7625 c -2.765597,0 -4.99246,2.2268629 -4.99246,4.9924601 V 59.036707 c 0,2.765595 2.226863,4.99246 4.99246,4.99246 h 36.581747 c 2.765597,0 4.99246,-2.226865 4.99246,-4.99246 V 25.929167 L 36.5125,4.7625 Z" />
        <path
           id="path4"
           style="display:inline;opacity:1;fill:#ef3c85;fill-opacity:1;stroke-width:0.0246944;stroke-miterlimit:4;stroke-dasharray:none;paint-order:stroke fill markers"
           d="m 52.686707,4.7625 c 2.765594,0 4.99246,2.2268657 4.99246,4.99246 V 20.6375 l -15.875,-15.875 z" />
      </g>
      <path
         id="rect1"
         style="display:inline;opacity:1;fill:#f9f9f9;stroke-width:50.9481;stroke-linecap:round;stroke-linejoin:round;paint-order:stroke markers fill"
         d="m 19.673218,10.054167 c -1.811192,0 -3.269051,1.457859 -3.269051,3.269051 v 42.145231 c 0,1.811192 1.457859,3.269051 3.269051,3.269051 h 29.445231 c 1.811192,0 3.269051,-1.457859 3.269051,-3.269051 V 28.121281 L 34.320386,10.054167 Z" />
    </g>
    <g
       inkscape:groupmode="layer"
       id="layer6"
       inkscape:label="Highlight"
       style="display:inline">
      <path
         id="path8"
         style="display:inline;opacity:0.1;fill:#f9f9f9;fill-opacity:1;stroke-width:0.0246944;stroke-miterlimit:4;stroke-dasharray:none;paint-order:stroke fill markers"
         d="m 16.10496,4.7625 c -2.765591,0 -4.99246,2.2268685 -4.99246,4.9924601 v 1.0583329 c 0,-2.7655945 2.226866,-4.9924597 4.99246,-4.9924597 H 37.570833 L 36.5125,4.7625 Z m 25.699207,0 1.058333,1.0583333 h 9.824207 c 2.765594,0 4.99246,2.2268652 4.99246,4.9924597 V 9.7549601 c 0,-2.7655887 -2.226872,-4.9924601 -4.99246,-4.9924601 z" />
    </g>
  </g>
  <g
     inkscape:groupmode="layer"
     id="layer5"
     inkscape:label="Graphic"
     style="display:inline">
    <g
       id="g18">
      <path
         id="path16"
         style="fill:#000000;fill-opacity:1;stroke-width:2.97319;stroke-linecap:round;stroke-linejoin:round;paint-order:stroke markers fill;opacity:0.2"
         d="m 31.830615,34.925 c -0.0092,0 -0.0182,0.0014 -0.02739,0.0016 -0.02359,4.21e-4 -0.0469,0.0014 -0.07028,0.0031 -0.02041,0.0015 -0.04084,0.0033 -0.06098,0.0057 -0.0233,0.0028 -0.04624,0.0063 -0.06925,0.01033 -0.02028,0.0035 -0.04052,0.007 -0.06046,0.01137 -0.0216,0.0048 -0.04281,0.01068 -0.06408,0.01654 -0.02053,0.0056 -0.04087,0.01151 -0.06098,0.01809 -0.02,0.0066 -0.0398,0.01369 -0.05943,0.02119 -0.02061,0.0078 -0.0414,0.01546 -0.0615,0.02429 -0.01772,0.0078 -0.03484,0.01676 -0.05219,0.02532 -0.02127,0.01049 -0.04245,0.02097 -0.06305,0.03256 -0.01533,0.0086 -0.02998,0.01816 -0.04496,0.02739 -0.02181,0.01344 -0.04366,0.02669 -0.0646,0.04134 -0.01221,0.0085 -0.02373,0.01792 -0.03566,0.02687 -0.02173,0.01633 -0.04342,0.03252 -0.06408,0.05013 -0.01262,0.01075 -0.02447,0.02235 -0.03669,0.03359 -0.01869,0.01719 -0.03711,0.03447 -0.05478,0.05271 -0.01281,0.01321 -0.02493,0.02705 -0.03721,0.04082 -0.01528,0.01714 -0.03058,0.03427 -0.04496,0.05219 -0.01287,0.01607 -0.02505,0.03288 -0.03721,0.04961 -0.01361,0.01871 -0.02716,0.03741 -0.03979,0.05684 -0.0092,0.01415 -0.01769,0.02884 -0.02636,0.04341 -0.01433,0.02402 -0.02801,0.0484 -0.04082,0.07338 -0.0058,0.01141 -0.01152,0.02299 -0.01705,0.03462 -0.01315,0.02759 -0.02543,0.05561 -0.03669,0.08423 -0.0051,0.01294 -0.0098,0.0261 -0.01447,0.03927 -0.01056,0.02958 -0.02046,0.05939 -0.02894,0.08992 -0.0014,0.0051 -0.0033,0.0099 -0.0047,0.01499 l -2.831868,10.56783 -0.777214,-2.901115 c -0.0022,-0.0081 -0.0054,-0.0157 -0.0078,-0.02377 -0.0073,-0.0257 -0.01598,-0.05094 -0.02481,-0.07596 -0.0054,-0.01541 -0.01058,-0.0309 -0.01654,-0.04599 -0.01021,-0.02585 -0.02132,-0.05096 -0.03307,-0.07596 -0.0072,-0.01525 -0.01402,-0.03059 -0.0217,-0.04548 -0.01141,-0.02204 -0.0241,-0.04331 -0.03669,-0.06459 -0.0095,-0.01616 -0.01878,-0.03241 -0.02894,-0.04806 -0.01313,-0.02019 -0.02715,-0.03951 -0.04134,-0.05891 -0.01142,-0.01565 -0.02257,-0.03144 -0.03462,-0.04651 -0.01453,-0.01814 -0.03002,-0.03537 -0.04547,-0.05271 -0.01227,-0.01378 -0.0244,-0.02761 -0.03721,-0.04082 -0.01645,-0.01697 -0.03382,-0.03302 -0.05116,-0.04909 -0.01442,-0.01336 -0.02843,-0.02711 -0.04341,-0.03979 -0.01666,-0.01412 -0.03431,-0.02701 -0.05168,-0.04031 -0.01606,-0.01228 -0.03199,-0.02465 -0.04858,-0.03617 -0.01902,-0.01323 -0.03866,-0.02549 -0.0584,-0.03772 -0.01589,-0.0098 -0.03177,-0.01978 -0.04806,-0.02894 -0.02258,-0.0127 -0.04586,-0.02427 -0.06925,-0.03566 -0.01381,-0.0067 -0.02729,-0.01391 -0.04134,-0.02015 -0.02602,-0.01156 -0.0527,-0.02162 -0.07958,-0.03152 -0.01296,-0.0048 -0.02564,-0.01009 -0.03876,-0.01447 -0.02476,-0.0082 -0.05006,-0.0149 -0.07545,-0.0217 -0.01889,-0.0051 -0.0377,-0.01023 -0.05684,-0.01447 -0.01891,-0.0042 -0.03815,-0.0075 -0.05736,-0.01085 -0.02416,-0.0042 -0.04838,-0.008 -0.07286,-0.01085 -0.01985,-0.0023 -0.03983,-0.0042 -0.05994,-0.0057 -0.02404,-0.0017 -0.04809,-0.0032 -0.07235,-0.0036 -0.0085,-1.6e-4 -0.01676,-0.001 -0.02532,-0.001 h -5.291666 c -0.732895,0 -1.322917,0.590022 -1.322917,1.322916 0,0.732895 0.590022,1.322917 1.322917,1.322917 h 4.277258 l 1.791622,6.68693 c 0.0042,0.01576 0.01024,0.03052 0.01499,0.04599 0.0064,0.0208 0.01276,0.04159 0.02015,0.06201 0.0075,0.02068 0.01539,0.04088 0.02377,0.06098 0.0079,0.01891 0.01602,0.03782 0.02481,0.05633 0.0121,0.02562 0.02517,0.05038 0.03876,0.07493 0.0056,0.01007 0.0112,0.02006 0.01705,0.02997 0.0167,0.02839 0.03462,0.05586 0.05323,0.08268 0.0051,0.0074 0.0097,0.01497 0.01499,0.02222 0.02015,0.02783 0.04145,0.05463 0.06356,0.08062 0.0053,0.0062 0.0106,0.01247 0.01602,0.0186 0.02219,0.02512 0.04532,0.0491 0.06925,0.07235 0.0067,0.0065 0.01329,0.01324 0.02015,0.01964 0.02819,0.02624 0.05758,0.05081 0.08785,0.07441 6.84e-4,5.33e-4 0.0014,0.001 0.0021,0.0016 0.03314,0.02574 0.06746,0.04991 0.102836,0.07235 0.0013,7.92e-4 0.0024,0.0018 0.0036,0.0026 0.03449,0.02172 0.0701,0.0415 0.106453,0.05994 0.0035,0.0018 0.0068,0.0039 0.01034,0.0057 0.117777,0.05845 0.244058,0.09915 0.375688,0.120406 0.0014,2.3e-4 0.0027,8.08e-4 0.0041,0.001 0.03731,0.0059 0.07517,0.0097 0.113171,0.0124 0.0081,6.11e-4 0.01621,0.0016 0.02429,0.0021 0.02368,0.0012 0.04744,0.0011 0.07131,0.001 0.024,6.8e-5 0.04802,1.98e-4 0.07183,-0.001 0.0074,-4.25e-4 0.01481,-0.0015 0.02222,-0.0021 0.03813,-0.0026 0.07573,-0.0065 0.113171,-0.0124 5.13e-4,-8.3e-5 0.001,8.3e-5 0.0016,0 0.219555,-0.03472 0.425059,-0.1245 0.59893,-0.258383 0.0044,-0.0034 0.0086,-0.0069 0.01292,-0.01033 0.0278,-0.02197 0.05459,-0.04503 0.08061,-0.06925 0.007,-0.0065 0.01385,-0.01301 0.02067,-0.01964 0.02392,-0.02324 0.04706,-0.04723 0.06925,-0.07235 0.0054,-0.0061 0.01072,-0.01238 0.01602,-0.0186 0.02254,-0.02649 0.04409,-0.05376 0.0646,-0.08217 0.0043,-0.0059 0.0082,-0.01208 0.0124,-0.01809 0.01859,-0.02668 0.03653,-0.05392 0.05323,-0.08217 0.0078,-0.01309 0.0149,-0.02643 0.02222,-0.03979 0.0122,-0.02235 0.02416,-0.04499 0.03514,-0.06821 0.0076,-0.01596 0.01425,-0.03232 0.02119,-0.04858 0.01041,-0.02452 0.02095,-0.04902 0.02997,-0.07441 0.0059,-0.0165 0.01079,-0.03338 0.01602,-0.05013 0.0055,-0.01748 0.01175,-0.03433 0.01654,-0.05219 l 3.846277,-14.354162 h 14.860591 c 0.732895,0 1.322917,-0.590023 1.322917,-1.322917 0,-0.732894 -0.590022,-1.322917 -1.322917,-1.322917 z m 4.647262,5.636866 c -0.405735,0 -0.811471,0.155697 -1.122412,0.466638 -0.621882,0.621881 -0.621882,1.623459 0,2.245341 l 2.431893,2.431893 -2.431893,2.432409 c -0.621882,0.621882 -0.621882,1.622943 0,2.244825 0.621881,0.621881 1.622943,0.621881 2.244824,0 l 2.43241,-2.43241 2.431893,2.43241 c 0.621881,0.621881 1.623459,0.621881 2.245341,0 0.621881,-0.621882 0.621882,-1.622942 0,-2.244825 l -2.43241,-2.432409 2.431893,-2.431893 c 0.621881,-0.621882 0.621881,-1.62346 0,-2.245341 -0.310941,-0.310941 -0.716618,-0.466639 -1.122412,-0.466638 -0.405795,-1e-6 -0.811472,0.155697 -1.122412,0.466638 l -2.431893,2.43241 -2.43241,-2.43241 c -0.310941,-0.310941 -0.716677,-0.466638 -1.122412,-0.466638 z" />
      <path
         id="rect3"
         style="fill:#999999;fill-opacity:1;stroke-width:2.97319;stroke-linecap:round;stroke-linejoin:round;paint-order:stroke markers fill"
         d="M 31.830615 34.395833 C 31.821381 34.395833 31.812415 34.397197 31.803227 34.397384 C 31.779641 34.397805 31.756326 34.398809 31.732947 34.400484 C 31.712534 34.401963 31.692108 34.403782 31.671969 34.406169 C 31.648674 34.408936 31.625727 34.412516 31.602722 34.416504 C 31.582447 34.419998 31.562204 34.423473 31.542261 34.427873 C 31.52066 34.432668 31.499448 34.438552 31.478182 34.444409 C 31.457651 34.450037 31.437317 34.455921 31.417204 34.462496 C 31.397204 34.469057 31.377404 34.476188 31.357776 34.483683 C 31.337169 34.491532 31.316373 34.499139 31.296281 34.507971 C 31.278557 34.515773 31.261438 34.524727 31.244088 34.533293 C 31.222816 34.543788 31.201642 34.554263 31.181043 34.565849 C 31.165712 34.574469 31.15106 34.584012 31.136084 34.593237 C 31.114273 34.606679 31.092427 34.619928 31.071489 34.634579 C 31.059278 34.643115 31.047756 34.6525 31.035832 34.66145 C 31.014101 34.677776 30.992408 34.693969 30.971753 34.711576 C 30.959135 34.722325 30.947286 34.733931 30.935063 34.745166 C 30.91637 34.762358 30.897956 34.77964 30.880286 34.797876 C 30.86748 34.811088 30.855353 34.824925 30.843079 34.8387 C 30.827802 34.855841 30.812497 34.872965 30.79812 34.890894 C 30.78525 34.906963 30.773066 34.923772 30.760913 34.940503 C 30.747302 34.959211 30.733756 34.97791 30.721122 34.997347 C 30.711942 35.011499 30.703437 35.026191 30.694767 35.040755 C 30.680441 35.064771 30.666758 35.089157 30.653943 35.114136 C 30.648103 35.125546 30.64242 35.13713 30.63689 35.148759 C 30.623739 35.176354 30.611457 35.204369 30.600199 35.232992 C 30.595108 35.245936 30.590444 35.259087 30.58573 35.272266 C 30.575171 35.301845 30.565268 35.33166 30.556791 35.362183 C 30.555364 35.36727 30.553512 35.372051 30.55214 35.377169 L 27.720272 45.944999 L 26.943058 43.043884 C 26.940876 43.035738 26.93763 43.028182 26.935307 43.020113 C 26.927966 42.994409 26.919327 42.969178 26.910502 42.944149 C 26.905059 42.928737 26.899925 42.913249 26.893966 42.898157 C 26.88376 42.872311 26.872646 42.847201 26.860893 42.822192 C 26.85374 42.806939 26.846871 42.791598 26.839189 42.776717 C 26.827776 42.754676 26.815093 42.73341 26.802498 42.712122 C 26.792963 42.695962 26.783722 42.679717 26.77356 42.664063 C 26.760427 42.643869 26.746406 42.624557 26.732218 42.605151 C 26.720794 42.589502 26.70965 42.573711 26.697595 42.558643 C 26.683066 42.540501 26.667571 42.523268 26.65212 42.505933 C 26.639846 42.492157 26.627719 42.47832 26.614913 42.465108 C 26.598465 42.448134 26.581089 42.432087 26.563753 42.416016 C 26.54933 42.402656 26.535321 42.388903 26.520345 42.376225 C 26.503682 42.362101 26.48603 42.349213 26.468669 42.335917 C 26.452611 42.323638 26.43668 42.311263 26.420093 42.299744 C 26.401073 42.286516 26.381434 42.274254 26.361698 42.26202 C 26.345808 42.252177 26.329931 42.242242 26.313639 42.233081 C 26.291062 42.220383 26.267775 42.20881 26.244393 42.197424 C 26.230582 42.190696 26.217098 42.183517 26.203052 42.177271 C 26.177031 42.165708 26.150354 42.155652 26.12347 42.145748 C 26.110511 42.140964 26.097832 42.135658 26.084713 42.131279 C 26.059957 42.123037 26.034656 42.116374 26.009265 42.109574 C 25.990379 42.104496 25.971568 42.099347 25.952421 42.095105 C 25.933509 42.090934 25.914272 42.08761 25.89506 42.084253 C 25.870898 42.080014 25.846679 42.076292 25.822197 42.073401 C 25.802346 42.071056 25.782368 42.069179 25.762252 42.067717 C 25.738214 42.065988 25.714161 42.064502 25.689905 42.064099 C 25.681382 42.063939 25.673146 42.063066 25.664583 42.063066 L 20.372917 42.063066 C 19.640022 42.063066 19.05 42.653088 19.05 43.385982 C 19.05 44.118877 19.640022 44.708899 20.372917 44.708899 L 24.650175 44.708899 L 26.441797 51.395829 C 26.44602 51.411589 26.452038 51.426353 26.456783 51.441821 C 26.463168 51.462624 26.469548 51.483415 26.476937 51.503833 C 26.484391 51.524514 26.492327 51.544714 26.500708 51.564811 C 26.50863 51.583725 26.516729 51.602631 26.525513 51.621139 C 26.537618 51.646756 26.550684 51.671521 26.56427 51.696069 C 26.569859 51.706136 26.575474 51.716125 26.581323 51.726042 C 26.598019 51.754429 26.615946 51.781905 26.63455 51.808724 C 26.639665 51.816083 26.64427 51.823689 26.649536 51.830945 C 26.669688 51.858771 26.69099 51.885574 26.713098 51.91156 C 26.718402 51.917787 26.723695 51.924032 26.729118 51.930164 C 26.751309 51.955281 26.774441 51.979268 26.798364 52.002511 C 26.805085 52.009039 26.81165 52.015756 26.818518 52.022148 C 26.846705 52.048388 26.876102 52.07296 26.906368 52.096562 C 26.907052 52.097095 26.90775 52.09758 26.908435 52.098112 C 26.941575 52.12385 26.9759 52.148022 27.011271 52.170459 C 27.012522 52.171251 27.013634 52.172255 27.014889 52.173043 C 27.04938 52.194761 27.084989 52.214541 27.121342 52.232988 C 27.124851 52.234762 27.128148 52.236927 27.131677 52.238672 C 27.249454 52.297121 27.375735 52.337827 27.507365 52.359078 C 27.508751 52.359308 27.510113 52.359886 27.511499 52.360112 C 27.548811 52.366011 27.586669 52.369841 27.62467 52.372514 C 27.632761 52.373125 27.640882 52.37412 27.648958 52.374581 C 27.672642 52.375805 27.696394 52.375677 27.720272 52.375615 C 27.744274 52.375683 27.768297 52.375813 27.792102 52.374581 C 27.799503 52.374156 27.80691 52.373065 27.814323 52.372514 C 27.852456 52.369888 27.890054 52.365987 27.927494 52.360112 C 27.928007 52.360029 27.928533 52.360195 27.929045 52.360112 C 28.1486 52.325396 28.354104 52.235612 28.527975 52.101729 C 28.532364 52.098355 28.536552 52.09482 28.540894 52.091394 C 28.568698 52.069424 28.595483 52.046362 28.621509 52.022148 C 28.628484 52.01566 28.635356 52.009139 28.642179 52.002511 C 28.666102 51.979268 28.689235 51.955281 28.711426 51.930164 C 28.716849 51.924032 28.722141 51.917787 28.727446 51.91156 C 28.749984 51.885068 28.771537 51.857798 28.792041 51.829395 C 28.796337 51.823458 28.800248 51.817314 28.804443 51.811308 C 28.823037 51.784624 28.840969 51.757385 28.85767 51.729142 C 28.865444 51.716048 28.872574 51.702707 28.879891 51.689352 C 28.892087 51.667002 28.904055 51.644364 28.915031 51.621139 C 28.922604 51.605183 28.929284 51.588823 28.936218 51.572563 C 28.946632 51.548043 28.957166 51.523544 28.966191 51.498149 C 28.972073 51.481649 28.976981 51.464772 28.98221 51.448023 C 28.987665 51.430539 28.993962 51.413688 28.998747 51.395829 L 32.845024 37.041667 L 47.705615 37.041667 C 48.43851 37.041667 49.028532 36.451644 49.028532 35.71875 C 49.028532 34.985856 48.43851 34.395833 47.705615 34.395833 L 31.830615 34.395833 z M 36.477877 40.032699 C 36.072142 40.032699 35.666406 40.188396 35.355465 40.499337 C 34.733583 41.121218 34.733583 42.122796 35.355465 42.744678 L 37.787358 45.176571 L 35.355465 47.60898 C 34.733583 48.230862 34.733583 49.231923 35.355465 49.853805 C 35.977346 50.475686 36.978408 50.475686 37.600289 49.853805 L 40.032699 47.421395 L 42.464592 49.853805 C 43.086473 50.475686 44.088051 50.475686 44.709933 49.853805 C 45.331814 49.231923 45.331815 48.230863 44.709933 47.60898 L 42.277523 45.176571 L 44.709416 42.744678 C 45.331297 42.122796 45.331297 41.121218 44.709416 40.499337 C 44.398475 40.188396 43.992798 40.032698 43.587004 40.032699 C 43.181209 40.032698 42.775532 40.188396 42.464592 40.499337 L 40.032699 42.931747 L 37.600289 40.499337 C 37.289348 40.188396 36.883612 40.032699 36.477877 40.032699 z " />
    </g>
    <g
       id="g17">
      <path
         id="path17"
         style="fill:#000000;fill-opacity:1;stroke-width:2.49149;stroke-linecap:round;stroke-linejoin:round;paint-order:stroke markers fill;opacity:0.2"
         d="m 30.478645,18.965825 c -0.01377,3.72e-4 -0.02756,0.0022 -0.04134,0.0031 -0.0187,0.0012 -0.03739,0.0025 -0.05581,0.0047 -0.0078,9.32e-4 -0.01551,0.0025 -0.02325,0.0036 -0.02698,0.0038 -0.05383,0.0082 -0.0801,0.01395 -0.0183,0.0041 -0.03659,0.0083 -0.05478,0.01344 -0.0016,4.4e-4 -0.0031,0.0011 -0.0047,0.0016 -0.03259,0.0092 -0.06439,0.01992 -0.0956,0.03204 -0.03349,0.013 -0.06595,0.02772 -0.09767,0.04393 -0.01631,0.0083 -0.03225,0.01722 -0.04806,0.02635 -0.0039,0.0023 -0.008,0.0044 -0.01188,0.0067 l -1.592151,0.919324 c -0.507763,0.293157 -0.680731,0.937625 -0.387573,1.44539 0.293158,0.507764 0.938143,0.68073 1.445907,0.387573 l 0.01757,-0.01034 -10e-7,4.252454 h -0.529166 c -0.586315,0 -1.058334,0.472017 -1.058333,1.058334 -1e-6,0.586314 0.472017,1.058332 1.058333,1.058333 h 3.175 c 0.586315,0 1.058334,-0.472017 1.058333,-1.058334 10e-7,-0.586314 -0.472017,-1.058333 -1.058333,-1.058333 h -0.529167 l 10e-7,-6.085417 c -10e-7,-0.0051 -4.48e-4,-0.0099 -5.18e-4,-0.01499 -2.62e-4,-0.01722 -0.002,-0.03443 -0.0031,-0.05168 -0.0011,-0.01833 -0.0021,-0.03671 -0.0041,-0.05478 -0.0013,-0.01108 -0.0035,-0.02201 -0.0052,-0.03307 -0.0038,-0.02591 -0.0078,-0.05174 -0.01344,-0.077 -0.0038,-0.01694 -0.0082,-0.03381 -0.01292,-0.05064 -0.06252,-0.227957 -0.198612,-0.4239 -0.381889,-0.562239 -0.02708,-0.02044 -0.0552,-0.03956 -0.08423,-0.05736 l -5.17e-4,-5.17e-4 -5.16e-4,-5.17e-4 c -0.02854,-0.01744 -0.05812,-0.03333 -0.08837,-0.04806 l -5.17e-4,-5.17e-4 c -3.45e-4,-1.68e-4 -6.87e-4,-3.48e-4 -0.001,-5.17e-4 -0.02877,-0.01395 -0.0582,-0.02637 -0.08837,-0.03772 -0.0014,-5.4e-4 -0.0027,-0.0015 -0.0041,-0.0021 -0.002,-7.63e-4 -0.0042,-0.0013 -0.0062,-0.0021 -0.02658,-0.0097 -0.05359,-0.01827 -0.08113,-0.02584 -0.0083,-0.0023 -0.01647,-0.0046 -0.02481,-0.0067 -0.02349,-0.0058 -0.04722,-0.01073 -0.07131,-0.01499 -0.01065,-0.0019 -0.02133,-0.0036 -0.03204,-0.0052 -0.02261,-0.0033 -0.04515,-0.0059 -0.06821,-0.0078 -0.01753,-0.0014 -0.03509,-0.002 -0.05271,-0.0026 -0.01108,-3.4e-4 -0.0219,-0.0016 -0.03307,-0.0016 -0.0033,0 -0.0065,4.87e-4 -0.0098,5.17e-4 -0.0064,5.6e-5 -0.01271,-6.9e-4 -0.01912,-5.17e-4 z m -7.114812,3.571876 c -0.586316,-10e-7 -1.058333,0.472017 -1.058334,1.058332 10e-7,0.586317 0.472018,1.058334 1.058334,1.058334 h 3.175 c 0.586316,0 1.058334,-0.472018 1.058334,-1.058333 0,-0.586317 -0.472018,-1.058333 -1.058334,-1.058334 z" />
      <path
         id="rect11"
         style="fill:#999999;fill-opacity:1;stroke-width:2.49149;stroke-linecap:round;stroke-linejoin:round;paint-order:stroke markers fill"
         d="m 30.478645,18.436658 c -0.01377,3.72e-4 -0.02756,0.0022 -0.04134,0.0031 -0.0187,0.0012 -0.03739,0.0025 -0.05581,0.0047 -0.0078,9.32e-4 -0.01551,0.0025 -0.02325,0.0036 -0.02698,0.0038 -0.05383,0.0082 -0.0801,0.01395 -0.0183,0.0041 -0.03659,0.0083 -0.05478,0.01344 -0.0016,4.4e-4 -0.0031,0.0011 -0.0047,0.0016 -0.03259,0.0092 -0.06439,0.01992 -0.0956,0.03204 -0.03349,0.013 -0.06595,0.02772 -0.09767,0.04393 -0.01631,0.0083 -0.03225,0.01722 -0.04806,0.02635 -0.0039,0.0023 -0.008,0.0044 -0.01188,0.0067 l -1.592151,0.919324 c -0.507763,0.293157 -0.680731,0.937625 -0.387573,1.44539 0.293158,0.507764 0.938143,0.68073 1.445907,0.387573 l 0.01757,-0.01034 -1e-6,4.252454 -0.529166,0 c -0.586315,0 -1.058334,0.472017 -1.058333,1.058334 -1e-6,0.586314 0.472017,1.058332 1.058333,1.058333 l 3.175,0 c 0.586315,0 1.058334,-0.472017 1.058333,-1.058334 10e-7,-0.586314 -0.472017,-1.058333 -1.058333,-1.058333 l -0.529167,0 10e-7,-6.085417 c -10e-7,-0.0051 -4.48e-4,-0.0099 -5.18e-4,-0.01499 -2.62e-4,-0.01722 -0.002,-0.03443 -0.0031,-0.05168 -0.0011,-0.01833 -0.0021,-0.03671 -0.0041,-0.05478 -0.0013,-0.01108 -0.0035,-0.02201 -0.0052,-0.03307 -0.0038,-0.02591 -0.0078,-0.05174 -0.01344,-0.077 -0.0038,-0.01694 -0.0082,-0.03381 -0.01292,-0.05064 -0.06252,-0.227957 -0.198612,-0.4239 -0.381889,-0.562239 -0.02708,-0.02044 -0.0552,-0.03956 -0.08423,-0.05736 l -5.17e-4,-5.17e-4 -5.16e-4,-5.17e-4 c -0.02854,-0.01744 -0.05812,-0.03333 -0.08837,-0.04806 l -5.17e-4,-5.17e-4 c -3.45e-4,-1.68e-4 -6.87e-4,-3.48e-4 -0.001,-5.17e-4 -0.02877,-0.01395 -0.0582,-0.02637 -0.08837,-0.03772 -0.0014,-5.4e-4 -0.0027,-0.0015 -0.0041,-0.0021 -0.002,-7.63e-4 -0.0042,-0.0013 -0.0062,-0.0021 -0.02658,-0.0097 -0.05359,-0.01827 -0.08113,-0.02584 -0.0083,-0.0023 -0.01647,-0.0046 -0.02481,-0.0067 -0.02349,-0.0058 -0.04722,-0.01073 -0.07131,-0.01499 -0.01065,-0.0019 -0.02133,-0.0036 -0.03204,-0.0052 -0.02261,-0.0033 -0.04515,-0.0059 -0.06821,-0.0078 -0.01753,-0.0014 -0.03509,-0.002 -0.05271,-0.0026 -0.01108,-3.4e-4 -0.0219,-0.0016 -0.03307,-0.0016 -0.0033,0 -0.0065,4.87e-4 -0.0098,5.17e-4 -0.0064,5.6e-5 -0.01271,-6.9e-4 -0.01912,-5.17e-4 z m -7.114812,3.571876 c -0.586316,-1e-6 -1.058333,0.472017 -1.058334,1.058332 10e-7,0.586317 0.472018,1.058334 1.058334,1.058334 l 3.175,0 c 0.586316,0 1.058334,-0.472018 1.058334,-1.058333 0,-0.586317 -0.472018,-1.058333 -1.058334,-1.058334 z" />
    </g>
  </g>
</svg>
