<?xml version="1.0" encoding="UTF-8" standalone="no"?>
<svg
   sodipodi:docname="libreoffice-writer.svg"
   id="svg8"
   version="1.1"
   viewBox="0 0 67.733332 67.733335"
   height="256"
   width="256"
   xmlns:inkscape="http://www.inkscape.org/namespaces/inkscape"
   xmlns:sodipodi="http://sodipodi.sourceforge.net/DTD/sodipodi-0.dtd"
   xmlns="http://www.w3.org/2000/svg"
   xmlns:svg="http://www.w3.org/2000/svg">
  <defs
     id="defs2" />
  <sodipodi:namedview
     inkscape:window-maximized="1"
     inkscape:window-y="32"
     inkscape:window-x="1920"
     inkscape:window-height="1011"
     inkscape:window-width="1920"
     units="px"
     showgrid="false"
     inkscape:document-rotation="0"
     inkscape:current-layer="g1174"
     inkscape:document-units="px"
     inkscape:cy="146.79197"
     inkscape:cx="104.82428"
     inkscape:zoom="2.6329779"
     inkscape:pageshadow="2"
     inkscape:pageopacity="0.0"
     borderopacity="1.0"
     bordercolor="#666666"
     pagecolor="#ffffff"
     id="base"
     inkscape:pagecheckerboard="0"
     inkscape:showpageshadow="2"
     inkscape:deskcolor="#d1d1d1" />
  <g
     inkscape:groupmode="layer"
     id="layer1"
     inkscape:label="Background"
     style="display:inline">
    <g
       inkscape:label="Shadow"
       id="layer10"
       inkscape:groupmode="layer"
       style="display:inline;opacity:0.4">
      <path
         id="path4072"
         style="display:inline;opacity:1;fill:#000000;fill-opacity:1;stroke-width:0.0246944;stroke-miterlimit:4;stroke-dasharray:none;paint-order:stroke fill markers"
         d="M 11.1125,33.866667 V 60.09504 c 0,2.765595 2.226863,4.99246 4.99246,4.99246 h 36.581747 c 2.765597,0 4.99246,-2.226865 4.99246,-4.99246 V 33.866667 Z" />
      <path
         id="path5"
         style="display:inline;opacity:1;fill:#000000;fill-opacity:1;stroke-width:0.0246944;stroke-miterlimit:4;stroke-dasharray:none;paint-order:stroke fill markers"
         d="m 52.686707,5.8208334 c 2.765594,0 4.99246,2.2268657 4.99246,4.9924606 v 10.88254 l -15.875,-15.8750006 z" />
    </g>
    <g
       style="display:inline"
       inkscape:label="Colour"
       id="g1174"
       inkscape:groupmode="layer">
      <g
         id="g1">
        <path
           id="path1156"
           style="display:inline;opacity:1;fill:#3998f6;fill-opacity:1;stroke-width:0.0246944;stroke-miterlimit:4;stroke-dasharray:none;paint-order:stroke fill markers"
           d="m 16.10496,4.7625 c -2.765597,0 -4.99246,2.2268629 -4.99246,4.9924601 V 59.036707 c 0,2.765595 2.226863,4.99246 4.99246,4.99246 h 36.581747 c 2.765597,0 4.99246,-2.226865 4.99246,-4.99246 V 25.929167 L 36.5125,4.7625 Z" />
        <path
           id="path4"
           style="display:inline;opacity:1;fill:#3998f6;fill-opacity:1;stroke-width:0.0246944;stroke-miterlimit:4;stroke-dasharray:none;paint-order:stroke fill markers"
           d="m 52.686707,4.7625 c 2.765594,0 4.99246,2.2268657 4.99246,4.99246 V 20.6375 l -15.875,-15.875 z" />
      </g>
      <path
         id="rect1"
         style="opacity:1;fill:#f9f9f9;stroke-width:50.9481;stroke-linecap:round;stroke-linejoin:round;paint-order:stroke markers fill"
         d="m 19.673218,10.054167 c -1.811192,0 -3.269051,1.457859 -3.269051,3.269051 v 42.145231 c 0,1.811192 1.457859,3.269051 3.269051,3.269051 h 29.445231 c 1.811192,0 3.269051,-1.457859 3.269051,-3.269051 V 28.121281 L 34.320386,10.054167 Z" />
    </g>
    <g
       inkscape:groupmode="layer"
       id="layer6"
       inkscape:label="Highlight"
       style="display:inline">
      <path
         id="path8"
         style="display:inline;opacity:0.1;fill:#f9f9f9;fill-opacity:1;stroke-width:0.0246944;stroke-miterlimit:4;stroke-dasharray:none;paint-order:stroke fill markers"
         d="m 16.10496,4.7625 c -2.765591,0 -4.99246,2.2268685 -4.99246,4.9924601 v 1.0583329 c 0,-2.7655945 2.226866,-4.9924597 4.99246,-4.9924597 H 37.570833 L 36.5125,4.7625 Z m 25.699207,0 1.058333,1.0583333 h 9.824207 c 2.765594,0 4.99246,2.2268652 4.99246,4.9924597 V 9.7549601 c 0,-2.7655887 -2.226872,-4.9924601 -4.99246,-4.9924601 z" />
    </g>
  </g>
  <g
     inkscape:groupmode="layer"
     id="layer5"
     inkscape:label="Graphic"
     style="display:inline">
    <g
       id="g22">
      <path
         id="path7"
         style="display:inline;opacity:0.4;fill:#000000;fill-opacity:1;stroke-width:0.0281043;stroke-miterlimit:4;stroke-dasharray:none;paint-order:stroke fill markers"
         d="m 34.320386,11.1125 v 12.385291 c 0,3.147472 2.534351,5.681823 5.681824,5.681823 h 10.81536 1.56993 v -1.058333 h -1.058333 z" />
      <path
         id="path6"
         style="display:inline;opacity:1;fill:#e6e6e6;fill-opacity:1;stroke-width:0.0281043;stroke-miterlimit:4;stroke-dasharray:none;paint-order:stroke fill markers"
         d="m 40.002242,28.121261 c -3.147476,0 -5.681835,-2.53436 -5.681835,-5.681836 V 10.054187 l 18.067072,18.067074 z" />
    </g>
    <g
       id="g21">
      <path
         id="path15"
         style="opacity:0.2;fill:#000000;fill-opacity:1;stroke-width:3.69478;stroke-linecap:round;stroke-linejoin:round;paint-order:stroke markers fill"
         d="M 19.989478 21.166667 L 19.989478 23.8125 L 30.572811 23.8125 L 30.572811 21.166667 L 19.989478 21.166667 z M 19.989478 25.929167 L 19.989478 28.575 L 30.572811 28.575 L 30.572811 25.929167 L 19.989478 25.929167 z M 19.989478 30.691667 L 19.989478 33.3375 L 33.218644 33.3375 L 33.218644 30.691667 L 19.989478 30.691667 z M 19.989478 35.454167 L 19.989478 38.1 L 43.801978 38.1 L 43.801978 35.454167 L 19.989478 35.454167 z M 19.989478 40.216667 L 19.989478 42.8625 L 38.510311 42.8625 L 38.510311 40.216667 L 19.989478 40.216667 z M 19.989478 44.979167 L 19.989478 47.625 L 41.156144 47.625 L 41.156144 44.979167 L 19.989478 44.979167 z M 19.989478 49.741667 L 19.989478 52.3875 L 46.447811 52.3875 L 46.447811 49.741667 L 19.989478 49.741667 z " />
      <path
         id="path14"
         style="opacity:1;fill:#999999;fill-opacity:1;stroke-width:3.69478;stroke-linecap:round;stroke-linejoin:round;paint-order:stroke markers fill"
         d="M 19.989478 20.6375 L 19.989478 23.283333 L 30.572811 23.283333 L 30.572811 20.6375 L 19.989478 20.6375 z M 19.989478 25.4 L 19.989478 28.045833 L 30.572811 28.045833 L 30.572811 25.4 L 19.989478 25.4 z M 19.989478 30.1625 L 19.989478 32.808333 L 33.218644 32.808333 L 33.218644 30.1625 L 19.989478 30.1625 z M 19.989478 34.925 L 19.989478 37.570833 L 43.801978 37.570833 L 43.801978 34.925 L 19.989478 34.925 z M 19.989478 39.6875 L 19.989478 42.333333 L 38.510311 42.333333 L 38.510311 39.6875 L 19.989478 39.6875 z M 19.989478 44.45 L 19.989478 47.095833 L 41.156144 47.095833 L 41.156144 44.45 L 19.989478 44.45 z M 19.989478 49.2125 L 19.989478 51.858333 L 46.447811 51.858333 L 46.447811 49.2125 L 19.989478 49.2125 z " />
    </g>
  </g>
</svg>
