<?xml version="1.0" encoding="UTF-8" standalone="no"?>
<svg
   sodipodi:docname="libreoffice-draw.svg"
   id="svg8"
   version="1.1"
   viewBox="0 0 67.733332 67.733335"
   height="256"
   width="256"
   xmlns:inkscape="http://www.inkscape.org/namespaces/inkscape"
   xmlns:sodipodi="http://sodipodi.sourceforge.net/DTD/sodipodi-0.dtd"
   xmlns="http://www.w3.org/2000/svg"
   xmlns:svg="http://www.w3.org/2000/svg">
  <defs
     id="defs2" />
  <sodipodi:namedview
     inkscape:window-maximized="1"
     inkscape:window-y="32"
     inkscape:window-x="1920"
     inkscape:window-height="1011"
     inkscape:window-width="1920"
     units="px"
     showgrid="false"
     inkscape:document-rotation="0"
     inkscape:current-layer="layer5"
     inkscape:document-units="px"
     inkscape:cy="141.98375"
     inkscape:cx="151.9992"
     inkscape:zoom="2.546066"
     inkscape:pageshadow="2"
     inkscape:pageopacity="0.0"
     borderopacity="1.0"
     bordercolor="#666666"
     pagecolor="#ffffff"
     id="base"
     inkscape:pagecheckerboard="0"
     inkscape:showpageshadow="2"
     inkscape:deskcolor="#d1d1d1" />
  <g
     inkscape:groupmode="layer"
     id="layer1"
     inkscape:label="Background"
     style="display:inline">
    <g
       inkscape:label="Shadow"
       id="layer10"
       inkscape:groupmode="layer"
       style="display:inline;opacity:0.4">
      <path
         id="path4072"
         style="display:inline;opacity:1;fill:#000000;fill-opacity:1;stroke-width:0.0246944;stroke-miterlimit:4;stroke-dasharray:none;paint-order:stroke fill markers"
         d="M 11.1125,33.866667 V 60.09504 c 0,2.765595 2.226863,4.99246 4.99246,4.99246 h 36.581747 c 2.765597,0 4.99246,-2.226865 4.99246,-4.99246 V 33.866667 Z" />
      <path
         id="path5"
         style="display:inline;opacity:1;fill:#000000;fill-opacity:1;stroke-width:0.0246944;stroke-miterlimit:4;stroke-dasharray:none;paint-order:stroke fill markers"
         d="m 52.686707,5.8208334 c 2.765594,0 4.99246,2.2268657 4.99246,4.9924606 v 10.88254 l -15.875,-15.8750006 z" />
    </g>
    <g
       style="display:inline"
       inkscape:label="Colour"
       id="g1174"
       inkscape:groupmode="layer">
      <g
         id="g1"
         style="fill:#f1b62b;fill-opacity:1">
        <path
           id="path1156"
           style="display:inline;opacity:1;fill:#f1b62b;fill-opacity:1;stroke-width:0.0246944;stroke-miterlimit:4;stroke-dasharray:none;paint-order:stroke fill markers"
           d="m 16.10496,4.7625 c -2.765597,0 -4.99246,2.2268629 -4.99246,4.9924601 V 59.036707 c 0,2.765595 2.226863,4.99246 4.99246,4.99246 h 36.581747 c 2.765597,0 4.99246,-2.226865 4.99246,-4.99246 V 25.929167 L 36.5125,4.7625 Z" />
        <path
           id="path4"
           style="display:inline;opacity:1;fill:#f1b62b;fill-opacity:1;stroke-width:0.0246944;stroke-miterlimit:4;stroke-dasharray:none;paint-order:stroke fill markers"
           d="m 52.686707,4.7625 c 2.765594,0 4.99246,2.2268657 4.99246,4.99246 V 20.6375 l -15.875,-15.875 z" />
      </g>
      <path
         id="rect1"
         style="display:inline;opacity:1;fill:#f9f9f9;stroke-width:50.9481;stroke-linecap:round;stroke-linejoin:round;paint-order:stroke markers fill"
         d="m 19.673218,10.054167 c -1.811192,0 -3.269051,1.457859 -3.269051,3.269051 v 42.145231 c 0,1.811192 1.457859,3.269051 3.269051,3.269051 h 29.445231 c 1.811192,0 3.269051,-1.457859 3.269051,-3.269051 V 28.121281 L 34.320386,10.054167 Z" />
    </g>
    <g
       inkscape:groupmode="layer"
       id="layer6"
       inkscape:label="Highlight"
       style="display:inline">
      <path
         id="path8"
         style="display:inline;opacity:0.1;fill:#f9f9f9;fill-opacity:1;stroke-width:0.0246944;stroke-miterlimit:4;stroke-dasharray:none;paint-order:stroke fill markers"
         d="m 16.10496,4.7625 c -2.765591,0 -4.99246,2.2268685 -4.99246,4.9924601 v 1.0583329 c 0,-2.7655945 2.226866,-4.9924597 4.99246,-4.9924597 H 37.570833 L 36.5125,4.7625 Z m 25.699207,0 1.058333,1.0583333 h 9.824207 c 2.765594,0 4.99246,2.2268652 4.99246,4.9924597 V 9.7549601 c 0,-2.7655887 -2.226872,-4.9924601 -4.99246,-4.9924601 z" />
    </g>
  </g>
  <g
     inkscape:groupmode="layer"
     id="layer5"
     inkscape:label="Graphic"
     style="display:inline">
    <g
       id="g10">
      <g
         id="g7">
        <rect
           style="fill:#000000;fill-opacity:1;stroke-width:0.956646;stroke-linecap:round;stroke-linejoin:round;stroke-dasharray:none;paint-order:stroke markers fill;opacity:0.2"
           id="rect6"
           width="11.641666"
           height="11.641666"
           x="37.570618"
           y="31.395988"
           ry="1.771558" />
        <rect
           style="fill:#ffd100;fill-opacity:1;stroke-width:0.956646;stroke-linecap:round;stroke-linejoin:round;stroke-dasharray:none;paint-order:stroke markers fill"
           id="rect2"
           width="11.641666"
           height="11.641666"
           x="37.570618"
           y="30.866821"
           ry="1.771558" />
      </g>
      <g
         id="g9">
        <path
           style="color:#000000;fill:#000000;stroke-width:1.20845;stroke-linecap:round;stroke-linejoin:round;-inkscape-stroke:none;paint-order:stroke markers fill;opacity:0.2"
           d="m 26.508855,39.498883 a 1.0584392,1.0584392 0 0 0 -0.747738,0.747704 l -3.561383,13.291591 a 1.0584392,1.0584392 0 0 0 1.297366,1.294416 l 13.289148,-3.560817 a 1.0584392,1.0584392 0 0 0 0.474064,-1.769069 l -9.727765,-9.730775 a 1.0584392,1.0584392 0 0 0 -1.023692,-0.27305 z m 0.822244,3.068655 7.13865,7.135551 -9.750847,2.612732 z"
           id="path9" />
        <path
           style="color:#000000;fill:#ffc745;stroke-linecap:round;stroke-linejoin:round;-inkscape-stroke:none;paint-order:stroke markers fill"
           d="m 24.210937,22.675781 a 0.87586393,0.87586393 0 0 0 -0.757812,0.4375 l -5.693359,9.861328 a 0.87586393,0.87586393 0 0 0 0.759765,1.3125 h 11.384766 a 0.87586393,0.87586393 0 0 0 0.757812,-1.3125 l -5.691406,-9.861328 a 0.87586393,0.87586393 0 0 0 -0.759766,-0.4375 z m 0,2.628906 4.177735,7.232422 h -8.353516 z"
           id="path1"
           transform="matrix(1.1672746,-0.31277029,0.31277029,1.1672746,-8.8442675,20.073315)" />
      </g>
      <g
         id="g6">
        <circle
           style="opacity:0.2;fill:#000000;fill-opacity:1;stroke:none;stroke-width:3.25355;stroke-linecap:round;stroke-linejoin:round;stroke-dasharray:none;stroke-opacity:1;paint-order:stroke markers fill"
           id="circle6"
           cx="27.00469"
           cy="29.897919"
           r="5.5562501" />
        <circle
           style="opacity:1;fill:#ffd04c;fill-opacity:1;stroke:none;stroke-width:3.25355;stroke-linecap:round;stroke-linejoin:round;stroke-dasharray:none;stroke-opacity:1;paint-order:stroke markers fill"
           id="path2"
           cx="27.00469"
           cy="29.368752"
           r="5.5562501" />
      </g>
    </g>
  </g>
</svg>
