<?xml version="1.0" encoding="UTF-8" standalone="no"?>
<svg
   xmlns:dc="http://purl.org/dc/elements/1.1/"
   xmlns:cc="http://creativecommons.org/ns#"
   xmlns:rdf="http://www.w3.org/1999/02/22-rdf-syntax-ns#"
   xmlns:svg="http://www.w3.org/2000/svg"
   xmlns="http://www.w3.org/2000/svg"
   xmlns:sodipodi="http://sodipodi.sourceforge.net/DTD/sodipodi-0.dtd"
   xmlns:inkscape="http://www.inkscape.org/namespaces/inkscape"
   sodipodi:docname="mollusc-text-editor.svg"
   inkscape:version="1.0.2 (e86c870879, 2021-01-15)"
   id="svg8"
   version="1.1"
   viewBox="0 0 67.733332 67.733335"
   height="256"
   width="256">
  <defs
     id="defs2" />
  <sodipodi:namedview
     inkscape:window-maximized="1"
     inkscape:window-y="27"
     inkscape:window-x="2004"
     inkscape:window-height="1016"
     inkscape:window-width="1836"
     units="px"
     showgrid="false"
     inkscape:document-rotation="0"
     inkscape:current-layer="g1156"
     inkscape:document-units="px"
     inkscape:cy="86.638139"
     inkscape:cx="175.81183"
     inkscape:zoom="1.4142136"
     inkscape:pageshadow="2"
     inkscape:pageopacity="0.0"
     borderopacity="1.0"
     bordercolor="#666666"
     pagecolor="#ffffff"
     id="base"
     showguides="false" />
  <metadata
     id="metadata5">
    <rdf:RDF>
      <cc:Work
         rdf:about="">
        <dc:format>image/svg+xml</dc:format>
        <dc:type
           rdf:resource="http://purl.org/dc/dcmitype/StillImage" />
        <dc:title />
      </cc:Work>
    </rdf:RDF>
  </metadata>
  <g
     inkscape:groupmode="layer"
     id="layer1"
     inkscape:label="Background"
     style="display:inline">
    <g
       inkscape:label="Shadow"
       id="layer10"
       inkscape:groupmode="layer"
       style="display:inline;opacity:0.4">
      <path
         id="path839"
         style="display:inline;opacity:1;fill:#000000;fill-opacity:1;stroke-width:0.0246944;stroke-miterlimit:4;stroke-dasharray:none;paint-order:stroke fill markers"
         d="m 4.2333333,34.925001 v 24.641082 c 0,2.765599 2.2266527,4.992251 4.9922512,4.992251 H 58.50775 c 2.765599,0 4.99225,-2.226652 4.99225,-4.992251 V 34.925001 Z" />
    </g>
    <g
       style="display:inline"
       inkscape:label="Colour"
       id="g1174"
       inkscape:groupmode="layer">
      <path
         id="rect1168"
         style="display:inline;fill:#ff4141;fill-opacity:1;stroke-width:0.0933332;stroke-miterlimit:4;stroke-dasharray:none;paint-order:stroke fill markers"
         d="M 34.869141 16 C 24.416485 16 16 24.416485 16 34.869141 L 16 128 L 16 221.13086 C 16 231.58352 24.416485 240 34.869141 240 L 221.13086 240 C 231.58352 240 240 231.58352 240 221.13086 L 240 128 L 240 34.869141 C 240 24.416485 231.58352 16 221.13086 16 L 34.869141 16 z "
         transform="scale(0.26458333)" />
    </g>
    <g
       inkscape:groupmode="layer"
       id="layer2"
       inkscape:label="Highlight"
       style="opacity:0.1">
      <path
         d="m 9.2257931,4.2333333 c -2.7655986,0 -4.9924598,2.2268608 -4.9924598,4.9924598 v 1.0583329 c 0,-2.7655979 2.2268612,-4.9924597 4.9924598,-4.9924597 H 58.50754 c 2.765599,0 4.99246,2.2268618 4.99246,4.9924597 V 9.2257931 c 0,-2.765599 -2.226861,-4.9924598 -4.99246,-4.9924598 z"
         style="display:inline;opacity:1;fill:#ffffff;fill-opacity:1;stroke-width:0.0246944;stroke-miterlimit:4;stroke-dasharray:none;paint-order:stroke fill markers"
         id="path955" />
    </g>
  </g>
  <g
     inkscape:label="Icon"
     id="g1156"
     inkscape:groupmode="layer"
     style="display:inline">
    <g
       inkscape:groupmode="layer"
       id="layer3"
       inkscape:label="Shadow"
       style="display:inline;opacity:0.4">
      <path
         id="path865"
         style="display:inline;color:#000000;font-style:normal;font-variant:normal;font-weight:normal;font-stretch:normal;font-size:medium;line-height:normal;font-family:sans-serif;font-variant-ligatures:normal;font-variant-position:normal;font-variant-caps:normal;font-variant-numeric:normal;font-variant-alternates:normal;font-variant-east-asian:normal;font-feature-settings:normal;font-variation-settings:normal;text-indent:0;text-align:start;text-decoration:none;text-decoration-line:none;text-decoration-style:solid;text-decoration-color:#000000;letter-spacing:normal;word-spacing:normal;text-transform:none;writing-mode:lr-tb;direction:ltr;text-orientation:mixed;dominant-baseline:auto;baseline-shift:baseline;text-anchor:start;white-space:normal;shape-padding:0;shape-margin:0;inline-size:0;clip-rule:nonzero;overflow:visible;visibility:visible;opacity:1;isolation:auto;mix-blend-mode:normal;color-interpolation:sRGB;color-interpolation-filters:linearRGB;solid-color:#000000;solid-opacity:1;vector-effect:none;fill:#000000;fill-opacity:1;fill-rule:nonzero;stroke:none;stroke-width:1.36794;stroke-linecap:round;stroke-linejoin:round;stroke-miterlimit:4;stroke-dasharray:none;stroke-dashoffset:0;stroke-opacity:1;paint-order:stroke markers fill;color-rendering:auto;image-rendering:auto;shape-rendering:auto;text-rendering:auto;enable-background:accumulate;stop-color:#000000;stop-opacity:1"
         d="M 64.904297 56.724609 C 62.531135 56.875755 60.824219 58.898884 60.824219 62.1875 C 60.824219 64.803277 62.022666 66.820571 65.794922 70.554688 C 69.41766 74.140786 71.322261 76.831106 72.34375 79.804688 C 73.271979 82.506796 73.761185 86.122517 73.472656 88.146484 L 73.230469 89.847656 L 70.302734 89.574219 C 59.548943 88.566502 51.211871 82.722453 45.535156 72.212891 C 43.255073 68.228996 37.576606 68.509216 37.271484 73.113281 C 37.428633 75.576312 38.134545 76.562509 39.462891 78.822266 C 40.284235 80.219515 41.732571 82.477732 42.681641 83.839844 C 44.927088 87.06256 45.785286 89.903599 45.185547 92.130859 L 44.746094 93.759766 L 43.892578 92.960938 C 42.082661 91.265638 38.353344 90.796096 35.654297 91.923828 C 33.837542 92.682916 31.39712 95.117739 30.292969 97.273438 C 29.309494 99.193528 28.009902 103.88338 28 105.54688 C 27.996316 106.16511 28.648891 108.27501 29.449219 110.23633 C 31.219232 114.574 31.470562 117.15787 30.123047 118.98047 C 29.354399 120.14319 30.098906 120.82924 30.636719 121.4082 C 34.103245 124.2675 40.296767 125.20326 47.810547 124.00391 C 50.003769 123.65382 52.086823 123.2564 52.439453 123.12109 C 53.711037 122.63314 51.410076 126.22827 48.744141 128.89453 C 45.861075 131.77794 42.602634 133.63242 38.900391 134.49609 C 37.586544 134.8026 36.434042 135.13041 36.337891 135.22656 C 36.241739 135.32271 36.127184 136.16508 36.083984 137.09766 C 36.007502 138.7484 36.046347 138.80795 37.568359 139.33203 C 38.72875 139.7316 40.300735 139.80821 43.667969 139.62891 C 49.216485 139.33347 51.580883 139.77764 53.908203 141.55469 C 56.223621 143.32264 57.572038 145.53646 61.460938 153.95703 C 70.094471 172.65109 74.817151 180.32285 82.324219 187.85156 C 88.104137 193.64815 93.116089 196.88455 100.68945 199.70703 C 110.84454 203.49168 118.21797 204.3912 151.30469 205.88086 C 156.67876 206.12281 165.47163 206.53913 170.8457 206.80664 C 187.31436 207.62644 193.03714 207.44115 200.39844 205.84961 C 207.27386 204.36313 214.40517 200.59923 216.70117 197.24609 C 217.60497 195.92621 217.62953 195.70123 217.41406 190.79883 C 216.96086 180.48734 213.1858 169.53572 207.14844 161.02344 C 206.20634 159.69514 205.43555 158.51443 205.43555 158.39844 C 205.43555 158.28244 206.20627 156.99481 207.14844 155.53711 C 212.47719 147.29267 217.15209 135.94819 219.08008 126.58203 C 219.6969 123.58549 220.43359 122.36107 223.59961 119.07812 C 226.69729 115.86604 227.5637 114.48217 227.9375 112.14453 C 228.24653 110.21195 227.38048 108.38801 225.75391 107.54688 C 225.11372 107.21582 222.84138 106.77797 220.70312 106.57422 C 213.6899 105.90599 210.13062 104.10462 200.18164 96.185547 C 192.38676 89.981063 190.32728 88.569824 186.55469 86.847656 C 182.73851 85.105589 180.16552 84.566662 175.75195 84.585938 C 165.77765 84.629549 154.65242 89.768597 141.9082 100.2207 C 129.10003 110.72526 118.91121 123.30995 111.53711 137.73633 C 110.1924 140.36707 108.9748 142.52258 108.83008 142.52539 C 108.68534 142.52794 108.03883 142.0848 107.39258 141.54102 C 105.69151 140.10966 102.38053 133.32552 99 124.33984 C 93.240911 109.03184 91.237501 105.25672 85.597656 99.095703 C 83.131601 96.401765 82.699855 94.497716 82.730469 86.431641 C 82.745288 82.515011 82.731855 79.247125 82.292969 77.814453 C 81.444268 75.043988 79.088456 69.749062 76.978516 66.767578 C 74.815768 63.711452 70.142131 58.759507 68.455078 57.736328 C 67.198753 56.974377 65.983007 56.655907 64.904297 56.724609 z "
         transform="scale(0.26458333)" />
    </g>
    <path
       id="path882"
       style="fill:#693310;fill-opacity:1;stroke-width:0.361935;stroke-linecap:round;stroke-linejoin:round;paint-order:stroke markers fill"
       d="m 46.345129,22.416166 c -2.128184,0.04323 -4.22,1.111423 -6.00674,2.173572 -2.956236,1.836912 -5.625535,4.222716 -7.800061,6.94609 -1.302717,1.669351 -2.335285,3.572189 -3.042569,5.56583 -0.104093,0.395616 -0.225603,0.905696 -0.05663,1.305575 0.181273,0.233181 0.636616,0.282411 0.812114,0.03971 0.954034,-0.933395 1.85089,-2.043677 3.140418,-2.505989 0.711042,-0.176645 1.462757,-0.120705 2.19282,-0.09513 1.534489,0.397664 2.706446,1.564573 3.757101,2.689471 1.254137,1.618121 2.694971,3.179786 4.53207,4.174579 1.039861,0.579732 2.162289,1.050729 3.336593,1.26536 1.021304,0.08084 2.099405,0.04397 3.026256,-0.439333 1.382358,-0.625848 2.418907,-1.816061 3.398099,-2.940078 1.997473,-2.48076 3.283431,-5.501666 3.889019,-8.614535 0.134356,-0.920184 0.342025,-1.937416 0.01552,-2.837556 -0.345531,-0.831824 -1.155061,-1.218575 -1.864695,-1.648968 -2.317042,-1.221427 -4.124012,-3.277035 -6.484988,-4.424032 -0.859328,-0.394205 -1.896113,-0.668199 -2.84433,-0.654567 z m 12.867799,5.617212 c -0.307156,0.13922 -0.332849,0.827965 -0.197993,0.947644 0.116517,0.123238 0.64294,-0.137317 0.652512,-0.276732 0.02944,-0.121099 -0.327281,-0.675941 -0.454519,-0.670912 z m -0.970305,0.249771 c -0.11459,0.0478 -0.330458,0.160147 -0.332281,0.265865 0.01568,0.299816 0.118977,0.875103 0.27949,1.141826 0.05839,0.10915 0.442591,0.130965 0.505594,-0.0015 0.05971,-0.193214 0.06033,-0.452271 0.01711,-0.645212 -0.06684,-0.209022 -0.268077,-0.567359 -0.411546,-0.739596 -0.0161,-0.01364 -0.03666,-0.02377 -0.05837,-0.02141 z"
       sodipodi:nodetypes="cccccccccccccccccccccccccccccc" />
    <path
       id="path890"
       style="fill:#20ff20;fill-opacity:1;stroke-width:1.02371;stroke-linecap:round;stroke-linejoin:round;paint-order:stroke markers fill"
       d="m 16.916937,14.570401 c -0.691527,0.285943 -0.09146,1.311088 0.228027,1.626892 1.413895,1.401947 2.731896,3.0117 2.886597,5.06952 0.08404,0.826799 0.258753,2.164033 -0.707309,2.450336 -0.54526,0.05221 -1.559169,-1.060718 -1.329588,0.553002 -0.118088,1.482782 -0.449889,3.105232 -1.980546,3.779115 -1.575154,0.721938 -3.328975,0.186363 -3.995429,-1.407751 -0.22734,-0.679438 -0.619673,-0.728998 -0.921199,-0.119568 -0.888775,1.133865 -2.178333,2.637131 -2.214229,4.134789 0.703763,0.435684 1.956455,0.348002 2.758345,0.329419 1.152334,0.0069 2.186725,-0.654333 3.296602,-0.731345 0.569741,0.348448 0.0942,0.942171 -0.0816,1.460265 -0.335022,0.993099 -1.957721,2.362761 -2.42752,3.242412 1.734091,0.230176 4.770028,-0.953174 6.17129,0.440766 1.734806,1.559303 2.507933,3.860605 3.67934,5.820456 1.414305,2.495363 2.481301,5.232836 4.247088,7.508748 1.918864,1.873325 4.883648,1.537991 7.330203,1.856131 5.958947,0.484508 12.089847,0.873258 18.056986,0.266806 1.48545,-0.180955 3.445264,-1.009334 3.694489,-2.694319 0.329242,-1.867685 -0.889999,-3.684014 -1.711519,-5.262607 -0.376057,-1.225858 -1.311962,0.341416 -1.744643,0.59158 -1.578848,1.293019 -3.604799,1.87509 -5.639891,1.426736 -2.211264,-0.34453 -4.030892,-1.550237 -5.516082,-3.17865 -1.646764,-1.453683 -2.939185,-3.478413 -4.931574,-4.487839 -1.299487,-0.401021 -3.159943,-0.385501 -4.121056,0.716399 -0.827157,0.626104 -1.223539,1.65537 -2.167371,2.08032 -1.08407,-0.419571 -1.34806,-1.59688 -1.90097,-2.518602 -1.908178,-4.093598 -3.310394,-8.480035 -6.023842,-12.146248 -0.5383,-0.674282 -1.140621,-1.261843 -0.883834,-2.152224 0.237624,-1.737078 0.593668,-3.701769 -0.467971,-5.196561 -0.860721,-1.252393 -1.768055,-2.654393 -3.143103,-3.376786 -0.04918,-0.01567 -0.387923,-0.08794 -0.439694,-0.08119 z m -6.096957,3.279636 c -0.408107,0.04637 -0.486088,0.711566 -0.228634,0.970682 0.688556,0.985888 1.1273,2.202497 1.939142,3.097053 0.27615,0.282374 1.064471,-0.319201 0.810922,-0.620663 -0.702261,-1.0742 -1.392485,-2.229664 -2.116879,-3.288321 -0.06591,-0.06203 -0.312422,-0.162112 -0.404551,-0.158751 z"
       sodipodi:nodetypes="ccccccccccccccccccccccccccccccccccccccc" />
    <path
       style="fill:#00ca00;fill-opacity:1;stroke-width:0.255927;stroke-linecap:round;stroke-linejoin:round;paint-order:stroke markers fill"
       d="m 16.271094,35.118228 c -0.241077,0.01505 -0.684946,0.141873 -0.804671,0.370707 0.187507,0.414891 0.524445,0.827579 0.718712,1.24563 0.677367,1.414239 1.062759,2.972559 1.759061,4.382489 1.305873,2.755263 3.151135,5.482469 5.644235,7.292478 0.489795,0.343805 1.105431,0.73672 1.651773,0.981913 0.140241,-0.07691 0.04483,-0.489524 0.02936,-0.602949 -0.842568,-1.82302 -1.706203,-3.762962 -2.828189,-5.437649 -1.056909,-1.61657 -2.16209,-3.17916 -3.018113,-4.914811 -0.542147,-0.989834 -1.004756,-2.102974 -1.901497,-2.832809 -0.343158,-0.267674 -0.805381,-0.495142 -1.250674,-0.484999 z"
       id="path894"
       sodipodi:nodetypes="ccccccccccc" />
    <path
       id="path904"
       style="fill:#ffffff;fill-opacity:1;stroke-width:0.115755;stroke-linecap:round;stroke-linejoin:round;paint-order:stroke markers fill"
       d="m 14.777954,22.056707 c -0.586558,0.01668 -1.090154,0.402498 -1.443323,0.844393 -0.342797,0.430629 -0.599166,0.942141 -0.657324,1.494999 -0.05515,0.483033 -0.05692,0.974865 0.0098,1.456758 0.05324,0.295368 0.163685,0.58405 0.324011,0.837159 0.08262,0.08967 0.233456,0.02064 0.241846,-0.09509 0.122233,-0.464735 0.166195,-0.991272 0.513664,-1.356506 0.279878,-0.296508 0.657582,-0.499614 1.064534,-0.546736 0.448113,-0.0562 0.936131,-0.03862 1.325501,0.204638 0.393467,0.223783 0.623647,0.628164 0.939477,0.936894 0.0892,0.09661 0.260803,0.157504 0.358118,0.03824 0.162474,-0.202707 0.134353,-0.483002 0.148828,-0.727088 0.0029,-0.392838 -0.02217,-0.80282 -0.220658,-1.152384 -0.348628,-0.648121 -0.896047,-1.177357 -1.51567,-1.566829 -0.329175,-0.19767 -0.696265,-0.372828 -1.088822,-0.368453 z m -4.387329,1.685685 c -0.386169,0.04092 -0.7135001,0.283006 -1.0087243,0.517798 -0.3377695,0.291837 -0.6720999,0.62606 -0.8221721,1.056266 -0.057391,0.144433 -0.060025,0.359381 0.107487,0.429948 0.2523548,0.08545 0.5264671,0.05715 0.7885824,0.07752 0.27432,0.02063 0.55201,-0.007 0.81287,0.09612 0.141787,0.08691 0.331787,0.113737 0.470256,0.0047 0.264415,-0.203465 0.502477,-0.445758 0.697632,-0.716752 0.09443,-0.13061 0.169652,-0.311869 0.07028,-0.461987 -0.191926,-0.329994 -0.461283,-0.612059 -0.753443,-0.855245 -0.103985,-0.08077 -0.226174,-0.154295 -0.362768,-0.148312 z" />
    <path
       style="fill:#000000;fill-opacity:1;stroke-width:0.10341"
       d="M 45.202971,53.659307 C 43.781081,53.588526 41.454353,53.478236 40.032464,53.414219 31.278271,53.02008 29.327717,52.782166 26.640851,51.78081 24.637065,51.034028 23.310633,50.177863 21.781363,48.644183 19.795118,46.65221 18.545677,44.622309 16.261388,39.676173 15.23245,37.44823 14.875711,36.862404 14.26309,36.394634 c -0.61577,-0.470176 -1.240987,-0.587792 -2.709032,-0.509625 -0.890914,0.04744 -1.306924,0.0272 -1.613944,-0.07852 -0.402699,-0.138662 -0.413091,-0.154298 -0.392855,-0.591057 0.01143,-0.246743 0.0416,-0.46944 0.06704,-0.49488 0.02544,-0.02544 0.330672,-0.112603 0.678294,-0.193699 0.979552,-0.228513 1.841268,-0.718837 2.604079,-1.48174 0.705362,-0.705447 1.314216,-1.656625 0.977776,-1.527521 -0.0933,0.0358 -0.644411,0.140878 -1.224701,0.233505 -1.988021,0.317329 -3.626444,0.06964 -4.543629,-0.686882 C 7.9638216,30.91103 7.7667357,30.729718 7.970107,30.422082 8.326637,29.939853 8.259887,29.256049 7.791571,28.108372 7.5798177,27.58944 7.4073628,27.031025 7.4083375,26.867451 7.4109575,26.427319 7.75491,25.18654 8.015121,24.678516 8.307261,24.108154 8.952625,23.464142 9.433308,23.2633 c 0.714123,-0.298379 1.701291,-0.17412 2.180165,0.274428 l 0.225618,0.21133 0.116063,-0.431024 c 0.158681,-0.589296 -0.06839,-1.341254 -0.662498,-2.193931 -0.251108,-0.360392 -0.634363,-0.957736 -0.851677,-1.327425 -0.351458,-0.597894 -0.538122,-0.858535 -0.579701,-1.510212 0.08073,-1.218159 1.583353,-1.292673 2.186625,-0.238601 1.501964,2.780655 3.707828,4.326898 6.553102,4.593523 l 0.774385,0.07256 0.06421,-0.450388 c 0.07634,-0.535508 -0.0531,-1.491821 -0.298694,-2.206754 -0.270269,-0.78676 -0.774327,-1.498717 -1.732843,-2.447539 -0.998076,-0.987985 -1.315042,-1.521538 -1.315042,-2.213629 0,-1.265619 0.955458,-1.822982 2.019147,-1.177863 0.446366,0.270716 1.682715,1.580766 2.254942,2.389366 0.558255,0.788851 1.18155,2.190034 1.406102,2.923053 0.116122,0.379061 0.119988,1.243454 0.116067,2.279729 -0.0081,2.134149 0.106018,2.63822 0.758495,3.350991 1.492209,1.630103 2.022438,2.628748 3.546197,6.678991 0.894433,2.37746 1.769994,4.172313 2.220067,4.551025 0.170988,0.143877 0.342218,0.261042 0.380512,0.260367 0.03829,-7.43e-4 0.360722,-0.570724 0.716511,-1.266774 1.951064,-3.816978 4.646451,-7.146558 8.035279,-9.925889 3.371908,-2.765453 6.315597,-4.125406 8.954632,-4.136945 1.167756,-0.0051 1.84861,0.13742 2.858306,0.598342 0.998166,0.455657 1.542913,0.828947 3.605309,2.47055 2.632333,2.095256 3.574089,2.572029 5.429672,2.74883 0.565747,0.05391 1.167216,0.169674 1.336599,0.257266 0.430364,0.22255 0.659526,0.704983 0.577762,1.216312 -0.0989,0.6185 -0.328198,0.985063 -1.147792,1.834928 -0.837675,0.868613 -1.032877,1.192644 -1.196077,1.985478 -0.510114,2.478129 -1.746838,5.479402 -3.156737,7.660742 -0.249282,0.385683 -0.453243,0.726354 -0.453243,0.757046 0,0.03069 0.203945,0.343348 0.453208,0.694794 1.597385,2.252209 2.596376,5.149452 2.716286,7.8777 0.05701,1.297095 0.05038,1.357049 -0.188749,1.706267 -0.607485,0.887183 -2.494335,1.88284 -4.313456,2.276138 -1.947676,0.421094 -3.461753,0.470126 -7.819085,0.253221 z m 5.510045,-2.78822 c 2.709207,-0.302668 3.615596,-0.632627 4.233575,-1.541181 0.422097,-0.620568 0.544388,-1.065103 0.545111,-1.981511 7.81e-4,-0.855156 -0.193252,-1.574596 -0.694905,-2.577998 -0.278975,-0.557995 -1.130677,-2.032555 -1.337209,-2.315116 -0.01606,-0.02196 -0.312736,0.222601 -0.659307,0.543463 -1.227391,1.136346 -2.581942,1.897535 -3.804842,2.138126 -0.880104,0.17315 -2.458385,0.07281 -3.378828,-0.21481 -1.872846,-0.585225 -3.352996,-1.617812 -5.293251,-3.692693 -2.596252,-2.776397 -3.13444,-3.273394 -4.017061,-3.709609 -0.773626,-0.382347 -0.861172,-0.401852 -1.800915,-0.401244 -0.907289,6.25e-4 -1.038306,0.02719 -1.60822,0.326592 -0.677793,0.356072 -1.669878,1.294644 -2.292185,2.168546 -0.450703,0.632918 -0.704093,0.745109 -1.155571,0.511641 -0.732211,-0.378642 -1.421794,-1.715298 -3.498783,-6.781888 -1.728724,-4.217033 -2.726393,-5.70876 -4.116983,-7.705067 -0.985566,-1.41486 -1.077174,-1.502915 -0.874237,-2.783643 0.506997,-3.199643 0.0493,-4.790368 -3.253486,-7.849062 -0.572428,-0.530121 -1.100943,-0.262774 -1.095851,0.144154 0.0042,0.335436 0.403643,0.880566 1.273418,1.719695 0.623736,0.601755 1.137146,1.209025 1.398838,1.654561 0.987124,1.680599 1.258616,4.115703 0.544139,4.880555 -0.3667,0.392552 -0.502211,0.312551 -1.032035,0.386745 -0.522145,0.116909 -0.582759,0.324931 -0.671265,0.86444 -0.180891,2.104763 -0.307329,2.796016 -2.13936,3.666512 -0.543531,0.258261 -0.738439,0.280101 -1.375404,0.24482 -1.210891,-0.06707 -2.094029,-0.655043 -2.647506,-1.76265 l -0.320083,-0.640543 -0.643528,0.678051 c -0.940723,0.991193 -1.611399,2.230155 -1.878834,3.470834 -0.06881,0.31924 -0.05633,0.334434 0.375241,0.456548 0.245534,0.06947 0.935038,0.126002 1.532231,0.125616 1.21928,-8.21e-4 2.034742,-0.176821 3.125097,-0.674618 0.665279,-0.30373 0.826267,-0.307511 1.002985,-0.175329 0.162158,0.121293 0.214598,0.286519 0.21269,0.586248 -0.0053,0.827053 -0.841411,2.352002 -1.917811,3.405664 -0.431219,0.42211 -0.983176,0.526129 -0.836488,0.802593 0.09099,0.171495 2.135763,-0.215471 3.273804,-0.501977 1.563972,-0.393736 2.148626,0.201893 3.15795,1.219359 0.808268,0.814788 1.132102,1.332334 2.529631,4.042807 0.527854,1.02376 1.04018,2.000986 1.138501,2.171613 0.09832,0.170627 0.633657,1.194387 1.189633,2.275023 1.459943,2.837647 2.075211,3.849861 2.751789,4.527129 0.686138,0.686837 1.558777,1.13988 2.633163,1.367045 0.784817,0.165939 4.006843,0.432883 9.401268,0.778892 0.966884,0.06202 2.316387,0.149872 2.998894,0.195232 2.247432,0.149363 7.527171,0.12388 9.02599,-0.04357 z M 24.529025,47.536446 C 23.321346,44.926144 23.091317,44.514418 21.615331,42.321257 20.708208,40.973368 19.921793,39.653644 19.383307,38.575584 18.42447,36.65597 17.95766,35.998522 17.177679,35.469212 c -0.436244,-0.296043 -1.125401,-0.356962 -1.43955,-0.12725 -0.177171,0.12955 -0.167912,0.165472 0.166592,0.646313 0.423747,0.609126 0.635916,1.084013 1.336306,2.990982 1.676299,4.564099 4.437019,8.213515 7.486736,9.896772 0.284378,0.156959 0.525544,0.286223 0.535924,0.287253 0.01038,10e-4 -0.320218,-0.731046 -0.734662,-1.626836 z m 25.266541,-3.883903 c 1.107348,-0.447278 1.789742,-0.921507 2.855769,-1.984622 1.089018,-1.086041 2.036629,-2.402259 2.866334,-3.98129 1.555831,-2.960943 2.536898,-7.137616 1.986171,-8.455689 -0.241361,-0.577656 -0.528426,-0.82857 -1.518568,-1.327315 -1.226195,-0.617648 -1.88597,-1.051735 -3.126243,-2.056854 -2.532383,-2.052242 -3.587745,-2.698347 -4.99576,-3.058457 -2.221266,-0.568103 -4.64699,0.143536 -8.033525,2.356812 -3.358034,2.194648 -6.206177,4.897062 -8.021441,7.61101 -1.133345,1.694432 -2.375379,4.469294 -2.375379,5.306902 0,0.23435 0.06434,0.374621 0.206821,0.450872 0.283995,0.15199 0.500191,0.01865 1.09098,-0.672879 0.592285,-0.693276 1.553,-1.435298 2.321554,-1.793086 0.487488,-0.226941 0.716516,-0.265462 1.602857,-0.269589 1.008522,-0.0047 1.055997,0.0059 1.91925,0.428102 1.071915,0.524264 1.913578,1.275806 3.506992,3.131483 1.372901,1.598868 2.060191,2.241271 3.182499,2.974645 0.955068,0.624092 1.838457,1.049071 2.825551,1.359314 0.941392,0.295878 1.070538,0.312449 2.126154,0.272818 0.704937,-0.02646 1.105569,-0.100553 1.579984,-0.292177 z m 8.827427,-14.196191 c -0.02725,-0.571131 -0.119907,-1.095405 -0.374629,-1.056977 -0.230403,0.03476 -0.186019,0.565403 -0.09461,1.022407 0.179247,0.369717 0.445726,0.452753 0.469234,0.03457 z m 0.581036,-1.281976 c -0.155756,-9.35e-4 -0.374997,0.408038 -0.09004,0.703119 0.09481,0.09818 0.466127,-0.04528 0.459551,-0.336338 -0.05221,-0.281527 -0.226676,-0.356033 -0.369509,-0.366781 z M 13.670195,25.160422 c 0.402044,-0.427536 0.885746,-0.621652 1.549044,-0.621652 0.747281,0 1.202775,0.25449 1.747031,0.976087 0.384041,0.509178 0.525149,0.37604 0.515447,-0.486335 -0.0057,-0.507445 -0.06719,-0.754272 -0.277073,-1.112413 -0.522074,-0.890853 -1.675867,-1.733156 -2.381723,-1.738728 -0.685008,-0.0054 -1.378176,0.561415 -1.830902,1.497176 -0.2871,0.593421 -0.322346,2.021879 -0.06379,2.585254 l 0.189837,0.41364 0.124607,-0.595454 c 0.08375,-0.400187 0.223941,-0.701087 0.427522,-0.917575 z m -2.632109,0.335979 c 0.220811,-0.220812 0.401475,-0.476618 0.401475,-0.568458 0,-0.208887 -0.673446,-0.964919 -0.932854,-1.047252 -0.500567,-0.158873 -1.85922,1.029755 -1.85922,1.626553 0,0.159094 0.100818,0.184024 0.749724,0.185394 0.412348,8.21e-4 0.819525,0.04669 0.904838,0.101827 0.242354,0.156621 0.307892,0.130081 0.736037,-0.298064 z m 2.119561,-4.20366 c -0.358506,-0.486112 -1.320396,-2.049307 -1.577383,-2.521757 -0.341107,-0.627101 -0.551174,-0.815736 -0.735143,-0.81875 -0.306858,-0.005 -0.486317,0.430918 -0.210676,0.824703 0.133585,0.190844 0.443722,0.610596 0.61858,0.957593 0.387374,0.768723 0.979005,1.635853 1.253348,2.004568 0.340615,0.423864 0.940186,-0.02105 0.651274,-0.446357 z"
       id="path858"
       sodipodi:nodetypes="ssssssssssssssccssssscsssccscssssssssssscssssssssssssssssssscscssssscsssssssssssccssscssscssssssssssssssssssssssscsssssssssssssssssssssssssccscccsccsssssscsccssssccscssccsc" />
    <g
       id="g1055"
       style="fill:#411900;fill-opacity:1">
      <path
         style="fill:#411900;fill-opacity:1;stroke-width:0.10341"
         d="m 48.125692,29.284289 c -0.09167,-0.07095 -0.411751,-0.419771 -0.554979,-0.843455 l -0.282754,-0.836418 c -0.170435,-0.591164 -0.116135,-0.924378 -0.06855,-1.328655 0.07895,-0.670841 0.380789,-1.167351 0.477323,-1.370788 0.372648,-0.785294 1.467238,-1.154766 2.07708,-0.701107 0.354661,0.263829 0.420221,0.607948 0.168762,0.885806 -0.154086,0.170265 -0.270557,0.197664 -0.63051,0.148327 -0.528343,-0.07242 -0.778275,0.120272 -0.94779,0.730719 -0.205067,0.738486 -0.139042,1.361664 0.209749,1.979683 0.262465,0.465063 0.304508,0.623374 0.232359,0.874942 -0.117816,0.410799 -0.452571,0.637489 -0.680686,0.460946 z"
         id="path1037" />
      <path
         style="fill:#411900;fill-opacity:1;stroke-width:0.10341"
         d="m 54.186318,30.443951 c -0.662241,-0.424297 -1.344467,-1.735123 -1.227855,-2.359198 0.08381,-0.448528 0.219922,-0.635726 0.462248,-0.635726 0.261911,0 0.52073,0.335457 0.590491,0.765338 0.04152,0.255855 0.234755,0.571817 0.600168,0.981342 0.46398,0.519992 0.532166,0.650104 0.490272,0.93554 -0.03396,0.231315 -0.124976,0.360562 -0.301089,0.427522 -0.307186,0.116791 -0.230311,0.131161 -0.614235,-0.114818 z"
         id="path1035" />
      <path
         style="fill:#411900;fill-opacity:1;stroke-width:0.10341"
         d="m 40.793138,31.460073 c -0.23343,-0.184462 -0.590513,-1.247039 -0.605559,-1.728727 -0.02368,-0.758048 0.214737,-2.183218 0.651283,-3.00619 0.272707,-0.514104 0.624796,-0.767675 0.919172,-0.61013 0.279407,0.149534 0.231818,0.598591 -0.139795,1.319134 -0.427572,0.829044 -0.521389,1.985752 -0.237192,2.924392 0.136281,0.450106 0.160465,0.692957 0.08926,0.896283 -0.10955,0.312808 -0.421424,0.407332 -0.677167,0.205238 z"
         id="path1033" />
      <path
         style="fill:#411900;fill-opacity:1;stroke-width:0.10341"
         d="m 34.937725,33.938013 c -0.2748,-0.339362 -0.851344,-1.601762 -0.851344,-1.864101 0,-0.772796 0.562044,-0.952597 0.961264,-0.307512 0.619749,1.00143 0.798829,1.7694 0.497318,2.132699 -0.166122,0.200165 -0.461345,0.219084 -0.607238,0.03891 z"
         id="path1031" />
      <path
         style="fill:#411900;fill-opacity:1;stroke-width:0.10341"
         d="m 52.648502,35.633938 c -0.52193,-0.320558 -1.190112,-1.13171 -1.529281,-1.856497 -0.510685,-1.091306 -0.499769,-2.295418 0.02079,-2.295418 0.253566,0 0.375356,0.162733 0.582354,0.778111 0.346633,1.030503 0.707478,1.623238 1.312297,2.155619 0.483174,0.425309 0.596217,0.585152 0.596217,0.843062 0,0.573691 -0.406417,0.728879 -0.982396,0.375123 z"
         id="path1029" />
      <path
         style="fill:#411900;fill-opacity:1;stroke-width:0.10341"
         d="m 45.910993,39.562101 c -1.043394,-0.755832 -1.655904,-1.822508 -2.203973,-3.838184 -0.34261,-1.260042 -0.248115,-2.288936 0.223979,-2.438773 0.296298,-0.09404 0.496395,0.140385 0.496395,0.581556 0,0.827299 0.58363,2.702832 1.128372,3.626103 0.120231,0.203775 0.443768,0.560363 0.718971,0.792417 0.601736,0.507394 0.819794,0.949121 0.651193,1.319158 -0.155973,0.342326 -0.504021,0.327828 -1.014937,-0.04228 z"
         id="path1027" />
    </g>
  </g>
</svg>
