<?xml version="1.0" encoding="UTF-8" standalone="no"?>
<svg
   xmlns:dc="http://purl.org/dc/elements/1.1/"
   xmlns:cc="http://creativecommons.org/ns#"
   xmlns:rdf="http://www.w3.org/1999/02/22-rdf-syntax-ns#"
   xmlns:svg="http://www.w3.org/2000/svg"
   xmlns="http://www.w3.org/2000/svg"
   xmlns:sodipodi="http://sodipodi.sourceforge.net/DTD/sodipodi-0.dtd"
   xmlns:inkscape="http://www.inkscape.org/namespaces/inkscape"
   sodipodi:docname="multimedia-volume-control-symbolic.symbolic.svg"
   inkscape:version="1.0.2 (e86c870879, 2021-01-15)"
   id="svg8"
   version="1.1"
   viewBox="0 0 4.2333332 4.2333332"
   height="16"
   width="16">
  <defs
     id="defs2" />
  <sodipodi:namedview
     inkscape:window-maximized="1"
     inkscape:window-y="27"
     inkscape:window-x="1920"
     inkscape:window-height="1016"
     inkscape:window-width="1920"
     units="px"
     showgrid="false"
     inkscape:document-rotation="0"
     inkscape:current-layer="g1939"
     inkscape:document-units="px"
     inkscape:cy="8.0577463"
     inkscape:cx="7.4323784"
     inkscape:zoom="28.963094"
     inkscape:pageshadow="2"
     inkscape:pageopacity="0.0"
     borderopacity="1.0"
     bordercolor="#666666"
     pagecolor="#ffffff"
     id="base" />
  <metadata
     id="metadata5">
    <rdf:RDF>
      <cc:Work
         rdf:about="">
        <dc:format>image/svg+xml</dc:format>
        <dc:type
           rdf:resource="http://purl.org/dc/dcmitype/StillImage" />
        <dc:title />
      </cc:Work>
    </rdf:RDF>
  </metadata>
  <g
     id="g1043"
     transform="translate(75.382088,-6.1796408)" />
  <g
     inkscape:groupmode="layer"
     id="g1939"
     inkscape:label="Icon"
     style="display:inline">
    <path
       d="m 2.6780361,1.1935911 c -0.02342,-0.00161 -0.050895,4.028e-4 -0.083331,0.00315 L 1.1300429,1.4253078 C 0.96479958,1.4421322 0.94683081,1.5192662 0.94829987,1.6153825 v 1.9340899 c -0.0839865,-0.055173 -0.17386755,-0.094441 -0.29364335,-0.094441 -0.15422955,0 -0.24630444,0.05912 -0.30197343,0.1369027 -0.0556722,0.077783 -0.0742091,0.1757916 -0.0742091,0.2515864 0,0.091393 0.0315142,0.1887609 0.099207,0.2630867 0.0676897,0.074324 0.17178352,0.1265838 0.32141727,0.1265862 0.16897537,0 0.28756857,-0.047132 0.35475756,-0.1392842 0.052908,-0.072551 0.082416,-0.1697171 0.092855,-0.2892755 0.00146,-0.014506 0.00223,-0.029487 0.00315,-0.044838 8.436e-4,-0.012172 6.044e-4,-0.020687 8.436e-4,-0.034924 h 8.436e-4 V 2.1598232 C 1.1560009,2.0339827 1.2701912,2.0153805 1.2701912,2.0153805 L 2.4594544,1.8296696 c 0.1141679,-0.034901 0.1142839,0.1063462 0.1142839,0.1063462 v 1.410294 c -0.083987,-0.055173 -0.1738676,-0.094442 -0.2936434,-0.094444 -0.1542294,0 -0.2463044,0.05912 -0.3019735,0.1369028 -0.055672,0.077783 -0.074209,0.1757942 -0.074209,0.2515874 0,0.091392 0.031515,0.1887602 0.099207,0.2630868 0.06769,0.074332 0.1717835,0.1265814 0.3214173,0.1265838 0.1689753,0 0.2875685,-0.047133 0.3547576,-0.1392826 0.052907,-0.072551 0.082416,-0.1697185 0.092855,-0.2892748 0.00146,-0.014506 0.00223,-0.029487 0.00315,-0.044845 8.437e-4,-0.012172 6.296e-4,-0.020687 8.437e-4,-0.034916 h 8.436e-4 V 1.3745931 C 2.7793665,1.2352906 2.7484376,1.1986076 2.6781739,1.1936449 Z"
       color="#000000"
       color-rendering="auto"
       dominant-baseline="auto"
       fill="#808080"
       fill-rule="evenodd"
       image-rendering="auto"
       shape-rendering="auto"
       solid-color="#000000"
       style="font-variant-ligatures:normal;font-variant-position:normal;font-variant-caps:normal;font-variant-numeric:normal;font-variant-alternates:normal;font-feature-settings:normal;text-indent:0;text-decoration:none;text-decoration-line:none;text-decoration-style:solid;text-decoration-color:#000000;text-transform:none;text-orientation:mixed;white-space:normal;shape-padding:0;isolation:auto;mix-blend-mode:normal;fill:#000000;stroke-width:0.20317"
       id="path870" />
    <path
       style="font-variant-ligatures:normal;font-variant-position:normal;font-variant-caps:normal;font-variant-numeric:normal;font-variant-alternates:normal;font-feature-settings:normal;text-indent:0;text-decoration:none;text-decoration-line:none;text-decoration-style:solid;text-decoration-color:#000000;text-transform:none;text-orientation:mixed;white-space:normal;shape-padding:0;isolation:auto;mix-blend-mode:normal;fill:#000000;stroke-width:0.20317"
       d="M 3.8175053,5.1406125e-4 C 3.8036545,0.00115971 3.7886953,0.00239437 3.7724779,0.00376762 L 2.3077833,0.23228857 C 2.1425399,0.24911302 2.1245777,0.32630273 2.1260467,0.42241905 V 1.1671943 L 2.3293212,1.1354409 V 0.9668481 C 2.3337748,0.84100757 2.447941,0.82239577 2.447941,0.82239577 L 3.6372001,0.63668996 C 3.7513682,0.60178921 3.7514608,0.74301209 3.7514608,0.74301209 V 2.153309 C 3.6674738,2.098136 3.5776466,2.058897 3.4578712,2.058895 c -0.1542295,0 -0.2463145,0.059121 -0.3019837,0.1369041 -0.055672,0.077784 -0.074243,0.175762 -0.074243,0.2515552 0,0.091392 0.031538,0.1887459 0.099229,0.2630726 0.06769,0.074331 0.1718055,0.1266211 0.321439,0.1266234 0.1689754,0 0.287565,-0.047162 0.3547542,-0.1393118 0.052907,-0.072551 0.082414,-0.169674 0.092853,-0.28923 0.00146,-0.014505 0.0022,-0.029539 0.00312,-0.044898 8.429e-4,-0.012172 6.33e-4,-0.020647 8.462e-4,-0.034877 H 3.954732 V 0.18160001 C 3.9571127,0.0422975 3.9261579,0.00560704 3.8558946,6.4422346e-4 L 3.8557613,5.775932e-4 c -0.011711,-8.0655924e-4 -0.024409,-7.1061168e-4 -0.038261,-6.663025e-5 z"
       id="path884" />
  </g>
</svg>
