<?xml version="1.0" encoding="UTF-8" standalone="no"?>
<svg
   xmlns:dc="http://purl.org/dc/elements/1.1/"
   xmlns:cc="http://creativecommons.org/ns#"
   xmlns:rdf="http://www.w3.org/1999/02/22-rdf-syntax-ns#"
   xmlns:svg="http://www.w3.org/2000/svg"
   xmlns="http://www.w3.org/2000/svg"
   xmlns:sodipodi="http://sodipodi.sourceforge.net/DTD/sodipodi-0.dtd"
   xmlns:inkscape="http://www.inkscape.org/namespaces/inkscape"
   sodipodi:docname="nvidia-settings.svg"
   inkscape:version="1.0 (4035a4fb49, 2020-05-01)"
   id="svg8"
   version="1.1"
   viewBox="0 0 67.733332 67.733335"
   height="256"
   width="256">
  <defs
     id="defs2" />
  <sodipodi:namedview
     inkscape:window-maximized="1"
     inkscape:window-y="27"
     inkscape:window-x="2004"
     inkscape:window-height="1016"
     inkscape:window-width="1836"
     units="px"
     showgrid="false"
     inkscape:document-rotation="0"
     inkscape:current-layer="g1156"
     inkscape:document-units="px"
     inkscape:cy="119.56632"
     inkscape:cx="133.9144"
     inkscape:zoom="2"
     inkscape:pageshadow="2"
     inkscape:pageopacity="0.0"
     borderopacity="1.0"
     bordercolor="#666666"
     pagecolor="#ffffff"
     id="base" />
  <metadata
     id="metadata5">
    <rdf:RDF>
      <cc:Work
         rdf:about="">
        <dc:format>image/svg+xml</dc:format>
        <dc:type
           rdf:resource="http://purl.org/dc/dcmitype/StillImage" />
        <dc:title></dc:title>
      </cc:Work>
    </rdf:RDF>
  </metadata>
  <g
     inkscape:label="Large Content copy"
     id="g1156"
     inkscape:groupmode="layer"
     style="display:inline">
    <g
       inkscape:label="Backdrop Shadow"
       id="layer10"
       inkscape:groupmode="layer">
      <path
         id="path1186"
         style="display:inline;fill:#1a1a1a;fill-opacity:1;stroke-width:0.0259071;stroke-miterlimit:4;stroke-dasharray:none;paint-order:stroke fill markers"
         d="m 2.778125,35.454168 v 25.851135 c 0,2.90141 2.3359972,5.237406 5.2374063,5.237406 H 59.717802 c 2.90141,0 5.237406,-2.335996 5.237406,-5.237406 V 35.454168 Z" />
    </g>
    <g
       style="display:inline"
       inkscape:label="Backdrop Top"
       id="g1174"
       inkscape:groupmode="layer">
      <path
         d="m 2.778125,33.866667 v 25.851135 c 0,2.90141 2.3359972,5.237406 5.2374063,5.237406 H 59.717802 c 2.90141,0 5.237406,-2.335996 5.237406,-5.237406 V 33.866667 Z"
         style="display:inline;fill:#404040;fill-opacity:1;stroke-width:0.0259071;stroke-miterlimit:4;stroke-dasharray:none;paint-order:stroke fill markers"
         id="rect1168" />
      <path
         d="m 8.0155313,2.778125 c -2.9014091,0 -5.2374063,2.335997 -5.2374063,5.237406 V 33.866666 H 64.955208 V 8.015531 c 0,-2.901409 -2.335996,-5.237406 -5.237406,-5.237406 z"
         style="display:inline;fill:#323232;fill-opacity:1;stroke-width:0.0259071;stroke-miterlimit:4;stroke-dasharray:none;paint-order:stroke fill markers"
         id="rect1172" />
    </g>
    <g
       style="display:inline"
       inkscape:label="Shadow"
       id="g1150"
       inkscape:groupmode="layer">
      <path
         d="m 29.026308,17.082879 c -0.983505,3.35e-4 -1.775034,0.789171 -1.781725,1.771107 v 0.25176 c 0.0083,-4.01e-4 0.01563,-8.1e-4 0.02357,-0.0016 0.181901,-0.0238 0.369536,-0.02481 0.554797,-0.02882 0.280399,-0.0097 0.561661,-0.01432 0.843111,-0.01185 l -0.0015,5.9e-4 c 0.402428,0.0037 0.805681,0.02412 1.209235,0.0514 0.01989,9.66e-4 0.04092,0.0014 0.06069,0.0026 0.08667,0.0063 0.172817,0.01513 0.259419,0.02246 0.157998,0.01336 0.31605,0.02518 0.474025,0.04173 0.24769,0.02633 0.494415,0.05669 0.741112,0.0908 0.0069,9.13e-4 0.01408,0.0021 0.02064,0.0031 0.136357,0.01874 0.27179,0.04187 0.407998,0.06315 0.147384,0.02282 0.294639,0.04596 0.441607,0.07187 0.149245,0.02651 0.29915,0.05433 0.448078,0.08302 0.126801,0.02473 0.253289,0.05002 0.379696,0.07672 0.150551,0.03157 0.300959,0.06329 0.451032,0.09722 0.166228,0.03766 0.331532,0.07893 0.49702,0.119686 0.107036,0.02679 0.213984,0.05072 0.320736,0.07848 9.1e-4,2.46e-4 0.0024,3.26e-4 0.0031,5.87e-4 0.274278,0.07103 0.546886,0.146472 0.81893,0.225228 0.0556,0.01611 0.111318,0.03352 0.16685,0.05011 0.153722,0.04551 0.307544,0.08995 0.460468,0.137373 0.088,0.02807 0.174773,0.05822 0.262372,0.08661 0.07808,0.02551 0.156189,0.0518 0.234058,0.07782 0.143453,0.04828 0.286438,0.09772 0.429219,0.148004 0.563167,0.196463 1.118871,0.407163 1.665579,0.63084 0.06575,0.0272 0.131332,0.05356 0.196925,0.08088 0.163817,0.06798 0.32674,0.137194 0.488764,0.207532 0.10376,0.04502 0.206869,0.09049 0.310124,0.136195 0.138602,0.06182 0.277316,0.123213 0.414481,0.186312 0.224745,0.103389 0.448927,0.208838 0.671531,0.316603 0.0097,0.0054 0.022,0.0093 0.03298,0.01527 0.08695,0.04239 0.171347,0.08627 0.257653,0.129115 0.152384,0.07563 0.304424,0.151205 0.455746,0.228763 0.133725,0.06825 0.266034,0.137392 0.397973,0.206943 0.09863,0.05199 0.197535,0.104284 0.295965,0.157413 0.166138,0.08974 0.330473,0.179764 0.493489,0.27062 0.0087,0.0048 0.0176,0.0097 0.02661,0.01461 0.01456,0.0083 0.0289,0.01644 0.04353,0.02482 0.152627,0.08566 0.306667,0.17049 0.456336,0.25706 2.24824,1.300605 4.161397,2.712329 5.529143,3.97556 0.68386,0.631631 1.229768,1.225795 1.615458,1.749892 0.135063,0.183537 0.242925,0.354882 0.33724,0.52001 0.07257,0.126778 0.131558,0.247457 0.178658,0.362007 0.0021,0.0054 0.0046,0.0099 0.0067,0.01584 0.06298,0.156308 0.109845,0.304483 0.122632,0.435119 v 0.0021 c -0.0026,0.179681 -0.134152,0.509389 -0.390309,0.956887 -0.256163,0.447472 -0.636977,1.011156 -1.142028,1.64789 -1.010109,1.273525 -2.513929,2.839456 -4.495589,4.359384 -1.07129,0.821675 -2.286755,1.626547 -3.6348,2.366589 -0.01316,0.0073 -0.02577,0.01537 -0.03841,0.02246 -0.04145,0.02256 -0.08334,0.04363 -0.124989,0.0661 -0.196097,0.106037 -0.391939,0.211941 -0.593719,0.314832 -0.252285,0.128993 -0.506788,0.25399 -0.762926,0.374977 -0.0021,9.12e-4 -0.0032,0.0018 -0.0052,0.0026 -0.136429,0.06433 -0.277405,0.125863 -0.416245,0.188673 -0.160501,0.07265 -0.321025,0.14461 -0.482869,0.214012 -0.165087,0.07088 -0.332237,0.140231 -0.500557,0.208716 -0.110966,0.04519 -0.222121,0.08874 -0.333709,0.132072 -0.438398,0.171806 -0.886124,0.336023 -1.346022,0.489346 -0.231727,0.07728 -0.467988,0.150184 -0.705143,0.222273 -0.0618,0.01855 -0.123318,0.03688 -0.18513,0.05529 -1.239153,0.367265 -2.547016,0.664481 -3.931362,0.864337 -0.01725,0.0026 -0.03522,0.0052 -0.05255,0.0077 -0.235612,0.03333 -0.473032,0.06488 -0.712812,0.09322 -0.04069,0.0047 -0.08047,0.0096 -0.120862,0.01463 -0.208404,0.02322 -0.418757,0.04477 -0.630272,0.06367 -0.179354,0.0163 -0.359215,0.02988 -0.538875,0.04298 -0.104233,0.0075 -0.208097,0.01568 -0.313075,0.0219 -0.155146,0.0095 -0.309912,0.01622 -0.465185,0.02298 -0.09845,0.0044 -0.197807,0.0085 -0.297148,0.01187 -0.06872,0.0024 -0.1379,0.0069 -0.206944,0.0088 -0.353565,-0.0026 -0.729449,0.05555 -1.069511,0.01305 -2.13e-4,-0.0013 2.37e-4,-0.0034 0,-0.0047 -0.0024,-1.5e-5 -0.0053,-5e-6 -0.0078,0 v 3.835235 c 0.901528,-0.0073 1.803066,-0.0095 2.704429,-0.02542 2.334482,-0.02906 4.680519,-0.1869 6.94945,-0.759393 2.685481,-0.661999 5.171377,-1.94134 7.489515,-3.421935 3.167918,-2.031493 6.119596,-4.377988 9.049556,-6.733646 0.04829,-0.03009 0.09369,-0.06805 0.138554,-0.107949 0.06515,-0.05779 0.13151,-0.113207 0.201636,-0.160937 0.0069,-0.0056 0.01299,-0.0098 0.01939,-0.01586 0.0055,-0.0041 0.01332,-0.0056 0.01882,-0.0093 0.06412,-0.03715 0.132284,-0.06586 0.212845,-0.06426 v 10e-4 c 0.159809,-0.0013 0.315274,0.03739 0.468135,0.08306 0.0161,0.0047 0.03176,0.0084 0.04833,0.01356 0.02972,0.0093 0.06065,0.01716 0.09027,0.02713 0.02765,0.0096 0.05393,0.02119 0.08139,0.03181 0.02416,0.0088 0.05003,0.02034 0.0749,0.03 0.1287,0.05068 0.255849,0.104717 0.381463,0.162131 0.01329,0.0061 0.025,0.0098 0.03782,0.01586 0.0073,0.0034 0.01456,0.0076 0.02189,0.0098 0.344872,0.160707 0.678413,0.345892 1.00583,0.54124 0.06809,0.04068 0.137264,0.08267 0.206357,0.124989 0.117241,0.0724 0.234947,0.14326 0.350801,0.217557 0.08283,0.05274 0.166092,0.107626 0.249393,0.162136 0.100969,0.06612 0.203063,0.131078 0.303641,0.197518 0.03071,0.02097 0.06121,0.04381 0.09205,0.06496 0.0028,0.0021 0.0054,0.0037 0.0083,0.0057 0.123873,0.08556 0.246464,0.172709 0.369676,0.26001 0.06702,0.04766 0.135728,0.09475 0.201639,0.142675 0.641946,0.46264 1.264441,0.953593 1.822993,1.513461 0.01689,0.01694 0.0345,0.03456 0.05073,0.05136 0.03771,0.03842 0.0767,0.07653 0.113783,0.11556 0.04594,0.05657 0.0956,0.114427 0.144446,0.173921 0.0011,0.0011 0.0029,0.0026 0.0036,0.0036 0.0033,0.004 0.006,0.0078 0.0093,0.01188 0.04049,0.04972 0.07673,0.101931 0.109634,0.155654 0.02387,0.03777 0.04397,0.07486 0.05949,0.108508 0.005,0.01185 0.0096,0.02303 0.01408,0.03481 0.0096,0.02696 0.01751,0.05194 0.02123,0.07613 0.0057,0.02699 0.0099,0.05391 0.01251,0.08191 -0.0054,0.02325 -0.014,0.0454 -0.02072,0.06783 -0.02431,0.09924 -0.07701,0.205149 -0.158007,0.317207 -5.93e-4,9.11e-4 -10e-4,0.0018 -0.0016,0.0026 -0.02901,0.04103 -0.06026,0.08026 -0.09322,0.1185 l -0.0047,0.0041 c -0.05316,0.06169 -0.115904,0.12588 -0.183952,0.191026 -0.0097,0.0096 -0.02059,0.01975 -0.03127,0.02942 -0.03396,0.03184 -0.07029,0.0636 -0.107944,0.09599 -0.02778,0.02474 -0.05521,0.05071 -0.08243,0.07495 -0.06307,0.05058 -0.127913,0.09719 -0.192204,0.1462 -0.03374,0.02627 -0.06041,0.05016 -0.09599,0.07672 -0.01584,0.01183 -0.03632,0.02405 -0.05256,0.03544 -0.533255,0.388636 -1.105853,0.718861 -1.690349,1.027067 -0.0066,0.0035 -0.01191,0.0066 -0.01824,0.0093 -0.0056,0.003 -0.0097,0.0058 -0.01643,0.0088 -0.372434,0.195585 -0.747826,0.385372 -1.124341,0.569538 -0.130763,0.06186 -0.263737,0.119835 -0.395024,0.180418 -0.07039,0.03269 -0.144455,0.06573 -0.216388,0.0984 -0.230332,0.105023 -0.46037,0.209616 -0.692164,0.311307 -0.07546,0.03287 -0.154572,0.06683 -0.231106,0.09963 -2.471214,1.070747 -5.017319,1.964071 -7.588567,2.762199 -0.888681,0.271356 -1.782791,0.527025 -2.679084,0.774125 -0.07157,0.01959 -0.14232,0.03955 -0.214016,0.05893 -2.232507,0.609927 -4.487464,1.136696 -6.762549,1.557084 -0.04261,0.0079 -0.08464,0.01573 -0.127353,0.02364 -0.423012,0.07737 -0.846806,0.151979 -1.271146,0.221682 -0.09234,0.01513 -0.183318,0.02869 -0.275339,0.04353 -0.94358,0.151092 -1.890228,0.28852 -2.840037,0.398558 -1.150699,0.137085 -2.306538,0.219864 -3.464411,0.262367 -0.130064,0.0051 -0.259452,0.0091 -0.388529,0.01305 -0.309131,0.0087 -0.618156,0.01383 -0.927422,0.01584 -0.08672,2.51e-4 -0.173759,9.05e-4 -0.26,5.92e-4 -0.23212,2.56e-4 -0.463649,0.0047 -0.695721,0.0016 -0.07332,-0.0099 -0.155342,-0.0046 -0.234649,-0.0041 v 0.2777 c 0.02611,0.96493 0.809121,1.734562 1.780543,1.734562 h 31.590087 c 0.987955,0 1.782909,-0.795533 1.782909,-1.783501 V 18.865347 c 0,-0.984378 -0.789315,-1.77716 -1.772296,-1.782902 l -31.600138,-4.39e-4 z m -1.890221,2.025222 c -0.235671,0.01687 -0.471168,0.039 -0.705729,0.06367 -0.227519,0.02413 -0.453958,0.05198 -0.680378,0.08302 -0.131544,0.01772 -0.263559,0.03678 -0.396207,0.05776 -0.108305,0.01673 -0.216265,0.03535 -0.324271,0.05374 -0.2085,0.03544 -0.417811,0.07387 -0.628504,0.115565 -0.163836,0.03228 -0.327295,0.06545 -0.490526,0.10073 -0.08895,0.01938 -0.177519,0.03897 -0.266494,0.05949 -0.138452,0.03168 -0.275915,0.06679 -0.413895,0.100147 -0.238234,0.059 -0.476628,0.120735 -0.716345,0.186308 -0.147629,0.04069 -0.295739,0.0808 -0.442781,0.123221 -0.275869,0.07997 -0.552208,0.164492 -0.828957,0.252346 -0.06961,0.0221 -0.140737,0.04242 -0.210485,0.06497 -2.773981,0.899464 -5.564724,2.178049 -8.007754,3.520412 -2.168444,1.191511 -4.061813,2.433255 -5.4277305,3.503302 -0.6829541,0.535069 -1.2331423,1.028098 -1.6201784,1.450363 -0.3870349,0.422359 -0.6118398,0.772393 -0.6385223,1.032977 v 0.0021 c -8.909e-4,0.01931 7.293e-4,0.04129 5.896e-4,0.06136 -0.0064,0.07222 -0.00181,0.145154 0.011241,0.219326 0.022782,0.219858 0.085594,0.478675 0.1745174,0.760566 0.020379,0.06712 0.042252,0.13353 0.064855,0.19987 0.018012,0.05118 0.034892,0.100572 0.05483,0.153872 0.123313,0.335177 0.2711612,0.662907 0.4315769,0.984008 0.1513112,0.30969 0.3226748,0.635248 0.5158889,0.977537 0.2396405,0.424548 0.5059582,0.868984 0.8041933,1.334226 1.3250988,2.067186 3.2013061,4.483531 5.3705421,6.777257 3.996846,4.226171 8.982632,8.036966 13.333484,8.491185 0.100482,0.0097 0.201808,0.02051 0.301869,0.02765 0.03245,0.0026 0.06471,0.0065 0.09721,0.0088 0.197748,0.002 0.401855,0.02548 0.597841,0.0083 0.03454,-5.4e-4 0.06954,5.19e-4 0.104366,-5.85e-4 h 0.0026 v -2.787251 c -0.02587,-0.0063 -0.05081,-0.01338 -0.0767,-0.01943 -0.131313,-0.06461 -0.311369,-0.06807 -0.448677,-0.12558 -2.255215,-0.63793 -4.352167,-1.733206 -6.275546,-3.072326 -0.312499,-0.217561 -0.620667,-0.442067 -0.923884,-0.671534 -0.01273,-0.0095 -0.02561,-0.0185 -0.03782,-0.02818 -0.282871,-0.21484 -0.560736,-0.435599 -0.835442,-0.65916 -0.02907,-0.02388 -0.05896,-0.04629 -0.08779,-0.07009 -2.00614,-1.678277 -3.837832,-3.56538 -5.479001,-5.602194 -1.356799,-1.718281 -2.638086,-3.521022 -3.5970624,-5.49375 -0.069786,-0.169326 -0.1516642,-0.339024 -0.2181581,-0.512924 -0.012961,-0.03502 -0.021224,-0.06433 -0.03238,-0.09721 -0.056604,-0.167264 -0.096956,-0.338442 -0.0891,-0.517658 0.04923,-0.155622 0.1227163,-0.299003 0.2093036,-0.435705 0.05005,-0.07565 0.1020109,-0.151125 0.1591874,-0.227575 5.67e-4,-8.59e-4 7.32e-4,-0.0011 10e-4,-0.0021 0.1560724,-0.202044 0.3343412,-0.3912 0.498197,-0.580741 1.3177405,-1.354994 2.9451265,-2.360636 4.5857965,-3.280446 0.75932,-0.413187 1.530989,-0.80318 2.313537,-1.170317 0.03445,-0.01609 0.06878,-0.03234 0.103778,-0.04843 0.333774,-0.15553 0.669997,-0.305228 1.00761,-0.452199 0.14376,-0.06241 0.28901,-0.123486 0.433937,-0.184549 0.265361,-0.1121 0.530766,-0.22335 0.798295,-0.330156 0.17635,-0.07045 0.354419,-0.137539 0.531807,-0.205776 0.271412,-0.104253 0.541953,-0.209607 0.815396,-0.308345 0.01428,-0.0052 0.02865,-0.0096 0.04297,-0.01461 1.2287,-0.442308 2.477578,-0.829069 3.740912,-1.157362 0.892167,-0.23398 1.796744,-0.4067 2.703849,-0.570722 0.05143,-0.008 0.103975,-0.01634 0.155647,-0.02482 v -2.117513 c -0.02175,-0.005 -0.04508,-0.0089 -0.06671,-0.0057 z m 0.109066,2.123686 -5.82e-4,0.0021 v 4.260336 c 4.084763,0.113766 8.407462,0.859062 11.443856,4.392991 v 0.0021 c 0.07465,0.118671 0.06393,0.283783 -0.0093,0.48051 -0.07383,0.196693 -0.209484,0.42611 -0.390307,0.673314 -0.361612,0.494417 -0.902081,1.061818 -1.478677,1.581851 -0.576622,0.520062 -1.191307,0.993341 -1.698598,1.297671 -0.253649,0.152165 -0.479011,0.261303 -0.663281,0.314246 -0.09238,0.0268 -0.174765,0.03962 -0.244093,0.03479 -0.06898,-0.0046 -0.12766,-0.02799 -0.16862,-0.07009 l -0.0021,-0.0036 C 32.966423,32.117944 32.023611,30.450492 30.958643,29.293279 29.915736,28.1601 28.755621,27.517853 27.244832,27.450244 v 13.447802 c 0.003,-4.3e-5 0.0057,0 0.0088,0 0.0099,-0.0054 0.01996,-0.01219 0.03479,-0.01462 2.234979,-0.01176 4.491214,-0.209893 6.632263,-0.882023 1.786325,-0.542047 3.44349,-1.446398 4.902404,-2.603003 h 5.89e-4 c 9.03e-4,-6.1e-4 0.0015,-0.0018 0.0026,-0.0026 0.19691,-0.156191 0.388298,-0.319482 0.577787,-0.484638 0.07991,-0.06924 0.158802,-0.139865 0.237602,-0.211071 0.194354,-0.176082 0.387375,-0.353869 0.573088,-0.538877 0.546749,-0.538101 1.063708,-1.103095 1.564168,-1.683264 0.10922,-0.126957 0.218325,-0.25308 0.327211,-0.383228 0.121061,-0.144349 0.241164,-0.290252 0.36024,-0.436287 0.13726,-0.16864 0.275276,-0.339452 0.412717,-0.512943 0.264604,-0.333888 0.525623,-0.670792 0.783563,-1.009961 0.0093,-0.01221 0.01817,-0.02338 0.02765,-0.03545 6.09e-4,-8.97e-4 0.0015,-0.0015 0.0021,-0.0026 0.359213,-0.472897 0.713676,-0.949204 1.066559,-1.425608 -0.02712,-0.06949 -0.0614,-0.136926 -0.09963,-0.203401 -0.0915,-0.13673 -0.182338,-0.27438 -0.275346,-0.407405 -0.02307,-0.03191 -0.04623,-0.06413 -0.06835,-0.09599 -0.08952,-0.126255 -0.179959,-0.2491 -0.270618,-0.372031 -0.04221,-0.05741 -0.08266,-0.115338 -0.125582,-0.172158 -0.138835,-0.184578 -0.280128,-0.365401 -0.422146,-0.54241 -0.0026,-0.0031 -0.0036,-0.0063 -0.0062,-0.0093 -0.01359,-0.01654 -0.02781,-0.03237 -0.04121,-0.04901 -0.115901,-0.14342 -0.232847,-0.284245 -0.350808,-0.422735 -0.07005,-0.08206 -0.141333,-0.163537 -0.212833,-0.244679 -0.05936,-0.0674 -0.118868,-0.134198 -0.17866,-0.200458 -0.100931,-0.111673 -0.20353,-0.222499 -0.307154,-0.331934 -0.02341,-0.02513 -0.0467,-0.04986 -0.07011,-0.07485 -0.929059,-0.971429 -1.955405,-1.849646 -3.064088,-2.607759 -0.03123,-0.02106 -0.06182,-0.04273 -0.09322,-0.06368 -0.118227,-0.08 -0.238391,-0.157661 -0.358477,-0.234657 -0.05388,-0.03446 -0.107452,-0.06945 -0.16154,-0.103789 -0.118805,-0.07461 -0.239115,-0.146517 -0.359651,-0.218141 -0.05063,-0.03015 -0.100937,-0.06112 -0.152113,-0.0908 -0.156327,-0.09088 -0.313726,-0.179875 -0.472847,-0.265904 -0.174687,-0.0946 -0.351465,-0.185603 -0.529442,-0.27416 -2.576943,-1.307363 -5.415163,-2.00161 -8.277793,-2.314108 -0.396108,-0.04328 -0.793389,-0.07873 -1.189779,-0.107944 -0.08313,-0.0061 -0.165832,-0.01295 -0.2494,-0.01824 -0.06148,3.82e-4 -0.120975,-0.0035 -0.176876,-0.01252 z m -0.426263,4.252069 c -1.910119,0.03273 -4.611791,0.861346 -6.911131,1.990434 -1.22635,0.602151 -2.336388,1.288841 -3.151928,1.987487 -0.815558,0.698621 -1.336914,1.409219 -1.376096,2.059999 v 0.0026 c 0.03209,0.764571 0.461852,1.865237 1.170917,3.092358 0.709034,1.227115 1.698155,2.579021 2.852421,3.838783 2.256353,2.462504 5.141134,4.570087 7.799631,4.707235 v -2.267487 c -2.025162,-0.662238 -3.833485,-2.41169 -5.183047,-4.282739 -1.385781,-1.921276 -2.287772,-3.965922 -2.446197,-5.075717 0.05227,-0.695189 0.819971,-1.735486 2.143734,-2.594168 1.323748,-0.858713 3.201324,-1.536972 5.463104,-1.519944 h 0.01641 l 0.0062,-1.11963 v -0.814773 h -0.01303 c -0.119947,-0.0051 -0.243504,-0.0064 -0.370847,-0.0041 z m 23.895317,5.031513 c 5.2e-5,0.0016 -4.1e-5,0.0035 0,0.0052 0,-9.03e-4 5.99e-4,-0.0018 5.99e-4,-0.0026 0,-9.09e-4 -5.99e-4,-0.0015 -5.99e-4,-0.0026 z m -35.296744,0.97281 c -0.0012,0.02085 -0.0016,0.04215 -0.0021,0.06314 -4.8e-4,-0.0094 -0.0027,-0.0199 -0.0031,-0.02942 6.42e-4,-0.0098 0.0042,-0.02247 0.0052,-0.03351 z m 11.830051,11.768668 v 0.0062 h 0.001 c -3.01e-4,-0.0024 -8.86e-4,-0.0039 -0.001,-0.0062 z"
         style="display:inline;fill:#1a1a1a;stroke-width:0;paint-order:stroke fill markers"
         id="path1148" />
    </g>
    <g
       style="display:inline"
       inkscape:label="Logo"
       id="g1154"
       inkscape:groupmode="layer">
      <path
         id="path1152"
         style="fill:#00ff00;stroke-width:0;paint-order:stroke fill markers"
         d="m 29.026116,15.875258 c -0.983506,3.5e-4 -1.774954,0.789213 -1.781647,1.771154 v 0.251747 c 0.0083,-3.76e-4 0.01568,-7.48e-4 0.0236,-0.0016 0.181903,-0.02379 0.369642,-0.02479 0.554898,-0.02882 0.280405,-0.0097 0.561385,-0.01401 0.842837,-0.01157 l -0.0016,5.35e-4 c 0.402425,0.0037 0.805886,0.02422 1.209444,0.05144 0.01987,9.6e-4 0.04103,0.0014 0.06083,0.0026 0.08667,0.0063 0.17248,0.01475 0.259086,0.02204 0.157999,0.01336 0.316152,0.02539 0.474132,0.04194 0.247692,0.02633 0.494391,0.05668 0.741087,0.09074 0.0069,9.14e-4 0.01438,0.0021 0.02094,0.0031 0.136341,0.01873 0.271835,0.04218 0.408042,0.06346 0.147377,0.02282 0.29465,0.04589 0.441614,0.07185 0.149248,0.02651 0.298973,0.0541 0.447897,0.08285 0.126802,0.02471 0.253312,0.04991 0.379722,0.07658 0.150552,0.03157 0.300979,0.0636 0.45105,0.09752 0.166226,0.03765 0.331183,0.0788 0.496679,0.119578 0.107039,0.02679 0.214235,0.05039 0.320978,0.07816 8.1e-4,2.3e-4 0.0024,7.75e-4 0.0031,0.001 0.274279,0.07098 0.546662,0.146248 0.818708,0.225005 0.0556,0.01611 0.111772,0.03371 0.167309,0.05035 0.153724,0.04551 0.307558,0.08999 0.46049,0.137412 0.08803,0.02807 0.174646,0.05808 0.262242,0.08653 0.07809,0.02552 0.156045,0.05159 0.233918,0.07762 0.143451,0.0482 0.286233,0.09763 0.429017,0.147899 0.563171,0.196466 1.119026,0.407262 1.665737,0.630945 0.06577,0.0272 0.131602,0.05346 0.197202,0.08078 0.163812,0.06798 0.326778,0.137364 0.488817,0.207689 0.103774,0.04501 0.206705,0.09065 0.309958,0.136366 0.138601,0.06182 0.277167,0.123081 0.414339,0.186185 0.224747,0.103392 0.448727,0.209015 0.671333,0.316784 0.0097,0.0054 0.02201,0.0092 0.03302,0.01519 0.08698,0.04238 0.171746,0.08617 0.258046,0.129017 0.152391,0.0756 0.304444,0.151118 0.455768,0.228675 0.133726,0.06825 0.265613,0.137622 0.397551,0.207168 0.09866,0.05202 0.197898,0.104218 0.296329,0.157344 0.166141,0.08974 0.330521,0.17976 0.493534,0.270629 0.0087,0.0048 0.01725,0.0098 0.02622,0.01467 0.01457,0.0083 0.02885,0.01625 0.04349,0.02469 0.152624,0.08565 0.30715,0.170424 0.456819,0.256988 2.248241,1.300599 4.161288,2.71229 5.529033,3.975531 0.683857,0.631611 1.229689,1.226083 1.615382,1.750174 0.135055,0.183531 0.242924,0.354627 0.337239,0.519759 0.07257,0.126774 0.131744,0.24734 0.17885,0.361888 0.0021,0.0054 0.0046,0.01041 0.0067,0.01621 0.06298,0.1563 0.109415,0.304153 0.122205,0.434783 v 0.0021 c -0.0026,0.179673 -0.134059,0.509675 -0.390212,0.957171 -0.256172,0.447473 -0.636737,1.011155 -1.141787,1.647896 -1.010112,1.273514 -2.514153,2.839517 -4.495813,4.359445 -1.071285,0.821691 -2.28657,1.626394 -3.634617,2.366435 -0.01316,0.0073 -0.02575,0.01552 -0.03832,0.02256 -0.04145,0.02256 -0.08369,0.04362 -0.125352,0.06611 -0.196098,0.106035 -0.391936,0.211778 -0.593712,0.314683 -0.252282,0.12899 -0.506447,0.254017 -0.762587,0.375003 -0.0021,8.09e-4 -0.0032,0.0019 -0.0052,0.0026 -0.136434,0.06432 -0.277595,0.126018 -0.416435,0.188813 -0.160501,0.07266 -0.3212,0.144578 -0.483043,0.213984 -0.165085,0.07085 -0.332024,0.14026 -0.500352,0.208747 -0.110958,0.04519 -0.22198,0.08832 -0.333564,0.131643 -0.438408,0.171814 -0.886428,0.33653 -1.346332,0.489861 -0.23172,0.07729 -0.467738,0.149759 -0.704893,0.221849 -0.06184,0.01855 -0.12333,0.03721 -0.185142,0.05558 -1.239153,0.367259 -2.547129,0.664482 -3.931471,0.864334 -0.0173,0.0026 -0.03517,0.0052 -0.05247,0.0078 -0.235613,0.03334 -0.472985,0.065 -0.712765,0.09338 -0.04069,0.0047 -0.08077,0.0091 -0.121154,0.01414 -0.208396,0.02328 -0.418377,0.04509 -0.629895,0.06399 -0.179355,0.01629 -0.3595,0.0299 -0.539159,0.04298 -0.104229,0.0075 -0.208141,0.01581 -0.313113,0.02203 -0.155159,0.0095 -0.309942,0.01581 -0.465212,0.02256 -0.09843,0.0044 -0.197503,0.0087 -0.296851,0.01208 -0.06872,0.0024 -0.138122,0.0069 -0.20717,0.0088 -0.353566,-0.0026 -0.72935,0.05561 -1.069407,0.01311 -2.21e-4,-0.0013 2.3e-4,-0.0034 0,-0.0047 -0.0024,-1.6e-5 -0.0053,-5e-6 -0.0078,0 v 3.834967 c 0.90153,-0.0073 1.802835,-0.0093 2.704201,-0.02519 2.334472,-0.02903 4.680902,-0.186938 6.949832,-0.759438 2.68547,-0.662012 5.171382,-1.941081 7.489519,-3.421681 3.167918,-2.031497 6.119347,-4.378082 9.049313,-6.733739 0.04825,-0.03012 0.09358,-0.06814 0.138462,-0.108047 0.06516,-0.05776 0.131791,-0.113274 0.201922,-0.161015 0.0069,-0.0056 0.01298,-0.0097 0.01939,-0.01571 0.0055,-0.0041 0.01287,-0.0056 0.01836,-0.0093 0.06412,-0.03716 0.132378,-0.0661 0.212934,-0.06451 v 0.0011 c 0.159815,-0.0013 0.3155,0.0377 0.46836,0.08337 0.0161,0.0047 0.03167,0.0085 0.04825,0.01364 0.0297,0.0093 0.06059,0.01675 0.09022,0.02675 0.02765,0.0096 0.05384,0.02132 0.0813,0.03199 0.02417,0.0088 0.05014,0.0202 0.07499,0.02986 0.128709,0.05067 0.255667,0.104673 0.3813,0.162069 0.0133,0.0061 0.02495,0.01037 0.03778,0.01621 0.0073,0.0034 0.01473,0.0076 0.02203,0.0098 0.344863,0.160704 0.678528,0.345388 1.005938,0.540729 0.06809,0.04068 0.137024,0.08303 0.206124,0.125353 0.117234,0.0724 0.235018,0.143349 0.350874,0.217658 0.08281,0.05274 0.166354,0.107562 0.249655,0.162065 0.100904,0.06606 0.203093,0.130761 0.303668,0.197204 0.03074,0.02107 0.06093,0.04385 0.09179,0.06504 0.0028,0.0021 0.0054,0.0037 0.0083,0.0057 0.123877,0.08557 0.246547,0.172836 0.369749,0.260134 0.06702,0.04762 0.136017,0.09473 0.20193,0.14266 0.641949,0.46265 1.263997,0.953778 1.822552,1.513638 0.01687,0.01699 0.03461,0.03411 0.05088,0.0509 0.03773,0.03836 0.0767,0.07688 0.113814,0.11591 0.04593,0.05655 0.09539,0.114104 0.144231,0.173603 0.0011,0.0011 0.0029,0.0026 0.0036,0.0036 0.0033,0.004 0.006,0.008 0.0093,0.01208 0.04049,0.04972 0.07669,0.102047 0.109611,0.155766 0.02385,0.03771 0.04423,0.07484 0.05978,0.108568 0.005,0.01187 0.0098,0.0228 0.01414,0.03464 0.0096,0.02696 0.01729,0.05192 0.02097,0.07607 0.0057,0.02699 0.01016,0.05381 0.01261,0.08181 -0.0054,0.02325 -0.0138,0.04575 -0.02047,0.06818 -0.02428,0.09919 -0.07739,0.204724 -0.158391,0.316785 -5.42e-4,8e-4 -0.0011,0.0019 -0.0016,0.0026 -0.02901,0.04103 -0.05993,0.08029 -0.09287,0.11853 l -0.0052,0.0041 c -0.05317,0.06175 -0.115515,0.126309 -0.183561,0.191439 -0.0097,0.0096 -0.02084,0.01953 -0.03147,0.02934 -0.03394,0.03184 -0.07038,0.06358 -0.108038,0.09597 -0.02778,0.02474 -0.05511,0.05027 -0.08234,0.07448 -0.06306,0.05054 -0.127663,0.09733 -0.191955,0.146327 -0.03376,0.02628 -0.06039,0.05005 -0.09597,0.07658 -0.01584,0.01184 -0.03624,0.02426 -0.05248,0.03568 -0.533255,0.388623 -1.105891,0.718719 -1.690389,1.026919 -0.0066,0.0035 -0.012,0.0066 -0.01836,0.0093 -0.0056,0.003 -0.01022,0.0058 -0.01675,0.0088 -0.372428,0.195592 -0.747438,0.385404 -1.123951,0.569582 -0.130765,0.0618 -0.263638,0.119847 -0.394928,0.180422 -0.07039,0.03271 -0.144683,0.06591 -0.216611,0.09858 -0.230337,0.105028 -0.460513,0.209332 -0.69231,0.311017 -0.07541,0.03289 -0.15423,0.06683 -0.230766,0.09965 -2.471214,1.070744 -5.017391,1.964288 -7.588646,2.762416 -0.888681,0.271341 -1.782733,0.52701 -2.679024,0.774128 -0.0716,0.01947 -0.142289,0.03933 -0.213987,0.05874 -2.232512,0.609933 -4.487514,1.136785 -6.762599,1.557167 -0.04261,0.0079 -0.08473,0.01568 -0.127448,0.02363 -0.423014,0.07736 -0.846987,0.152156 -1.271328,0.221851 -0.09233,0.01512 -0.183325,0.0286 -0.275354,0.04349 -0.943579,0.151094 -1.890239,0.288569 -2.840033,0.398603 -1.150698,0.137079 -2.306295,0.219743 -3.464165,0.262238 -0.130066,0.0051 -0.259564,0.0093 -0.388637,0.01311 -0.309145,0.0087 -0.618009,0.01367 -0.927279,0.01571 -0.08674,2.56e-4 -0.173901,8.08e-4 -0.260135,5.37e-4 -0.232125,2.5e-4 -0.4639,0.0053 -0.695986,0.0021 -0.07332,-0.0099 -0.155135,-0.0046 -0.234432,-0.0041 v 0.277447 c 0.02609,0.96492 0.809168,1.734971 1.780592,1.734971 h 31.590447 c 0.987951,0 1.782698,-0.795777 1.782698,-1.783745 V 17.657696 c 0,-0.984379 -0.789231,-1.776946 -1.772205,-1.782696 z m -1.890212,2.024479 v 5.35e-4 c -0.235679,0.01677 -0.470864,0.03984 -0.705426,0.06452 -0.227519,0.02412 -0.454346,0.05178 -0.680767,0.08285 -0.131548,0.01772 -0.263339,0.03675 -0.395982,0.05767 -0.108306,0.01669 -0.216635,0.03512 -0.324646,0.05351 -0.208501,0.03544 -0.41712,0.07368 -0.627804,0.115386 -0.16383,0.0323 -0.327676,0.06537 -0.490907,0.10067 -0.08895,0.01934 -0.17694,0.03926 -0.265908,0.05978 -0.138442,0.03168 -0.276371,0.06677 -0.414338,0.100163 -0.238245,0.059 -0.47672,0.121144 -0.716435,0.186714 -0.147633,0.04069 -0.295613,0.0803 -0.442654,0.122724 -0.27587,0.07996 -0.55245,0.16495 -0.8292,0.252798 -0.06962,0.02213 -0.140567,0.04157 -0.210316,0.06398 -2.773977,0.899462 -5.564663,2.178439 -8.007702,3.520808 -2.168448,1.191518 -4.0618762,2.433444 -5.4278018,3.503498 -0.6829601,0.535088 -1.2330708,1.027919 -1.6201073,1.450184 -0.3870352,0.422346 -0.6116058,0.772631 -0.638287,1.033218 v 0.0016 c -8.865e-4,0.01924 6.714e-4,0.04132 5.371e-4,0.06135 -0.0064,0.07222 -0.00249,0.145587 0.010488,0.219759 0.02278,0.219861 0.086233,0.478077 0.1751748,0.759965 0.020379,0.06712 0.041925,0.134015 0.064509,0.200348 0.018014,0.05123 0.035134,0.100913 0.05507,0.154194 0.1233144,0.335193 0.2712292,0.66229 0.4316443,0.983391 0.1513096,0.309688 0.3228691,0.63587 0.5160848,0.978152 0.2396335,0.424557 0.5057837,0.868489 0.8040218,1.333736 1.3250815,2.067184 3.2008823,4.483539 5.3701093,6.777276 3.996855,4.226164 8.982903,8.037036 13.333755,8.491263 0.100482,0.0097 0.201516,0.02072 0.301572,0.02779 0.03247,0.0026 0.06502,0.0065 0.09752,0.0088 0.197745,0.0021 0.401916,0.02545 0.597903,0.0083 0.03451,-5.33e-4 0.06952,5.4e-4 0.104368,-5.33e-4 h 0.0026 v -2.787008 c -0.02585,-0.0063 -0.05132,-0.0134 -0.0771,-0.01939 -0.131315,-0.06461 -0.310598,-0.06835 -0.447906,-0.125871 -2.255197,-0.637923 -4.353026,-1.733264 -6.276405,-3.072378 -0.312495,-0.21756 -0.620382,-0.442395 -0.923604,-0.671854 -0.01273,-0.0095 -0.02561,-0.01863 -0.03777,-0.0283 -0.282871,-0.214841 -0.560264,-0.435171 -0.834967,-0.658748 -0.02907,-0.02386 -0.05927,-0.04647 -0.08808,-0.07025 C 16.511075,39.562162 14.679176,37.675251 13.038019,35.638435 11.681202,33.920149 10.400135,32.117274 9.4411611,30.144549 9.3713951,29.975212 9.2894613,29.805519 9.222979,29.631612 9.210016,29.596582 9.201571,29.567012 9.19046,29.534092 9.133867,29.366831 9.093414,29.196171 9.101298,29.016958 c 0.04923,-0.155622 0.1232135,-0.299145 0.2097902,-0.435843 0.05005,-0.07562 0.1012021,-0.151181 0.1583921,-0.227618 5.636e-4,-8.02e-4 0.00114,-0.0011 0.00156,-0.0021 0.1560836,-0.202057 0.3338734,-0.391069 0.4977262,-0.580594 1.3177405,-1.355007 2.9453525,-2.360275 4.5860195,-3.280075 0.759315,-0.413202 1.531433,-0.803513 2.313993,-1.170632 0.0345,-0.0161 0.06884,-0.03221 0.103845,-0.04824 0.333755,-0.155555 0.669909,-0.305659 1.007523,-0.452623 0.143756,-0.0624 0.288281,-0.123045 0.433213,-0.184098 0.265363,-0.112093 0.531257,-0.223611 0.798778,-0.330414 0.176349,-0.07045 0.354436,-0.137362 0.531818,-0.205597 0.271406,-0.10425 0.54211,-0.209658 0.81556,-0.308389 0.01428,-0.0052 0.02865,-0.0097 0.04298,-0.01467 1.228704,-0.442304 2.477214,-0.829232 3.740562,-1.157516 0.892167,-0.233986 1.797096,-0.406619 2.704205,-0.570636 0.0514,-0.008 0.104097,-0.0167 0.155766,-0.0252 v -2.117306 c -0.02174,-0.005 -0.04547,-0.0089 -0.06715,-0.0057 z m 0.109087,2.124651 -5.33e-4,0.0021 v 4.260318 c 4.084763,0.11376 8.407671,0.85908 11.444068,4.393007 v 0.0021 c 0.07466,0.118678 0.0639,0.283692 -0.0093,0.480422 -0.07383,0.19668 -0.209386,0.426221 -0.39021,0.673423 -0.361603,0.494432 -0.902425,1.061795 -1.47902,1.581817 -0.576621,0.520073 -1.190964,0.993219 -1.698254,1.297557 -0.25365,0.152159 -0.479194,0.261219 -0.663464,0.31416 -0.09237,0.0268 -0.174553,0.03991 -0.243881,0.03516 -0.06898,-0.0046 -0.127922,-0.02815 -0.168878,-0.07025 l -0.0021,-0.0036 c -1.06709,-2.080111 -2.01016,-3.74723 -3.075128,-4.904446 -1.042909,-1.133169 -2.203031,-1.775907 -3.713814,-1.843528 V 39.69071 c 0.003,-4.9e-5 0.0062,0 0.0093,0 0.0099,-0.0054 0.01976,-0.01229 0.0346,-0.01467 2.234976,-0.01176 4.490954,-0.21003 6.631999,-0.882164 1.786336,-0.542042 3.443895,-1.446361 4.902802,-2.602974 h 5.42e-4 c 8.01e-4,-5.43e-4 0.0016,-0.0019 0.0026,-0.0026 0.196912,-0.156189 0.387955,-0.319451 0.577447,-0.484616 0.07991,-0.06926 0.158791,-0.139625 0.237588,-0.210844 0.19436,-0.176076 0.387552,-0.354145 0.573248,-0.539157 0.546754,-0.538101 1.063525,-1.102876 1.563989,-1.68304 0.109228,-0.12696 0.218387,-0.253242 0.327275,-0.38339 0.121057,-0.144346 0.241235,-0.290324 0.360316,-0.436366 0.137261,-0.168634 0.275312,-0.339442 0.412766,-0.512937 0.264606,-0.333882 0.525629,-0.670458 0.783568,-1.009618 0.0093,-0.01221 0.01831,-0.02367 0.02779,-0.03568 5.4e-4,-8.09e-4 0.0016,-0.0016 0.0021,-0.0026 0.359214,-0.472897 0.713372,-0.949117 1.06626,-1.425523 -0.02712,-0.06949 -0.0614,-0.137009 -0.09965,-0.203501 -0.0915,-0.13673 -0.18235,-0.274479 -0.275347,-0.40751 -0.02307,-0.03192 -0.04605,-0.06407 -0.06818,-0.09597 -0.08951,-0.126265 -0.179976,-0.248912 -0.270628,-0.371847 -0.04219,-0.05741 -0.08243,-0.115233 -0.125351,-0.172034 -0.138837,-0.184594 -0.280191,-0.365828 -0.422209,-0.542831 -0.0026,-0.0031 -0.0036,-0.0063 -0.0062,-0.0093 -0.01359,-0.01656 -0.02803,-0.03217 -0.04143,-0.04879 -0.115896,-0.143417 -0.232908,-0.284236 -0.350874,-0.42273 -0.07007,-0.08206 -0.140908,-0.163274 -0.212414,-0.244398 -0.05936,-0.0674 -0.119059,-0.134623 -0.178848,-0.200877 -0.100953,-0.111698 -0.203718,-0.222557 -0.307343,-0.331994 -0.02341,-0.02514 -0.04626,-0.04987 -0.06973,-0.07499 -0.929049,-0.971414 -1.955832,-1.849578 -3.064511,-2.6077 -0.03124,-0.021 -0.06149,-0.04253 -0.09287,-0.06346 -0.118231,-0.08002 -0.238664,-0.157458 -0.358744,-0.234445 -0.05388,-0.03452 -0.107476,-0.06952 -0.16154,-0.103844 -0.118806,-0.07459 -0.238725,-0.146549 -0.359265,-0.218179 -0.05065,-0.03017 -0.101445,-0.06105 -0.152621,-0.09074 -0.156322,-0.09088 -0.313436,-0.17989 -0.472558,-0.265912 -0.174681,-0.0946 -0.351735,-0.18575 -0.529714,-0.274296 -2.576945,-1.30738 -5.415182,-2.001481 -8.277814,-2.31399 -0.396104,-0.04325 -0.793114,-0.07887 -1.189507,-0.10804 -0.08311,-0.0061 -0.166092,-0.01306 -0.249654,-0.01835 -0.06148,4.06e-4 -0.120854,-0.0037 -0.176748,-0.0126 z m -0.425872,4.251923 c -1.91012,0.03273 -4.611677,0.861287 -6.911025,1.990388 -1.226346,0.602142 -2.336557,1.289132 -3.1521,1.98776 -0.81556,0.698625 -1.337046,1.409348 -1.376224,2.060139 v 0.0021 c 0.0321,0.764576 0.46156,1.865708 1.170625,3.092834 0.70904,1.227124 1.698355,2.578867 2.852629,3.838634 2.256345,2.462506 5.141512,4.570012 7.800009,4.707169 v -2.267303 c -2.025162,-0.66224 -3.83383,-2.411825 -5.183396,-4.28287 -1.385776,-1.921294 -2.287735,-3.966081 -2.446158,-5.075872 0.05227,-0.695195 0.82029,-1.73538 2.144062,-2.594065 1.323756,-0.858707 3.201155,-1.536964 5.46294,-1.519923 h 0.01621 l 0.0062,-1.119755 v -0.814501 h -0.01261 c -0.119941,-0.0051 -0.24398,-0.007 -0.371327,-0.0047 z m 23.895134,5.03182 c 5.4e-5,0.0016 -4e-5,0.0035 0,0.0052 0,-8.07e-4 5.34e-4,-0.0019 5.34e-4,-0.0026 0,-8.08e-4 -5.34e-4,-0.0016 -5.34e-4,-0.0026 z M 15.417526,30.28103 c -0.0012,0.02071 -0.0016,0.04209 -0.0021,0.06295 -4.82e-4,-0.0094 -0.0027,-0.01979 -0.0031,-0.02934 6.42e-4,-0.0098 0.0042,-0.02246 0.0052,-0.03357 z m 11.830087,11.768187 v 0.0062 h 0.0011 c -2.7e-4,-0.0024 -8.1e-4,-0.0039 -0.0011,-0.0062 z" />
    </g>
  </g>
</svg>
