<?xml version="1.0" encoding="UTF-8" standalone="no"?>
<svg
   xmlns:dc="http://purl.org/dc/elements/1.1/"
   xmlns:cc="http://creativecommons.org/ns#"
   xmlns:rdf="http://www.w3.org/1999/02/22-rdf-syntax-ns#"
   xmlns:svg="http://www.w3.org/2000/svg"
   xmlns="http://www.w3.org/2000/svg"
   xmlns:sodipodi="http://sodipodi.sourceforge.net/DTD/sodipodi-0.dtd"
   xmlns:inkscape="http://www.inkscape.org/namespaces/inkscape"
   sodipodi:docname="nvidia-settings.svg"
   inkscape:version="1.0 (4035a4fb49, 2020-05-01)"
   id="svg8"
   version="1.1"
   viewBox="0 0 67.733332 67.733335"
   height="256"
   width="256">
  <defs
     id="defs2" />
  <sodipodi:namedview
     inkscape:window-maximized="1"
     inkscape:window-y="27"
     inkscape:window-x="2004"
     inkscape:window-height="1016"
     inkscape:window-width="1836"
     units="px"
     showgrid="false"
     inkscape:document-rotation="0"
     inkscape:current-layer="g1156"
     inkscape:document-units="px"
     inkscape:cy="88.249776"
     inkscape:cx="200.24357"
     inkscape:zoom="2.0000001"
     inkscape:pageshadow="2"
     inkscape:pageopacity="0.0"
     borderopacity="1.0"
     bordercolor="#666666"
     pagecolor="#ffffff"
     id="base" />
  <metadata
     id="metadata5">
    <rdf:RDF>
      <cc:Work
         rdf:about="">
        <dc:format>image/svg+xml</dc:format>
        <dc:type
           rdf:resource="http://purl.org/dc/dcmitype/StillImage" />
        <dc:title />
      </cc:Work>
    </rdf:RDF>
  </metadata>
  <g
     inkscape:label="Icon"
     id="g1156"
     inkscape:groupmode="layer"
     style="display:inline">
    <g
       inkscape:groupmode="layer"
       id="layer1"
       inkscape:label="Background"
       style="display:inline">
      <g
         inkscape:label="Shadow"
         id="layer10"
         inkscape:groupmode="layer"
         style="display:inline">
        <path
           id="path839"
           style="display:inline;fill:#1a1a1a;fill-opacity:1;stroke-width:0.0246944;stroke-miterlimit:4;stroke-dasharray:none;paint-order:stroke fill markers"
           d="m 4.2333333,34.834287 v 24.641082 c 0,2.765599 2.2266527,4.992251 4.9922512,4.992251 H 58.50775 c 2.765599,0 4.99225,-2.226652 4.99225,-4.992251 V 34.834287 Z" />
      </g>
      <g
         style="display:inline"
         inkscape:label="Colour"
         id="g1174"
         inkscape:groupmode="layer">
        <path
           d="M 4.2333333,33.866667 V 58.50775 c 0,2.765599 2.2266527,4.99225 4.9922512,4.99225 H 58.50775 C 61.273349,63.5 63.5,61.273349 63.5,58.50775 V 33.866667 Z"
           style="display:inline;fill:#404040;fill-opacity:1;stroke-width:0.0246944;stroke-miterlimit:4;stroke-dasharray:none;paint-order:stroke fill markers"
           id="rect1168" />
        <path
           d="m 9.2255845,4.2333333 c -2.7655985,0 -4.9922512,2.2266525 -4.9922512,4.9922509 V 33.866666 H 63.5 V 9.2255842 c 0,-2.7655984 -2.226651,-4.9922509 -4.99225,-4.9922509 z"
           style="display:inline;fill:#323232;fill-opacity:1;stroke-width:0.0246944;stroke-miterlimit:4;stroke-dasharray:none;paint-order:stroke fill markers"
           id="rect1172" />
      </g>
    </g>
    <g
       style="display:inline"
       inkscape:label="Drop Shadow"
       id="g1150"
       inkscape:groupmode="layer">
      <path
         d="m 29.766638,19.649813 c -0.833085,2.83e-4 -1.503555,0.668475 -1.509223,1.500233 v 0.213256 c 0.007,-3.4e-4 0.01324,-6.86e-4 0.01997,-0.0014 0.15408,-0.02016 0.313018,-0.02102 0.469944,-0.02441 0.237514,-0.0082 0.475759,-0.01213 0.714163,-0.01004 l -0.0013,5e-4 c 0.340879,0.0031 0.682457,0.02043 1.02429,0.04354 0.01685,8.18e-4 0.03466,0.0012 0.05141,0.0022 0.07342,0.0053 0.146386,0.01282 0.219743,0.01903 0.133834,0.01132 0.267712,0.02133 0.401526,0.03535 0.209807,0.0223 0.418797,0.04802 0.627764,0.07691 0.0059,7.73e-4 0.01192,0.0017 0.01748,0.0027 0.115502,0.01587 0.230222,0.03547 0.345597,0.0535 0.124843,0.01933 0.249577,0.03893 0.374066,0.06087 0.12642,0.02246 0.253398,0.04603 0.379548,0.07033 0.107407,0.02095 0.214551,0.04237 0.321624,0.06499 0.127525,0.02674 0.25493,0.05361 0.382049,0.08235 0.140805,0.0319 0.280827,0.06686 0.421004,0.101382 0.09067,0.02269 0.181257,0.04296 0.271682,0.06648 7.71e-4,2.09e-4 0.002,2.77e-4 0.0027,4.98e-4 0.232329,0.06017 0.463243,0.12407 0.69368,0.190781 0.04709,0.01365 0.09429,0.0284 0.141331,0.04244 0.130211,0.03855 0.260507,0.0762 0.390043,0.116364 0.07454,0.02378 0.148043,0.04932 0.222242,0.07336 0.06614,0.02161 0.132302,0.04388 0.198261,0.06592 0.121514,0.0409 0.24263,0.08277 0.363574,0.125368 0.477034,0.166416 0.947746,0.344892 1.410838,0.53436 0.0557,0.02304 0.111247,0.04537 0.166808,0.06851 0.138761,0.05758 0.276767,0.116212 0.414011,0.175792 0.08789,0.03814 0.175229,0.07665 0.262692,0.115364 0.117404,0.05237 0.234902,0.10437 0.351089,0.157818 0.190371,0.08758 0.380267,0.176899 0.568824,0.268182 0.0082,0.0046 0.01863,0.0079 0.02794,0.01294 0.07366,0.0359 0.14514,0.07308 0.218246,0.109369 0.129078,0.06406 0.257865,0.128079 0.386044,0.193775 0.113272,0.05781 0.225345,0.11638 0.337105,0.175294 0.08355,0.04404 0.167323,0.08834 0.250699,0.133338 0.140728,0.07601 0.279929,0.152271 0.418012,0.229231 0.0074,0.004 0.01491,0.0082 0.02254,0.01238 0.01233,0.007 0.02448,0.01393 0.03687,0.02103 0.129282,0.07256 0.259764,0.144415 0.386542,0.217744 1.904387,1.101691 3.524938,2.297506 4.683497,3.367538 0.579267,0.535029 1.041682,1.038322 1.368384,1.482263 0.114406,0.155467 0.205772,0.300607 0.285662,0.440479 0.06147,0.107389 0.111436,0.209611 0.151332,0.306643 0.0017,0.0046 0.0039,0.0084 0.0057,0.01342 0.05335,0.132403 0.09304,0.257915 0.103877,0.368572 v 0.0017 c -0.0022,0.152201 -0.113635,0.431483 -0.330614,0.810542 -0.216985,0.379034 -0.539556,0.856509 -0.967363,1.395861 -0.855619,1.078751 -2.129439,2.405188 -3.808017,3.692658 -0.907444,0.696007 -1.937011,1.377782 -3.078881,2.004642 -0.01115,0.0062 -0.02183,0.01302 -0.03254,0.01903 -0.03511,0.01911 -0.07059,0.03696 -0.105872,0.05599 -0.166105,0.08982 -0.331995,0.179526 -0.502913,0.266682 -0.213701,0.109264 -0.429278,0.215144 -0.646242,0.317627 -0.0017,7.73e-4 -0.0027,0.0016 -0.0044,0.0022 -0.115564,0.05449 -0.234978,0.106613 -0.352584,0.159817 -0.135952,0.06154 -0.271926,0.122494 -0.409017,0.181282 -0.139838,0.06004 -0.281423,0.118784 -0.424,0.176795 -0.09399,0.03828 -0.188149,0.07516 -0.28267,0.111873 -0.371347,0.145529 -0.750597,0.284631 -1.140157,0.414505 -0.196286,0.06546 -0.396412,0.127215 -0.597296,0.188279 -0.05235,0.01572 -0.104457,0.03124 -0.156815,0.04683 -1.049633,0.311095 -2.157467,0.562856 -3.330086,0.732146 -0.01461,0.0022 -0.02983,0.0044 -0.04452,0.0065 -0.199576,0.02823 -0.400684,0.05496 -0.603792,0.07897 -0.03447,0.004 -0.06816,0.0081 -0.102376,0.01239 -0.176531,0.01967 -0.354711,0.03792 -0.533876,0.05393 -0.151923,0.01381 -0.304276,0.02531 -0.456458,0.03641 -0.08829,0.0063 -0.17627,0.01329 -0.265193,0.01855 -0.131417,0.008 -0.262512,0.01374 -0.394038,0.01946 -0.08339,0.0037 -0.167553,0.0072 -0.251701,0.01006 -0.05821,0.002 -0.116809,0.0059 -0.175293,0.0075 -0.299489,-0.0022 -0.617884,0.04706 -0.905935,0.01105 -1.82e-4,-0.0011 2e-4,-0.0028 0,-0.004 -0.002,-1.2e-5 -0.0045,-4e-6 -0.0066,0 v 3.248673 c 0.763645,-0.0062 1.527299,-0.008 2.290805,-0.02153 1.977437,-0.02461 3.964663,-0.158315 5.886576,-0.643251 2.274753,-0.560753 4.380448,-1.644431 6.344041,-2.898583 2.683406,-1.720797 5.183645,-3.708418 7.665487,-5.703801 0.0409,-0.02549 0.07936,-0.05765 0.117362,-0.09144 0.05519,-0.04895 0.111397,-0.09589 0.170798,-0.136323 0.0059,-0.0048 0.011,-0.0083 0.01642,-0.01343 0.0047,-0.0035 0.01128,-0.0048 0.01595,-0.0079 0.05431,-0.03147 0.112052,-0.05579 0.180291,-0.05444 v 8.46e-4 c 0.135368,-0.0011 0.267056,0.03167 0.396537,0.07035 0.01364,0.004 0.02691,0.0071 0.04094,0.01148 0.02518,0.0079 0.05137,0.01454 0.07646,0.02298 0.02342,0.0081 0.04568,0.01795 0.06894,0.02694 0.02046,0.0075 0.04238,0.01722 0.06344,0.02541 0.109015,0.04293 0.216718,0.0887 0.32312,0.137334 0.01125,0.0052 0.02117,0.0083 0.03204,0.01343 0.0062,0.0029 0.01233,0.0064 0.01854,0.0083 0.292126,0.136129 0.574654,0.292991 0.851994,0.458463 0.05767,0.03446 0.116271,0.07003 0.174797,0.105872 0.09931,0.06133 0.199012,0.12135 0.297147,0.184285 0.07016,0.04467 0.140691,0.09116 0.211251,0.137338 0.08552,0.05601 0.172005,0.111031 0.257201,0.16731 0.02601,0.01776 0.05185,0.03711 0.07797,0.05502 0.0024,0.0017 0.0046,0.0031 0.007,0.0048 0.104927,0.07248 0.208769,0.146295 0.313137,0.220244 0.05677,0.04037 0.114968,0.08026 0.170799,0.120855 0.543765,0.391883 1.071053,0.807751 1.544179,1.281992 0.01431,0.01435 0.02922,0.02928 0.04297,0.0435 0.03195,0.03255 0.06497,0.06482 0.09638,0.09789 0.03891,0.04792 0.08098,0.09693 0.122354,0.147322 9.14e-4,9.14e-4 0.0025,0.0022 0.003,0.003 0.0028,0.0034 0.0051,0.0066 0.0079,0.01007 0.03429,0.04211 0.065,0.08635 0.09287,0.131848 0.02022,0.03199 0.03725,0.06341 0.0504,0.09191 0.0042,0.01004 0.0081,0.01951 0.01192,0.02949 0.0081,0.02284 0.01483,0.044 0.01798,0.06448 0.0048,0.02287 0.0084,0.04567 0.0106,0.06938 -0.0046,0.01969 -0.01186,0.03846 -0.01755,0.05745 -0.02059,0.08406 -0.06523,0.173774 -0.133841,0.268693 -5.02e-4,7.72e-4 -8.47e-4,0.0016 -0.0014,0.0022 -0.02458,0.03475 -0.05105,0.06799 -0.07897,0.100377 l -0.004,0.0035 c -0.04503,0.05225 -0.09818,0.106628 -0.155817,0.161811 -0.0082,0.0081 -0.01744,0.01673 -0.02649,0.02492 -0.02876,0.02697 -0.05954,0.05387 -0.09144,0.08131 -0.02353,0.02096 -0.04677,0.04295 -0.06982,0.06349 -0.05342,0.04284 -0.108348,0.08232 -0.162807,0.12384 -0.02858,0.02225 -0.05117,0.04249 -0.08131,0.06499 -0.01341,0.01002 -0.03077,0.02037 -0.04452,0.03002 -0.451697,0.329197 -0.93672,0.608918 -1.431821,0.869987 -0.0056,0.0029 -0.01008,0.0056 -0.01545,0.0079 -0.0048,0.0026 -0.0082,0.0049 -0.01392,0.0075 -0.315472,0.165673 -0.633451,0.326433 -0.95238,0.482432 -0.110764,0.0524 -0.2234,0.101507 -0.334608,0.152825 -0.05962,0.02769 -0.122361,0.05568 -0.183293,0.08335 -0.195103,0.08896 -0.389959,0.177558 -0.586301,0.263697 -0.06392,0.02784 -0.130932,0.05661 -0.19576,0.08439 -2.093258,0.906987 -4.249952,1.663686 -6.427945,2.339748 -0.752763,0.229855 -1.510125,0.446422 -2.269335,0.65573 -0.06063,0.0166 -0.120554,0.0335 -0.181285,0.04992 -1.891059,0.516645 -3.801135,0.96285 -5.728261,1.318944 -0.0361,0.0067 -0.0717,0.01332 -0.107874,0.02002 -0.358316,0.06554 -0.717293,0.128736 -1.076734,0.187778 -0.07822,0.01282 -0.15528,0.0243 -0.233227,0.03687 -0.799265,0.127984 -1.60113,0.244394 -2.405672,0.337602 -0.974706,0.116119 -1.953768,0.186237 -2.934552,0.222241 -0.110171,0.0043 -0.21977,0.0077 -0.329106,0.01105 -0.26185,0.0074 -0.523613,0.01171 -0.785579,0.01342 -0.07345,2.12e-4 -0.147183,7.66e-4 -0.220234,5.01e-4 -0.196619,2.16e-4 -0.392737,0.004 -0.589316,0.0014 -0.06211,-0.0084 -0.131583,-0.0039 -0.19876,-0.0035 v 0.235228 c 0.02212,0.817353 0.685371,1.469277 1.508221,1.469277 h 26.758588 c 0.836854,0 1.510224,-0.673864 1.510224,-1.510732 V 21.15967 c 0,-0.833827 -0.668594,-1.50536 -1.501235,-1.510224 l -26.767101,-3.73e-4 z m -1.601125,1.715483 c -0.199626,0.01429 -0.399106,0.03303 -0.597792,0.05393 -0.192722,0.02044 -0.384528,0.04403 -0.576319,0.07032 -0.111426,0.01501 -0.223249,0.03116 -0.33561,0.04892 -0.09174,0.01417 -0.183188,0.02994 -0.274676,0.04552 -0.176611,0.03002 -0.353909,0.06257 -0.532378,0.09789 -0.138778,0.02735 -0.277237,0.05544 -0.415504,0.08532 -0.07535,0.01641 -0.150368,0.03301 -0.225735,0.0504 -0.117276,0.02683 -0.233715,0.05658 -0.350592,0.08483 -0.201797,0.04997 -0.403731,0.102271 -0.606784,0.157814 -0.125051,0.03447 -0.250509,0.06844 -0.375061,0.104376 -0.233677,0.06774 -0.467751,0.139334 -0.702173,0.213753 -0.05896,0.01872 -0.119213,0.03593 -0.178293,0.05503 -2.349719,0.761899 -4.713636,1.844937 -6.783021,2.981998 -1.836795,1.009282 -3.440585,2.061113 -4.597594,2.967506 -0.578501,0.453236 -1.044542,0.870861 -1.372383,1.228545 -0.3278406,0.357763 -0.518263,0.654262 -0.5408646,0.874993 v 0.0017 c -7.546e-4,0.01636 6.178e-4,0.03497 4.994e-4,0.05198 -0.00542,0.06118 -0.00154,0.122954 0.00952,0.185782 0.019298,0.186233 0.072503,0.405466 0.1478261,0.644245 0.017262,0.05686 0.03579,0.113108 0.054936,0.169302 0.015258,0.04336 0.029555,0.08519 0.046444,0.130338 0.1044531,0.283916 0.2296891,0.561522 0.3655701,0.833515 0.128169,0.262325 0.273324,0.538092 0.436987,0.828032 0.202989,0.359617 0.428575,0.736081 0.681197,1.130169 1.122434,1.75103 2.711688,3.797818 4.549153,5.740741 3.385555,3.579819 7.608797,6.807791 11.294214,7.192541 0.08511,0.0082 0.170943,0.01737 0.255701,0.02342 0.02748,0.0022 0.05481,0.0055 0.08234,0.0075 0.167503,0.0017 0.340395,0.02159 0.506405,0.007 0.02926,-4.59e-4 0.05891,4.39e-4 0.0884,-4.96e-4 h 0.0022 v -2.360969 c -0.02192,-0.0053 -0.04304,-0.01134 -0.06497,-0.01646 -0.11123,-0.05473 -0.263747,-0.05766 -0.380055,-0.106374 -1.910294,-0.540365 -3.686531,-1.468129 -5.315742,-2.602444 -0.264704,-0.184287 -0.525739,-0.374456 -0.782581,-0.568829 -0.01078,-0.008 -0.0217,-0.01567 -0.03204,-0.02387 -0.239609,-0.181982 -0.474975,-0.368978 -0.707666,-0.558348 -0.02462,-0.02022 -0.04995,-0.03921 -0.07436,-0.05937 -1.699307,-1.421601 -3.250854,-3.02009 -4.641017,-4.745393 -1.149285,-1.455487 -2.234608,-2.982516 -3.046915,-4.653535 -0.05912,-0.143429 -0.128469,-0.287173 -0.184792,-0.434477 -0.01098,-0.02966 -0.01797,-0.05449 -0.02743,-0.08234 -0.04795,-0.141684 -0.08213,-0.286681 -0.07547,-0.438488 0.0417,-0.131821 0.103947,-0.253273 0.177292,-0.369068 0.04239,-0.06408 0.08641,-0.128012 0.134841,-0.19277 4.8e-4,-7.28e-4 6.19e-4,-9.14e-4 8.46e-4,-0.0017 0.132202,-0.171143 0.283207,-0.33137 0.422002,-0.491923 1.116201,-1.147761 2.494689,-1.9996 3.884429,-2.778734 0.643187,-0.349993 1.296834,-0.680341 1.959698,-0.991328 0.02918,-0.01363 0.05826,-0.02739 0.08791,-0.04102 0.282727,-0.131743 0.567526,-0.258546 0.853503,-0.38304 0.121773,-0.05286 0.244808,-0.1046 0.367569,-0.156324 0.224776,-0.09495 0.449589,-0.18919 0.676201,-0.279661 0.149379,-0.05968 0.300213,-0.116504 0.450471,-0.174305 0.229901,-0.08831 0.459065,-0.17755 0.690686,-0.261186 0.0121,-0.0044 0.02426,-0.0081 0.0364,-0.01238 1.040778,-0.374662 2.098649,-0.702272 3.168763,-0.980356 0.755716,-0.198194 1.521944,-0.344498 2.290314,-0.483435 0.04357,-0.0068 0.08807,-0.01384 0.131841,-0.02102 v -1.79366 c -0.01842,-0.0042 -0.03819,-0.0075 -0.0565,-0.0048 z m 0.09239,1.79889 -4.93e-4,0.0017 v 3.608759 c 3.460025,0.09637 7.121595,0.727676 9.693593,3.721126 v 0.0017 c 0.06323,0.100521 0.05415,0.240381 -0.0079,0.407021 -0.06254,0.16661 -0.177445,0.360941 -0.330613,0.570337 -0.306306,0.418801 -0.764112,0.899423 -1.252522,1.339922 -0.488431,0.440524 -1.009104,0.841419 -1.438809,1.099206 -0.214855,0.128892 -0.405749,0.221338 -0.561836,0.266184 -0.07825,0.0227 -0.148036,0.03356 -0.206761,0.02947 -0.05843,-0.0039 -0.108135,-0.02371 -0.14283,-0.05937 l -0.0017,-0.003 C 33.104194,32.385354 32.305579,30.972923 31.403491,29.992695 30.52009,29.032824 29.537406,28.488803 28.257683,28.431534 v 11.391091 c 0.0026,-3.7e-5 0.0048,0 0.0075,0 0.0084,-0.0046 0.01691,-0.01032 0.02947,-0.01239 1.893153,-0.01 3.804311,-0.177792 5.617901,-0.747126 1.513118,-0.459146 2.916831,-1.225185 4.152613,-2.204898 h 4.98e-4 c 7.66e-4,-5.17e-4 0.0013,-0.0016 0.0022,-0.0022 0.166794,-0.132302 0.32891,-0.27062 0.489419,-0.410518 0.06768,-0.05865 0.134514,-0.118474 0.201261,-0.178789 0.164629,-0.149152 0.328128,-0.299748 0.485439,-0.456461 0.463127,-0.455803 0.901021,-0.934387 1.324938,-1.425826 0.09251,-0.107539 0.184934,-0.214373 0.277166,-0.324616 0.102546,-0.122272 0.20428,-0.245861 0.305144,-0.369561 0.116267,-0.142848 0.233174,-0.287536 0.349595,-0.434493 0.224134,-0.282824 0.445232,-0.568201 0.663722,-0.855498 0.0079,-0.01034 0.01539,-0.0198 0.02342,-0.03002 5.15e-4,-7.6e-4 0.0013,-0.0013 0.0017,-0.0022 0.304274,-0.400573 0.604524,-0.804033 0.903437,-1.207575 -0.02298,-0.05886 -0.05201,-0.115986 -0.08439,-0.172294 -0.0775,-0.115818 -0.154451,-0.232416 -0.233234,-0.345096 -0.01954,-0.02703 -0.03916,-0.05432 -0.05789,-0.08131 -0.07583,-0.106946 -0.152435,-0.211003 -0.229229,-0.315133 -0.03576,-0.04863 -0.07002,-0.0977 -0.106374,-0.145828 -0.117602,-0.156349 -0.237285,-0.309516 -0.357583,-0.459453 -0.0022,-0.0027 -0.003,-0.0053 -0.0052,-0.0079 -0.01151,-0.01401 -0.02355,-0.02742 -0.03491,-0.04152 -0.09817,-0.121485 -0.197235,-0.240772 -0.297154,-0.358081 -0.05934,-0.06951 -0.119717,-0.138526 -0.180282,-0.207258 -0.05029,-0.05709 -0.100687,-0.113675 -0.151335,-0.1698 -0.08549,-0.09459 -0.172401,-0.18847 -0.260177,-0.281167 -0.01983,-0.02128 -0.03956,-0.04223 -0.05938,-0.06341 -0.786965,-0.822859 -1.656337,-1.566761 -2.595455,-2.208928 -0.02645,-0.01784 -0.05237,-0.0362 -0.07897,-0.05394 -0.100144,-0.06777 -0.20193,-0.133548 -0.303649,-0.198768 -0.04564,-0.02919 -0.09102,-0.05883 -0.136833,-0.08792 -0.100636,-0.0632 -0.202545,-0.124109 -0.304646,-0.184778 -0.04289,-0.02554 -0.0855,-0.05178 -0.128847,-0.07691 -0.132419,-0.07698 -0.265745,-0.152364 -0.400529,-0.225236 -0.14797,-0.08013 -0.29771,-0.157216 -0.448467,-0.232229 -2.182817,-1.107415 -4.586949,-1.695484 -7.011759,-1.960188 -0.335525,-0.03666 -0.672044,-0.06669 -1.007809,-0.09144 -0.07042,-0.0052 -0.14047,-0.01097 -0.211257,-0.01545 -0.05208,3.23e-4 -0.102472,-0.0029 -0.149823,-0.01061 z m -0.361069,3.601756 c -1.617978,0.02772 -3.906447,0.729612 -5.854118,1.686017 -1.038789,0.510057 -1.979053,1.091725 -2.669862,1.68352 -0.690823,0.591774 -1.132441,1.193693 -1.165631,1.744943 v 0.0022 c 0.02718,0.647637 0.391216,1.579966 0.991833,2.619411 0.600592,1.03944 1.438433,2.184585 2.416163,3.251678 1.911258,2.085888 4.35483,3.871137 6.606727,3.98731 V 39.820323 C 26.50652,39.25937 24.974768,37.777478 23.831613,36.192588 22.657778,34.565153 21.89374,32.833216 21.759545,31.893153 c 0.04428,-0.588866 0.694562,-1.470061 1.815864,-2.197416 1.121289,-0.727381 2.711703,-1.301907 4.627558,-1.287483 h 0.0139 l 0.0052,-0.948393 v -0.690162 h -0.01104 c -0.101602,-0.0043 -0.206262,-0.0054 -0.314128,-0.0035 z m 20.240684,4.261992 c 4.4e-5,0.0014 -3.5e-5,0.0029 0,0.0044 0,-7.65e-4 5.08e-4,-0.0016 5.08e-4,-0.0022 0,-7.7e-4 -5.08e-4,-0.0013 -5.08e-4,-0.0022 z m -29.898337,0.824029 c -10e-4,0.01766 -0.0014,0.0357 -0.0017,0.05349 -4.07e-4,-0.008 -0.0023,-0.01686 -0.0027,-0.02492 5.43e-4,-0.0083 0.0036,-0.01904 0.0044,-0.02839 z m 10.020723,9.968764 v 0.0052 h 8.46e-4 c -2.55e-4,-0.002 -7.5e-4,-0.0033 -8.46e-4,-0.0052 z"
         style="display:inline;fill:#1a1a1a;stroke-width:0;paint-order:stroke fill markers"
         id="path1148" />
    </g>
    <g
       style="display:inline"
       inkscape:label="Logo"
       id="g1154"
       inkscape:groupmode="layer">
      <path
         id="path1152"
         style="fill:#00ff00;stroke-width:0;paint-order:stroke fill markers"
         d="m 29.766475,18.626886 c -0.833086,2.96e-4 -1.503487,0.66851 -1.509156,1.500273 v 0.213245 c 0.007,-3.19e-4 0.01328,-6.33e-4 0.01999,-0.0014 0.154081,-0.02015 0.313108,-0.021 0.470029,-0.02441 0.23752,-0.0082 0.475525,-0.01187 0.713931,-0.0098 l -0.0014,4.54e-4 c 0.340877,0.0031 0.68263,0.02052 1.024467,0.04357 0.01683,8.13e-4 0.03475,0.0012 0.05153,0.0022 0.07342,0.0053 0.1461,0.0125 0.219461,0.01867 0.133834,0.01132 0.267798,0.0215 0.401616,0.03553 0.209809,0.0223 0.418777,0.04801 0.627742,0.07686 0.0059,7.74e-4 0.01218,0.0017 0.01774,0.0027 0.115489,0.01586 0.23026,0.03573 0.345634,0.05375 0.124837,0.01933 0.249587,0.03887 0.374072,0.06086 0.126422,0.02246 0.253248,0.04582 0.379395,0.07018 0.107408,0.02093 0.21457,0.04228 0.321646,0.06487 0.127526,0.02674 0.254946,0.05387 0.382064,0.08261 0.140804,0.03189 0.280531,0.06675 0.420716,0.10129 0.09067,0.02269 0.181469,0.04269 0.271886,0.0662 6.86e-4,1.95e-4 0.002,6.57e-4 0.0027,8.47e-4 0.232331,0.06012 0.463054,0.123882 0.693493,0.190594 0.04709,0.01365 0.09468,0.02855 0.14172,0.04265 0.130212,0.03855 0.260518,0.07622 0.390061,0.116396 0.07457,0.02378 0.147935,0.0492 0.222133,0.0733 0.06615,0.02161 0.13218,0.0437 0.198143,0.06575 0.121511,0.04082 0.242455,0.0827 0.363401,0.125279 0.477038,0.166419 0.947878,0.344975 1.410973,0.534447 0.05571,0.02304 0.111474,0.04528 0.167042,0.06842 0.138757,0.05758 0.276799,0.116355 0.414055,0.175925 0.0879,0.03813 0.175091,0.07678 0.262552,0.11551 0.117404,0.05237 0.234776,0.104257 0.350969,0.15771 0.190372,0.08758 0.380097,0.177049 0.568656,0.268335 0.0082,0.0046 0.01864,0.0078 0.02797,0.01286 0.07367,0.0359 0.14548,0.07299 0.21858,0.109286 0.129084,0.06404 0.257881,0.128006 0.386062,0.193701 0.113273,0.05781 0.224988,0.116574 0.336748,0.175483 0.08358,0.04406 0.16763,0.08827 0.251007,0.13328 0.140731,0.07601 0.27997,0.152267 0.418052,0.22924 0.0074,0.004 0.01461,0.0083 0.02221,0.01243 0.01234,0.007 0.02444,0.01377 0.03684,0.02091 0.12928,0.07255 0.260173,0.144358 0.386952,0.217683 1.904387,1.101686 3.524845,2.297472 4.683403,3.367513 0.579264,0.535012 1.041615,1.038565 1.36832,1.482501 0.114399,0.155462 0.20577,0.300391 0.285661,0.440268 0.06147,0.107385 0.111593,0.209511 0.151495,0.30654 0.0017,0.0046 0.0039,0.0088 0.0057,0.01373 0.05335,0.132395 0.09268,0.257637 0.103514,0.368288 v 0.0017 c -0.0022,0.152193 -0.113555,0.431724 -0.330531,0.810781 -0.216992,0.379036 -0.539352,0.856508 -0.967158,1.395866 -0.855622,1.078743 -2.12963,2.405241 -3.808208,3.692711 -0.907439,0.696021 -1.936854,1.377653 -3.078725,2.004512 -0.01115,0.0062 -0.02181,0.01315 -0.03246,0.01911 -0.03511,0.01911 -0.07089,0.03695 -0.10618,0.056 -0.166106,0.08982 -0.331992,0.179389 -0.502907,0.266556 -0.213697,0.109261 -0.428989,0.215167 -0.645954,0.317649 -0.0017,6.85e-4 -0.0027,0.0016 -0.0044,0.0022 -0.115568,0.05448 -0.23514,0.106745 -0.352745,0.159936 -0.135953,0.06155 -0.272074,0.122466 -0.409164,0.181258 -0.139836,0.06001 -0.281243,0.118808 -0.423826,0.176821 -0.09399,0.03828 -0.18803,0.07482 -0.282548,0.111509 -0.371356,0.145537 -0.750855,0.285061 -1.140419,0.414942 -0.196281,0.06547 -0.3962,0.126854 -0.597084,0.187918 -0.05238,0.01572 -0.104469,0.03152 -0.156826,0.04708 -1.049633,0.31109 -2.157563,0.562856 -3.330178,0.732142 -0.01466,0.0022 -0.02979,0.0044 -0.04444,0.0066 -0.199579,0.02824 -0.400646,0.05506 -0.603753,0.07909 -0.03447,0.004 -0.06842,0.0077 -0.102624,0.01198 -0.176523,0.01972 -0.354389,0.03819 -0.533557,0.0542 -0.151924,0.0138 -0.304517,0.02533 -0.456698,0.03641 -0.08828,0.0063 -0.176307,0.01339 -0.265224,0.01866 -0.131429,0.008 -0.262538,0.01339 -0.394061,0.01911 -0.08337,0.0037 -0.167296,0.0074 -0.25145,0.01023 -0.05821,0.002 -0.116997,0.0059 -0.175485,0.0075 -0.29949,-0.0022 -0.6178,0.0471 -0.905848,0.01111 -1.86e-4,-0.0011 1.95e-4,-0.0028 0,-0.004 -0.002,-1.4e-5 -0.0045,-4e-6 -0.0066,0 v 3.248446 c 0.763647,-0.0062 1.527103,-0.0079 2.290612,-0.02134 1.977429,-0.02459 3.964988,-0.158349 5.8869,-0.64329 2.274743,-0.560764 4.380452,-1.644212 6.344045,-2.898369 2.683405,-1.720799 5.183433,-3.708496 7.66528,-5.703879 0.04087,-0.02552 0.07927,-0.05772 0.117284,-0.09152 0.0552,-0.04892 0.111635,-0.09595 0.17104,-0.136389 0.0059,-0.0048 0.011,-0.0082 0.01642,-0.0133 0.0047,-0.0035 0.0109,-0.0048 0.01555,-0.0079 0.05432,-0.03148 0.112132,-0.05599 0.180366,-0.05465 v 9.14e-4 c 0.135373,-0.0011 0.267248,0.03194 0.396728,0.07062 0.01364,0.004 0.02682,0.0072 0.04087,0.01156 0.02516,0.0079 0.05132,0.01419 0.07643,0.02266 0.02342,0.0081 0.0456,0.01806 0.06886,0.0271 0.02047,0.0075 0.04247,0.01711 0.06352,0.02529 0.109024,0.04292 0.216564,0.08867 0.322984,0.137282 0.01126,0.0052 0.02114,0.0088 0.032,0.01373 0.0062,0.0028 0.01248,0.0064 0.01866,0.0083 0.292118,0.136126 0.574751,0.292564 0.852086,0.45803 0.05767,0.03446 0.116067,0.07033 0.174599,0.106182 0.0993,0.06133 0.199073,0.121424 0.29721,0.184369 0.07014,0.04467 0.140912,0.09111 0.211472,0.137278 0.08547,0.05595 0.172031,0.110762 0.257224,0.167045 0.02604,0.01785 0.05161,0.03714 0.07775,0.0551 0.0024,0.0017 0.0046,0.0031 0.007,0.0048 0.10493,0.07249 0.208839,0.146403 0.313198,0.22035 0.05677,0.04034 0.115214,0.08024 0.171046,0.120841 0.543768,0.391892 1.070677,0.807906 1.543804,1.282142 0.01429,0.01439 0.02932,0.02889 0.0431,0.04312 0.03196,0.03249 0.06497,0.06512 0.09641,0.09818 0.0389,0.0479 0.08081,0.09665 0.122171,0.147052 9.14e-4,9.14e-4 0.0025,0.0022 0.003,0.003 0.0028,0.0034 0.0051,0.0068 0.0079,0.01023 0.0343,0.04211 0.06496,0.08644 0.09285,0.131944 0.02021,0.03195 0.03747,0.0634 0.05063,0.09196 0.0042,0.01006 0.0083,0.01931 0.01198,0.02934 0.0081,0.02284 0.01465,0.04398 0.01776,0.06444 0.0048,0.02287 0.0086,0.04558 0.01068,0.06929 -0.0046,0.01969 -0.01169,0.03876 -0.01734,0.05776 -0.02056,0.08402 -0.06555,0.173413 -0.134167,0.268336 -4.59e-4,6.78e-4 -9.14e-4,0.0016 -0.0014,0.0022 -0.02458,0.03475 -0.05076,0.06801 -0.07867,0.100402 l -0.0044,0.0035 c -0.04504,0.05231 -0.09785,0.106992 -0.155486,0.162161 -0.0082,0.0081 -0.01766,0.01654 -0.02666,0.02485 -0.02875,0.02697 -0.05961,0.05385 -0.09151,0.08129 -0.02353,0.02096 -0.04668,0.04258 -0.06975,0.06309 -0.05341,0.04281 -0.108137,0.08244 -0.162596,0.123948 -0.0286,0.02226 -0.05115,0.04239 -0.08129,0.06487 -0.01342,0.01003 -0.0307,0.02055 -0.04445,0.03023 -0.451698,0.329186 -0.936752,0.608797 -1.431855,0.869862 -0.0056,0.0029 -0.01017,0.0056 -0.01555,0.0079 -0.0048,0.0026 -0.0087,0.0049 -0.01419,0.0075 -0.315467,0.165678 -0.633121,0.326459 -0.95205,0.48247 -0.110765,0.05235 -0.223316,0.101517 -0.334526,0.152828 -0.05962,0.0277 -0.122554,0.05583 -0.183482,0.0835 -0.195108,0.08896 -0.39008,0.177316 -0.586425,0.263449 -0.06388,0.02786 -0.130642,0.05661 -0.195473,0.08441 -2.093257,0.906985 -4.250013,1.66387 -6.428011,2.339932 -0.752763,0.229842 -1.510076,0.446409 -2.269285,0.655733 -0.06065,0.01649 -0.120527,0.03332 -0.181259,0.04976 -1.891064,0.51665 -3.801178,0.962925 -5.728304,1.319013 -0.0361,0.0067 -0.07177,0.01328 -0.107955,0.02001 -0.358317,0.06553 -0.717446,0.128885 -1.076887,0.187921 -0.07821,0.01281 -0.155287,0.02423 -0.233239,0.03684 -0.799265,0.127985 -1.601141,0.244435 -2.40567,0.33764 -0.974705,0.116115 -1.953562,0.186136 -2.934343,0.222132 -0.110174,0.0043 -0.219865,0.0079 -0.329197,0.01111 -0.261863,0.0074 -0.523489,0.01158 -0.785458,0.0133 -0.07347,2.17e-4 -0.147305,6.85e-4 -0.220349,4.55e-4 -0.196623,2.11e-4 -0.39295,0.0045 -0.58954,0.0017 -0.06211,-0.0084 -0.131408,-0.0039 -0.198577,-0.0035 v 0.235014 c 0.0221,0.817345 0.685411,1.469624 1.508263,1.469624 h 26.758893 c 0.83685,0 1.510046,-0.674071 1.510046,-1.510939 V 20.136717 c 0,-0.833828 -0.668523,-1.50518 -1.501159,-1.51005 z m -1.601117,1.714855 v 4.52e-4 c -0.199633,0.01421 -0.398848,0.03375 -0.597535,0.05466 -0.192723,0.02043 -0.384857,0.04386 -0.576649,0.07018 -0.111429,0.01501 -0.223062,0.03113 -0.335419,0.04885 -0.09174,0.01413 -0.183502,0.02975 -0.274993,0.04533 -0.176613,0.03002 -0.353324,0.06241 -0.531786,0.09774 -0.138773,0.02736 -0.27756,0.05537 -0.415826,0.08527 -0.07535,0.01638 -0.149878,0.03325 -0.225239,0.05063 -0.117269,0.02683 -0.234102,0.05656 -0.350967,0.08485 -0.201807,0.04997 -0.403809,0.102616 -0.606861,0.158158 -0.125054,0.03447 -0.250402,0.06802 -0.374953,0.103955 -0.233678,0.06773 -0.467956,0.139723 -0.702379,0.214135 -0.05897,0.01874 -0.119069,0.03521 -0.178151,0.0542 -2.349715,0.761898 -4.713583,1.845269 -6.782976,2.982336 -1.836798,1.009286 -3.440638,2.061272 -4.597655,2.967671 -0.578505,0.453252 -1.04448,0.870708 -1.372322,1.228393 -0.3278408,0.357752 -0.5180648,0.654464 -0.5406653,0.875197 v 0.0014 c -7.509e-4,0.0163 5.688e-4,0.035 4.549e-4,0.05197 -0.00542,0.06117 -0.00211,0.123321 0.00889,0.186149 0.019296,0.186236 0.073044,0.40496 0.1483829,0.643736 0.017263,0.05685 0.035513,0.113519 0.054643,0.169707 0.015258,0.04339 0.029761,0.08548 0.046648,0.130611 0.1044545,0.283928 0.2297465,0.561 0.3656275,0.832991 0.128167,0.262324 0.273488,0.53862 0.437153,0.828553 0.202983,0.359625 0.428427,0.735662 0.681052,1.129754 1.122419,1.751028 2.711328,3.797826 4.548786,5.740758 3.385562,3.579814 7.609026,6.807849 11.294443,7.192607 0.08511,0.0082 0.170696,0.01755 0.25545,0.02354 0.0275,0.0022 0.05508,0.0055 0.08261,0.0075 0.167501,0.0017 0.340446,0.02156 0.506458,0.007 0.02923,-4.52e-4 0.05889,4.57e-4 0.0884,-4.52e-4 h 0.0022 v -2.360763 c -0.0219,-0.0053 -0.04348,-0.01135 -0.06531,-0.01642 -0.111231,-0.05473 -0.263094,-0.05789 -0.379401,-0.106621 -1.910279,-0.540358 -3.687259,-1.468178 -5.31647,-2.602487 -0.264701,-0.184287 -0.525498,-0.374735 -0.782344,-0.5691 -0.01078,-0.008 -0.0217,-0.01578 -0.03199,-0.02397 -0.239608,-0.181983 -0.474576,-0.368616 -0.707264,-0.557998 -0.02462,-0.02022 -0.0502,-0.03936 -0.07461,-0.05951 -1.699258,-1.421514 -3.250979,-3.019841 -4.641132,-4.745146 -1.149302,-1.455491 -2.234437,-2.982634 -3.046742,-4.653649 -0.0591,-0.143439 -0.1285,-0.287179 -0.184813,-0.434489 -0.01098,-0.02967 -0.01813,-0.05472 -0.02755,-0.08261 -0.04794,-0.14168 -0.0822,-0.286239 -0.07553,-0.438044 0.0417,-0.131821 0.104369,-0.253393 0.177704,-0.369184 0.0424,-0.06406 0.08572,-0.128059 0.134167,-0.192806 4.78e-4,-6.8e-4 0.001,-9.15e-4 0.0013,-0.0017 0.132211,-0.171156 0.28281,-0.33126 0.421602,-0.491798 1.116201,-1.147773 2.494881,-1.999295 3.884619,-2.778421 0.643182,-0.350006 1.29721,-0.680623 1.960082,-0.991595 0.02922,-0.01364 0.05831,-0.02728 0.08796,-0.04086 0.28271,-0.131764 0.567451,-0.258911 0.853429,-0.383398 0.12177,-0.05286 0.24419,-0.104227 0.366956,-0.155943 0.224777,-0.09495 0.450005,-0.189411 0.67661,-0.27988 0.149377,-0.05968 0.300227,-0.116354 0.45048,-0.174153 0.229895,-0.0883 0.459198,-0.177593 0.690825,-0.261224 0.0121,-0.0044 0.02426,-0.0082 0.03641,-0.01242 1.040781,-0.374658 2.09834,-0.70241 3.168466,-0.980486 0.755717,-0.1982 1.522242,-0.344431 2.290615,-0.483363 0.04354,-0.0068 0.08817,-0.01414 0.131943,-0.02135 V 20.3467 c -0.01841,-0.0042 -0.03852,-0.0075 -0.05688,-0.0048 z m 0.0924,1.799705 -4.52e-4,0.0017 v 3.608744 c 3.460025,0.09636 7.121772,0.727692 9.693773,3.721138 v 0.0017 c 0.06324,0.100528 0.05413,0.240304 -0.0079,0.406947 -0.06254,0.166599 -0.177362,0.361034 -0.33053,0.570428 -0.306299,0.418815 -0.764405,0.899405 -1.252813,1.339894 -0.488432,0.440533 -1.008814,0.841317 -1.438517,1.099109 -0.214857,0.128888 -0.405905,0.221268 -0.561993,0.266112 -0.07824,0.0227 -0.147855,0.03381 -0.206581,0.02978 -0.05843,-0.0039 -0.108357,-0.02384 -0.143049,-0.0595 l -0.0017,-0.003 c -0.903938,-1.761872 -1.702772,-3.174021 -2.604861,-4.154252 -0.883402,-0.959862 -1.866091,-1.504299 -3.145809,-1.561579 v 11.391329 c 0.0026,-4.1e-5 0.0052,0 0.0079,0 0.0084,-0.0046 0.01674,-0.01041 0.02931,-0.01243 1.893151,-0.01 3.804091,-0.177908 5.617676,-0.747245 1.513129,-0.459143 2.917175,-1.225155 4.152951,-2.204875 h 4.59e-4 c 6.79e-4,-4.6e-4 0.0014,-0.0016 0.0022,-0.0022 0.166795,-0.132301 0.328619,-0.270594 0.48913,-0.410498 0.06769,-0.05867 0.134506,-0.118271 0.20125,-0.178597 0.164635,-0.149147 0.328278,-0.299983 0.485574,-0.456699 0.463131,-0.455804 0.900866,-0.934201 1.324786,-1.425635 0.09252,-0.107543 0.184987,-0.214512 0.277222,-0.324754 0.102541,-0.122271 0.204339,-0.245922 0.305207,-0.369628 0.116268,-0.142843 0.233204,-0.287528 0.349637,-0.434489 0.224135,-0.282817 0.445237,-0.567918 0.663726,-0.855207 0.0079,-0.01034 0.01551,-0.02005 0.02354,-0.03023 4.57e-4,-6.85e-4 0.0014,-0.0014 0.0017,-0.0022 0.304274,-0.400573 0.604266,-0.803959 0.903183,-1.207504 -0.02298,-0.05886 -0.05201,-0.116054 -0.08441,-0.172377 -0.0775,-0.115819 -0.154461,-0.232501 -0.233235,-0.345186 -0.01954,-0.02704 -0.039,-0.05427 -0.05776,-0.08129 -0.07582,-0.106953 -0.15245,-0.210842 -0.229238,-0.314976 -0.03574,-0.04863 -0.06982,-0.09761 -0.106179,-0.145723 -0.117603,-0.156362 -0.237338,-0.309878 -0.357636,-0.45981 -0.0022,-0.0027 -0.003,-0.0053 -0.0052,-0.0079 -0.01151,-0.01403 -0.02374,-0.02725 -0.03509,-0.04133 -0.09817,-0.121482 -0.197287,-0.240765 -0.297211,-0.358077 -0.05935,-0.06951 -0.119356,-0.138303 -0.179926,-0.20702 -0.05028,-0.05709 -0.10085,-0.114033 -0.151495,-0.170154 -0.08551,-0.09462 -0.17256,-0.18852 -0.260337,-0.281219 -0.01983,-0.02129 -0.03919,-0.04224 -0.05906,-0.06352 -0.786958,-0.822845 -1.656701,-1.566703 -2.595815,-2.208878 -0.02646,-0.01779 -0.05209,-0.03602 -0.07867,-0.05375 -0.100148,-0.06779 -0.202161,-0.133376 -0.303877,-0.198589 -0.04564,-0.02924 -0.09103,-0.05889 -0.136832,-0.08796 -0.100636,-0.06319 -0.202215,-0.124136 -0.304319,-0.184811 -0.04291,-0.02555 -0.08593,-0.05171 -0.129278,-0.07686 -0.132414,-0.07698 -0.265498,-0.152377 -0.400283,-0.225243 -0.147965,-0.08013 -0.297939,-0.157342 -0.448698,-0.232345 -2.182819,-1.107429 -4.586966,-1.695374 -7.011777,-1.960088 -0.335522,-0.03664 -0.671811,-0.06681 -1.007579,-0.09152 -0.0704,-0.0052 -0.14069,-0.01106 -0.211472,-0.01554 -0.05208,3.43e-4 -0.102369,-0.0031 -0.149714,-0.01067 z m -0.360738,3.601633 c -1.617979,0.02772 -3.906351,0.729562 -5.854028,1.685978 -1.038786,0.510051 -1.979196,1.091972 -2.670007,1.683752 -0.690826,0.591776 -1.132554,1.193801 -1.16574,1.74506 v 0.0017 c 0.02719,0.647642 0.390967,1.580366 0.991585,2.619815 0.600598,1.039448 1.438603,2.184455 2.416339,3.251552 1.911252,2.08589 4.355151,3.871074 6.607048,3.987254 v -1.920541 c -1.715426,-0.560957 -3.24747,-2.04296 -4.390629,-3.627847 -1.173831,-1.627451 -1.937841,-3.359508 -2.072034,-4.299567 0.04428,-0.588872 0.694831,-1.46997 1.816141,-2.197327 1.121296,-0.727377 2.71156,-1.301901 4.62742,-1.287467 h 0.01373 l 0.0052,-0.948499 v -0.689931 h -0.01068 c -0.101597,-0.0043 -0.206665,-0.0059 -0.314535,-0.004 z m 20.240529,4.262252 c 4.5e-5,0.0014 -3.4e-5,0.0029 0,0.0044 0,-6.84e-4 4.52e-4,-0.0016 4.52e-4,-0.0022 0,-6.84e-4 -4.52e-4,-0.0014 -4.52e-4,-0.0022 z M 18.23923,30.829435 c -10e-4,0.01755 -0.0014,0.03565 -0.0017,0.05332 -4.09e-4,-0.008 -0.0023,-0.01677 -0.0027,-0.02485 5.44e-4,-0.0083 0.0036,-0.01903 0.0044,-0.02843 z m 10.020752,9.968358 v 0.0052 h 9.14e-4 c -2.29e-4,-0.002 -6.86e-4,-0.0033 -9.14e-4,-0.0052 z" />
    </g>
  </g>
</svg>
