<?xml version="1.0" encoding="UTF-8" standalone="no"?>
<svg
   xmlns:dc="http://purl.org/dc/elements/1.1/"
   xmlns:cc="http://creativecommons.org/ns#"
   xmlns:rdf="http://www.w3.org/1999/02/22-rdf-syntax-ns#"
   xmlns:svg="http://www.w3.org/2000/svg"
   xmlns="http://www.w3.org/2000/svg"
   xmlns:sodipodi="http://sodipodi.sourceforge.net/DTD/sodipodi-0.dtd"
   xmlns:inkscape="http://www.inkscape.org/namespaces/inkscape"
   width="256"
   height="256"
   viewBox="0 0 67.733332 67.733335"
   version="1.1"
   id="svg8"
   inkscape:version="1.0 (4035a4fb49, 2020-05-01)"
   sodipodi:docname="nvidia-settings.svg">
  <defs
     id="defs2" />
  <sodipodi:namedview
     id="base"
     pagecolor="#ffffff"
     bordercolor="#666666"
     borderopacity="1.0"
     inkscape:pageopacity="0.0"
     inkscape:pageshadow="2"
     inkscape:zoom="1.4142136"
     inkscape:cx="77.944027"
     inkscape:cy="173.14317"
     inkscape:document-units="px"
     inkscape:current-layer="g1156"
     inkscape:document-rotation="0"
     showgrid="false"
     units="px"
     inkscape:window-width="1836"
     inkscape:window-height="1016"
     inkscape:window-x="2004"
     inkscape:window-y="27"
     inkscape:window-maximized="1" />
  <metadata
     id="metadata5">
    <rdf:RDF>
      <cc:Work
         rdf:about="">
        <dc:format>image/svg+xml</dc:format>
        <dc:type
           rdf:resource="http://purl.org/dc/dcmitype/StillImage" />
        <dc:title />
      </cc:Work>
    </rdf:RDF>
  </metadata>
  <g
     style="display:inline"
     inkscape:groupmode="layer"
     id="g1156"
     inkscape:label="Icon">
    <g
       style="display:inline"
       inkscape:label="Background"
       id="layer1"
       inkscape:groupmode="layer">
      <g
         style="display:inline"
         inkscape:groupmode="layer"
         id="layer10"
         inkscape:label="Shadow">
        <path
           d="m 1.4552083,34.925001 v 26.951184 c 0,3.024874 2.4354014,5.460274 5.4602747,5.460274 h 53.902368 c 3.024874,0 5.460274,-2.4354 5.460274,-5.460274 V 34.925001 Z"
           style="display:inline;fill:#1a1a1a;fill-opacity:1;stroke-width:0.0270095;stroke-miterlimit:4;stroke-dasharray:none;paint-order:stroke fill markers"
           id="path839" />
      </g>
      <g
         inkscape:groupmode="layer"
         id="g1174"
         inkscape:label="Colour"
         style="display:inline">
        <path
           id="rect1168"
           style="display:inline;fill:#404040;fill-opacity:1;stroke-width:0.0270095;stroke-miterlimit:4;stroke-dasharray:none;paint-order:stroke fill markers"
           d="m 1.4552083,33.866667 v 26.951184 c 0,3.024874 2.4354014,5.460274 5.4602747,5.460274 h 53.902368 c 3.024874,0 5.460274,-2.4354 5.460274,-5.460274 V 33.866667 Z" />
        <path
           id="rect1172"
           style="display:inline;fill:#323232;fill-opacity:1;stroke-width:0.0270095;stroke-miterlimit:4;stroke-dasharray:none;paint-order:stroke fill markers"
           d="m 6.915483,1.4552083 c -3.0248733,0 -5.4602747,2.4354012 -5.4602747,5.4602744 V 33.866666 H 66.278125 V 6.9154827 c 0,-3.0248732 -2.4354,-5.4602744 -5.460274,-5.4602744 z" />
      </g>
    </g>
    <g
       inkscape:groupmode="layer"
       id="g1150"
       inkscape:label="Drop Shadow"
       style="display:inline">
      <path
         id="path1148"
         style="display:inline;fill:#1a1a1a;stroke-width:0;paint-order:stroke fill markers"
         d="m 29.38226,18.316983 c -0.911187,3.1e-4 -1.644513,0.731145 -1.650712,1.64088 v 0.233248 c 0.0077,-3.71e-4 0.01448,-7.5e-4 0.02184,-0.0015 0.168525,-0.02205 0.342363,-0.02299 0.514001,-0.0267 0.259781,-0.009 0.520361,-0.01327 0.781116,-0.01098 l -0.0014,5.47e-4 c 0.372836,0.0034 0.746437,0.02235 1.120317,0.04762 0.01843,8.95e-4 0.03791,0.0013 0.05623,0.0024 0.0803,0.0058 0.160109,0.01402 0.240343,0.02081 0.146381,0.01238 0.29281,0.02333 0.43917,0.03866 0.229476,0.02439 0.458059,0.05252 0.686616,0.08412 0.0064,8.46e-4 0.01304,0.0019 0.01912,0.0029 0.126331,0.01736 0.251806,0.03879 0.377997,0.05851 0.136547,0.02114 0.272975,0.04258 0.409135,0.06658 0.138271,0.02456 0.277154,0.05034 0.41513,0.07692 0.117477,0.02291 0.234665,0.04634 0.351776,0.07108 0.139481,0.02925 0.27883,0.05864 0.417867,0.09007 0.154005,0.03489 0.307154,0.07313 0.460473,0.110886 0.09917,0.02482 0.19825,0.04699 0.297152,0.07271 8.43e-4,2.28e-4 0.0022,3.02e-4 0.0029,5.44e-4 0.25411,0.06581 0.506672,0.135702 0.758713,0.208667 0.05151,0.01493 0.103132,0.03106 0.154581,0.04642 0.142418,0.04216 0.284929,0.08334 0.426609,0.127273 0.08153,0.02601 0.161922,0.05394 0.243078,0.08024 0.07234,0.02363 0.144705,0.04799 0.216848,0.0721 0.132905,0.04473 0.265376,0.09053 0.397658,0.137121 0.521756,0.182017 1.036598,0.377225 1.543105,0.584456 0.06092,0.0252 0.121676,0.04962 0.182446,0.07493 0.15177,0.06298 0.302714,0.127106 0.452824,0.192272 0.09613,0.04171 0.191657,0.08384 0.28732,0.12618 0.12841,0.05728 0.256924,0.114154 0.384003,0.172613 0.208219,0.09579 0.415917,0.193483 0.622152,0.293324 0.009,0.005 0.02038,0.0086 0.03056,0.01415 0.08056,0.03927 0.158747,0.07993 0.238707,0.119622 0.141179,0.07007 0.282039,0.140087 0.422235,0.211942 0.123891,0.06323 0.246471,0.12729 0.368709,0.191727 0.09138,0.04817 0.183009,0.09662 0.274202,0.145839 0.153921,0.08314 0.306172,0.166546 0.457201,0.250721 0.0081,0.0044 0.01631,0.009 0.02465,0.01354 0.01349,0.0077 0.02678,0.01523 0.04033,0.023 0.141403,0.07936 0.284117,0.157954 0.422781,0.238158 2.082923,1.204974 3.855401,2.512897 5.122574,3.683244 0.633574,0.585188 1.13934,1.135665 1.49667,1.621226 0.125132,0.170042 0.225063,0.328788 0.312443,0.481774 0.06723,0.117456 0.121883,0.229262 0.16552,0.33539 0.0019,0.005 0.0043,0.0092 0.0062,0.01468 0.05835,0.144815 0.101768,0.282094 0.113615,0.403125 v 0.0019 c -0.0024,0.16647 -0.124288,0.471935 -0.361608,0.88653 -0.237328,0.414569 -0.59014,0.936807 -1.058054,1.526723 -0.935833,1.179884 -2.329074,2.630675 -4.165018,4.038845 -0.992517,0.761258 -2.118606,1.506949 -3.367527,2.192577 -0.01219,0.0068 -0.02388,0.01424 -0.03559,0.02081 -0.0384,0.0209 -0.07721,0.04042 -0.115798,0.06124 -0.181677,0.09824 -0.363119,0.196357 -0.550061,0.291683 -0.233735,0.119508 -0.469523,0.235314 -0.706827,0.347405 -0.0019,8.45e-4 -0.003,0.0017 -0.0048,0.0024 -0.126398,0.0596 -0.257008,0.116608 -0.385639,0.1748 -0.148698,0.06731 -0.297419,0.133977 -0.447362,0.198277 -0.152948,0.06567 -0.307807,0.12992 -0.46375,0.193369 -0.102807,0.04187 -0.205788,0.08221 -0.309171,0.122361 -0.406161,0.159173 -0.820965,0.311315 -1.247046,0.453365 -0.214688,0.0716 -0.433576,0.139141 -0.653293,0.20593 -0.05726,0.01719 -0.11425,0.03417 -0.171516,0.05122 -1.148037,0.34026 -2.35973,0.615623 -3.642282,0.800784 -0.01598,0.0024 -0.03263,0.0048 -0.04869,0.0071 -0.218287,0.03088 -0.438249,0.06011 -0.660398,0.08637 -0.0377,0.0044 -0.07455,0.0089 -0.111974,0.01355 -0.19308,0.02151 -0.387965,0.04148 -0.583927,0.05899 -0.166165,0.0151 -0.332801,0.02768 -0.499251,0.03982 -0.09657,0.0069 -0.192795,0.01453 -0.290054,0.02029 -0.143738,0.0088 -0.287123,0.01503 -0.430979,0.02129 -0.09121,0.0041 -0.183261,0.0079 -0.275298,0.011 -0.06367,0.0022 -0.12776,0.0064 -0.191727,0.0082 -0.327566,-0.0024 -0.675811,0.05147 -0.990867,0.01209 -1.98e-4,-0.0012 2.19e-4,-0.0031 0,-0.0044 -0.0022,-1.4e-5 -0.0049,-5e-6 -0.0072,0 v 3.553236 c 0.835237,-0.0068 1.670484,-0.0088 2.505568,-0.02355 2.162822,-0.02692 4.336351,-0.173157 6.438443,-0.703556 2.488011,-0.613323 4.791115,-1.798596 6.938795,-3.170325 2.934975,-1.882121 5.669611,-4.056082 8.384126,-6.238532 0.04474,-0.02788 0.0868,-0.06305 0.128365,-0.100012 0.06036,-0.05354 0.12184,-0.104883 0.18681,-0.149103 0.0064,-0.0052 0.01203,-0.0091 0.01796,-0.01469 0.0051,-0.0038 0.01234,-0.0052 0.01744,-0.0086 0.0594,-0.03442 0.122557,-0.06102 0.197194,-0.05954 v 9.26e-4 c 0.148058,-0.0012 0.292092,0.03464 0.433712,0.07695 0.01492,0.0044 0.02943,0.0078 0.04478,0.01256 0.02754,0.0086 0.05619,0.0159 0.08363,0.02513 0.02562,0.0089 0.04996,0.01963 0.0754,0.02947 0.02238,0.0082 0.04635,0.01884 0.06939,0.02779 0.119235,0.04695 0.237035,0.09702 0.353413,0.150209 0.01231,0.0057 0.02316,0.0091 0.03504,0.01469 0.0068,0.0032 0.01349,0.007 0.02028,0.0091 0.319513,0.148891 0.628528,0.320459 0.931869,0.501444 0.06308,0.03769 0.127171,0.07659 0.191184,0.115798 0.10862,0.06708 0.21767,0.132726 0.325005,0.201561 0.07674,0.04886 0.15388,0.09971 0.231055,0.150214 0.09354,0.06126 0.188131,0.12144 0.281314,0.182995 0.02845,0.01943 0.05671,0.04059 0.08528,0.06018 0.0026,0.0019 0.005,0.0034 0.0077,0.0053 0.114764,0.07927 0.228341,0.16001 0.342493,0.240892 0.06209,0.04416 0.125747,0.08778 0.186812,0.132185 0.594743,0.428622 1.171464,0.883477 1.688945,1.402179 0.01565,0.01569 0.03196,0.03202 0.047,0.04758 0.03494,0.0356 0.07106,0.0709 0.105417,0.107063 0.04256,0.05241 0.08857,0.106013 0.133824,0.161133 10e-4,10e-4 0.0027,0.0024 0.0033,0.0033 0.0031,0.0037 0.0056,0.0072 0.0086,0.01101 0.03751,0.04606 0.07109,0.09444 0.101573,0.144208 0.02211,0.03499 0.04074,0.06936 0.05512,0.10053 0.0046,0.01098 0.0089,0.02134 0.01304,0.03225 0.0089,0.02498 0.01622,0.04812 0.01967,0.07053 0.0053,0.02501 0.0092,0.04995 0.01159,0.07589 -0.005,0.02154 -0.01297,0.04206 -0.0192,0.06284 -0.02252,0.09194 -0.07135,0.190065 -0.146389,0.293883 -5.49e-4,8.44e-4 -9.26e-4,0.0017 -0.0015,0.0024 -0.02688,0.03801 -0.05583,0.07436 -0.08637,0.109787 l -0.0044,0.0038 c -0.04925,0.05715 -0.107381,0.116624 -0.170425,0.17698 -0.009,0.0089 -0.01908,0.0183 -0.02897,0.02726 -0.03146,0.0295 -0.06512,0.05892 -0.100007,0.08893 -0.02574,0.02292 -0.05115,0.04698 -0.07637,0.06944 -0.05843,0.04686 -0.118506,0.09004 -0.17807,0.13545 -0.03126,0.02434 -0.05597,0.04647 -0.08893,0.07108 -0.01467,0.01096 -0.03365,0.02228 -0.04869,0.03283 -0.494044,0.360059 -1.024537,0.666004 -1.566054,0.951548 -0.0061,0.0032 -0.01103,0.0061 -0.0169,0.0086 -0.0052,0.0028 -0.009,0.0054 -0.01522,0.0082 -0.345048,0.181205 -0.692837,0.357037 -1.041666,0.527661 -0.121148,0.05731 -0.244344,0.111023 -0.365977,0.167152 -0.06521,0.03029 -0.133833,0.0609 -0.200477,0.09116 -0.213394,0.0973 -0.426518,0.194204 -0.641267,0.288418 -0.06991,0.03045 -0.143207,0.06192 -0.214113,0.0923 -2.2895,0.992017 -4.648385,1.819656 -7.030564,2.559099 -0.823335,0.251404 -1.651699,0.488274 -2.482086,0.717205 -0.06631,0.01815 -0.131855,0.03664 -0.19828,0.0546 -2.068346,0.56508 -4.157491,1.053117 -6.265285,1.442594 -0.03948,0.0073 -0.07842,0.01457 -0.117988,0.0219 -0.391908,0.07168 -0.784539,0.140805 -1.177677,0.205382 -0.08555,0.01402 -0.169838,0.02658 -0.255092,0.04033 -0.874197,0.139982 -1.751236,0.267305 -2.631204,0.369252 -1.066085,0.127005 -2.136934,0.203697 -3.209666,0.243076 -0.1205,0.0047 -0.240374,0.0084 -0.35996,0.01209 -0.286399,0.0081 -0.572702,0.01281 -0.859227,0.01468 -0.08034,2.32e-4 -0.160982,8.38e-4 -0.240881,5.48e-4 -0.215052,2.37e-4 -0.429556,0.0044 -0.644564,0.0015 -0.06793,-0.0092 -0.143919,-0.0043 -0.217394,-0.0038 v 0.257281 c 0.02419,0.89398 0.749624,1.607022 1.649616,1.607022 h 29.267206 c 0.915309,0 1.651808,-0.737039 1.651808,-1.652363 V 19.968389 c 0,-0.911998 -0.731275,-1.646488 -1.641976,-1.651808 l -29.276517,-4.07e-4 z m -1.75123,1.87631 c -0.218341,0.01563 -0.436522,0.03613 -0.653835,0.05899 -0.21079,0.02236 -0.420578,0.04816 -0.630349,0.07691 -0.121872,0.01642 -0.244179,0.03408 -0.367073,0.05351 -0.100342,0.0155 -0.200362,0.03275 -0.300427,0.04979 -0.193169,0.03283 -0.387088,0.06844 -0.582289,0.107068 -0.151788,0.02991 -0.303228,0.06064 -0.454457,0.09332 -0.08241,0.01795 -0.164465,0.0361 -0.246898,0.05512 -0.128271,0.02935 -0.255626,0.06188 -0.38346,0.09278 -0.220716,0.05466 -0.441581,0.111858 -0.66367,0.172609 -0.136774,0.0377 -0.273994,0.07486 -0.410223,0.114161 -0.255584,0.07409 -0.511603,0.152397 -0.768002,0.233792 -0.06449,0.02047 -0.130389,0.0393 -0.195008,0.06019 -2.570005,0.833327 -5.155539,2.0179 -7.418929,3.261561 -2.008994,1.103902 -3.76314,2.254342 -5.0286188,3.245709 -0.6327351,0.495727 -1.142467,0.952505 -1.5010435,1.343721 -0.3585755,0.391304 -0.5668501,0.7156 -0.5915705,0.957024 v 0.0019 c -8.254e-4,0.01789 6.757e-4,0.03825 5.462e-4,0.05685 -0.00593,0.06691 -0.00168,0.134481 0.010414,0.203199 0.021107,0.203692 0.0793,0.443478 0.1616848,0.704643 0.01888,0.06219 0.039145,0.123712 0.060086,0.185174 0.016688,0.04742 0.032326,0.09318 0.050798,0.142557 0.1142455,0.310533 0.2512222,0.614165 0.3998422,0.911657 0.140185,0.286918 0.2989479,0.588538 0.4779545,0.90566 0.2220194,0.393331 0.4687542,0.805089 0.7450595,1.236122 1.2276616,1.915189 2.9659086,4.153864 4.9756356,6.278936 3.702951,3.915427 8.322122,7.446021 12.353047,7.866842 0.09309,0.009 0.186969,0.019 0.279673,0.02562 0.03006,0.0024 0.05995,0.006 0.09006,0.0082 0.183207,0.0019 0.372307,0.02361 0.553881,0.0077 0.032,-5.01e-4 0.06443,4.81e-4 0.09669,-5.42e-4 h 0.0024 v -2.58231 c -0.02397,-0.0058 -0.04707,-0.0124 -0.07106,-0.018 -0.121657,-0.05986 -0.288473,-0.06307 -0.415685,-0.116346 -2.089384,-0.591024 -4.032143,-1.605766 -5.814093,-2.846423 -0.28952,-0.201564 -0.575027,-0.409562 -0.855948,-0.622157 -0.01179,-0.0088 -0.02373,-0.01714 -0.03504,-0.02611 -0.262072,-0.199043 -0.519504,-0.40357 -0.77401,-0.610693 -0.02693,-0.02212 -0.05463,-0.04289 -0.08133,-0.06494 -1.858617,-1.554877 -3.555621,-3.303224 -5.076112,-5.190274 -1.257031,-1.591939 -2.444103,-3.262127 -3.332564,-5.089804 -0.06466,-0.156875 -0.140512,-0.314095 -0.202116,-0.475209 -0.01201,-0.03244 -0.01966,-0.0596 -0.03,-0.09006 -0.05244,-0.154966 -0.08983,-0.313557 -0.08255,-0.479596 0.04561,-0.144179 0.113692,-0.277017 0.193913,-0.403668 0.04637,-0.07009 0.09451,-0.140013 0.147482,-0.210842 5.25e-4,-7.96e-4 6.78e-4,-0.001 9.26e-4,-0.0019 0.144596,-0.187188 0.309757,-0.362436 0.461564,-0.538041 1.220845,-1.255363 2.728567,-2.187062 4.248595,-3.03924 0.703486,-0.382805 1.418412,-0.744123 2.143419,-1.084265 0.03192,-0.01491 0.06372,-0.02996 0.09615,-0.04487 0.309232,-0.144094 0.620731,-0.282785 0.933519,-0.41895 0.133189,-0.05782 0.267758,-0.114406 0.402028,-0.170979 0.245849,-0.103857 0.491738,-0.206927 0.739595,-0.30588 0.163383,-0.06527 0.328358,-0.127426 0.492703,-0.190646 0.251454,-0.09659 0.502102,-0.194195 0.755438,-0.285672 0.01323,-0.0048 0.02654,-0.0089 0.03981,-0.01354 1.138351,-0.409786 2.295397,-0.768109 3.465835,-1.072264 0.826564,-0.216775 1.664626,-0.376795 2.50503,-0.528757 0.04765,-0.0074 0.09633,-0.01514 0.144202,-0.02299 v -1.961816 c -0.02015,-0.0046 -0.04177,-0.0082 -0.0618,-0.0053 z m 0.101046,1.967535 -5.39e-4,0.0019 v 3.94708 c 3.784402,0.105401 7.789244,0.795896 10.602367,4.069982 v 0.0019 c 0.06916,0.109945 0.05923,0.262917 -0.0086,0.445179 -0.0684,0.18223 -0.194081,0.394779 -0.361608,0.623806 -0.335022,0.458064 -0.835748,0.983744 -1.369946,1.46554 -0.534222,0.481823 -1.103708,0.920302 -1.573697,1.202256 -0.234998,0.140976 -0.443788,0.242089 -0.614509,0.291139 -0.08559,0.02483 -0.161914,0.03671 -0.226144,0.03223 -0.06391,-0.0043 -0.118273,-0.02593 -0.156221,-0.06494 l -0.0019,-0.0033 c -0.988567,-1.927119 -1.862052,-3.471966 -2.848711,-4.54409 -0.96622,-1.049859 -2.04103,-1.644882 -3.440727,-1.70752 v 12.459006 c 0.0028,-4e-5 0.0053,0 0.0082,0 0.0092,-0.005 0.01849,-0.01129 0.03223,-0.01355 2.070636,-0.01089 4.160965,-0.19446 6.144579,-0.817169 1.654973,-0.502191 3.190284,-1.340047 4.541921,-2.411608 h 5.45e-4 c 8.37e-4,-5.65e-4 0.0014,-0.0017 0.0024,-0.0024 0.182431,-0.144706 0.359746,-0.295991 0.535302,-0.449004 0.07403,-0.06415 0.147125,-0.129581 0.22013,-0.195551 0.180063,-0.163135 0.35889,-0.327849 0.530948,-0.499254 0.506546,-0.498535 0.985492,-1.021986 1.449151,-1.559497 0.101189,-0.117621 0.202272,-0.234471 0.303151,-0.355049 0.112159,-0.133735 0.223431,-0.268911 0.333751,-0.404208 0.127167,-0.15624 0.255034,-0.314492 0.382369,-0.475226 0.245147,-0.309339 0.486973,-0.62147 0.725946,-0.935701 0.0086,-0.01131 0.01683,-0.02166 0.02562,-0.03284 5.64e-4,-8.31e-4 0.0014,-0.0014 0.0019,-0.0024 0.3328,-0.438126 0.661198,-0.879411 0.988134,-1.320785 -0.02513,-0.06438 -0.05689,-0.126859 -0.0923,-0.188446 -0.08477,-0.126676 -0.168931,-0.254205 -0.2551,-0.377449 -0.02137,-0.02956 -0.04283,-0.05941 -0.06332,-0.08893 -0.08294,-0.116972 -0.166726,-0.230784 -0.250719,-0.344676 -0.03911,-0.05319 -0.07658,-0.106857 -0.116347,-0.1595 -0.128627,-0.171006 -0.25953,-0.338533 -0.391106,-0.502527 -0.0024,-0.0029 -0.0033,-0.0058 -0.0057,-0.0086 -0.01259,-0.01532 -0.02576,-0.02999 -0.03818,-0.04541 -0.107379,-0.132874 -0.215726,-0.263344 -0.325013,-0.391651 -0.0649,-0.07603 -0.13094,-0.151513 -0.197183,-0.226689 -0.055,-0.06244 -0.110127,-0.124331 -0.165523,-0.185718 -0.09351,-0.103462 -0.188563,-0.206139 -0.284568,-0.307527 -0.02169,-0.02328 -0.04327,-0.04619 -0.06495,-0.06935 -0.860743,-0.900002 -1.811619,-1.713645 -2.838779,-2.416015 -0.02893,-0.01951 -0.05728,-0.03959 -0.08637,-0.059 -0.109533,-0.07412 -0.220861,-0.146068 -0.332117,-0.217403 -0.04992,-0.03193 -0.09955,-0.06434 -0.149661,-0.09616 -0.11007,-0.06912 -0.221533,-0.135744 -0.333206,-0.202101 -0.04691,-0.02793 -0.09351,-0.05663 -0.140927,-0.08412 -0.144833,-0.0842 -0.290658,-0.166648 -0.438078,-0.246352 -0.161842,-0.08764 -0.325621,-0.171955 -0.490511,-0.254001 -2.387456,-1.211235 -5.016976,-1.854435 -7.669111,-2.143955 -0.366981,-0.0401 -0.735049,-0.07294 -1.102292,-0.100007 -0.07702,-0.0057 -0.153639,-0.012 -0.231062,-0.0169 -0.05696,3.54e-4 -0.112079,-0.0032 -0.163869,-0.0116 z m -0.394919,3.939421 c -1.769664,0.03032 -4.272677,0.798013 -6.402942,1.844081 -1.136175,0.557875 -2.164589,1.194074 -2.920161,1.84135 -0.755588,0.647253 -1.238608,1.305602 -1.274909,1.908531 v 0.0024 c 0.02973,0.708353 0.427892,1.728088 1.084817,2.864981 0.656898,1.136887 1.573286,2.38939 2.642678,3.556523 2.090439,2.28144 4.763096,4.234056 7.226108,4.36112 V 40.378472 C 25.816501,39.764929 24.141147,38.14411 22.890821,36.410637 21.606939,34.63063 20.771273,32.736323 20.624497,31.70813 c 0.04843,-0.644073 0.759677,-1.60788 1.986101,-2.403424 1.22641,-0.795573 2.965925,-1.423961 5.061392,-1.408185 h 0.0152 l 0.0057,-1.037305 v -0.754864 h -0.01207 c -0.111128,-0.0047 -0.2256,-0.0059 -0.343578,-0.0038 z m 22.138248,4.661554 c 4.8e-5,0.0015 -3.8e-5,0.0032 0,0.0048 0,-8.36e-4 5.55e-4,-0.0017 5.55e-4,-0.0024 0,-8.42e-4 -5.55e-4,-0.0014 -5.55e-4,-0.0024 z m -32.701306,0.901281 c -0.0011,0.01932 -0.0015,0.03905 -0.0019,0.0585 -4.45e-4,-0.0087 -0.0025,-0.01844 -0.0029,-0.02726 5.94e-4,-0.0091 0.0039,-0.02082 0.0048,-0.03105 z M 27.734264,42.56642 v 0.0057 h 9.26e-4 c -2.79e-4,-0.0022 -8.21e-4,-0.0036 -9.26e-4,-0.0057 z" />
    </g>
    <g
       inkscape:groupmode="layer"
       id="g1154"
       inkscape:label="Logo"
       style="display:inline">
      <path
         d="m 29.382082,17.198156 c -0.911188,3.24e-4 -1.644439,0.731183 -1.650639,1.640924 v 0.233237 c 0.0077,-3.49e-4 0.01453,-6.93e-4 0.02186,-0.0015 0.168527,-0.02204 0.342462,-0.02297 0.514095,-0.0267 0.259787,-0.009 0.520105,-0.01298 0.780862,-0.01072 l -0.0015,4.96e-4 c 0.372834,0.0034 0.746627,0.02244 1.120511,0.04766 0.01841,8.89e-4 0.03801,0.0013 0.05636,0.0024 0.0803,0.0058 0.159797,0.01367 0.240035,0.02042 0.146381,0.01238 0.292904,0.02352 0.439268,0.03886 0.229478,0.02439 0.458037,0.05251 0.686593,0.08407 0.0064,8.47e-4 0.01332,0.0019 0.0194,0.0029 0.126316,0.01735 0.251847,0.03908 0.378038,0.05879 0.13654,0.02114 0.272985,0.04252 0.409141,0.06657 0.138274,0.02456 0.27699,0.05012 0.414963,0.07676 0.117478,0.02289 0.234686,0.04624 0.3518,0.07095 0.139482,0.02925 0.278848,0.05892 0.417883,0.09035 0.154004,0.03488 0.306831,0.07301 0.460158,0.110786 0.09917,0.02482 0.198482,0.04669 0.297375,0.07241 7.51e-4,2.13e-4 0.0022,7.18e-4 0.0029,9.26e-4 0.254112,0.06576 0.506465,0.135496 0.758508,0.208462 0.05151,0.01493 0.103552,0.03123 0.155006,0.04665 0.14242,0.04216 0.284942,0.08337 0.426629,0.127308 0.08156,0.02601 0.161804,0.05381 0.242958,0.08017 0.07235,0.02364 0.144572,0.0478 0.216719,0.07191 0.132903,0.04465 0.265185,0.09045 0.39747,0.137024 0.52176,0.182021 1.036742,0.377317 1.543252,0.584552 0.06093,0.0252 0.121925,0.04953 0.182702,0.07484 0.151766,0.06298 0.302749,0.127263 0.452873,0.192418 0.09614,0.0417 0.191505,0.08398 0.287166,0.126339 0.12841,0.05728 0.256786,0.114031 0.383872,0.172495 0.20822,0.09579 0.415731,0.193647 0.621968,0.293491 0.009,0.005 0.02039,0.0085 0.03059,0.01407 0.08058,0.03926 0.159118,0.07983 0.239072,0.119532 0.141185,0.07004 0.282057,0.140006 0.422255,0.21186 0.123892,0.06323 0.246081,0.127503 0.368318,0.191935 0.09141,0.04819 0.183345,0.09655 0.274539,0.145775 0.153925,0.08314 0.306217,0.166542 0.457244,0.250731 0.0081,0.0044 0.01598,0.0091 0.02429,0.01359 0.0135,0.0077 0.02673,0.01506 0.04029,0.02287 0.1414,0.07935 0.284564,0.157892 0.423228,0.238091 2.082924,1.204969 3.8553,2.51286 5.122472,3.683217 0.633571,0.58517 1.139267,1.135931 1.4966,1.621486 0.125124,0.170036 0.225061,0.328553 0.312442,0.481543 0.06723,0.117452 0.122055,0.229153 0.165698,0.335278 0.0019,0.005 0.0043,0.0096 0.0062,0.01502 0.05835,0.144807 0.10137,0.28179 0.113219,0.402815 v 0.0019 c -0.0024,0.166462 -0.124201,0.472199 -0.361518,0.886792 -0.237336,0.414571 -0.589917,0.936806 -1.05783,1.526729 -0.935836,1.179875 -2.329282,2.630732 -4.165227,4.038902 -0.992511,0.761273 -2.118434,1.506808 -3.367356,2.192435 -0.01219,0.0068 -0.02386,0.01438 -0.0355,0.0209 -0.0384,0.0209 -0.07754,0.04041 -0.116135,0.06125 -0.181678,0.09824 -0.363116,0.196206 -0.550054,0.291545 -0.233732,0.119505 -0.469207,0.235339 -0.706513,0.347429 -0.0019,7.49e-4 -0.003,0.0018 -0.0048,0.0024 -0.126402,0.05959 -0.257184,0.116752 -0.385815,0.17493 -0.148698,0.06732 -0.297581,0.133947 -0.447523,0.19825 -0.152946,0.06564 -0.30761,0.129947 -0.46356,0.193398 -0.102799,0.04187 -0.205658,0.08183 -0.309037,0.121963 -0.40617,0.159182 -0.821247,0.311786 -1.247333,0.453843 -0.214682,0.07161 -0.433344,0.138747 -0.653061,0.205536 -0.05729,0.01719 -0.114262,0.03447 -0.171528,0.05149 -1.148036,0.340255 -2.359834,0.615624 -3.642382,0.80078 -0.01603,0.0024 -0.03258,0.0048 -0.04861,0.0072 -0.218289,0.03089 -0.438206,0.06022 -0.660355,0.08651 -0.0377,0.0044 -0.07483,0.0084 -0.112244,0.0131 -0.193073,0.02157 -0.387613,0.04177 -0.583578,0.05928 -0.166167,0.01509 -0.333066,0.0277 -0.499514,0.03982 -0.09656,0.0069 -0.192836,0.01465 -0.290089,0.02041 -0.14375,0.0088 -0.287151,0.01465 -0.431004,0.0209 -0.09119,0.0041 -0.18298,0.0081 -0.275023,0.01119 -0.06367,0.0022 -0.127966,0.0064 -0.191937,0.0082 -0.327567,-0.0024 -0.675719,0.05152 -0.990771,0.01215 -2.04e-4,-0.0012 2.13e-4,-0.0031 0,-0.0044 -0.0022,-1.5e-5 -0.0049,-4e-6 -0.0072,0 v 3.552988 c 0.835239,-0.0068 1.670269,-0.0086 2.505356,-0.02334 2.162813,-0.0269 4.336706,-0.173194 6.438797,-0.703598 2.488001,-0.613336 4.79112,-1.798357 6.938799,-3.170091 2.934975,-1.882124 5.66938,-4.056168 8.3839,-6.238618 0.0447,-0.02791 0.0867,-0.06313 0.12828,-0.100102 0.06037,-0.05351 0.122101,-0.104945 0.187075,-0.149176 0.0064,-0.0052 0.01203,-0.009 0.01796,-0.01455 0.0051,-0.0038 0.01192,-0.0052 0.01701,-0.0086 0.05941,-0.03443 0.122645,-0.06124 0.197276,-0.05977 v 10e-4 c 0.148064,-0.0012 0.292302,0.03493 0.433921,0.07724 0.01492,0.0044 0.02934,0.0079 0.0447,0.01264 0.02752,0.0086 0.05613,0.01552 0.08359,0.02478 0.02562,0.0089 0.04988,0.01975 0.07532,0.02964 0.02239,0.0082 0.04645,0.01871 0.06948,0.02766 0.119245,0.04694 0.236867,0.09698 0.353263,0.150152 0.01232,0.0057 0.02312,0.0096 0.035,0.01502 0.0068,0.0031 0.01365,0.007 0.02041,0.0091 0.319504,0.148887 0.628634,0.319991 0.931969,0.50097 0.06308,0.03769 0.126948,0.07692 0.190967,0.116136 0.108614,0.06708 0.217737,0.132808 0.325074,0.201654 0.07672,0.04886 0.154122,0.09965 0.231297,0.150148 0.09348,0.0612 0.188159,0.121146 0.281339,0.182705 0.02848,0.01952 0.05645,0.04062 0.08504,0.06026 0.0026,0.0019 0.005,0.0034 0.0077,0.0053 0.114768,0.07928 0.228418,0.160128 0.342561,0.241007 0.06209,0.04412 0.126015,0.08776 0.187081,0.13217 0.594746,0.428632 1.171053,0.883648 1.688536,1.402343 0.01563,0.01574 0.03207,0.0316 0.04714,0.04716 0.03496,0.03554 0.07106,0.07123 0.105446,0.107387 0.04255,0.05239 0.08838,0.105714 0.133624,0.160838 0.001,10e-4 0.0027,0.0024 0.0033,0.0033 0.0031,0.0037 0.0056,0.0074 0.0086,0.01119 0.03751,0.04606 0.07105,0.09454 0.101551,0.144314 0.0221,0.03494 0.04098,0.06934 0.05538,0.100585 0.0046,0.011 0.0091,0.02112 0.0131,0.03209 0.0089,0.02498 0.01602,0.0481 0.01943,0.07048 0.0053,0.02501 0.0094,0.04985 0.01168,0.07579 -0.005,0.02154 -0.01279,0.04239 -0.01897,0.06317 -0.02249,0.0919 -0.0717,0.18967 -0.146745,0.293493 -5.02e-4,7.41e-4 -0.001,0.0018 -0.0015,0.0024 -0.02688,0.03801 -0.05552,0.07439 -0.08604,0.109815 l -0.0048,0.0038 c -0.04926,0.05721 -0.10702,0.117022 -0.170063,0.177363 -0.009,0.0089 -0.01931,0.01809 -0.02916,0.02718 -0.03144,0.0295 -0.0652,0.0589 -0.100094,0.08891 -0.02574,0.02292 -0.05106,0.04657 -0.07629,0.069 -0.05842,0.04682 -0.118275,0.09017 -0.17784,0.135568 -0.03128,0.02435 -0.05595,0.04637 -0.08891,0.07095 -0.01468,0.01097 -0.03358,0.02248 -0.04862,0.03306 -0.494044,0.360048 -1.024572,0.665872 -1.566091,0.951412 -0.0061,0.0032 -0.01112,0.0061 -0.01701,0.0086 -0.0052,0.0028 -0.0095,0.0054 -0.01552,0.0082 -0.345043,0.18121 -0.692477,0.357065 -1.041305,0.527702 -0.121149,0.05726 -0.244252,0.111034 -0.365888,0.167155 -0.06521,0.0303 -0.134044,0.06106 -0.200683,0.09133 -0.2134,0.0973 -0.426651,0.19394 -0.641403,0.288148 -0.06987,0.03047 -0.142889,0.06192 -0.213798,0.09232 -2.2895,0.992015 -4.648452,1.819858 -7.030637,2.559301 -0.823335,0.251389 -1.651646,0.488259 -2.482031,0.717208 -0.06634,0.01804 -0.131826,0.03644 -0.198252,0.05442 -2.068351,0.565086 -4.157538,1.053199 -6.265332,1.442671 -0.03948,0.0073 -0.0785,0.01453 -0.118076,0.02189 -0.391909,0.07167 -0.784707,0.140968 -1.177845,0.205538 -0.08554,0.01401 -0.169845,0.0265 -0.255106,0.04029 -0.874196,0.139984 -1.751247,0.267351 -2.631201,0.369294 -1.066084,0.127 -2.136709,0.203586 -3.209438,0.242956 -0.120502,0.0047 -0.240477,0.0086 -0.360059,0.01215 -0.286413,0.0081 -0.572566,0.01266 -0.859095,0.01455 -0.08036,2.37e-4 -0.161114,7.49e-4 -0.241006,4.98e-4 -0.215057,2.31e-4 -0.429789,0.0049 -0.64481,0.0019 -0.06793,-0.0092 -0.143727,-0.0043 -0.217193,-0.0038 v 0.257046 c 0.02417,0.893972 0.749668,1.607402 1.649662,1.607402 H 58.64861 c 0.915305,0 1.651613,-0.737265 1.651613,-1.65259 V 18.849534 c 0,-0.911999 -0.731197,-1.64629 -1.641892,-1.651617 z m -1.751222,1.875623 v 4.95e-4 c -0.218348,0.01554 -0.43624,0.03691 -0.653554,0.05978 -0.21079,0.02235 -0.420937,0.04797 -0.630709,0.07676 -0.121876,0.01642 -0.243975,0.03405 -0.366865,0.05343 -0.100342,0.01546 -0.200705,0.03254 -0.300774,0.04958 -0.19317,0.03283 -0.386448,0.06826 -0.581641,0.106902 -0.151782,0.02992 -0.303581,0.06056 -0.454809,0.09327 -0.08241,0.01792 -0.163929,0.03637 -0.246355,0.05538 -0.128263,0.02935 -0.256049,0.06186 -0.383871,0.0928 -0.220726,0.05466 -0.441666,0.112237 -0.663754,0.172986 -0.136778,0.0377 -0.273877,0.0744 -0.410105,0.1137 -0.255585,0.07408 -0.511827,0.152822 -0.768227,0.23421 -0.0645,0.0205 -0.130231,0.03851 -0.194852,0.05928 -2.570001,0.833326 -5.155482,2.018262 -7.41888,3.261929 -2.008998,1.103907 -3.763199,2.254517 -5.0286851,3.245891 -0.6327407,0.495744 -1.1424008,0.952337 -1.5009777,1.343554 -0.3585757,0.391292 -0.5666332,0.715821 -0.5913525,0.957247 v 0.0015 c -8.213e-4,0.01783 6.221e-4,0.03828 4.976e-4,0.05684 -0.00593,0.06691 -0.00231,0.134882 0.00972,0.2036 0.021105,0.203696 0.079892,0.442925 0.1622938,0.704086 0.018881,0.06218 0.038842,0.124162 0.059766,0.185617 0.016689,0.04746 0.032551,0.09349 0.051021,0.142856 0.1142468,0.310547 0.2512852,0.613594 0.3999047,0.911084 0.1401835,0.286917 0.2991279,0.589116 0.478136,0.90623 0.2220128,0.39334 0.4685925,0.80463 0.7449006,1.235669 1.2276456,1.915186 2.9655156,4.153872 4.9752356,6.278953 3.702958,3.915422 8.322372,7.446085 12.353297,7.866914 0.09309,0.009 0.186699,0.0192 0.279398,0.02575 0.03008,0.0024 0.06024,0.006 0.09035,0.0082 0.183205,0.0019 0.372363,0.02358 0.553939,0.0077 0.03197,-4.94e-4 0.06441,5e-4 0.09669,-4.94e-4 h 0.0024 v -2.582084 c -0.02395,-0.0058 -0.04755,-0.01241 -0.07143,-0.01796 -0.121659,-0.05986 -0.287759,-0.06332 -0.41497,-0.116617 -2.089368,-0.591016 -4.03294,-1.605819 -5.814889,-2.84647 -0.289517,-0.201564 -0.574764,-0.409866 -0.855689,-0.622453 -0.01179,-0.0088 -0.02373,-0.01726 -0.03499,-0.02622 -0.262071,-0.199044 -0.519067,-0.403174 -0.77357,-0.610311 -0.02693,-0.02211 -0.05491,-0.04305 -0.0816,-0.06509 -1.858564,-1.554781 -3.555759,-3.302951 -5.076239,-5.190003 -1.257048,-1.591943 -2.443915,-3.262256 -3.332374,-5.089929 -0.06464,-0.156886 -0.140546,-0.314102 -0.202139,-0.475222 -0.01201,-0.03245 -0.01983,-0.05985 -0.03013,-0.09035 -0.05243,-0.154963 -0.08991,-0.313074 -0.08261,-0.479111 0.04561,-0.144179 0.114153,-0.277149 0.194364,-0.403795 0.04637,-0.07006 0.09376,-0.140065 0.146745,-0.210882 5.22e-4,-7.43e-4 0.0011,-10e-4 0.0014,-0.0019 0.144606,-0.187201 0.309323,-0.362315 0.461127,-0.537904 1.220845,-1.255376 2.728776,-2.186728 4.248802,-3.038897 0.70348,-0.38282 1.418823,-0.744432 2.14384,-1.084557 0.03196,-0.01492 0.06378,-0.02984 0.09621,-0.04469 0.309214,-0.144117 0.62065,-0.283184 0.933438,-0.419342 0.133186,-0.05781 0.267083,-0.113998 0.401358,-0.170562 0.24585,-0.103851 0.492193,-0.207169 0.740042,-0.306119 0.163382,-0.06527 0.328374,-0.127262 0.492713,-0.19048 0.251448,-0.09658 0.502248,-0.194242 0.75559,-0.285714 0.01323,-0.0048 0.02654,-0.009 0.03982,-0.01359 1.138354,-0.409782 2.295059,-0.76826 3.46551,-1.072406 0.826565,-0.216781 1.664952,-0.376721 2.50536,-0.528678 0.04762,-0.0074 0.09644,-0.01547 0.144313,-0.02335 v -1.961623 c -0.02014,-0.0046 -0.04213,-0.0082 -0.06221,-0.0053 z m 0.101066,1.968428 -4.94e-4,0.0019 v 3.947064 c 3.784402,0.105395 7.789438,0.795913 10.602564,4.069995 v 0.0019 c 0.06917,0.109952 0.0592,0.262832 -0.0086,0.445098 -0.0684,0.182218 -0.19399,0.394881 -0.361518,0.623906 -0.335014,0.458078 -0.836067,0.983724 -1.370264,1.465509 -0.534222,0.481833 -1.10339,0.92019 -1.573378,1.20215 -0.235,0.140971 -0.443958,0.242012 -0.614679,0.29106 -0.08558,0.02483 -0.161717,0.03698 -0.225948,0.03257 -0.06391,-0.0043 -0.118516,-0.02608 -0.15646,-0.06508 l -0.0019,-0.0033 c -0.988686,-1.927107 -1.86241,-3.471645 -2.84907,-4.543773 -0.966221,-1.049849 -2.041037,-1.645327 -3.440729,-1.707976 v 12.459266 c 0.0028,-4.5e-5 0.0057,0 0.0086,0 0.0092,-0.005 0.01831,-0.01139 0.03206,-0.01359 2.070634,-0.0109 4.160725,-0.194587 6.144334,-0.8173 1.654984,-0.502187 3.19066,-1.340013 4.54229,-2.411582 h 5.02e-4 c 7.42e-4,-5.03e-4 0.0015,-0.0018 0.0024,-0.0024 0.182433,-0.144705 0.359428,-0.295962 0.534986,-0.448983 0.07404,-0.06417 0.147116,-0.129358 0.220118,-0.19534 0.180069,-0.16313 0.359054,-0.328106 0.531096,-0.499514 0.50655,-0.498536 0.985322,-1.021783 1.448985,-1.559289 0.101197,-0.117625 0.202329,-0.234622 0.303211,-0.3552 0.112155,-0.133733 0.223496,-0.268977 0.333821,-0.40428 0.127168,-0.156235 0.255067,-0.314484 0.382415,-0.475222 0.245148,-0.309332 0.486978,-0.621161 0.72595,-0.935383 0.0086,-0.01131 0.01696,-0.02193 0.02575,-0.03306 5e-4,-7.49e-4 0.0015,-0.0015 0.0019,-0.0024 0.3328,-0.438126 0.660916,-0.87933 0.987857,-1.320707 -0.02513,-0.06438 -0.05689,-0.126934 -0.09232,-0.188537 -0.08477,-0.126677 -0.168942,-0.254298 -0.255101,-0.377547 -0.02137,-0.02957 -0.04266,-0.05936 -0.06317,-0.08891 -0.08293,-0.11698 -0.166742,-0.230609 -0.250729,-0.344505 -0.03909,-0.05319 -0.07637,-0.10676 -0.116133,-0.159385 -0.128628,-0.171021 -0.259588,-0.338929 -0.391164,-0.502917 -0.0024,-0.0029 -0.0033,-0.0058 -0.0057,-0.0086 -0.01259,-0.01534 -0.02597,-0.0298 -0.03838,-0.0452 -0.107374,-0.132871 -0.215782,-0.263337 -0.325074,-0.391647 -0.06492,-0.07603 -0.130546,-0.151269 -0.196794,-0.226428 -0.05499,-0.06244 -0.110305,-0.124724 -0.165698,-0.186106 -0.09353,-0.103486 -0.188737,-0.206194 -0.284743,-0.307584 -0.02169,-0.02329 -0.04286,-0.0462 -0.0646,-0.06948 -0.860735,-0.899987 -1.812016,-1.713581 -2.839172,-2.41596 -0.02894,-0.01946 -0.05697,-0.0394 -0.08604,-0.05879 -0.109537,-0.07414 -0.221114,-0.14588 -0.332365,-0.217207 -0.04992,-0.03198 -0.09957,-0.06441 -0.149661,-0.09621 -0.11007,-0.06911 -0.221172,-0.135774 -0.332848,-0.202137 -0.04693,-0.02795 -0.09399,-0.05656 -0.141398,-0.08407 -0.144828,-0.0842 -0.290389,-0.166662 -0.43781,-0.246359 -0.161837,-0.08764 -0.325871,-0.172093 -0.490763,-0.254128 -2.387458,-1.21125 -5.016994,-1.854315 -7.669131,-2.143846 -0.366977,-0.04007 -0.734794,-0.07307 -1.10204,-0.100096 -0.077,-0.0057 -0.153879,-0.0121 -0.231297,-0.017 -0.05696,3.76e-4 -0.111966,-0.0034 -0.16375,-0.01167 z m -0.394557,3.939286 c -1.769665,0.03032 -4.272572,0.797958 -6.402843,1.844038 -1.136172,0.557868 -2.164746,1.194344 -2.92032,1.841604 -0.755591,0.647255 -1.238731,1.30572 -1.275028,1.908659 v 0.0019 c 0.02974,0.708358 0.42762,1.728525 1.084546,2.865423 0.656904,1.136896 1.573472,2.389247 2.64287,3.556385 2.090432,2.281442 4.763447,4.233987 7.226459,4.361059 v -2.100592 c -1.876247,-0.613547 -3.55192,-2.234487 -4.80225,-3.967958 -1.283878,-1.780024 -2.119514,-3.674462 -2.266288,-4.702651 0.04843,-0.644079 0.759972,-1.60778 1.986405,-2.403327 1.226417,-0.795568 2.965768,-1.423954 5.06124,-1.408166 h 0.01502 l 0.0057,-1.037421 V 24.985834 H 27.6812 c -0.111122,-0.0047 -0.22604,-0.0065 -0.344023,-0.0044 z m 22.138078,4.661838 c 5e-5,0.0015 -3.7e-5,0.0032 0,0.0048 0,-7.48e-4 4.95e-4,-0.0018 4.95e-4,-0.0024 0,-7.48e-4 -4.95e-4,-0.0015 -4.95e-4,-0.0024 z m -32.701289,0.901364 c -0.0011,0.01919 -0.0015,0.03899 -0.0019,0.05832 -4.47e-4,-0.0087 -0.0025,-0.01834 -0.0029,-0.02718 5.95e-4,-0.0091 0.0039,-0.02081 0.0048,-0.0311 z m 10.960197,10.902891 v 0.0057 h 10e-4 c -2.5e-4,-0.0022 -7.5e-4,-0.0036 -10e-4,-0.0057 z"
         style="fill:#00ff00;stroke-width:0;paint-order:stroke fill markers"
         id="path1152" />
    </g>
  </g>
</svg>
