<?xml version="1.0" encoding="UTF-8" standalone="no"?>
<svg
   sodipodi:docname="obs-tray-active.svg"
   id="svg8"
   version="1.1"
   viewBox="0 0 67.733331 67.733331"
   height="256"
   width="256"
   inkscape:version="1.4 (e7c3feb100, 2024-10-09)"
   xmlns:inkscape="http://www.inkscape.org/namespaces/inkscape"
   xmlns:sodipodi="http://sodipodi.sourceforge.net/DTD/sodipodi-0.dtd"
   xmlns="http://www.w3.org/2000/svg"
   xmlns:svg="http://www.w3.org/2000/svg">
  <defs
     id="defs2" />
  <sodipodi:namedview
     inkscape:window-maximized="1"
     inkscape:window-y="0"
     inkscape:window-x="0"
     inkscape:window-height="1011"
     inkscape:window-width="1920"
     units="px"
     showgrid="false"
     inkscape:document-rotation="0"
     inkscape:current-layer="layer6"
     inkscape:document-units="px"
     inkscape:cy="87.883271"
     inkscape:cx="85.357889"
     inkscape:zoom="0.9899495"
     inkscape:pageshadow="2"
     inkscape:pageopacity="0"
     borderopacity="1.0"
     bordercolor="#666666"
     pagecolor="#808080"
     id="base"
     inkscape:showpageshadow="2"
     inkscape:pagecheckerboard="0"
     inkscape:deskcolor="#d1d1d1" />
  <g
     inkscape:groupmode="layer"
     id="layer6"
     inkscape:label="Icon"
     style="display:inline">
    <g
       id="g7">
      <g
         id="g6">
        <path
           id="path2"
           style="fill:#ffffff;paint-order:stroke fill markers"
           d="m 32.492589,1.7378784 v 1.7544148 l -0.362768,0.037724 c -5.340892,0.5563744 -10.093776,3.6394759 -12.778548,8.289933 -2.928159,5.072048 -2.982077,11.279394 -0.21239,16.377294 0.184646,0.339861 0.38197,0.674743 0.591695,1.004073 l 0.220142,0.345716 0.40721,0.02119 c 1.96931,0.102782 3.887725,0.670243 5.595524,1.65623 1.242246,0.717158 2.309961,1.616513 3.196187,2.642216 h -0.01137 c 0.59479,0.685968 1.116602,1.436234 1.552877,2.239139 0.08013,0.147469 0.15619,0.297614 0.230477,0.448552 0.03257,0.06684 0.06424,0.134169 0.0956,0.201538 0.03711,0.07894 0.07406,0.157885 0.109554,0.237711 0.06191,0.140543 0.121591,0.28169 0.178284,0.424264 0.0038,0.0095 0.0081,0.01887 0.01188,0.02842 l 0.0036,0.0093 c 0.06522,0.165581 0.12686,0.332686 0.185001,0.500744 l 5.17e-4,-0.001 c 0.183441,0.526925 0.323779,1.072938 0.436149,1.628841 h 3.846794 c 0.11239,-0.557555 0.252533,-1.104988 0.436149,-1.632975 l 0.0057,0.01033 c 0.296671,-0.858087 0.685521,-1.685172 1.16272,-2.464449 0.08711,-0.14226 0.178332,-0.282189 0.271301,-0.421163 0.04447,-0.06592 0.09023,-0.130829 0.135909,-0.195854 0.04711,-0.06759 0.09411,-0.135318 0.142627,-0.202055 0.09224,-0.125955 0.18592,-0.250254 0.28267,-0.372587 0.007,-0.0089 0.01364,-0.01802 0.02067,-0.02687 0.111083,-0.139684 0.225296,-0.277101 0.342098,-0.411861 h -0.001 c 0.886163,-1.026388 1.953127,-1.925537 3.19257,-2.641183 5.981974,-3.453509 13.608218,-1.410516 17.062007,4.571297 0.588826,1.019929 1.020686,2.105558 1.299146,3.222542 0.782604,0.02795 1.539131,0.08757 2.249475,0.208256 -0.211603,-2.401646 -0.934581,-4.762352 -2.173511,-6.908105 -2.928443,-5.071884 -8.277421,-8.222284 -14.077176,-8.372615 -0.386651,-0.01002 -0.775233,-0.0066 -1.165304,0.01034 l -0.409277,0.01757 -0.222209,0.342098 c -1.073666,1.654082 -2.523994,3.031839 -4.231783,4.017843 -1.242179,0.717224 -2.555211,1.192293 -3.886584,1.44694 l 0.0057,-0.0098 c -1.05345,0.203395 -2.133763,0.272712 -3.213757,0.201538 -0.08702,-0.0061 -0.173638,-0.01434 -0.260449,-0.02222 -0.0732,-0.0064 -0.14646,-0.01248 -0.219625,-0.02015 -0.345989,-0.03752 -0.690348,-0.08821 -1.031462,-0.153996 l 0.001,0.0015 C 30.174409,29.524376 28.862261,29.049334 27.622602,28.33367 21.640788,24.879883 19.596764,17.254156 23.050272,11.27218 25.000654,7.8941946 28.415669,5.6230582 32.28485,5.1288857 l 0.207739,-0.027388 2.263428,-1.681551 0.255798,-0.1901693 -0.448551,0.046509 z"
           sodipodi:nodetypes="cccssccccccsccccccccccccscccccccccccssccccccccccccccccccc" />
        <path
           id="path830"
           style="display:inline;fill:#ffffff;stroke-width:4.34471;paint-order:stroke fill markers"
           d="M 35.477937,0.03824056 C 28.992956,-0.27063579 22.555853,1.2910153 16.933333,4.5371906 4.6093716,11.696006 -1.9138536,25.804458 0.61494952,39.830642 1.6485583,39.659184 2.695803,39.51897 3.7692788,39.439452 h 0.00207 c 0.3594504,-0.02614 0.6833194,-0.0395 1.0242269,-0.05891 C 2.4437484,27.015597 8.1595812,14.514078 19.049999,8.2036333 33.223313,0.02071012 51.34662,4.8767743 59.529698,19.049999 c 3.536361,6.132235 4.760709,13.327823 3.451468,20.28455 0.833295,0.150561 1.605074,0.331512 2.300118,0.561722 0.660918,0.197369 1.244348,0.415298 1.775086,0.666626 C 68.689664,32.479094 67.317077,24.0771 63.19614,16.933333 57.433488,6.9520397 46.990265,0.58657648 35.477937,0.03824056 Z"
           sodipodi:nodetypes="scccccccccccs" />
      </g>
      <path
         id="path847"
         style="font-style:normal;font-variant:normal;font-weight:bold;font-stretch:normal;font-size:10.5833px;line-height:1.25;font-family:ubuntu;-inkscape-font-specification:'ubuntu Bold';white-space:pre;display:inline;fill:#ff0000;fill-opacity:1;stroke:none;stroke-width:3.51457"
         d="m 59.401539,40.840817 c -1.884582,-2e-6 -3.632825,0.297321 -5.24464,0.89245 -1.611812,0.595133 -3.000173,1.475717 -4.165637,2.641182 -1.165465,1.140672 -2.083281,2.553846 -2.752804,4.240051 -0.669525,1.661409 -1.004072,3.558572 -1.004072,5.691127 0,4.289909 1.091035,7.600243 3.273184,9.931177 2.206945,2.330931 5.405596,3.496426 9.596312,3.496426 1.958975,0 3.6824,-0.198557 5.170228,-0.595312 1.487829,-0.396754 2.640915,-0.842995 3.459221,-1.338938 l -1.599385,-4.649326 c -0.322366,0.148791 -0.681733,0.310118 -1.078489,0.48369 -0.396754,0.173579 -0.855404,0.334391 -1.376143,0.483174 -0.52074,0.123994 -1.115899,0.235683 -1.785422,0.334864 -0.669522,0.09918 -1.426009,0.148828 -2.269111,0.148828 -1.339043,0 -2.479723,-0.210968 -3.422012,-0.63252 -0.942293,-0.44635 -1.711188,-1.041506 -2.30632,-1.785419 -0.570333,-0.743916 -0.991754,-1.623984 -1.264521,-2.640666 -0.247972,-1.041479 -0.37207,-2.157336 -0.37207,-3.347601 0,-1.487829 0.198557,-2.752603 0.595313,-3.794082 0.396753,-1.041482 0.917453,-1.884318 1.562176,-2.529044 0.669523,-0.669523 1.426009,-1.152993 2.269112,-1.450557 0.867899,-0.297569 1.747969,-0.446484 2.640666,-0.446484 1.339045,0 2.529361,0.148915 3.570843,0.446484 1.066276,0.297564 1.995984,0.656934 2.789493,1.078487 l 1.6738,-4.686535 c -0.19838,-0.123989 -0.520521,-0.297725 -0.966867,-0.520899 -0.44635,-0.223168 -1.004277,-0.434136 -1.673799,-0.632521 -0.669523,-0.223173 -1.45083,-0.408805 -2.343526,-0.557588 -0.892696,-0.173572 -1.884458,-0.260448 -2.97553,-0.260448 z M 7.55096,41.138474 c -1.066277,-3e-6 -2.281413,0.04965 -3.645255,0.148828 C 2.56666,41.386492 1.264654,41.559711 0,41.807682 v 25.40465 h 5.802747 v -9.410279 h 2.863907 c 0.495943,0.595132 0.991822,1.264748 1.487765,2.008663 0.495942,0.719119 0.991822,1.487496 1.487764,2.305802 0.520739,0.818308 1.016619,1.661662 1.487765,2.529562 0.495942,0.867902 0.97993,1.723149 1.451074,2.566252 h 6.509163 c -0.44635,-0.94229 -0.929818,-1.896819 -1.450558,-2.863908 -0.520739,-0.991886 -1.066258,-1.934004 -1.636592,-2.8267 -0.545538,-0.917496 -1.103468,-1.78567 -1.6738,-2.603976 -0.570334,-0.843103 -1.11585,-1.586661 -1.636592,-2.231388 1.56222,-0.644726 2.752019,-1.525312 3.570324,-2.641184 0.843103,-1.140669 1.265039,-2.615893 1.265039,-4.426085 0,-2.901267 -1.029504,-5.034216 -3.087666,-6.398058 -2.05816,-1.388642 -5.021026,-2.082559 -8.88938,-2.082559 z m 17.258894,0.297137 V 67.212332 H 43.072821 V 62.33976 H 30.612085 V 56.128254 H 40.91533 v -4.76095 H 30.612085 V 46.308699 H 42.217058 V 41.435611 Z M 7.885823,46.085457 c 1.859785,0 3.260554,0.272502 4.202845,0.818038 0.967089,0.520743 1.450557,1.413735 1.450557,2.678388 0,1.314251 -0.47106,2.243958 -1.41335,2.789494 -0.942292,0.545536 -2.504389,0.818555 -4.686536,0.818555 H 5.802747 v -6.992853 c 0.297565,-0.02482 0.607296,-0.04962 0.929659,-0.07441 0.347159,-0.02479 0.731866,-0.03721 1.153417,-0.03721 z" />
    </g>
  </g>
</svg>
