<?xml version="1.0" encoding="UTF-8" standalone="no"?>
<svg
   sodipodi:docname="obs-tray.svg"
   id="svg8"
   version="1.1"
   viewBox="0 0 67.733331 67.733331"
   height="256"
   width="256"
   xmlns:inkscape="http://www.inkscape.org/namespaces/inkscape"
   xmlns:sodipodi="http://sodipodi.sourceforge.net/DTD/sodipodi-0.dtd"
   xmlns="http://www.w3.org/2000/svg"
   xmlns:svg="http://www.w3.org/2000/svg">
  <defs
     id="defs2" />
  <sodipodi:namedview
     inkscape:window-maximized="1"
     inkscape:window-y="0"
     inkscape:window-x="0"
     inkscape:window-height="1016"
     inkscape:window-width="1836"
     units="px"
     showgrid="false"
     inkscape:document-rotation="0"
     inkscape:current-layer="layer6"
     inkscape:document-units="px"
     inkscape:cy="153.04255"
     inkscape:cx="117.43295"
     inkscape:zoom="1.979899"
     inkscape:pageshadow="2"
     inkscape:pageopacity="0"
     borderopacity="1.0"
     bordercolor="#666666"
     pagecolor="#808080"
     id="base"
     inkscape:showpageshadow="2"
     inkscape:pagecheckerboard="0"
     inkscape:deskcolor="#d1d1d1" />
  <g
     inkscape:groupmode="layer"
     id="layer6"
     inkscape:label="Icon"
     style="display:inline">
    <g
       id="g834">
      <path
         id="path1231"
         style="display:inline;fill:#ffffff;stroke-width:3.6273;paint-order:stroke fill markers"
         d="m 33.866666,12.162566 a 9.7294241,9.7294241 0 0 1 0.139527,0.0011 11.694018,11.694018 0 0 0 -0.139527,-0.0011 z m 0.139527,0.0011 a 9.7294241,9.7294241 0 0 1 0.729189,0.03765 9.7420731,10.793744 0 0 1 0.005,-0.0061 11.694018,11.694018 0 0 0 -0.734174,-0.03157 z m -0.25137,-5.67e-4 a 11.694018,11.694018 0 0 0 -0.08859,0.0017 9.7294241,9.7294241 0 0 1 0.08859,-0.0017 z m -0.08859,0.0017 a 11.694018,11.694018 0 0 0 -11.49376,11.691977 11.694018,11.694018 0 0 0 1.830452,6.281457 9.7294236,9.7294225 0 0 1 9.222581,9.715903 9.7294236,9.7294225 0 0 1 -9.729194,9.729198 9.7294236,9.7294225 0 0 1 -7.741498,-3.836423 10.776865,13.952269 0 0 1 -0.02436,-0.0105 11.694018,11.694018 0 0 0 9.467306,4.829163 11.694018,11.694018 0 0 0 10.371461,-6.292529 9.7294239,9.7294239 0 0 1 -1.061397,-4.418888 9.7294239,9.7294239 0 0 1 9.729194,-9.729747 9.7294239,9.7294239 0 0 1 9.729194,9.729747 9.7294239,9.7294239 0 0 1 -1.063058,4.422766 10.187687,11.562149 0 0 1 5.67e-4,0.0039 11.694018,11.694018 0 0 0 1.326053,-5.408862 11.694018,11.694018 0 0 0 -11.69419,-11.69419 11.694018,11.694018 0 0 0 -0.507722,0.01109 9.7294241,9.7294241 0 0 1 -8.161195,4.432711 9.7294241,9.7294241 0 0 1 -9.729195,-9.729749 9.7294241,9.7294241 0 0 1 9.528764,-9.726981 z" />
      <path
         id="path830"
         style="display:inline;fill:#ffffff;stroke-width:3.18216;paint-order:stroke fill markers"
         d="M 33.866667,9.0619806 A 24.804686,24.804686 0 0 0 9.0619809,33.866667 24.804686,24.804686 0 0 0 33.866667,58.671353 24.804686,24.804686 0 0 0 58.671353,33.866667 24.804686,24.804686 0 0 0 33.866667,9.0619806 Z m 0,3.1005854 a 21.7041,21.7041 0 0 1 21.7041,21.704101 21.7041,21.7041 0 0 1 -21.7041,21.7041 21.7041,21.7041 0 0 1 -21.704101,-21.7041 21.7041,21.7041 0 0 1 21.704101,-21.704101 z" />
    </g>
  </g>
</svg>
