<?xml version="1.0" encoding="UTF-8" standalone="no"?>
<svg
   sodipodi:docname="obs-tray-active.svg"
   id="svg8"
   version="1.1"
   viewBox="0 0 67.733331 67.733331"
   height="256"
   width="256"
   xmlns:inkscape="http://www.inkscape.org/namespaces/inkscape"
   xmlns:sodipodi="http://sodipodi.sourceforge.net/DTD/sodipodi-0.dtd"
   xmlns="http://www.w3.org/2000/svg"
   xmlns:svg="http://www.w3.org/2000/svg">
  <defs
     id="defs2" />
  <sodipodi:namedview
     inkscape:window-maximized="1"
     inkscape:window-y="27"
     inkscape:window-x="1920"
     inkscape:window-height="1016"
     inkscape:window-width="1920"
     units="px"
     showgrid="false"
     inkscape:document-rotation="0"
     inkscape:current-layer="layer6"
     inkscape:document-units="px"
     inkscape:cy="156.12531"
     inkscape:cx="141.15305"
     inkscape:zoom="2.8"
     inkscape:pageshadow="2"
     inkscape:pageopacity="0"
     borderopacity="1.0"
     bordercolor="#666666"
     pagecolor="#808080"
     id="base"
     inkscape:showpageshadow="2"
     inkscape:pagecheckerboard="0"
     inkscape:deskcolor="#d1d1d1" />
  <g
     inkscape:groupmode="layer"
     id="layer6"
     inkscape:label="Icon"
     style="display:inline">
    <g
       id="g862">
      <g
         id="g863">
        <path
           id="path1231"
           style="display:inline;fill:#ffffff;stroke-width:13.7095;paint-order:stroke fill markers"
           d="m 128.52734,45.972656 a 36.772627,36.772627 0 0 1 2.75586,0.142578 36.820434,40.795253 0 0 1 0.0195,-0.02344 44.197864,44.197864 0 0 0 -2.77539,-0.119141 z m -1.6875,0.01367 a 44.197864,44.197864 0 0 0 -43.039059,44.181641 44.197864,44.197864 0 0 0 6.917969,23.740233 36.772625,36.772621 0 0 1 34.85156,36.05664 h 4.86133 a 36.772626,36.772626 0 0 1 36.76367,-36.10937 36.772626,36.772626 0 0 1 36.77149,36.77539 36.772626,36.772626 0 0 1 0,0.0176 c 0.28436,-0.0905 0.5733,-0.16957 0.85937,-0.25586 a 44.197864,44.197864 0 0 0 0.13672,-3.47461 44.197864,44.197864 0 0 0 -44.19922,-44.19922 44.197864,44.197864 0 0 0 -1.91797,0.043 A 36.772627,36.772627 0 0 1 128,119.51367 36.772627,36.772627 0 0 1 91.228516,82.740234 36.772627,36.772627 0 0 1 126.83984,45.986328 Z"
           transform="scale(0.26458332)" />
        <path
           id="path830"
           style="display:inline;fill:#ffffff;stroke-width:12.0271;paint-order:stroke fill markers"
           d="M 128,34.25 A 93.749997,93.749997 0 0 0 34.25,128 a 93.749997,93.749997 0 0 0 2.427734,21.19141 c 4.50929,0.35917 8.721525,1.00813 12.63086,1.97656 A 82.031246,82.031246 0 0 1 45.96875,128 82.031246,82.031246 0 0 1 128,45.96875 82.031246,82.031246 0 0 1 210.03125,128 82.031246,82.031246 0 0 1 207.0957,149.75 c 4.0252,-1.04166 8.21116,-1.67012 12.5293,-1.91016 A 93.749997,93.749997 0 0 0 221.75,128 93.749997,93.749997 0 0 0 128,34.25 Z"
           transform="scale(0.26458332)" />
      </g>
      <path
         id="path847"
         style="font-style:normal;font-variant:normal;font-weight:bold;font-stretch:normal;font-size:10.5833px;line-height:1.25;font-family:ubuntu;-inkscape-font-specification:'ubuntu Bold';white-space:pre;fill:#ff0000;fill-opacity:1;stroke:none;stroke-width:13.2834"
         d="M 223.5957 154.35938 C 216.47287 154.35937 209.86534 155.48311 203.77344 157.73242 C 197.68155 159.98174 192.4342 163.30993 188.0293 167.71484 C 183.62439 172.02604 180.15548 177.36717 177.625 183.74023 C 175.09451 190.01957 173.83008 197.18995 173.83008 205.25 C 173.83008 221.46383 177.95368 233.97533 186.20117 242.78516 C 194.54238 251.59498 206.63177 256 222.4707 256 C 229.8747 256 236.38843 255.24955 242.01172 253.75 C 247.63501 252.25046 251.99313 250.56388 255.08594 248.68945 L 249.04102 231.11719 C 247.82263 231.67955 246.46439 232.28929 244.96484 232.94531 C 243.4653 233.60136 241.73182 234.20915 239.76367 234.77148 C 237.79552 235.24012 235.5461 235.66225 233.01562 236.03711 C 230.48514 236.41197 227.62598 236.59961 224.43945 236.59961 C 219.3785 236.59961 215.06727 235.80225 211.50586 234.20898 C 207.94444 232.52199 205.03838 230.27258 202.78906 227.46094 C 200.63347 224.64929 199.0407 221.32305 198.00977 217.48047 C 197.07255 213.54417 196.60352 209.32676 196.60352 204.82812 C 196.60352 199.20483 197.35397 194.42458 198.85352 190.48828 C 200.35306 186.55197 202.32106 183.36645 204.75781 180.92969 C 207.28829 178.39921 210.14745 176.57192 213.33398 175.44727 C 216.61423 174.3226 219.94048 173.75977 223.31445 173.75977 C 228.37541 173.75977 232.87424 174.3226 236.81055 175.44727 C 240.84057 176.57192 244.35443 177.93017 247.35352 179.52344 L 253.67969 161.81055 C 252.92991 161.34193 251.71237 160.68529 250.02539 159.8418 C 248.3384 158.99833 246.2297 158.20097 243.69922 157.45117 C 241.16874 156.60768 238.21577 155.90608 234.8418 155.34375 C 231.46783 154.68773 227.71944 154.35938 223.5957 154.35938 z M 27.625 155.48438 C 23.594977 155.48437 19.002336 155.67202 13.847656 156.04688 C 8.7866983 156.42176 3.8657319 157.07646 -0.9140625 158.01367 L -0.9140625 254.03125 L 21.017578 254.03125 L 21.017578 218.46484 L 31.841797 218.46484 C 33.716226 220.71416 35.590413 223.24499 37.464844 226.05664 C 39.339273 228.77457 41.213462 231.67867 43.087891 234.77148 C 45.056039 237.8643 46.930228 241.05178 48.710938 244.33203 C 50.585367 247.61229 52.414611 250.84472 54.195312 254.03125 L 78.796875 254.03125 C 77.109883 250.46984 75.282602 246.86217 73.314453 243.20703 C 71.346304 239.45817 69.284499 235.89741 67.128906 232.52344 C 65.06703 229.05574 62.95832 225.77445 60.802734 222.68164 C 58.647141 219.49511 56.585346 216.68481 54.617188 214.24805 C 60.521641 211.81129 65.01852 208.48309 68.111328 204.26562 C 71.297858 199.95443 72.892578 194.37878 72.892578 187.53711 C 72.892578 176.57169 69.001539 168.51015 61.222656 163.35547 C 53.443784 158.10706 42.245551 155.48438 27.625 155.48438 z M 92.855469 156.60742 L 92.855469 254.03125 L 161.88086 254.03125 L 161.88086 235.61523 L 114.78516 235.61523 L 114.78516 212.13867 L 153.72656 212.13867 L 153.72656 194.14453 L 114.78516 194.14453 L 114.78516 175.02539 L 158.64648 175.02539 L 158.64648 156.60742 L 92.855469 156.60742 z M 28.890625 174.18164 C 35.919732 174.18164 41.213979 175.21157 44.775391 177.27344 C 48.430532 179.2416 50.257812 182.61669 50.257812 187.39648 C 50.257813 192.36373 48.477429 195.87758 44.916016 197.93945 C 41.354597 200.00132 35.450609 201.0332 27.203125 201.0332 L 21.017578 201.0332 L 21.017578 174.60352 C 22.142236 174.50976 23.312871 174.41597 24.53125 174.32227 C 25.84335 174.22858 27.29736 174.18164 28.890625 174.18164 z "
         transform="scale(0.26458332)" />
    </g>
  </g>
</svg>
