<?xml version="1.0" encoding="UTF-8" standalone="no"?>
<svg
   sodipodi:docname="obs-tray-active.svg"
   id="svg8"
   version="1.1"
   viewBox="0 0 67.733331 67.733331"
   height="256"
   width="256"
   inkscape:version="1.4.2 (ebf0e940d0, 2025-05-08)"
   xmlns:inkscape="http://www.inkscape.org/namespaces/inkscape"
   xmlns:sodipodi="http://sodipodi.sourceforge.net/DTD/sodipodi-0.dtd"
   xmlns="http://www.w3.org/2000/svg"
   xmlns:svg="http://www.w3.org/2000/svg">
  <defs
     id="defs2" />
  <sodipodi:namedview
     inkscape:window-maximized="1"
     inkscape:window-y="0"
     inkscape:window-x="0"
     inkscape:window-height="1011"
     inkscape:window-width="1920"
     units="px"
     showgrid="false"
     inkscape:document-rotation="0"
     inkscape:current-layer="layer6"
     inkscape:document-units="px"
     inkscape:cy="167.14286"
     inkscape:cx="-175.71428"
     inkscape:zoom="0.7"
     inkscape:pageshadow="2"
     inkscape:pageopacity="0"
     borderopacity="1.0"
     bordercolor="#666666"
     pagecolor="#808080"
     id="base"
     inkscape:showpageshadow="2"
     inkscape:pagecheckerboard="0"
     inkscape:deskcolor="#d1d1d1" />
  <g
     inkscape:groupmode="layer"
     id="layer6"
     inkscape:label="Icon"
     style="display:inline">
    <path
       id="path2"
       style="display:inline;fill:#ffffff;paint-order:stroke fill markers"
       d="M 32.492589 1.7378784 L 32.492589 3.4922932 L 32.129821 3.530017 C 26.788929 4.0863914 22.036045 7.1694931 19.351273 11.81995 C 16.423114 16.891998 16.369196 23.099344 19.138883 28.197244 C 19.323529 28.537105 19.520853 28.871987 19.730578 29.201317 L 19.95072 29.547033 L 20.35793 29.56822 C 22.32724 29.671002 24.245655 30.238463 25.953454 31.22445 C 27.1957 31.941608 28.263415 32.840963 29.149641 33.866666 L 29.138272 33.866666 C 29.733062 34.552634 30.254874 35.3029 30.691149 36.105805 C 30.771279 36.253274 30.847339 36.403419 30.921626 36.554357 C 30.954196 36.621197 30.985867 36.688526 31.017227 36.755895 C 31.054337 36.834835 31.091287 36.91378 31.126781 36.993606 C 31.188691 37.134149 31.248372 37.275296 31.305065 37.41787 C 31.308865 37.42737 31.31317 37.436742 31.31695 37.446292 L 31.320568 37.455594 C 31.385788 37.621175 31.447428 37.78828 31.505569 37.956338 L 31.506086 37.955305 C 31.665649 38.413642 31.79246 38.886453 31.89676 39.367622 L 35.833987 39.367622 C 35.93829 38.884852 36.065393 38.410632 36.225178 37.951171 L 36.230862 37.961506 C 36.527533 37.103419 36.916383 36.276334 37.393582 35.497057 C 37.480692 35.354797 37.571914 35.214868 37.664883 35.075894 C 37.709353 35.009974 37.755113 34.945065 37.800792 34.88004 C 37.847902 34.81245 37.894902 34.744722 37.943419 34.677985 C 38.035659 34.55203 38.129339 34.427731 38.226089 34.305398 C 38.233089 34.296498 38.23973 34.287377 38.24676 34.278527 C 38.357843 34.138843 38.472056 34.001425 38.588858 33.866666 L 38.587824 33.866666 C 39.473987 32.840278 40.540951 31.941129 41.780394 31.225483 C 47.762368 27.771974 55.388612 29.814967 58.842401 35.79678 C 59.431227 36.816709 59.863087 37.902338 60.141547 39.019322 C 60.258218 39.023489 60.3744 39.028637 60.489846 39.034309 C 61.123727 39.0417 61.755954 39.080469 62.383787 39.150064 C 62.163552 36.77522 61.443075 34.442078 60.217511 32.319473 C 57.289068 27.247589 51.94009 24.097189 46.140335 23.946858 C 45.753684 23.936838 45.365102 23.940253 44.975031 23.957193 L 44.565754 23.974763 L 44.343545 24.316861 C 43.269879 25.970943 41.819551 27.3487 40.111762 28.334704 C 38.869583 29.051928 37.556551 29.526997 36.225178 29.781644 L 36.230862 29.771825 C 35.177412 29.97522 34.097099 30.044537 33.017105 29.973363 C 32.930085 29.967263 32.843467 29.959022 32.756656 29.951142 C 32.683456 29.944742 32.610196 29.938659 32.537031 29.930989 C 32.191042 29.893469 31.846683 29.842779 31.505569 29.776993 L 31.506603 29.778543 C 30.174403 29.52437 28.862261 29.049334 27.622602 28.33367 C 21.640788 24.879883 19.596764 17.254156 23.050272 11.27218 C 25.000654 7.8941944 28.415669 5.6230582 32.28485 5.1288857 L 32.492589 5.1014972 L 34.756017 3.4199462 L 35.011815 3.2297769 L 34.563264 3.2762857 L 32.492589 1.7378784 z " />
    <path
       id="path830"
       style="display:inline;fill:#ffffff;stroke-width:4.34471;paint-order:stroke fill markers"
       d="M 35.477937 0.038240559 C 28.992956 -0.27063579 22.555853 1.2910153 16.933333 4.5371906 C 4.7449505 11.61725 -1.7695448 25.494795 0.53485106 39.367622 L 4.7929889 39.368138 C 2.4474584 27.007314 8.1632921 14.511928 19.049999 8.2036333 C 33.223313 0.020710164 51.34662 4.8767746 59.529698 19.049999 C 63.048073 25.151046 64.277751 32.304883 63.000803 39.228612 C 64.4126 39.431461 65.794997 39.790112 67.10908 40.296764 C 68.659259 32.294926 67.271869 23.99873 63.19614 16.933333 C 57.433488 6.9520395 46.990265 0.58657648 35.477937 0.038240559 z " />
    <path
       style="font-weight:bold;font-size:4px;line-height:1.25;font-family:Cantarell;-inkscape-font-specification:'Cantarell Bold';white-space:pre;fill:#ff0000;stroke-width:0.0277656"
       d="m -293.96116,115.06724 h 0.516 v -2.324 h 0.448 c 0.328,0 0.52,0.164 0.52,0.436 0,0.264 -0.16,0.42 -0.452,0.42 h -0.68 v 0.436 h 0.612 c 0.632,0 1.052,-0.384 1.052,-0.932 0,-0.512 -0.372,-0.812 -0.984,-0.812 h -1.032 z m 1.576,0 h 0.616 l -0.76,-1.248 h -0.572 z m 1.008,0 h 1.868 v -0.448 h -1.352 v -0.744 h 1.244 v -0.452 h -1.244 v -0.68 h 1.352 v -0.452 h -1.868 z m 3.66,0.04 c 0.288,0 0.6,-0.068 0.836,-0.184 l -0.116,-0.376 c -0.176,0.068 -0.404,0.108 -0.596,0.108 -0.608,0 -0.988,-0.396 -0.988,-1.02 0,-0.592 0.344,-0.924 0.928,-0.924 0.22,0 0.472,0.044 0.652,0.116 l 0.148,-0.4 c -0.24,-0.112 -0.512,-0.172 -0.784,-0.172 -0.88,0 -1.476,0.58 -1.476,1.452 0,0.84 0.564,1.4 1.396,1.4 z"
       id="text1"
       transform="matrix(9.5291664,0,0,9.5291664,2801.2048,-1029.444)"
       aria-label="REC" />
  </g>
</svg>
