<?xml version="1.0" encoding="UTF-8" standalone="no"?>
<svg
   sodipodi:docname="obs-tray.svg"
   id="svg8"
   version="1.1"
   viewBox="0 0 67.733331 67.733331"
   height="256"
   width="256"
   inkscape:version="1.4 (e7c3feb100, 2024-10-09)"
   xmlns:inkscape="http://www.inkscape.org/namespaces/inkscape"
   xmlns:sodipodi="http://sodipodi.sourceforge.net/DTD/sodipodi-0.dtd"
   xmlns="http://www.w3.org/2000/svg"
   xmlns:svg="http://www.w3.org/2000/svg">
  <defs
     id="defs2" />
  <sodipodi:namedview
     inkscape:window-maximized="1"
     inkscape:window-y="0"
     inkscape:window-x="0"
     inkscape:window-height="1011"
     inkscape:window-width="1920"
     units="px"
     showgrid="false"
     inkscape:document-rotation="0"
     inkscape:current-layer="layer6"
     inkscape:document-units="px"
     inkscape:cy="163.13963"
     inkscape:cx="62.376919"
     inkscape:zoom="1.979899"
     inkscape:pageshadow="2"
     inkscape:pageopacity="0"
     borderopacity="1.0"
     bordercolor="#666666"
     pagecolor="#808080"
     id="base"
     inkscape:showpageshadow="2"
     inkscape:pagecheckerboard="0"
     inkscape:deskcolor="#d1d1d1" />
  <g
     inkscape:groupmode="layer"
     id="layer6"
     inkscape:label="Icon"
     style="display:inline">
    <g
       id="g9">
      <path
         id="path2"
         style="fill:#ffffff;paint-order:stroke fill markers"
         d="M 32.492589 1.7378784 L 32.492589 3.4922932 L 32.129821 3.530017 C 26.788929 4.0863914 22.036045 7.1694927 19.351273 11.81995 C 16.423114 16.891998 16.369196 23.099344 19.138883 28.197244 C 19.323529 28.537105 19.520853 28.871987 19.730578 29.201317 L 19.95072 29.547033 L 20.35793 29.56822 C 22.32724 29.671002 24.245655 30.238463 25.953454 31.22445 C 27.1957 31.941608 28.263415 32.840963 29.149641 33.866666 L 29.138272 33.866666 C 29.733062 34.552634 30.254874 35.3029 30.691149 36.105805 C 30.771279 36.253274 30.847339 36.403419 30.921626 36.554357 C 30.954196 36.621197 30.985867 36.688526 31.017227 36.755895 C 31.054337 36.834835 31.091287 36.91378 31.126781 36.993606 C 31.188691 37.134149 31.248372 37.275296 31.305065 37.41787 C 31.308865 37.42737 31.31317 37.436742 31.31695 37.446292 L 31.320568 37.455594 C 31.385788 37.621175 31.447428 37.78828 31.505569 37.956338 L 31.506086 37.955305 C 31.951947 39.23602 32.196954 40.609522 32.197 42.040843 C 32.19684 48.94814 26.614621 54.530875 19.707324 54.531037 C 15.806712 54.530949 12.132502 52.708962 9.769946 49.605239 L 9.6423052 49.439358 L 7.2140297 48.389293 L 7.0543495 48.320046 L 6.7618609 48.193439 L 7.0264443 48.558791 L 6.7293048 51.120909 L 8.2491086 50.24396 L 8.463049 50.539032 C 11.615329 54.886193 16.661413 57.460721 22.031213 57.460573 C 27.887815 57.460409 33.290712 54.403463 36.320779 49.455894 C 36.522784 49.126055 36.714043 48.787779 36.894388 48.441486 L 37.083523 48.078201 L 36.898522 47.714915 C 36.002878 45.958052 35.53479 44.012834 35.534781 42.040843 C 35.534735 40.60618 35.779848 39.231719 36.225178 37.951171 L 36.230862 37.961506 C 36.527533 37.103419 36.916383 36.276334 37.393582 35.497057 C 37.480692 35.354797 37.571914 35.214868 37.664883 35.075894 C 37.709353 35.009974 37.755113 34.945065 37.800792 34.88004 C 37.847902 34.81245 37.894902 34.744722 37.943419 34.677985 C 38.035659 34.55203 38.129339 34.427731 38.226089 34.305398 C 38.233089 34.296498 38.23973 34.287377 38.24676 34.278527 C 38.357843 34.138843 38.472056 34.001426 38.588858 33.866666 L 38.587824 33.866666 C 39.473987 32.840278 40.540951 31.941129 41.780394 31.225483 C 47.762368 27.771974 55.388612 29.814967 58.842401 35.79678 C 60.792631 39.174853 61.051826 43.267976 59.545201 46.865872 L 59.465102 47.059141 L 59.78963 49.860521 L 59.82632 50.17678 L 60.009772 49.765436 L 62.378103 48.741209 L 60.858815 47.863743 L 61.007127 47.530947 C 63.195739 42.627411 62.902539 36.969782 60.217511 32.319473 C 57.289068 27.247589 51.94009 24.097189 46.140335 23.946858 C 45.753684 23.936838 45.365102 23.940253 44.975031 23.957193 L 44.565754 23.974763 L 44.343545 24.316861 C 43.269879 25.970943 41.819551 27.3487 40.111762 28.334704 C 38.869583 29.051928 37.556551 29.526997 36.225178 29.781644 L 36.230862 29.771825 C 35.177412 29.97522 34.097099 30.044537 33.017105 29.973363 C 32.930085 29.967263 32.843467 29.959022 32.756656 29.951142 C 32.683456 29.944742 32.610196 29.938659 32.537031 29.930989 C 32.191042 29.893469 31.846683 29.842779 31.505569 29.776993 L 31.506603 29.778543 C 30.174439 29.52435 28.862261 29.049334 27.622602 28.33367 C 21.640788 24.879883 19.596764 17.254156 23.050272 11.27218 C 25.000654 7.8941948 28.415669 5.6230582 32.28485 5.1288857 L 32.492589 5.1014972 L 34.756017 3.4199462 L 35.011815 3.2297769 L 34.563264 3.2762857 L 32.492589 1.7378784 z " />
      <path
         id="path830"
         style="display:inline;fill:#ffffff;stroke-width:4.34471;paint-order:stroke fill markers"
         d="M 4.537269,50.799995 A 33.866666,33.866666 45 0 0 50.799999,63.196059 33.866666,33.866666 45 0 0 63.196056,16.933328 33.866666,33.866666 45 0 0 16.933333,4.5372734 33.866666,33.866666 45 0 0 4.537269,50.799995 Z M 8.2034425,48.683328 A 29.633333,29.633333 0 0 1 19.049998,8.2034446 29.633333,29.633333 0 0 1 59.529881,19.049995 29.633333,29.633333 0 0 1 48.683332,59.529885 29.633333,29.633333 0 0 1 8.2034425,48.683328 Z" />
    </g>
  </g>
</svg>
