<?xml version="1.0" encoding="UTF-8" standalone="no"?>
<svg
   sodipodi:docname="OpenRGB-symbolic.symbolic.svg"
   id="svg4705"
   version="1.1"
   viewBox="0 0 4.2333333 4.2333333"
   height="16"
   width="16"
   xmlns:inkscape="http://www.inkscape.org/namespaces/inkscape"
   xmlns:sodipodi="http://sodipodi.sourceforge.net/DTD/sodipodi-0.dtd"
   xmlns="http://www.w3.org/2000/svg"
   xmlns:svg="http://www.w3.org/2000/svg">
  <defs
     id="defs4699" />
  <sodipodi:namedview
     units="px"
     inkscape:document-rotation="0"
     inkscape:window-maximized="1"
     inkscape:window-y="27"
     inkscape:window-x="1920"
     inkscape:window-height="1016"
     inkscape:window-width="1920"
     fit-margin-bottom="0"
     fit-margin-right="0"
     fit-margin-left="0"
     fit-margin-top="0"
     showgrid="false"
     inkscape:current-layer="layer1"
     inkscape:document-units="px"
     inkscape:cy="7.5382368"
     inkscape:cx="10.353354"
     inkscape:zoom="22.4"
     inkscape:pageshadow="2"
     inkscape:pageopacity="0.0"
     borderopacity="1.0"
     bordercolor="#666666"
     pagecolor="#ffffff"
     id="base"
     inkscape:showpageshadow="2"
     inkscape:pagecheckerboard="0"
     inkscape:deskcolor="#d1d1d1" />
  <g
     inkscape:label="Graphic"
     id="layer5"
     inkscape:groupmode="layer"
     style="display:inline">
    <g
       style="display:inline;opacity:0.4"
       inkscape:label="Shadow"
       id="layer4"
       inkscape:groupmode="layer" />
    <g
       style="display:inline"
       transform="translate(-130.05163,-144.32544)"
       id="layer1"
       inkscape:groupmode="layer"
       inkscape:label="Colour">
      <path
         id="path902"
         style="display:inline;fill:none;fill-opacity:1;stroke:#000000;stroke-width:0.246161;stroke-linecap:round;stroke-linejoin:round;stroke-miterlimit:4;stroke-dasharray:none;paint-order:stroke fill markers"
         d="m 132.16733,144.44852 a 1.552262,1.5522695 0 0 0 -1.55129,1.55227 1.552262,1.5522695 0 0 0 0.86991,1.39426 l 0.23299,-0.40357 0.17755,-0.30749 a 0.73528207,0.73528566 0 0 1 -0.46347,-0.6832 0.73528207,0.73528566 0 0 1 0.73527,-0.73529 0.73528207,0.73528566 0 0 1 0.73528,0.73529 0.73528207,0.73528566 0 0 1 -0.46347,0.6832 l 0.17754,0.30749 0.233,0.40355 a 1.552262,1.5522695 0 0 0 0.86992,-1.39424 1.552262,1.5522695 0 0 0 -1.55227,-1.55227 1.552262,1.5522695 0 0 0 -9.5e-4,0 z" />
      <path
         id="rect954"
         style="display:inline;opacity:1;fill:#000000;stroke:none;stroke-width:0.0945323;stroke-linecap:round;stroke-linejoin:round;paint-order:stroke markers fill"
         d="m 131.759,147.48962 a 0.12064983,0.1206504 0 0 0 -0.11881,0.12065 0.12064983,0.1206504 0 0 0 0.11881,0.12063 v 7e-5 a 0.12064983,0.1206504 0 0 0 -0.11697,0.12058 0.12064983,0.1206504 0 0 0 0.11697,0.12058 v 2e-4 a 0.12064983,0.1206504 0 0 0 -0.11516,0.12055 0.12064983,0.1206504 0 0 0 0.11516,0.12052 v 2.3e-4 a 0.12064983,0.1206504 0 0 0 -0.11516,0.12054 0.12064983,0.1206504 0 0 0 0.11516,0.12051 v 1.7e-4 a 0.40835903,0.10394644 0 0 0 0.40839,0.10392 0.40835903,0.10394644 0 0 0 0.40835,-0.10392 v -1e-4 a 0.12064983,0.1206504 0 0 0 0.117,-0.12059 0.12064983,0.1206504 0 0 0 -0.117,-0.1206 v -1e-4 a 0.12064983,0.1206504 0 0 0 0.117,-0.12059 0.12064983,0.1206504 0 0 0 -0.117,-0.12061 v -6e-5 a 0.12064983,0.1206504 0 0 0 0.11881,-0.12065 0.12064983,0.1206504 0 0 0 -0.11881,-0.12065 0.12064983,0.1206504 0 0 0 0.12065,-0.12064 0.12064983,0.1206504 0 0 0 -0.11881,-0.12065 0.12064983,0.1206504 0 0 0 -0.002,0 z" />
    </g>
    <g
       style="display:inline;opacity:0.1"
       inkscape:label="Highlight"
       id="layer3"
       inkscape:groupmode="layer" />
  </g>
</svg>
