<?xml version="1.0" encoding="UTF-8" standalone="no"?>
<svg
   sodipodi:docname="openjdk.svg"
   id="svg8"
   version="1.1"
   viewBox="0 0 67.733332 67.733335"
   height="256"
   width="256"
   inkscape:version="1.4 (e7c3feb100, 2024-10-09)"
   xmlns:inkscape="http://www.inkscape.org/namespaces/inkscape"
   xmlns:sodipodi="http://sodipodi.sourceforge.net/DTD/sodipodi-0.dtd"
   xmlns="http://www.w3.org/2000/svg"
   xmlns:svg="http://www.w3.org/2000/svg">
  <defs
     id="defs2" />
  <sodipodi:namedview
     inkscape:window-maximized="1"
     inkscape:window-y="0"
     inkscape:window-x="0"
     inkscape:window-height="1011"
     inkscape:window-width="1920"
     units="px"
     showgrid="false"
     inkscape:document-rotation="0"
     inkscape:current-layer="g1156"
     inkscape:document-units="px"
     inkscape:cy="110.99999"
     inkscape:cx="116.99999"
     inkscape:zoom="2.0000001"
     inkscape:pageshadow="2"
     inkscape:pageopacity="0.0"
     borderopacity="1.0"
     bordercolor="#666666"
     pagecolor="#ffffff"
     id="base"
     inkscape:showpageshadow="2"
     inkscape:pagecheckerboard="0"
     inkscape:deskcolor="#d1d1d1" />
  <g
     inkscape:groupmode="layer"
     id="layer1"
     inkscape:label="Background"
     style="display:inline">
    <g
       inkscape:label="Shadow"
       id="layer10"
       inkscape:groupmode="layer"
       style="display:inline;opacity:0.4">
      <path
         id="path839"
         style="display:inline;opacity:1;fill:#000000;fill-opacity:1;stroke-width:0.0246944;stroke-miterlimit:4;stroke-dasharray:none;paint-order:stroke fill markers"
         d="m 4.2333333,34.925001 v 24.641082 c 0,2.765599 2.2266527,4.992251 4.9922512,4.992251 H 58.50775 c 2.765599,0 4.99225,-2.226652 4.99225,-4.992251 V 34.925001 Z" />
    </g>
    <g
       style="display:inline"
       inkscape:label="Colour"
       id="g1174"
       inkscape:groupmode="layer">
      <path
         id="rect1168"
         style="display:inline;fill:#4ba7e2;fill-opacity:1;stroke-width:0.0933332;stroke-miterlimit:4;stroke-dasharray:none;paint-order:stroke fill markers"
         d="M 34.869141,16 C 24.416485,16 16,24.416485 16,34.869141 V 128 221.13086 C 16,231.58352 24.416485,240 34.869141,240 H 221.13086 C 231.58352,240 240,231.58352 240,221.13086 V 128 34.869141 C 240,24.416485 231.58352,16 221.13086,16 Z"
         transform="scale(0.26458333)" />
    </g>
    <g
       inkscape:groupmode="layer"
       id="layer2"
       inkscape:label="Highlight"
       style="opacity:0.1" />
  </g>
  <g
     inkscape:label="Graphic"
     id="g1156"
     inkscape:groupmode="layer"
     style="display:inline">
    <path
       id="path48"
       style="opacity:0.4;fill:#000000"
       d="m 23.95306,10.817945 0.250114,1.88464 c 0.968557,7.300238 -0.340811,15.28456 -2.037085,22.512838 -0.298765,0.146269 -1.385213,0.693506 -2.57607,1.504817 -1.387172,0.945059 -2.997556,2.113999 -3.334164,3.947563 -0.15484,0.843447 0.147866,1.619331 0.529167,2.197282 0.381301,0.57795 0.850179,1.039518 1.267623,1.466577 0.417444,0.427058 0.784026,0.820062 0.971,1.120862 0.186975,0.300801 0.201115,0.411719 0.15813,0.572575 -0.03732,0.139654 -0.243037,0.448199 -0.650606,0.763777 -0.407569,0.315577 -0.97416,0.62856 -1.538924,0.886768 -1.129526,0.516415 -2.216919,0.814421 -2.216919,0.814421 a 1.0583349,1.0583349 0 0 0 -0.744141,1.298628 1.0583349,1.0583349 0 0 0 1.299145,0.744141 c 0,0 1.226679,-0.330146 2.542481,-0.931726 0.233561,-0.106783 0.470768,-0.225658 0.706934,-0.350883 -0.468621,2.018519 -0.802837,3.822134 -0.872815,5.333525 -0.06544,1.413347 0.05898,2.644179 0.750341,3.623034 0.691357,0.978854 1.971698,1.415265 3.34915,1.27124 3.104469,-0.324601 5.500773,-2.184178 7.707023,-3.7946 2.20625,-1.610421 4.191845,-2.952372 6.394959,-2.935738 1.68792,0.01274 3.266549,1.549516 5.136637,3.249931 0.935044,0.850208 1.935568,1.709435 3.134692,2.285132 1.199125,0.575698 2.634551,0.827356 4.169772,0.415995 1.319641,-0.353597 2.184628,-1.518969 2.57452,-2.884579 0.389892,-1.365609 0.431425,-3.030069 0.234094,-4.951119 -0.394661,-3.8421 -1.791206,-8.718413 -3.98632,-13.800708 -0.633146,-1.465907 -1.339405,-2.948307 -2.10013,-4.426086 0.473745,-0.04547 1.035676,-0.113711 1.62574,-0.216524 1.585947,-0.276338 3.448153,-0.655529 4.533057,-2.076359 1.417049,-1.85582 1.308153,-4.572139 1.089856,-6.886919 -0.218296,-2.314781 -0.706934,-4.263305 -0.706934,-4.263305 a 1.0583349,1.0583349 0 0 0 -1.281575,-0.771529 1.0583349,1.0583349 0 0 0 -0.771013,1.283125 c 0,0 0.451066,1.818844 0.652157,3.95118 0.201091,2.132337 -0.0087,4.541333 -0.666109,5.402255 -0.325229,0.425932 -1.807309,1.030492 -3.212724,1.275374 -1.004315,0.174993 -1.91005,0.238337 -2.356445,0.261483 C 39.504982,22.5618 33.228107,14.997934 25.685771,11.599293 Z m -2.476335,27.201958 c -0.469051,1.85957 -0.943883,3.670444 -1.39733,5.368664 C 19.90729,43.20159 19.733556,43.022294 19.566248,42.851132 19.144236,42.4194 18.764737,42.019877 18.552873,41.698748 18.34101,41.377619 18.307144,41.217732 18.337899,41.050209 c 0.09856,-0.536879 1.213925,-1.744227 2.443262,-2.581755 0.237083,-0.161521 0.469626,-0.309294 0.695564,-0.448551 z" />
    <g
       id="g41"
       transform="translate(0,1.5875)">
      <g
         id="g40">
        <g
           id="path1">
          <path
             style="fill:#ffffff"
             d="M 25.251464,9.9184529 C 28.051425,31.022399 12.494469,56.741201 21.696779,55.779015 c 5.46803,-0.571733 8.974469,-6.774787 14.218738,-6.735191 4.518061,0.03411 7.006972,7.367789 12.160764,5.986835 7.182662,-1.924588 -4.57946,-36.890693 -22.824817,-45.1122061 z"
             id="path2" />
          <path
             d="m 23.953125,8.171875 0.25,1.886719 c 1.358997,10.243071 -1.762176,21.839055 -4.152344,30.791015 -1.195083,4.475981 -2.212872,8.261196 -2.34375,11.087891 -0.06544,1.413348 0.05864,2.644193 0.75,3.623047 0.691357,0.978854 1.972158,1.415509 3.34961,1.271484 3.104469,-0.324601 5.500781,-2.1845 7.707031,-3.794922 2.20625,-1.610421 4.191417,-2.952181 6.394531,-2.935547 1.68792,0.01274 3.266631,1.549585 5.136719,3.25 0.935044,0.850208 1.935641,1.709459 3.134765,2.285157 1.199125,0.575698 2.634701,0.827377 4.169922,0.416015 1.319641,-0.353596 2.184327,-1.519156 2.574219,-2.884765 C 51.31372,51.802359 51.355534,50.1398 51.158203,48.21875 50.763542,44.37665 49.366989,39.49831 47.171875,34.416016 42.781647,24.251426 35.24292,13.259759 25.685547,8.953125 Z m 2.416016,3.568359 c 8.014589,4.414016 14.861191,14.258728 18.859375,23.515625 2.128253,4.927495 3.463438,9.665477 3.824218,13.177735 0.18039,1.756128 0.10634,3.20525 -0.164062,4.152343 -0.270403,0.947094 -0.609913,1.294325 -1.085938,1.421875 -1.041675,0.279116 -1.848791,0.132743 -2.707031,-0.279296 -0.858239,-0.41204 -1.730788,-1.128503 -2.626953,-1.94336 -1.792331,-1.629713 -3.714781,-3.777461 -6.544922,-3.798828 -3.041155,-0.02296 -5.433159,1.717657 -7.658203,3.341797 -2.225044,1.62414 -4.316127,3.151305 -6.679688,3.398437 -0.923125,0.09652 -1.168248,-0.06081 -1.398437,-0.386718 -0.230189,-0.325912 -0.422389,-1.112456 -0.367188,-2.304688 0.110403,-2.384463 1.08152,-6.167231 2.275391,-10.638672 2.246092,-8.41235 5.122897,-19.34602 4.273438,-29.65625 z"
             id="path4" />
        </g>
        <path
           style="stroke-linecap:round"
           d="m 22.294922,32.505859 c 0,0 -1.317906,0.623302 -2.705078,1.56836 -1.387172,0.945058 -2.997377,2.113702 -3.333985,3.947265 -0.15484,0.843447 0.147996,1.619315 0.529297,2.197266 0.381301,0.577951 0.850134,1.039738 1.267578,1.466797 0.417444,0.427058 0.783729,0.820293 0.970703,1.121094 0.186975,0.3008 0.201189,0.411409 0.158204,0.572265 -0.03732,0.139654 -0.242822,0.448095 -0.650391,0.763672 -0.407569,0.315578 -0.974299,0.628511 -1.539063,0.886719 -1.129526,0.516415 -2.216796,0.814453 -2.216796,0.814453 a 1.0583349,1.0583349 0 0 0 -0.744141,1.298828 1.0583349,1.0583349 0 0 0 1.298828,0.744141 c 0,0 1.227167,-0.330061 2.542969,-0.931641 0.657901,-0.30079 1.345718,-0.668361 1.953125,-1.138672 0.607406,-0.47031 1.176437,-1.052573 1.40039,-1.890625 0.22238,-0.832163 -0.03994,-1.647024 -0.40625,-2.236328 -0.366305,-0.589304 -0.831893,-1.05069 -1.253906,-1.482422 -0.422012,-0.431732 -0.801808,-0.833168 -1.013672,-1.154297 -0.211863,-0.321128 -0.245598,-0.480913 -0.214843,-0.648437 0.09856,-0.536878 1.214022,-1.742551 2.443359,-2.580078 1.229337,-0.837528 2.419922,-1.40625 2.419922,-1.40625 a 1.0583349,1.0583349 0 0 0 0.501953,-1.410157 1.0583349,1.0583349 0 0 0 -1.408203,-0.501953 z"
           id="path14" />
        <path
           style="stroke-linecap:round"
           d="m 50.332031,15.775391 a 1.0583349,1.0583349 0 0 0 -0.771484,1.283203 c 0,0 0.451253,1.818835 0.652344,3.951172 0.201091,2.132336 -0.0086,4.541422 -0.666016,5.402343 -0.325229,0.425932 -1.807476,1.030509 -3.212891,1.275391 -1.405414,0.244882 -2.65625,0.275391 -2.65625,0.275391 a 1.0583349,1.0583349 0 0 0 -1.035156,1.082031 1.0583349,1.0583349 0 0 0 1.082031,1.033203 c 0,0 1.386709,-0.02835 2.972657,-0.304688 1.585947,-0.276338 3.448299,-0.655342 4.533203,-2.076171 1.417049,-1.855821 1.30814,-4.571939 1.089843,-6.886719 -0.218296,-2.31478 -0.707031,-4.263672 -0.707031,-4.263672 a 1.0583349,1.0583349 0 0 0 -1.28125,-0.771484 z"
           id="path15" />
      </g>
      <g
         id="g39">
        <g
           id="g29"
           style="display:inline;fill:#000000">
          <path
             id="path27"
             style="fill:#000000;stroke-linecap:round;stroke-linejoin:round"
             d="m 26.425777,10.962122 a 0.78059807,0.78059807 0 0 0 -0.834057,0.842325 c 0.450802,5.471568 -0.170567,11.158624 -1.193209,16.55868 a 0.78059807,0.78059807 0 0 0 0.957047,0.90227 l 6.304525,-1.589567 a 0.78059807,0.78059807 0 0 0 0.574125,-0.603581 c 0.104896,-0.523646 0.341256,-0.832025 0.760161,-1.122928 0.418904,-0.290903 1.03504,-0.521101 1.763199,-0.699183 1.45632,-0.356163 3.302734,-0.492406 4.873088,-1.064534 a 0.78059807,0.78059807 0 0 0 0.379305,-1.169955 c -3.727808,-5.530204 -8.254989,-9.200375 -13.26379,-11.95896 a 0.78059807,0.78059807 0 0 0 -0.320394,-0.09457 z" />
          <path
             style="fill:#000000;stroke:#000000;stroke-width:2.11667;stroke-linecap:butt;stroke-linejoin:miter;stroke-dasharray:none;stroke-opacity:1"
             d="m 39.798664,24.144595 c -5.245077,1.790932 -10.587427,5.638074 -15.732313,5.38133"
             id="path3"
             sodipodi:nodetypes="cc" />
          <path
             style="fill:#000000;stroke-linecap:round;stroke-linejoin:round;paint-order:stroke fill markers"
             d="m 31.557323,24.840906 c -1.26117,0.33793 -2.323146,1.013973 -3.041231,1.908811 -0.718085,0.894838 -1.096565,2.072886 -0.787621,3.225879 0.308943,1.152993 1.225236,1.982088 2.294535,2.397998 1.069298,0.41591 2.327523,0.472278 3.588693,0.134348 1.261172,-0.33793 2.322642,-1.015858 3.040727,-1.910696 0.718085,-0.894838 1.09707,-2.071001 0.788127,-3.223994 -0.308944,-1.152993 -1.225741,-1.983973 -2.29504,-2.399883 -1.069299,-0.41591 -2.327018,-0.470393 -3.58819,-0.132463 z"
             id="path28"
             sodipodi:nodetypes="sssssssss" />
        </g>
        <path
           style="fill:#fc3a15;stroke-linecap:round;stroke-linejoin:round;paint-order:stroke fill markers"
           d="m 36.417747,27.646985 a 2.9104166,3.96875 75 0 1 -3.080247,3.838434 2.9104166,3.96875 75 0 1 -4.586789,-1.784058 2.9104166,3.96875 75 0 1 3.080246,-3.838435 2.9104166,3.96875 75 0 1 4.58679,1.784059 z"
           id="path29" />
      </g>
    </g>
  </g>
  <g
     inkscape:groupmode="layer"
     id="layer3"
     inkscape:label="Highlight"
     style="display:inline">
    <path
       d="m 9.2257931,4.2333333 c -2.7655986,0 -4.9924598,2.2268608 -4.9924598,4.9924598 v 1.0583329 c 0,-2.7655979 2.2268612,-4.9924597 4.9924598,-4.9924597 H 58.50754 c 2.765599,0 4.99246,2.2268618 4.99246,4.9924597 V 9.2257931 c 0,-2.765599 -2.226861,-4.9924598 -4.99246,-4.9924598 z"
       style="display:inline;opacity:0.1;fill:#ffffff;fill-opacity:1;stroke-width:0.0246944;stroke-miterlimit:4;stroke-dasharray:none;paint-order:stroke fill markers"
       id="path955" />
    <path
       id="path13"
       style="display:inline;opacity:0.1;fill:#ffffff;fill-opacity:1;stroke-width:0.0933332;stroke-miterlimit:4;stroke-dasharray:none;paint-order:stroke fill markers"
       d="m 16,128 v 93.13086 C 16,231.58352 24.416485,240 34.869141,240 H 221.13086 C 231.58352,240 240,231.58352 240,221.13086 V 128 Z"
       transform="scale(0.26458333)" />
  </g>
</svg>
