<?xml version="1.0" encoding="UTF-8" standalone="no"?>
<svg
   sodipodi:docname="openjdk.svg"
   id="svg8"
   version="1.1"
   viewBox="0 0 67.733332 67.733335"
   height="256"
   width="256"
   xmlns:inkscape="http://www.inkscape.org/namespaces/inkscape"
   xmlns:sodipodi="http://sodipodi.sourceforge.net/DTD/sodipodi-0.dtd"
   xmlns="http://www.w3.org/2000/svg"
   xmlns:svg="http://www.w3.org/2000/svg">
  <defs
     id="defs2" />
  <sodipodi:namedview
     inkscape:window-maximized="1"
     inkscape:window-y="0"
     inkscape:window-x="0"
     inkscape:window-height="1016"
     inkscape:window-width="1836"
     units="px"
     showgrid="false"
     inkscape:document-rotation="0"
     inkscape:current-layer="layer3"
     inkscape:document-units="px"
     inkscape:cy="133.76396"
     inkscape:cx="146.60498"
     inkscape:zoom="1.4142136"
     inkscape:pageshadow="2"
     inkscape:pageopacity="0.0"
     borderopacity="1.0"
     bordercolor="#666666"
     pagecolor="#ffffff"
     id="base"
     inkscape:showpageshadow="2"
     inkscape:pagecheckerboard="0"
     inkscape:deskcolor="#d1d1d1" />
  <g
     inkscape:groupmode="layer"
     id="layer1"
     inkscape:label="Background"
     style="display:inline">
    <g
       inkscape:label="Shadow"
       id="layer10"
       inkscape:groupmode="layer"
       style="display:inline;opacity:0.4">
      <path
         id="path839"
         style="display:inline;opacity:1;fill:#000000;fill-opacity:1;stroke-width:0.0246944;stroke-miterlimit:4;stroke-dasharray:none;paint-order:stroke fill markers"
         d="m 4.2333333,34.925001 v 24.641082 c 0,2.765599 2.2266527,4.992251 4.9922512,4.992251 H 58.50775 c 2.765599,0 4.99225,-2.226652 4.99225,-4.992251 V 34.925001 Z" />
    </g>
    <g
       style="display:inline"
       inkscape:label="Colour"
       id="g1174"
       inkscape:groupmode="layer">
      <path
         id="rect1168"
         style="display:inline;fill:#ff4e25;fill-opacity:1;stroke-width:0.0933332;stroke-miterlimit:4;stroke-dasharray:none;paint-order:stroke fill markers"
         d="M 34.869141,16 C 24.416485,16 16,24.416485 16,34.869141 V 128 221.13086 C 16,231.58352 24.416485,240 34.869141,240 H 221.13086 C 231.58352,240 240,231.58352 240,221.13086 V 128 34.869141 C 240,24.416485 231.58352,16 221.13086,16 Z"
         transform="scale(0.26458333)" />
    </g>
    <g
       inkscape:groupmode="layer"
       id="layer2"
       inkscape:label="Highlight"
       style="opacity:0.1">
      <path
         d="m 9.2257931,4.2333333 c -2.7655986,0 -4.9924598,2.2268608 -4.9924598,4.9924598 v 1.0583329 c 0,-2.7655979 2.2268612,-4.9924597 4.9924598,-4.9924597 H 58.50754 c 2.765599,0 4.99246,2.2268618 4.99246,4.9924597 V 9.2257931 c 0,-2.765599 -2.226861,-4.9924598 -4.99246,-4.9924598 z"
         style="display:inline;opacity:1;fill:#ffffff;fill-opacity:1;stroke-width:0.0246944;stroke-miterlimit:4;stroke-dasharray:none;paint-order:stroke fill markers"
         id="path955" />
    </g>
  </g>
  <g
     inkscape:label="Graphic"
     id="g1156"
     inkscape:groupmode="layer"
     style="display:inline">
    <g
       inkscape:groupmode="layer"
       id="layer3"
       inkscape:label="Shadow"
       style="display:inline;opacity:0.4">
      <g
         id="g1070"
         style="display:inline">
        <g
           id="g1042"
           style="fill:#000000;stroke:#000000"
           transform="matrix(0.47950769,0,0,0.47950874,19.459938,7.6259473)">
          <path
             style="opacity:1;fill:#000000;fill-opacity:1;stroke:#000000;stroke-width:0.638031;stroke-linecap:round;stroke-linejoin:round;stroke-miterlimit:4;stroke-dasharray:none;stroke-opacity:1"
             d="M 25.067779,61.415119 C 16.628238,48.684921 12.983951,38.191294 19.517368,28.292745 25.600781,20.551468 32.731949,20.838417 43.076763,6.4863805 37.22688,22.943623 30.409082,20.450235 23.041092,30.894116 c -6.477837,9.18212 -2.362705,15.770045 2.026687,30.521003 z"
             id="path1036"
             sodipodi:nodetypes="cccsc" />
          <path
             style="opacity:1;fill:#000000;fill-opacity:1;stroke:#000000;stroke-width:0.638031;stroke-linecap:round;stroke-linejoin:round;stroke-miterlimit:4;stroke-dasharray:none;stroke-opacity:1"
             d="M 32.178121,62.846898 C 33.357904,54.71587 28.153357,47.577868 26.73913,40.281703 25.348569,33.107631 29.614414,27.431453 48.268598,17.653429 33.146488,32.124915 31.084517,33.631282 31.556225,40.988794 c 0.402514,6.278266 6.795999,12.748973 0.621896,21.858104 z"
             id="path1038"
             sodipodi:nodetypes="cscsc" />
          <path
             style="opacity:1;fill:#000000;fill-opacity:1;stroke:#000000;stroke-width:0.478718;stroke-linecap:round;stroke-linejoin:round;stroke-miterlimit:4;stroke-dasharray:none;stroke-opacity:1"
             d="M 45.241062,62.69598 C 46.632254,53.943043 42.604929,51.394557 40.731664,46.142391 38.889746,40.978118 38.550091,36.199389 52.070585,27.355946 41.218113,38.669442 43.209984,41.626019 44.384625,46.12268 c 0.324611,1.242647 6.13243,9.992191 0.856437,16.5733 z"
             id="path1040"
             sodipodi:nodetypes="cscsc" />
        </g>
        <g
           id="g1050"
           transform="matrix(4.5631025,0,0,4.5631125,-110.92442,-206.91535)"
           style="fill:#000000">
          <path
             d="m 30.382848,55.773486 c 0,0 -0.392514,0.228257 0.279351,0.305493 0.813964,0.09285 1.229943,0.07956 2.126942,-0.09023 0,0 0.235841,0.147869 0.565156,0.275961 -2.010776,0.861786 -4.550842,-0.04993 -2.971449,-0.491222 m -0.245715,-1.124602 c 0,0 -0.440247,0.325895 0.232123,0.395428 0.86949,0.0897 1.556135,0.09704 2.744323,-0.13175 0,0 0.164345,0.166605 0.422759,0.25773 -2.431186,0.710914 -5.139077,0.05606 -3.399205,-0.521408"
             fill="#5382a1"
             id="path1044"
             style="fill:#000000;stroke-width:0.0297404" />
          <path
             d="m 34.867993,56.605294 c 0,0 0.290474,0.239321 -0.319917,0.424485 -1.160648,0.35162 -4.830788,0.457793 -5.850348,0.01401 -0.36649,-0.159408 0.32081,-0.380676 0.536993,-0.427131 0.225461,-0.04889 0.354326,-0.03976 0.354326,-0.03976 -0.407591,-0.287143 -2.634491,0.563789 -1.131145,0.807451 4.099799,0.664876 7.473517,-0.299366 6.410091,-0.779049 M 30.57158,53.483686 c 0,0 -1.866833,0.443429 -0.661069,0.604413 0.509096,0.06817 1.523986,0.05276 2.469343,-0.02647 0.772595,-0.06513 1.548373,-0.203721 1.548373,-0.203721 0,0 -0.272422,0.116671 -0.469511,0.251246 -1.895771,0.498598 -5.558059,0.266653 -4.503733,-0.243365 0.891646,-0.430997 1.616627,-0.382104 1.616627,-0.382104 m 3.348914,1.871918 c 1.927176,-1.001418 1.036125,-1.963757 0.414194,-1.834089 -0.152449,0.0317 -0.220406,0.05918 -0.220406,0.05918 0,0 0.0566,-0.08863 0.164673,-0.126992 1.230359,-0.432573 2.176608,1.275773 -0.397183,1.952366 0,3e-5 0.02983,-0.02662 0.03872,-0.05047"
             fill="#5382a1"
             id="path1046"
             style="fill:#000000;stroke-width:0.0297404" />
          <path
             d="m 30.760967,58.069205 c 1.849821,0.118426 4.690413,-0.0657 4.757686,-0.940986 0,0 -0.129312,0.331843 -1.528774,0.595343 -1.578857,0.297106 -3.526138,0.262429 -4.681105,0.072 3e-5,0 0.236436,0.195692 1.452222,0.273642"
             fill="#5382a1"
             id="path1048"
             style="fill:#000000;stroke-width:0.0297404" />
        </g>
      </g>
    </g>
    <g
       id="g989"
       transform="matrix(0.90905791,0,0,0.9090599,3.2073659,3.9499984)">
      <g
         id="g878"
         style="opacity:1;fill:#ffffff;stroke:#ffffff"
         transform="matrix(0.52747761,0,0,0.52747761,17.878478,2.8794753)">
        <path
           style="opacity:1;fill:#ffffff;fill-opacity:1;stroke:#ffffff;stroke-width:0.638031;stroke-linecap:round;stroke-linejoin:round;stroke-miterlimit:4;stroke-dasharray:none;stroke-opacity:1"
           d="M 25.067779,61.415119 C 16.628238,48.684921 12.983951,38.191294 19.517368,28.292745 25.600781,20.551468 32.731949,20.838417 43.076763,6.4863805 37.22688,22.943623 30.409082,20.450235 23.041092,30.894116 c -6.477837,9.18212 -2.362705,15.770045 2.026687,30.521003 z"
           id="path842"
           sodipodi:nodetypes="cccsc" />
        <path
           style="opacity:1;fill:#ffffff;fill-opacity:1;stroke:#ffffff;stroke-width:0.638031;stroke-linecap:round;stroke-linejoin:round;stroke-miterlimit:4;stroke-dasharray:none;stroke-opacity:1"
           d="M 32.178121,62.846898 C 33.357904,54.71587 28.153357,47.577868 26.73913,40.281703 25.348569,33.107631 29.614414,27.431453 48.268598,17.653429 33.146488,32.124915 31.084517,33.631282 31.556225,40.988794 c 0.402514,6.278266 6.795999,12.748973 0.621896,21.858104 z"
           id="path844"
           sodipodi:nodetypes="cscsc" />
        <path
           style="opacity:1;fill:#ffffff;fill-opacity:1;stroke:#ffffff;stroke-width:0.478718;stroke-linecap:round;stroke-linejoin:round;stroke-miterlimit:4;stroke-dasharray:none;stroke-opacity:1"
           d="M 45.241062,62.69598 C 46.632254,53.943043 42.604929,51.394557 40.731664,46.142391 38.889746,40.978118 38.550091,36.199389 52.070585,27.355946 41.218113,38.669442 43.209984,41.626019 44.384625,46.12268 c 0.324611,1.242647 6.13243,9.992191 0.856437,16.5733 z"
           id="path846"
           sodipodi:nodetypes="cscsc" />
      </g>
      <g
         id="g940"
         transform="matrix(5.019595,0,0,5.019595,-125.54952,-233.124)">
        <path
           d="m 30.382848,55.773486 c 0,0 -0.392514,0.228257 0.279351,0.305493 0.813964,0.09285 1.229943,0.07956 2.126942,-0.09023 0,0 0.235841,0.147869 0.565156,0.275961 -2.010776,0.861786 -4.550842,-0.04993 -2.971449,-0.491222 m -0.245715,-1.124602 c 0,0 -0.440247,0.325895 0.232123,0.395428 0.86949,0.0897 1.556135,0.09704 2.744323,-0.13175 0,0 0.164345,0.166605 0.422759,0.25773 -2.431186,0.710914 -5.139077,0.05606 -3.399205,-0.521408"
           fill="#5382a1"
           id="path901"
           style="fill:#ffffff;stroke-width:0.0297404" />
        <path
           d="m 34.867993,56.605294 c 0,0 0.290474,0.239321 -0.319917,0.424485 -1.160648,0.35162 -4.830788,0.457793 -5.850348,0.01401 -0.36649,-0.159408 0.32081,-0.380676 0.536993,-0.427131 0.225461,-0.04889 0.354326,-0.03976 0.354326,-0.03976 -0.407591,-0.287143 -2.634491,0.563789 -1.131145,0.807451 4.099799,0.664876 7.473517,-0.299366 6.410091,-0.779049 M 30.57158,53.483686 c 0,0 -1.866833,0.443429 -0.661069,0.604413 0.509096,0.06817 1.523986,0.05276 2.469343,-0.02647 0.772595,-0.06513 1.548373,-0.203721 1.548373,-0.203721 0,0 -0.272422,0.116671 -0.469511,0.251246 -1.895771,0.498598 -5.558059,0.266653 -4.503733,-0.243365 0.891646,-0.430997 1.616627,-0.382104 1.616627,-0.382104 m 3.348914,1.871918 c 1.927176,-1.001418 1.036125,-1.963757 0.414194,-1.834089 -0.152449,0.0317 -0.220406,0.05918 -0.220406,0.05918 0,0 0.0566,-0.08863 0.164673,-0.126992 1.230359,-0.432573 2.176608,1.275773 -0.397183,1.952366 0,3e-5 0.02983,-0.02662 0.03872,-0.05047"
           fill="#5382a1"
           id="path905"
           style="fill:#ffffff;stroke-width:0.0297404" />
        <path
           d="m 30.760967,58.069205 c 1.849821,0.118426 4.690413,-0.0657 4.757686,-0.940986 0,0 -0.129312,0.331843 -1.528774,0.595343 -1.578857,0.297106 -3.526138,0.262429 -4.681105,0.072 3e-5,0 0.236436,0.195692 1.452222,0.273642"
           fill="#5382a1"
           id="path909"
           style="fill:#ffffff;stroke-width:0.0297404" />
      </g>
    </g>
  </g>
</svg>
