<?xml version="1.0" encoding="UTF-8" standalone="no"?>
<svg
   sodipodi:docname="openjdk.svg"
   id="svg8"
   version="1.1"
   viewBox="0 0 67.733332 67.733335"
   height="256"
   width="256"
   inkscape:version="1.4 (e7c3feb100, 2024-10-09)"
   xmlns:inkscape="http://www.inkscape.org/namespaces/inkscape"
   xmlns:sodipodi="http://sodipodi.sourceforge.net/DTD/sodipodi-0.dtd"
   xmlns="http://www.w3.org/2000/svg"
   xmlns:svg="http://www.w3.org/2000/svg">
  <defs
     id="defs2" />
  <sodipodi:namedview
     inkscape:window-maximized="1"
     inkscape:window-y="0"
     inkscape:window-x="0"
     inkscape:window-height="1011"
     inkscape:window-width="1920"
     units="px"
     showgrid="false"
     inkscape:document-rotation="0"
     inkscape:current-layer="g1156"
     inkscape:document-units="px"
     inkscape:cy="111"
     inkscape:cx="117"
     inkscape:zoom="2.0000001"
     inkscape:pageshadow="2"
     inkscape:pageopacity="0.0"
     borderopacity="1.0"
     bordercolor="#666666"
     pagecolor="#ffffff"
     id="base"
     inkscape:showpageshadow="2"
     inkscape:pagecheckerboard="0"
     inkscape:deskcolor="#d1d1d1" />
  <g
     inkscape:groupmode="layer"
     id="layer1"
     inkscape:label="Background"
     style="display:inline">
    <g
       inkscape:label="Shadow"
       id="layer10"
       inkscape:groupmode="layer"
       style="display:inline;opacity:0.4">
      <path
         id="path839"
         style="display:inline;opacity:1;fill:#000000;fill-opacity:1;stroke-width:0.0246944;stroke-miterlimit:4;stroke-dasharray:none;paint-order:stroke fill markers"
         d="m 4.2333333,34.925001 v 24.641082 c 0,2.765599 2.2266527,4.992251 4.9922512,4.992251 H 58.50775 c 2.765599,0 4.99225,-2.226652 4.99225,-4.992251 V 34.925001 Z" />
    </g>
    <g
       style="display:inline"
       inkscape:label="Colour"
       id="g1174"
       inkscape:groupmode="layer">
      <path
         id="rect1168"
         style="display:inline;fill:#4ba7e2;fill-opacity:1;stroke-width:0.0933332;stroke-miterlimit:4;stroke-dasharray:none;paint-order:stroke fill markers"
         d="M 34.869141,16 C 24.416485,16 16,24.416485 16,34.869141 V 128 221.13086 C 16,231.58352 24.416485,240 34.869141,240 H 221.13086 C 231.58352,240 240,231.58352 240,221.13086 V 128 34.869141 C 240,24.416485 231.58352,16 221.13086,16 Z"
         transform="scale(0.26458333)" />
    </g>
    <g
       inkscape:groupmode="layer"
       id="layer2"
       inkscape:label="Highlight"
       style="opacity:0.1" />
  </g>
  <g
     inkscape:label="Graphic"
     id="g1156"
     inkscape:groupmode="layer"
     style="display:inline">
    <path
       id="path48"
       style="opacity:0.4;fill:#000000"
       d="m 23.95306,10.817945 0.250114,1.88464 c 0.968557,7.300238 -0.340811,15.28456 -2.037085,22.512838 -0.298765,0.146269 -1.385213,0.693506 -2.57607,1.504817 -1.387172,0.945059 -2.997556,2.113999 -3.334164,3.947563 -0.15484,0.843447 0.147866,1.619331 0.529167,2.197282 0.381301,0.57795 0.850179,1.039518 1.267623,1.466577 0.417444,0.427058 0.784026,0.820062 0.971,1.120862 0.186975,0.300801 0.201115,0.411719 0.15813,0.572575 -0.03732,0.139654 -0.243037,0.448199 -0.650606,0.763777 -0.407569,0.315577 -0.97416,0.62856 -1.538924,0.886768 -1.129526,0.516415 -2.216919,0.814421 -2.216919,0.814421 a 1.0583349,1.0583349 0 0 0 -0.744141,1.298628 1.0583349,1.0583349 0 0 0 1.299145,0.744141 c 0,0 1.226679,-0.330146 2.542481,-0.931726 0.233561,-0.106783 0.470768,-0.225658 0.706934,-0.350883 -0.468621,2.018519 -0.802837,3.822134 -0.872815,5.333525 -0.06544,1.413347 0.05898,2.644179 0.750341,3.623034 0.691357,0.978854 1.971698,1.415265 3.34915,1.27124 3.104469,-0.324601 5.500773,-2.184178 7.707023,-3.7946 2.20625,-1.610421 4.191845,-2.952372 6.394959,-2.935738 1.68792,0.01274 3.266549,1.549516 5.136637,3.249931 0.935044,0.850208 1.935568,1.709435 3.134692,2.285132 1.199125,0.575698 2.634551,0.827356 4.169772,0.415995 1.319641,-0.353597 2.184628,-1.518969 2.57452,-2.884579 0.389892,-1.365609 0.431425,-3.030069 0.234094,-4.951119 -0.394661,-3.8421 -1.791206,-8.718413 -3.98632,-13.800708 -0.633146,-1.465907 -1.339405,-2.948307 -2.10013,-4.426086 0.473745,-0.04547 1.035676,-0.113711 1.62574,-0.216524 1.585947,-0.276338 3.448153,-0.655529 4.533057,-2.076359 1.417049,-1.85582 1.308153,-4.572139 1.089856,-6.886919 -0.218296,-2.314781 -0.706934,-4.263305 -0.706934,-4.263305 a 1.0583349,1.0583349 0 0 0 -1.281575,-0.771529 1.0583349,1.0583349 0 0 0 -0.771013,1.283125 c 0,0 0.451066,1.818844 0.652157,3.95118 0.201091,2.132337 -0.0087,4.541333 -0.666109,5.402255 -0.325229,0.425932 -1.807309,1.030492 -3.212724,1.275374 -1.004315,0.174993 -1.91005,0.238337 -2.356445,0.261483 C 39.504982,22.5618 33.228107,14.997934 25.685771,11.599293 Z m -2.476335,27.201958 c -0.469051,1.85957 -0.943883,3.670444 -1.39733,5.368664 C 19.90729,43.20159 19.733556,43.022294 19.566248,42.851132 19.144236,42.4194 18.764737,42.019877 18.552873,41.698748 18.34101,41.377619 18.307144,41.217732 18.337899,41.050209 c 0.09856,-0.536879 1.213925,-1.744227 2.443262,-2.581755 0.237083,-0.161521 0.469626,-0.309294 0.695564,-0.448551 z" />
    <g
       id="g41"
       transform="translate(0,1.5875)">
      <g
         id="g40">
        <path
           style="fill:#ffffff;stroke:#000000;stroke-width:2.11667;stroke-linecap:butt;stroke-linejoin:miter;stroke-dasharray:none;stroke-opacity:1"
           d="M 25.251464,9.9184529 C 28.051425,31.022399 12.494469,56.741201 21.696779,55.779015 c 5.46803,-0.571733 8.974469,-6.774787 14.218738,-6.735191 4.518061,0.03411 7.006972,7.367789 12.160764,5.986835 7.182662,-1.924588 -4.57946,-36.890693 -22.824817,-45.1122061 z"
           id="path1"
           sodipodi:nodetypes="csasc" />
        <path
           style="fill:none;stroke:#000000;stroke-width:2.11667;stroke-linecap:round;stroke-linejoin:miter;stroke-dasharray:none;stroke-opacity:1"
           d="m 22.747812,33.462468 c 0,0 -5.015433,2.37995 -5.450601,4.750392 -0.37119,2.021941 3.437596,3.453114 2.906865,5.439153 -0.522546,1.955412 -5.151929,3.213696 -5.151929,3.213696"
           id="path14"
           sodipodi:nodetypes="caac" />
        <path
           style="fill:none;stroke:#000000;stroke-width:2.11667;stroke-linecap:round;stroke-linejoin:miter;stroke-dasharray:none;stroke-opacity:1"
           d="m 43.70096,29.020747 c 0,0 5.277657,-0.119059 6.687789,-1.96582 2.074423,-2.716742 0.198437,-10.252605 0.198437,-10.252605"
           id="path15"
           sodipodi:nodetypes="cac" />
      </g>
      <g
         id="g39">
        <g
           id="g29"
           style="display:inline;fill:#000000">
          <path
             id="path27"
             style="fill:#000000;stroke-linecap:round;stroke-linejoin:round"
             d="m 26.425777,10.962122 a 0.78059807,0.78059807 0 0 0 -0.834057,0.842325 c 0.450802,5.471568 -0.170567,11.158624 -1.193209,16.55868 a 0.78059807,0.78059807 0 0 0 0.957047,0.90227 l 6.304525,-1.589567 a 0.78059807,0.78059807 0 0 0 0.574125,-0.603581 c 0.104896,-0.523646 0.341256,-0.832025 0.760161,-1.122928 0.418904,-0.290903 1.03504,-0.521101 1.763199,-0.699183 1.45632,-0.356163 3.302734,-0.492406 4.873088,-1.064534 a 0.78059807,0.78059807 0 0 0 0.379305,-1.169955 c -3.727808,-5.530204 -8.254989,-9.200375 -13.26379,-11.95896 a 0.78059807,0.78059807 0 0 0 -0.320394,-0.09457 z" />
          <path
             style="fill:#000000;stroke:#000000;stroke-width:2.11667;stroke-linecap:butt;stroke-linejoin:miter;stroke-dasharray:none;stroke-opacity:1"
             d="m 39.798664,24.144595 c -5.245077,1.790932 -10.587427,5.638074 -15.732313,5.38133"
             id="path3"
             sodipodi:nodetypes="cc" />
          <path
             style="fill:#000000;stroke-linecap:round;stroke-linejoin:round;paint-order:stroke fill markers"
             d="m 31.557323,24.840906 c -1.26117,0.33793 -2.323146,1.013973 -3.041231,1.908811 -0.718085,0.894838 -1.096565,2.072886 -0.787621,3.225879 0.308943,1.152993 1.225236,1.982088 2.294535,2.397998 1.069298,0.41591 2.327523,0.472278 3.588693,0.134348 1.261172,-0.33793 2.322642,-1.015858 3.040727,-1.910696 0.718085,-0.894838 1.09707,-2.071001 0.788127,-3.223994 -0.308944,-1.152993 -1.225741,-1.983973 -2.29504,-2.399883 -1.069299,-0.41591 -2.327018,-0.470393 -3.58819,-0.132463 z"
             id="path28"
             sodipodi:nodetypes="sssssssss" />
        </g>
        <path
           style="fill:#fc3a15;stroke-linecap:round;stroke-linejoin:round;paint-order:stroke fill markers"
           d="m 36.417747,27.646985 a 2.9104166,3.96875 75 0 1 -3.080247,3.838434 2.9104166,3.96875 75 0 1 -4.586789,-1.784058 2.9104166,3.96875 75 0 1 3.080246,-3.838435 2.9104166,3.96875 75 0 1 4.58679,1.784059 z"
           id="path29" />
      </g>
    </g>
  </g>
  <g
     inkscape:groupmode="layer"
     id="layer3"
     inkscape:label="Highlight"
     style="display:inline">
    <path
       d="m 9.2257931,4.2333333 c -2.7655986,0 -4.9924598,2.2268608 -4.9924598,4.9924598 v 1.0583329 c 0,-2.7655979 2.2268612,-4.9924597 4.9924598,-4.9924597 H 58.50754 c 2.765599,0 4.99246,2.2268618 4.99246,4.9924597 V 9.2257931 c 0,-2.765599 -2.226861,-4.9924598 -4.99246,-4.9924598 z"
       style="display:inline;opacity:0.1;fill:#ffffff;fill-opacity:1;stroke-width:0.0246944;stroke-miterlimit:4;stroke-dasharray:none;paint-order:stroke fill markers"
       id="path955" />
    <path
       id="path13"
       style="display:inline;opacity:0.1;fill:#ffffff;fill-opacity:1;stroke-width:0.0933332;stroke-miterlimit:4;stroke-dasharray:none;paint-order:stroke fill markers"
       d="m 16,128 v 93.13086 C 16,231.58352 24.416485,240 34.869141,240 H 221.13086 C 231.58352,240 240,231.58352 240,221.13086 V 128 Z"
       transform="scale(0.26458333)" />
  </g>
</svg>
