<?xml version="1.0" encoding="UTF-8" standalone="no"?>
<svg
   sodipodi:docname="org.gnome.Totem.svg"
   id="svg8"
   version="1.1"
   viewBox="0 0 67.733332 67.733335"
   height="256"
   width="256"
   inkscape:version="1.2.2 (b0a8486541, 2022-12-01)"
   xmlns:inkscape="http://www.inkscape.org/namespaces/inkscape"
   xmlns:sodipodi="http://sodipodi.sourceforge.net/DTD/sodipodi-0.dtd"
   xmlns="http://www.w3.org/2000/svg"
   xmlns:svg="http://www.w3.org/2000/svg">
  <defs
     id="defs2" />
  <sodipodi:namedview
     inkscape:window-maximized="1"
     inkscape:window-y="0"
     inkscape:window-x="0"
     inkscape:window-height="1011"
     inkscape:window-width="1920"
     units="px"
     showgrid="false"
     inkscape:document-rotation="0"
     inkscape:current-layer="g1156"
     inkscape:document-units="px"
     inkscape:cy="214.60055"
     inkscape:cx="209.84126"
     inkscape:zoom="1.1556354"
     inkscape:pageshadow="2"
     inkscape:pageopacity="0.0"
     borderopacity="1.0"
     bordercolor="#666666"
     pagecolor="#ffffff"
     id="base"
     inkscape:showpageshadow="2"
     inkscape:pagecheckerboard="0"
     inkscape:deskcolor="#d1d1d1" />
  <g
     inkscape:groupmode="layer"
     id="layer1"
     inkscape:label="Background"
     style="display:inline">
    <g
       inkscape:label="Shadow"
       id="layer10"
       inkscape:groupmode="layer"
       style="display:inline;opacity:0.4">
      <path
         id="path1156"
         style="display:inline;fill:#000000;fill-opacity:1;stroke-width:0.0246944;stroke-miterlimit:4;stroke-dasharray:none;paint-order:stroke fill markers"
         d="m 9.2257934,11.641668 c -2.7655985,0 -4.9924601,2.22686 -4.9924601,4.99246 v 11.940873 12.7 11.940873 c 0,2.7656 2.2268616,4.99246 4.9924601,4.99246 H 58.507539 c 2.7656,0 4.99246,-2.22686 4.99246,-4.99246 v -11.940873 -12.7 -11.940873 c 0,-2.7656 -2.22686,-4.99246 -4.99246,-4.99246 z" />
    </g>
    <g
       style="display:inline"
       inkscape:label="Colour"
       id="g1174"
       inkscape:groupmode="layer">
      <path
         id="rect1168"
         style="display:inline;fill:#a83bbb;fill-opacity:1;stroke-width:0.0246944;stroke-miterlimit:4;stroke-dasharray:none;paint-order:stroke fill markers"
         d="m 9.2257934,10.583334 c -2.7655985,0 -4.9924601,2.22686 -4.9924601,4.99246 v 11.940873 12.7 11.940873 c 0,2.765599 2.2268616,4.99246 4.9924601,4.99246 H 58.507539 c 2.7656,0 4.99246,-2.226861 4.99246,-4.99246 v -11.940873 -12.7 -11.940873 c 0,-2.7656 -2.22686,-4.99246 -4.99246,-4.99246 z" />
    </g>
    <g
       inkscape:groupmode="layer"
       id="layer2"
       inkscape:label="Highlight"
       style="display:inline;opacity:0.1">
      <path
         id="path1002"
         style="display:inline;fill:#ffffff;fill-opacity:1;stroke-width:0.0246944;stroke-miterlimit:4;stroke-dasharray:none;paint-order:stroke fill markers"
         d="m 9.2257934,10.583333 c -2.7655985,0 -4.9924601,2.22686 -4.9924601,4.992461 v 1.058333 c 0,-2.7656 2.2268616,-4.99246 4.9924601,-4.99246 H 58.507539 c 2.7656,0 4.99246,2.22686 4.99246,4.99246 v -1.058333 c 0,-2.765601 -2.22686,-4.992461 -4.99246,-4.992461 z" />
    </g>
  </g>
  <g
     inkscape:label="Graphic"
     id="g1156"
     inkscape:groupmode="layer"
     style="display:inline">
    <g
       inkscape:groupmode="layer"
       id="layer4"
       inkscape:label="Shadow"
       style="opacity:0.4">
      <path
         id="path847"
         style="color:#000000;font-style:normal;font-variant:normal;font-weight:normal;font-stretch:normal;font-size:medium;line-height:normal;font-family:sans-serif;font-variant-ligatures:normal;font-variant-position:normal;font-variant-caps:normal;font-variant-numeric:normal;font-variant-alternates:normal;font-variant-east-asian:normal;font-feature-settings:normal;font-variation-settings:normal;text-indent:0;text-align:start;text-decoration:none;text-decoration-line:none;text-decoration-style:solid;text-decoration-color:#000000;letter-spacing:normal;word-spacing:normal;text-transform:none;writing-mode:lr-tb;direction:ltr;text-orientation:mixed;dominant-baseline:auto;baseline-shift:baseline;text-anchor:start;white-space:normal;shape-padding:0;shape-margin:0;inline-size:0;clip-rule:nonzero;display:inline;overflow:visible;visibility:visible;opacity:1;isolation:auto;mix-blend-mode:normal;color-interpolation:sRGB;color-interpolation-filters:linearRGB;solid-color:#000000;solid-opacity:1;vector-effect:none;fill:#000000;fill-opacity:1;fill-rule:nonzero;stroke:none;stroke-width:3.4018;stroke-linecap:round;stroke-linejoin:round;stroke-miterlimit:4;stroke-dasharray:none;stroke-dashoffset:0;stroke-opacity:1;color-rendering:auto;image-rendering:auto;shape-rendering:auto;text-rendering:auto;enable-background:accumulate;stop-color:#000000"
         d="m 26.628865,23.01875 c -0.944207,-0.0067 -1.713165,0.756959 -1.713073,1.701189 0,6.803374 0,13.606748 0,20.410122 6.74e-4,1.308656 1.417043,2.126454 2.550749,1.472779 5.892397,-3.400956 11.784141,-6.803041 17.675923,-10.205061 1.133152,-0.654911 1.133152,-2.290648 0,-2.945559 C 39.251238,30.049236 33.358856,26.648256 27.466541,23.247159 27.211775,23.099844 26.923147,23.021144 26.628865,23.01875 Z"
         sodipodi:nodetypes="cccccccc" />
    </g>
    <path
       id="path3328"
       style="color:#000000;fill:#ffffff;stroke-width:3.40179;stroke-linecap:round;stroke-linejoin:round;-inkscape-stroke:none"
       d="m 26.616463,21.960417 c -0.29862,-1.3e-5 -0.591981,0.07859 -0.850594,0.227893 -0.526016,0.303912 -0.850033,0.865278 -0.850077,1.472778 0,6.803375 0,13.606749 0,20.410124 -9.16e-4,1.309574 1.416248,2.128979 2.550749,1.474845 5.892069,-3.402212 11.783992,-6.804678 17.675923,-10.207129 1.133149,-0.654912 1.133149,-2.290644 0,-2.945556 C 39.250912,28.990953 33.358708,25.589664 27.466541,22.18831 27.208079,22.03909 26.914908,21.960495 26.616463,21.960417 Z"
       sodipodi:nodetypes="ccccccccc" />
    <g
       id="g967"
       transform="translate(0,-4.2333331)">
      <path
         id="path862"
         style="display:inline;opacity:0.2;fill:#ffffff;fill-opacity:1;stroke-width:0.0933332;stroke-miterlimit:4;stroke-dasharray:none;paint-order:stroke fill markers"
         d="m 220,56 v 16 h 19.75977 c -1.37772,-9.077792 -9.15486,-16 -18.62891,-16 z m 0,32 v 16 h 20 V 88 Z m 0,32 v 16 h 20 v -16 z m 0,32 v 16 h 20 v -16 z m 0,32 v 16 h 20 v -16 z m 0,32 v 16 h 1.13086 c 9.47405,0 17.25119,-6.92221 18.62891,-16 z"
         transform="scale(0.26458333)" />
      <path
         id="path865"
         style="display:inline;opacity:0.2;fill:#ffffff;fill-opacity:1;stroke-width:0.0933332;stroke-miterlimit:4;stroke-dasharray:none;paint-order:stroke fill markers"
         d="M 34.869141,56 C 25.395094,56 17.617953,62.922208 16.240234,72 H 36 V 56 Z M 16,88 v 16 H 36 V 88 Z m 0,32 v 16 h 20 v -16 z m 0,32 v 16 h 20 v -16 z m 0,32 v 16 h 20 v -16 z m 0.240234,32 c 1.377719,9.07779 9.15486,16 18.628907,16 H 36 v -16 z"
         transform="scale(0.26458333)" />
    </g>
  </g>
  <g
     inkscape:groupmode="layer"
     id="layer3"
     inkscape:label="Large Highlight"
     style="display:inline;opacity:0.055">
    <path
       id="path974"
       style="display:inline;fill:#ffffff;fill-opacity:1;stroke-width:0.0246944;stroke-miterlimit:4;stroke-dasharray:none;paint-order:stroke fill markers"
       d="M 61.856172,11.874727 33.869767,33.866666 5.8771607,55.858605 c 0.8848875,0.800637 2.0559564,1.291394 3.3486327,1.291394 H 58.507539 c 2.7656,0 4.99246,-2.22686 4.99246,-4.992459 v -11.940874 -12.7 -11.940872 c 0,-1.472924 -0.635555,-2.788791 -1.643827,-3.701067 z" />
  </g>
</svg>
