<?xml version="1.0" encoding="UTF-8" standalone="no"?>
<svg
   sodipodi:docname="org.gnome.font-viewer.svg"
   id="svg8"
   version="1.1"
   viewBox="0 0 67.733332 67.733335"
   height="256"
   width="256"
   xmlns:inkscape="http://www.inkscape.org/namespaces/inkscape"
   xmlns:sodipodi="http://sodipodi.sourceforge.net/DTD/sodipodi-0.dtd"
   xmlns="http://www.w3.org/2000/svg"
   xmlns:svg="http://www.w3.org/2000/svg">
  <defs
     id="defs2">
    <rect
       x="20.363421"
       y="13.166957"
       width="28.010759"
       height="32.91534"
       id="rect854" />
    <rect
       x="20.363421"
       y="13.166957"
       width="28.010759"
       height="32.91534"
       id="rect922" />
  </defs>
  <sodipodi:namedview
     inkscape:window-maximized="1"
     inkscape:window-y="27"
     inkscape:window-x="1920"
     inkscape:window-height="1016"
     inkscape:window-width="1920"
     units="px"
     showgrid="false"
     inkscape:document-rotation="0"
     inkscape:current-layer="g1156"
     inkscape:document-units="px"
     inkscape:cy="181.6679"
     inkscape:cx="194.06738"
     inkscape:zoom="2"
     inkscape:pageshadow="2"
     inkscape:pageopacity="0.0"
     borderopacity="1.0"
     bordercolor="#666666"
     pagecolor="#ffffff"
     id="base"
     inkscape:showpageshadow="2"
     inkscape:pagecheckerboard="0"
     inkscape:deskcolor="#d1d1d1" />
  <g
     inkscape:groupmode="layer"
     id="layer1"
     inkscape:label="Background"
     style="display:inline">
    <g
       inkscape:label="Shadow"
       id="layer10"
       inkscape:groupmode="layer"
       style="display:inline;opacity:0.4">
      <path
         id="path1152"
         style="display:inline;fill:#000000;fill-opacity:1;stroke-width:0.0246944;stroke-miterlimit:4;stroke-dasharray:none;paint-order:stroke fill markers"
         d="m 4.2333333,5.2916666 c 0,19.7555554 0,39.5111104 0,59.2666664 0.5291688,0.529164 1.058849,1.057817 1.5875,1.5875 H 60.095039 c 2.7656,0 4.99246,-2.22686 4.99246,-4.99246 0,-16.956415 0,-33.912831 0,-50.869246 0,-2.7655993 -2.22686,-4.9924604 -4.99246,-4.9924604 -18.620568,0 -37.241137,0 -55.8617057,0 z"
         sodipodi:nodetypes="cccscccc" />
    </g>
    <g
       style="display:inline"
       inkscape:label="Colour"
       id="g1174"
       inkscape:groupmode="layer">
      <path
         id="path1117"
         style="display:inline;fill:#cccccc;fill-opacity:1;stroke-width:0.0933332;stroke-miterlimit:4;stroke-dasharray:none;paint-order:stroke fill markers"
         d="M 223 16 L 223 240 L 22 240 L 22 244 L 20 244 L 21 244.99805 L 22 246 L 227.13086 246 C 237.58352 246 246 237.58352 246 227.13086 L 246 221.13086 L 246 134 L 246 40.869141 L 246 34.869141 C 246 24.416483 237.58352 16 227.13086 16 L 223 16 z "
         transform="scale(0.26458333)" />
      <path
         id="path1112"
         style="display:inline;fill:#e6e6e6;fill-opacity:1;stroke-width:0.0933332;stroke-miterlimit:4;stroke-dasharray:none;paint-order:stroke fill markers"
         d="M 223 16 L 223 240 L 20 240 L 20 242 L 18 242 L 19 242.99805 L 20 244 L 225.13086 244 C 235.58352 244 244 235.58352 244 225.13086 L 244 221.13086 L 244 132 L 244 38.869141 L 244 34.869141 C 244 24.416483 235.58352 16 225.13086 16 L 223 16 z "
         transform="scale(0.26458333)" />
      <path
         id="path1082"
         style="display:inline;fill:#ffffff;fill-opacity:1;stroke-width:0.0933332;stroke-miterlimit:4;stroke-dasharray:none;paint-order:stroke fill markers"
         d="M 223 16 L 223 240 L 18 240 L 16 240 L 17 240.99805 L 18 242 L 223.13086 242 C 233.58352 242 242 233.58352 242 223.13086 L 242 221.13086 L 242 130 L 242 36.869141 L 242 34.869141 C 242 24.416483 233.58352 16 223.13086 16 L 223 16 z "
         transform="scale(0.26458333)" />
      <path
         id="rect1168"
         style="display:inline;fill:#9b31c4;fill-opacity:1;stroke-width:0.0246944;stroke-miterlimit:4;stroke-dasharray:none;paint-order:stroke fill markers"
         d="M 4.2333333,4.2333333 V 33.866666 63.499999 c 16.1944197,0 36.3401397,0 54.2742057,0 2.7656,0 4.99246,-2.22686 4.99246,-4.99246 V 33.866666 9.2257934 c 0,-2.765599 -2.22686,-4.9924601 -4.99246,-4.9924601 z"
         sodipodi:nodetypes="ccccscscc" />
      <rect
         style="display:inline;fill:#333333;fill-opacity:1;stroke:none;stroke-width:1.28288;stroke-linecap:round;stroke-linejoin:round;paint-order:stroke markers fill"
         id="rect849"
         width="6.6145835"
         height="59.266666"
         x="4.2333331"
         y="4.2333331" />
    </g>
    <g
       inkscape:groupmode="layer"
       id="layer2"
       inkscape:label="Highlight"
       style="display:inline;opacity:0.1">
      <path
         id="path840"
         style="display:inline;fill:#ffffff;fill-opacity:1;stroke-width:0.0933332;stroke-miterlimit:4;stroke-dasharray:none;paint-order:stroke fill markers"
         d="m 16,16 v 4 H 221.13086 C 231.58352,20 240,28.416482 240,38.869141 v -4 C 240,24.416483 231.58352,16 221.13086,16 Z"
         transform="scale(0.26458333)" />
    </g>
  </g>
  <g
     inkscape:label="Graphic"
     id="g1156"
     inkscape:groupmode="layer"
     style="display:inline">
    <g
       inkscape:groupmode="layer"
       id="layer4"
       inkscape:label="Shadow"
       style="display:inline;opacity:0.4">
      <path
         id="text912"
         style="display:inline;font-style:normal;font-variant:normal;font-weight:normal;font-stretch:normal;font-size:16.9333px;line-height:1.25;font-family:Cantarell;-inkscape-font-specification:Cantarell;white-space:pre;shape-inside:url(#rect922);fill:#000000;stroke-width:1.93342"
         d="m 26.235091,11.95741 c -2.062566,0 -4.28893,0.556416 -5.991366,1.505851 l 0.654741,1.931665 c 1.636957,-0.720261 3.274403,-1.080554 4.813142,-1.080554 2.815566,0 4.256071,1.178666 4.256071,3.503145 v 1.047998 c -7.071654,0.06548 -10.149251,1.53868 -10.149251,4.910811 0,2.815567 2.09545,4.616257 5.336625,4.616257 1.997089,0 3.699098,-0.655055 4.975924,-1.800925 l 0.622184,1.473297 h 1.83348 V 17.817517 c 0,-3.765001 -2.226418,-5.860107 -6.35155,-5.860107 z m 3.732588,8.708512 v 3.86333 c -0.982173,0.982174 -2.422742,1.571481 -4.0597,1.571481 -2.095305,0 -3.470589,-1.048 -3.470589,-2.619479 0,-1.964349 2.226548,-2.782593 7.530289,-2.815332 z m 12.200289,0.332796 v 25.234118 h 2.799829 l 0.717269,-1.53634 c 1.126832,1.22927 2.697258,1.877923 4.677752,1.877923 4.678055,0 7.819675,-3.551254 7.819675,-8.8098 0,-5.087813 -2.970453,-8.468217 -7.307045,-8.468217 -1.809761,0 -3.312652,0.546055 -4.473631,1.570448 v -9.868132 z m 7.307048,11.985314 c 2.663418,0 4.30258,1.946593 4.30258,5.088062 0,2.970737 -1.468313,4.814695 -3.961,4.814695 -1.434147,0 -2.629411,-0.580639 -3.414779,-1.639179 v -6.931874 c 0.717077,-0.887807 1.809782,-1.331704 3.073199,-1.331704 z m -19.913512,6.379972 c -1.475896,0 -2.836291,0.225383 -4.080889,0.676963 -1.244599,0.451581 -2.329393,1.11823 -3.254582,1.999361 -1.35474,1.288656 -2.379306,2.742409 -3.073197,4.36149 -0.682878,1.608066 -1.024227,3.370553 -1.024227,5.287018 0,2.279927 0.661126,4.036377 1.982825,5.26996 1.321698,1.222571 3.210682,1.833996 5.666837,1.833996 0.980261,0 1.933036,-0.09336 2.858223,-0.280601 0.936204,-0.176228 1.844799,-0.446304 2.725933,-0.80977 l 0.578258,-3.007051 c -1.024316,0.506651 -2.010225,0.886656 -2.957441,1.139981 -0.936205,0.253326 -1.822712,0.380339 -2.659787,0.380339 -1.696179,0 -2.963209,-0.407617 -3.800284,-1.222664 -0.826061,-0.815049 -1.238684,-2.054465 -1.238684,-3.717602 0,-1.37677 0.258515,-2.709034 0.77618,-3.99769 0.517665,-1.288656 1.250065,-2.412106 2.197282,-3.370336 0.594764,-0.627806 1.327164,-1.112737 2.197281,-1.454177 0.881131,-0.341437 1.806813,-0.512111 2.776059,-0.512111 0.881131,0 1.728983,0.132019 2.544029,0.396356 0.826061,0.26434 1.60264,0.660913 2.329574,1.189593 l 0.611333,-3.006534 C 33.835094,40.135029 32.97016,39.848385 32.12207,39.661145 31.27398,39.46289 30.420606,39.364004 29.561504,39.364004 Z" />
    </g>
    <path
       id="text852"
       style="font-style:normal;font-variant:normal;font-weight:normal;font-stretch:normal;font-size:16.9333px;line-height:1.25;font-family:Cantarell;-inkscape-font-specification:Cantarell;white-space:pre;shape-inside:url(#rect854);fill:#e6e6e6;stroke-width:7.30741"
       d="M 99.15625 41.193359 C 91.360725 41.193359 82.946121 43.296349 76.511719 46.884766 L 78.986328 54.185547 C 85.173253 51.4633 91.362025 50.101562 97.177734 50.101562 C 107.81924 50.101562 113.26367 54.556364 113.26367 63.341797 L 113.26367 67.302734 C 86.536157 67.550211 74.904297 73.118216 74.904297 85.863281 C 74.904297 96.504792 82.824108 103.31055 95.074219 103.31055 C 102.62227 103.31055 109.05506 100.83475 113.88086 96.503906 L 116.23242 102.07227 L 123.16211 102.07227 L 123.16211 63.341797 C 123.16211 49.11187 114.7473 41.193359 99.15625 41.193359 z M 113.26367 74.107422 L 113.26367 88.708984 C 109.55152 92.421139 104.10685 94.648438 97.919922 94.648438 C 90.000658 94.648438 84.802734 90.687495 84.802734 84.748047 C 84.802734 77.323737 93.218036 74.23116 113.26367 74.107422 z M 159.375 75.365234 L 159.375 170.73828 L 169.95703 170.73828 L 172.66797 164.93164 C 176.92686 169.5777 182.86233 172.0293 190.34766 172.0293 C 208.0285 172.0293 219.90234 158.60724 219.90234 138.73242 C 219.90234 119.50289 208.67543 106.72656 192.28516 106.72656 C 185.44512 106.72656 179.7649 108.79039 175.37695 112.66211 L 175.37695 75.365234 L 159.375 75.365234 z M 186.99219 120.66406 C 197.05865 120.66406 203.25391 128.02126 203.25391 139.89453 C 203.25391 151.12251 197.70438 158.0918 188.2832 158.0918 C 182.8628 158.0918 178.34527 155.89726 175.37695 151.89648 L 175.37695 125.69727 C 178.08716 122.34178 182.21707 120.66406 186.99219 120.66406 z M 111.72852 144.77734 C 106.15033 144.77734 101.00868 145.62918 96.304688 147.33594 C 91.600691 149.0427 87.500682 151.56232 84.003906 154.89258 C 78.883627 159.76309 75.011254 165.25759 72.388672 171.37695 C 69.807718 177.45468 68.517578 184.11605 68.517578 191.35938 C 68.517578 199.97643 71.016324 206.61498 76.011719 211.27734 C 81.007113 215.89808 88.14658 218.20898 97.429688 218.20898 C 101.13461 218.20898 104.73565 217.85612 108.23242 217.14844 C 111.77083 216.48238 115.20489 215.46162 118.53516 214.08789 L 120.7207 202.72266 C 116.84927 204.63756 113.123 206.0738 109.54297 207.03125 C 106.00456 207.9887 102.65398 208.46875 99.490234 208.46875 C 93.079478 208.46875 88.290703 206.92815 85.126953 203.84766 C 82.004832 200.76716 80.445312 196.08275 80.445312 189.79688 C 80.445312 184.59334 81.422377 179.55801 83.378906 174.6875 C 85.335436 169.81699 88.103561 165.57088 91.683594 161.94922 C 93.931521 159.57641 96.699647 157.7436 99.988281 156.45312 C 103.31854 155.16265 106.81718 154.51758 110.48047 154.51758 C 113.81073 154.51758 117.01521 155.01655 120.0957 156.01562 C 123.21782 157.0147 126.15292 158.51356 128.90039 160.51172 L 131.21094 149.14844 C 127.88067 147.69145 124.61163 146.60807 121.40625 145.90039 C 118.20087 145.15108 114.97552 144.77734 111.72852 144.77734 z "
       transform="scale(0.26458333)" />
  </g>
  <g
     inkscape:groupmode="layer"
     id="layer3"
     inkscape:label="Large Highlight"
     style="display:inline">
    <path
       d="M 4.2333333,63.5 V 33.866667 H 63.5 V 58.507749 C 63.5,61.273348 61.273349,63.5 58.50775,63.5 c -17.38157,0 -38.119462,0 -54.2744167,0 z"
       style="display:inline;opacity:0.055;fill:#ffffff;fill-opacity:1;stroke-width:0.0246944;stroke-miterlimit:4;stroke-dasharray:none;paint-order:stroke fill markers"
       id="path842"
       sodipodi:nodetypes="cccscc" />
  </g>
</svg>
