<?xml version="1.0" encoding="UTF-8" standalone="no"?>
<svg
   xmlns:dc="http://purl.org/dc/elements/1.1/"
   xmlns:cc="http://creativecommons.org/ns#"
   xmlns:rdf="http://www.w3.org/1999/02/22-rdf-syntax-ns#"
   xmlns:svg="http://www.w3.org/2000/svg"
   xmlns="http://www.w3.org/2000/svg"
   xmlns:sodipodi="http://sodipodi.sourceforge.net/DTD/sodipodi-0.dtd"
   xmlns:inkscape="http://www.inkscape.org/namespaces/inkscape"
   sodipodi:docname="org.gnome.Totem-symbolic.symbolic.svg"
   inkscape:version="1.0.2 (e86c870879, 2021-01-15)"
   id="svg8"
   version="1.1"
   viewBox="0 0 4.2333333 4.2333334"
   height="16"
   width="16">
  <defs
     id="defs2" />
  <sodipodi:namedview
     inkscape:window-maximized="1"
     inkscape:window-y="27"
     inkscape:window-x="1920"
     inkscape:window-height="1016"
     inkscape:window-width="1920"
     units="px"
     showgrid="false"
     inkscape:document-rotation="0"
     inkscape:current-layer="g1156"
     inkscape:document-units="px"
     inkscape:cy="6.3289391"
     inkscape:cx="8.6692589"
     inkscape:zoom="32"
     inkscape:pageshadow="2"
     inkscape:pageopacity="0.0"
     borderopacity="1.0"
     bordercolor="#666666"
     pagecolor="#ffffff"
     id="base" />
  <metadata
     id="metadata5">
    <rdf:RDF>
      <cc:Work
         rdf:about="">
        <dc:format>image/svg+xml</dc:format>
        <dc:type
           rdf:resource="http://purl.org/dc/dcmitype/StillImage" />
        <dc:title />
      </cc:Work>
    </rdf:RDF>
  </metadata>
  <g
     inkscape:label="Graphic"
     id="g1156"
     inkscape:groupmode="layer"
     style="display:inline">
    <path
       id="rect1168"
       style="display:inline;fill:#000000;fill-opacity:1;stroke-width:0.00666667;stroke-miterlimit:4;stroke-dasharray:none;paint-order:stroke fill markers;stroke:none"
       d="M 1.3476562 2 C 0.6010378 2 1.4802974e-16 2.601037 0 3.3476562 L 0 6.5722656 L 0 10 L 0 13.224609 C 0 13.971225 0.6010378 14.572266 1.3476562 14.572266 L 14.652344 14.572266 C 15.398963 14.572266 16 13.971225 16 13.224609 L 16 10 L 16 6.5722656 L 16 3.3476562 C 16 2.601037 15.398963 2 14.652344 2 L 1.3476562 2 z M 2.1796875 3 L 13.820312 3 C 14.473604 3 15 3.5049991 15 4.1328125 L 15 6.84375 L 15 9.7265625 L 15 12.4375 C 15 13.065311 14.473604 13.570312 13.820312 13.570312 L 2.1796875 13.570312 C 1.5263964 13.570312 1 13.065311 1 12.4375 L 1 9.7265625 L 1 6.84375 L 1 4.1328125 C 1 3.5049991 1.5263964 3 2.1796875 3 z "
       transform="scale(0.26458333)" />
    <path
       id="path847"
       style="color:#000000;font-style:normal;font-variant:normal;font-weight:normal;font-stretch:normal;font-size:medium;line-height:normal;font-family:sans-serif;font-variant-ligatures:normal;font-variant-position:normal;font-variant-caps:normal;font-variant-numeric:normal;font-variant-alternates:normal;font-variant-east-asian:normal;font-feature-settings:normal;font-variation-settings:normal;text-indent:0;text-align:start;text-decoration:none;text-decoration-line:none;text-decoration-style:solid;text-decoration-color:#000000;letter-spacing:normal;word-spacing:normal;text-transform:none;writing-mode:lr-tb;direction:ltr;text-orientation:mixed;dominant-baseline:auto;baseline-shift:baseline;text-anchor:start;white-space:normal;shape-padding:0;shape-margin:0;inline-size:0;clip-rule:nonzero;display:inline;overflow:visible;visibility:visible;opacity:1;isolation:auto;mix-blend-mode:normal;color-interpolation:sRGB;color-interpolation-filters:linearRGB;solid-color:#000000;solid-opacity:1;vector-effect:none;fill:#000000;fill-opacity:1;fill-rule:nonzero;stroke:none;stroke-width:0.2428875;stroke-linecap:round;stroke-linejoin:round;stroke-miterlimit:4;stroke-dasharray:none;stroke-dashoffset:0;stroke-opacity:1;color-rendering:auto;image-rendering:auto;shape-rendering:auto;text-rendering:auto;enable-background:accumulate;stop-color:#000000"
       d="m 1.5996809,1.3417051 a 0.12150464,0.12150464 0 0 0 -0.1223623,0.121513 v 0.728933 0.728933 a 0.12150464,0.12150464 0 0 0 0.1821963,0.105198 l 0.6313014,-0.364429 0.6312646,-0.364504 a 0.12150464,0.12150464 0 0 0 0,-0.210397 L 2.2908163,1.7224121 1.6595149,1.3580191 a 0.12150464,0.12150464 0 0 0 -0.059834,-0.01631 z" />
  </g>
</svg>
