<?xml version="1.0" encoding="UTF-8" standalone="no"?>
<svg
   sodipodi:docname="org.gnome.World.PikaBackup.svg"
   id="svg4705"
   version="1.1"
   viewBox="0 0 67.733332 67.733332"
   height="256"
   width="256"
   inkscape:version="1.4 (e7c3feb100, 2024-10-09)"
   xmlns:inkscape="http://www.inkscape.org/namespaces/inkscape"
   xmlns:sodipodi="http://sodipodi.sourceforge.net/DTD/sodipodi-0.dtd"
   xmlns="http://www.w3.org/2000/svg"
   xmlns:svg="http://www.w3.org/2000/svg">
  <defs
     id="defs4699" />
  <sodipodi:namedview
     units="px"
     inkscape:document-rotation="0"
     inkscape:window-maximized="1"
     inkscape:window-y="0"
     inkscape:window-x="0"
     inkscape:window-height="1011"
     inkscape:window-width="1920"
     fit-margin-bottom="0"
     fit-margin-right="0"
     fit-margin-left="0"
     fit-margin-top="0"
     showgrid="false"
     inkscape:current-layer="layer6"
     inkscape:document-units="px"
     inkscape:cy="-265.71428"
     inkscape:cx="-340"
     inkscape:zoom="0.35"
     inkscape:pageshadow="2"
     inkscape:pageopacity="0.0"
     borderopacity="1.0"
     bordercolor="#666666"
     pagecolor="#ffffff"
     id="base"
     inkscape:showpageshadow="2"
     inkscape:pagecheckerboard="0"
     inkscape:deskcolor="#d1d1d1" />
  <g
     inkscape:label="Background"
     id="layer5"
     inkscape:groupmode="layer">
    <g
       style="display:inline;opacity:0.4"
       inkscape:label="Shadow"
       id="layer4"
       inkscape:groupmode="layer">
      <circle
         style="display:inline;opacity:0.4;fill:#000000;fill-opacity:1;stroke-width:5.60201;paint-order:stroke fill markers"
         id="circle1"
         cx="33.866665"
         cy="34.924999"
         r="31.75" />
    </g>
    <g
       style="display:inline"
       transform="translate(-130.05163,-144.32544)"
       id="layer1"
       inkscape:groupmode="layer"
       inkscape:label="Colour">
      <g
         id="g31"
         transform="translate(3.26625e-4,6.96625e-4)">
        <path
           style="fill:#57ee7f"
           d="m 163.91829,207.82544 a 29.633333,29.633333 0 0 1 -29.63333,-29.63333 29.633333,29.633333 0 0 1 29.63333,-29.63334 29.633333,29.633333 0 0 1 29.63333,29.63334 29.633333,29.633333 0 0 1 -29.63333,29.63333 z"
           id="path30" />
        <path
           style="fill:#2f9658"
           d="m 195.66797,178.19141 c 0,-17.50997 -14.24003,-31.75 -31.75,-31.75 -17.50997,0 -31.75,14.24003 -31.75,31.75 0,17.50996 14.24003,31.75 31.75,31.75 17.50997,0 31.75,-14.24004 31.75,-31.75 z m -4.23242,0 c 0,15.2221 -12.29547,27.51757 -27.51758,27.51757 -15.22211,0 -27.51563,-12.29547 -27.51563,-27.51757 0,-15.22211 12.29352,-27.51563 27.51563,-27.51563 15.22211,0 27.51758,12.29352 27.51758,27.51563 z"
           id="path31" />
      </g>
      <g
         id="g8"
         style="display:inline;enable-background:new"
         transform="matrix(0.35513215,0,0,0.35513215,221.91627,126.15965)" />
    </g>
    <g
       style="display:inline;opacity:0.1"
       inkscape:label="Highlight"
       id="layer3"
       inkscape:groupmode="layer">
      <path
         d="M 33.866315,2.1166662 A 31.75,31.75 0 0 0 2.1163149,33.866667 a 31.75,31.75 0 0 0 0.005,0.517797 31.75,31.75 0 0 1 31.7453501,-31.2094648 31.75,31.75 0 0 1 31.74534,31.2322028 31.75,31.75 0 0 0 0.005,-0.540535 31.75,31.75 0 0 0 -31.75,-31.7500008 z"
         style="display:inline;opacity:1;fill:#ffffff;fill-opacity:1;stroke-width:5.60202;paint-order:stroke fill markers"
         id="path8" />
    </g>
  </g>
  <g
     inkscape:label="Graphic"
     id="layer6"
     inkscape:groupmode="layer"
     style="display:inline">
    <path
       id="path28"
       style="fill:#000000;fill-opacity:1;stroke-width:0.539415;stroke-linecap:round;stroke-linejoin:round;paint-order:markers fill stroke;opacity:0.4"
       d="M 33.866645,18.436167 A 20.108309,7.3730464 0 0 0 13.758312,25.80936 v 3.753259 a 20.108308,7.3730464 0 0 0 0.573608,1.743046 20.108309,7.3730464 0 0 0 -0.573608,1.742529 v 3.753776 a 20.108308,7.3730464 0 0 0 0.573608,1.74253 20.108309,7.3730464 0 0 0 -0.573608,1.742529 v 3.753776 a 20.108308,7.3730464 0 0 0 20.108333,7.373193 20.108308,7.3730464 0 0 0 20.108333,-7.373193 V 40.287029 A 20.108309,7.3730464 0 0 0 53.401369,38.5445 20.108308,7.3730464 0 0 0 53.974978,36.80197 v -3.753776 a 20.108309,7.3730464 0 0 0 -0.573609,-1.742529 20.108308,7.3730464 0 0 0 0.573609,-1.743046 V 25.80936 A 20.108309,7.3730464 0 0 0 33.866645,18.436167 Z" />
    <g
       id="g7"
       transform="matrix(0.26811078,0,0,0.26811078,-112.25373,1.2911862)"
       style="display:inline;enable-background:new">
      <path
         id="path5"
         style="fill:#f26b1c;fill-opacity:1;stroke-width:2.01191;stroke-linecap:round;stroke-linejoin:round;paint-order:markers fill stroke"
         d="m 544.66992,128 a 75,27.5 0 0 0 -64.22265,13.5 H 470 v 14 a 75,27.5 0 0 0 75,27.5 75,27.5 0 0 0 75,-27.5 75,27.5 0 0 0 0,-0.12109 V 141.5 H 609.55273 A 75,27.5 0 0 0 545,128 a 75,27.5 0 0 0 -0.33008,0 z" />
      <ellipse
         style="fill:#ff7b1b;fill-opacity:1;stroke-width:2.01191;stroke-linecap:round;stroke-linejoin:round;paint-order:markers fill stroke"
         id="ellipse5"
         cx="545"
         cy="141.5"
         rx="75"
         ry="27.5" />
      <path
         id="path6"
         style="fill:#ffbf35;fill-opacity:1;stroke-width:2.01191;stroke-linecap:round;stroke-linejoin:round;paint-order:markers fill stroke"
         d="m 544.66992,101 a 75,27.5 0 0 0 -64.22265,13.5 H 470 v 14 a 75,27.5 0 0 0 75,27.5 75,27.5 0 0 0 75,-27.5 75,27.5 0 0 0 0,-0.12109 V 114.5 H 609.55273 A 75,27.5 0 0 0 545,101 a 75,27.5 0 0 0 -0.33008,0 z" />
      <ellipse
         style="fill:#f7d33c;fill-opacity:1;stroke-width:2.01191;stroke-linecap:round;stroke-linejoin:round;paint-order:markers fill stroke"
         id="ellipse6"
         cx="545"
         cy="114.5"
         rx="75"
         ry="27.5" />
      <path
         id="path7"
         style="fill:#c82ef4;fill-opacity:1;stroke-width:2.01191;stroke-linecap:round;stroke-linejoin:round;paint-order:markers fill stroke"
         d="M 544.66992,74 A 75,27.5 0 0 0 480.44727,87.5 H 470 v 14 a 75,27.5 0 0 0 75,27.5 75,27.5 0 0 0 75,-27.5 75,27.5 0 0 0 0,-0.12109 V 87.5 H 609.55273 A 75,27.5 0 0 0 545,74 a 75,27.5 0 0 0 -0.33008,0 z" />
      <ellipse
         style="fill:#f062ff;fill-opacity:1;stroke-width:2.01191;stroke-linecap:round;stroke-linejoin:round;paint-order:markers fill stroke"
         id="ellipse7"
         cx="545"
         cy="87.5"
         rx="75"
         ry="27.5" />
    </g>
    <path
       id="rect26"
       style="display:inline;opacity:0.4;fill:#000000;fill-opacity:1;stroke:none;stroke-width:3.55392;stroke-linejoin:round;stroke-dasharray:none;stroke-opacity:1;paint-order:normal;enable-background:new"
       d="m 23.283304,39.338272 a 3.3072915,3.3072915 0 0 0 -3.3073,3.307293 3.3072915,3.3072915 0 0 0 3.3073,3.307293 h 21.16666 a 3.3072915,3.3072915 0 0 0 3.30729,-3.307293 3.3072915,3.3072915 0 0 0 -3.30729,-3.307293 z" />
    <rect
       style="display:inline;fill:#808080;fill-opacity:1;stroke:none;stroke-width:3.55392;stroke-linejoin:round;stroke-dasharray:none;stroke-opacity:1;paint-order:normal;enable-background:new"
       id="rect20"
       width="21.166666"
       height="6.614583"
       x="23.283213"
       y="38.280098"
       ry="0"
       rx="0" />
    <circle
       style="display:inline;fill:#808080;fill-opacity:1;stroke:none;stroke-width:6.47123;stroke-linejoin:round;stroke-dasharray:none;stroke-opacity:1;paint-order:normal;enable-background:new"
       id="circle21"
       cx="44.44989"
       cy="41.587399"
       r="3.3072915" />
    <circle
       style="display:inline;fill:#808080;fill-opacity:1;stroke:none;stroke-width:6.47123;stroke-linejoin:round;stroke-dasharray:none;stroke-opacity:1;paint-order:normal;enable-background:new"
       id="circle22"
       cx="23.283213"
       cy="41.587399"
       r="3.3072915" />
    <rect
       style="display:inline;fill:#ffffff;fill-opacity:1;stroke:none;stroke-width:2.3574;stroke-linejoin:round;stroke-dasharray:none;stroke-opacity:1;paint-order:normal;enable-background:new"
       id="rect22"
       width="21.166664"
       height="2.9104166"
       x="23.283213"
       y="40.132187"
       ry="0"
       rx="0" />
    <circle
       style="display:inline;fill:#ffffff;fill-opacity:1;stroke:none;stroke-width:2.84734;stroke-linejoin:round;stroke-dasharray:none;stroke-opacity:1;paint-order:normal;enable-background:new"
       id="circle23"
       cx="44.449875"
       cy="41.587399"
       r="1.4552083" />
    <circle
       style="display:inline;fill:#ffffff;fill-opacity:1;stroke:none;stroke-width:2.84734;stroke-linejoin:round;stroke-dasharray:none;stroke-opacity:1;paint-order:normal;enable-background:new"
       id="circle24"
       cx="23.283213"
       cy="41.587402"
       r="1.4552083" />
    <g
       id="g26"
       style="display:inline;fill:#cccccc"
       transform="translate(-55.416418,79.58744)">
      <rect
         style="display:inline;opacity:1;fill:#cccccc;fill-opacity:1;stroke:none;stroke-width:2.04157;stroke-linejoin:round;stroke-dasharray:none;stroke-opacity:1;paint-order:normal;enable-background:new"
         id="rect24"
         width="15.875"
         height="2.9104166"
         x="78.699631"
         y="-39.455246"
         ry="0"
         rx="0" />
      <circle
         style="display:inline;opacity:1;fill:#cccccc;fill-opacity:1;stroke:none;stroke-width:2.84734;stroke-linejoin:round;stroke-dasharray:none;stroke-opacity:1;paint-order:normal;enable-background:new"
         id="circle25"
         cx="94.574631"
         cy="-38.000038"
         r="1.4552083" />
      <circle
         style="display:inline;opacity:1;fill:#cccccc;fill-opacity:1;stroke:none;stroke-width:2.84734;stroke-linejoin:round;stroke-dasharray:none;stroke-opacity:1;paint-order:normal;enable-background:new"
         id="circle26"
         cx="78.699631"
         cy="-38.000038"
         r="1.4552083" />
    </g>
  </g>
</svg>
