<?xml version="1.0" encoding="UTF-8" standalone="no"?>
<svg
   xmlns:dc="http://purl.org/dc/elements/1.1/"
   xmlns:cc="http://creativecommons.org/ns#"
   xmlns:rdf="http://www.w3.org/1999/02/22-rdf-syntax-ns#"
   xmlns:svg="http://www.w3.org/2000/svg"
   xmlns="http://www.w3.org/2000/svg"
   xmlns:xlink="http://www.w3.org/1999/xlink"
   xmlns:sodipodi="http://sodipodi.sourceforge.net/DTD/sodipodi-0.dtd"
   xmlns:inkscape="http://www.inkscape.org/namespaces/inkscape"
   sodipodi:docname="org.gnome.Music.svg"
   inkscape:version="1.0.2 (e86c870879, 2021-01-15)"
   id="svg8"
   version="1.1"
   viewBox="0 0 67.733332 67.733335"
   height="256"
   width="256">
  <defs
     id="defs2">
    <linearGradient
       inkscape:collect="always"
       id="linearGradient1026">
      <stop
         style="stop-color:#f72459;stop-opacity:0"
         offset="0"
         id="stop1022" />
      <stop
         style="stop-color:#ff0f66;stop-opacity:0.5"
         offset="1"
         id="stop1024" />
    </linearGradient>
    <radialGradient
       inkscape:collect="always"
       xlink:href="#linearGradient1026"
       id="radialGradient1028"
       cx="128"
       cy="128"
       fx="128"
       fy="128"
       r="112"
       gradientUnits="userSpaceOnUse"
       gradientTransform="matrix(1.0963826,0,0,1.4849711,-12.336976,-62.076306)" />
  </defs>
  <sodipodi:namedview
     inkscape:window-maximized="1"
     inkscape:window-y="27"
     inkscape:window-x="1920"
     inkscape:window-height="1016"
     inkscape:window-width="1920"
     units="px"
     showgrid="false"
     inkscape:document-rotation="0"
     inkscape:current-layer="layer1"
     inkscape:document-units="px"
     inkscape:cy="140.93773"
     inkscape:cx="108.82886"
     inkscape:zoom="2.5600001"
     inkscape:pageshadow="2"
     inkscape:pageopacity="0.0"
     borderopacity="1.0"
     bordercolor="#666666"
     pagecolor="#ffffff"
     id="base" />
  <metadata
     id="metadata5">
    <rdf:RDF>
      <cc:Work
         rdf:about="">
        <dc:format>image/svg+xml</dc:format>
        <dc:type
           rdf:resource="http://purl.org/dc/dcmitype/StillImage" />
        <dc:title />
      </cc:Work>
    </rdf:RDF>
  </metadata>
  <g
     inkscape:groupmode="layer"
     id="layer1"
     inkscape:label="Background"
     style="display:inline">
    <g
       inkscape:groupmode="layer"
       id="layer5"
       inkscape:label="Shadow"
       style="display:inline;opacity:0.4">
      <path
         id="path839"
         style="display:inline;fill:#000000;fill-opacity:1;stroke-width:0.0246944;stroke-miterlimit:4;stroke-dasharray:none;paint-order:stroke fill markers"
         d="m 4.2333333,34.925002 v 24.641082 c 0,2.765599 2.2266523,4.992251 4.9922513,4.992251 H 58.507751 c 2.765599,0 4.99225,-2.226652 4.99225,-4.992251 V 34.925002 Z" />
    </g>
    <g
       style="display:inline"
       inkscape:label="Colour"
       id="g1174"
       inkscape:groupmode="layer">
      <path
         id="path1426"
         style="display:inline;fill:#f72448;fill-opacity:1;stroke-width:0.0933332;stroke-miterlimit:4;stroke-dasharray:none;paint-order:stroke fill markers"
         d="M 34.869141,16 C 24.416485,16 16,24.416485 16,34.869141 V 128 221.13086 C 16,231.58352 24.416485,240 34.869141,240 H 221.13086 C 231.58352,240 240,231.58352 240,221.13086 V 128 34.869141 C 240,24.416485 231.58352,16 221.13086,16 Z"
         transform="scale(0.26458333)" />
      <path
         id="path1018"
         style="display:inline;opacity:1;fill:url(#radialGradient1028);fill-opacity:1;stroke-width:0.0933332;stroke-miterlimit:4;stroke-dasharray:none;paint-order:stroke fill markers"
         d="M 34.869141,16 C 24.416485,16 16,24.416485 16,34.869141 V 128 221.13086 C 16,231.58352 24.416485,240 34.869141,240 H 221.13086 C 231.58352,240 240,231.58352 240,221.13086 V 128 34.869141 C 240,24.416485 231.58352,16 221.13086,16 Z"
         transform="scale(0.26458333)" />
    </g>
    <g
       inkscape:groupmode="layer"
       id="layer2"
       inkscape:label="Highlight"
       style="display:inline;opacity:0.1">
      <path
         d="m 9.2257926,4.2333333 c -2.765598,0 -4.9924593,2.2268603 -4.9924593,4.9924593 v 1.0583334 c 0,-2.7655984 2.2268613,-4.9924597 4.9924593,-4.9924597 H 58.507541 c 2.765599,0 4.99246,2.2268613 4.99246,4.9924597 V 9.2257926 c 0,-2.765599 -2.226861,-4.9924593 -4.99246,-4.9924593 z"
         style="display:inline;fill:#ffffff;fill-opacity:1;stroke-width:0.0246944;stroke-miterlimit:4;stroke-dasharray:none;paint-order:stroke fill markers"
         id="path955" />
    </g>
  </g>
  <g
     inkscape:groupmode="layer"
     id="layer7"
     inkscape:label="Lines"
     style="display:inline;opacity:0.4">
    <path
       id="path1167"
       style="display:inline;fill:#000000;fill-opacity:1;stroke-width:0.0933332;stroke-miterlimit:4;stroke-dasharray:none;paint-order:stroke fill markers"
       d="M 16 132 L 16 174 L 25 174 L 25 132 L 16 132 z M 33 132 L 33 179 L 43 179 L 43 132 L 33 132 z M 51 132 L 51 192 L 61 192 L 61 132 L 51 132 z M 69 132 L 69 179 L 79 179 L 79 132 L 69 132 z M 87 132 L 87 173 L 97 173 L 97 132 L 87 132 z M 105 132 L 105 167 L 115 167 L 115 132 L 105 132 z M 123 132 L 123 179 L 133 179 L 133 132 L 123 132 z M 141 132 L 141 196 L 151 196 L 151 132 L 141 132 z M 159 132 L 159 202 L 169 202 L 169 132 L 159 132 z M 177 132 L 177 202 L 187 202 L 187 132 L 177 132 z M 195 132 L 195 198 L 205 198 L 205 132 L 195 132 z M 213 132 L 213 186 L 223 186 L 223 132 L 213 132 z M 231 132 L 231 180 L 240 180 L 240 132 L 231 132 z "
       transform="scale(0.26458333)" />
    <path
       id="path1172"
       style="display:inline;fill:#e6e6e6;fill-opacity:1;stroke-width:0.0933332;stroke-miterlimit:4;stroke-dasharray:none;paint-order:stroke fill markers"
       d="M 16 127.90039 L 16 128 L 16 170 L 25 170 L 25 127.90039 L 16 127.90039 z M 33 127.90039 L 33 174.9668 L 43 174.9668 L 43 127.90039 L 33 127.90039 z M 51 127.90039 L 51 187.98633 L 61 187.98633 L 61 127.90039 L 51 127.90039 z M 69 127.90039 L 69 174.9668 L 79 174.9668 L 79 127.90039 L 69 127.90039 z M 87 127.90039 L 87 168.95898 L 97 168.95898 L 97 127.90039 L 87 127.90039 z M 105 127.90039 L 105 162.94922 L 115 162.94922 L 115 127.90039 L 105 127.90039 z M 123 127.90039 L 123 174.9668 L 133 174.9668 L 133 127.90039 L 123 127.90039 z M 141 127.90039 L 141 191.99219 L 151 191.99219 L 151 127.90039 L 141 127.90039 z M 159 127.90039 L 159 198 L 169 198 L 169 127.90039 L 159 127.90039 z M 177 127.90039 L 177 198 L 187 198 L 187 127.90039 L 177 127.90039 z M 195 127.90039 L 195 193.99414 L 205 193.99414 L 205 127.90039 L 195 127.90039 z M 213 127.90039 L 213 181.97656 L 223 181.97656 L 223 127.90039 L 213 127.90039 z M 231 127.90039 L 231 176 L 240 176 L 240 128 L 240 127.90039 L 231 127.90039 z "
       transform="scale(0.26458333)" />
    <path
       id="path1170"
       style="display:inline;fill:#ffffff;fill-opacity:1;stroke-width:0.0933332;stroke-miterlimit:4;stroke-dasharray:none;paint-order:stroke fill markers"
       d="M 159 58 L 159 128 L 169 128 L 169 58 L 159 58 z M 177 58 L 177 128 L 187 128 L 187 58 L 177 58 z M 195 62 L 195 128 L 205 128 L 205 62 L 195 62 z M 141 64 L 141 128 L 151 128 L 151 64 L 141 64 z M 51 68 L 51 128 L 61 128 L 61 68 L 51 68 z M 213 74 L 213 128 L 223 128 L 223 74 L 213 74 z M 231 80 L 231 128 L 240 128 L 240 80 L 231 80 z M 33 81 L 33 128 L 43 128 L 43 81 L 33 81 z M 69 81 L 69 128 L 79 128 L 79 81 L 69 81 z M 123 81 L 123 128 L 133 128 L 133 81 L 123 81 z M 16 86 L 16 128 L 25 128 L 25 86 L 16 86 z M 87 87 L 87 128 L 97 128 L 97 87 L 87 87 z M 105 93 L 105 128 L 115 128 L 115 93 L 105 93 z "
       transform="scale(0.26458333)" />
  </g>
  <g
     inkscape:groupmode="layer"
     id="layer3"
     inkscape:label="Graphic"
     style="display:inline;opacity:1">
    <g
       inkscape:groupmode="layer"
       id="layer4"
       inkscape:label="Shadow"
       style="opacity:0.4">
      <g
         id="g1034"
         transform="matrix(1.2591903,0,0,1.259196,-1.6324289,-4.7541088)"
         style="display:inline;opacity:1;fill:#000000">
        <path
           d="m 32.650304,23.970981 c -0.186003,-0.01281 -0.404206,0.0032 -0.6618,0.02501 l -11.632111,1.815247 c -1.312336,0.133617 -1.455041,0.746203 -1.443374,1.509543 V 42.68101 c -0.667008,-0.438176 -1.380828,-0.750039 -2.332068,-0.750039 -1.224866,0 -1.95611,0.469521 -2.398224,1.08726 -0.44214,0.617745 -0.589357,1.396111 -0.589357,1.998061 0,0.725828 0.250281,1.499108 0.787886,2.089392 0.537581,0.59027 1.364277,1.005308 2.552644,1.005327 1.341975,0 2.283823,-0.374325 2.817427,-1.106172 0.420185,-0.576183 0.654537,-1.347866 0.73744,-2.29738 0.01159,-0.1152 0.01769,-0.234182 0.02501,-0.35609 0.0067,-0.09666 0.0048,-0.164293 0.0067,-0.277358 h 0.0067 v -12.42937 c 0.03537,-0.999405 0.942251,-1.147141 0.942251,-1.147141 l 9.444936,-1.474885 c 0.906703,-0.277176 0.907624,0.844584 0.907624,0.844584 v 11.200326 c -0.667009,-0.438175 -1.380829,-0.750045 -2.332069,-0.750063 -1.224865,0 -1.956109,0.469521 -2.398224,1.08726 -0.442139,0.617751 -0.589357,1.396129 -0.589357,1.998067 0,0.725822 0.250282,1.499102 0.787881,2.089392 0.53758,0.590332 1.364277,1.00529 2.552644,1.005309 1.341974,0 2.283822,-0.374325 2.817427,-1.10616 0.420181,-0.576183 0.654538,-1.347878 0.737438,-2.297374 0.01156,-0.1152 0.01769,-0.234181 0.025,-0.35615 0.0067,-0.09666 0.005,-0.164293 0.0067,-0.277298 h 0.0067 V 25.408465 c 0.01888,-1.106318 -0.226738,-1.397648 -0.784756,-1.437062 z"
           color="#000000"
           color-rendering="auto"
           dominant-baseline="auto"
           fill="#808080"
           fill-rule="evenodd"
           image-rendering="auto"
           shape-rendering="auto"
           solid-color="#000000"
           style="font-variant-ligatures:normal;font-variant-position:normal;font-variant-caps:normal;font-variant-numeric:normal;font-variant-alternates:normal;font-feature-settings:normal;text-indent:0;text-decoration:none;text-decoration-line:none;text-decoration-style:solid;text-decoration-color:#000000;text-transform:none;text-orientation:mixed;white-space:normal;shape-padding:0;isolation:auto;mix-blend-mode:normal;fill:#000000;stroke-width:1.61355"
           id="path1030" />
        <path
           id="path1032"
           style="font-variant-ligatures:normal;font-variant-position:normal;font-variant-caps:normal;font-variant-numeric:normal;font-variant-alternates:normal;font-feature-settings:normal;text-indent:0;text-decoration:none;text-decoration-line:none;text-decoration-style:solid;text-decoration-color:#000000;text-transform:none;text-orientation:mixed;white-space:normal;shape-padding:0;isolation:auto;mix-blend-mode:normal;fill:#000000;stroke-width:6.09846"
           d="m 157.60547,54.787109 c -0.41575,0.01938 -0.86477,0.05644 -1.35156,0.09766 l -43.96485,6.859375 c -4.96001,0.505009 -5.49917,2.821966 -5.45508,5.707031 v 22.355469 l 6.10157,-0.953125 v -5.060547 c 0.13368,-3.777279 3.56054,-4.335938 3.56054,-4.335938 l 35.69727,-5.574219 c 3.42691,-1.047594 3.42969,3.191407 3.42969,3.191407 v 42.332028 c -2.52098,-1.65609 -5.21727,-2.83392 -8.8125,-2.83398 -4.62941,0 -7.39347,1.77461 -9.06446,4.10937 -1.67107,2.33481 -2.22851,5.27574 -2.22851,7.55078 0,2.74327 0.94664,5.66547 2.97851,7.89649 2.0318,2.23117 5.15698,3.80071 9.64844,3.80078 5.07203,0 8.63166,-1.41565 10.64844,-4.18164 1.58808,-2.1777 2.47379,-5.093 2.78711,-8.68164 0.0437,-0.43541 0.0661,-0.88667 0.0937,-1.34766 0.0253,-0.36533 0.019,-0.61977 0.0254,-1.04687 h 0.0254 V 60.222656 c 0.0714,-4.181359 -0.85775,-5.282674 -2.9668,-5.43164 l -0.004,-0.002 c -0.35151,-0.02421 -0.73269,-0.02133 -1.14844,-0.002 z m -44.66992,58.597661 -6.10157,0.95312 v 11.16602 c -2.52097,-1.6561 -5.21921,-2.83399 -8.814449,-2.83399 -4.629415,0 -7.393471,1.77462 -9.064453,4.10938 -1.67108,2.33478 -2.226562,5.27764 -2.226562,7.55273 0,2.74329 0.946622,5.66549 2.978515,7.89649 2.031803,2.23094 5.155019,3.79875 9.646485,3.79882 5.072034,0 8.631664,-1.41365 10.648434,-4.17968 1.5881,-2.1777 2.47378,-5.09488 2.78711,-8.6836 0.0438,-0.4354 0.068,-0.88495 0.0957,-1.3457 0.0253,-0.36533 0.0182,-0.6215 0.0254,-1.04883 h 0.0254 z"
           transform="scale(0.26458332)" />
      </g>
    </g>
    <g
       id="g901"
       transform="matrix(1.2591903,0,0,1.259196,-1.6324289,-5.8124422)"
       style="display:inline">
      <path
         d="m 32.650304,23.970981 c -0.186003,-0.01281 -0.404206,0.0032 -0.6618,0.02501 l -11.632111,1.815247 c -1.312336,0.133617 -1.455041,0.746203 -1.443374,1.509543 V 42.68101 c -0.667008,-0.438176 -1.380828,-0.750039 -2.332068,-0.750039 -1.224866,0 -1.95611,0.469521 -2.398224,1.08726 -0.44214,0.617745 -0.589357,1.396111 -0.589357,1.998061 0,0.725828 0.250281,1.499108 0.787886,2.089392 0.537581,0.59027 1.364277,1.005308 2.552644,1.005327 1.341975,0 2.283823,-0.374325 2.817427,-1.106172 0.420185,-0.576183 0.654537,-1.347866 0.73744,-2.29738 0.01159,-0.1152 0.01769,-0.234182 0.02501,-0.35609 0.0067,-0.09666 0.0048,-0.164293 0.0067,-0.277358 h 0.0067 v -12.42937 c 0.03537,-0.999405 0.942251,-1.147141 0.942251,-1.147141 l 9.444936,-1.474885 c 0.906703,-0.277176 0.907624,0.844584 0.907624,0.844584 v 11.200326 c -0.667009,-0.438175 -1.380829,-0.750045 -2.332069,-0.750063 -1.224865,0 -1.956109,0.469521 -2.398224,1.08726 -0.442139,0.617751 -0.589357,1.396129 -0.589357,1.998067 0,0.725822 0.250282,1.499102 0.787881,2.089392 0.53758,0.590332 1.364277,1.00529 2.552644,1.005309 1.341974,0 2.283822,-0.374325 2.817427,-1.10616 0.420181,-0.576183 0.654538,-1.347878 0.737438,-2.297374 0.01156,-0.1152 0.01769,-0.234181 0.025,-0.35615 0.0067,-0.09666 0.005,-0.164293 0.0067,-0.277298 h 0.0067 V 25.408465 c 0.01888,-1.106318 -0.226738,-1.397648 -0.784756,-1.437062 z"
         color="#000000"
         color-rendering="auto"
         dominant-baseline="auto"
         fill="#808080"
         fill-rule="evenodd"
         image-rendering="auto"
         shape-rendering="auto"
         solid-color="#000000"
         style="font-variant-ligatures:normal;font-variant-position:normal;font-variant-caps:normal;font-variant-numeric:normal;font-variant-alternates:normal;font-feature-settings:normal;text-indent:0;text-decoration:none;text-decoration-line:none;text-decoration-style:solid;text-decoration-color:#000000;text-transform:none;text-orientation:mixed;white-space:normal;shape-padding:0;isolation:auto;mix-blend-mode:normal;fill:#ffffff;stroke-width:1.61355"
         id="path870" />
      <path
         id="path884"
         style="font-variant-ligatures:normal;font-variant-position:normal;font-variant-caps:normal;font-variant-numeric:normal;font-variant-alternates:normal;font-feature-settings:normal;text-indent:0;text-decoration:none;text-decoration-line:none;text-decoration-style:solid;text-decoration-color:#000000;text-transform:none;text-orientation:mixed;white-space:normal;shape-padding:0;isolation:auto;mix-blend-mode:normal;fill:#ffffff;stroke-width:6.09846"
         d="m 157.60547,54.787109 c -0.41575,0.01938 -0.86477,0.05644 -1.35156,0.09766 l -43.96485,6.859375 c -4.96001,0.505009 -5.49917,2.821966 -5.45508,5.707031 v 22.355469 l 6.10157,-0.953125 v -5.060547 c 0.13368,-3.777279 3.56054,-4.335938 3.56054,-4.335938 l 35.69727,-5.574219 c 3.42691,-1.047594 3.42969,3.191407 3.42969,3.191407 v 42.332028 c -2.52098,-1.65609 -5.21727,-2.83392 -8.8125,-2.83398 -4.62941,0 -7.39347,1.77461 -9.06446,4.10937 -1.67107,2.33481 -2.22851,5.27574 -2.22851,7.55078 0,2.74327 0.94664,5.66547 2.97851,7.89649 2.0318,2.23117 5.15698,3.80071 9.64844,3.80078 5.07203,0 8.63166,-1.41565 10.64844,-4.18164 1.58808,-2.1777 2.47379,-5.093 2.78711,-8.68164 0.0437,-0.43541 0.0661,-0.88667 0.0937,-1.34766 0.0253,-0.36533 0.019,-0.61977 0.0254,-1.04687 h 0.0254 V 60.222656 c 0.0714,-4.181359 -0.85775,-5.282674 -2.9668,-5.43164 l -0.004,-0.002 c -0.35151,-0.02421 -0.73269,-0.02133 -1.14844,-0.002 z m -44.66992,58.597661 -6.10157,0.95312 v 11.16602 c -2.52097,-1.6561 -5.21921,-2.83399 -8.814449,-2.83399 -4.629415,0 -7.393471,1.77462 -9.064453,4.10938 -1.67108,2.33478 -2.226562,5.27764 -2.226562,7.55273 0,2.74329 0.946622,5.66549 2.978515,7.89649 2.031803,2.23094 5.155019,3.79875 9.646485,3.79882 5.072034,0 8.631664,-1.41365 10.648434,-4.17968 1.5881,-2.1777 2.47378,-5.09488 2.78711,-8.6836 0.0438,-0.4354 0.068,-0.88495 0.0957,-1.3457 0.0253,-0.36533 0.0182,-0.6215 0.0254,-1.04883 h 0.0254 z"
         transform="scale(0.26458332)" />
    </g>
  </g>
</svg>
