<?xml version="1.0" encoding="UTF-8" standalone="no"?>
<svg
   xmlns:dc="http://purl.org/dc/elements/1.1/"
   xmlns:cc="http://creativecommons.org/ns#"
   xmlns:rdf="http://www.w3.org/1999/02/22-rdf-syntax-ns#"
   xmlns:svg="http://www.w3.org/2000/svg"
   xmlns="http://www.w3.org/2000/svg"
   xmlns:sodipodi="http://sodipodi.sourceforge.net/DTD/sodipodi-0.dtd"
   xmlns:inkscape="http://www.inkscape.org/namespaces/inkscape"
   sodipodi:docname="org.gnome.Lollypop-symbolic.symbolic.svg"
   inkscape:version="1.0.2 (e86c870879, 2021-01-15)"
   id="svg4705"
   version="1.1"
   viewBox="0 0 4.2333333 4.2333333"
   height="16"
   width="16">
  <defs
     id="defs4699" />
  <sodipodi:namedview
     units="px"
     inkscape:document-rotation="0"
     inkscape:window-maximized="1"
     inkscape:window-y="27"
     inkscape:window-x="1920"
     inkscape:window-height="1016"
     inkscape:window-width="1920"
     fit-margin-bottom="0"
     fit-margin-right="0"
     fit-margin-left="0"
     fit-margin-top="0"
     showgrid="false"
     inkscape:current-layer="layer6"
     inkscape:document-units="px"
     inkscape:cy="8.2177197"
     inkscape:cx="14.167193"
     inkscape:zoom="32.000001"
     inkscape:pageshadow="2"
     inkscape:pageopacity="0"
     borderopacity="1.0"
     bordercolor="#666666"
     pagecolor="#ffffff"
     id="base"
     inkscape:pagecheckerboard="false" />
  <metadata
     id="metadata4702">
    <rdf:RDF>
      <cc:Work
         rdf:about="">
        <dc:format>image/svg+xml</dc:format>
        <dc:type
           rdf:resource="http://purl.org/dc/dcmitype/StillImage" />
        <dc:title></dc:title>
      </cc:Work>
    </rdf:RDF>
  </metadata>
  <g
     inkscape:label="Graphic"
     id="layer6"
     inkscape:groupmode="layer"
     style="display:inline">
    <path
       id="path1221"
       style="display:inline;fill:#000000;fill-opacity:1;stroke-width:1.41154;paint-order:stroke fill markers"
       d="M 8 0 C 6.7405174 1.4133817 6.3074972 2.801889 6.3457031 4.0683594 A 4.2666665 4.2666665 0 0 1 8 3.7324219 A 4.2666665 4.2666665 0 0 1 8.5273438 3.7675781 C 9.1254752 2.6496963 10.191321 1.6597714 11.984375 1.0625 A 8.0000607 8.0000607 0 0 0 8 0 z M 3.9902344 1.078125 A 8.0000607 8.0000607 0 0 0 1.0722656 4 C 1.6663189 5.7980527 2.6517299 6.8683013 3.7675781 7.46875 A 4.2666665 4.2666665 0 0 1 4.5957031 5.4296875 C 3.9278731 4.3513669 3.6080127 2.9316014 3.9902344 1.078125 z M 13.314453 3.828125 C 12.218731 3.8424904 11.324958 4.1475801 10.583984 4.6074219 A 4.2666665 4.2666665 0 0 1 11.925781 6.3320312 C 12.136248 6.3251931 12.349617 6.3286652 12.566406 6.3496094 C 13.656296 6.4549977 14.819515 6.9318313 16 7.9804688 A 8.0000607 8.0000607 0 0 0 14.923828 3.9921875 C 14.34647 3.8733164 13.810544 3.8216295 13.314453 3.828125 z M 0 8.0136719 A 8.0000607 8.0000607 0 0 0 1.0722656 11.998047 C 2.9264781 12.382613 4.3458572 12.064521 5.4238281 11.398438 A 4.2666665 4.2666665 0 0 1 4.0722656 9.6660156 C 2.804208 9.7052247 1.4144298 9.272037 0 8.0136719 z M 12.232422 8.5273438 A 4.2666665 4.2666665 0 0 1 11.40625 10.566406 C 12.07494 11.644858 12.397862 13.065433 12.015625 14.919922 A 8.0000607 8.0000607 0 0 0 14.927734 12 A 8.0000607 8.0000607 0 0 0 14.931641 11.994141 C 14.336454 10.195302 13.349819 9.126807 12.232422 8.5273438 z M 9.6582031 11.929688 A 4.2666665 4.2666665 0 0 1 8 12.267578 A 4.2666665 4.2666665 0 0 1 7.4785156 12.234375 C 6.8780858 13.35169 5.8066337 14.338208 4.0097656 14.933594 A 8.0000607 8.0000607 0 0 0 8.0039062 16 C 9.2643496 14.58616 9.6963265 13.196558 9.6582031 11.929688 z "
       transform="scale(0.26458333)" />
    <path
       id="path1344"
       style="color:#000000;font-style:normal;font-variant:normal;font-weight:normal;font-stretch:normal;font-size:medium;line-height:normal;font-family:sans-serif;font-variant-ligatures:normal;font-variant-position:normal;font-variant-caps:normal;font-variant-numeric:normal;font-variant-alternates:normal;font-variant-east-asian:normal;font-feature-settings:normal;font-variation-settings:normal;text-indent:0;text-align:start;text-decoration:none;text-decoration-line:none;text-decoration-style:solid;text-decoration-color:#000000;letter-spacing:normal;word-spacing:normal;text-transform:none;writing-mode:lr-tb;direction:ltr;text-orientation:mixed;dominant-baseline:auto;baseline-shift:baseline;text-anchor:start;white-space:normal;shape-padding:0;shape-margin:0;inline-size:0;clip-rule:nonzero;display:inline;overflow:visible;visibility:visible;isolation:auto;mix-blend-mode:normal;color-interpolation:sRGB;color-interpolation-filters:linearRGB;solid-color:#000000;solid-opacity:1;vector-effect:none;fill:#000000;fill-opacity:1;fill-rule:nonzero;stroke:none;stroke-width:0.176376;stroke-linecap:round;stroke-linejoin:round;stroke-miterlimit:4;stroke-dasharray:none;stroke-dashoffset:0;stroke-opacity:1;color-rendering:auto;image-rendering:auto;shape-rendering:auto;text-rendering:auto;enable-background:accumulate;stop-color:#000000"
       d="m 1.7998987,1.4993086 a 0.08819667,0.08819667 0 0 0 -0.088926,0.088203 v 0.529111 0.529192 a 0.08819667,0.08819667 0 0 0 0.1323583,0.07636 l 0.4582165,-0.264609 0.4582432,-0.264502 a 0.08819667,0.08819667 0 0 0 0,-0.1528015 L 2.301547,1.7757605 1.8433305,1.5111515 a 0.08819667,0.08819667 0 0 0 -0.043432,-0.011843 z" />
  </g>
</svg>
