<?xml version="1.0" encoding="UTF-8" standalone="no"?>
<svg
   sodipodi:docname="org.gtk.PrintEditor4.Devel.svg"
   id="svg8"
   version="1.1"
   viewBox="0 0 67.733332 67.733335"
   height="256"
   width="256"
   xmlns:inkscape="http://www.inkscape.org/namespaces/inkscape"
   xmlns:sodipodi="http://sodipodi.sourceforge.net/DTD/sodipodi-0.dtd"
   xmlns="http://www.w3.org/2000/svg"
   xmlns:svg="http://www.w3.org/2000/svg">
  <defs
     id="defs2">
    <linearGradient
       id="f"
       gradientTransform="matrix(0,0.73999996,-1.9692399,0,590.76999,-60.719991)"
       gradientUnits="userSpaceOnUse"
       x1="300"
       x2="428"
       y1="235"
       y2="235">
      <stop
         offset="0"
         stop-color="#f9f06b"
         id="stop39" />
      <stop
         offset="1"
         stop-color="#f5c211"
         id="stop41" />
    </linearGradient>
    <clipPath
       clipPathUnits="userSpaceOnUse"
       id="clipPath929">
      <path
         id="path931"
         style="display:inline;fill:#666666;fill-opacity:1;stroke-width:0.0933332;stroke-miterlimit:4;stroke-dasharray:none;paint-order:stroke fill markers"
         d="m 34.869141,16.000248 c -10.452655,0 -18.86914,8.416483 -18.86914,18.86914 0,62.087241 0,124.174482 0,186.261722 0,10.45266 8.416485,18.86914 18.86914,18.86914 H 221.13086 c 10.45266,0 18.86914,-8.41648 18.86914,-18.86914 0,-62.08724 0,-124.174481 0,-186.261722 0,-10.452657 -8.41648,-18.86914 -18.86914,-18.86914 z"
         sodipodi:nodetypes="sccssccss" />
    </clipPath>
  </defs>
  <sodipodi:namedview
     inkscape:window-maximized="1"
     inkscape:window-y="27"
     inkscape:window-x="1920"
     inkscape:window-height="1016"
     inkscape:window-width="1920"
     units="px"
     showgrid="false"
     inkscape:document-rotation="0"
     inkscape:current-layer="g1156"
     inkscape:document-units="px"
     inkscape:cy="122.82643"
     inkscape:cx="164.472"
     inkscape:zoom="2.0000001"
     inkscape:pageshadow="2"
     inkscape:pageopacity="0.0"
     borderopacity="1.0"
     bordercolor="#666666"
     pagecolor="#ffffff"
     id="base"
     inkscape:showpageshadow="2"
     inkscape:pagecheckerboard="0"
     inkscape:deskcolor="#d1d1d1" />
  <g
     inkscape:groupmode="layer"
     id="layer1"
     inkscape:label="Background"
     style="display:inline">
    <g
       inkscape:label="Shadow"
       id="layer10"
       inkscape:groupmode="layer"
       style="display:inline;opacity:0.4">
      <path
         id="path839"
         style="display:inline;opacity:1;fill:#000000;fill-opacity:1;stroke-width:0.0246944;stroke-miterlimit:4;stroke-dasharray:none;paint-order:stroke fill markers"
         d="m 4.2333333,34.925001 v 24.641082 c 0,2.765599 2.2266527,4.992251 4.9922512,4.992251 H 58.50775 c 2.765599,0 4.99225,-2.226652 4.99225,-4.992251 V 34.925001 Z" />
    </g>
    <g
       style="display:inline"
       inkscape:label="Colour"
       id="g1174"
       inkscape:groupmode="layer">
      <path
         id="rect1168"
         style="display:inline;fill:#666666;fill-opacity:1;stroke-width:0.0933332;stroke-miterlimit:4;stroke-dasharray:none;paint-order:stroke fill markers"
         d="M 34.869141,16 C 24.416485,16 16,24.416483 16,34.869141 16,96.956381 16,159.04362 16,221.13086 16,231.58352 24.416485,240 34.869141,240 H 221.13086 C 231.58352,240 240,231.58352 240,221.13086 240,159.04362 240,96.956381 240,34.869141 240,24.416483 231.58352,16 221.13086,16 Z"
         sodipodi:nodetypes="sccssccss"
         transform="scale(0.26458333)" />
    </g>
    <g
       inkscape:groupmode="layer"
       id="layer2"
       inkscape:label="Highlight"
       style="opacity:0.1">
      <path
         d="m 9.2257931,4.2333333 c -2.7655986,0 -4.9924598,2.2268608 -4.9924598,4.9924598 v 1.0583329 c 0,-2.7655979 2.2268612,-4.9924597 4.9924598,-4.9924597 H 58.50754 c 2.765599,0 4.99246,2.2268618 4.99246,4.9924597 V 9.2257931 c 0,-2.765599 -2.226861,-4.9924598 -4.99246,-4.9924598 z"
         style="display:inline;opacity:1;fill:#ffffff;fill-opacity:1;stroke-width:0.0246944;stroke-miterlimit:4;stroke-dasharray:none;paint-order:stroke fill markers"
         id="path955" />
    </g>
  </g>
  <g
     inkscape:label="Graphic"
     id="g1156"
     inkscape:groupmode="layer"
     style="display:inline">
    <g
       id="g902">
      <path
         id="path867"
         style="display:inline;opacity:0.4;fill:#000000;stroke-width:0.619638;stroke-linecap:round;stroke-linejoin:round;paint-order:stroke markers fill"
         d="m 18.377689,11.641664 c -1.679767,0 -3.031856,1.352089 -3.031856,3.031857 v 30.977955 c 0,1.679765 1.352089,3.031855 3.031856,3.031855 h 23.426477 l 5.291151,-5.291667 5.292182,-5.291667 V 14.673521 c 0,-1.679768 -1.352089,-3.031857 -3.031855,-3.031857 z" />
      <g
         id="g896">
        <path
           id="rect840"
           style="display:inline;opacity:1;fill:#ffffff;stroke-width:0.619638;stroke-linecap:round;stroke-linejoin:round;paint-order:stroke markers fill"
           d="m 18.377689,11.112497 c -1.679767,0 -3.031856,1.352089 -3.031856,3.031857 v 30.977955 c 0,1.679765 1.352089,3.031855 3.031856,3.031855 h 23.426477 l 5.291151,-5.291667 5.292182,-5.291667 V 14.144354 c 0,-1.679768 -1.352089,-3.031857 -3.031855,-3.031857 z" />
        <path
           id="path860"
           style="display:inline;opacity:1;fill:#e6e6e6;stroke-width:0.619638;stroke-linecap:round;stroke-linejoin:round;paint-order:stroke markers fill"
           d="m 41.804166,48.154166 5.292182,-5.291667 5.291151,-5.291666 h -7.551478 c -1.679763,0 -3.031855,1.352089 -3.031855,3.031855 z" />
      </g>
    </g>
    <g
       id="g918">
      <g
         id="g906">
        <circle
           style="opacity:0.4;fill:#000000;stroke-width:0.417323;stroke-linecap:round;stroke-linejoin:round;paint-order:stroke markers fill"
           id="circle858"
           cx="9.7895832"
           cy="17.79323"
           r="1.6536459" />
        <circle
           style="fill:#ff0000;stroke-width:0.417323;stroke-linecap:round;stroke-linejoin:round;paint-order:stroke markers fill"
           id="path856"
           cx="9.7895832"
           cy="17.528646"
           r="1.6536459" />
      </g>
      <g
         id="g910">
        <rect
           style="opacity:0.4;fill:#000000;stroke-width:0.439974;stroke-linecap:round;stroke-linejoin:round;paint-order:stroke markers fill"
           id="rect888"
           width="3.3072917"
           height="5.2916665"
           x="8.1359377"
           y="21.828125"
           ry="0.95613933" />
        <rect
           style="fill:#f2f2f2;stroke-width:0.439974;stroke-linecap:round;stroke-linejoin:round;paint-order:stroke markers fill"
           id="rect886"
           width="3.3072917"
           height="5.2916665"
           x="8.1359377"
           y="21.298958"
           ry="0.95613933" />
      </g>
    </g>
    <g
       id="g1068"
       transform="matrix(1.0000011,0,0,0.99999998,-7.6861394,-9.2632061)">
      <path
         id="path1008"
         style="color:#000000;font-style:normal;font-variant:normal;font-weight:normal;font-stretch:normal;font-size:medium;line-height:normal;font-family:sans-serif;font-variant-ligatures:normal;font-variant-position:normal;font-variant-caps:normal;font-variant-numeric:normal;font-variant-alternates:normal;font-variant-east-asian:normal;font-feature-settings:normal;font-variation-settings:normal;text-indent:0;text-align:start;text-decoration:none;text-decoration-line:none;text-decoration-style:solid;text-decoration-color:#000000;letter-spacing:normal;word-spacing:normal;text-transform:none;writing-mode:lr-tb;direction:ltr;text-orientation:mixed;dominant-baseline:auto;baseline-shift:baseline;text-anchor:start;white-space:normal;shape-padding:0;shape-margin:0;inline-size:0;clip-rule:nonzero;display:inline;overflow:visible;visibility:visible;opacity:0.4;isolation:auto;mix-blend-mode:normal;color-interpolation:sRGB;color-interpolation-filters:linearRGB;solid-color:#000000;solid-opacity:1;vector-effect:none;fill:#000000;fill-opacity:1;fill-rule:nonzero;stroke:none;stroke-width:3.77953;stroke-linecap:butt;stroke-linejoin:round;stroke-miterlimit:4;stroke-dasharray:none;stroke-dashoffset:0;stroke-opacity:1;paint-order:stroke fill markers;color-rendering:auto;image-rendering:auto;shape-rendering:auto;text-rendering:auto;enable-background:accumulate;stop-color:#000000"
         d="m 138.12305,90.539062 a 6.2252209,6.2252209 0 0 0 -3.10743,0.833985 l -6.4746,3.734375 a 6.2252209,6.2252209 0 0 0 -3.10743,5.388668 v 10.2168 a 6.2252209,6.2252209 0 0 0 1.35547,3.87109 37.666289,37.666656 89.921114 0 0 -2.35937,3.59375 37.666289,37.666656 89.921114 0 0 -1.92774,3.83204 6.2252209,6.2252209 0 0 0 -0.9375,-0.0684 6.2252209,6.2252209 0 0 0 -3.09961,0.83398 l -8.84375,5.10938 a 6.2252209,6.2252209 0 0 0 -3.11523,5.38867 v 7.4766 a 6.2252209,6.2252209 0 0 0 3.11523,5.38867 l 8.84375,5.10938 a 6.2252209,6.2252209 0 0 0 4.03516,0.76562 37.666289,37.666656 89.921114 0 0 4.28711,7.42383 6.2252209,6.2252209 0 0 0 -1.35352,3.87109 v 10.2168 a 6.2252209,6.2252209 0 0 0 3.10743,5.38867 l 6.4746,3.73633 a 6.2252209,6.2252209 0 0 0 6.22266,0 l 8.84375,-5.10937 a 6.2252209,6.2252209 0 0 0 2.67578,-3.10938 37.666289,37.666656 89.921114 0 0 8.58399,0 6.2252209,6.2252209 0 0 0 2.67578,3.10938 l 8.84375,5.10937 a 6.2252209,6.2252209 0 0 0 6.22265,0 l 6.47461,-3.73633 a 6.2252209,6.2252209 0 0 0 3.11524,-5.38867 v -10.2168 a 6.2252209,6.2252209 0 0 0 -1.35742,-3.87695 37.666289,37.666656 89.921114 0 0 2.35547,-3.58789 37.666289,37.666656 89.921114 0 0 1.93164,-3.83594 6.2252209,6.2252209 0 0 0 4.03125,-0.75976 l 8.84375,-5.10938 a 6.2252209,6.2252209 0 0 0 3.11523,-5.38867 v -7.47656 a 6.2252209,6.2252209 0 0 0 -3.11523,-5.38867 l -8.84375,-5.10938 a 6.2252209,6.2252209 0 0 0 -3.11524,-0.83398 6.2252209,6.2252209 0 0 0 -0.91601,0.0703 37.666289,37.666656 89.921114 0 0 -4.28711,-7.42188 6.2252209,6.2252209 0 0 0 1.35742,-3.87695 v -10.2168 a 6.2252209,6.2252209 0 0 0 -3.11524,-5.388668 l -6.47461,-3.734375 a 6.2252209,6.2252209 0 0 0 -3.11523,-0.833985 6.2252209,6.2252209 0 0 0 -3.10742,0.833985 l -8.84375,5.101562 a 6.2252209,6.2252209 0 0 0 -2.6836,3.115235 37.666289,37.666656 89.921114 0 0 -8.57031,0 6.2252209,6.2252209 0 0 0 -2.68164,-3.115235 l -8.84375,-5.101562 a 6.2252209,6.2252209 0 0 0 -3.11523,-0.833985 z m 18.67578,36.095708 c 0.49822,-0.0106 0.99798,0.0133 1.49805,0.0762 1.33351,0.16709 2.656,0.60007 3.90234,1.3164 0.006,0.003 0.0131,0.004 0.0195,0.008 4.98679,2.8791 6.67015,9.15784 3.79102,14.14453 -2.87912,4.98664 -9.15779,6.66816 -14.14454,3.78906 -4.98674,-2.87907 -6.6681,-9.15786 -3.78906,-14.14453 1.88671,-3.26792 5.23513,-5.11442 8.72266,-5.18945 z"
         transform="scale(0.26458333)" />
      <g
         id="g1066"
         transform="matrix(0.6666665,0,0,0.6666665,18.975238,12.614742)">
        <g
           id="g1053">
          <path
             id="path1891"
             style="fill:#cccccc;stroke:#b3b3b3;stroke-width:4.94078;stroke-linecap:butt;stroke-linejoin:round;stroke-miterlimit:4;stroke-dasharray:none;paint-order:stroke fill markers"
             d="m 41.376395,17.892633 -3.509776,2.026393 6.079137,3.509791 2.4e-5,-4.052749 z" />
          <path
             id="path1893"
             style="fill:#cccccc;stroke:#b3b3b3;stroke-width:4.94078;stroke-linecap:butt;stroke-linejoin:round;stroke-miterlimit:4;stroke-dasharray:none;paint-order:stroke fill markers"
             d="m 23.787615,48.357292 1.9e-5,-4.052751 6.079138,3.509791 -3.509772,2.026395 z" />
          <path
             id="path1895"
             style="fill:#cccccc;stroke:#b3b3b3;stroke-width:4.94078;stroke-linecap:butt;stroke-linejoin:round;stroke-miterlimit:4;stroke-dasharray:none;paint-order:stroke fill markers"
             d="m 51.455435,32.38326 -3.509793,-2.026359 -2e-6,7.019586 3.509794,-2.026356 z" />
          <path
             id="path1897"
             style="fill:#cccccc;stroke:#b3b3b3;stroke-width:4.94078;stroke-linecap:butt;stroke-linejoin:round;stroke-miterlimit:4;stroke-dasharray:none;paint-order:stroke fill markers"
             d="m 16.277888,32.383268 3.509795,-2.026361 -2e-6,7.019586 -3.509794,-2.026354 z" />
          <path
             id="path1899"
             style="fill:#cccccc;stroke:#b3b3b3;stroke-width:4.94078;stroke-linecap:butt;stroke-linejoin:round;stroke-miterlimit:4;stroke-dasharray:none;paint-order:stroke fill markers"
             d="m 43.945722,48.357283 -1.6e-5,-4.052751 -6.07914,3.509794 3.509771,2.026393 z" />
          <path
             id="path1901"
             style="fill:#cccccc;stroke:#b3b3b3;stroke-width:4.94078;stroke-linecap:butt;stroke-linejoin:round;stroke-miterlimit:4;stroke-dasharray:none;paint-order:stroke fill markers"
             d="m 26.356956,17.892632 3.509777,2.026391 -6.079141,3.509794 -2.2e-5,-4.052749 z" />
        </g>
        <g
           id="g1045">
          <path
             id="path1905-0"
             style="fill:#b3b3b3;stroke:none;stroke-width:2.8858;stroke-linecap:square;stroke-linejoin:round;stroke-miterlimit:4;stroke-dasharray:none;paint-order:stroke fill markers"
             d="m 41.254162,20.870541 a 14.948812,14.948958 89.921114 0 0 -20.333674,5.521864 14.948812,14.948958 89.921114 0 0 5.471698,20.420456 14.948812,14.948958 89.921114 0 0 20.420657,-5.471644 14.948812,14.948958 89.921114 0 0 -5.471698,-20.420457 14.948812,14.948958 89.921114 0 0 -0.08698,-0.05022 z m -4.407818,7.812011 a 5.9795246,5.9795832 89.921114 0 1 0.0101,0.0058 5.9795246,5.9795832 89.921114 0 1 2.188679,8.168182 5.9795246,5.9795832 89.921114 0 1 -8.168263,2.188658 5.9795246,5.9795832 89.921114 0 1 -2.188679,-8.168182 5.9795246,5.9795832 89.921114 0 1 8.158149,-2.194497 z" />
          <path
             id="path1907"
             style="fill:#e6e6e6;stroke:none;stroke-width:2.36671;stroke-linecap:square;stroke-linejoin:round;stroke-miterlimit:4;stroke-dasharray:none;paint-order:stroke fill markers"
             d="M 39.924402,23.209946 A 12.258135,12.257996 5.9890799 0 0 23.250776,27.737843 12.258135,12.257996 5.9890799 0 0 27.73761,44.482576 12.258135,12.257996 5.9890799 0 0 44.482508,39.995869 12.258135,12.257996 5.9890799 0 0 39.995717,23.25112 12.258135,12.257996 5.9890799 0 0 39.924497,23.21 Z m -3.6145,6.405753 a 4.9032553,4.9031983 6.5802376 0 1 0.009,0.0052 4.9032553,4.9031983 6.5802376 0 1 1.794708,6.697925 4.9032553,4.9031983 6.5802376 0 1 -6.697971,1.794647 A 4.9032553,4.9031983 6.5802376 0 1 29.6209,31.4156 4.9032553,4.9031983 6.5802376 0 1 36.310595,29.616099 Z" />
          <path
             id="path1029"
             style="color:#000000;font-style:normal;font-variant:normal;font-weight:normal;font-stretch:normal;font-size:medium;line-height:normal;font-family:sans-serif;font-variant-ligatures:normal;font-variant-position:normal;font-variant-caps:normal;font-variant-numeric:normal;font-variant-alternates:normal;font-variant-east-asian:normal;font-feature-settings:normal;font-variation-settings:normal;text-indent:0;text-align:start;text-decoration:none;text-decoration-line:none;text-decoration-style:solid;text-decoration-color:#000000;letter-spacing:normal;word-spacing:normal;text-transform:none;writing-mode:lr-tb;direction:ltr;text-orientation:mixed;dominant-baseline:auto;baseline-shift:baseline;text-anchor:start;white-space:normal;shape-padding:0;shape-margin:0;inline-size:0;clip-rule:nonzero;display:inline;overflow:visible;visibility:visible;isolation:auto;mix-blend-mode:normal;color-interpolation:sRGB;color-interpolation-filters:linearRGB;solid-color:#000000;solid-opacity:1;vector-effect:none;fill:#b3b3b3;fill-opacity:1;fill-rule:nonzero;stroke:none;stroke-width:3.77953;stroke-linecap:square;stroke-linejoin:round;stroke-miterlimit:4;stroke-dasharray:none;stroke-dashoffset:0;stroke-opacity:1;paint-order:stroke fill markers;color-rendering:auto;image-rendering:auto;shape-rendering:auto;text-rendering:auto;enable-background:accumulate;stop-color:#000000"
             d="m 128.51172,107.45898 c -7.27279,-0.17929 -14.41411,3.52153 -18.30664,10.26368 -5.66966,9.82019 -2.30465,22.37718 7.51562,28.04687 9.82027,5.66975 22.37903,2.30453 28.04883,-7.51562 5.66984,-9.82021 2.30474,-22.37714 -7.51562,-28.04688 l -0.0352,-0.0215 h -0.002 c -3.06767,-1.7628 -6.39981,-2.64508 -9.70508,-2.72657 z m -0.89063,4.97657 c 0.74733,-0.0161 1.49795,0.0212 2.24805,0.11523 2.00027,0.25062 3.98401,0.89816 5.85352,1.97266 0.009,0.005 0.0198,0.008 0.0293,0.0137 7.48019,4.31865 10.00425,13.73677 5.68555,21.2168 -4.31867,7.47997 -13.73668,10.00225 -21.2168,5.68359 -7.48012,-4.31861 -10.00215,-13.73679 -5.68359,-21.2168 2.83007,-4.90188 7.85269,-7.67259 13.08398,-7.78515 z"
             transform="scale(0.26458333)" />
        </g>
      </g>
    </g>
  </g>
  <g
     inkscape:groupmode="layer"
     id="layer3"
     inkscape:label="Devel"
     style="display:inline">
    <g
       id="g897"
       style="display:inline"
       transform="matrix(0.26458333,0,0,0.26458333,-1.0583333e-7,-6.5503229e-5)"
       clip-path="url(#clipPath929)">
      <path
         d="M 255.99999,161.28125 V 256 H 4e-7 v -94.71875 z m 0,0"
         fill="url(#f)"
         id="path68"
         style="fill:url(#f);stroke-width:2" />
      <path
         d="M 26.617187,161.28125 121.32812,256 H 163.7578 L 69.039059,161.28125 Z m 84.843743,0 L 206.18749,256 h 42.42968 l -94.72655,-94.71875 z m 84.85937,0 59.67969,59.67969 V 178.53906 L 238.74217,161.28125 Z M 4e-7,177.09375 v 42.42969 L 36.476561,256 h 42.429685 z m 0,0"
         id="path70"
         style="stroke-width:2" />
    </g>
  </g>
</svg>
