<?xml version="1.0" encoding="UTF-8" standalone="no"?>
<svg
   sodipodi:docname="org.gnome.Yelp.svg"
   id="svg8"
   version="1.1"
   viewBox="0 0 67.733333 67.733334"
   height="256"
   width="256"
   inkscape:version="1.4.2 (ebf0e940d0, 2025-05-08)"
   xmlns:inkscape="http://www.inkscape.org/namespaces/inkscape"
   xmlns:sodipodi="http://sodipodi.sourceforge.net/DTD/sodipodi-0.dtd"
   xmlns="http://www.w3.org/2000/svg"
   xmlns:svg="http://www.w3.org/2000/svg">
  <defs
     id="defs2" />
  <sodipodi:namedview
     inkscape:window-maximized="1"
     inkscape:window-y="0"
     inkscape:window-x="0"
     inkscape:window-height="1011"
     inkscape:window-width="1920"
     units="px"
     showgrid="false"
     inkscape:document-rotation="0"
     inkscape:current-layer="layer1"
     inkscape:document-units="px"
     inkscape:cy="211.99999"
     inkscape:cx="-77.999998"
     inkscape:zoom="1"
     inkscape:pageshadow="2"
     inkscape:pageopacity="0.0"
     borderopacity="1.0"
     bordercolor="#666666"
     pagecolor="#ffffff"
     id="base"
     inkscape:lockguides="false"
     inkscape:pagecheckerboard="0"
     width="256px"
     inkscape:showpageshadow="2"
     inkscape:deskcolor="#d1d1d1" />
  <g
     inkscape:groupmode="layer"
     id="layer3"
     inkscape:label="Background"
     style="display:inline">
    <g
       inkscape:groupmode="layer"
       id="layer4"
       inkscape:label="Shadow"
       style="display:inline;opacity:0.4">
      <circle
         style="display:inline;fill:#000000;fill-opacity:1;stroke-width:14.1577;stroke-linecap:round;stroke-miterlimit:1.6;paint-order:stroke markers fill"
         id="circle834"
         cx="33.866665"
         cy="34.924999"
         r="31.75" />
    </g>
    <g
       inkscape:groupmode="layer"
       id="layer2"
       inkscape:label="Colour"
       style="display:inline">
      <circle
         style="display:inline;fill:#007fdd;fill-opacity:1;stroke-width:14.1577;stroke-linecap:round;stroke-miterlimit:1.6;paint-order:stroke markers fill"
         id="path835"
         cx="33.866665"
         cy="33.866665"
         r="31.75" />
    </g>
    <g
       inkscape:groupmode="layer"
       id="layer5"
       inkscape:label="Highlight"
       style="display:inline;opacity:0.1">
      <path
         id="circle855"
         style="display:inline;fill:#ffffff;fill-opacity:1;stroke-width:53.5094;stroke-linecap:round;stroke-miterlimit:1.6;paint-order:stroke markers fill"
         d="M 128 8 A 120 120 0 0 0 8 128 A 120 120 0 0 0 8.0742188 130 A 120 120 0 0 1 128 12 A 120 120 0 0 1 247.96289 129.00977 A 120 120 0 0 0 248 128 A 120 120 0 0 0 128 8 z "
         transform="scale(0.26458333)" />
    </g>
  </g>
  <g
     inkscape:groupmode="layer"
     id="layer7"
     inkscape:label="Large Highlight">
    <path
       style="display:inline;opacity:0.1;fill:#ffffff;fill-opacity:1;stroke:none;stroke-width:0.566965;stroke-linecap:round;stroke-linejoin:round;stroke-miterlimit:4;stroke-dasharray:none;stroke-dashoffset:0;stroke-opacity:1;enable-background:new"
       d="m 6.5350067,17.777883 a 31.749998,31.749998 0 0 0 -4.41834,16.08871 31.749998,31.749998 0 0 0 31.7500003,31.75 31.749998,31.749998 0 0 0 26.82616,-14.8363 z"
       id="path958"
       inkscape:connector-curvature="0" />
  </g>
  <g
     inkscape:groupmode="layer"
     id="layer1"
     inkscape:label="Graphic"
     style="display:inline">
    <path
       style="font-size:4px;line-height:1.25;font-family:Cantarell;-inkscape-font-specification:Cantarell;white-space:pre;opacity:0.4;stroke-width:0.01666"
       d="m -222.81731,43.164188 h 0.304 v -0.212 c 0,-0.436 0.644,-0.604 0.644,-1.172 0,-0.392 -0.312,-0.652 -0.784,-0.652 -0.264,0 -0.556,0.08 -0.792,0.212 l 0.076,0.244 c 0.216,-0.108 0.432,-0.164 0.632,-0.164 0.332,0 0.528,0.156 0.528,0.396 0,0.42 -0.608,0.564 -0.608,1.136 z m 0.156,0.82 c 0.152,0 0.256,-0.108 0.256,-0.256 0,-0.148 -0.104,-0.256 -0.256,-0.256 -0.152,0 -0.256,0.108 -0.256,0.256 0,0.148 0.104,0.256 0.256,0.256 z"
       id="text2"
       transform="matrix(15.881377,0,0,15.881377,3569.9714,-640.92571)"
       aria-label="?" />
    <path
       style="font-size:4px;line-height:1.25;font-family:Cantarell;-inkscape-font-specification:Cantarell;white-space:pre;fill:#ffffff;stroke-width:0.01666"
       d="m -222.81731,43.164188 h 0.304 v -0.212 c 0,-0.436 0.644,-0.604 0.644,-1.172 0,-0.392 -0.312,-0.652 -0.784,-0.652 -0.264,0 -0.556,0.08 -0.792,0.212 l 0.076,0.244 c 0.216,-0.108 0.432,-0.164 0.632,-0.164 0.332,0 0.528,0.156 0.528,0.396 0,0.42 -0.608,0.564 -0.608,1.136 z m 0.156,0.82 c 0.152,0 0.256,-0.108 0.256,-0.256 0,-0.148 -0.104,-0.256 -0.256,-0.256 -0.152,0 -0.256,0.108 -0.256,0.256 0,0.148 0.104,0.256 0.256,0.256 z"
       id="text1"
       transform="matrix(15.881377,0,0,15.881377,3569.9714,-641.98405)"
       aria-label="?" />
  </g>
</svg>
