<?xml version="1.0" encoding="UTF-8" standalone="no"?>
<svg
   xmlns:dc="http://purl.org/dc/elements/1.1/"
   xmlns:cc="http://creativecommons.org/ns#"
   xmlns:rdf="http://www.w3.org/1999/02/22-rdf-syntax-ns#"
   xmlns:svg="http://www.w3.org/2000/svg"
   xmlns="http://www.w3.org/2000/svg"
   xmlns:sodipodi="http://sodipodi.sourceforge.net/DTD/sodipodi-0.dtd"
   xmlns:inkscape="http://www.inkscape.org/namespaces/inkscape"
   height="16"
   width="16"
   version="1.1"
   id="svg8"
   sodipodi:docname="org.gnome.ArchiveManager-symbolic.symbolic.svg"
   inkscape:version="1.0.2 (e86c870879, 2021-01-15)">
  <metadata
     id="metadata14">
    <rdf:RDF>
      <cc:Work
         rdf:about="">
        <dc:format>image/svg+xml</dc:format>
        <dc:type
           rdf:resource="http://purl.org/dc/dcmitype/StillImage" />
      </cc:Work>
    </rdf:RDF>
  </metadata>
  <defs
     id="defs12" />
  <sodipodi:namedview
     pagecolor="#ffffff"
     bordercolor="#666666"
     borderopacity="1"
     objecttolerance="10"
     gridtolerance="10"
     guidetolerance="10"
     inkscape:pageopacity="0"
     inkscape:pageshadow="2"
     inkscape:window-width="1920"
     inkscape:window-height="1016"
     id="namedview10"
     showgrid="false"
     inkscape:zoom="22.627417"
     inkscape:cx="16.807874"
     inkscape:cy="12.721239"
     inkscape:window-x="1920"
     inkscape:window-y="27"
     inkscape:window-maximized="1"
     inkscape:current-layer="svg8"
     inkscape:document-rotation="0" />
  <g
     id="g853">
    <path
       d="M 5.494,0 C 4.236,0.015 3.315,-0.03 2.562,0.385 A 1.88,1.88 0 0 0 1.725,1.383 C 1.56,1.822 1.5,2.343 1.5,3 v 10 c 0,0.658 0.06,1.179 0.225,1.617 0.164,0.439 0.461,0.79 0.837,0.998 0.753,0.416 1.674,0.37 2.932,0.385 h 5.012 c 1.258,-0.014 2.179,0.03 2.932,-0.385 a 1.88,1.88 0 0 0 0.838,-0.998 C 14.44,14.179 14.5,13.657 14.5,13 V 3 C 14.5,2.342 14.44,1.822 14.275,1.383 A 1.88,1.88 0 0 0 13.437,0.385 C 12.685,-0.031 11.764,0.015 10.506,0 H 5.498 Z M 5.5,1 h 5 c 1.259,0.015 2.087,0.06 2.453,0.262 0.184,0.101 0.29,0.213 0.387,0.472 0.097,0.26 0.16,0.674 0.16,1.266 v 10 c 0,0.592 -0.063,1.006 -0.16,1.266 -0.098,0.26 -0.204,0.371 -0.387,0.472 C 12.587,14.94 11.758,14.985 10.5,15 h -5 C 4.241,14.985 3.413,14.94 3.047,14.738 2.863,14.638 2.757,14.526 2.66,14.266 2.563,14.006 2.5,13.592 2.5,13 V 3 C 2.5,2.408 2.563,1.994 2.66,1.734 2.758,1.474 2.863,1.363 3.047,1.262 3.413,1.06 4.24,1.015 5.5,1 Z"
       style="line-height:normal;font-variant-ligatures:normal;font-variant-position:normal;font-variant-caps:normal;font-variant-numeric:normal;font-variant-alternates:normal;font-feature-settings:normal;text-indent:0;text-align:start;text-decoration:none;text-decoration-line:none;text-decoration-style:solid;text-decoration-color:#000000;text-transform:none;text-orientation:mixed;white-space:normal;shape-padding:0;isolation:auto;mix-blend-mode:normal;solid-color:#000000;solid-opacity:1;fill:#000000;marker:none"
       color="#000000"
       font-weight="400"
       font-family="sans-serif"
       overflow="visible"
       id="path2" />
    <path
       id="path4"
       style="fill:#000000"
       d="M 7 1.5 L 7 2.5 L 8 2.5 L 8 1.5 L 7 1.5 z M 8 2.5 L 8 3.5 L 9 3.5 L 9 2.5 L 8 2.5 z M 8 3.5 L 7 3.5 L 7 4.5 L 8 4.5 L 8 3.5 z M 8 4.5 L 8 5.5 L 9 5.5 L 9 4.5 L 8 4.5 z M 7.25 6 C 7.1119288 6 7 6.1119288 7 6.25 L 7 8.75 C 7 8.889 7.112 9 7.25 9 L 8.75 9 C 8.8880712 9 9 8.8880712 9 8.75 L 9 6.25 C 9.0001989 6.1170965 8.8963767 6.007268 8.7636719 6 L 7.25 6 z M 7.6035156 7.5 L 8.3964844 7.5 C 8.4533143 7.5 8.5 7.5466857 8.5 7.6035156 L 8.5 8.3964844 C 8.5 8.4533143 8.4533143 8.5 8.3964844 8.5 L 7.6035156 8.5 C 7.5466857 8.5 7.5 8.4533143 7.5 8.3964844 L 7.5 7.6035156 C 7.5 7.5466857 7.5466857 7.5 7.6035156 7.5 z " />
  </g>
</svg>
