<?xml version="1.0" encoding="UTF-8" standalone="no"?>
<svg
   xmlns:dc="http://purl.org/dc/elements/1.1/"
   xmlns:cc="http://creativecommons.org/ns#"
   xmlns:rdf="http://www.w3.org/1999/02/22-rdf-syntax-ns#"
   xmlns:svg="http://www.w3.org/2000/svg"
   xmlns="http://www.w3.org/2000/svg"
   xmlns:sodipodi="http://sodipodi.sourceforge.net/DTD/sodipodi-0.dtd"
   xmlns:inkscape="http://www.inkscape.org/namespaces/inkscape"
   sodipodi:docname="org.freedesktop.Piper.svg"
   inkscape:version="1.0.1 (3bc2e813f5, 2020-09-07)"
   id="svg8"
   version="1.1"
   viewBox="0 0 67.733331 67.733331"
   height="256"
   width="256">
  <defs
     id="defs2">
    <marker
       style="overflow:visible"
       id="marker2934"
       refX="0.0"
       refY="0.0"
       orient="auto"
       inkscape:stockid="DotS"
       inkscape:isstock="true">
      <path
         transform="scale(0.2) translate(7.4, 1)"
         style="fill-rule:evenodd;stroke:#000000;stroke-width:1pt;stroke-opacity:1;fill:#000000;fill-opacity:1"
         d="M -2.5,-1.0 C -2.5,1.7600000 -4.7400000,4.0 -7.5,4.0 C -10.260000,4.0 -12.5,1.7600000 -12.5,-1.0 C -12.5,-3.7600000 -10.260000,-6.0 -7.5,-6.0 C -4.7400000,-6.0 -2.5,-3.7600000 -2.5,-1.0 z "
         id="path2932" />
    </marker>
    <marker
       style="overflow:visible"
       id="marker2874"
       refX="0.0"
       refY="0.0"
       orient="auto"
       inkscape:stockid="DotS"
       inkscape:isstock="true"
       inkscape:collect="always">
      <path
         transform="scale(0.2) translate(7.4, 1)"
         style="fill-rule:evenodd;stroke:#00ff00;stroke-width:1pt;stroke-opacity:1;fill:#00ff00;fill-opacity:1"
         d="M -2.5,-1.0 C -2.5,1.7600000 -4.7400000,4.0 -7.5,4.0 C -10.260000,4.0 -12.5,1.7600000 -12.5,-1.0 C -12.5,-3.7600000 -10.260000,-6.0 -7.5,-6.0 C -4.7400000,-6.0 -2.5,-3.7600000 -2.5,-1.0 z "
         id="path2872" />
    </marker>
    <marker
       style="overflow:visible"
       id="marker1773"
       refX="0.0"
       refY="0.0"
       orient="auto"
       inkscape:stockid="DotS"
       inkscape:isstock="true"
       inkscape:collect="always">
      <path
         transform="scale(0.2) translate(7.4, 1)"
         style="fill-rule:evenodd;stroke:#00ff00;stroke-width:1pt;stroke-opacity:1;fill:#00ff00;fill-opacity:1"
         d="M -2.5,-1.0 C -2.5,1.7600000 -4.7400000,4.0 -7.5,4.0 C -10.260000,4.0 -12.5,1.7600000 -12.5,-1.0 C -12.5,-3.7600000 -10.260000,-6.0 -7.5,-6.0 C -4.7400000,-6.0 -2.5,-3.7600000 -2.5,-1.0 z "
         id="path1771" />
    </marker>
  </defs>
  <sodipodi:namedview
     inkscape:window-maximized="1"
     inkscape:window-y="27"
     inkscape:window-x="2004"
     inkscape:window-height="1016"
     inkscape:window-width="1836"
     units="px"
     showgrid="false"
     inkscape:document-rotation="0"
     inkscape:current-layer="g1939"
     inkscape:document-units="px"
     inkscape:cy="168.18146"
     inkscape:cx="110.87028"
     inkscape:zoom="2"
     inkscape:pageshadow="2"
     inkscape:pageopacity="0.0"
     borderopacity="1.0"
     bordercolor="#666666"
     pagecolor="#ffffff"
     id="base" />
  <metadata
     id="metadata5">
    <rdf:RDF>
      <cc:Work
         rdf:about="">
        <dc:format>image/svg+xml</dc:format>
        <dc:type
           rdf:resource="http://purl.org/dc/dcmitype/StillImage" />
        <dc:title />
      </cc:Work>
    </rdf:RDF>
  </metadata>
  <g
     inkscape:label="Background"
     id="layer2"
     inkscape:groupmode="layer">
    <g
       inkscape:groupmode="layer"
       id="layer13"
       inkscape:label="Shadow"
       style="display:inline;opacity:0.4">
      <circle
         cy="34.924999"
         cx="33.866665"
         id="circle1383"
         style="display:inline;opacity:1;fill:#000000;fill-opacity:1;stroke-width:1.70089;paint-order:stroke fill markers"
         r="31.749998" />
    </g>
    <g
       inkscape:groupmode="layer"
       id="layer10"
       inkscape:label="Colour"
       style="display:inline">
      <circle
         style="display:inline;opacity:1;fill:#333333;fill-opacity:1;stroke-width:1.70089;paint-order:stroke fill markers"
         id="path1327"
         cx="33.866665"
         cy="33.866665"
         r="31.749998" />
    </g>
    <g
       style="display:inline;opacity:0.1"
       inkscape:label="Highlight"
       id="layer1"
       inkscape:groupmode="layer">
      <path
         d="M 33.866666,2.1166681 A 31.749998,31.749998 0 0 0 2.1166681,33.866666 31.749998,31.749998 0 0 0 2.1216512,34.430308 31.749998,31.749998 0 0 1 33.866666,3.2505966 31.749998,31.749998 0 0 1 65.611679,34.436953 31.749998,31.749998 0 0 0 65.616663,33.866666 31.749998,31.749998 0 0 0 33.866666,2.1166681 Z"
         style="display:inline;opacity:1;fill:#ffffff;fill-opacity:1;stroke-width:1.70089;paint-order:stroke fill markers"
         id="circle849" />
    </g>
  </g>
  <g
     inkscape:groupmode="layer"
     id="layer7"
     inkscape:label="Icon"
     style="display:inline">
    <g
       inkscape:groupmode="layer"
       id="layer12"
       inkscape:label="Shadow"
       style="display:inline;opacity:0.4">
      <path
         id="path1264"
         style="color:#000000;font-style:normal;font-variant:normal;font-weight:normal;font-stretch:normal;font-size:medium;line-height:normal;font-family:sans-serif;font-variant-ligatures:normal;font-variant-position:normal;font-variant-caps:normal;font-variant-numeric:normal;font-variant-alternates:normal;font-variant-east-asian:normal;font-feature-settings:normal;font-variation-settings:normal;text-indent:0;text-align:start;text-decoration:none;text-decoration-line:none;text-decoration-style:solid;text-decoration-color:#000000;letter-spacing:normal;word-spacing:normal;text-transform:none;writing-mode:lr-tb;direction:ltr;text-orientation:mixed;dominant-baseline:auto;baseline-shift:baseline;text-anchor:start;white-space:normal;shape-padding:0;shape-margin:0;inline-size:0;clip-rule:nonzero;display:inline;overflow:visible;visibility:visible;isolation:auto;mix-blend-mode:normal;color-interpolation:sRGB;color-interpolation-filters:linearRGB;solid-color:#000000;solid-opacity:1;vector-effect:none;fill:#000000;fill-opacity:1;fill-rule:nonzero;stroke:none;stroke-width:5.32713;stroke-linecap:square;stroke-linejoin:round;stroke-miterlimit:4;stroke-dasharray:none;stroke-dashoffset:0;stroke-opacity:1;paint-order:stroke fill markers;color-rendering:auto;image-rendering:auto;shape-rendering:auto;text-rendering:auto;enable-background:accumulate;stop-color:#000000"
         d="m 188.2832,42.910156 a 2.6638382,2.6638382 0 0 0 -0.0449,0.002 2.6638382,2.6638382 0 0 0 -1.7832,0.773438 l -37.67383,37.671875 a 2.6638382,2.6638382 0 0 0 1.19141,4.455078 l 17.36718,4.654297 -7.24609,27.042976 a 2.6638382,2.6638382 0 0 0 4.45703,2.56835 l 37.67188,-37.66992 a 2.6638382,2.6638382 0 0 0 -1.20508,-4.457031 l -17.35156,-4.652344 7.24609,-27.033203 a 2.6638382,2.6638382 0 0 0 -2.62891,-3.355469 z"
         transform="scale(0.26458332)" />
      <path
         id="path2801"
         style="color:#000000;font-style:normal;font-variant:normal;font-weight:normal;font-stretch:normal;font-size:medium;line-height:normal;font-family:sans-serif;font-variant-ligatures:normal;font-variant-position:normal;font-variant-caps:normal;font-variant-numeric:normal;font-variant-alternates:normal;font-variant-east-asian:normal;font-feature-settings:normal;font-variation-settings:normal;text-indent:0;text-align:start;text-decoration:none;text-decoration-line:none;text-decoration-style:solid;text-decoration-color:#000000;letter-spacing:normal;word-spacing:normal;text-transform:none;writing-mode:lr-tb;direction:ltr;text-orientation:mixed;dominant-baseline:auto;baseline-shift:baseline;text-anchor:start;white-space:normal;shape-padding:0;shape-margin:0;inline-size:0;clip-rule:nonzero;display:inline;overflow:visible;visibility:visible;isolation:auto;mix-blend-mode:normal;color-interpolation:sRGB;color-interpolation-filters:linearRGB;solid-color:#000000;solid-opacity:1;vector-effect:none;fill:#000000;fill-opacity:1;fill-rule:nonzero;stroke:none;stroke-width:9.8524;stroke-linecap:butt;stroke-linejoin:round;stroke-miterlimit:4;stroke-dasharray:none;stroke-dashoffset:0;stroke-opacity:1;paint-order:stroke fill markers;color-rendering:auto;image-rendering:auto;shape-rendering:auto;text-rendering:auto;enable-background:accumulate;stop-color:#000000"
         d="m 160.56445,138.30664 a 4.9266914,4.9266914 0 0 0 -2.5039,0.6582 l -5.12305,2.95899 a 4.9266914,4.9266914 0 0 0 -2.46484,4.26758 v 8.07617 a 4.9266914,4.9266914 0 0 0 1.07422,3.06836 29.811836,29.811836 0 0 0 -1.86524,2.84179 29.811836,29.811836 0 0 0 -1.52539,3.03321 4.9266914,4.9266914 0 0 0 -0.97656,-0.0488 4.9266914,4.9266914 0 0 0 -2.21485,0.65625 l -7.0039,4.03906 a 4.9266914,4.9266914 0 0 0 -2.45899,4.26563 v 5.91992 a 4.9266914,4.9266914 0 0 0 2.45899,4.26758 l 7.0039,4.03711 a 4.9266914,4.9266914 0 0 0 3.18946,0.60546 29.811836,29.811836 0 0 0 3.39062,5.875 4.9266914,4.9266914 0 0 0 -1.07226,3.07227 v 8.07617 a 4.9266914,4.9266914 0 0 0 2.46484,4.26563 l 5.12305,2.96093 a 4.9266914,4.9266914 0 0 0 4.92383,0 l 7.00585,-4.0371 a 4.9266914,4.9266914 0 0 0 2.1211,-2.46485 29.811836,29.811836 0 0 0 6.77929,0 4.9266914,4.9266914 0 0 0 2.1211,2.46485 l 6.99805,4.0371 a 4.9266914,4.9266914 0 0 0 4.93164,0 l 5.12304,-2.96093 a 4.9266914,4.9266914 0 0 0 2.45703,-4.26563 v -8.07617 a 4.9266914,4.9266914 0 0 0 -1.07031,-3.06836 29.811836,29.811836 0 0 0 1.86719,-2.8418 29.811836,29.811836 0 0 0 1.52734,-3.03711 4.9266914,4.9266914 0 0 0 3.18946,-0.60546 l 6.99804,-4.03711 A 4.9266914,4.9266914 0 0 0 215.5,178.043 v -5.91992 a 4.9266914,4.9266914 0 0 0 -2.4668,-4.26563 l -6.99804,-4.03906 a 4.9266914,4.9266914 0 0 0 -2.41993,-0.65625 4.9266914,4.9266914 0 0 0 -0.76757,0.0547 29.811836,29.811836 0 0 0 -3.39844,-5.88282 4.9266914,4.9266914 0 0 0 1.07226,-3.0664 v -8.07617 a 4.9266914,4.9266914 0 0 0 -2.45703,-4.26758 l -5.12304,-2.95899 a 4.9266914,4.9266914 0 0 0 -2.42969,-0.6582 4.9266914,4.9266914 0 0 0 -2.50195,0.6582 l -6.99805,4.03711 a 4.9266914,4.9266914 0 0 0 -2.1211,2.46289 29.811836,29.811836 0 0 0 -6.77929,0 4.9266914,4.9266914 0 0 0 -2.1211,-2.46289 l -7.00585,-4.03711 a 4.9266914,4.9266914 0 0 0 -2.41993,-0.6582 z m 14.95313,27 a 9.7782825,9.7782523 30 0 1 4.85742,1.30078 9.7782825,9.7782523 30 0 1 0.0156,0.008 9.7782825,9.7782523 30 0 1 3.57813,13.35743 9.7782825,9.7782523 30 0 1 -13.35547,3.58007 9.7782825,9.7782523 30 0 1 -3.58008,-13.35742 9.7782825,9.7782523 30 0 1 8.48438,-4.88867 z"
         transform="scale(0.26458332)" />
      <g
         id="g2992"
         style="display:inline">
        <path
           id="path2856"
           style="display:inline;fill:#000000;stroke:none;stroke-width:7.65563;stroke-linecap:butt;stroke-linejoin:round;stroke-miterlimit:4;stroke-dasharray:none;paint-order:stroke fill markers"
           d="m 24.309214,23.264894 c -4.541644,-1.21693 -9.177238,1.459433 -10.394167,6.001073 l -0.807414,3.013315 -0.851391,3.17743 -0.851389,3.177431 c -1.6641547,6.210708 1.27418,12.357258 6.588282,13.781166 5.314101,1.42391 10.932049,-2.429991 12.596203,-8.640699 l 0.851391,-3.177431 0.851389,-3.17743 0.807415,-3.013314 C 34.316462,29.864794 31.640103,25.2292 27.098458,24.012269 l -1.394622,-0.373687 z" />
        <path
           style="fill:none;stroke:#000000;stroke-width:0.397224;stroke-linecap:butt;stroke-linejoin:round;stroke-miterlimit:4;stroke-dasharray:none;stroke-opacity:1;marker-end:url(#marker2934)"
           d="m 25.703835,23.63858 c 1.282277,-4.785519 5.839494,0.113754 4.137974,-6.236406 -0.732597,-4.550506 8.511144,3.035847 5.017474,-4.746418"
           id="path2930"
           sodipodi:nodetypes="ccc" />
      </g>
    </g>
    <g
       inkscape:groupmode="layer"
       id="layer6"
       inkscape:label="Overlap outline"
       style="display:none">
      <path
         id="path1153"
         style="color:#000000;font-style:normal;font-variant:normal;font-weight:normal;font-stretch:normal;font-size:medium;line-height:normal;font-family:sans-serif;font-variant-ligatures:normal;font-variant-position:normal;font-variant-caps:normal;font-variant-numeric:normal;font-variant-alternates:normal;font-variant-east-asian:normal;font-feature-settings:normal;font-variation-settings:normal;text-indent:0;text-align:start;text-decoration:none;text-decoration-line:none;text-decoration-style:solid;text-decoration-color:#000000;letter-spacing:normal;word-spacing:normal;text-transform:none;writing-mode:lr-tb;direction:ltr;text-orientation:mixed;dominant-baseline:auto;baseline-shift:baseline;text-anchor:start;white-space:normal;shape-padding:0;shape-margin:0;inline-size:0;clip-rule:nonzero;display:inline;overflow:visible;visibility:visible;isolation:auto;mix-blend-mode:normal;color-interpolation:sRGB;color-interpolation-filters:linearRGB;solid-color:#000000;solid-opacity:1;vector-effect:none;fill:#cccccc;fill-opacity:1;fill-rule:nonzero;stroke:none;stroke-width:1.40947;stroke-linecap:square;stroke-linejoin:round;stroke-miterlimit:4;stroke-dasharray:none;stroke-dashoffset:0;stroke-opacity:1;paint-order:stroke fill markers;color-rendering:auto;image-rendering:auto;shape-rendering:auto;text-rendering:auto;enable-background:accumulate;stop-color:#000000"
         d="m 46.193784,17.615025 a 0.70480715,0.70480522 0 0 0 -0.67629,0.520292 l -3.159386,11.791457 a 0.70480715,0.70480522 0 0 0 1.179149,0.679961 L 53.50451,20.639512 A 0.70480715,0.70480522 0 0 0 53.186094,19.460364 L 46.380979,17.63613 a 0.70480715,0.70480522 0 0 0 -0.187195,-0.0211 z" />
      <path
         id="path1698"
         style="color:#000000;font-style:normal;font-variant:normal;font-weight:normal;font-stretch:normal;font-size:medium;line-height:normal;font-family:sans-serif;font-variant-ligatures:normal;font-variant-position:normal;font-variant-caps:normal;font-variant-numeric:normal;font-variant-alternates:normal;font-variant-east-asian:normal;font-feature-settings:normal;font-variation-settings:normal;text-indent:0;text-align:start;text-decoration:none;text-decoration-line:none;text-decoration-style:solid;text-decoration-color:#000000;letter-spacing:normal;word-spacing:normal;text-transform:none;writing-mode:lr-tb;direction:ltr;text-orientation:mixed;dominant-baseline:auto;baseline-shift:baseline;text-anchor:start;white-space:normal;shape-padding:0;shape-margin:0;inline-size:0;clip-rule:nonzero;display:inline;overflow:visible;visibility:visible;isolation:auto;mix-blend-mode:normal;color-interpolation:sRGB;color-interpolation-filters:linearRGB;solid-color:#000000;solid-opacity:1;vector-effect:none;fill:#00ffff;fill-opacity:1;fill-rule:nonzero;stroke:none;stroke-width:1.40947;stroke-linecap:square;stroke-linejoin:round;stroke-miterlimit:4;stroke-dasharray:none;stroke-dashoffset:0;stroke-opacity:1;paint-order:stroke fill markers;color-rendering:auto;image-rendering:auto;shape-rendering:auto;text-rendering:auto;enable-background:accumulate;stop-color:#000000"
         d="m 46.193924,17.615192 a 0.70480714,0.70480521 0 0 0 -0.676445,0.520122 l -3.159395,11.791702 a 0.70480714,0.70480521 0 0 0 0.03354,0.457592 l 3.125855,-11.667213 a 0.70480714,0.70480521 0 0 1 0.676445,-0.520121 0.70480714,0.70480521 0 0 1 0.187017,0.02103 l 6.805371,1.824121 a 0.70480714,0.70480521 0 0 1 0.461004,0.38995 0.70480714,0.70480521 0 0 0 -0.461004,-0.972031 l -6.805371,-1.824121 a 0.70480714,0.70480521 0 0 0 -0.187017,-0.02103 z" />
      <path
         id="path1634"
         style="color:#000000;font-style:normal;font-variant:normal;font-weight:normal;font-stretch:normal;font-size:medium;line-height:normal;font-family:sans-serif;font-variant-ligatures:normal;font-variant-position:normal;font-variant-caps:normal;font-variant-numeric:normal;font-variant-alternates:normal;font-variant-east-asian:normal;font-feature-settings:normal;font-variation-settings:normal;text-indent:0;text-align:start;text-decoration:none;text-decoration-line:none;text-decoration-style:solid;text-decoration-color:#000000;letter-spacing:normal;word-spacing:normal;text-transform:none;writing-mode:lr-tb;direction:ltr;text-orientation:mixed;dominant-baseline:auto;baseline-shift:baseline;text-anchor:start;white-space:normal;shape-padding:0;shape-margin:0;inline-size:0;clip-rule:nonzero;display:inline;overflow:visible;visibility:visible;isolation:auto;mix-blend-mode:normal;color-interpolation:sRGB;color-interpolation-filters:linearRGB;solid-color:#000000;solid-opacity:1;vector-effect:none;fill:#00ffff;fill-opacity:1;fill-rule:nonzero;stroke:none;stroke-width:1.40947;stroke-linecap:square;stroke-linejoin:round;stroke-miterlimit:4;stroke-dasharray:none;stroke-dashoffset:0;stroke-opacity:1;paint-order:stroke fill markers;color-rendering:auto;image-rendering:auto;shape-rendering:auto;text-rendering:auto;enable-background:accumulate;stop-color:#000000"
         d="m 46.193924,17.615192 a 0.70480714,0.70480521 0 0 0 -0.676445,0.520122 l -3.159395,11.791702 a 0.70480714,0.70480521 0 0 0 0.971466,0.823098 0.70480714,0.70480521 0 0 1 -0.389382,-0.823098 l 3.159393,-11.791702 a 0.70480714,0.70480521 0 0 1 0.407573,-0.464983 l -0.126193,-0.03411 a 0.70480714,0.70480521 0 0 0 -0.187017,-0.02103 z" />
      <path
         id="path1162"
         style="color:#000000;font-style:normal;font-variant:normal;font-weight:normal;font-stretch:normal;font-size:medium;line-height:normal;font-family:sans-serif;font-variant-ligatures:normal;font-variant-position:normal;font-variant-caps:normal;font-variant-numeric:normal;font-variant-alternates:normal;font-variant-east-asian:normal;font-feature-settings:normal;font-variation-settings:normal;text-indent:0;text-align:start;text-decoration:none;text-decoration-line:none;text-decoration-style:solid;text-decoration-color:#000000;letter-spacing:normal;word-spacing:normal;text-transform:none;writing-mode:lr-tb;direction:ltr;text-orientation:mixed;dominant-baseline:auto;baseline-shift:baseline;text-anchor:start;white-space:normal;shape-padding:0;shape-margin:0;inline-size:0;clip-rule:nonzero;display:inline;overflow:visible;visibility:visible;isolation:auto;mix-blend-mode:normal;color-interpolation:sRGB;color-interpolation-filters:linearRGB;solid-color:#000000;solid-opacity:1;vector-effect:none;fill:#e6e6e6;fill-opacity:1;fill-rule:nonzero;stroke:none;stroke-width:1.40947;stroke-linecap:square;stroke-linejoin:round;stroke-miterlimit:4;stroke-dasharray:none;stroke-dashoffset:0;stroke-opacity:1;paint-order:stroke fill markers;color-rendering:auto;image-rendering:auto;shape-rendering:auto;text-rendering:auto;enable-background:accumulate;stop-color:#000000"
         d="m 49.804643,10.189616 a 0.70480715,0.70480522 0 0 0 -0.471661,0.20463 l -9.96817,9.967225 a 0.70480715,0.70480522 0 0 0 0.315664,1.179143 l 6.807866,1.824239 a 0.70480715,0.70480522 0 0 0 0.864404,-0.499187 l 3.159386,-11.788708 a 0.70480715,0.70480522 0 0 0 -0.707489,-0.887342 z" />
      <path
         id="path1659"
         style="color:#000000;font-style:normal;font-variant:normal;font-weight:normal;font-stretch:normal;font-size:medium;line-height:normal;font-family:sans-serif;font-variant-ligatures:normal;font-variant-position:normal;font-variant-caps:normal;font-variant-numeric:normal;font-variant-alternates:normal;font-variant-east-asian:normal;font-feature-settings:normal;font-variation-settings:normal;text-indent:0;text-align:start;text-decoration:none;text-decoration-line:none;text-decoration-style:solid;text-decoration-color:#000000;letter-spacing:normal;word-spacing:normal;text-transform:none;writing-mode:lr-tb;direction:ltr;text-orientation:mixed;dominant-baseline:auto;baseline-shift:baseline;text-anchor:start;white-space:normal;shape-padding:0;shape-margin:0;inline-size:0;clip-rule:nonzero;display:inline;overflow:visible;visibility:visible;isolation:auto;mix-blend-mode:normal;color-interpolation:sRGB;color-interpolation-filters:linearRGB;solid-color:#000000;solid-opacity:1;vector-effect:none;fill:#00ff00;fill-opacity:1;fill-rule:nonzero;stroke:none;stroke-width:1.40947;stroke-linecap:square;stroke-linejoin:round;stroke-miterlimit:4;stroke-dasharray:none;stroke-dashoffset:0;stroke-opacity:1;paint-order:stroke fill markers;color-rendering:auto;image-rendering:auto;shape-rendering:auto;text-rendering:auto;enable-background:accumulate;stop-color:#000000"
         d="m 47.906633,18.0455 -1.135743,4.238283 a 0.70480714,0.70480521 0 0 1 -0.864598,0.499089 l -1.524557,-0.408707 -0.106304,0.397907 2.212942,0.592881 a 0.70480714,0.70480521 0 0 0 0.864596,-0.499088 l 1.242612,-4.63619 z" />
      <path
         id="path1652"
         style="color:#000000;font-style:normal;font-variant:normal;font-weight:normal;font-stretch:normal;font-size:medium;line-height:normal;font-family:sans-serif;font-variant-ligatures:normal;font-variant-position:normal;font-variant-caps:normal;font-variant-numeric:normal;font-variant-alternates:normal;font-variant-east-asian:normal;font-feature-settings:normal;font-variation-settings:normal;text-indent:0;text-align:start;text-decoration:none;text-decoration-line:none;text-decoration-style:solid;text-decoration-color:#000000;letter-spacing:normal;word-spacing:normal;text-transform:none;writing-mode:lr-tb;direction:ltr;text-orientation:mixed;dominant-baseline:auto;baseline-shift:baseline;text-anchor:start;white-space:normal;shape-padding:0;shape-margin:0;inline-size:0;clip-rule:nonzero;display:inline;overflow:visible;visibility:visible;isolation:auto;mix-blend-mode:normal;color-interpolation:sRGB;color-interpolation-filters:linearRGB;solid-color:#000000;solid-opacity:1;vector-effect:none;fill:#00ff00;fill-opacity:1;fill-rule:nonzero;stroke:none;stroke-width:1.40947;stroke-linecap:square;stroke-linejoin:round;stroke-miterlimit:4;stroke-dasharray:none;stroke-dashoffset:0;stroke-opacity:1;paint-order:stroke fill markers;color-rendering:auto;image-rendering:auto;shape-rendering:auto;text-rendering:auto;enable-background:accumulate;stop-color:#000000"
         d="m 39.168564,20.97751 a 0.70480714,0.70480521 0 0 0 0.512164,0.563323 l 4.594706,1.23124 0.106305,-0.397908 z" />
      <path
         id="path1689"
         style="color:#000000;font-style:normal;font-variant:normal;font-weight:normal;font-stretch:normal;font-size:medium;line-height:normal;font-family:sans-serif;font-variant-ligatures:normal;font-variant-position:normal;font-variant-caps:normal;font-variant-numeric:normal;font-variant-alternates:normal;font-variant-east-asian:normal;font-feature-settings:normal;font-variation-settings:normal;text-indent:0;text-align:start;text-decoration:none;text-decoration-line:none;text-decoration-style:solid;text-decoration-color:#000000;letter-spacing:normal;word-spacing:normal;text-transform:none;writing-mode:lr-tb;direction:ltr;text-orientation:mixed;dominant-baseline:auto;baseline-shift:baseline;text-anchor:start;white-space:normal;shape-padding:0;shape-margin:0;inline-size:0;clip-rule:nonzero;display:inline;overflow:visible;visibility:visible;isolation:auto;mix-blend-mode:normal;color-interpolation:sRGB;color-interpolation-filters:linearRGB;solid-color:#000000;solid-opacity:1;vector-effect:none;fill:#00ff00;fill-opacity:1;fill-rule:nonzero;stroke:none;stroke-width:1.40947;stroke-linecap:square;stroke-linejoin:round;stroke-miterlimit:4;stroke-dasharray:none;stroke-dashoffset:0;stroke-opacity:1;paint-order:stroke fill markers;color-rendering:auto;image-rendering:auto;shape-rendering:auto;text-rendering:auto;enable-background:accumulate;stop-color:#000000"
         d="m 49.944495,10.198766 a 0.70480714,0.70480521 0 0 1 -0.01421,0.296157 l -2.023652,7.550577 0.688951,0.184175 1.916783,-7.15267 a 0.70480714,0.70480521 0 0 0 -0.567871,-0.878239 z" />
    </g>
    <g
       inkscape:groupmode="layer"
       id="g1939"
       inkscape:label="Full outline"
       style="display:inline">
      <path
         style="color:#000000;font-style:normal;font-variant:normal;font-weight:normal;font-stretch:normal;font-size:medium;line-height:normal;font-family:sans-serif;font-variant-ligatures:normal;font-variant-position:normal;font-variant-caps:normal;font-variant-numeric:normal;font-variant-alternates:normal;font-variant-east-asian:normal;font-feature-settings:normal;font-variation-settings:normal;text-indent:0;text-align:start;text-decoration:none;text-decoration-line:none;text-decoration-style:solid;text-decoration-color:#000000;letter-spacing:normal;word-spacing:normal;text-transform:none;writing-mode:lr-tb;direction:ltr;text-orientation:mixed;dominant-baseline:auto;baseline-shift:baseline;text-anchor:start;white-space:normal;shape-padding:0;shape-margin:0;inline-size:0;clip-rule:nonzero;display:inline;overflow:visible;visibility:visible;isolation:auto;mix-blend-mode:normal;color-interpolation:sRGB;color-interpolation-filters:linearRGB;solid-color:#000000;solid-opacity:1;vector-effect:none;fill:#00ffff;fill-opacity:1;fill-rule:nonzero;stroke:none;stroke-width:0.79375;stroke-linecap:square;stroke-linejoin:round;stroke-miterlimit:4;stroke-dasharray:none;stroke-dashoffset:0;stroke-opacity:1;paint-order:stroke fill markers;color-rendering:auto;image-rendering:auto;shape-rendering:auto;text-rendering:auto;enable-background:accumulate;stop-color:#000000"
         d="m 46.597656,17.632812 c -0.557818,-0.150268 -1.142364,0.187843 -1.291015,0.746094 l -2.9375,10.964844 c -0.181302,0.674118 0.359075,1.35083 1.05664,1.324219 0.264073,-0.01 0.515729,-0.118302 0.703125,-0.304688 a 0.39691468,0.39691468 0 0 0 0,-0.002 l 9.271485,-9.271484 c 0.559353,-0.559251 0.293243,-1.55477 -0.470703,-1.759766 z m -0.207031,0.767579 a 0.39691468,0.39691468 0 0 0 0.002,0 l 6.332031,1.695312 c 0.21075,0.05655 0.269543,0.279314 0.115235,0.433594 l -9.271485,9.269531 c -0.04628,0.04603 -0.106648,0.07382 -0.171875,0.07617 a 0.39691468,0.39691468 0 0 0 -0.002,0 c -0.185246,0.0071 -0.307912,-0.147152 -0.259765,-0.326172 l 2.939453,-10.964844 a 0.39691468,0.39691468 0 0 0 0,-0.002 c 0.03806,-0.142936 0.173581,-0.220115 0.316406,-0.18164 z"
         id="path1949" />
      <g
         id="g1911"
         transform="matrix(1.0327122,0.59623669,-0.59623669,1.0327122,41.041431,-18.204396)">
        <g
           id="g1903">
          <path
             id="path1891"
             style="fill:#cccccc;stroke:#b3b3b3;stroke-width:2.18603;stroke-linecap:butt;stroke-linejoin:round;stroke-miterlimit:4;stroke-dasharray:none;paint-order:stroke fill markers"
             d="m 29.77074,35.874154 -0.896556,1.552897 h 3.105792 l -0.896554,-1.552897 z" />
          <path
             id="path1893"
             style="fill:#cccccc;stroke:#b3b3b3;stroke-width:2.18603;stroke-linecap:butt;stroke-linejoin:round;stroke-miterlimit:4;stroke-dasharray:none;paint-order:stroke fill markers"
             d="m 29.77074,51.438344 -0.896556,-1.552897 h 3.105792 l -0.896554,1.552897 z" />
          <path
             id="path1895"
             style="fill:#cccccc;stroke:#b3b3b3;stroke-width:2.18603;stroke-linecap:butt;stroke-linejoin:round;stroke-miterlimit:4;stroke-dasharray:none;paint-order:stroke fill markers"
             d="m 36.838393,39.196809 -1.793126,8e-6 1.552896,2.689695 0.896571,-1.552887 z" />
          <path
             id="path1897"
             style="fill:#cccccc;stroke:#b3b3b3;stroke-width:2.18603;stroke-linecap:butt;stroke-linejoin:round;stroke-miterlimit:4;stroke-dasharray:none;paint-order:stroke fill markers"
             d="m 23.359409,46.978904 0.89657,-1.552889 1.552896,2.689695 -1.793125,1e-5 z" />
          <path
             id="path1899"
             style="fill:#cccccc;stroke:#b3b3b3;stroke-width:2.18603;stroke-linecap:butt;stroke-linejoin:round;stroke-miterlimit:4;stroke-dasharray:none;paint-order:stroke fill markers"
             d="m 37.494723,46.978898 -0.89657,-1.552889 -1.552896,2.689695 1.793125,10e-6 z" />
          <path
             id="path1901"
             style="fill:#cccccc;stroke:#b3b3b3;stroke-width:2.18603;stroke-linecap:butt;stroke-linejoin:round;stroke-miterlimit:4;stroke-dasharray:none;paint-order:stroke fill markers"
             d="m 24.015739,39.196803 1.793127,8e-6 -1.552897,2.689695 -0.896571,-1.552887 z" />
        </g>
        <g
           id="g1909">
          <path
             id="path1905"
             style="fill:#b3b3b3;stroke:none;stroke-width:4.82612;stroke-linecap:square;stroke-linejoin:round;stroke-miterlimit:4;stroke-dasharray:none;paint-order:stroke fill markers"
             d="M 114.83203,140 A 25,25 0 0 0 90,165 a 25,25 0 0 0 25,25 25,25 0 0 0 25,-25 25,25 0 0 0 -25,-25 25,25 0 0 0 -0.16797,0 z m 0.14844,15 a 10,10 0 0 1 0.0195,0 10,10 0 0 1 10,10 10,10 0 0 1 -10,10 10,10 0 0 1 -10,-10 10,10 0 0 1 9.98047,-10 z"
             transform="scale(0.26458332)" />
          <path
             id="path1907"
             style="fill:#e6e6e6;stroke:none;stroke-width:1.04722;stroke-linecap:square;stroke-linejoin:round;stroke-miterlimit:4;stroke-dasharray:none;paint-order:stroke fill markers"
             d="m 30.390652,38.232321 a 5.4239567,5.4239417 0 0 0 -5.387528,5.423949 5.4239567,5.4239417 0 0 0 5.423965,5.423933 5.4239567,5.4239417 0 0 0 5.423952,-5.423933 5.4239567,5.4239417 0 0 0 -5.423952,-5.423949 5.4239567,5.4239417 0 0 0 -0.03639,0 z m 0.03215,3.254358 a 2.1695833,2.1695766 0 0 1 0.0046,0 2.1695833,2.1695766 0 0 1 2.169583,2.169591 2.1695833,2.1695766 0 0 1 -2.169593,2.169562 2.1695833,2.1695766 0 0 1 -2.169584,-2.169562 2.1695833,2.1695766 0 0 1 2.165348,-2.169591 z" />
        </g>
      </g>
      <g
         id="g1931"
         transform="translate(-0.52916665)">
        <path
           style="fill:none;stroke:#00ff00;stroke-width:0.397224;stroke-linecap:butt;stroke-linejoin:round;stroke-miterlimit:4;stroke-dasharray:none;stroke-opacity:1;marker-end:url(#marker1773)"
           d="m 26.233002,22.580246 c 1.282277,-4.785519 5.839494,0.113754 4.137974,-6.236406 -0.732597,-4.550506 8.511144,3.035847 5.017474,-4.746418"
           id="path1915"
           sodipodi:nodetypes="ccc" />
        <g
           id="g1929">
          <path
             id="path1917"
             style="display:inline;opacity:1;fill:#e6e6e6;stroke:none;stroke-width:7.65563;stroke-linecap:butt;stroke-linejoin:round;stroke-miterlimit:4;stroke-dasharray:none;paint-order:stroke fill markers"
             d="m 24.838381,22.20656 c -4.541644,-1.21693 -9.177238,1.459433 -10.394167,6.001073 l -0.807414,3.013315 -0.851391,3.17743 -0.851389,3.177431 c -1.664155,6.210708 1.27418,12.357258 6.588282,13.781166 5.314101,1.42391 10.932049,-2.429991 12.596203,-8.640699 l 0.851391,-3.177431 0.851389,-3.17743 0.807415,-3.013314 C 34.845629,28.80646 32.16927,24.170866 27.627625,22.953935 l -1.394622,-0.373687 z" />
          <g
             id="g1927">
            <rect
               style="opacity:1;fill:#b3b3b3;stroke:none;stroke-width:2.14602;stroke-linecap:butt;stroke-linejoin:round;stroke-miterlimit:4;stroke-dasharray:none;paint-order:stroke fill markers"
               id="rect1919"
               width="0.59583724"
               height="3.5703096"
               x="30.885412"
               y="15.021247"
               ry="0"
               transform="rotate(15)" />
            <rect
               style="opacity:1;fill:#999999;stroke:none;stroke-width:5.84459;stroke-linecap:butt;stroke-linejoin:round;stroke-miterlimit:4;stroke-dasharray:none;paint-order:stroke fill markers"
               id="rect1921"
               width="19.86124"
               height="0.79444957"
               x="21.252712"
               y="26.930206"
               ry="0"
               transform="rotate(15)" />
            <rect
               style="opacity:1;fill:#999999;stroke:none;stroke-width:2.61473;stroke-linecap:butt;stroke-linejoin:round;stroke-miterlimit:4;stroke-dasharray:none;paint-order:stroke fill markers"
               id="rect1923"
               width="0.59583724"
               height="5.3002157"
               x="30.885412"
               y="-27.120125"
               ry="0"
               transform="matrix(0.96592583,0.25881905,0.25881905,-0.96592583,0,0)" />
            <rect
               style="opacity:1;fill:#808080;stroke:none;stroke-width:0.801887;stroke-linecap:butt;stroke-linejoin:round;stroke-miterlimit:4;stroke-dasharray:none;paint-order:stroke fill markers"
               id="rect1925"
               width="1.7875116"
               height="4.8460503"
               x="30.289576"
               y="18.015717"
               ry="0.6109755"
               transform="rotate(15)" />
          </g>
        </g>
      </g>
      <path
         style="color:#000000;font-style:normal;font-variant:normal;font-weight:normal;font-stretch:normal;font-size:medium;line-height:normal;font-family:sans-serif;font-variant-ligatures:normal;font-variant-position:normal;font-variant-caps:normal;font-variant-numeric:normal;font-variant-alternates:normal;font-variant-east-asian:normal;font-feature-settings:normal;font-variation-settings:normal;text-indent:0;text-align:start;text-decoration:none;text-decoration-line:none;text-decoration-style:solid;text-decoration-color:#000000;letter-spacing:normal;word-spacing:normal;text-transform:none;writing-mode:lr-tb;direction:ltr;text-orientation:mixed;dominant-baseline:auto;baseline-shift:baseline;text-anchor:start;white-space:normal;shape-padding:0;shape-margin:0;inline-size:0;clip-rule:nonzero;display:inline;overflow:visible;visibility:visible;isolation:auto;mix-blend-mode:normal;color-interpolation:sRGB;color-interpolation-filters:linearRGB;solid-color:#000000;solid-opacity:1;vector-effect:none;fill:#00ff00;fill-opacity:1;fill-rule:nonzero;stroke:none;stroke-width:0.79375;stroke-linecap:square;stroke-linejoin:round;stroke-miterlimit:4;stroke-dasharray:none;stroke-dashoffset:0;stroke-opacity:1;paint-order:stroke fill markers;color-rendering:auto;image-rendering:auto;shape-rendering:auto;text-rendering:auto;enable-background:accumulate;stop-color:#000000"
         d="m 49.433594,10.189453 c -0.264752,0.0095 -0.517244,0.119819 -0.705078,0.306641 l -9.271485,9.271484 c -0.559353,0.559251 -0.293244,1.55477 0.470703,1.759766 l 6.332032,1.697265 c 0.557282,0.150124 1.141671,-0.186848 1.291015,-0.74414 v -0.002 l 2.939453,-10.962891 v -0.002 c 0.179666,-0.673444 -0.359779,-1.350804 -1.05664,-1.324219 z m 0.0293,0.792969 c 0.185246,-0.0071 0.307912,0.147152 0.259765,0.326172 l -2.939453,10.966797 c -0.03806,0.142935 -0.173581,0.222068 -0.316406,0.183593 l -6.333985,-1.697265 c -0.210749,-0.05655 -0.269542,-0.279314 -0.115234,-0.433594 l 9.271484,-9.269531 c 0.04628,-0.04603 0.108602,-0.07382 0.173829,-0.07617 z"
         id="path1957" />
      <path
         style="color:#000000;font-style:normal;font-variant:normal;font-weight:normal;font-stretch:normal;font-size:medium;line-height:normal;font-family:sans-serif;font-variant-ligatures:normal;font-variant-position:normal;font-variant-caps:normal;font-variant-numeric:normal;font-variant-alternates:normal;font-variant-east-asian:normal;font-feature-settings:normal;font-variation-settings:normal;text-indent:0;text-align:start;text-decoration:none;text-decoration-line:none;text-decoration-style:solid;text-decoration-color:#000000;letter-spacing:normal;word-spacing:normal;text-transform:none;writing-mode:lr-tb;direction:ltr;text-orientation:mixed;dominant-baseline:auto;baseline-shift:baseline;text-anchor:start;white-space:normal;shape-padding:0;shape-margin:0;inline-size:0;clip-rule:nonzero;display:inline;overflow:visible;visibility:visible;isolation:auto;mix-blend-mode:normal;color-interpolation:sRGB;color-interpolation-filters:linearRGB;solid-color:#000000;solid-opacity:1;vector-effect:none;fill:#cccccc;fill-opacity:1;fill-rule:nonzero;stroke:none;stroke-width:0.79375;stroke-linecap:square;stroke-linejoin:round;stroke-miterlimit:4;stroke-dasharray:none;stroke-dashoffset:0;stroke-opacity:1;paint-order:stroke fill markers;color-rendering:auto;image-rendering:auto;shape-rendering:auto;text-rendering:auto;enable-background:accumulate;stop-color:#000000"
         d="m 43.410047,30.271522 c 0.164989,-0.0059 0.321662,-0.07391 0.438718,-0.19034 l 9.271983,-9.271129 c 0.356831,-0.356766 0.19373,-0.966018 -0.293618,-1.096792 l -6.332396,-1.696838 c -0.350321,-0.09437 -0.710676,0.113732 -0.804033,0.464325 L 42.751969,29.44615 c -0.114724,0.426569 0.216672,0.842211 0.658078,0.825372 z"
         id="path1951" />
      <path
         style="color:#000000;font-style:normal;font-variant:normal;font-weight:normal;font-stretch:normal;font-size:medium;line-height:normal;font-family:sans-serif;font-variant-ligatures:normal;font-variant-position:normal;font-variant-caps:normal;font-variant-numeric:normal;font-variant-alternates:normal;font-variant-east-asian:normal;font-feature-settings:normal;font-variation-settings:normal;text-indent:0;text-align:start;text-decoration:none;text-decoration-line:none;text-decoration-style:solid;text-decoration-color:#000000;letter-spacing:normal;word-spacing:normal;text-transform:none;writing-mode:lr-tb;direction:ltr;text-orientation:mixed;dominant-baseline:auto;baseline-shift:baseline;text-anchor:start;white-space:normal;shape-padding:0;shape-margin:0;inline-size:0;clip-rule:nonzero;display:inline;overflow:visible;visibility:visible;isolation:auto;mix-blend-mode:normal;color-interpolation:sRGB;color-interpolation-filters:linearRGB;solid-color:#000000;solid-opacity:1;vector-effect:none;fill:#e6e6e6;fill-opacity:1;fill-rule:nonzero;stroke:none;stroke-width:0.79375;stroke-linecap:square;stroke-linejoin:round;stroke-miterlimit:4;stroke-dasharray:none;stroke-dashoffset:0;stroke-opacity:1;paint-order:stroke fill markers;color-rendering:auto;image-rendering:auto;shape-rendering:auto;text-rendering:auto;enable-background:accumulate;stop-color:#000000"
         d="m 49.447945,10.586449 c -0.164989,0.0059 -0.321662,0.07391 -0.438718,0.19034 l -9.271983,9.271129 c -0.356831,0.356766 -0.19373,0.966018 0.293618,1.096792 l 6.332396,1.696838 c 0.350321,0.09437 0.710676,-0.113732 0.804033,-0.464325 l 2.938732,-10.965402 c 0.114724,-0.426569 -0.216672,-0.842211 -0.658078,-0.825372 z"
         id="path1959" />
      <path
         style="fill:none;stroke:#00ff00;stroke-width:0.397224;stroke-linecap:butt;stroke-linejoin:round;stroke-miterlimit:4;stroke-dasharray:none;stroke-opacity:1;marker-end:url(#marker2874)"
         d="m 25.703835,22.580246 c 1.282277,-4.785519 5.839494,0.113754 4.137974,-6.236406 -0.732597,-4.550506 8.511144,3.035847 5.017474,-4.746418"
         id="path2854"
         sodipodi:nodetypes="ccc" />
    </g>
  </g>
</svg>
