<?xml version="1.0" encoding="UTF-8" standalone="no"?>
<svg
   xmlns:dc="http://purl.org/dc/elements/1.1/"
   xmlns:cc="http://creativecommons.org/ns#"
   xmlns:rdf="http://www.w3.org/1999/02/22-rdf-syntax-ns#"
   xmlns:svg="http://www.w3.org/2000/svg"
   xmlns="http://www.w3.org/2000/svg"
   xmlns:sodipodi="http://sodipodi.sourceforge.net/DTD/sodipodi-0.dtd"
   xmlns:inkscape="http://www.inkscape.org/namespaces/inkscape"
   sodipodi:docname="org.gnome.Boxes.svg"
   inkscape:version="1.0.1 (3bc2e813f5, 2020-09-07)"
   id="svg8"
   version="1.1"
   viewBox="0 0 67.733332 67.733335"
   height="256"
   width="256">
  <defs
     id="defs2" />
  <sodipodi:namedview
     inkscape:window-maximized="1"
     inkscape:window-y="27"
     inkscape:window-x="2004"
     inkscape:window-height="1016"
     inkscape:window-width="1836"
     units="px"
     showgrid="false"
     inkscape:document-rotation="0"
     inkscape:current-layer="g5516"
     inkscape:document-units="px"
     inkscape:cy="203.0831"
     inkscape:cx="111.15936"
     inkscape:zoom="2.0000001"
     inkscape:pageshadow="2"
     inkscape:pageopacity="0.0"
     borderopacity="1.0"
     bordercolor="#666666"
     pagecolor="#ffffff"
     id="base" />
  <metadata
     id="metadata5">
    <rdf:RDF>
      <cc:Work
         rdf:about="">
        <dc:format>image/svg+xml</dc:format>
        <dc:type
           rdf:resource="http://purl.org/dc/dcmitype/StillImage" />
        <dc:title />
      </cc:Work>
    </rdf:RDF>
  </metadata>
  <g
     inkscape:label="Graphic"
     id="g5516"
     inkscape:groupmode="layer"
     style="display:inline">
    <g
       inkscape:groupmode="layer"
       id="layer1"
       inkscape:label="Shadow"
       style="display:inline;opacity:0.4">
      <rect
         style="display:inline;fill:#000000;stroke-width:1.33268;paint-order:stroke fill markers"
         id="rect960"
         width="56.885418"
         height="42.333229"
         x="-6.1207203e-08"
         y="21.733664"
         ry="5.8556614" />
    </g>
    <path
       id="path6940"
       style="fill:#00ff00;stroke-width:1.08783;paint-order:stroke fill markers"
       d="m 26.280573,10.256573 c -2.658157,0 -4.798052,2.139903 -4.798052,4.798068 v 25.091477 c 0,2.658147 2.139895,4.798059 4.798052,4.798059 h 36.653969 c 2.658153,0 4.798633,-2.139912 4.798633,-4.798059 V 15.054641 c 0,-2.658165 -2.14048,-4.798068 -4.798633,-4.798068 z m 1.832532,1.734574 H 61.102 c 2.392357,0 4.318209,1.925861 4.318209,4.318214 v 22.582028 c 0,2.392346 -1.925852,4.318787 -4.318209,4.318787 H 28.113105 c -2.392341,0 -4.318199,-1.926441 -4.318199,-4.318787 V 16.309361 c 0,-2.392353 1.925858,-4.318214 4.318199,-4.318214 z" />
    <path
       id="rect6461"
       style="fill:#00ff00;stroke-width:1.20865;paint-order:stroke fill markers"
       d="m 16.263373,15.53174 c -2.953513,0 -5.331184,2.377671 -5.331184,5.33119 v 27.879447 c 0,2.953506 2.377671,5.3312 5.331184,5.3312 h 40.726669 c 2.953504,0 5.331819,-2.377694 5.331819,-5.3312 V 20.86293 c 0,-2.953519 -2.378315,-5.33119 -5.331819,-5.33119 z m 2.036145,1.927324 h 36.654377 c 2.658165,0 4.798002,2.139844 4.798002,4.798006 v 25.091175 c 0,2.658147 -2.139837,4.798644 -4.798002,4.798644 H 18.299518 c -2.65816,0 -4.798005,-2.140497 -4.798005,-4.798644 V 22.25707 c 0,-2.658162 2.139845,-4.798006 4.798005,-4.798006 z" />
    <rect
       style="fill:#008000;stroke-width:1.33268;paint-order:stroke fill markers"
       id="rect5274"
       width="56.885418"
       height="42.333229"
       x="-6.1207203e-08"
       y="20.675329"
       ry="5.8556614" />
    <g
       id="g1131">
      <path
         id="rect5322"
         style="display:inline;fill:#ffff00;stroke-width:6.78183;paint-order:stroke fill markers"
         d="M 33.560547 100 C 32.851008 100 32.279297 100.57171 32.279297 101.28125 L 32.279297 104.86523 C 32.279297 105.57477 32.851008 106.14648 33.560547 106.14648 L 35.478516 106.14648 C 36.188054 106.14648 36.759766 105.57477 36.759766 104.86523 L 36.759766 101.28125 C 36.759766 100.57171 36.188054 100 35.478516 100 L 33.560547 100 z M 40.839844 100 C 40.130305 100 39.560547 100.57171 39.560547 101.28125 L 39.560547 104.86523 C 39.560547 105.57477 40.130305 106.14648 40.839844 106.14648 L 42.759766 106.14648 C 43.469304 106.14648 44.039062 105.57477 44.039062 104.86523 L 44.039062 101.28125 C 44.039062 100.57171 43.469304 100 42.759766 100 L 40.839844 100 z M 48.121094 100 C 47.411555 100 46.839844 100.57171 46.839844 101.28125 L 46.839844 104.86523 C 46.839844 105.57477 47.411555 106.14648 48.121094 106.14648 L 50.039062 106.14648 C 50.748601 106.14648 51.320313 105.57477 51.320312 104.86523 L 51.320312 101.28125 C 51.320312 100.57171 50.748601 100 50.039062 100 L 48.121094 100 z M 55.400391 100 C 54.690852 100 54.119141 100.57171 54.119141 101.28125 L 54.119141 104.86523 C 54.119141 105.57477 54.690852 106.14648 55.400391 106.14648 L 57.318359 106.14648 C 58.027898 106.14648 58.599609 105.57477 58.599609 104.86523 L 58.599609 101.28125 C 58.599609 100.57171 58.027898 100 57.318359 100 L 55.400391 100 z M 62.681641 100 C 61.972102 100 61.400391 100.57171 61.400391 101.28125 L 61.400391 104.86523 C 61.400391 105.57477 61.972102 106.14648 62.681641 106.14648 L 64.599609 106.14648 C 65.309148 106.14648 65.880859 105.57477 65.880859 104.86523 L 65.880859 101.28125 C 65.880859 100.57171 65.309148 100 64.599609 100 L 62.681641 100 z M 69.960938 100 C 69.251399 100 68.679688 100.57171 68.679688 101.28125 L 68.679688 104.86523 C 68.679688 105.57477 69.251399 106.14648 69.960938 106.14648 L 71.878906 106.14648 C 72.588445 106.14648 73.160156 105.57477 73.160156 104.86523 L 73.160156 101.28125 C 73.160156 100.57171 72.588445 100 71.878906 100 L 69.960938 100 z M 77.240234 100 C 76.530696 100 75.960937 100.57171 75.960938 101.28125 L 75.960938 104.86523 C 75.960938 105.57477 76.530696 106.14648 77.240234 106.14648 L 79.160156 106.14648 C 79.869695 106.14648 80.439453 105.57477 80.439453 104.86523 L 80.439453 101.28125 C 80.439453 100.57171 79.869695 100 79.160156 100 L 77.240234 100 z M 84.521484 100 C 83.811946 100 83.240234 100.57171 83.240234 101.28125 L 83.240234 104.86523 C 83.240234 105.57477 83.811946 106.14648 84.521484 106.14648 L 86.439453 106.14648 C 87.148991 106.14648 87.720703 105.57477 87.720703 104.86523 L 87.720703 101.28125 C 87.720703 100.57171 87.148991 100 86.439453 100 L 84.521484 100 z M 33.560547 158.85352 C 32.851008 158.85352 32.279297 159.42523 32.279297 160.13477 L 32.279297 163.71875 C 32.279297 164.42829 32.851008 165 33.560547 165 L 35.478516 165 C 36.188054 165 36.759766 164.42829 36.759766 163.71875 L 36.759766 160.13477 C 36.759766 159.42523 36.188054 158.85352 35.478516 158.85352 L 33.560547 158.85352 z M 40.839844 158.85352 C 40.130305 158.85352 39.560547 159.42523 39.560547 160.13477 L 39.560547 163.71875 C 39.560547 164.42829 40.130305 165 40.839844 165 L 42.759766 165 C 43.469304 165 44.039062 164.42829 44.039062 163.71875 L 44.039062 160.13477 C 44.039062 159.42523 43.469304 158.85352 42.759766 158.85352 L 40.839844 158.85352 z M 48.121094 158.85352 C 47.411555 158.85352 46.839844 159.42523 46.839844 160.13477 L 46.839844 163.71875 C 46.839844 164.42829 47.411555 165 48.121094 165 L 50.039062 165 C 50.748601 165 51.320312 164.42829 51.320312 163.71875 L 51.320312 160.13477 C 51.320313 159.42523 50.748601 158.85352 50.039062 158.85352 L 48.121094 158.85352 z M 55.400391 158.85352 C 54.690852 158.85352 54.119141 159.42523 54.119141 160.13477 L 54.119141 163.71875 C 54.119141 164.42829 54.690852 165 55.400391 165 L 57.318359 165 C 58.027898 165 58.599609 164.42829 58.599609 163.71875 L 58.599609 160.13477 C 58.599609 159.42523 58.027898 158.85352 57.318359 158.85352 L 55.400391 158.85352 z M 62.681641 158.85352 C 61.972102 158.85352 61.400391 159.42523 61.400391 160.13477 L 61.400391 163.71875 C 61.400391 164.42829 61.972102 165 62.681641 165 L 64.599609 165 C 65.309148 165 65.880859 164.42829 65.880859 163.71875 L 65.880859 160.13477 C 65.880859 159.42523 65.309148 158.85352 64.599609 158.85352 L 62.681641 158.85352 z M 69.960938 158.85352 C 69.251399 158.85352 68.679688 159.42523 68.679688 160.13477 L 68.679688 163.71875 C 68.679688 164.42829 69.251399 165 69.960938 165 L 71.878906 165 C 72.588445 165 73.160156 164.42829 73.160156 163.71875 L 73.160156 160.13477 C 73.160156 159.42523 72.588445 158.85352 71.878906 158.85352 L 69.960938 158.85352 z M 77.240234 158.85352 C 76.530696 158.85352 75.960938 159.42523 75.960938 160.13477 L 75.960938 163.71875 C 75.960937 164.42829 76.530696 165 77.240234 165 L 79.160156 165 C 79.869695 165 80.439453 164.42829 80.439453 163.71875 L 80.439453 160.13477 C 80.439453 159.42523 79.869695 158.85352 79.160156 158.85352 L 77.240234 158.85352 z M 84.521484 158.85352 C 83.811946 158.85352 83.240234 159.42523 83.240234 160.13477 L 83.240234 160.9043 L 83.240234 163.71875 C 83.240234 164.42829 83.811946 165 84.521484 165 L 86.439453 165 C 87.148991 165 87.720703 164.42829 87.720703 163.71875 L 87.720703 160.9043 L 87.720703 160.13477 C 87.720703 159.42523 87.148991 158.85352 86.439453 158.85352 L 84.521484 158.85352 z "
         transform="scale(0.26458333)" />
      <rect
         style="fill:#333333;stroke-width:1.93052;paint-order:stroke fill markers"
         id="rect5400"
         width="18.520834"
         height="14.690213"
         x="6.6145825"
         y="27.707001"
         ry="1.2580451" />
    </g>
    <g
       id="g1368">
      <path
         id="rect5404"
         style="display:inline;fill:#ffff00;stroke-width:9.0336;paint-order:stroke fill markers"
         d="M 111.71484 109.65039 C 110.76515 109.65039 110 110.41554 110 111.36523 L 110 113.875 C 110 114.82469 110.76515 115.58984 111.71484 115.58984 L 116.51367 115.58984 C 117.46337 115.58984 118.22656 114.82469 118.22656 113.875 L 118.22656 111.36523 C 118.22656 110.41554 117.46337 109.65039 116.51367 109.65039 L 111.71484 109.65039 z M 190.48633 109.65039 C 189.53664 109.65039 188.77344 110.41554 188.77344 111.36523 L 188.77344 113.875 C 188.77344 114.82469 189.53664 115.58984 190.48633 115.58984 L 195.28516 115.58984 C 196.23485 115.58984 197 114.82469 197 113.875 L 197 111.36523 C 197 110.41554 196.23485 109.65039 195.28516 109.65039 L 190.48633 109.65039 z M 111.71484 119.30078 C 110.76515 119.30078 110 120.06593 110 121.01562 L 110 123.52539 C 110 124.47508 110.76515 125.24023 111.71484 125.24023 L 116.51367 125.24023 C 117.46337 125.24023 118.22656 124.47508 118.22656 123.52539 L 118.22656 121.01562 C 118.22656 120.06593 117.46337 119.30078 116.51367 119.30078 L 111.71484 119.30078 z M 190.48633 119.30078 C 189.53664 119.30078 188.77344 120.06593 188.77344 121.01562 L 188.77344 123.52539 C 188.77344 124.47508 189.53664 125.24023 190.48633 125.24023 L 195.28516 125.24023 C 196.23485 125.24023 197 124.47508 197 123.52539 L 197 121.01562 C 197 120.06593 196.23485 119.30078 195.28516 119.30078 L 190.48633 119.30078 z M 111.71484 128.95117 C 110.76515 128.95117 110 129.71633 110 130.66602 L 110 133.17578 C 110 134.12547 110.76515 134.89062 111.71484 134.89062 L 116.51367 134.89062 C 117.46337 134.89062 118.22656 134.12547 118.22656 133.17578 L 118.22656 130.66602 C 118.22656 129.71633 117.46337 128.95117 116.51367 128.95117 L 111.71484 128.95117 z M 190.48633 128.95117 C 189.53664 128.95117 188.77344 129.71633 188.77344 130.66602 L 188.77344 133.17578 C 188.77344 134.12547 189.53664 134.89062 190.48633 134.89062 L 195.28516 134.89062 C 196.23485 134.89062 197 134.12547 197 133.17578 L 197 130.66602 C 197 129.71633 196.23485 128.95117 195.28516 128.95117 L 190.48633 128.95117 z M 111.71484 138.60156 C 110.76515 138.60156 110 139.36672 110 140.31641 L 110 142.82617 C 110 143.77587 110.76515 144.54102 111.71484 144.54102 L 116.51367 144.54102 C 117.46337 144.54102 118.22656 143.77587 118.22656 142.82617 L 118.22656 140.31641 C 118.22656 139.36672 117.46337 138.60156 116.51367 138.60156 L 111.71484 138.60156 z M 190.48633 138.60156 C 189.53664 138.60156 188.77344 139.36672 188.77344 140.31641 L 188.77344 142.82617 C 188.77344 143.77587 189.53664 144.54102 190.48633 144.54102 L 195.28516 144.54102 C 196.23485 144.54102 197 143.77587 197 142.82617 L 197 140.31641 C 197 139.36672 196.23485 138.60156 195.28516 138.60156 L 190.48633 138.60156 z M 111.71484 148.25391 C 110.76515 148.25391 110 149.0171 110 149.9668 L 110 152.47852 C 110 153.42821 110.76515 154.19141 111.71484 154.19141 L 116.51367 154.19141 C 117.46337 154.19141 118.22656 153.42821 118.22656 152.47852 L 118.22656 149.9668 C 118.22656 149.0171 117.46337 148.25391 116.51367 148.25391 L 111.71484 148.25391 z M 190.48633 148.25391 C 189.53664 148.25391 188.77344 149.0171 188.77344 149.9668 L 188.77344 152.47852 C 188.77344 153.42821 189.53664 154.19141 190.48633 154.19141 L 195.28516 154.19141 C 196.23485 154.19141 197 153.42821 197 152.47852 L 197 149.9668 C 197 149.0171 196.23485 148.25391 195.28516 148.25391 L 190.48633 148.25391 z M 111.71484 157.9043 C 110.76515 157.9043 110 158.6675 110 159.61719 L 110 162.12891 C 110 163.0786 110.76515 163.8418 111.71484 163.8418 L 116.51367 163.8418 C 117.46337 163.8418 118.22656 163.0786 118.22656 162.12891 L 118.22656 159.61719 C 118.22656 158.6675 117.46337 157.9043 116.51367 157.9043 L 111.71484 157.9043 z M 190.48633 157.9043 C 189.53664 157.9043 188.77344 158.6675 188.77344 159.61719 L 188.77344 162.12891 C 188.77344 163.0786 189.53664 163.8418 190.48633 163.8418 L 195.28516 163.8418 C 196.23485 163.8418 197 163.0786 197 162.12891 L 197 159.61719 C 197 158.6675 196.23485 157.9043 195.28516 157.9043 L 190.48633 157.9043 z M 111.71484 167.55469 C 110.76515 167.55469 110 168.31788 110 169.26758 L 110 171.7793 C 110 172.72899 110.76515 173.49219 111.71484 173.49219 L 116.51367 173.49219 C 117.46337 173.49219 118.22656 172.72899 118.22656 171.7793 L 118.22656 169.26758 C 118.22656 168.31788 117.46337 167.55469 116.51367 167.55469 L 111.71484 167.55469 z M 190.48633 167.55469 C 189.53664 167.55469 188.77344 168.31788 188.77344 169.26758 L 188.77344 171.7793 C 188.77344 172.72899 189.53664 173.49219 190.48633 173.49219 L 195.28516 173.49219 C 196.23485 173.49219 197 172.72899 197 171.7793 L 197 169.26758 C 197 168.31788 196.23485 167.55469 195.28516 167.55469 L 190.48633 167.55469 z M 111.71484 177.20508 C 110.76515 177.20508 110 177.97023 110 178.91992 L 110 181.42969 C 110 182.37938 110.76515 183.14453 111.71484 183.14453 L 116.51367 183.14453 C 117.46337 183.14453 118.22656 182.37938 118.22656 181.42969 L 118.22656 178.91992 C 118.22656 177.97023 117.46337 177.20508 116.51367 177.20508 L 111.71484 177.20508 z M 190.48633 177.20508 C 189.53664 177.20508 188.77344 177.97023 188.77344 178.91992 L 188.77344 181.42969 C 188.77344 182.37938 189.53664 183.14453 190.48633 183.14453 L 191.51953 183.14453 L 195.28516 183.14453 C 196.23485 183.14453 197 182.37938 197 181.42969 L 197 178.91992 C 197 177.97023 196.23485 177.20508 195.28516 177.20508 L 191.51953 177.20508 L 190.48633 177.20508 z "
         transform="scale(0.26458333)" />
      <rect
         style="fill:#333333;stroke-width:2.57151;paint-order:stroke fill markers"
         id="rect5482"
         width="24.55179"
         height="19.662285"
         x="26.458334"
         y="-50.451626"
         ry="1.683845"
         transform="rotate(90)" />
      <path
         id="path5486"
         style="fill:#ffffff;fill-rule:nonzero;stroke:none;stroke-width:0.475706;stroke-miterlimit:4"
         d="M 171.56836 118.28516 C 159.85884 118.28516 157.66274 134.94531 164.25 134.94531 C 170.83631 134.94531 183.27836 118.28516 171.56836 118.28516 z M 153.47656 120.32617 C 153.29062 120.32553 153.09467 120.33853 152.88867 120.36523 C 146.29903 121.21962 148.61623 132.66691 152.125 132.88086 C 155.52273 133.08813 159.24066 120.34601 153.47656 120.32617 z M 142.26367 124.85938 C 141.86098 124.83311 141.41247 124.91255 140.91602 125.11719 C 135.61955 127.30047 140.11296 136.31276 143.08008 135.70703 C 145.77119 135.15895 146.15636 125.11328 142.26367 124.85938 z M 133.61914 131.91992 C 133.15864 131.90444 132.66108 132.05613 132.13086 132.42188 C 127.89103 135.34829 133.55629 142.41866 136.05078 141.32227 C 138.23347 140.3625 136.84263 132.02829 133.61914 131.91992 z M 157.83203 137.32812 C 148.74239 137.17451 136.75187 141.73119 134.70703 150.87891 C 132.4924 160.77832 143.82369 174.51172 155.64648 174.51172 C 161.46269 174.51172 168.17068 169.26502 169.42578 162.61914 C 170.38436 157.55128 158.14615 159.58215 158.58594 162.93555 C 159.11282 166.95503 155.63347 168.94083 152.22656 166.34961 C 141.38091 158.10097 170.18375 153.98599 168.28516 142.7168 C 167.69419 139.20902 163.28582 137.42029 157.83203 137.32812 z "
         transform="scale(0.26458333)" />
    </g>
    <g
       id="g5310"
       transform="matrix(2.7368421,0,0,2.7777779,-73.554168,-67.174779)">
      <g
         id="g5298">
        <g
           id="g5294"
           transform="translate(1.0583333,-0.52916667)">
          <circle
             style="fill:#333333;stroke-width:0.339435;paint-order:stroke fill markers"
             id="circle5290"
             cx="30.294792"
             cy="43.52396"
             r="1.190625" />
          <circle
             style="fill:#4d4d4d;stroke-width:0.245146;paint-order:stroke fill markers"
             id="circle5292"
             cx="30.294792"
             cy="43.52396"
             r="0.85989583" />
        </g>
        <path
           sodipodi:type="star"
           style="fill:#333333;stroke-width:0.630002;paint-order:stroke fill markers"
           id="path5296"
           sodipodi:sides="3"
           sodipodi:cx="31.353125"
           sodipodi:cy="42.10968"
           sodipodi:r1="0.30551451"
           sodipodi:r2="0.15275726"
           sodipodi:arg1="-1.5707963"
           sodipodi:arg2="-0.52359878"
           inkscape:flatsided="true"
           inkscape:rounded="0"
           inkscape:randomized="0"
           inkscape:transform-center-y="-0.044097311"
           transform="matrix(0.50000001,0,0,0.57735027,15.676562,17.721437)"
           d="m 31.353125,41.804166 0.264583,0.458271 -0.529167,0 z" />
      </g>
      <g
         id="g5308"
         transform="translate(2.6458334)">
        <g
           id="g5304"
           transform="translate(1.0583333,-0.52916667)">
          <circle
             style="fill:#333333;stroke-width:0.339435;paint-order:stroke fill markers"
             id="circle5300"
             cx="30.294792"
             cy="43.52396"
             r="1.190625" />
          <circle
             style="fill:#4d4d4d;stroke-width:0.245146;paint-order:stroke fill markers"
             id="circle5302"
             cx="30.294792"
             cy="43.52396"
             r="0.85989583" />
        </g>
        <path
           sodipodi:type="star"
           style="fill:#333333;stroke-width:0.630002;paint-order:stroke fill markers"
           id="path5306"
           sodipodi:sides="3"
           sodipodi:cx="31.353125"
           sodipodi:cy="42.10968"
           sodipodi:r1="0.30551451"
           sodipodi:r2="0.15275726"
           sodipodi:arg1="-1.5707963"
           sodipodi:arg2="-0.52359878"
           inkscape:flatsided="true"
           inkscape:rounded="0"
           inkscape:randomized="0"
           inkscape:transform-center-y="-0.044097311"
           transform="matrix(0.50000001,0,0,0.57735027,15.676562,17.721437)"
           d="m 31.353125,41.804166 0.264583,0.458271 -0.529167,0 z" />
      </g>
    </g>
    <rect
       style="fill:#999999;fill-opacity:1;stroke-width:0.336976;stroke-miterlimit:4;stroke-dasharray:none;paint-order:stroke fill markers"
       id="rect5969"
       width="9.8183861"
       height="3.9231889"
       x="35.70433"
       y="53.22681"
       ry="1.9615945" />
    <g
       id="g6215"
       transform="matrix(1.2414291,0,0,1.2318026,-21.945329,-6.0852986)">
      <g
         id="g6183"
         transform="translate(39.101957)">
        <ellipse
           style="fill:#cccccc;fill-opacity:1;stroke-width:0.14388;stroke-miterlimit:4;stroke-dasharray:none;paint-order:stroke fill markers"
           id="ellipse5512"
           cx="21.343174"
           cy="25.390574"
           rx="0.61093289"
           ry="0.61103523" />
        <path
           id="path5514"
           style="fill:#999999;fill-opacity:1;stroke-width:0.14388;stroke-miterlimit:4;stroke-dasharray:none;paint-order:stroke fill markers"
           d="m 21.334869,24.779661 a 0.61093291,0.61103521 0 0 0 -0.09389,0.0084 v 0.485841 H 20.74355 a 0.61093291,0.61103521 0 0 0 -0.01119,0.116666 0.61093291,0.61103521 0 0 0 0.0064,0.0879 h 0.502223 v 0.514609 a 0.61093291,0.61103521 0 0 0 0.102282,0.0084 0.61093291,0.61103521 0 0 0 0.102283,-0.0084 v -0.51461 h 0.502223 a 0.61093291,0.61103521 0 0 0 0.0064,-0.0879 0.61093291,0.61103521 0 0 0 -0.01159,-0.116666 H 21.445543 V 24.78845 a 0.61093291,0.61103521 0 0 0 -0.102283,-0.0088 0.61093291,0.61103521 0 0 0 -0.0084,0 z" />
      </g>
      <g
         id="g6189"
         transform="translate(39.101957,27.646326)">
        <ellipse
           style="fill:#cccccc;fill-opacity:1;stroke-width:0.14388;stroke-miterlimit:4;stroke-dasharray:none;paint-order:stroke fill markers"
           id="ellipse6185"
           cx="21.343174"
           cy="25.390574"
           rx="0.61093289"
           ry="0.61103523" />
        <path
           id="path6187"
           style="fill:#999999;fill-opacity:1;stroke-width:0.14388;stroke-miterlimit:4;stroke-dasharray:none;paint-order:stroke fill markers"
           d="m 21.334869,24.779661 a 0.61093291,0.61103521 0 0 0 -0.09389,0.0084 v 0.485841 H 20.74355 a 0.61093291,0.61103521 0 0 0 -0.01119,0.116666 0.61093291,0.61103521 0 0 0 0.0064,0.0879 h 0.502223 v 0.514609 a 0.61093291,0.61103521 0 0 0 0.102282,0.0084 0.61093291,0.61103521 0 0 0 0.102283,-0.0084 v -0.51461 h 0.502223 a 0.61093291,0.61103521 0 0 0 0.0064,-0.0879 0.61093291,0.61103521 0 0 0 -0.01159,-0.116666 H 21.445543 V 24.78845 a 0.61093291,0.61103521 0 0 0 -0.102283,-0.0088 0.61093291,0.61103521 0 0 0 -0.0084,0 z" />
      </g>
      <g
         id="g6195"
         transform="translate(-2.0209765e-5)">
        <ellipse
           style="fill:#cccccc;fill-opacity:1;stroke-width:0.14388;stroke-miterlimit:4;stroke-dasharray:none;paint-order:stroke fill markers"
           id="ellipse6191"
           cx="21.343174"
           cy="25.390574"
           rx="0.61093289"
           ry="0.61103523" />
        <path
           id="path6193"
           style="fill:#999999;fill-opacity:1;stroke-width:0.14388;stroke-miterlimit:4;stroke-dasharray:none;paint-order:stroke fill markers"
           d="m 21.334869,24.779661 a 0.61093291,0.61103521 0 0 0 -0.09389,0.0084 v 0.485841 H 20.74355 a 0.61093291,0.61103521 0 0 0 -0.01119,0.116666 0.61093291,0.61103521 0 0 0 0.0064,0.0879 h 0.502223 v 0.514609 a 0.61093291,0.61103521 0 0 0 0.102282,0.0084 0.61093291,0.61103521 0 0 0 0.102283,-0.0084 v -0.51461 h 0.502223 a 0.61093291,0.61103521 0 0 0 0.0064,-0.0879 0.61093291,0.61103521 0 0 0 -0.01159,-0.116666 H 21.445543 V 24.78845 a 0.61093291,0.61103521 0 0 0 -0.102283,-0.0088 0.61093291,0.61103521 0 0 0 -0.0084,0 z" />
      </g>
      <g
         id="g6201"
         transform="translate(-2.0209765e-5,27.646326)">
        <ellipse
           style="fill:#cccccc;fill-opacity:1;stroke-width:0.14388;stroke-miterlimit:4;stroke-dasharray:none;paint-order:stroke fill markers"
           id="ellipse6197"
           cx="21.343174"
           cy="25.390574"
           rx="0.61093289"
           ry="0.61103523" />
        <path
           id="path6199"
           style="fill:#999999;fill-opacity:1;stroke-width:0.14388;stroke-miterlimit:4;stroke-dasharray:none;paint-order:stroke fill markers"
           d="m 21.334869,24.779661 a 0.61093291,0.61103521 0 0 0 -0.09389,0.0084 v 0.485841 H 20.74355 a 0.61093291,0.61103521 0 0 0 -0.01119,0.116666 0.61093291,0.61103521 0 0 0 0.0064,0.0879 h 0.502223 v 0.514609 a 0.61093291,0.61103521 0 0 0 0.102282,0.0084 0.61093291,0.61103521 0 0 0 0.102283,-0.0084 v -0.51461 h 0.502223 a 0.61093291,0.61103521 0 0 0 0.0064,-0.0879 0.61093291,0.61103521 0 0 0 -0.01159,-0.116666 H 21.445543 V 24.78845 a 0.61093291,0.61103521 0 0 0 -0.102283,-0.0088 0.61093291,0.61103521 0 0 0 -0.0084,0 z" />
      </g>
    </g>
    <path
       id="rect964"
       style="display:inline;opacity:0.1;fill:#ffffff;stroke-width:1.33268;paint-order:stroke fill markers"
       d="M 5.9014583,20.675224 C 2.6320671,20.675224 0,23.286879 0,26.530915 v 1.046189 C 0,24.333068 2.6320671,21.721412 5.9014583,21.721412 H 50.983801 c 3.269391,0 5.901457,2.611656 5.901457,5.855692 v -1.046189 c 0,-3.244036 -2.632066,-5.855691 -5.901457,-5.855691 z" />
  </g>
</svg>
