<?xml version="1.0" encoding="UTF-8" standalone="no"?>
<svg
   sodipodi:docname="org.gnome.gitlab.somas.Apostrophe.svg"
   id="svg8"
   version="1.1"
   viewBox="0 0 67.733332 67.733335"
   height="256"
   width="256"
   xmlns:inkscape="http://www.inkscape.org/namespaces/inkscape"
   xmlns:sodipodi="http://sodipodi.sourceforge.net/DTD/sodipodi-0.dtd"
   xmlns="http://www.w3.org/2000/svg"
   xmlns:svg="http://www.w3.org/2000/svg">
  <defs
     id="defs2" />
  <sodipodi:namedview
     inkscape:window-maximized="1"
     inkscape:window-y="27"
     inkscape:window-x="1920"
     inkscape:window-height="1016"
     inkscape:window-width="1920"
     units="px"
     showgrid="false"
     inkscape:document-rotation="0"
     inkscape:current-layer="g1156"
     inkscape:document-units="px"
     inkscape:cy="138.0626"
     inkscape:cx="145.84077"
     inkscape:zoom="2.8284271"
     inkscape:pageshadow="2"
     inkscape:pageopacity="0.0"
     borderopacity="1.0"
     bordercolor="#666666"
     pagecolor="#ffffff"
     id="base"
     inkscape:pagecheckerboard="0"
     inkscape:showpageshadow="2"
     inkscape:deskcolor="#d1d1d1" />
  <g
     inkscape:groupmode="layer"
     id="layer1"
     inkscape:label="Background"
     style="display:inline">
    <g
       inkscape:label="Shadow"
       id="layer10"
       inkscape:groupmode="layer"
       style="display:inline;opacity:0.4">
      <rect
         style="display:inline;opacity:1;fill:#000000;stroke:none;stroke-width:0.0838588;stroke-linecap:round;stroke-linejoin:round;paint-order:stroke markers fill"
         id="rect1196"
         width="59.266666"
         height="46.566666"
         x="4.2333331"
         y="11.641665"
         ry="9.3488445" />
    </g>
    <g
       style="display:inline"
       inkscape:label="Colour"
       id="g1174"
       inkscape:groupmode="layer">
      <rect
         style="opacity:1;fill:#f2f2f2;stroke:none;stroke-width:0.0838588;stroke-linecap:round;stroke-linejoin:round;paint-order:stroke markers fill"
         id="rect864"
         width="59.266666"
         height="46.566666"
         x="4.2333331"
         y="10.583333"
         ry="9.3488445" />
    </g>
    <g
       inkscape:groupmode="layer"
       id="layer2"
       inkscape:label="Highlight"
       style="display:inline;opacity:0.1">
      <path
         id="rect1217"
         style="display:inline;opacity:1;fill:#ffffff;stroke:none;stroke-width:0.316947;stroke-linecap:round;stroke-linejoin:round;paint-order:stroke markers fill"
         d="M 51.333984,40 C 31.758829,40 16,55.758829 16,75.333984 v 4 C 16,59.758829 31.758829,44 51.333984,44 H 204.66602 C 224.24117,44 240,59.758829 240,79.333984 v -4 C 240,55.758829 224.24117,40 204.66602,40 Z"
         transform="scale(0.26458333)" />
    </g>
  </g>
  <g
     inkscape:label="Graphic"
     id="g1156"
     inkscape:groupmode="layer"
     style="display:inline">
    <g
       id="g5592">
      <path
         id="path2011"
         style="display:inline;opacity:0.65;fill:#ff6600;fill-opacity:1;stroke:none;stroke-width:0.040449;stroke-linecap:round;stroke-linejoin:round;paint-order:stroke markers fill"
         d="m 48.558275,30.691666 c -1.689799,0 -3.049942,1.360144 -3.049942,3.049943 v 2.366782 c 0,1.689799 1.360143,3.049942 3.049942,3.049942 h 2.366782 c 1.689799,0 3.049942,-1.360143 3.049942,-3.049942 v -2.366782 c 0,-1.689799 -1.360143,-3.049943 -3.049942,-3.049943 z"
         sodipodi:nodetypes="sssssssss" />
      <path
         id="rect1299"
         style="display:inline;opacity:0.5;fill:#000000;stroke:none;stroke-width:0.040449;stroke-linecap:round;stroke-linejoin:round;paint-order:stroke markers fill"
         d="m 11.51661,18.520833 c -1.6898002,0 -3.0499434,1.360144 -3.0499434,3.049943 v 2.366781 c 0,1.6898 1.3601432,3.049943 3.0499434,3.049943 h 2.36678 c 1.6898,0 3.049943,-1.360143 3.049943,-3.049943 v -2.366781 c 0,-1.689799 -1.360143,-3.049943 -3.049943,-3.049943 z m 10.583333,0 c -1.6898,0 -3.049943,1.360144 -3.049943,3.049943 v 2.366781 c 0,1.6898 1.360143,3.049943 3.049943,3.049943 h 2.36678 c 1.6898,0 3.049943,-1.360143 3.049943,-3.049943 v -2.366781 c 0,-1.689799 -1.360143,-3.049943 -3.049943,-3.049943 z m 10.583332,0 c -1.689799,0 -3.049942,1.360144 -3.049942,3.049943 v 2.366781 c 0,1.6898 1.360143,3.049943 3.049942,3.049943 h 2.366783 C 36.739856,26.9875 38.1,25.627357 38.1,23.937557 v -2.366781 c 0,-1.689799 -1.360144,-3.049943 -3.049942,-3.049943 z m 10.583333,0 c -1.689798,0 -3.049942,1.360144 -3.049942,3.049943 v 2.366781 c 0,1.6898 1.360144,3.049943 3.049942,3.049943 h 2.366783 c 1.689798,0 3.049942,-1.360143 3.049942,-3.049943 v -2.366781 c 0,-1.689799 -1.360144,-3.049943 -3.049942,-3.049943 z m 10.583333,0 c -1.689798,0 -3.049942,1.360144 -3.049942,3.049943 v 2.366781 c 0,1.6898 1.360144,3.049943 3.049942,3.049943 h 2.366783 c 1.689798,0 3.049942,-1.360143 3.049942,-3.049943 v -2.366781 c 0,-1.689799 -1.360144,-3.049943 -3.049942,-3.049943 z M 16.808276,30.691666 c -1.689799,0 -3.049943,1.360144 -3.049943,3.049943 v 2.366782 c 0,1.689799 1.360144,3.049942 3.049943,3.049942 h 2.366781 c 1.689799,0 3.049943,-1.360143 3.049943,-3.049942 v -2.366782 c 0,-1.689799 -1.360144,-3.049943 -3.049943,-3.049943 z m 10.583332,0 c -1.689798,0 -3.049942,1.360144 -3.049942,3.049943 v 2.366782 c 0,1.689799 1.360144,3.049942 3.049942,3.049942 h 2.366783 c 1.689798,0 3.049942,-1.360143 3.049942,-3.049942 v -2.366782 c 0,-1.689799 -1.360144,-3.049943 -3.049942,-3.049943 z m 10.583334,0 c -1.689799,0 -3.049942,1.360144 -3.049942,3.049943 v 2.366782 c 0,1.689799 1.360143,3.049942 3.049942,3.049942 h 2.366782 c 1.689799,0 3.049942,-1.360143 3.049942,-3.049942 v -2.366782 c 0,-1.689799 -1.360143,-3.049943 -3.049942,-3.049943 z M 10.72286,43.127083 c -1.6898002,0 -3.0499434,1.360144 -3.0499434,3.049942 v 2.366783 c 0,1.689798 1.3601432,3.049942 3.0499434,3.049942 h 2.36678 c 1.6898,0 3.049943,-1.360144 3.049943,-3.049942 v -2.366783 c 0,-1.689798 -1.360143,-3.049942 -3.049943,-3.049942 z m 10.583333,0 c -1.6898,0 -3.049943,1.360144 -3.049943,3.049942 v 2.366783 c 0,1.689798 1.360143,3.049942 3.049943,3.049942 h 25.120948 c 1.689798,0 3.049942,-1.360144 3.049942,-3.049942 v -2.366783 c 0,-1.689798 -1.360144,-3.049942 -3.049942,-3.049942 z m 33.337498,0 c -1.689798,0 -3.049942,1.360144 -3.049942,3.049942 v 2.366783 c 0,1.689798 1.360144,3.049942 3.049942,3.049942 h 2.366783 c 1.689798,0 3.049942,-1.360144 3.049942,-3.049942 v -2.366783 c 0,-1.689798 -1.360144,-3.049942 -3.049942,-3.049942 z"
         sodipodi:nodetypes="sssssssssssssssssssssssssssssssssssssssssssssssssssssssssssssssssssssssssssssssssssssssssssssssssss" />
    </g>
    <g
       id="g5598">
      <rect
         style="display:inline;fill:#b3b3b3;stroke:none;stroke-width:0.0404489;stroke-linecap:round;stroke-linejoin:round;paint-order:stroke markers fill"
         id="rect866"
         width="31.220831"
         height="8.4666662"
         x="18.25625"
         y="42.068756"
         ry="3.0501804" />
      <path
         id="rect872"
         style="display:inline;fill:#4d4d4d;stroke:none;stroke-width:0.079612;stroke-linecap:round;stroke-linejoin:round;paint-order:stroke markers fill"
         d="M 43.527344,66 C 37.140699,66 32,71.140699 32,77.527344 v 8.945312 C 32,92.859301 37.140699,98 43.527344,98 h 8.945312 C 58.859301,98 64,92.859301 64,86.472656 V 77.527344 C 64,71.140699 58.859301,66 52.472656,66 Z m 40,0 C 77.140699,66 72,71.140699 72,77.527344 v 8.945312 C 72,92.859301 77.140699,98 83.527344,98 h 8.945312 C 98.859301,98 104,92.859301 104,86.472656 V 77.527344 C 104,71.140699 98.859301,66 92.472656,66 Z m 39.999996,0 C 117.1407,66 112,71.140699 112,77.527344 v 8.945312 C 112,92.859301 117.1407,98 123.52734,98 h 8.94532 C 138.8593,98 144,92.859301 144,86.472656 V 77.527344 C 144,71.140699 138.8593,66 132.47266,66 Z m 40,0 C 157.1407,66 152,71.140699 152,77.527344 v 8.945312 C 152,92.859301 157.1407,98 163.52734,98 h 8.94532 C 178.8593,98 184,92.859301 184,86.472656 V 77.527344 C 184,71.140699 178.8593,66 172.47266,66 Z m 40,0 C 197.1407,66 192,71.140699 192,77.527344 v 8.945312 C 192,92.859301 197.1407,98 203.52734,98 h 8.94532 C 218.8593,98 224,92.859301 224,86.472656 V 77.527344 C 224,71.140699 218.8593,66 212.47266,66 Z M 63.527344,112 C 57.140701,112 52,117.1407 52,123.52734 v 8.94532 C 52,138.8593 57.140701,144 63.527344,144 h 8.945312 C 78.859299,144 84,138.8593 84,132.47266 v -8.94532 C 84,117.1407 78.859299,112 72.472656,112 Z m 39.999996,0 C 97.140701,112 92,117.1407 92,123.52734 v 8.94532 C 92,138.8593 97.140701,144 103.52734,144 h 8.94532 C 118.8593,144 124,138.8593 124,132.47266 v -8.94532 C 124,117.1407 118.8593,112 112.47266,112 Z m 40,0 C 137.1407,112 132,117.1407 132,123.52734 v 8.94532 C 132,138.8593 137.1407,144 143.52734,144 h 8.94532 C 158.8593,144 164,138.8593 164,132.47266 v -8.94532 C 164,117.1407 158.8593,112 152.47266,112 Z M 40.527344,159 C 34.140699,159 29,164.1407 29,170.52734 v 8.94532 C 29,185.8593 34.140699,191 40.527344,191 h 8.945312 C 55.859301,191 61,185.8593 61,179.47266 v -8.94532 C 61,164.1407 55.859301,159 49.472656,159 Z m 165.999996,0 C 200.1407,159 195,164.1407 195,170.52734 v 8.94532 C 195,185.8593 200.1407,191 206.52734,191 h 8.94532 C 221.8593,191 227,185.8593 227,179.47266 v -8.94532 C 227,164.1407 221.8593,159 215.47266,159 Z"
         transform="scale(0.26458333)" />
      <rect
         style="display:inline;fill:#ff6600;stroke:none;stroke-width:0.021064;stroke-linecap:round;stroke-linejoin:round;paint-order:stroke markers fill"
         id="rect884"
         width="8.4666662"
         height="8.4666653"
         x="45.508335"
         y="29.633335"
         ry="3.0501792" />
    </g>
  </g>
</svg>
