<?xml version="1.0" encoding="UTF-8" standalone="no"?>
<svg
   sodipodi:docname="org.gnome.TextEditor.svg"
   id="svg8"
   version="1.1"
   viewBox="0 0 67.733332 67.733335"
   height="256"
   width="256"
   xmlns:inkscape="http://www.inkscape.org/namespaces/inkscape"
   xmlns:sodipodi="http://sodipodi.sourceforge.net/DTD/sodipodi-0.dtd"
   xmlns="http://www.w3.org/2000/svg"
   xmlns:svg="http://www.w3.org/2000/svg">
  <defs
     id="defs2" />
  <sodipodi:namedview
     inkscape:window-maximized="1"
     inkscape:window-y="27"
     inkscape:window-x="1920"
     inkscape:window-height="1016"
     inkscape:window-width="1920"
     units="px"
     showgrid="false"
     inkscape:document-rotation="0"
     inkscape:current-layer="layer3"
     inkscape:document-units="px"
     inkscape:cy="131.25"
     inkscape:cx="129"
     inkscape:zoom="2"
     inkscape:pageshadow="2"
     inkscape:pageopacity="0.0"
     borderopacity="1.0"
     bordercolor="#666666"
     pagecolor="#ffffff"
     id="base"
     inkscape:pagecheckerboard="0"
     inkscape:showpageshadow="2"
     inkscape:deskcolor="#d1d1d1" />
  <g
     inkscape:groupmode="layer"
     id="layer1"
     inkscape:label="Background"
     style="display:inline">
    <g
       inkscape:label="Shadow"
       id="layer10"
       inkscape:groupmode="layer"
       style="display:inline;opacity:0.4">
      <path
         id="path4072"
         style="display:inline;opacity:1;fill:#000000;fill-opacity:1;stroke-width:0.0246944;stroke-miterlimit:4;stroke-dasharray:none;paint-order:stroke fill markers"
         d="m 11.112515,60.095055 c 0,2.765598 2.22686,4.99246 4.99246,4.99246 12.193915,0 24.387831,0 36.581746,0 2.7656,0 4.99246,-2.226862 4.99246,-4.99246 V 10.813309 c 0,-2.7656006 -2.22686,-4.9924606 -4.99246,-4.9924606 -12.193915,0 -24.387831,0 -36.581746,0 -2.7656,0 -4.99246,2.22686 -4.99246,4.9924606 z"
         sodipodi:nodetypes="sccssccss" />
    </g>
    <g
       style="display:inline"
       inkscape:label="Colour"
       id="g1174"
       inkscape:groupmode="layer">
      <path
         id="path1156"
         style="display:inline;opacity:1;fill:#f9f9f9;fill-opacity:1;stroke-width:0.0246944;stroke-miterlimit:4;stroke-dasharray:none;paint-order:stroke fill markers"
         d="m 11.112515,59.036721 c 0,2.765598 2.22686,4.99246 4.99246,4.99246 12.193915,0 24.387831,0 36.581746,0 2.7656,0 4.99246,-2.226862 4.99246,-4.99246 V 9.754975 c 0,-2.7656 -2.22686,-4.99246 -4.99246,-4.99246 -12.193915,0 -24.387831,0 -36.581746,0 -2.7656,0 -4.99246,2.22686 -4.99246,4.99246 z"
         sodipodi:nodetypes="sccssccss" />
    </g>
  </g>
  <g
     inkscape:groupmode="layer"
     id="layer5"
     inkscape:label="Graphic">
    <g
       inkscape:groupmode="layer"
       id="layer4"
       inkscape:label="Lines">
      <path
         id="rect4272"
         style="display:inline;fill:#cccccc;stroke-width:0.393514;stroke-linecap:round;stroke-linejoin:round"
         d="M 15.875 15.875 L 15.875 18.520833 L 44.979167 18.520833 L 44.979167 15.875 L 15.875 15.875 z M 15.875 20.6375 L 15.875 23.283333 L 42.333333 23.283333 L 42.333333 20.6375 L 15.875 20.6375 z M 15.875 25.4 L 15.875 28.045833 L 35.71875 28.045833 L 35.71875 25.4 L 15.875 25.4 z M 15.875 30.1625 L 15.875 32.808333 L 38.364583 32.808333 L 38.364583 30.1625 L 15.875 30.1625 z M 15.875 38.1 L 15.875 40.745833 L 39.6875 40.745833 L 39.6875 38.1 L 15.875 38.1 z M 15.875 42.8625 L 15.875 45.508333 L 42.333333 45.508333 L 42.333333 42.8625 L 15.875 42.8625 z M 15.875 47.625 L 15.875 50.270833 L 35.71875 50.270833 L 35.71875 47.625 L 15.875 47.625 z M 15.875 52.3875 L 15.875 55.033333 L 31.75 55.033333 L 31.75 52.3875 L 15.875 52.3875 z " />
    </g>
    <g
       inkscape:groupmode="layer"
       id="layer3"
       inkscape:label="Pencil"
       transform="rotate(135,44.562667,35.787695)">
      <path
         id="path8870"
         style="opacity:0.4;fill:#000000;fill-opacity:1;stroke-width:0.0941366;stroke-linecap:round;stroke-linejoin:round"
         d="m 23.757313,39.401371 c 0.128535,0.132487 0.293942,0.211937 0.474299,0.211937 13.422029,5.4e-5 26.844057,2.33e-4 40.266086,3.65e-4 l 4.10645,-2.416075 v -3.105964 l -4.10645,-2.416075 c -13.422029,7e-5 -26.844057,3.66e-4 -40.266086,3.66e-4 -0.412244,0 -0.744336,0.414657 -0.744335,0.929962 v 6.077458 c 0,0.289859 0.104778,0.547686 0.270036,0.718026 z m 44.846835,-2.203773 3.66e-4,3.66e-4 2.640069,-1.553348 -2.639704,-1.552982 z"
         sodipodi:nodetypes="sccccccsssccccc" />
      <g
         id="g8868"
         transform="rotate(-135,39.624832,19.716751)">
        <path
           id="path8834"
           style="fill:#ff91e9;fill-opacity:1;stroke-width:0.0941366;stroke-linecap:round;stroke-linejoin:round"
           d="m 34.160484,-4.015262 c 0.760048,-0.7600475 1.520094,-1.520095 2.280141,-2.2801426 0.291502,-0.2915007 0.819547,-0.2328294 1.183923,0.1315472 l 4.297192,4.2971919 c 0.364376,0.3643755 0.423047,0.89241978 0.131546,1.18392049 -0.760048,0.76004756 -1.520095,1.52009513 -2.280143,2.28014261 -1.870887,-1.87088651 -3.741772,-3.7417719 -5.612659,-5.6126596 z"
           sodipodi:nodetypes="ccssccc" />
        <g
           id="g8840"
           transform="matrix(1.1098819,0.00122934,0.00122934,1.1098819,-26.953118,-25.943583)">
          <path
             id="path8836"
             style="opacity:1;fill:#f5c5a2;fill-opacity:1;stroke-width:0.291042;stroke-linecap:round;stroke-linejoin:round"
             inkscape:transform-center-x="2.1213204e-06"
             inkscape:transform-center-y="-1.0142386"
             d="m 188.16492,71.796041 -4.66516,8.080873 h 15.32948 l -4.66516,-8.080873 z"
             transform="matrix(-0.32952153,-0.32952153,0.32412851,-0.32412851,71.044021,134.73073)" />
          <path
             sodipodi:type="star"
             style="opacity:1;fill:#4d4d4d;fill-opacity:1;stroke-width:0.291042;stroke-linecap:round;stroke-linejoin:round"
             id="path8838"
             inkscape:flatsided="true"
             sodipodi:sides="3"
             sodipodi:cx="191.16463"
             sodipodi:cy="75.451157"
             sodipodi:r1="8.8504801"
             sodipodi:r2="4.42524"
             sodipodi:arg1="-1.5707963"
             sodipodi:arg2="-0.52359878"
             inkscape:rounded="0"
             inkscape:randomized="0"
             d="m 191.16463,66.600677 7.66474,13.27572 -15.32948,-10e-7 z"
             transform="matrix(-0.12894321,-0.12894321,0.12683289,-0.12683289,45.840563,83.247228)"
             inkscape:transform-center-y="-0.39687639" />
        </g>
        <g
           id="g8848"
           transform="matrix(1.1200684,-0.00896386,-0.00896386,1.1200684,-26.710844,-26.362287)">
          <rect
             style="fill:#ff5151;fill-opacity:1;stroke-width:0.156264;stroke-linecap:round;stroke-linejoin:round"
             id="rect8842"
             width="2.6458333"
             height="32.808334"
             x="52.960148"
             y="-8.6807728"
             transform="matrix(0.70710678,0.70710678,0.70710678,-0.70710678,0,0)" />
          <rect
             style="fill:#ff2828;fill-opacity:1;stroke-width:0.156264;stroke-linecap:round;stroke-linejoin:round"
             id="rect8844"
             width="2.6458333"
             height="32.808334"
             x="57.458107"
             y="-8.6807728"
             transform="matrix(0.70710678,0.70710678,0.70710678,-0.70710678,0,0)" />
          <rect
             style="fill:#ff4141;fill-opacity:1;stroke-width:0.148246;stroke-linecap:round;stroke-linejoin:round"
             id="rect8846"
             width="2.3812499"
             height="32.808334"
             x="55.341454"
             y="-8.6807728"
             transform="matrix(0.70710678,0.70710678,0.70710678,-0.70710678,0,0)" />
        </g>
      </g>
    </g>
    <g
       inkscape:groupmode="layer"
       id="layer2"
       inkscape:label="Header"
       style="display:inline;opacity:1">
      <path
         id="path4096"
         style="display:inline;opacity:1;fill:#0076e4;fill-opacity:1;stroke-width:0.0246944;stroke-miterlimit:4;stroke-dasharray:none;paint-order:stroke fill markers"
         d="m 16.10496,4.7625 c -2.765597,0 -4.99246,2.2268629 -4.99246,4.9924601 V 11.377083 H 57.679167 V 9.7549601 c 0,-2.7655972 -2.226863,-4.9924601 -4.99246,-4.9924601 z" />
      <path
         id="path4076"
         style="display:inline;opacity:0.1;fill:#ffffff;fill-opacity:1;stroke-width:0.0246944;stroke-miterlimit:4;stroke-dasharray:none;paint-order:stroke fill markers"
         d="m 16.10496,4.7625001 c -2.765597,0 -4.99246,2.2268629 -4.99246,4.9924601 v 1.0583338 c 0,-2.7655977 2.226863,-4.9924606 4.99246,-4.9924606 h 36.581747 c 2.765597,0 4.99246,2.2268629 4.99246,4.9924606 V 9.7549602 c 0,-2.7655972 -2.226863,-4.9924601 -4.99246,-4.9924601 z" />
    </g>
  </g>
</svg>
