<?xml version="1.0" encoding="UTF-8" standalone="no"?>
<svg
   xmlns:dc="http://purl.org/dc/elements/1.1/"
   xmlns:cc="http://creativecommons.org/ns#"
   xmlns:rdf="http://www.w3.org/1999/02/22-rdf-syntax-ns#"
   xmlns:svg="http://www.w3.org/2000/svg"
   xmlns="http://www.w3.org/2000/svg"
   xmlns:sodipodi="http://sodipodi.sourceforge.net/DTD/sodipodi-0.dtd"
   xmlns:inkscape="http://www.inkscape.org/namespaces/inkscape"
   sodipodi:docname="org.gnome.Glade-symbolic.svg"
   inkscape:version="1.0.2 (e86c870879, 2021-01-15)"
   id="svg8"
   version="1.1"
   viewBox="0 0 4.2333333 4.2333334"
   height="16"
   width="16">
  <defs
     id="defs2" />
  <sodipodi:namedview
     inkscape:window-maximized="1"
     inkscape:window-y="27"
     inkscape:window-x="1920"
     inkscape:window-height="1016"
     inkscape:window-width="1920"
     units="px"
     showgrid="false"
     inkscape:document-rotation="0"
     inkscape:current-layer="layer1"
     inkscape:document-units="px"
     inkscape:cy="13.808977"
     inkscape:cx="9.0529048"
     inkscape:zoom="11.313709"
     inkscape:pageshadow="2"
     inkscape:pageopacity="0.0"
     borderopacity="1.0"
     bordercolor="#666666"
     pagecolor="#ffffff"
     id="base" />
  <metadata
     id="metadata5">
    <rdf:RDF>
      <cc:Work
         rdf:about="">
        <dc:format>image/svg+xml</dc:format>
        <dc:type
           rdf:resource="http://purl.org/dc/dcmitype/StillImage" />
        <dc:title></dc:title>
      </cc:Work>
    </rdf:RDF>
  </metadata>
  <g
     inkscape:label="Icon"
     id="g1156"
     inkscape:groupmode="layer"
     style="display:none">
    <path
       id="rect1168"
       style="display:inline;fill:#1a9dff;fill-opacity:1;stroke-width:0.00176389;stroke-miterlimit:4;stroke-dasharray:none;paint-order:stroke fill markers"
       d="M 0.3566043,0 C 0.1590615,0 0,0.159061 0,0.356604 v 0.85292 0.907143 0.852919 C 0,3.167129 0.1590615,3.32619 0.3566043,3.32619 h 3.5201248 c 0.1975428,0 0.3566043,-0.159061 0.3566043,-0.356604 V 2.116667 1.209524 0.356604 C 4.2333334,0.159061 4.0742719,0 3.8767291,0 Z" />
    <path
       id="path1159"
       style="display:inline;opacity:0.1;fill:#ffffff;fill-opacity:1;stroke-width:0.00176389;stroke-miterlimit:4;stroke-dasharray:none;paint-order:stroke fill markers"
       d="M 0.3566043,0 C 0.1590615,0 0,0.159061 0,0.356604 v 0.0756 C 0,0.234661 0.1590615,0.075599 0.3566043,0.075599 h 3.5201248 c 0.1975428,0 0.3566043,0.159062 0.3566043,0.356605 v -0.0756 C 4.2333334,0.159061 4.0742719,0 3.8767291,0 Z" />
    <g
       id="g1176"
       transform="matrix(0.07142857,0,0,0.07142857,-0.302381,-1.058333)">
      <path
         id="rect867"
         style="opacity:0.5;fill:#ffffff;stroke:none;stroke-width:3.54048;stroke-linecap:round;stroke-linejoin:round;stroke-miterlimit:4;stroke-dasharray:none;paint-order:markers fill stroke"
         d="M 39.173828,66 C 38.523401,66 38,66.523401 38,67.173828 V 71 77 80.826172 C 38,81.476599 38.523401,82 39.173828,82 h 3.652344 C 43.476599,82 44,81.476599 44,80.826172 V 77 h 168 v 3.826172 C 212,81.476599 212.5234,82 213.17383,82 h 3.65234 C 217.4766,82 218,81.476599 218,80.826172 V 77 71 67.173828 C 218,66.523401 217.4766,66 216.82617,66 h -3.65234 C 212.5234,66 212,66.523401 212,67.173828 V 71 H 44 V 67.173828 C 44,66.523401 43.476599,66 42.826172,66 Z"
         transform="scale(0.26458333)" />
      <path
         id="rect861"
         style="opacity:0.5;fill:#ffffff;stroke:none;stroke-width:3.54048;stroke-linecap:round;stroke-linejoin:round;stroke-miterlimit:4;stroke-dasharray:none;paint-order:markers fill stroke"
         d="M 223.17383,84 C 222.5234,84 222,84.523401 222,85.173828 v 3.652344 C 222,89.476599 222.5234,90 223.17383,90 H 227 v 20 h -3.82617 C 222.5234,110 222,110.5234 222,111.17383 v 3.65234 C 222,115.4766 222.5234,116 223.17383,116 H 227 h 6 3.82617 C 237.4766,116 238,115.4766 238,114.82617 v -3.65234 C 238,110.5234 237.4766,110 236.82617,110 H 233 V 90 h 3.82617 C 237.4766,90 238,89.476599 238,88.826172 V 85.173828 C 238,84.523401 237.4766,84 236.82617,84 H 233 227 Z"
         transform="scale(0.26458333)" />
      <path
         id="rect881"
         style="opacity:0.5;fill:#ffffff;stroke:none;stroke-width:3.54048;stroke-linecap:round;stroke-linejoin:round;stroke-miterlimit:4;stroke-dasharray:none;paint-order:markers fill stroke"
         d="M 21.173828,84 C 20.523401,84 20,84.523401 20,85.173828 v 3.652344 C 20,89.476599 20.523401,90 21.173828,90 H 25 V 198 H 21.173828 C 20.523401,198 20,198.5234 20,199.17383 v 3.65234 C 20,203.4766 20.523401,204 21.173828,204 H 25 31 34.826172 C 35.476599,204 36,203.4766 36,202.82617 v -3.65234 C 36,198.5234 35.476599,198 34.826172,198 H 31 V 90 h 3.826172 C 35.476599,90 36,89.476599 36,88.826172 V 85.173828 C 36,84.523401 35.476599,84 34.826172,84 H 31 25 Z"
         transform="scale(0.26458333)" />
    </g>
  </g>
  <g
     inkscape:groupmode="layer"
     id="layer1"
     inkscape:label="Icon 1"
     style="display:inline">
    <g
       id="g882"
       transform="translate(0.79784747,-2.6326532)"
       style="display:inline;stroke-width:0.13229167;stroke-miterlimit:4;stroke-dasharray:none">
      <path
         id="path869"
         style="fill:#808080;fill-opacity:1;stroke:none;stroke-width:0.50000001;stroke-linecap:round;stroke-linejoin:round;stroke-miterlimit:4;stroke-dasharray:none;paint-order:markers fill stroke"
         d="M 12.222656,13.759766 -1.0917969,24.220703 H 12.222656 Z m -1.40039,2.96289 v 6.097656 H 3.0605469 Z"
         transform="scale(0.26458333)" />
      <path
         id="path871"
         style="fill:#ffffff;stroke:none;stroke-width:0.13229167;stroke-linecap:round;stroke-linejoin:round;stroke-miterlimit:4;stroke-dasharray:none;paint-order:markers fill stroke"
         d="M 0.97855916,6.2572616 V 6.4084521 H 1.0541544 V 6.2572616 Z m 0.94494044,0 v 0.1511905 h 0.075595 V 6.2572616 Z m 0.9449404,0 V 6.4084521 H 2.944035 V 6.2572616 Z m -2.64583318,0.037798 v 0.1133929 h 0.0755952 V 6.2950592 Z m 0.18898806,0 v 0.1133929 h 0.0755953 V 6.2950592 Z m 0.18898814,0 v 0.1133929 h 0.0755952 V 6.2950592 Z m 0.18898807,0 V 6.4084521 H 0.8651663 V 6.2950592 Z m 0.37797621,0 v 0.1133929 h 0.075595 V 6.2950592 Z m 0.1889881,0 v 0.1133929 h 0.075595 V 6.2950592 Z m 0.188988,0 v 0.1133929 h 0.075595 V 6.2950592 Z m 0.1889882,0 v 0.1133929 h 0.075595 V 6.2950592 Z m 0.3779761,0 v 0.1133929 h 0.075595 V 6.2950592 Z m 0.1889881,0 v 0.1133929 h 0.075595 V 6.2950592 Z m 0.1889881,0 v 0.1133929 h 0.075595 V 6.2950592 Z m 0.1889881,0 V 6.4084525 H 2.755047 V 6.2950592 Z m 0.3779762,0 v 0.1133929 h 0.075595 V 6.2950592 Z" />
    </g>
    <path
       style="display:inline;fill:#808080;fill-opacity:1;stroke-width:0.37565;stroke-linecap:round;stroke-linejoin:round;paint-order:markers fill stroke"
       d="m 4.9628906,8.2148438 c -0.079143,0 -0.1425781,0.063435 -0.1425781,0.1425781 C 4.8203125,8.4365652 4.8837473,8.5 4.9628906,8.5 H 8.8632812 L 9.2265625,8.2148438 Z"
       transform="scale(0.26458333)"
       id="path964" />
    <path
       style="display:inline;fill:#808080;fill-opacity:1;stroke-width:0.37565;stroke-linecap:round;stroke-linejoin:round;paint-order:markers fill stroke"
       d="m 13.589844,7.2792969 -1.054688,0.828125 V 9.5 h -1.771484 l -1.3632814,1.072266 h 3.9199214 c 0.0198,0 0.03997,-0.0021 0.05859,-0.0059 0.114339,-0.02329 0.190968,-0.120644 0.210938,-0.236328 z"
       transform="scale(0.26458333)"
       id="path958" />
    <path
       id="path956"
       style="display:inline;fill:#808080;fill-opacity:1;stroke-width:0.750883;stroke-linecap:round;stroke-linejoin:round;paint-order:markers fill stroke"
       d="M 2.7050781 6.0722656 C 2.54688 6.0722656 2.4199219 6.1992222 2.4199219 6.3574219 C 2.4199219 6.5156216 2.5468792 6.6425781 2.7050781 6.6425781 L 11.224609 6.6425781 L 11.845703 6.1542969 C 11.794449 6.1045918 11.725956 6.0722656 11.648438 6.0722656 L 2.7050781 6.0722656 z "
       transform="scale(0.26458333)" />
    <path
       id="rect839"
       style="display:inline;fill:#808080;fill-opacity:1;stroke-width:0.37565;stroke-linecap:round;stroke-linejoin:round;paint-order:markers fill stroke"
       d="M 1.0351562,2 C 0.87687044,2 0.75,2.1268697 0.75,2.2851562 V 4 10.285156 c 0,0.158287 0.12687082,0.28711 0.2851562,0.28711 H 6.2285156 L 7.5917969,9.5 H 1.8203125 L 1.82,5.2851562 h 10.715 l 1.56e-4,0.328125 1.070313,-0.8417968 V 4 2.2851562 C 13.605473,2.1268697 13.478595,2 13.320312,2 Z M 1.8203125,3.0722656 H 12.535156 V 4.2148438 H 1.8203125 Z"
       transform="scale(0.26458333)"
       sodipodi:nodetypes="sscsscccccccccssccccc" />
  </g>
</svg>
