<?xml version="1.0" encoding="UTF-8" standalone="no"?>
<svg
   sodipodi:docname="org.gnome.Nautilus.svg"
   id="svg8"
   version="1.1"
   viewBox="0 0 67.733332 67.733335"
   height="256"
   width="256"
   inkscape:version="1.4.3 (0d15f75042, 2025-12-25)"
   xmlns:inkscape="http://www.inkscape.org/namespaces/inkscape"
   xmlns:sodipodi="http://sodipodi.sourceforge.net/DTD/sodipodi-0.dtd"
   xmlns="http://www.w3.org/2000/svg"
   xmlns:svg="http://www.w3.org/2000/svg">
  <defs
     id="defs2" />
  <sodipodi:namedview
     inkscape:window-maximized="1"
     inkscape:window-y="0"
     inkscape:window-x="0"
     inkscape:window-height="1011"
     inkscape:window-width="1920"
     units="px"
     showgrid="false"
     inkscape:document-rotation="0"
     inkscape:current-layer="layer4"
     inkscape:document-units="px"
     inkscape:cy="127.80955"
     inkscape:cx="138.59293"
     inkscape:zoom="2.8284271"
     inkscape:pageshadow="2"
     inkscape:pageopacity="0.0"
     borderopacity="1.0"
     bordercolor="#666666"
     pagecolor="#ffffff"
     id="base"
     inkscape:showpageshadow="2"
     inkscape:pagecheckerboard="0"
     inkscape:deskcolor="#d1d1d1" />
  <g
     inkscape:groupmode="layer"
     id="layer1"
     inkscape:label="Background"
     style="display:inline">
    <g
       inkscape:label="Shadow"
       id="layer10"
       inkscape:groupmode="layer"
       style="display:inline;opacity:0.4">
      <path
         id="path839"
         style="display:inline;opacity:1;fill:#000000;fill-opacity:1;stroke-width:0.0246944;stroke-miterlimit:4;stroke-dasharray:none;paint-order:stroke fill markers"
         d="m 4.2333333,34.925001 v 24.641082 c 0,2.765599 2.2266527,4.992251 4.9922512,4.992251 H 58.50775 c 2.765599,0 4.99225,-2.226652 4.99225,-4.992251 V 34.925001 Z" />
    </g>
    <g
       style="display:inline"
       inkscape:label="Colour"
       id="g1174"
       inkscape:groupmode="layer">
      <path
         id="rect1168"
         style="display:inline;fill:#4d4d4d;fill-opacity:1;stroke-width:0.0933332;stroke-miterlimit:4;stroke-dasharray:none;paint-order:stroke fill markers"
         d="M 34.869141,16 C 24.416485,16 16,24.416485 16,34.869141 V 221.13086 C 16,231.58352 24.416485,240 34.869141,240 H 221.13086 C 231.58352,240 240,231.58352 240,221.13086 V 34.869141 C 240,24.416485 231.58352,16 221.13086,16 Z"
         transform="scale(0.26458333)"
         sodipodi:nodetypes="sssssssss" />
    </g>
    <g
       inkscape:groupmode="layer"
       id="layer2"
       inkscape:label="Highlight"
       style="opacity:0.1">
      <path
         d="m 9.2257931,4.2333333 c -2.7655986,0 -4.9924598,2.2268608 -4.9924598,4.9924598 v 1.0583329 c 0,-2.7655979 2.2268612,-4.9924597 4.9924598,-4.9924597 H 58.50754 c 2.765599,0 4.99246,2.2268618 4.99246,4.9924597 V 9.2257931 c 0,-2.765599 -2.226861,-4.9924598 -4.99246,-4.9924598 z"
         style="display:inline;opacity:1;fill:#ffffff;fill-opacity:1;stroke-width:0.0246944;stroke-miterlimit:4;stroke-dasharray:none;paint-order:stroke fill markers"
         id="path955" />
    </g>
  </g>
  <g
     inkscape:groupmode="layer"
     id="layer4"
     inkscape:label="Graphic"
     style="display:inline">
    <g
       id="g6">
      <path
         id="path885"
         style="display:inline;fill:#25c3ed;fill-opacity:1;stroke-width:0.0216076;stroke-miterlimit:4;stroke-dasharray:none;paint-order:stroke fill markers"
         d="M 12.305709 9.7895834 C 9.8858093 9.7895834 7.9375 11.73789 7.9375 14.157792 L 7.9375 46.566667 L 59.795833 46.566667 L 59.795833 19.449459 C 59.795833 17.029558 57.847525 15.08125 55.427625 15.08125 L 40.28488 15.08125 L 34.993213 9.7895834 L 12.305709 9.7895834 z " />
      <path
         id="path869"
         style="display:inline;opacity:0.15;fill:#000000;fill-opacity:1;stroke-width:0.0216076;stroke-miterlimit:4;stroke-dasharray:none;paint-order:stroke fill markers"
         d="m 12.305709,9.7895833 c -2.4198999,0 -4.368209,1.9483067 -4.368209,4.3682077 v 10.399882 h 0.0093 c 0.09623,-2.333506 2.0009392,-4.184757 4.358907,-4.184757 H 34.99321 L 40.284876,15.081249 34.99321,9.7895833 Z" />
    </g>
    <g
       id="g5">
      <path
         id="path895"
         style="display:inline;fill:#23da11;fill-opacity:1;stroke-width:0.0209462;stroke-miterlimit:4;stroke-dasharray:none;paint-order:stroke fill markers"
         d="M 12.171867 13.520105 C 9.8260457 13.520105 7.9375 15.408649 7.9375 17.754472 L 7.9375 46.566667 L 58.208333 46.566667 L 58.208333 22.884391 C 58.208333 20.538568 56.319787 18.650024 53.973967 18.650024 L 39.294759 18.650024 L 34.16484 13.520105 L 12.171867 13.520105 z " />
      <path
         id="path897"
         style="display:inline;opacity:0.15;fill:#000000;fill-opacity:1;stroke-width:0.0209462;stroke-miterlimit:4;stroke-dasharray:none;paint-order:stroke fill markers"
         d="m 12.17199,13.520206 c -2.3458212,0 -4.2344898,1.888667 -4.2344898,4.23449 v 10.081518 h 0.00901 c 0.093289,-2.262071 1.9396869,-4.056652 4.2254718,-4.056652 h 21.992996 l 5.129678,-5.129679 -5.129678,-5.129677 z" />
    </g>
    <g
       id="g4">
      <path
         id="path903"
         style="display:inline;fill:#f8e608;fill-opacity:1;stroke-width:0.0202845;stroke-miterlimit:4;stroke-dasharray:none;paint-order:stroke fill markers"
         d="M 12.038025 17.250627 C 9.766283 17.250627 7.9375 19.079926 7.9375 21.351668 L 7.9375 46.566667 L 56.620833 46.566667 L 56.620833 26.319324 C 56.620833 24.047581 54.792052 22.218282 52.520309 22.218282 L 38.304639 22.218282 L 33.336983 17.250627 L 12.038025 17.250627 z " />
      <path
         id="path905"
         style="display:inline;opacity:0.15;fill:#000000;fill-opacity:1;stroke-width:0.0202845;stroke-miterlimit:4;stroke-dasharray:none;paint-order:stroke fill markers"
         d="m 12.038267,17.250829 c -2.2717419,0 -4.1007668,1.829023 -4.1007668,4.100765 v 9.763152 h 0.00872 C 8.0365682,28.924108 9.8246501,27.1862 12.038252,27.1862 H 33.33671 l 4.967688,-4.967686 -4.967688,-4.967685 z" />
    </g>
    <g
       id="g3">
      <path
         id="path907"
         style="display:inline;fill:#fc4307;fill-opacity:1;stroke-width:0.0196231;stroke-miterlimit:4;stroke-dasharray:none;paint-order:stroke fill markers"
         d="M 11.9047 20.981665 C 9.7070368 20.981665 7.9375 22.750685 7.9375 24.948348 L 7.9375 46.566667 L 55.033333 46.566667 L 55.033333 29.754256 C 55.033333 27.556591 53.263798 25.787057 51.066134 25.787057 L 37.314002 25.787057 L 32.50861 20.981665 L 11.9047 20.981665 z " />
      <path
         id="path909"
         style="display:inline;opacity:0.15;fill:#000000;fill-opacity:1;stroke-width:0.0196231;stroke-miterlimit:4;stroke-dasharray:none;paint-order:stroke fill markers"
         d="m 11.904545,20.981452 c -2.1976629,0 -3.9670448,1.769381 -3.9670448,3.967044 v 9.444789 h 0.00842 c 0.087398,-2.119204 1.8171793,-3.800442 3.9585998,-3.800442 h 20.603943 l 4.805697,-4.805696 -4.805697,-4.805695 z" />
    </g>
    <g
       id="g2">
      <path
         id="path924"
         style="display:inline;fill:#3e3eda;fill-opacity:1;stroke-width:0.0716659;stroke-miterlimit:4;stroke-dasharray:none;paint-order:stroke fill markers"
         d="M 44.488282 93.300783 C 36.462138 93.300783 30 99.762922 30 107.78906 L 30 176 L 202 176 L 202 125.33985 C 202 117.3137 195.53787 110.85156 187.51172 110.85156 L 137.28711 110.85156 L 119.73633 93.300783 L 44.488282 93.300783 z "
         transform="scale(0.26458333)" />
      <path
         id="path926"
         style="display:inline;opacity:0.15;fill:#000000;fill-opacity:1;stroke-width:0.0189616;stroke-miterlimit:4;stroke-dasharray:none;paint-order:stroke fill markers"
         d="m 11.770824,24.685621 c -2.123584,0 -3.8333238,1.709739 -3.8333238,3.833323 v 9.126426 h 0.00814 C 8.0300884,35.5976 9.7015624,33.973032 11.7708,33.973032 h 19.909428 l 4.643707,-4.643706 -4.643707,-4.643705 z" />
    </g>
    <g
       id="g1"
       style="display:inline">
      <path
         id="path953"
         style="opacity:1;fill:#595959;fill-opacity:1;stroke-width:1.55158;stroke-linecap:round;stroke-linejoin:round;paint-order:stroke fill markers"
         inkscape:transform-center-y="-1.5433245"
         d="m 4.2333333,21.332825 v 9.260416 h 3.7041666 z m 59.2666657,0 -3.704166,9.260416 h 3.704166 z" />
      <path
         id="path934"
         clip-path="none"
         style="display:inline;fill:#666666;fill-opacity:1;stroke-width:0.0933332;stroke-miterlimit:4;stroke-dasharray:none;paint-order:stroke fill markers"
         d="M 16,115.32812 V 221.13086 C 16,231.58352 24.416485,240 34.869141,240 H 221.13086 C 231.58352,240 240,231.58352 240,221.13086 V 115.32812 Z"
         transform="scale(0.26458333)"
         sodipodi:nodetypes="csssscc" />
      <g
         id="g949">
        <rect
           style="opacity:0.4;fill:#000000;fill-opacity:1;stroke-width:0.74598;stroke-linecap:round;stroke-linejoin:round;paint-order:stroke fill markers"
           id="rect1"
           width="12.7"
           height="4.2333331"
           x="27.516666"
           y="42.862499"
           ry="1.6857336"
           rx="1.6857336" />
        <rect
           style="opacity:1;fill:#e6e6e6;fill-opacity:1;stroke-width:0.74598;stroke-linecap:round;stroke-linejoin:round;paint-order:stroke fill markers"
           id="rect920"
           width="12.7"
           height="4.2333331"
           x="27.516666"
           y="42.333332"
           ry="1.6857336" />
      </g>
    </g>
  </g>
  <g
     inkscape:groupmode="layer"
     id="layer3"
     inkscape:label="Highlights">
    <path
       id="path963"
       style="display:inline;opacity:0.05;fill:#ffffff;fill-opacity:1;stroke-width:6.14377;stroke-linecap:round;stroke-linejoin:round;paint-order:stroke fill markers"
       inkscape:transform-center-y="-2.5576377"
       d="M 240 182 L 182 240 L 221.13086 240 C 231.58352 240 240 231.58352 240 221.13086 L 240 182 z "
       transform="scale(0.26458333)" />
  </g>
</svg>
