<?xml version="1.0" encoding="UTF-8" standalone="no"?>
<svg
   xmlns:dc="http://purl.org/dc/elements/1.1/"
   xmlns:cc="http://creativecommons.org/ns#"
   xmlns:rdf="http://www.w3.org/1999/02/22-rdf-syntax-ns#"
   xmlns:svg="http://www.w3.org/2000/svg"
   xmlns="http://www.w3.org/2000/svg"
   xmlns:sodipodi="http://sodipodi.sourceforge.net/DTD/sodipodi-0.dtd"
   xmlns:inkscape="http://www.inkscape.org/namespaces/inkscape"
   sodipodi:docname="org.gnome.clocks-symbolic.symbolic.svg"
   inkscape:version="1.0.2 (e86c870879, 2021-01-15)"
   id="svg4705"
   version="1.1"
   viewBox="0 0 4.2333333 4.2333333"
   height="16"
   width="16">
  <defs
     id="defs4699" />
  <sodipodi:namedview
     units="px"
     inkscape:document-rotation="0"
     inkscape:window-maximized="1"
     inkscape:window-y="27"
     inkscape:window-x="1920"
     inkscape:window-height="1016"
     inkscape:window-width="1920"
     fit-margin-bottom="0"
     fit-margin-right="0"
     fit-margin-left="0"
     fit-margin-top="0"
     showgrid="false"
     inkscape:current-layer="layer1"
     inkscape:document-units="px"
     inkscape:cy="7.9126863"
     inkscape:cx="4.8529167"
     inkscape:zoom="22.627417"
     inkscape:pageshadow="2"
     inkscape:pageopacity="0.0"
     borderopacity="1.0"
     bordercolor="#666666"
     pagecolor="#ffffff"
     id="base" />
  <metadata
     id="metadata4702">
    <rdf:RDF>
      <cc:Work
         rdf:about="">
        <dc:format>image/svg+xml</dc:format>
        <dc:type
           rdf:resource="http://purl.org/dc/dcmitype/StillImage" />
        <dc:title />
      </cc:Work>
    </rdf:RDF>
  </metadata>
  <g
     style="display:inline"
     transform="translate(-130.05163,-144.32544)"
     id="layer1"
     inkscape:groupmode="layer"
     inkscape:label="Graphic">
    <path
       id="path11042"
       style="display:inline;fill:#000000;fill-opacity:1;stroke:none;stroke-width:0.0714285;stroke-linecap:round;stroke-linejoin:round;stroke-miterlimit:4;stroke-dasharray:none;stroke-opacity:1;enable-background:new"
       d="M 8 0 A 7.9999998 7.9999998 0 0 0 0 8 A 7.9999998 7.9999998 0 0 0 8 16 A 7.9999998 7.9999998 0 0 0 16 8 A 7.9999998 7.9999998 0 0 0 8 0 z M 7.90625 1 A 6.9999999 6.9999999 0 0 1 8 1 A 6.9999999 6.9999999 0 0 1 15 8 A 6.9999999 6.9999999 0 0 1 8 15 A 6.9999999 6.9999999 0 0 1 1 8 A 6.9999999 6.9999999 0 0 1 7.90625 1 z "
       transform="matrix(0.26458333,0,0,0.26458333,130.05163,144.32544)" />
    <g
       id="g916"
       style="fill:#000000;fill-opacity:1">
      <rect
         style="fill:#000000;fill-opacity:1;stroke-width:0.793972;stroke-linecap:round;stroke-linejoin:round;paint-order:stroke fill markers"
         id="rect878"
         width="0.1984375"
         height="1.5875"
         x="-146.54132"
         y="130.5808"
         ry="0.099218749"
         transform="rotate(-90)" />
      <rect
         style="fill:#000000;fill-opacity:1;stroke-width:0.836919;stroke-linecap:round;stroke-linejoin:round;paint-order:stroke fill markers"
         id="rect880"
         width="0.26458332"
         height="1.3229166"
         x="-187.8221"
         y="59.413467"
         transform="matrix(-0.8660254,-0.5,-0.5,0.8660254,0,0)"
         ry="0.13229166"
         inkscape:transform-center-x="-0.33838737"
         inkscape:transform-center-y="-0.58610144" />
      <rect
         style="fill:#000000;fill-opacity:1;stroke-width:0.748563;stroke-linecap:round;stroke-linejoin:round;paint-order:stroke fill markers"
         id="rect888"
         width="0.26458332"
         height="1.0583333"
         x="41.107765"
         y="-193.96506"
         ry="0.13229166"
         transform="matrix(0.8660254,-0.5,-0.5,-0.8660254,0,0)" />
      <circle
         style="fill:#000000;fill-opacity:1;stroke-width:0.591589;stroke-linecap:round;stroke-linejoin:round;paint-order:stroke fill markers"
         id="path874"
         cx="132.16829"
         cy="146.44211"
         r="0.26458332"
         inkscape:transform-center-y="-0.015307924" />
    </g>
  </g>
</svg>
