<?xml version="1.0" encoding="UTF-8" standalone="no"?>
<svg
   sodipodi:docname="org.gnome.Yelp.svg"
   id="svg8"
   version="1.1"
   viewBox="0 0 67.733333 67.733334"
   height="256"
   width="256"
   xmlns:inkscape="http://www.inkscape.org/namespaces/inkscape"
   xmlns:sodipodi="http://sodipodi.sourceforge.net/DTD/sodipodi-0.dtd"
   xmlns="http://www.w3.org/2000/svg"
   xmlns:svg="http://www.w3.org/2000/svg">
  <defs
     id="defs2" />
  <sodipodi:namedview
     inkscape:window-maximized="1"
     inkscape:window-y="27"
     inkscape:window-x="1920"
     inkscape:window-height="1016"
     inkscape:window-width="1920"
     units="px"
     showgrid="false"
     inkscape:document-rotation="0"
     inkscape:current-layer="layer7"
     inkscape:document-units="px"
     inkscape:cy="155.20994"
     inkscape:cx="115.96551"
     inkscape:zoom="1.4142136"
     inkscape:pageshadow="2"
     inkscape:pageopacity="0.0"
     borderopacity="1.0"
     bordercolor="#666666"
     pagecolor="#ffffff"
     id="base"
     inkscape:lockguides="false"
     inkscape:pagecheckerboard="0"
     width="256px"
     inkscape:showpageshadow="2"
     inkscape:deskcolor="#d1d1d1" />
  <g
     inkscape:groupmode="layer"
     id="layer3"
     inkscape:label="Background"
     style="display:inline">
    <g
       inkscape:groupmode="layer"
       id="layer4"
       inkscape:label="Shadow"
       style="display:inline;opacity:0.4">
      <circle
         style="display:inline;fill:#000000;fill-opacity:1;stroke-width:14.1577;stroke-linecap:round;stroke-miterlimit:1.6;paint-order:stroke markers fill"
         id="circle834"
         cx="33.866665"
         cy="34.924999"
         r="31.75" />
    </g>
    <g
       inkscape:groupmode="layer"
       id="layer2"
       inkscape:label="Colour"
       style="display:inline">
      <circle
         style="display:inline;fill:#007fdd;fill-opacity:1;stroke-width:14.1577;stroke-linecap:round;stroke-miterlimit:1.6;paint-order:stroke markers fill"
         id="path835"
         cx="33.866665"
         cy="33.866665"
         r="31.75" />
    </g>
    <g
       inkscape:groupmode="layer"
       id="layer5"
       inkscape:label="Highlight"
       style="display:inline;opacity:0.1">
      <path
         id="circle855"
         style="display:inline;fill:#ffffff;fill-opacity:1;stroke-width:53.5094;stroke-linecap:round;stroke-miterlimit:1.6;paint-order:stroke markers fill"
         d="M 128 8 A 120 120 0 0 0 8 128 A 120 120 0 0 0 8.0742188 130 A 120 120 0 0 1 128 12 A 120 120 0 0 1 247.96289 129.00977 A 120 120 0 0 0 248 128 A 120 120 0 0 0 128 8 z "
         transform="scale(0.26458333)" />
    </g>
  </g>
  <g
     inkscape:groupmode="layer"
     id="layer7"
     inkscape:label="Large Highlight">
    <path
       style="display:inline;opacity:0.1;fill:#ffffff;fill-opacity:1;stroke:none;stroke-width:0.566965;stroke-linecap:round;stroke-linejoin:round;stroke-miterlimit:4;stroke-dasharray:none;stroke-dashoffset:0;stroke-opacity:1;enable-background:new"
       d="m 6.5350067,17.777883 a 31.749998,31.749998 0 0 0 -4.41834,16.08871 31.749998,31.749998 0 0 0 31.7500003,31.75 31.749998,31.749998 0 0 0 26.82616,-14.8363 z"
       id="path958"
       inkscape:connector-curvature="0" />
  </g>
  <g
     inkscape:groupmode="layer"
     id="layer1"
     inkscape:label="Graphic"
     style="display:inline">
    <path
       id="path879"
       style="font-style:normal;font-variant:normal;font-weight:normal;font-stretch:normal;font-size:1.05833px;line-height:1.25;font-family:Ubuntu;-inkscape-font-specification:Ubuntu;white-space:pre;display:inline;opacity:0.4;fill:#000000;stroke-width:59.3538"
       d="m 34.172002,12.24643 c -2.010113,0 -3.913223,0.230323 -5.713936,0.690988 -1.758849,0.460625 -3.351086,1.071123 -4.774903,1.824916 l 1.630023,4.517996 c 2.638258,-1.423817 5.341912,-2.134973 8.105817,-2.134973 2.177612,0 3.830252,0.570206 4.960938,1.700897 1.130685,1.088794 1.700892,2.511101 1.700892,4.26995 0,1.088828 -0.259334,2.090707 -0.761858,3.011998 -0.460663,0.921274 -1.062263,1.802361 -1.816057,2.639926 -0.753787,0.837515 -1.554315,1.678338 -2.391881,2.515905 -0.837559,0.795669 -1.629227,1.66788 -2.383022,2.631069 -0.753794,0.921325 -1.384402,1.932068 -1.886928,3.020856 -0.460663,1.088794 -0.690988,2.300887 -0.690988,3.640975 0,0.921291 0.08066,1.80236 0.248045,2.639926 h 4.907787 c -0.04194,-0.2094 -0.07087,-0.439714 -0.07087,-0.690994 V 41.83487 c 0,-1.38192 0.279482,-2.623021 0.82387,-3.711843 0.544433,-1.130692 1.215295,-2.15272 2.010952,-3.074009 0.79566,-0.963189 1.66788,-1.884523 2.631068,-2.763952 0.963191,-0.879394 1.844271,-1.800763 2.639928,-2.763951 0.795701,-0.963155 1.466561,-1.985186 2.010951,-3.074009 0.54439,-1.130692 0.815013,-2.412052 0.815013,-3.835869 0,-1.130691 -0.189865,-2.302491 -0.566964,-3.51695 -0.335032,-1.256311 -0.956783,-2.387861 -1.878072,-3.392918 -0.921288,-1.005057 -2.162395,-1.825732 -3.711844,-2.453892 -1.507585,-0.670024 -3.450952,-1.001047 -5.837961,-1.001047 z m -1.009905,36.932408 c -1.298183,0 -2.320215,0.420377 -3.074009,1.25796 -0.753794,0.837565 -1.133929,1.819297 -1.133929,2.949982 0,1.13064 0.380134,2.121281 1.133929,2.958847 0.753792,0.837566 1.775824,1.25796 3.074009,1.25796 1.298183,0 2.329074,-0.420377 3.082868,-1.25796 0.753795,-0.837532 1.133929,-1.828156 1.133929,-2.958847 0,-1.130674 -0.380134,-2.112418 -1.133929,-2.949982 -0.753793,-0.837566 -1.784684,-1.25796 -3.082868,-1.25796 z" />
    <path
       id="path838"
       style="font-style:normal;font-variant:normal;font-weight:normal;font-stretch:normal;font-size:1.05833px;line-height:1.25;font-family:Ubuntu;-inkscape-font-specification:Ubuntu;white-space:pre;display:inline;fill:#ffffff;stroke-width:59.3538"
       d="m 34.172002,11.188096 c -2.010113,0 -3.913223,0.230323 -5.713936,0.690988 -1.758849,0.460625 -3.351086,1.071123 -4.774903,1.824916 l 1.630023,4.517996 c 2.638258,-1.423817 5.341912,-2.134973 8.105817,-2.134973 2.177612,0 3.830252,0.570206 4.960938,1.700897 1.130685,1.088794 1.700892,2.511101 1.700892,4.26995 0,1.088828 -0.259334,2.090707 -0.761858,3.011998 -0.460663,0.921274 -1.062263,1.802361 -1.816057,2.639926 -0.753787,0.837515 -1.554315,1.678338 -2.391881,2.515905 -0.837559,0.795669 -1.629227,1.66788 -2.383022,2.631069 -0.753794,0.921325 -1.384402,1.932068 -1.886928,3.020856 -0.460663,1.088794 -0.690988,2.300887 -0.690988,3.640975 0,0.921291 0.08066,1.80236 0.248045,2.639926 h 4.907787 c -0.04194,-0.2094 -0.07087,-0.439714 -0.07087,-0.690994 v -0.690995 c 0,-1.38192 0.279482,-2.623021 0.82387,-3.711843 0.544433,-1.130692 1.215295,-2.15272 2.010952,-3.074009 0.79566,-0.963189 1.66788,-1.884523 2.631068,-2.763952 0.963191,-0.879394 1.844271,-1.800763 2.639928,-2.763951 0.795701,-0.963155 1.466561,-1.985186 2.010951,-3.074009 0.54439,-1.130692 0.815013,-2.412052 0.815013,-3.835869 0,-1.130691 -0.189865,-2.302491 -0.566964,-3.51695 -0.335032,-1.256311 -0.956783,-2.387861 -1.878072,-3.392918 -0.921288,-1.005057 -2.162395,-1.825732 -3.711844,-2.453892 -1.507585,-0.670024 -3.450952,-1.001047 -5.837961,-1.001047 z m -1.009905,36.932408 c -1.298183,0 -2.320215,0.420377 -3.074009,1.25796 -0.753794,0.837565 -1.133929,1.819297 -1.133929,2.949982 0,1.13064 0.380134,2.121281 1.133929,2.958847 0.753792,0.837566 1.775824,1.25796 3.074009,1.25796 1.298183,0 2.329074,-0.420377 3.082868,-1.25796 0.753795,-0.837532 1.133929,-1.828156 1.133929,-2.958847 0,-1.130674 -0.380134,-2.112418 -1.133929,-2.949982 -0.753793,-0.837566 -1.784684,-1.25796 -3.082868,-1.25796 z" />
  </g>
</svg>
