<?xml version="1.0" encoding="UTF-8" standalone="no"?>
<svg
   sodipodi:docname="org.wireshark.Wireshark.svg"
   id="svg8"
   version="1.1"
   viewBox="0 0 67.733332 67.733335"
   height="256"
   width="256"
   xmlns:inkscape="http://www.inkscape.org/namespaces/inkscape"
   xmlns:sodipodi="http://sodipodi.sourceforge.net/DTD/sodipodi-0.dtd"
   xmlns="http://www.w3.org/2000/svg"
   xmlns:svg="http://www.w3.org/2000/svg">
  <defs
     id="defs2" />
  <sodipodi:namedview
     inkscape:window-maximized="1"
     inkscape:window-y="32"
     inkscape:window-x="1920"
     inkscape:window-height="1011"
     inkscape:window-width="1920"
     units="px"
     showgrid="false"
     inkscape:document-rotation="0"
     inkscape:current-layer="layer2"
     inkscape:document-units="px"
     inkscape:cy="139.00397"
     inkscape:cx="115.02534"
     inkscape:zoom="2.773302"
     inkscape:pageshadow="2"
     inkscape:pageopacity="0.0"
     borderopacity="1.0"
     bordercolor="#666666"
     pagecolor="#ffffff"
     id="base"
     inkscape:showpageshadow="2"
     inkscape:pagecheckerboard="0"
     inkscape:deskcolor="#d1d1d1" />
  <g
     inkscape:groupmode="layer"
     id="layer1"
     inkscape:label="Background"
     style="display:inline">
    <g
       inkscape:label="Shadow"
       id="layer10"
       inkscape:groupmode="layer"
       style="display:inline;opacity:0.4">
      <path
         id="path839"
         style="display:inline;opacity:1;fill:#000000;fill-opacity:1;stroke-width:0.0246944;stroke-miterlimit:4;stroke-dasharray:none;paint-order:stroke fill markers"
         d="m 4.2333333,34.925001 v 24.641082 c 0,2.765599 2.2266527,4.992251 4.9922512,4.992251 H 58.50775 c 2.765599,0 4.99225,-2.226652 4.99225,-4.992251 V 34.925001 Z" />
    </g>
    <g
       style="display:inline"
       inkscape:label="Colour"
       id="g1174"
       inkscape:groupmode="layer">
      <path
         id="rect1168"
         style="display:inline;fill:#3caae9;fill-opacity:1;stroke-width:0.0933332;stroke-miterlimit:4;stroke-dasharray:none;paint-order:stroke fill markers"
         d="M 34.869141,16 C 24.416485,16 16,24.416483 16,34.869141 16,96.956381 16,159.04362 16,221.13086 16,231.58352 24.416485,240 34.869141,240 H 221.13086 C 231.58352,240 240,231.58352 240,221.13086 240,159.04362 240,96.956381 240,34.869141 240,24.416483 231.58352,16 221.13086,16 Z"
         transform="scale(0.26458333)"
         sodipodi:nodetypes="sccssccss" />
    </g>
    <g
       inkscape:groupmode="layer"
       id="layer2"
       inkscape:label="Highlight"
       style="display:inline;opacity:0.1">
      <path
         d="m 9.2257931,4.2333333 c -2.7655986,0 -4.9924598,2.2268608 -4.9924598,4.9924598 v 1.0583329 c 0,-2.7655979 2.2268612,-4.9924597 4.9924598,-4.9924597 H 58.50754 c 2.765599,0 4.99246,2.2268618 4.99246,4.9924597 V 9.2257931 c 0,-2.765599 -2.226861,-4.9924598 -4.99246,-4.9924598 z"
         style="display:inline;opacity:1;fill:#ffffff;fill-opacity:1;stroke-width:0.0246944;stroke-miterlimit:4;stroke-dasharray:none;paint-order:stroke fill markers"
         id="path955" />
    </g>
  </g>
  <g
     inkscape:label="Graphic"
     id="g1156"
     inkscape:groupmode="layer"
     style="display:inline">
    <path
       id="path4"
       style="opacity:0.4;fill:#1a1a1a;fill-opacity:1;stroke:none;stroke-width:3.49969;stroke-linecap:round;stroke-linejoin:round;stroke-opacity:1;paint-order:stroke markers fill"
       d="M 43.430424,16.934925 C 31.278758,16.723842 16.933333,37.562166 16.933333,49.485808 c 0,1.900706 1.533582,3.430859 3.43855,3.430859 H 47.36145 c 1.904966,0 3.43855,-1.530153 3.43855,-3.430859 0,-1.78549 -0.562564,-2.853402 -1.414669,-4.994158 C 40.592546,22.714928 49.703979,19.111203 45.82666,17.266462 45.092434,16.917134 44.240535,16.948998 43.430424,16.934925 Z"
       sodipodi:nodetypes="ssssccss" />
    <path
       id="path3"
       style="opacity:1;fill:#2f425a;fill-opacity:1;stroke:none;stroke-width:3.49969;stroke-linecap:round;stroke-linejoin:round;stroke-opacity:1;paint-order:stroke markers fill"
       d="M 43.430424,15.876591 C 31.278758,15.665508 16.933333,36.503832 16.933333,48.427474 c 0,1.900706 1.533582,3.430859 3.43855,3.430859 H 47.36145 c 1.904966,0 3.43855,-1.530153 3.43855,-3.430859 0,-1.78549 -0.562564,-2.853402 -1.414669,-4.994158 C 40.592546,21.656594 49.703979,18.052869 45.82666,16.208128 45.092434,15.8588 44.240535,15.890664 43.430424,15.876591 Z"
       sodipodi:nodetypes="ssssccss" />
  </g>
  <g
     inkscape:groupmode="layer"
     id="layer3"
     inkscape:label="Large Highlight"
     style="display:inline;opacity:0.055">
    <path
       d="M 9.2255845,63.5 C 6.459986,63.5 4.2333333,61.273348 4.2333333,58.507749 V 33.866667 c 9.8775467,-0.0044 20.8173427,-5.499334 29.6333337,0 11.085509,6.915039 20.414576,1.05515 29.633333,0 V 58.507749 C 63.5,61.273348 61.273349,63.5 58.50775,63.5 Z"
       style="display:inline;opacity:1;fill:#ffffff;fill-opacity:1;stroke-width:0.0246944;stroke-miterlimit:4;stroke-dasharray:none;paint-order:stroke fill markers"
       id="path842"
       sodipodi:nodetypes="sscscsss" />
  </g>
</svg>
