<?xml version="1.0" encoding="UTF-8" standalone="no"?>
<svg
   xmlns:dc="http://purl.org/dc/elements/1.1/"
   xmlns:cc="http://creativecommons.org/ns#"
   xmlns:rdf="http://www.w3.org/1999/02/22-rdf-syntax-ns#"
   xmlns:svg="http://www.w3.org/2000/svg"
   xmlns="http://www.w3.org/2000/svg"
   xmlns:sodipodi="http://sodipodi.sourceforge.net/DTD/sodipodi-0.dtd"
   xmlns:inkscape="http://www.inkscape.org/namespaces/inkscape"
   sodipodi:docname="org.pitivi.Pitivi.svg"
   inkscape:version="1.0.1 (3bc2e813f5, 2020-09-07)"
   id="svg8"
   version="1.1"
   viewBox="0 0 67.733332 67.733335"
   height="256"
   width="256">
  <defs
     id="defs2">
    <clipPath
       clipPathUnits="userSpaceOnUse"
       id="e">
      <rect
         ry="0"
         rx="0"
         y="-40.445"
         x="64"
         height="32.222"
         width="448"
         style="marker:none"
         fill="#e4e6e8"
         stroke-width="24"
         id="rect854" />
    </clipPath>
    <clipPath
       clipPathUnits="userSpaceOnUse"
       id="clipPath1620">
      <path
         id="path1622"
         style="display:inline;fill:#00ffff;fill-opacity:1;stroke-width:0.0246944;stroke-miterlimit:4;stroke-dasharray:none;paint-order:stroke fill markers"
         d="m 9.2257933,10.583333 c -2.7655983,0 -4.99246,2.226859 -4.99246,4.99246 V 19.05 H 63.5 v -3.474207 c 0,-2.765599 0,-4.193816 0,-4.99246 z"
         sodipodi:nodetypes="ssccscs" />
    </clipPath>
  </defs>
  <sodipodi:namedview
     inkscape:window-maximized="1"
     inkscape:window-y="27"
     inkscape:window-x="2004"
     inkscape:window-height="1016"
     inkscape:window-width="1836"
     units="px"
     showgrid="false"
     inkscape:document-rotation="0"
     inkscape:current-layer="g1174"
     inkscape:document-units="px"
     inkscape:cy="121.15019"
     inkscape:cx="112.31619"
     inkscape:zoom="4"
     inkscape:pageshadow="2"
     inkscape:pageopacity="0.0"
     borderopacity="1.0"
     bordercolor="#666666"
     pagecolor="#ffffff"
     id="base" />
  <metadata
     id="metadata5">
    <rdf:RDF>
      <cc:Work
         rdf:about="">
        <dc:format>image/svg+xml</dc:format>
        <dc:type
           rdf:resource="http://purl.org/dc/dcmitype/StillImage" />
        <dc:title />
      </cc:Work>
    </rdf:RDF>
  </metadata>
  <g
     inkscape:label="Shadow"
     id="layer10"
     inkscape:groupmode="layer"
     style="display:inline;opacity:0.4">
    <path
       id="path1156"
       style="display:inline;fill:#000000;fill-opacity:1;stroke-width:0.0246944;stroke-miterlimit:4;stroke-dasharray:none;paint-order:stroke fill markers"
       d="m 9.2257934,15.875003 c -2.7655985,0 -4.9924601,2.22686 -4.9924601,4.99246 v 11.940873 12.7 11.940873 c 0,2.7656 2.2268616,4.99246 4.9924601,4.99246 H 58.507539 c 2.7656,0 4.99246,-2.22686 4.99246,-4.99246 v -11.940873 -12.7 -11.940873 c 0,-2.7656 -2.22686,-4.99246 -4.99246,-4.99246 z" />
  </g>
  <g
     style="display:inline"
     inkscape:label="Graphic"
     id="g1174"
     inkscape:groupmode="layer">
    <g
       id="g1482"
       clip-path="url(#clipPath1620)"
       transform="translate(0,4.2333335)">
      <g
         id="g1640">
        <g
           clip-path="url(#e)"
           transform="matrix(0.13229167,0,0,0.13138022,-4.2333336,20.130282)"
           id="g1309"
           style="display:inline">
          <rect
             ry="0"
             rx="0"
             y="-48.453999"
             x="64"
             height="56.231998"
             width="448"
             style="marker:none"
             fill="#ffffff"
             id="rect1297" />
          <rect
             style="marker:none"
             width="45.414001"
             height="135.76401"
             x="62.535"
             y="-26.738001"
             transform="matrix(0.8660254,0.5,0.5,-0.8660254,0,0)"
             rx="0"
             ry="0"
             id="rect1299" />
          <rect
             ry="0"
             rx="0"
             transform="matrix(0.8660254,0.5,0.5,-0.8660254,0,0)"
             y="23.261999"
             x="149.138"
             height="135.76401"
             width="45.414001"
             style="marker:none"
             id="rect1301" />
          <rect
             style="marker:none"
             width="45.414001"
             height="135.76401"
             x="235.74001"
             y="73.262001"
             transform="matrix(0.8660254,0.5,0.5,-0.8660254,0,0)"
             rx="0"
             ry="0"
             id="rect1303" />
          <rect
             ry="0"
             rx="0"
             transform="matrix(0.8660254,0.5,0.5,-0.8660254,0,0)"
             y="123.262"
             x="322.34299"
             height="135.76401"
             width="45.414001"
             style="marker:none"
             id="rect1305" />
          <rect
             style="marker:none"
             width="45.414001"
             height="135.76401"
             x="408.94501"
             y="173.26199"
             transform="matrix(0.8660254,0.5,0.5,-0.8660254,0,0)"
             rx="0"
             ry="0"
             id="rect1307" />
        </g>
        <g
           id="g1464">
          <g
             clip-path="url(#e)"
             transform="matrix(0.13229167,0,0,-0.13138022,-4.2333336,9.5029343)"
             id="g1330"
             style="display:inline">
            <rect
               ry="0"
               rx="0"
               y="-48.453999"
               x="64"
               height="56.231998"
               width="448"
               style="marker:none"
               fill="#ffffff"
               id="rect1318" />
            <rect
               style="marker:none"
               width="45.414001"
               height="135.76401"
               x="62.535"
               y="-26.738001"
               transform="matrix(0.8660254,0.5,0.5,-0.8660254,0,0)"
               rx="0"
               ry="0"
               id="rect1320" />
            <rect
               ry="0"
               rx="0"
               transform="matrix(0.8660254,0.5,0.5,-0.8660254,0,0)"
               y="23.261999"
               x="149.138"
               height="135.76401"
               width="45.414001"
               style="marker:none"
               id="rect1322" />
            <rect
               style="marker:none"
               width="45.414001"
               height="135.76401"
               x="235.74001"
               y="73.262001"
               transform="matrix(0.8660254,0.5,0.5,-0.8660254,0,0)"
               rx="0"
               ry="0"
               id="rect1324" />
            <rect
               ry="0"
               rx="0"
               transform="matrix(0.8660254,0.5,0.5,-0.8660254,0,0)"
               y="123.262"
               x="322.34299"
               height="135.76401"
               width="45.414001"
               style="marker:none"
               id="rect1326" />
            <rect
               style="marker:none"
               width="45.414001"
               height="135.76401"
               x="408.94501"
               y="173.26199"
               transform="matrix(0.8660254,0.5,0.5,-0.8660254,0,0)"
               rx="0"
               ry="0"
               id="rect1328" />
          </g>
          <rect
             style="opacity:0.2;fill:#ffffff;stroke-width:2.41226;stroke-linecap:round;stroke-linejoin:round;paint-order:stroke fill markers"
             id="rect1177"
             width="59.266666"
             height="4.2333331"
             x="4.2333331"
             y="10.583333" />
        </g>
      </g>
    </g>
    <path
       id="path1791"
       style="display:inline;fill:#c0bfbc;fill-opacity:1;stroke-width:0.0933332;stroke-miterlimit:4;stroke-dasharray:none;paint-order:stroke fill markers"
       d="M 26.724609,57.855469 C 20.376823,60.887713 16,67.341019 16,74.869141 V 88 h 32 v -8.869141 z"
       transform="scale(0.26458333)" />
    <path
       id="path1169"
       style="display:inline;fill:#a92dc4;fill-opacity:1;stroke-width:0.0246944;stroke-miterlimit:4;stroke-dasharray:none;paint-order:stroke fill markers"
       d="m 4.2333333,23.283335 v 8.466667 12.7 11.940873 c 0,2.7656 2.2268616,4.99246 4.9924601,4.99246 H 58.507539 c 2.7656,0 4.99246,-2.22686 4.99246,-4.99246 v -11.940873 -12.7 -8.466667 z" />
    <g
       fill="#f6f5f4"
       id="g1492"
       transform="matrix(0.52916667,0,0,0.52916667,1.2010547e-8,-91.016664)"
       style="display:inline">
      <path
         style="marker:none"
         d="m 26,244 h 76 c 1.062,0 2,0.936 2,2 H 24 c 0,-1.108 0.983,-2 2,-2 z"
         id="path1488" />
      <path
         style="marker:none"
         d="m 48,232 v 14 h -2 v -14 z m 34,0 v 14 h -2 v -14 z m -58,30 h 80 c 0,1.054 -0.913,2 -2,2 H 26 c -0.985,0 -2,-1.03 -2,-2 z"
         id="path1490" />
    </g>
    <circle
       r="0.66145831"
       cy="21.812641"
       cx="5.8292994"
       style="stroke-width:0.529167;marker:none"
       fill="#241f31"
       id="circle1653" />
    <circle
       style="stroke-width:0.529167;marker:none"
       cx="5.8292994"
       cy="17.588312"
       r="0.66145831"
       fill="#241f31"
       id="circle1655" />
    <circle
       style="stroke-width:0.529167;marker:none"
       cx="5.8292994"
       cy="21.650717"
       r="0.66145831"
       fill="#f6f5f4"
       id="circle1657" />
    <circle
       r="0.66145831"
       cy="17.42691"
       cx="5.8292994"
       style="stroke-width:0.529167;marker:none"
       fill="#f6f5f4"
       id="circle1659" />
    <circle
       style="stroke-width:0.529167;marker:none"
       cx="11.063288"
       cy="21.798359"
       r="0.66145831"
       fill="#241f31"
       id="circle1661" />
    <circle
       r="0.66145831"
       cy="21.636967"
       cx="11.063288"
       style="stroke-width:0.529167;marker:none"
       fill="#f6f5f4"
       id="circle1663" />
    <path
       id="path1811"
       style="opacity:0.05;fill:#ffffff;fill-opacity:1;stroke-width:7.36208;stroke-linecap:round;stroke-linejoin:round;paint-order:stroke fill markers"
       inkscape:transform-center-y="-6.3500795"
       d="m 63.5,23.283333 v 38.1 H 4.2333333 Z" />
  </g>
</svg>
