<?xml version="1.0" encoding="UTF-8" standalone="no"?>
<svg
   xmlns:dc="http://purl.org/dc/elements/1.1/"
   xmlns:cc="http://creativecommons.org/ns#"
   xmlns:rdf="http://www.w3.org/1999/02/22-rdf-syntax-ns#"
   xmlns:svg="http://www.w3.org/2000/svg"
   xmlns="http://www.w3.org/2000/svg"
   xmlns:sodipodi="http://sodipodi.sourceforge.net/DTD/sodipodi-0.dtd"
   xmlns:inkscape="http://www.inkscape.org/namespaces/inkscape"
   sodipodi:docname="org.gnome.Settings-symbolic.symbolic.svg"
   inkscape:version="1.0.2 (e86c870879, 2021-01-15)"
   id="svg4705"
   version="1.1"
   viewBox="0 0 4.2333333 4.2333333"
   height="16"
   width="16">
  <defs
     id="defs4699" />
  <sodipodi:namedview
     units="px"
     inkscape:document-rotation="0"
     inkscape:window-maximized="1"
     inkscape:window-y="27"
     inkscape:window-x="1920"
     inkscape:window-height="1016"
     inkscape:window-width="1920"
     fit-margin-bottom="0"
     fit-margin-right="0"
     fit-margin-left="0"
     fit-margin-top="0"
     showgrid="false"
     inkscape:current-layer="layer6"
     inkscape:document-units="px"
     inkscape:cy="8.3877378"
     inkscape:cx="8.0977392"
     inkscape:zoom="31.678384"
     inkscape:pageshadow="2"
     inkscape:pageopacity="0.0"
     borderopacity="1.0"
     bordercolor="#666666"
     pagecolor="#ffffff"
     id="base" />
  <metadata
     id="metadata4702">
    <rdf:RDF>
      <cc:Work
         rdf:about="">
        <dc:format>image/svg+xml</dc:format>
        <dc:type
           rdf:resource="http://purl.org/dc/dcmitype/StillImage" />
        <dc:title></dc:title>
      </cc:Work>
    </rdf:RDF>
  </metadata>
  <g
     inkscape:label="Graphic"
     id="layer6"
     inkscape:groupmode="layer">
    <g
       id="g1087">
      <path
         id="path995"
         style="color:#000000;font-style:normal;font-variant:normal;font-weight:normal;font-stretch:normal;font-size:medium;line-height:normal;font-family:sans-serif;font-variant-ligatures:normal;font-variant-position:normal;font-variant-caps:normal;font-variant-numeric:normal;font-variant-alternates:normal;font-variant-east-asian:normal;font-feature-settings:normal;font-variation-settings:normal;text-indent:0;text-align:start;text-decoration:none;text-decoration-line:none;text-decoration-style:solid;text-decoration-color:#000000;letter-spacing:normal;word-spacing:normal;text-transform:none;writing-mode:lr-tb;direction:ltr;text-orientation:mixed;dominant-baseline:auto;baseline-shift:baseline;text-anchor:start;white-space:normal;shape-padding:0;shape-margin:0;inline-size:0;clip-rule:nonzero;display:inline;overflow:visible;visibility:visible;opacity:0.9;isolation:auto;mix-blend-mode:normal;color-interpolation:sRGB;color-interpolation-filters:linearRGB;solid-color:#000000;solid-opacity:1;vector-effect:none;fill:#000000;fill-opacity:1;fill-rule:nonzero;stroke:none;stroke-width:0.398786;stroke-linecap:butt;stroke-linejoin:round;stroke-miterlimit:4;stroke-dasharray:none;stroke-dashoffset:0;stroke-opacity:1;paint-order:stroke fill markers;color-rendering:auto;image-rendering:auto;shape-rendering:auto;text-rendering:auto;enable-background:accumulate;stop-color:#000000"
         d="M 5.0214844 0.64453125 A 0.98526033 0.98523773 89.981077 0 0 4.7324219 0.68359375 A 0.98526033 0.98523773 89.981077 0 0 4.5117188 0.77539062 L 3.4882812 1.3691406 A 0.98526033 0.98523773 89.981077 0 0 2.9960938 2.2207031 L 2.9960938 3.8378906 A 0.98526033 0.98523773 89.981077 0 0 3.2109375 4.4492188 A 5.9613272 5.9614058 0.02559236 0 1 6.4042969 2.2558594 A 5.9613272 5.9614058 0.02559236 0 1 7.3183594 2.078125 A 0.98526033 0.98523773 89.981077 0 0 6.8964844 1.5859375 L 5.4980469 0.77539062 A 0.98526033 0.98523773 89.981077 0 0 5.0214844 0.64453125 z M 11.009766 0.64453125 A 0.98526033 0.98523773 89.981077 0 0 10.722656 0.68164062 A 0.98526033 0.98523773 89.981077 0 0 10.501953 0.77734375 L 9.1035156 1.5839844 A 0.98526033 0.98523773 89.981077 0 0 8.6777344 2.078125 A 5.9613272 5.9614058 0.02559236 0 1 10.945312 2.8164062 A 5.9613272 5.9614058 0.02559236 0 1 10.980469 2.8378906 A 5.9613272 5.9614058 0.02559236 0 1 12.791016 4.4511719 A 0.98526033 0.98523773 89.981077 0 0 13.003906 3.8378906 L 13.003906 2.2207031 A 0.98526033 0.98523773 89.981077 0 0 12.511719 1.3691406 L 11.486328 0.77539062 A 0.98526033 0.98523773 89.981077 0 0 11.009766 0.64453125 z M 2.3652344 5.6152344 A 0.98526033 0.98523773 89.981077 0 0 2.1425781 5.6464844 A 0.98526033 0.98523773 89.981077 0 0 1.8945312 5.7480469 L 0.4921875 6.5566406 A 0.98526033 0.98523773 89.981077 0 0 0.001953125 7.4101562 L 0 8.5917969 A 0.98526033 0.98523773 89.981077 0 0 0.4921875 9.4453125 L 1.8925781 10.251953 A 0.98526033 0.98523773 89.981077 0 0 2.53125 10.373047 A 5.9613272 5.9614058 0.02559236 0 1 2.53125 5.6269531 A 0.98526033 0.98523773 89.981077 0 0 2.3652344 5.6152344 z M 13.628906 5.6152344 A 0.98526033 0.98523773 89.981077 0 0 13.46875 5.625 A 5.9613272 5.9614058 0.02559236 0 1 13.470703 10.373047 A 0.98526033 0.98523773 89.981077 0 0 14.107422 10.251953 L 15.505859 9.4453125 A 0.98526033 0.98523773 89.981077 0 0 16 8.59375 L 16 7.4082031 A 0.98526033 0.98523773 89.981077 0 0 15.505859 6.5546875 L 14.107422 5.7480469 A 0.98526033 0.98523773 89.981077 0 0 13.628906 5.6152344 z M 12.789062 11.548828 A 5.9613272 5.9614058 0.02559236 0 1 8.6796875 13.923828 A 0.98526033 0.98523773 89.981077 0 0 9.1035156 14.416016 L 10.501953 15.222656 A 0.98526033 0.98523773 89.981077 0 0 11.488281 15.224609 L 12.513672 14.630859 A 0.98526033 0.98523773 89.981077 0 0 13.003906 13.777344 L 13.003906 12.164062 A 0.98526033 0.98523773 89.981077 0 0 12.789062 11.548828 z M 3.2109375 11.550781 A 0.98526033 0.98523773 89.981077 0 0 2.9960938 12.164062 L 2.9960938 13.779297 A 0.98526033 0.98523773 89.981077 0 0 3.4882812 14.630859 L 4.5136719 15.222656 A 0.98526033 0.98523773 89.981077 0 0 5.4980469 15.222656 L 6.8964844 14.416016 A 0.98526033 0.98523773 89.981077 0 0 7.3222656 13.921875 A 5.9613272 5.9614058 0.02559236 0 1 5.0195312 13.164062 A 5.9613272 5.9614058 0.02559236 0 1 3.2109375 11.550781 z "
         transform="scale(0.26458333)" />
      <path
         id="path1905-0"
         style="fill:#000000;stroke:none;stroke-width:0.30002;stroke-linecap:square;stroke-linejoin:round;stroke-miterlimit:4;stroke-dasharray:none;paint-order:stroke fill markers"
         d="M 2.1172862,0.56223958 C 1.9764937,0.56229641 1.8363617,0.58147985 1.7007353,0.61926347 1.3083513,0.72832935 0.97445838,0.98702388 0.77087978,1.3396993 0.34146806,2.0830164 0.59615455,3.0336497 1.3396906,3.4628208 2.0831522,3.8917514 3.0336187,3.6369095 3.4626742,2.8936003 3.8917393,2.1503964 3.637094,1.2001451 2.8938635,0.77098773 c -0.00304,-0.001877 -0.0061,-0.003744 -0.00916,-0.0056 C 2.6507946,0.63239582 2.3863649,0.56239684 2.1172862,0.56223958 Z M 2.1055742,1.6879523 c 0.020637,-4.431e-4 0.043016,0.00148 0.063654,0.00407 0.055103,0.00691 0.1100271,0.024137 0.1619355,0.053969 C 2.5386931,1.8658075 2.6083283,2.1235035 2.4885156,2.3310025 2.368705,2.538492 2.1094137,2.6081322 1.9018816,2.4883233 1.694358,2.3685206 1.6262443,2.1108246 1.7460569,1.9033192 1.8245592,1.7673594 1.9614373,1.6910523 2.1055742,1.6879523 Z" />
    </g>
  </g>
</svg>
