<?xml version="1.0" encoding="UTF-8" standalone="no"?>
<svg
   sodipodi:docname="org.gnome.DejaDup-symbolic.symbolic.svg"
   id="svg8"
   version="1.1"
   viewBox="0 0 4.2333333 4.2333334"
   height="16"
   width="16"
   xmlns:inkscape="http://www.inkscape.org/namespaces/inkscape"
   xmlns:sodipodi="http://sodipodi.sourceforge.net/DTD/sodipodi-0.dtd"
   xmlns="http://www.w3.org/2000/svg"
   xmlns:svg="http://www.w3.org/2000/svg">
  <defs
     id="defs2" />
  <sodipodi:namedview
     inkscape:window-maximized="1"
     inkscape:window-y="27"
     inkscape:window-x="1920"
     inkscape:window-height="1016"
     inkscape:window-width="1920"
     units="px"
     showgrid="false"
     inkscape:document-rotation="0"
     inkscape:current-layer="g1156"
     inkscape:document-units="px"
     inkscape:cy="9.5312501"
     inkscape:cx="13.625"
     inkscape:zoom="16"
     inkscape:pageshadow="2"
     inkscape:pageopacity="0.0"
     borderopacity="1.0"
     bordercolor="#666666"
     pagecolor="#ffffff"
     id="base"
     inkscape:pagecheckerboard="0"
     inkscape:showpageshadow="2"
     inkscape:deskcolor="#d1d1d1" />
  <g
     inkscape:label="Graphic"
     id="g1156"
     inkscape:groupmode="layer"
     style="display:inline">
    <g
       id="g2555">
      <g
         id="g2543">
        <path
           id="path1442"
           style="display:inline;opacity:0.7;fill:#000000;stroke:none;stroke-width:0.220779;stroke-linecap:round;stroke-linejoin:round;paint-order:stroke markers fill"
           d="M 8 0 A 4.1969987 4.1969318 0 0 0 3.8027344 4.1972656 A 4.1969987 4.1969318 0 0 0 8 8.3945312 A 4.1969987 4.1969318 0 0 0 12.197266 4.1972656 A 4.1969987 4.1969318 0 0 0 8 0 z M 8 1.3984375 A 2.7979994 2.7979549 0 0 1 10.798828 4.1972656 A 2.7979994 2.7979549 0 0 1 8 6.9941406 A 2.7979994 2.7979549 0 0 1 5.2011719 4.1972656 A 2.7979994 2.7979549 0 0 1 8 1.3984375 z M 8 1.9023438 L 7.5800781 2.5175781 L 7.1601562 3.1328125 L 8 3.1328125 L 8.8398438 3.1328125 L 8.4199219 2.5175781 L 8 1.9023438 z "
           transform="scale(0.26458333)" />
        <path
           id="circle1696"
           style="display:inline;opacity:1;fill:#000000;stroke:none;stroke-width:0.176624;stroke-linecap:round;stroke-linejoin:round;paint-order:stroke markers fill"
           d="M 8 0.83984375 A 3.3575992 3.3575458 0 0 0 4.6425781 4.1972656 A 3.3575992 3.3575458 0 0 0 8 7.5546875 A 3.3575992 3.3575458 0 0 0 11.357422 4.1972656 A 3.3575992 3.3575458 0 0 0 8 0.83984375 z M 8 1.6796875 A 2.5181994 2.5181593 0 0 1 10.517578 4.1972656 A 2.5181994 2.5181593 0 0 1 8 6.7148438 A 2.5181994 2.5181593 0 0 1 5.4824219 4.1972656 A 2.5181994 2.5181593 0 0 1 8 1.6796875 z M 8 2.5175781 A 1.6787998 1.678773 0 0 0 6.3203125 4.1972656 A 1.6787998 1.678773 0 0 0 8 5.875 A 1.6787998 1.678773 0 0 0 9.6796875 4.1972656 A 1.6787998 1.678773 0 0 0 8 2.5175781 z "
           transform="scale(0.26458333)" />
      </g>
      <g
         id="g2547">
        <path
           id="path7411"
           style="display:inline;opacity:0.85;fill:#000000;fill-opacity:1;stroke:none;stroke-width:0.358417;stroke-linecap:round;stroke-linejoin:round;stroke-miterlimit:4;stroke-dasharray:none;paint-order:stroke markers fill"
           d="m 1.2138112,2.3734016 a 0.14806126,0.14805842 0 0 0 -0.1279379,0.073684 0.14806126,0.14805842 0 0 0 0.053441,0.2024306 L 1.9093732,3.094054 2.056745,2.8373721 1.2874969,2.3928348 a 0.14806126,0.14805842 0 0 0 -0.073686,-0.019433 z m 1.805709,0 A 0.14806126,0.14805842 0 0 0 2.9458351,2.392835 L 2.1765869,2.8373723 2.3239587,3.0940542 3.0940167,2.6495169 A 0.14806126,0.14805842 0 0 0 3.1474585,2.4470863 0.14806126,0.14805842 0 0 0 3.0195202,2.3734016 Z M 1.9684844,3.1968891 v 0.888265 A 0.14806126,0.14805842 0 0 0 2.1166658,4.2333333 0.14806126,0.14805842 0 0 0 2.2648475,4.0851541 v -0.888265 z" />
        <ellipse
           style="display:inline;fill:#000000;fill-opacity:1;stroke:none;stroke-width:0.382654;stroke-linecap:round;stroke-linejoin:round;stroke-miterlimit:4;stroke-dasharray:none;paint-order:stroke markers fill"
           id="ellipse8130"
           cx="-1.5767304"
           cy="3.3544726"
           transform="matrix(0.50000714,-0.86602128,0.86602952,0.49999287,0,0)"
           rx="0.29611737"
           ry="0.2961202" />
      </g>
    </g>
  </g>
</svg>
