<?xml version="1.0" encoding="UTF-8" standalone="no"?>
<svg
   sodipodi:docname="org.gtk.gtk4.NodeEditor.svg"
   id="svg8"
   version="1.1"
   viewBox="0 0 67.733332 67.733335"
   height="256"
   width="256"
   xmlns:inkscape="http://www.inkscape.org/namespaces/inkscape"
   xmlns:sodipodi="http://sodipodi.sourceforge.net/DTD/sodipodi-0.dtd"
   xmlns="http://www.w3.org/2000/svg"
   xmlns:svg="http://www.w3.org/2000/svg">
  <defs
     id="defs2" />
  <sodipodi:namedview
     inkscape:window-maximized="1"
     inkscape:window-y="32"
     inkscape:window-x="1920"
     inkscape:window-height="1011"
     inkscape:window-width="1920"
     units="px"
     showgrid="false"
     inkscape:document-rotation="0"
     inkscape:current-layer="g1156"
     inkscape:document-units="px"
     inkscape:cy="150.75941"
     inkscape:cx="166.96348"
     inkscape:zoom="2.4376588"
     inkscape:pageshadow="2"
     inkscape:pageopacity="0.0"
     borderopacity="1.0"
     bordercolor="#666666"
     pagecolor="#ffffff"
     id="base"
     inkscape:pagecheckerboard="0"
     inkscape:showpageshadow="2"
     inkscape:deskcolor="#d1d1d1" />
  <g
     inkscape:label="Graphic"
     id="g1156"
     inkscape:groupmode="layer"
     style="display:inline">
    <path
       id="rect16"
       style="opacity:0.4;fill:#000000;stroke:none;stroke-width:8.26544;stroke-linecap:round;stroke-linejoin:round;paint-order:stroke markers fill"
       d="M 35.50963 14.916112 L 35.509481 24.71474 L 28.557982 28.72819 C 25.614792 30.427442 24.613344 34.164896 26.312596 37.108086 L 33.407253 49.396393 C 35.106504 52.339583 38.843959 53.341031 41.787149 51.641779 L 54.075456 44.547122 C 57.018646 42.84787 58.020093 39.110416 56.320842 36.167226 L 49.226184 23.878919 C 47.526933 20.935729 43.789479 19.934281 40.846289 21.633533 L 39.742677 22.270703 L 39.742725 13.716269 L 39.06024 14.110302 C 37.939608 14.757299 36.704198 15.010281 35.50963 14.916112 z M 53.821704 4.3436304 C 53.305973 5.4252423 52.469179 6.3686475 51.348547 7.0156446 L 50.666063 7.4096774 L 58.074444 11.686853 L 56.970832 12.324023 C 54.027642 14.023275 53.026194 17.760729 54.725446 20.703919 L 61.820103 32.992226 C 63.519355 35.935416 67.256809 36.936864 70.199999 35.237612 L 82.488306 28.142955 C 85.431496 26.443703 86.432944 22.706249 84.733692 19.763059 L 77.639035 7.4747523 C 75.939783 4.5315624 72.202329 3.5301146 69.259139 5.2293661 L 62.30764 9.2428162 L 53.821704 4.3436304 z "
       transform="rotate(30)" />
    <g
       id="g12"
       style="fill:#e6e6e6">
      <rect
         style="opacity:1;fill:#e6e6e6;stroke:none;stroke-width:8.26544;stroke-linecap:round;stroke-linejoin:round;paint-order:stroke markers fill"
         id="rect8"
         width="4.2333331"
         height="26.458334"
         x="34.980625"
         y="0.79238385"
         transform="rotate(30)" />
      <rect
         style="opacity:1;fill:#e6e6e6;stroke:none;stroke-width:8.26544;stroke-linecap:round;stroke-linejoin:round;paint-order:stroke markers fill"
         id="rect10"
         width="4.2333331"
         height="26.458334"
         x="-23.67816"
         y="34.65905"
         transform="matrix(-0.8660254,0.5,0.5,0.8660254,0,0)" />
    </g>
    <rect
       style="opacity:0.4;fill:#000000;fill-opacity:1;stroke:none;stroke-width:4.5742;stroke-linecap:round;stroke-linejoin:round;paint-order:stroke markers fill"
       id="rect18"
       width="26.458334"
       height="26.458334"
       x="20.637501"
       y="5.2916665"
       ry="6.1344881" />
    <g
       id="g22">
      <rect
         style="opacity:1;fill:#dd42eb;fill-opacity:1;stroke:none;stroke-width:4.5742;stroke-linecap:round;stroke-linejoin:round;paint-order:stroke markers fill"
         id="rect2"
         width="26.458334"
         height="26.458334"
         x="4.2333331"
         y="38.099998"
         ry="6.1344881" />
      <rect
         style="opacity:1;fill:#f6882d;fill-opacity:1;stroke:none;stroke-width:4.5742;stroke-linecap:round;stroke-linejoin:round;paint-order:stroke markers fill"
         id="rect4"
         width="26.458334"
         height="26.458334"
         x="37.041668"
         y="38.099998"
         ry="6.1344881" />
      <rect
         style="opacity:1;fill:#37ec2a;fill-opacity:1;stroke:none;stroke-width:4.5742;stroke-linecap:round;stroke-linejoin:round;paint-order:stroke markers fill"
         id="rect5"
         width="26.458334"
         height="26.458334"
         x="20.637501"
         y="4.2333331"
         ry="6.1344881" />
    </g>
    <path
       id="rect21"
       style="opacity:0.1;fill:#f9f9f9;fill-opacity:1;stroke:none;stroke-width:4.5742;stroke-linecap:round;stroke-linejoin:round;paint-order:stroke markers fill"
       d="M 26.772009 4.2333333 C 23.373506 4.2333333 20.6375 6.9693396 20.6375 10.367843 L 20.6375 10.897009 C 20.6375 7.4985063 23.373506 4.7625 26.772009 4.7625 L 40.961324 4.7625 C 44.359827 4.7625 47.095833 7.4985063 47.095833 10.897009 L 47.095833 10.367843 C 47.095833 6.9693396 44.359827 4.2333333 40.961324 4.2333333 L 26.772009 4.2333333 z " />
  </g>
</svg>
