<?xml version="1.0" encoding="UTF-8" standalone="no"?>
<svg
   xmlns:dc="http://purl.org/dc/elements/1.1/"
   xmlns:cc="http://creativecommons.org/ns#"
   xmlns:rdf="http://www.w3.org/1999/02/22-rdf-syntax-ns#"
   xmlns:svg="http://www.w3.org/2000/svg"
   xmlns="http://www.w3.org/2000/svg"
   xmlns:sodipodi="http://sodipodi.sourceforge.net/DTD/sodipodi-0.dtd"
   xmlns:inkscape="http://www.inkscape.org/namespaces/inkscape"
   sodipodi:docname="org.freedesktop.Piper-symbolic.svg"
   inkscape:version="1.0.2 (e86c870879, 2021-01-15)"
   id="svg8"
   version="1.1"
   viewBox="0 0 4.2333332 4.2333332"
   height="16"
   width="16">
  <defs
     id="defs2" />
  <sodipodi:namedview
     inkscape:window-maximized="1"
     inkscape:window-y="27"
     inkscape:window-x="1920"
     inkscape:window-height="1016"
     inkscape:window-width="1920"
     units="px"
     showgrid="false"
     inkscape:document-rotation="0"
     inkscape:current-layer="g1939"
     inkscape:document-units="px"
     inkscape:cy="11.712499"
     inkscape:cx="8.7717675"
     inkscape:zoom="22.627417"
     inkscape:pageshadow="2"
     inkscape:pageopacity="0.0"
     borderopacity="1.0"
     bordercolor="#666666"
     pagecolor="#ffffff"
     id="base" />
  <metadata
     id="metadata5">
    <rdf:RDF>
      <cc:Work
         rdf:about="">
        <dc:format>image/svg+xml</dc:format>
        <dc:type
           rdf:resource="http://purl.org/dc/dcmitype/StillImage" />
        <dc:title />
      </cc:Work>
    </rdf:RDF>
  </metadata>
  <g
     id="g1043"
     transform="translate(75.382088,-6.1796408)" />
  <g
     inkscape:groupmode="layer"
     id="g1939"
     inkscape:label="Icon"
     style="display:inline">
    <path
       id="path1917"
       style="display:inline;fill:#808080;fill-opacity:1;stroke:none;stroke-width:0.806763;stroke-linecap:butt;stroke-linejoin:round;stroke-miterlimit:4;stroke-dasharray:none;paint-order:stroke fill markers"
       d="M 1.2297391,0.3561989 C 0.81385308,0.33081428 0.42588284,0.59913128 0.31367087,1.017912 L 0.22839867,1.3356123 0.22011467,1.3663103 1.2009899,1.628949 1.3116001,1.214282 C 1.2782631,1.204312 1.2586781,1.170644 1.2677461,1.136806 l 0.098915,-0.36935048 c 0.0091,-0.033946 0.043028,-0.053557 0.076988,-0.045316 L 1.5255122,0.41710776 1.4085672,0.38543512 C 1.3487415,0.3694049 1.2891515,0.35982524 1.2297391,0.3561989 Z m 0.3561946,0.0769885 -0.081862,0.30551852 c 0.033583,0.00982 0.053445,0.043989 0.044343,0.077963 L 1.4494977,1.1855326 c -0.00904,0.033762 -0.043209,0.052717 -0.076988,0.044829 L 1.2614121,1.6455163 2.2418,1.9081549 2.25009,1.8774569 2.335358,1.5597564 C 2.4635978,1.0811499 2.1814857,0.59261543 1.7028787,0.46437296 Z M 0.19867508,1.4471971 0.13874082,1.670367 0.04908308,2.0051217 C -0.12628871,2.6596178 0.18294596,3.3076204 0.74295608,3.4576746 1.3029661,3.6077288 1.8953961,3.2014623 2.0707677,2.5469664 l 0.089658,-0.3347548 0.059935,-0.2231699 z" />
    <g
       id="g987"
       transform="matrix(1.1179302,0,0,1.1179302,-0.29578569,-0.44467127)">
      <g
         id="g1903"
         transform="matrix(0.09395311,0.05424384,-0.05424386,0.09395307,2.5978691,-2.7699662)"
         style="fill:none;stroke:#808080;stroke-opacity:1">
        <path
           id="path1891"
           style="fill:none;stroke:#808080;stroke-width:2.18603;stroke-linecap:butt;stroke-linejoin:round;stroke-miterlimit:4;stroke-dasharray:none;stroke-opacity:1;paint-order:stroke fill markers"
           d="m 29.77074,35.874154 -0.896556,1.552897 h 3.105792 l -0.896554,-1.552897 z" />
        <path
           id="path1893"
           style="fill:none;stroke:#808080;stroke-width:2.18603;stroke-linecap:butt;stroke-linejoin:round;stroke-miterlimit:4;stroke-dasharray:none;stroke-opacity:1;paint-order:stroke fill markers"
           d="m 29.77074,51.438344 -0.896556,-1.552897 h 3.105792 l -0.896554,1.552897 z" />
        <path
           id="path1895"
           style="fill:none;stroke:#808080;stroke-width:2.18603;stroke-linecap:butt;stroke-linejoin:round;stroke-miterlimit:4;stroke-dasharray:none;stroke-opacity:1;paint-order:stroke fill markers"
           d="m 36.838393,39.196809 -1.793126,8e-6 1.552896,2.689695 0.896571,-1.552887 z" />
        <path
           id="path1897"
           style="fill:none;stroke:#808080;stroke-width:2.18603;stroke-linecap:butt;stroke-linejoin:round;stroke-miterlimit:4;stroke-dasharray:none;stroke-opacity:1;paint-order:stroke fill markers"
           d="m 23.359409,46.978904 0.89657,-1.552889 1.552896,2.689695 -1.793125,1e-5 z" />
        <path
           id="path1899"
           style="fill:none;stroke:#808080;stroke-width:2.18603;stroke-linecap:butt;stroke-linejoin:round;stroke-miterlimit:4;stroke-dasharray:none;stroke-opacity:1;paint-order:stroke fill markers"
           d="m 37.494723,46.978898 -0.89657,-1.552889 -1.552896,2.689695 1.793125,10e-6 z" />
        <path
           id="path1901"
           style="fill:none;stroke:#808080;stroke-width:2.18603;stroke-linecap:butt;stroke-linejoin:round;stroke-miterlimit:4;stroke-dasharray:none;stroke-opacity:1;paint-order:stroke fill markers"
           d="m 24.015739,39.196803 1.793127,8e-6 -1.552897,2.689695 -0.896571,-1.552887 z" />
      </g>
      <path
         id="path1905-0"
         style="fill:#808080;fill-opacity:1;stroke:none;stroke-width:0.523574;stroke-linecap:square;stroke-linejoin:round;stroke-miterlimit:4;stroke-dasharray:none;paint-order:stroke fill markers"
         d="M 11.689453,8.5585938 A 2.7121931,2.7121921 15.000001 0 0 9.3242188,9.9160156 2.7121931,2.7121921 15.000001 0 0 10.316406,13.619141 2.7121931,2.7121921 15.000001 0 0 14.021484,12.626953 2.7121931,2.7121921 15.000001 0 0 13.029297,8.921875 2.7121931,2.7121921 15.000001 0 0 13.013667,8.914065 2.7121931,2.7121921 15.000001 0 0 11.689448,8.5585963 Z m 0.0039,1.8222652 A 0.88959915,0.8895962 27.03799 0 1 12.117188,10.5 a 0.88959915,0.8895962 27.03799 0 1 0.326171,1.216797 0.88959915,0.8895962 27.03799 0 1 -1.214843,0.324219 0.88959915,0.8895962 27.03799 0 1 -0.326172,-1.214844 0.88959915,0.8895962 27.03799 0 1 0.791015,-0.445313 z"
         transform="scale(0.26458333)" />
    </g>
  </g>
</svg>
