<?xml version="1.0" encoding="UTF-8" standalone="no"?>
<svg
   xmlns:dc="http://purl.org/dc/elements/1.1/"
   xmlns:cc="http://creativecommons.org/ns#"
   xmlns:rdf="http://www.w3.org/1999/02/22-rdf-syntax-ns#"
   xmlns:svg="http://www.w3.org/2000/svg"
   xmlns="http://www.w3.org/2000/svg"
   xmlns:sodipodi="http://sodipodi.sourceforge.net/DTD/sodipodi-0.dtd"
   xmlns:inkscape="http://www.inkscape.org/namespaces/inkscape"
   sodipodi:docname="org.gnome.Photos-symbolic.svg"
   inkscape:version="1.0.2 (e86c870879, 2021-01-15)"
   id="svg8"
   version="1.1"
   viewBox="0 0 4.2333333 4.2333334"
   height="16"
   width="16">
  <defs
     id="defs2" />
  <sodipodi:namedview
     inkscape:window-maximized="1"
     inkscape:window-y="0"
     inkscape:window-x="0"
     inkscape:window-height="1016"
     inkscape:window-width="1836"
     units="px"
     showgrid="false"
     inkscape:document-rotation="0"
     inkscape:current-layer="g1174"
     inkscape:document-units="px"
     inkscape:cy="45.221075"
     inkscape:cx="-10.004257"
     inkscape:zoom="4"
     inkscape:pageshadow="2"
     inkscape:pageopacity="0.0"
     borderopacity="1.0"
     bordercolor="#666666"
     pagecolor="#ffffff"
     id="base" />
  <metadata
     id="metadata5">
    <rdf:RDF>
      <cc:Work
         rdf:about="">
        <dc:format>image/svg+xml</dc:format>
        <dc:type
           rdf:resource="http://purl.org/dc/dcmitype/StillImage" />
        <dc:title></dc:title>
      </cc:Work>
    </rdf:RDF>
  </metadata>
  <g
     inkscape:groupmode="layer"
     id="layer1"
     inkscape:label="Icon"
     style="display:inline">
    <g
       inkscape:label="Shadow"
       id="layer10"
       inkscape:groupmode="layer"
       style="display:none;opacity:0.4">
      <path
         id="path1320"
         style="color:#000000;font-style:normal;font-variant:normal;font-weight:normal;font-stretch:normal;font-size:medium;line-height:normal;font-family:sans-serif;font-variant-ligatures:normal;font-variant-position:normal;font-variant-caps:normal;font-variant-numeric:normal;font-variant-alternates:normal;font-variant-east-asian:normal;font-feature-settings:normal;font-variation-settings:normal;text-indent:0;text-align:start;text-decoration:none;text-decoration-line:none;text-decoration-style:solid;text-decoration-color:#000000;letter-spacing:normal;word-spacing:normal;text-transform:none;writing-mode:lr-tb;direction:ltr;text-orientation:mixed;dominant-baseline:auto;baseline-shift:baseline;text-anchor:start;white-space:normal;shape-padding:0;shape-margin:0;inline-size:0;clip-rule:nonzero;display:inline;overflow:visible;visibility:visible;isolation:auto;mix-blend-mode:normal;color-interpolation:sRGB;color-interpolation-filters:linearRGB;solid-color:#000000;solid-opacity:1;vector-effect:none;fill:#000000;fill-opacity:1;fill-rule:nonzero;stroke:none;stroke-width:12.0055;stroke-linecap:round;stroke-linejoin:round;stroke-miterlimit:4;stroke-dasharray:none;stroke-dashoffset:0;stroke-opacity:1;paint-order:markers fill stroke;color-rendering:auto;image-rendering:auto;shape-rendering:auto;text-rendering:auto;enable-background:accumulate;stop-color:#000000"
         d="m 33.693563,3.1774957 c -0.995117,0.0291 -1.967413,0.304776 -2.829283,0.803052 L 8.5669329,16.855726 c -0.923002,0.53315 -1.687581,1.30243 -2.214853,2.22881 -0.515253,0.90504 -0.785964,1.92893 -0.785998,2.97036 -8.7e-5,8.5807 -2.65e-4,17.1614 -0.0011,25.7421 -5.29e-4,1.1134 0.308708,2.20499 0.892969,3.15278 0.522759,0.84724 1.248011,1.5512 2.110468,2.04845 7.4325421,4.28958 14.8633231,8.58097 22.2952781,12.8726 0.963967,0.55716 2.063612,0.83515 3.17655,0.80305 0.995117,-0.0291 1.967413,-0.30477 2.829285,-0.80305 L 59.16692,52.995646 c 0.923002,-0.53315 1.687582,-1.30243 2.214852,-2.22881 0.515252,-0.90503 0.785964,-1.92893 0.785999,-2.97036 0.0027,-9.68232 -0.0016,-16.85924 -0.0016,-25.74726 -2.16e-4,-1.06592 -0.28406,-2.11256 -0.822688,-3.03238 -0.526159,-0.89874 -1.277308,-1.64501 -2.179196,-2.16576 C 51.731069,12.555442 44.280167,8.2600187 36.87004,3.9805477 35.906073,3.4233907 34.806428,3.1454017 33.69349,3.1774957 Z"
         sodipodi:nodetypes="ccccccccccccccccccc" />
    </g>
    <g
       style="display:inline"
       inkscape:label="Colour"
       id="g1174"
       inkscape:groupmode="layer">
      <path
         id="path950"
         style="color:#000000;font-style:normal;font-variant:normal;font-weight:normal;font-stretch:normal;font-size:medium;line-height:normal;font-family:sans-serif;font-variant-ligatures:normal;font-variant-position:normal;font-variant-caps:normal;font-variant-numeric:normal;font-variant-alternates:normal;font-variant-east-asian:normal;font-feature-settings:normal;font-variation-settings:normal;text-indent:0;text-align:start;text-decoration:none;text-decoration-line:none;text-decoration-style:solid;text-decoration-color:#000000;letter-spacing:normal;word-spacing:normal;text-transform:none;writing-mode:lr-tb;direction:ltr;text-orientation:mixed;dominant-baseline:auto;baseline-shift:baseline;text-anchor:start;white-space:normal;shape-padding:0;shape-margin:0;inline-size:0;clip-rule:nonzero;display:inline;overflow:visible;visibility:visible;isolation:auto;mix-blend-mode:normal;color-interpolation:sRGB;color-interpolation-filters:linearRGB;solid-color:#000000;solid-opacity:1;vector-effect:none;fill:#808080;fill-opacity:1;fill-rule:nonzero;stroke:none;stroke-width:0.249017;stroke-linecap:round;stroke-linejoin:round;stroke-miterlimit:4;stroke-dasharray:none;stroke-dashoffset:0;stroke-opacity:1;paint-order:markers fill stroke;color-rendering:auto;image-rendering:auto;shape-rendering:auto;text-rendering:auto;enable-background:accumulate;stop-color:#000000"
         d="M 2.1132615,1.0060217e-5 C 2.0230278,5.6885022e-4 1.9346009,0.02514826 1.856951,0.07101931 1.3954919,0.34341275 0.90879469,0.63152176 0.5097406,0.86719835 0.43021111,0.91420569 0.36502434,0.98188111 0.32006115,1.062717 0.27608175,1.141765 0.25294675,1.2306588 0.25294385,1.3209766 V 2.912849 c 1.452e-5,0.073593 0.0192852,0.1445275 0.0486358,0.2115688 0.00233,0.012047 0.006427,0.023683 0.0121589,0.034532 0.002462,0.0047 0.005365,0.01037 0.008268,0.015564 3.5925e-4,6.337e-4 6.1074e-4,0.00131 9.7272e-4,0.00195 2.9251e-4,5.113e-4 6.7854e-4,9.49e-4 9.727e-4,0.00146 0.001714,0.00301 0.002971,0.00561 0.004864,0.00875 0.017173,0.028481 0.0392117,0.053248 0.061281,0.077818 0.005572,0.0062 0.009217,0.014017 0.0150771,0.019941 0.0311686,0.031522 0.0665702,0.059491 0.10505323,0.082196 0.48173991,0.2846335 0.9058384,0.5349779 1.3467256,0.7956954 h 4.864e-4 c 0.00828,0.00489 0.017753,0.00679 0.026264,0.011186 0.033098,0.017126 0.066795,0.033273 0.1026215,0.0428 0.016583,0.00439 0.034113,0.00362 0.051067,0.00632 0.027476,0.0044 0.054629,0.010877 0.082681,0.0107 0.00181,-1.13e-5 0.00355,-4.56e-4 0.00535,-4.864e-4 0.00213,-3.61e-5 0.00419,5.491e-4 0.00632,4.864e-4 0.029948,-8.973e-4 0.058888,-0.00754 0.088031,-0.013618 0.011777,-0.00245 0.023936,-0.00256 0.035505,-0.00584 0.042096,-0.011943 0.083089,-0.029073 0.121103,-0.051555 C 2.8260522,3.8978384 3.2746459,3.6308043 3.7235913,3.3661403 3.8031532,3.3191153 3.8683166,3.2514416 3.9132709,3.1706218 3.9571762,3.0917068 3.9803849,3.0028322 3.9803879,2.912362 3.9797628,2.3816458 3.9811376,1.8509556 3.9799018,1.3204903 3.9798859,1.2279894 3.9563076,1.1371845 3.9103526,1.0568806 3.8654343,0.97836893 3.8007232,0.91305776 3.723105,0.86719835 3.2338488,0.57671879 2.8505554,0.35191853 2.3758945,0.07101931 2.2964074,0.0240791 2.2056569,-5.7157978e-4 2.1132615,1.0060217e-5 Z M 2.1152114,0.30739256 c 0.036583,-2.3043e-4 0.072548,0.009302 0.104567,0.0282092 l 0.1663342,0.0982457 c 0.00653,0.005494 0.043727,0.0465802 0.076845,0.15417764 0.033905,0.11015441 0.064874,0.28536641 0.077331,0.5452148 v 0.372069 L 2.1925377,1.2995766 h -4.863e-4 c -0.00106,-6.181e-4 -0.00234,-3.825e-4 -0.0034,-9.727e-4 C 2.0084902,1.1921548 1.8284745,1.085505 1.6483036,0.97906224 h -4.863e-4 c -0.00197,-0.001195 -0.00372,-0.002251 -0.00584,-0.003405 -6.471e-4,-3.2993e-4 -0.0013,-6.5419e-4 -0.00195,-9.7274e-4 C 1.4823149,0.89167584 1.3518387,0.83399003 1.2378179,0.79375729 1.4963165,0.64117486 1.7546477,0.48830937 2.0130722,0.33560169 c 0.031191,-0.0184258 0.066347,-0.0279875 0.102135,-0.0282092 z M 2.800003,0.67848883 3.5669889,1.1312944 c 0.031324,0.018507 0.057663,0.045626 0.076358,0.078305 0.019181,0.033518 0.029661,0.071748 0.029668,0.1108912 V 1.517468 C 3.6694343,1.538617 3.5814816,1.7254892 3.1599028,2.0038327 3.05584,2.0653117 2.9517201,2.1266817 2.8476614,2.1881649 V 1.1205881 C 2.8391384,0.94111204 2.8224892,0.79845361 2.7999984,0.67848883 Z M 0.87450877,1.0276987 c 0.0275336,-6.404e-4 0.0683894,0.00216 0.12304846,0.014591 C 1.10655,1.0670677 1.2695052,1.1270147 1.495101,1.2455902 1.6013072,1.3083352 1.7074578,1.3710695 1.8136652,1.4338134 L 1.4630014,1.6410046 c -0.00102,6.016e-4 -0.00143,0.00181 -0.00243,0.00243 C 1.278466,1.7510249 1.0964889,1.8587997 0.91439188,1.9663807 h -4.8635e-4 c -3.7982e-4,2.241e-4 -5.9268e-4,2.622e-4 -9.7273e-4,4.864e-4 -0.001673,9.788e-4 -0.003228,0.00236 -0.004864,0.0034 -4.8861e-4,3.208e-4 -9.7496e-4,6.451e-4 -0.001459,9.728e-4 C 0.7611972,2.0670711 0.6500951,2.1518676 0.56032178,2.230965 V 1.3209766 c 1.24e-6,-0.03829 0.009866,-0.075977 0.0282087,-0.1089457 0.0187433,-0.033697 0.0457598,-0.061297 0.0778172,-0.08025 l 0.16584795,-0.098246 c 0.003452,-0.00135 0.016008,-0.00523 0.0423132,-0.00584 z M 2.1166659,1.6137682 2.5402834,1.8642461 V 2.3690926 L 2.1166659,2.6195705 1.6925622,2.3690926 V 1.8642461 Z M 3.6730101,2.0023736 V 2.2873833 2.912362 c -1.2e-6,0.038468 -0.00995,0.076123 -0.028209,0.1089456 -0.018747,0.033704 -0.04575,0.061296 -0.077817,0.08025 L 3.401623,3.1993166 c -0.0065,0.00265 -0.058352,0.016152 -0.1658478,-0.00827 C 3.1267714,3.1662898 2.9639046,3.1063642 2.738231,2.9877486 2.6320452,2.9250153 2.5258538,2.8622596 2.4196667,2.7995253 2.7233483,2.6196723 3.0537286,2.4241475 3.3330508,2.2577197 3.4751689,2.1637307 3.5846496,2.0801764 3.6730101,2.0023736 Z m -2.2873395,0.041827 c -2.69e-4,0.3753044 -5.41e-5,0.7523032 4.863e-4,1.0738977 0.00858,0.176811 0.02493,0.3180865 0.047176,0.4367554 L 0.66634771,3.1020443 c -0.0153049,-0.00903 -0.0296256,-0.020298 -0.0423131,-0.033073 -0.0132628,-0.013323 -0.0244595,-0.028477 -0.034045,-0.045232 -0.0191152,-0.033403 -0.02966,-0.07157 -0.0296678,-0.1108913 V 2.7153844 c 0.003603,-0.021351 0.091069,-0.20801 0.51262079,-0.4863648 0.1042388,-0.061583 0.208481,-0.1232449 0.312728,-0.184819 z m 0.3068916,0.6838288 0.3477456,0.205246 4.864e-4,4.863e-4 c 0.1897976,0.1112743 0.3841278,0.225939 0.552506,0.3248906 0.1577248,0.08301 0.2881951,0.1407026 0.4022177,0.1809278 l -0.775744,0.458157 c -0.014931,0.00883 -0.030867,0.015688 -0.047176,0.020427 -4.288e-4,1.233e-4 -0.00152,3.661e-4 -0.00195,4.863e-4 -0.00364,0.00102 -0.0075,6.48e-4 -0.011186,0.00146 -0.012984,0.00282 -0.025995,0.00514 -0.039395,0.00535 -0.018903,3.275e-4 -0.037793,-0.00144 -0.055931,-0.00632 -0.017568,-0.00475 -0.034612,-0.01197 -0.050581,-0.0214 L 1.8472239,3.7994912 C 1.8407348,3.7940312 1.8034951,3.7527471 1.7703794,3.6453137 1.736476,3.5353279 1.7050777,3.3608061 1.6925622,3.1015579 Z"
         sodipodi:nodetypes="ccccccccccccccccccccssccccccccccccsccscccccccccccsscccccccccccccccccccccccccccccccccccccccccccccccccccccccccccccccccccccccc" />
    </g>
    <g
       inkscape:groupmode="layer"
       id="layer2"
       inkscape:label="Highlight"
       style="display:none;opacity:0.1">
      <path
         id="path1353"
         style="color:#000000;font-style:normal;font-variant:normal;font-weight:normal;font-stretch:normal;font-size:medium;line-height:normal;font-family:sans-serif;font-variant-ligatures:normal;font-variant-position:normal;font-variant-caps:normal;font-variant-numeric:normal;font-variant-alternates:normal;font-variant-east-asian:normal;font-feature-settings:normal;font-variation-settings:normal;text-indent:0;text-align:start;text-decoration:none;text-decoration-line:none;text-decoration-style:solid;text-decoration-color:#000000;letter-spacing:normal;word-spacing:normal;text-transform:none;writing-mode:lr-tb;direction:ltr;text-orientation:mixed;dominant-baseline:auto;baseline-shift:baseline;text-anchor:start;white-space:normal;shape-padding:0;shape-margin:0;inline-size:0;clip-rule:nonzero;display:inline;overflow:visible;visibility:visible;opacity:1;isolation:auto;mix-blend-mode:normal;color-interpolation:sRGB;color-interpolation-filters:linearRGB;solid-color:#000000;solid-opacity:1;vector-effect:none;fill:#ffffff;fill-opacity:1;fill-rule:nonzero;stroke:none;stroke-width:12.0055;stroke-linecap:round;stroke-linejoin:round;stroke-miterlimit:4;stroke-dasharray:none;stroke-dashoffset:0;stroke-opacity:1;paint-order:markers fill stroke;color-rendering:auto;image-rendering:auto;shape-rendering:auto;text-rendering:auto;enable-background:accumulate;stop-color:#000000"
         d="m 33.692464,2.1191623 c -0.995117,0.0291 -1.967415,0.304776 -2.829285,0.803052 L 8.5658343,15.797397 c -0.9230042,0.53315 -1.6875812,1.302425 -2.2148535,2.228805 -0.5152522,0.90504 -0.7859633,1.928931 -0.7859977,2.970361 -5.3e-6,0.352778 2.7e-6,0.705555 0,1.058333 3.44e-5,-1.04143 0.2707455,-2.065321 0.7859977,-2.970361 0.5272723,-0.92638 1.2918493,-1.695654 2.2148535,-2.228804 L 30.863179,3.9805473 c 0.86187,-0.498276 1.834168,-0.773951 2.829285,-0.803052 1.112938,-0.03209 2.212583,0.245895 3.17655,0.803052 7.410127,4.2794706 14.861029,8.5748987 22.294247,12.8705327 0.901888,0.52075 1.653036,1.267019 2.179195,2.165759 0.538628,0.91982 0.822473,1.966453 0.822689,3.032373 -1.4e-5,-0.35985 0,-0.692994 0,-1.058334 -2.16e-4,-1.065919 -0.284061,-2.112552 -0.822689,-3.032372 -0.526159,-0.89874 -1.277307,-1.64501 -2.179195,-2.16576 C 51.730043,11.497112 44.279141,7.2016851 36.869014,2.9222143 35.905047,2.3650573 34.805402,2.0870683 33.692464,2.1191623 Z" />
    </g>
  </g>
</svg>
