<?xml version="1.0" encoding="UTF-8" standalone="no"?>
<svg
   sodipodi:docname="org.gtk.gtk4.NodeEditor.svg"
   id="svg8"
   version="1.1"
   viewBox="0 0 67.733332 67.733335"
   height="256"
   width="256"
   inkscape:version="1.4 (e7c3feb100, 2024-10-09)"
   xmlns:inkscape="http://www.inkscape.org/namespaces/inkscape"
   xmlns:sodipodi="http://sodipodi.sourceforge.net/DTD/sodipodi-0.dtd"
   xmlns="http://www.w3.org/2000/svg"
   xmlns:svg="http://www.w3.org/2000/svg">
  <defs
     id="defs2" />
  <sodipodi:namedview
     inkscape:window-maximized="1"
     inkscape:window-y="0"
     inkscape:window-x="0"
     inkscape:window-height="1043"
     inkscape:window-width="1920"
     units="px"
     showgrid="false"
     inkscape:document-rotation="0"
     inkscape:current-layer="layer6"
     inkscape:document-units="px"
     inkscape:cy="101.73696"
     inkscape:cx="135.78603"
     inkscape:zoom="2.4376588"
     inkscape:pageshadow="2"
     inkscape:pageopacity="0.0"
     borderopacity="1.0"
     bordercolor="#666666"
     pagecolor="#ffffff"
     id="base"
     inkscape:pagecheckerboard="0"
     inkscape:showpageshadow="2"
     inkscape:deskcolor="#d1d1d1" />
  <g
     inkscape:groupmode="layer"
     id="layer5"
     inkscape:label="Shadow"
     style="display:inline;opacity:0.4">
    <path
       id="rect16"
       style="display:inline;opacity:1;fill:#000000;stroke:none;stroke-width:8.26544;stroke-linecap:round;stroke-linejoin:round;paint-order:stroke markers fill"
       d="m 25.831074,-8.8032869 c -2.943193,1.6992532 -3.94464,5.4367026 -2.245387,8.37989553 L 30.680345,11.864916 c 1.052255,1.822559 2.886476,2.898043 4.829285,3.051196 l -1.49e-4,9.798628 -6.951499,4.01345 c -2.94319,1.699252 -3.944638,5.436706 -2.245386,8.379896 l 7.094657,12.288307 c 1.699251,2.94319 5.436706,3.944638 8.379896,2.245386 l 12.288307,-7.094657 c 2.94319,-1.699252 3.944637,-5.436706 2.245386,-8.379896 L 49.226184,23.878919 c -1.699251,-2.94319 -5.436705,-3.944638 -8.379895,-2.245386 l -1.103612,0.63717 4.8e-5,-8.554434 10.923338,-6.3065916 7.408381,4.2771756 -1.103612,0.63717 c -2.94319,1.699252 -3.944638,5.436706 -2.245386,8.379896 l 7.094657,12.288307 c 1.699252,2.94319 5.436706,3.944638 8.379896,2.245386 l 12.288307,-7.094657 c 2.94319,-1.699252 3.944638,-5.436706 2.245386,-8.379896 L 77.639035,7.4747523 C 75.939783,4.5315624 72.202329,3.5301146 69.259139,5.2293661 L 62.30764,9.2428162 53.821704,4.3436304 c 0.83877,-1.7590983 0.824484,-3.8853225 -0.22777,-5.7078814 l -7.094658,-12.288307 c -1.699253,-2.943193 -5.436702,-3.94464 -8.379895,-2.245386 z M 36.347082,14.920715 c 0.04648,-0.0027 0.09294,-0.0069 0.139428,-0.01068 -0.04659,0.0038 -0.09284,0.008 -0.139428,0.01068 z M 53.406965,5.0711874 c -0.02562,0.039 -0.05241,0.076939 -0.07897,0.1154064 0.02653,-0.038364 0.05337,-0.076511 0.07897,-0.1154064 z M 37.460536,14.752245 c 0.129393,-0.03218 0.258687,-0.0672 0.386859,-0.108188 -0.128328,0.04092 -0.257308,0.07611 -0.386859,0.108188 z M 52.704338,5.951232 c -0.09255,0.096155 -0.187521,0.1902601 -0.287123,0.2809353 0.09958,-0.090506 0.194558,-0.1849679 0.287123,-0.2809353 z M 38.033186,14.58035 c 0.119737,-0.04256 0.238574,-0.08924 0.356721,-0.139718 -0.118209,0.05043 -0.236924,0.09724 -0.356721,0.139718 z M 52.269148,6.3612136 c -0.09669,0.082507 -0.196581,0.1619136 -0.29936,0.2390701 0.102788,-0.077079 0.20263,-0.1566571 0.29936,-0.2390701 z M 38.557325,14.367841 c 0.169554,-0.07844 0.337857,-0.162243 0.502915,-0.257539 -0.165048,0.09529 -0.333384,0.179192 -0.502915,0.257539 z M 51.82304,6.708877 C 51.670424,6.8165218 51.513596,6.9203537 51.348547,7.0156446 51.513605,6.9203484 51.67033,6.8164941 51.82304,6.708877 Z"
       transform="rotate(30)" />
  </g>
  <g
     inkscape:label="Graphic"
     id="g1156"
     inkscape:groupmode="layer"
     style="display:inline">
    <g
       id="g12"
       style="fill:#e6e6e6">
      <rect
         style="opacity:1;fill:#e6e6e6;stroke:none;stroke-width:8.26544;stroke-linecap:round;stroke-linejoin:round;paint-order:stroke markers fill"
         id="rect8"
         width="4.2333331"
         height="26.458334"
         x="34.980625"
         y="0.79238385"
         transform="rotate(30)" />
      <rect
         style="opacity:1;fill:#e6e6e6;stroke:none;stroke-width:8.26544;stroke-linecap:round;stroke-linejoin:round;paint-order:stroke markers fill"
         id="rect10"
         width="4.2333331"
         height="26.458334"
         x="-23.67816"
         y="34.65905"
         transform="matrix(-0.8660254,0.5,0.5,0.8660254,0,0)" />
    </g>
    <g
       id="g14">
      <rect
         style="fill:#37ec2a;fill-opacity:1;stroke:none;stroke-width:4.5742;stroke-linecap:round;stroke-linejoin:round;paint-order:stroke markers fill"
         id="rect5"
         width="26.458334"
         height="26.458334"
         x="20.637501"
         y="4.2333331"
         ry="6.1344881" />
      <path
         id="path1"
         style="fill:#20d313;fill-opacity:1;stroke-linecap:round;stroke-linejoin:round;paint-order:markers fill stroke"
         d="m 26.771493,6.8786499 c -1.97848,0 -3.48816,1.5101951 -3.48816,3.4886761 v 14.189315 c 0,1.97848 1.50968,3.488159 3.48816,3.488159 h 14.189314 c 1.978481,0 3.48816,-1.509679 3.48816,-3.488159 V 10.367326 c 0,-1.978481 -1.509679,-3.4886761 -3.48816,-3.4886761 z" />
    </g>
    <g
       id="g11">
      <rect
         style="fill:#f6882d;fill-opacity:1;stroke:none;stroke-width:4.5742;stroke-linecap:round;stroke-linejoin:round;paint-order:stroke markers fill"
         id="rect4"
         width="26.458334"
         height="26.458334"
         x="37.041668"
         y="38.099998"
         ry="6.1344881" />
      <path
         id="path9"
         style="fill:#e66c0a;fill-opacity:1;stroke-linecap:round;stroke-linejoin:round"
         d="m 43.175659,40.74635 c -1.97848,0 -3.488159,1.509679 -3.488159,3.488159 v 14.189315 c 0,1.978481 1.509679,3.488159 3.488159,3.488159 h 14.189832 c 1.978481,0 3.488159,-1.509678 3.488159,-3.488159 V 44.234509 c 0,-1.97848 -1.509678,-3.488159 -3.488159,-3.488159 z" />
    </g>
    <g
       id="g13">
      <rect
         style="fill:#dd42eb;fill-opacity:1;stroke:none;stroke-width:4.5742;stroke-linecap:round;stroke-linejoin:round;paint-order:stroke markers fill"
         id="rect2"
         width="26.458334"
         height="26.458334"
         x="4.2333331"
         y="38.099998"
         ry="6.1344881" />
      <path
         id="path10"
         style="fill:#d018e2;fill-opacity:1;stroke-linecap:round;stroke-linejoin:round"
         d="m 10.367326,40.74635 c -1.978481,0 -3.4886761,1.509679 -3.4886761,3.488159 v 14.189315 c 0,1.978481 1.5101951,3.488159 3.4886761,3.488159 h 14.189315 c 1.97848,0 3.488159,-1.509678 3.488159,-3.488159 V 44.234509 c 0,-1.97848 -1.509679,-3.488159 -3.488159,-3.488159 z" />
    </g>
  </g>
  <g
     inkscape:groupmode="layer"
     id="layer6"
     inkscape:label="Highlight"
     style="display:inline;opacity:0.1">
    <path
       id="rect1"
       style="fill:#ffffff;fill-opacity:1;stroke:none;stroke-width:4.5742;stroke-linecap:round;stroke-linejoin:round;paint-order:stroke markers fill"
       d="M 26.772009 4.2333333 C 23.373503 4.2333333 20.6375 6.9693358 20.6375 10.367843 L 20.6375 11.426176 C 20.6375 8.0276686 23.373503 5.2916667 26.772009 5.2916667 L 40.961324 5.2916667 C 44.359831 5.2916667 47.095833 8.0276686 47.095833 11.426176 L 47.095833 10.367843 C 47.095833 6.9693358 44.359831 4.2333333 40.961324 4.2333333 L 26.772009 4.2333333 z " />
  </g>
</svg>
