<?xml version="1.0" encoding="UTF-8" standalone="no"?>
<svg
   xmlns:dc="http://purl.org/dc/elements/1.1/"
   xmlns:cc="http://creativecommons.org/ns#"
   xmlns:rdf="http://www.w3.org/1999/02/22-rdf-syntax-ns#"
   xmlns:svg="http://www.w3.org/2000/svg"
   xmlns="http://www.w3.org/2000/svg"
   xmlns:sodipodi="http://sodipodi.sourceforge.net/DTD/sodipodi-0.dtd"
   xmlns:inkscape="http://www.inkscape.org/namespaces/inkscape"
   sodipodi:docname="org.gtk.IconBrowser4-symbolic.symbolic.svg"
   inkscape:version="1.0.2 (e86c870879, 2021-01-15)"
   id="svg8"
   version="1.1"
   viewBox="0 0 4.2333333 4.2333334"
   height="16"
   width="16">
  <defs
     id="defs2" />
  <sodipodi:namedview
     inkscape:window-maximized="1"
     inkscape:window-y="27"
     inkscape:window-x="1920"
     inkscape:window-height="1016"
     inkscape:window-width="1920"
     units="px"
     showgrid="false"
     inkscape:document-rotation="0"
     inkscape:current-layer="g1156"
     inkscape:document-units="px"
     inkscape:cy="3.5345572"
     inkscape:cx="17.652343"
     inkscape:zoom="16"
     inkscape:pageshadow="2"
     inkscape:pageopacity="0.0"
     borderopacity="1.0"
     bordercolor="#666666"
     pagecolor="#ffffff"
     id="base" />
  <metadata
     id="metadata5">
    <rdf:RDF>
      <cc:Work
         rdf:about="">
        <dc:format>image/svg+xml</dc:format>
        <dc:type
           rdf:resource="http://purl.org/dc/dcmitype/StillImage" />
        <dc:title></dc:title>
      </cc:Work>
    </rdf:RDF>
  </metadata>
  <g
     inkscape:label="Graphic"
     id="g1156"
     inkscape:groupmode="layer"
     style="display:inline">
    <path
       id="path882"
       style="color:#000000;font-style:normal;font-variant:normal;font-weight:normal;font-stretch:normal;font-size:medium;line-height:normal;font-family:sans-serif;font-variant-ligatures:normal;font-variant-position:normal;font-variant-caps:normal;font-variant-numeric:normal;font-variant-alternates:normal;font-variant-east-asian:normal;font-feature-settings:normal;font-variation-settings:normal;text-indent:0;text-align:start;text-decoration:none;text-decoration-line:none;text-decoration-style:solid;text-decoration-color:#000000;letter-spacing:normal;word-spacing:normal;text-transform:none;writing-mode:lr-tb;direction:ltr;text-orientation:mixed;dominant-baseline:auto;baseline-shift:baseline;text-anchor:start;white-space:normal;shape-padding:0;shape-margin:0;inline-size:0;clip-rule:nonzero;display:inline;overflow:visible;visibility:visible;isolation:auto;mix-blend-mode:normal;color-interpolation:sRGB;color-interpolation-filters:linearRGB;solid-color:#000000;solid-opacity:1;vector-effect:none;fill:#000000;fill-opacity:1;fill-rule:nonzero;stroke:none;stroke-width:3.77953;stroke-linecap:round;stroke-linejoin:miter;stroke-miterlimit:4;stroke-dasharray:none;stroke-dashoffset:0;stroke-opacity:1;paint-order:stroke markers fill;color-rendering:auto;image-rendering:auto;shape-rendering:auto;text-rendering:auto;enable-background:accumulate;stop-color:#000000"
       d="M 12.632812 0 C 12.53953 -0.0035787299 12.452465 0.003863763 12.359375 0.0078125 C 12.109461 0.018248531 11.857936 0.05221449 11.607422 0.11914062 C 9.7445358 0.61676516 8.6196889 2.5499692 9.1191406 4.4082031 C 9.1976225 4.7014642 9.5134668 4.876587 9.8066406 4.7988281 C 10.099592 4.7203538 10.276019 4.4122997 10.197266 4.1191406 C 9.8546023 2.8442505 10.614635 1.5313457 11.894531 1.1894531 C 12.452371 1.0404418 12.986819 1.1890399 13.474609 1.4101562 C 13.467542 1.4441115 13.437235 1.472695 13.4375 1.5078125 C 13.439466 1.7763287 13.663547 1.9940319 13.931641 1.9941406 L 14.685547 1.9941406 C 14.821345 1.9940822 14.944002 1.9345991 15.033203 1.8457031 C 15.122264 1.756961 15.179869 1.6340058 15.179688 1.5 L 15.179688 0.74609375 C 15.179782 0.5356221 15.053313 0.36181772 14.876953 0.2890625 C 14.699918 0.21601841 14.486168 0.25218507 14.337891 0.40039062 C 14.292197 0.44594969 14.258959 0.47969581 14.220703 0.51757812 C 13.735202 0.24096531 13.204987 0.022058922 12.632812 0 z M 3.7792969 1.0214844 C 2.8351743 1.0223525 2.0336402 1.6038601 1.6503906 2.4355469 L 1.6230469 2.4921875 L 1.5625 2.4960938 C 0.69012718 2.559092 4.4408921e-16 3.3145475 0 4.2324219 C 0 5.191858 0.75131304 5.9785156 1.6796875 5.9785156 L 5.7402344 5.9785156 C 6.4367321 5.9785156 7 5.3884987 7 4.671875 A 1.2941236 1.2941236 0 0 0 6.2109375 3.4746094 L 6.1503906 3.4492188 L 6.1464844 3.3847656 C 6.0874277 2.0753324 5.0574358 1.0223591 3.78125 1.0214844 L 3.7792969 1.0214844 z M 15.3125 2.1855469 C 15.276103 2.1876396 15.244289 2.1998266 15.208984 2.2089844 L 15.203125 2.2089844 C 14.910854 2.2874882 14.732703 2.5940028 14.810547 2.8867188 C 15.153237 4.1616071 14.393177 5.4686546 13.113281 5.8105469 C 12.555495 5.9595472 12.020965 5.8167715 11.533203 5.5957031 C 11.540535 5.561196 11.570577 5.535743 11.570312 5.5 C 11.568323 5.231494 11.344268 5.01378 11.076172 5.0136719 L 10.322266 5.0136719 C 10.186354 5.0137312 10.065691 5.0655649 9.9765625 5.1542969 C 9.8875055 5.2430326 9.8279436 5.3659931 9.828125 5.5 L 9.828125 6.2617188 C 9.8280165 6.4722384 9.9544915 6.6381899 10.130859 6.7109375 C 10.3079 6.7839504 10.521645 6.7555756 10.669922 6.6074219 C 10.724672 6.5528304 10.764917 6.506152 10.810547 6.4609375 C 11.581987 6.8954951 12.481456 7.126328 13.400391 6.8808594 C 15.263279 6.3832347 16.380311 4.4578431 15.880859 2.5996094 C 15.818481 2.3676241 15.610795 2.1972853 15.371094 2.1855469 C 15.355106 2.1851848 15.336285 2.1845285 15.320312 2.1855469 L 15.3125 2.1855469 z M 5.6445312 9.140625 C 4.8985069 9.140625 4.2871094 9.7540184 4.2871094 10.5 C 4.2871094 10.528233 4.2950608 10.554237 4.296875 10.582031 L 2.4199219 11.666016 C 2.16968 11.35055 1.7862606 11.144531 1.3554688 11.144531 C 0.60944478 11.144531 -1.4802974e-16 11.754021 0 12.5 C 0 13.245981 0.60944478 13.859375 1.3554688 13.859375 C 1.7869633 13.859375 2.1697198 13.651821 2.4199219 13.333984 L 4.296875 14.417969 C 4.2952215 14.445635 4.2871094 14.471941 4.2871094 14.5 C 4.2871094 15.245981 4.8985066 15.859375 5.6445312 15.859375 C 6.3905548 15.859375 7 15.245981 7 14.5 C 7 13.75402 6.3905548 13.142578 5.6445312 13.142578 C 5.1842729 13.142578 4.7765977 13.375537 4.53125 13.728516 L 2.6972656 12.669922 C 2.704545 12.613388 2.7167969 12.558356 2.7167969 12.5 C 2.7167969 12.442162 2.7063621 12.386057 2.6992188 12.330078 L 4.5332031 11.271484 C 4.7787401 11.623056 5.185361 11.855469 5.6445312 11.855469 C 6.3905552 11.855469 7 11.245978 7 10.5 C 7 9.7540184 6.3905552 9.140625 5.6445312 9.140625 z M 10.75 9.7109375 C 9.7835007 9.7109398 9 10.514587 9 11.505859 C 9 12.70434 9.5687921 13.197215 10.044922 13.685547 C 10.657788 14.314127 11.614498 15.110623 12.5 15.751953 C 13.385501 15.110623 14.34221 14.314125 14.955078 13.685547 C 15.431206 13.197215 16 12.70434 16 11.505859 C 16 10.514587 15.216499 9.7109375 14.25 9.7109375 C 13.283502 9.7109375 12.5 10.223569 12.5 11.214844 C 12.5 10.223569 11.716497 9.7109398 10.75 9.7109375 z M 5.6445312 9.7988281 C 6.0363798 9.7988281 6.3457031 10.108173 6.3457031 10.5 C 6.3457031 10.891825 6.0363809 11.201172 5.6445312 11.201172 C 5.2526827 11.201172 4.9433594 10.891823 4.9433594 10.5 C 4.9433594 10.108171 5.25268 9.7988281 5.6445312 9.7988281 z M 1.3554688 11.796875 C 1.7473192 11.796875 2.0566406 12.108176 2.0566406 12.5 C 2.0566406 12.891829 1.7473195 13.201172 1.3554688 13.201172 C 0.9636195 13.201172 0.65234375 12.891826 0.65234375 12.5 C 0.65234375 12.108175 0.96361932 11.796875 1.3554688 11.796875 z M 5.6445312 13.796875 C 6.0363798 13.796875 6.3457031 14.108174 6.3457031 14.5 C 6.3457031 14.891825 6.0363809 15.205078 5.6445312 15.205078 C 5.2526827 15.205078 4.9433594 14.891828 4.9433594 14.5 C 4.9433594 14.108171 5.25268 13.796875 5.6445312 13.796875 z "
       transform="scale(0.26458333)" />
  </g>
</svg>
