<?xml version="1.0" encoding="UTF-8" standalone="no"?>
<svg
   xmlns:dc="http://purl.org/dc/elements/1.1/"
   xmlns:cc="http://creativecommons.org/ns#"
   xmlns:rdf="http://www.w3.org/1999/02/22-rdf-syntax-ns#"
   xmlns:svg="http://www.w3.org/2000/svg"
   xmlns="http://www.w3.org/2000/svg"
   xmlns:sodipodi="http://sodipodi.sourceforge.net/DTD/sodipodi-0.dtd"
   xmlns:inkscape="http://www.inkscape.org/namespaces/inkscape"
   sodipodi:docname="org.remmina.Remmina-symbolic.symbolic.svg"
   inkscape:version="1.0.2 (e86c870879, 2021-01-15)"
   id="svg4705"
   version="1.1"
   viewBox="0 0 4.2333333 4.2333333"
   height="16"
   width="16">
  <defs
     id="defs4699" />
  <sodipodi:namedview
     units="px"
     inkscape:document-rotation="0"
     inkscape:window-maximized="1"
     inkscape:window-y="27"
     inkscape:window-x="1920"
     inkscape:window-height="1016"
     inkscape:window-width="1920"
     fit-margin-bottom="0"
     fit-margin-right="0"
     fit-margin-left="0"
     fit-margin-top="0"
     showgrid="false"
     inkscape:current-layer="layer2"
     inkscape:document-units="px"
     inkscape:cy="9.6060963"
     inkscape:cx="7.4925874"
     inkscape:zoom="31.678384"
     inkscape:pageshadow="2"
     inkscape:pageopacity="0.0"
     borderopacity="1.0"
     bordercolor="#666666"
     pagecolor="#ffffff"
     id="base"
     inkscape:pagecheckerboard="true" />
  <metadata
     id="metadata4702">
    <rdf:RDF>
      <cc:Work
         rdf:about="">
        <dc:format>image/svg+xml</dc:format>
        <dc:type
           rdf:resource="http://purl.org/dc/dcmitype/StillImage" />
        <dc:title></dc:title>
      </cc:Work>
    </rdf:RDF>
  </metadata>
  <g
     style="display:inline"
     inkscape:label="Graphic"
     id="layer2"
     inkscape:groupmode="layer">
    <g
       style="display:inline;fill:#ffffff;fill-opacity:1;stroke-width:1.00019;stroke-miterlimit:4;stroke-dasharray:none"
       transform="scale(0.05508925)"
       id="g855">
      <polygon
         id="polygon853"
         points="20.618,48.012 43.32,32.877 20.618,17.742 20.618,26.923 29.549,32.877 20.618,38.831 "
         class="st1"
         style="fill:#ffffff;fill-opacity:1;stroke-width:1.00019;stroke-miterlimit:4;stroke-dasharray:none" />
    </g>
    <g
       style="display:inline;fill:#ffffff;fill-opacity:1"
       transform="scale(0.05508925)"
       id="g861">
      <g
         style="fill:#ffffff;fill-opacity:1"
         id="g859">
        <polygon
           id="polygon857"
           points="55.388,28.962 32.685,44.097 55.388,59.232 55.388,50.051 46.457,44.097 55.388,38.143 "
           class="st2"
           style="fill:#ffffff;fill-opacity:1" />
      </g>
    </g>
    <g
       style="display:inline;fill:#ffffff;fill-opacity:1"
       transform="scale(0.05508925)"
       id="g867">
      <path
         id="path865"
         d="m 64.776,23.074 c 2.632,4.509 4.147,9.75 4.147,15.348 0,16.845 -13.656,30.5 -30.5,30.5 -9.922,0 -18.734,-4.741 -24.304,-12.077 L 7.53,61.238 c 7.005,9.461 18.243,15.607 30.892,15.607 21.186,0 38.423,-17.236 38.423,-38.423 0,-7.215 -2.002,-13.97 -5.476,-19.744 z"
         class="st1"
         inkscape:connector-curvature="0"
         style="fill:#ffffff;fill-opacity:1" />
    </g>
    <g
       style="display:inline;fill:#ffffff;fill-opacity:1"
       transform="scale(0.05508925)"
       id="g871">
      <path
         id="path869"
         d="m 7.922,38.423 c 0,-16.845 13.656,-30.5 30.5,-30.5 9.826,0 18.561,4.652 24.139,11.868 l 6.596,-4.397 C 62.142,6.053 50.976,0 38.423,0 17.236,0 0,17.236 0,38.423 0,45.543 1.954,52.212 5.343,57.936 L 11.937,53.54 C 9.387,49.083 7.922,43.925 7.922,38.423 Z"
         class="st2"
         inkscape:connector-curvature="0"
         style="fill:#ffffff;fill-opacity:1" />
    </g>
  </g>
</svg>
