<?xml version="1.0" encoding="UTF-8" standalone="no"?>
<svg
   sodipodi:docname="org.gnome.Settings-symbolic.symbolic.svg"
   id="svg4705"
   version="1.1"
   viewBox="0 0 4.2333333 4.2333333"
   height="16"
   width="16"
   xmlns:inkscape="http://www.inkscape.org/namespaces/inkscape"
   xmlns:sodipodi="http://sodipodi.sourceforge.net/DTD/sodipodi-0.dtd"
   xmlns="http://www.w3.org/2000/svg"
   xmlns:svg="http://www.w3.org/2000/svg">
  <defs
     id="defs4699" />
  <sodipodi:namedview
     units="px"
     inkscape:document-rotation="0"
     inkscape:window-maximized="1"
     inkscape:window-y="32"
     inkscape:window-x="1920"
     inkscape:window-height="1011"
     inkscape:window-width="1920"
     fit-margin-bottom="0"
     fit-margin-right="0"
     fit-margin-left="0"
     fit-margin-top="0"
     showgrid="false"
     inkscape:current-layer="layer6"
     inkscape:document-units="px"
     inkscape:cy="11.640506"
     inkscape:cx="2.6703165"
     inkscape:zoom="19.286103"
     inkscape:pageshadow="2"
     inkscape:pageopacity="0.0"
     borderopacity="1.0"
     bordercolor="#666666"
     pagecolor="#ffffff"
     id="base"
     inkscape:showpageshadow="2"
     inkscape:pagecheckerboard="0"
     inkscape:deskcolor="#d1d1d1" />
  <g
     inkscape:label="Graphic"
     id="layer6"
     inkscape:groupmode="layer">
    <path
       id="path1905-0"
       style="fill:#000000;stroke:none;stroke-width:0.302102;stroke-linecap:square;stroke-linejoin:round;stroke-miterlimit:4;stroke-dasharray:none;paint-order:stroke fill markers"
       d="M 1.3713204,0.18271407 A 0.27836564,0.27837267 64.102883 0 0 1.2030353,0.2188166 L 0.91363133,0.38535422 a 0.27836564,0.27837267 64.102883 0 0 -0.1391701,0.2410719 l 5.823e-4,0.45652268 a 0.27836564,0.27837267 64.102883 0 0 0.0541536,0.163626 c -0.0237355,0.034396 -0.0465003,0.069519 -0.0675467,0.1059783 -0.021088,0.036504 -0.0398123,0.073806 -0.057648,0.1112191 a 0.27836654,0.27837176 0.00104105 0 0 -0.0361024,-0.00291 0.27836654,0.27837176 0.00104105 0 0 -0.0628884,0.00931 0.27836654,0.27837176 0.00104105 0 0 -0.0698763,0.028532 L 0.13917011,1.7269718 A 0.27836654,0.27837176 0.00104105 0 0 5.8230001e-4,1.9680437 L 0,2.3022835 a 0.27836654,0.27837176 0.00104105 0 0 0.13917011,0.2410719 l 0.39538287,0.2276791 a 0.27836654,0.27837176 0.00104105 0 0 0.16828521,0.034938 c 0.035776,0.075631 0.0773397,0.1488674 0.12519478,0.2183626 a 0.27837267,0.27836564 25.898647 0 0 -0.019216,0.027951 0.27837267,0.27836564 25.898647 0 0 -0.0238741,0.059395 0.27837267,0.27836564 25.898647 0 0 -0.0104853,0.074534 v 0.457686 A 0.27837267,0.27836564 25.898647 0 0 0.91420993,3.8843907 L 1.2030312,4.0515104 A 0.27837267,0.27836564 25.898647 0 0 1.4813713,4.052093 L 1.8761761,3.8232492 A 0.27837267,0.27836564 25.898647 0 0 1.9914718,3.6957256 c 0.083757,0.00666 0.1673515,0.00617 0.2503898,-5.822e-4 a 0.27836564,0.27837267 64.102883 0 0 0.01514,0.031444 0.27836564,0.27837267 64.102883 0 0 0.039014,0.050078 0.27836564,0.27837267 64.102883 0 0 0.059978,0.046585 l 0.3959651,0.2288438 a 0.27836564,0.27837267 64.102883 0 0 0.2783392,-5.83e-4 L 3.3197019,3.884973 A 0.27836564,0.27837267 64.102883 0 0 3.458872,3.6439011 L 3.4582898,3.1873784 A 0.27836564,0.27837267 64.102883 0 0 3.4047182,3.0243346 c 0.023707,-0.034412 0.046295,-0.069745 0.067547,-0.1065607 0.02111,-0.036566 0.039803,-0.073743 0.057648,-0.1112192 a 0.27836654,0.27837176 0.00104105 0 0 0.03552,0.00291 0.27836654,0.27837176 0.00104105 0 0 0.062889,-0.00931 0.27836654,0.27837176 0.00104105 0 0 0.069876,-0.028532 L 4.0941635,2.5433554 A 0.27836654,0.27837176 0.00104105 0 0 4.232751,2.3022835 L 4.2333333,1.9680437 A 0.27836654,0.27837176 0.00104105 0 0 4.0941635,1.7269718 L 3.6987805,1.4992927 A 0.27836654,0.27837176 0.00104105 0 0 3.5304954,1.4643548 C 3.4949156,1.3892558 3.4527915,1.3167911 3.4053005,1.2477394 a 0.27837267,0.27836564 25.898647 0 0 0.019216,-0.029697 0.27837267,0.27836564 25.898647 0 0 0.023874,-0.059395 0.27837267,0.27836564 25.898647 0 0 0.010485,-0.074534 V 0.62642612 A 0.27837267,0.27836564 25.898647 0 0 3.3191197,0.38593651 L 3.0302981,0.2188166 A 0.27837267,0.27836564 25.898647 0 0 2.7519577,0.21823431 L 2.3571574,0.44707793 A 0.27837267,0.27836564 25.898647 0 0 2.2424439,0.57576609 c -0.041573,-0.003355 -0.0833,-0.005798 -0.1251949,-0.005823 -0.041916,1.694e-5 -0.083519,0.002425 -0.1251949,0.005823 A 0.27836564,0.27837267 64.102883 0 0 1.9763321,0.54373962 0.27836564,0.27837267 64.102883 0 0 1.9373181,0.49366183 0.27836564,0.27837267 64.102883 0 0 1.8773411,0.44707792 L 1.4813755,0.21823431 A 0.27836564,0.27837267 64.102883 0 0 1.3713204,0.18271407 Z M 2.1166667,1.2407518 A 0.89441543,0.89441171 0 0 1 3.0110821,2.1351636 0.89441543,0.89441171 0 0 1 2.1166667,3.0295754 0.89441543,0.89441171 0 0 1 1.2222512,2.1351636 0.89441543,0.89441171 0 0 1 2.1166667,1.2407518 Z" />
  </g>
</svg>
