<?xml version="1.0" encoding="UTF-8" standalone="no"?>
<svg
   width="256"
   height="256"
   viewBox="0 0 67.733332 67.733335"
   version="1.1"
   id="svg8"
   sodipodi:docname="org.gnome.DiskUtility.svg"
   inkscape:version="1.4 (e7c3feb100, 2024-10-09)"
   xmlns:inkscape="http://www.inkscape.org/namespaces/inkscape"
   xmlns:sodipodi="http://sodipodi.sourceforge.net/DTD/sodipodi-0.dtd"
   xmlns="http://www.w3.org/2000/svg"
   xmlns:svg="http://www.w3.org/2000/svg">
  <defs
     id="defs2" />
  <sodipodi:namedview
     id="base"
     pagecolor="#ffffff"
     bordercolor="#666666"
     borderopacity="1.0"
     inkscape:pageopacity="0.0"
     inkscape:pageshadow="2"
     inkscape:zoom="1.0000001"
     inkscape:cx="121.99999"
     inkscape:cy="72.999995"
     inkscape:document-units="px"
     inkscape:current-layer="svg8"
     inkscape:document-rotation="0"
     showgrid="false"
     inkscape:window-width="1920"
     inkscape:window-height="1011"
     inkscape:window-x="0"
     inkscape:window-y="0"
     inkscape:window-maximized="1"
     units="px"
     inkscape:pagecheckerboard="0"
     inkscape:showpageshadow="2"
     inkscape:deskcolor="#d1d1d1" />
  <g
     inkscape:groupmode="layer"
     id="layer4"
     inkscape:label="Background"
     style="display:inline">
    <g
       inkscape:groupmode="layer"
       id="g8"
       inkscape:label="Shadow"
       style="display:inline;opacity:0.4">
      <rect
         style="display:inline;fill:#000000;fill-opacity:1;stroke:none;stroke-width:0.309707;stroke-linecap:round;stroke-linejoin:round"
         id="rect7"
         width="46.566666"
         height="59.266666"
         x="10.583333"
         y="5.2916665"
         ry="6.2591023" />
    </g>
    <g
       style="display:inline"
       inkscape:label="Colour"
       id="g9"
       inkscape:groupmode="layer">
      <rect
         style="display:inline;fill:#bdbdbd;fill-opacity:1;stroke:none;stroke-width:0.309707;stroke-linecap:round;stroke-linejoin:round"
         id="rect8"
         width="46.566666"
         height="59.266666"
         x="10.583333"
         y="4.2333331"
         ry="6.2591023"
         inkscape:label="rect2" />
      <path
         id="path8"
         style="display:inline;opacity:0.15;fill:#ffffff;fill-opacity:1;stroke:none;stroke-width:0.309707;stroke-linecap:round;stroke-linejoin:round"
         d="m 50.890951,4.2333333 c 3.467543,0 6.25905,2.791507 6.25905,6.2590497 v 46.748568 c 0,3.467542 -2.791507,6.259049 -6.25905,6.259049 H 33.866667 V 4.2333333 Z" />
    </g>
    <g
       inkscape:groupmode="layer"
       id="g10"
       inkscape:label="Highlight"
       style="display:inline;opacity:0.4">
      <path
         id="path9"
         style="display:inline;fill:#ffffff;fill-opacity:1;stroke:none;stroke-width:0.309707;stroke-linecap:round;stroke-linejoin:round"
         inkscape:label="rect2"
         d="m 16.842383,4.2333333 c -3.467543,0 -6.25905,2.7915068 -6.25905,6.2590497 v 1.058333 c 0,-3.4675425 2.791507,-6.2590493 6.25905,-6.2590493 h 34.048568 c 3.467542,0 6.259049,2.7915068 6.259049,6.2590493 v -1.058333 c 0,-3.4675429 -2.791507,-6.2590497 -6.259049,-6.2590497 z" />
    </g>
  </g>
  <g
     inkscape:groupmode="layer"
     id="layer2"
     inkscape:label="Graphic"
     style="display:inline">
    <g
       inkscape:groupmode="layer"
       id="g16"
       inkscape:label="Shadow"
       style="display:inline;opacity:0.4">
      <path
         id="path16"
         style="display:inline;fill:#000000;fill-opacity:1;stroke-width:0.0248451"
         inkscape:transform-center-x="1.787408"
         d="m 36.610122,43.568919 c -2.250996,0.267275 -13.399116,5.950137 -19.787217,10.226195 -5.86244,3.765998 -0.574064,9.939388 5.320991,5.130625 6.121196,-4.993236 15.478387,-14.491273 14.793939,-15.335986 -0.06694,-0.03233 -0.177652,-0.03865 -0.327713,-0.02083 z"
         inkscape:transform-center-y="-0.0016223954" />
    </g>
    <path
       id="path17"
       style="fill:#4d4d4d;stroke-width:0.0493478"
       d="m 33.839012,11.90625 c -1.81111,0.0034 -3.605668,0.344872 -5.291468,1.006837 -0.06008,0.02352 -0.120006,0.04744 -0.17977,0.07176 -0.178912,0.0732 -0.356349,0.149949 -0.532203,0.230214 -0.117493,0.05339 -0.234271,0.108346 -0.350302,0.164845 -0.231932,0.113263 -0.460809,0.232677 -0.686389,0.358115 -0.169142,0.094 -0.336393,0.191364 -0.501652,0.292035 -0.385519,0.234706 -0.759909,0.48722 -1.121957,0.756724 -0.103596,0.07703 -0.206162,0.155433 -0.307671,0.235191 -0.304076,0.239459 -0.598478,0.490953 -0.882503,0.753884 -0.04743,0.04374 -0.09456,0.0878 -0.141399,0.132165 -0.327152,0.310965 -0.639658,0.636983 -0.936506,0.976995 -0.04248,0.04851 -0.08464,0.0973 -0.126475,0.146373 -0.250805,0.294936 -0.48974,0.599764 -0.716234,0.913756 -0.0753,0.104647 -0.149202,0.21029 -0.221692,0.316901 -0.145488,0.213195 -0.285279,0.430224 -0.419223,0.650855 -0.03329,0.05497 -0.06621,0.110153 -0.09877,0.165556 -0.03282,0.05568 -0.06527,0.111578 -0.09734,0.167691 -0.03187,0.05592 -0.06338,0.112056 -0.09451,0.168397 -0.03117,0.05664 -0.06196,0.113481 -0.09237,0.170529 -0.03046,0.05664 -0.06054,0.113489 -0.09024,0.170531 -0.237785,0.458241 -0.451016,0.928812 -0.638788,1.409715 -0.04684,0.120185 -0.09208,0.240987 -0.135711,0.362375 -0.02196,0.06049 -0.04352,0.121123 -0.06467,0.181898 v 7.28e-4 c -0.02101,0.06073 -0.04162,0.121604 -0.06182,0.18261 v 7.28e-4 c -0.0203,0.06097 -0.0402,0.122082 -0.05969,0.183319 -0.05817,0.184583 -0.11266,0.370308 -0.163426,0.557065 -0.01699,0.06218 -0.03357,0.124473 -0.04973,0.186873 v 7.27e-4 c -0.01605,0.06219 -0.03168,0.124479 -0.0469,0.186872 v 7.27e-4 c -0.01534,0.06243 -0.03026,0.124958 -0.04477,0.187585 -0.05788,0.251546 -0.109059,0.504588 -0.15348,0.758857 -0.01107,0.0634 -0.02173,0.126881 -0.03196,0.190426 v 7.27e-4 c -0.01013,0.06341 -0.01984,0.126886 -0.02913,0.190425 -0.0094,0.06389 -0.01843,0.127839 -0.027,0.191848 -0.0171,0.127923 -0.0325,0.256068 -0.04619,0.384401 -0.01379,0.128205 -0.02587,0.256588 -0.03624,0.385114 -0.01023,0.128489 -0.01876,0.257109 -0.02557,0.385825 v 7.28e-4 c -0.0093,0.174194 -0.01546,0.348542 -0.01848,0.522958 v 0.01422 c -2.11e-4,0.01473 -0.0022,0.02909 -0.0022,0.04394 v 0.191843 11.516461 c 0,1.681483 1.35397,3.035435 3.035472,3.035435 3.905142,0 8.05461,-0.0045 11.903869,-0.0045 3.786145,-0.100816 7.383807,-1.673786 10.028712,-4.384755 0.04507,-0.04642 0.08983,-0.09313 0.134283,-0.140147 2.569169,-2.70436 4.001715,-6.29204 4.001819,-10.022191 -1.06e-4,-0.06442 -6.39e-4,-0.128847 -0.0016,-0.193264 -0.03109,-2.332641 -0.622546,-4.623618 -1.724506,-6.679803 v -7.28e-4 C 44.159016,14.85716 39.230207,11.906628 33.866517,11.906579 h -0.02772 z m -0.0334,5.456961 c 0.02037,-6.8e-5 0.04073,-6.8e-5 0.0611,0 5.023057,-2e-6 9.095051,4.071937 9.095052,9.094931 0,5.022993 -4.07199,9.094933 -9.095046,9.094934 -5.023056,0 -9.095047,-4.071941 -9.095047,-9.094934 -1.12e-4,-4.999224 4.034765,-9.061342 9.033939,-9.094931 z"
       sodipodi:nodetypes="ccccccccccccccccccccccccccccccccccsccccccccccscsccccccccsccscsscss" />
    <path
       id="path19"
       style="fill:#f9f9f9;fill-opacity:1;stroke-width:0.0248451"
       inkscape:transform-center-x="1.787408"
       d="m 36.610122,42.510585 c -2.250996,0.267275 -13.399116,5.950137 -19.787217,10.226195 -5.86244,3.765998 -0.574064,9.939388 5.320991,5.130625 6.121196,-4.993236 15.478387,-14.491273 14.793939,-15.335986 -0.06694,-0.03233 -0.177652,-0.03865 -0.327713,-0.02083 z"
       inkscape:transform-center-y="-0.0016223954" />
    <g
       id="g22">
      <circle
         cy="56.356243"
         cx="17.727215"
         id="circle19"
         style="display:inline;fill:#b8b8b8;fill-opacity:1;stroke-width:0.017581"
         r="1.3229166" />
      <circle
         style="display:inline;fill:#ececec;fill-opacity:1;stroke-width:0.0330729"
         id="circle20"
         cx="17.727083"
         cy="11.377084"
         r="1.3229166" />
      <circle
         r="1.3229166"
         cy="11.377084"
         cx="50.006248"
         id="circle21"
         style="display:inline;fill:#ececec;fill-opacity:1;stroke-width:0.0330729" />
      <circle
         r="1.3229166"
         cy="56.356251"
         cx="50.006248"
         id="circle22"
         style="display:inline;fill:#ececec;fill-opacity:1;stroke-width:0.0330729" />
    </g>
  </g>
</svg>
