<?xml version="1.0" encoding="UTF-8" standalone="no"?>
<svg
   xmlns:dc="http://purl.org/dc/elements/1.1/"
   xmlns:cc="http://creativecommons.org/ns#"
   xmlns:rdf="http://www.w3.org/1999/02/22-rdf-syntax-ns#"
   xmlns:svg="http://www.w3.org/2000/svg"
   xmlns="http://www.w3.org/2000/svg"
   xmlns:sodipodi="http://sodipodi.sourceforge.net/DTD/sodipodi-0.dtd"
   xmlns:inkscape="http://www.inkscape.org/namespaces/inkscape"
   sodipodi:docname="org.gnome.Boxes.svg"
   inkscape:version="1.0.2 (e86c870879, 2021-01-15)"
   id="svg8"
   version="1.1"
   viewBox="0 0 67.733332 67.733335"
   height="256"
   width="256">
  <defs
     id="defs2" />
  <sodipodi:namedview
     inkscape:window-maximized="1"
     inkscape:window-y="27"
     inkscape:window-x="1920"
     inkscape:window-height="1016"
     inkscape:window-width="1920"
     units="px"
     showgrid="false"
     inkscape:document-rotation="0"
     inkscape:current-layer="g5516"
     inkscape:document-units="px"
     inkscape:cy="148.43768"
     inkscape:cx="99.613997"
     inkscape:zoom="2.0000001"
     inkscape:pageshadow="2"
     inkscape:pageopacity="0.0"
     borderopacity="1.0"
     bordercolor="#666666"
     pagecolor="#ffffff"
     id="base" />
  <metadata
     id="metadata5">
    <rdf:RDF>
      <cc:Work
         rdf:about="">
        <dc:format>image/svg+xml</dc:format>
        <dc:type
           rdf:resource="http://purl.org/dc/dcmitype/StillImage" />
        <dc:title />
      </cc:Work>
    </rdf:RDF>
  </metadata>
  <g
     inkscape:label="Graphic"
     id="g5516"
     inkscape:groupmode="layer"
     style="display:inline">
    <g
       inkscape:groupmode="layer"
       id="layer1"
       inkscape:label="Shadow"
       style="display:inline;opacity:0.4">
      <rect
         style="display:inline;fill:#000000;stroke-width:1.33268;paint-order:stroke fill markers"
         id="rect960"
         width="56.885418"
         height="42.333229"
         x="-6.1207203e-08"
         y="21.733664"
         ry="5.8556614" />
    </g>
    <path
       id="path6940"
       style="fill:#00ff00;stroke-width:1.08783;paint-order:stroke fill markers"
       d="m 26.280573,10.256573 c -2.658157,0 -4.798052,2.139903 -4.798052,4.798068 v 25.091477 c 0,2.658147 2.139895,4.798059 4.798052,4.798059 h 36.653969 c 2.658153,0 4.798633,-2.139912 4.798633,-4.798059 V 15.054641 c 0,-2.658165 -2.14048,-4.798068 -4.798633,-4.798068 z m 1.832532,1.734574 H 61.102 c 2.392357,0 4.318209,1.925861 4.318209,4.318214 v 22.582028 c 0,2.392346 -1.925852,4.318787 -4.318209,4.318787 H 28.113105 c -2.392341,0 -4.318199,-1.926441 -4.318199,-4.318787 V 16.309361 c 0,-2.392353 1.925858,-4.318214 4.318199,-4.318214 z" />
    <path
       id="rect6461"
       style="fill:#00ff00;stroke-width:1.20865;paint-order:stroke fill markers"
       d="m 16.263373,15.53174 c -2.953513,0 -5.331184,2.377671 -5.331184,5.33119 v 27.879447 c 0,2.953506 2.377671,5.3312 5.331184,5.3312 h 40.726669 c 2.953504,0 5.331819,-2.377694 5.331819,-5.3312 V 20.86293 c 0,-2.953519 -2.378315,-5.33119 -5.331819,-5.33119 z m 2.036145,1.927324 h 36.654377 c 2.658165,0 4.798002,2.139844 4.798002,4.798006 v 25.091175 c 0,2.658147 -2.139837,4.798644 -4.798002,4.798644 H 18.299518 c -2.65816,0 -4.798005,-2.140497 -4.798005,-4.798644 V 22.25707 c 0,-2.658162 2.139845,-4.798006 4.798005,-4.798006 z" />
    <rect
       style="fill:#20a220;stroke-width:1.33268;paint-order:stroke fill markers;fill-opacity:1"
       id="rect5274"
       width="56.885418"
       height="42.333229"
       x="-6.1207203e-08"
       y="20.675329"
       ry="5.8556614" />
    <g
       id="g1028">
      <path
         id="rect5404"
         style="display:inline;fill:#ffff00;stroke-width:2.77923;paint-order:stroke fill markers"
         d="m 28.662633,26.966964 c -0.292177,0 -0.527579,0.235402 -0.527579,0.527579 v 0.772144 c 0,0.292177 0.235402,0.527579 0.527579,0.527579 h 1.476385 c 0.29218,0 0.526979,-0.235402 0.526979,-0.527579 v -0.772144 c 0,-0.292177 -0.234799,-0.527579 -0.526979,-0.527579 z m 24.234446,0 c -0.292178,0 -0.52698,0.235402 -0.52698,0.527579 v 0.772144 c 0,0.292177 0.234802,0.527579 0.52698,0.527579 h 1.476384 c 0.292177,0 0.527579,-0.235402 0.527579,-0.527579 v -0.772144 c 0,-0.292177 -0.235402,-0.527579 -0.527579,-0.527579 z m -24.234446,2.968992 c -0.292177,0 -0.527579,0.235402 -0.527579,0.527579 v 0.772143 c 0,0.292176 0.235402,0.527579 0.527579,0.527579 h 1.476385 c 0.29218,0 0.526979,-0.235403 0.526979,-0.527579 v -0.772143 c 0,-0.292177 -0.234799,-0.527579 -0.526979,-0.527579 z m 24.234446,0 c -0.292178,0 -0.52698,0.235402 -0.52698,0.527579 v 0.772143 c 0,0.292176 0.234802,0.527579 0.52698,0.527579 h 1.476384 c 0.292177,0 0.527579,-0.235403 0.527579,-0.527579 v -0.772143 c 0,-0.292177 -0.235402,-0.527579 -0.527579,-0.527579 z m -24.234446,2.96899 c -0.292177,0 -0.527579,0.235406 -0.527579,0.527583 v 0.772139 c 0,0.292177 0.235402,0.527579 0.527579,0.527579 h 1.476385 c 0.29218,0 0.526979,-0.235402 0.526979,-0.527579 v -0.772139 c 0,-0.292177 -0.234799,-0.527583 -0.526979,-0.527583 z m 24.234446,0 c -0.292178,0 -0.52698,0.235406 -0.52698,0.527583 v 0.772139 c 0,0.292177 0.234802,0.527579 0.52698,0.527579 h 1.476384 c 0.292177,0 0.527579,-0.235402 0.527579,-0.527579 v -0.772139 c 0,-0.292177 -0.235402,-0.527583 -0.527579,-0.527583 z m -24.234446,2.968991 c -0.292177,0 -0.527579,0.235406 -0.527579,0.527582 v 0.772141 c 0,0.292179 0.235402,0.527582 0.527579,0.527582 h 1.476385 c 0.29218,0 0.526979,-0.235403 0.526979,-0.527582 v -0.772141 c 0,-0.292176 -0.234799,-0.527582 -0.526979,-0.527582 z m 24.234446,0 c -0.292178,0 -0.52698,0.235406 -0.52698,0.527582 v 0.772141 c 0,0.292179 0.234802,0.527582 0.52698,0.527582 h 1.476384 c 0.292177,0 0.527579,-0.235403 0.527579,-0.527582 v -0.772141 c 0,-0.292176 -0.235402,-0.527582 -0.527579,-0.527582 z m -24.234446,2.969594 c -0.292177,0 -0.527579,0.2348 -0.527579,0.526979 v 0.772744 c 0,0.292177 0.235402,0.526979 0.527579,0.526979 h 1.476385 c 0.29218,0 0.526979,-0.234802 0.526979,-0.526979 V 39.37051 c 0,-0.292179 -0.234799,-0.526979 -0.526979,-0.526979 z m 24.234446,0 c -0.292178,0 -0.52698,0.2348 -0.52698,0.526979 v 0.772744 c 0,0.292177 0.234802,0.526979 0.52698,0.526979 h 1.476384 c 0.292177,0 0.527579,-0.234802 0.527579,-0.526979 V 39.37051 c 0,-0.292179 -0.235402,-0.526979 -0.527579,-0.526979 z m -24.234446,2.968992 c -0.292177,0 -0.527579,0.234802 -0.527579,0.526979 v 0.772743 c 0,0.292177 0.235402,0.526979 0.527579,0.526979 h 1.476385 c 0.29218,0 0.526979,-0.234802 0.526979,-0.526979 v -0.772743 c 0,-0.292177 -0.234799,-0.526979 -0.526979,-0.526979 z m 24.234446,0 c -0.292178,0 -0.52698,0.234802 -0.52698,0.526979 v 0.772743 c 0,0.292177 0.234802,0.526979 0.52698,0.526979 h 1.476384 c 0.292177,0 0.527579,-0.234802 0.527579,-0.526979 v -0.772743 c 0,-0.292177 -0.235402,-0.526979 -0.527579,-0.526979 z m -24.234446,2.968991 c -0.292177,0 -0.527579,0.234799 -0.527579,0.526979 v 0.772743 c 0,0.292177 0.235402,0.526979 0.527579,0.526979 h 1.476385 c 0.29218,0 0.526979,-0.234802 0.526979,-0.526979 v -0.772743 c 0,-0.29218 -0.234799,-0.526979 -0.526979,-0.526979 z m 24.234446,0 c -0.292178,0 -0.52698,0.234799 -0.52698,0.526979 v 0.772743 c 0,0.292177 0.234802,0.526979 0.52698,0.526979 h 1.476384 c 0.292177,0 0.527579,-0.234802 0.527579,-0.526979 v -0.772743 c 0,-0.29218 -0.235402,-0.526979 -0.527579,-0.526979 z m -24.234446,2.96899 c -0.292177,0 -0.527579,0.235403 -0.527579,0.527579 v 0.772145 c 0,0.292176 0.235402,0.527579 0.527579,0.527579 h 1.476385 c 0.29218,0 0.526979,-0.235403 0.526979,-0.527579 v -0.772145 c 0,-0.292176 -0.234799,-0.527579 -0.526979,-0.527579 z m 24.234446,0 c -0.292178,0 -0.52698,0.235403 -0.52698,0.527579 v 0.772145 c 0,0.292176 0.234802,0.527579 0.52698,0.527579 h 0.317869 1.158515 c 0.292177,0 0.527579,-0.235403 0.527579,-0.527579 v -0.772145 c 0,-0.292176 -0.235402,-0.527579 -0.527579,-0.527579 h -1.158515 z" />
      <g
         id="g1021">
        <rect
           style="fill:#000000;stroke-width:2.99013;paint-order:stroke fill markers;opacity:0.9"
           id="rect975"
           width="28.548594"
           height="22.863121"
           x="25.056307"
           y="-52.95768"
           ry="1.9579594"
           transform="rotate(90)" />
        <rect
           style="fill:#333333;stroke-width:2.99013;paint-order:stroke fill markers"
           id="rect5482"
           width="28.548594"
           height="22.863121"
           x="23.997974"
           y="-52.95768"
           ry="1.9579594"
           transform="rotate(90)" />
      </g>
      <path
         id="path5486"
         style="fill:#ffffff;fill-rule:nonzero;stroke:none;stroke-width:0.146353;stroke-miterlimit:4"
         d="m 47.07687,29.623495 c -3.602493,0 -4.278134,5.125578 -2.25153,5.125578 2.026311,0 5.854171,-5.125578 2.25153,-5.125578 z m -5.566034,0.627927 c -0.05721,-1.98e-4 -0.117489,0.0038 -0.180867,0.01203 -2.027335,0.262857 -1.314438,3.784673 -0.234947,3.850496 1.045329,0.06377 2.189169,-3.856409 0.415814,-3.862514 z m -3.449701,1.394665 c -0.123891,-0.0081 -0.261877,0.01636 -0.414612,0.07931 -1.629486,0.671696 -0.247065,3.444373 0.665784,3.258017 0.827934,-0.168619 0.946433,-3.259221 -0.251172,-3.337333 z m -2.659534,2.17221 c -0.141675,-0.0048 -0.294752,0.04191 -0.457877,0.154431 -1.304404,0.900324 0.438541,3.075559 1.205983,2.73825 0.671516,-0.295278 0.243618,-2.85934 -0.748106,-2.892681 z m 7.449218,1.66386 c -2.796474,-0.04726 -6.485418,1.354626 -7.114522,4.168968 -0.681343,3.045604 2.804786,7.270754 6.442126,7.270754 1.789386,0 3.853134,-1.614173 4.239271,-3.658812 0.294912,-1.559153 -3.470235,-0.934345 -3.334931,0.09735 0.162098,1.236614 -0.908342,1.847555 -1.956495,1.050354 -3.336719,-2.537737 5.524619,-3.803731 4.940509,-7.270754 -0.181815,-1.079186 -1.538072,-1.629498 -3.215958,-1.657855 z" />
    </g>
    <path
       id="circle886"
       style="fill:#000000;stroke-width:4.11311;paint-order:stroke fill markers;opacity:0.4"
       d="M 32.285156 193.53906 A 14.320688 14.534892 0 0 0 17.964844 208.07422 A 14.320688 14.534892 0 0 0 32.285156 222.60742 A 14.320688 14.534892 0 0 0 46.605469 208.07422 A 14.320688 14.534892 0 0 0 32.285156 193.53906 z M 64.109375 193.53906 A 14.320688 14.534892 0 0 0 49.789062 208.07422 A 14.320688 14.534892 0 0 0 64.109375 222.60742 A 14.320688 14.534892 0 0 0 78.429688 208.07422 A 14.320688 14.534892 0 0 0 64.109375 193.53906 z "
       transform="scale(0.26458333)" />
    <g
       id="g961">
      <g
         id="g5294"
         transform="matrix(3.1823754,0,0,3.2299762,-87.867133,-86.586968)">
        <circle
           style="fill:#333333;stroke-width:0.339435;paint-order:stroke fill markers"
           id="circle5290"
           cx="30.294792"
           cy="43.52396"
           r="1.190625" />
        <circle
           style="fill:#4d4d4d;stroke-width:0.245146;paint-order:stroke fill markers"
           id="circle5292"
           cx="30.294792"
           cy="43.52396"
           r="0.85989583" />
      </g>
      <g
         id="g5304"
         transform="matrix(3.1823754,0,0,3.2299762,-79.447098,-86.586968)">
        <circle
           style="fill:#333333;stroke-width:0.339435;paint-order:stroke fill markers"
           id="circle5300"
           cx="30.294792"
           cy="43.52396"
           r="1.190625" />
        <circle
           style="fill:#4d4d4d;stroke-width:0.245146;paint-order:stroke fill markers"
           id="circle5302"
           cx="30.294792"
           cy="43.52396"
           r="0.85989583" />
      </g>
    </g>
    <rect
       style="fill:#000000;fill-opacity:1;stroke-width:0.391804;stroke-miterlimit:4;stroke-dasharray:none;paint-order:stroke fill markers;opacity:0.4"
       id="rect969"
       width="11.416739"
       height="4.5618496"
       x="35.809673"
       y="56.182468"
       ry="2.2809248" />
    <rect
       style="fill:#999999;fill-opacity:1;stroke-width:0.391804;stroke-miterlimit:4;stroke-dasharray:none;paint-order:stroke fill markers"
       id="rect5969"
       width="11.416739"
       height="4.5618496"
       x="35.809673"
       y="55.124134"
       ry="2.2809248" />
    <path
       id="rect964"
       style="display:inline;opacity:0.1;fill:#ffffff;stroke-width:1.33268;paint-order:stroke fill markers"
       d="M 5.9014583,20.675224 C 2.6320671,20.675224 0,23.286879 0,26.530915 v 1.046189 C 0,24.333068 2.6320671,21.721412 5.9014583,21.721412 H 50.983801 c 3.269391,0 5.901457,2.611656 5.901457,5.855692 v -1.046189 c 0,-3.244036 -2.632066,-5.855691 -5.901457,-5.855691 z" />
    <g
       id="g872">
      <path
         id="rect5322"
         style="display:inline;fill:#ffff00;stroke-width:2.08646;paint-order:stroke fill markers"
         d="m 4.6183227,23.998018 c -0.2182932,0 -0.3942911,0.175998 -0.3942911,0.394291 v 1.102259 c 0,0.218292 0.1759979,0.394291 0.3942911,0.394291 h 0.5896281 c 0.2182929,0 0.3942911,-0.175999 0.3942911,-0.394291 v -1.102259 c 0,-0.218293 -0.1759982,-0.394291 -0.3942911,-0.394291 z m 2.2391398,0 c -0.2182931,0 -0.3932576,0.175998 -0.3932576,0.394291 v 1.102259 c 0,0.218292 0.1749645,0.394291 0.3932576,0.394291 h 0.5906617 c 0.2182929,0 0.3937743,-0.175999 0.3937743,-0.394291 v -1.102259 c 0,-0.218293 -0.1754814,-0.394291 -0.3937743,-0.394291 z m 2.2401734,0 c -0.2182934,0 -0.3942913,0.175998 -0.3942913,0.394291 v 1.102259 c 0,0.218292 0.1759979,0.394291 0.3942913,0.394291 h 0.5901446 c 0.2182935,0 0.3942915,-0.175999 0.3942915,-0.394291 v -1.102259 c 0,-0.218293 -0.175998,-0.394291 -0.3942915,-0.394291 z m 2.2396561,0 c -0.218294,0 -0.394291,0.175998 -0.394291,0.394291 v 1.102259 c 0,0.218292 0.175997,0.394291 0.394291,0.394291 h 0.590145 c 0.218293,0 0.393774,-0.175999 0.393774,-0.394291 v -1.102259 c 0,-0.218293 -0.175481,-0.394291 -0.393774,-0.394291 z m 2.240174,0 c -0.218293,0 -0.394291,0.175998 -0.394291,0.394291 v 1.102259 c 0,0.218292 0.175998,0.394291 0.394291,0.394291 h 0.590144 c 0.218294,0 0.393775,-0.175999 0.393775,-0.394291 v -1.102259 c 0,-0.218293 -0.175481,-0.394291 -0.393775,-0.394291 z m 2.239139,0 c -0.218293,0 -0.393774,0.175998 -0.393774,0.394291 v 1.102259 c 0,0.218292 0.175481,0.394291 0.393774,0.394291 h 0.590145 c 0.218293,0 0.394291,-0.175999 0.394291,-0.394291 v -1.102259 c 0,-0.218293 -0.175998,-0.394291 -0.394291,-0.394291 z m 2.239657,0 c -0.218293,0 -0.393258,0.175998 -0.393258,0.394291 v 1.102259 c 0,0.218292 0.174965,0.394291 0.393258,0.394291 h 0.590661 c 0.218294,0 0.393775,-0.175999 0.393775,-0.394291 v -1.102259 c 0,-0.218293 -0.175481,-0.394291 -0.393775,-0.394291 z m 2.240173,0 c -0.218293,0 -0.394291,0.175998 -0.394291,0.394291 v 1.102259 c 0,0.218292 0.175998,0.394291 0.394291,0.394291 h 0.590145 c 0.218293,0 0.394291,-0.175999 0.394291,-0.394291 v -1.102259 c 0,-0.218293 -0.175998,-0.394291 -0.394291,-0.394291 z" />
      <g
         id="g1006">
        <rect
           style="opacity:0.9;fill:#000000;stroke-width:2.24479;paint-order:stroke fill markers"
           id="rect965"
           width="21.535854"
           height="17.081644"
           x="1.9843751"
           y="26.508245"
           ry="1.4628431" />
        <rect
           style="fill:#333333;stroke-width:2.24479;paint-order:stroke fill markers"
           id="rect5400"
           width="21.535854"
           height="17.081644"
           x="1.9843751"
           y="25.449913"
           ry="1.4628431" />
      </g>
      <path
         id="path986"
         style="display:inline;fill:#ffff00;stroke-width:2.08646;paint-order:stroke fill markers"
         d="m 4.2240316,43.060937 v 1.069702 c 0,0.218295 0.1759979,0.39429 0.3942911,0.39429 h 0.5896281 c 0.2182929,0 0.3942911,-0.175995 0.3942911,-0.39429 v -1.069702 z m 2.2401733,0 v 1.069702 c 0,0.218295 0.1749645,0.39429 0.3932576,0.39429 h 0.5906617 c 0.2182929,0 0.3937743,-0.175995 0.3937743,-0.39429 v -1.069702 z m 2.2391397,0 v 1.069702 c 0,0.218295 0.1759979,0.39429 0.3942913,0.39429 h 0.5901446 c 0.2182937,0 0.3942915,-0.175995 0.3942915,-0.39429 v -1.069702 z m 2.2396564,0 v 1.069702 c 0,0.218295 0.175997,0.39429 0.394291,0.39429 h 0.590145 c 0.218293,0 0.393774,-0.175995 0.393774,-0.39429 v -1.069702 z m 2.240174,0 v 1.069702 c 0,0.218295 0.175998,0.39429 0.394291,0.39429 h 0.590144 c 0.218294,0 0.393775,-0.175995 0.393775,-0.39429 v -1.069702 z m 2.239656,0 v 1.069702 c 0,0.218295 0.175481,0.39429 0.393774,0.39429 h 0.590145 c 0.218293,0 0.394291,-0.175995 0.394291,-0.39429 v -1.069702 z m 2.240173,0 v 1.069702 c 0,0.218295 0.174965,0.39429 0.393258,0.39429 h 0.590661 c 0.218295,0 0.393775,-0.175995 0.393775,-0.39429 v -1.069702 z m 2.23914,0 v 0.203605 0.866097 c 0,0.218295 0.175998,0.39429 0.394291,0.39429 h 0.590145 c 0.218293,0 0.394291,-0.175995 0.394291,-0.39429 v -0.866097 -0.203605 z" />
    </g>
  </g>
</svg>
