<?xml version="1.0" encoding="UTF-8" standalone="no"?>
<svg
   sodipodi:docname="org.gnome.DejaDup.svg"
   id="svg8"
   version="1.1"
   viewBox="0 0 67.733332 67.733335"
   height="256"
   width="256"
   xmlns:inkscape="http://www.inkscape.org/namespaces/inkscape"
   xmlns:sodipodi="http://sodipodi.sourceforge.net/DTD/sodipodi-0.dtd"
   xmlns="http://www.w3.org/2000/svg"
   xmlns:svg="http://www.w3.org/2000/svg">
  <defs
     id="defs2" />
  <sodipodi:namedview
     inkscape:window-maximized="1"
     inkscape:window-y="27"
     inkscape:window-x="1920"
     inkscape:window-height="1016"
     inkscape:window-width="1920"
     units="px"
     showgrid="false"
     inkscape:document-rotation="0"
     inkscape:current-layer="g1156"
     inkscape:document-units="px"
     inkscape:cy="156.44738"
     inkscape:cx="199.75767"
     inkscape:zoom="2.8284271"
     inkscape:pageshadow="2"
     inkscape:pageopacity="0.0"
     borderopacity="1.0"
     bordercolor="#666666"
     pagecolor="#ffffff"
     id="base"
     inkscape:pagecheckerboard="0"
     inkscape:showpageshadow="2"
     inkscape:deskcolor="#d1d1d1" />
  <g
     inkscape:groupmode="layer"
     id="layer1"
     inkscape:label="Background"
     style="display:inline">
    <g
       inkscape:label="Shadow"
       id="layer10"
       inkscape:groupmode="layer"
       style="display:inline;opacity:0.4">
      <path
         id="path1361"
         style="display:inline;fill:#000000;fill-opacity:1;stroke-width:0.0246944;stroke-miterlimit:4;stroke-dasharray:none;paint-order:stroke fill markers"
         d="m 57.149999,10.284126 c 0,-2.7655976 -2.22686,-4.9924596 -4.99246,-4.9924596 -12.193915,0 -24.387831,0 -36.581746,0 -2.765599,0 -4.99246,2.226862 -4.99246,4.9924596 v 49.281747 c 0,2.7656 2.226861,4.99246 4.99246,4.99246 12.193915,0 24.387831,0 36.581746,0 2.7656,0 4.99246,-2.22686 4.99246,-4.99246 z"
         sodipodi:nodetypes="sccssccss" />
    </g>
    <g
       style="display:inline"
       inkscape:label="Colour"
       id="g1174"
       inkscape:groupmode="layer">
      <path
         id="rect1168"
         style="display:inline;fill:#393939;fill-opacity:1;stroke-width:0.0246944;stroke-miterlimit:4;stroke-dasharray:none;paint-order:stroke fill markers"
         d="m 57.149999,9.225793 c 0,-2.765598 -2.22686,-4.99246 -4.99246,-4.99246 -12.193915,0 -24.387831,0 -36.581746,0 -2.765599,0 -4.99246,2.226862 -4.99246,4.99246 v 49.281746 c 0,2.7656 2.226861,4.99246 4.99246,4.99246 12.193915,0 24.387831,0 36.581746,0 2.7656,0 4.99246,-2.22686 4.99246,-4.99246 z"
         sodipodi:nodetypes="sccssccss" />
      <path
         id="path2019"
         style="display:inline;opacity:0.3;fill:#333333;fill-opacity:1;stroke:#1a1a1a;stroke-width:2.11667;stroke-miterlimit:4;stroke-dasharray:none;paint-order:stroke fill markers"
         d="m 51.858333,13.625949 c 0,-2.271741 -1.720755,-4.100949 -3.85781,-4.100949 -9.42257,0 -18.845142,0 -28.267713,0 -2.137053,0 -3.85781,1.829208 -3.85781,4.100949 v 40.481435 c 0,2.271743 1.720757,4.100949 3.85781,4.100949 9.422571,0 18.845143,0 28.267713,0 2.137055,0 3.85781,-1.829206 3.85781,-4.100949 z"
         sodipodi:nodetypes="sccssccss" />
    </g>
    <g
       inkscape:groupmode="layer"
       id="layer2"
       inkscape:label="Highlight"
       style="display:inline;opacity:0.1">
      <path
         id="path1385"
         style="display:inline;fill:#ffffff;fill-opacity:1;stroke-width:0.0933332;stroke-miterlimit:4;stroke-dasharray:none;paint-order:stroke fill markers"
         d="M 58.869141,16 C 48.416483,16 40,24.416488 40,34.869141 v 4 C 40,28.416488 48.416483,20 58.869141,20 H 197.13086 C 207.58352,20 216,28.416488 216,38.869141 v -4 C 216,24.416488 207.58352,16 197.13086,16 Z"
         transform="scale(0.26458333)" />
    </g>
  </g>
  <g
     inkscape:groupmode="layer"
     id="layer3"
     inkscape:label="Large Highlight"
     style="display:inline;opacity:0.01">
    <path
       id="path974"
       style="display:inline;fill:#ffffff;fill-opacity:1;stroke-width:0.0246944;stroke-miterlimit:4;stroke-dasharray:none;paint-order:stroke fill markers"
       d="M 55.858602,61.856202 33.866663,33.869798 11.874724,5.8771916 c -0.800637,0.884888 -1.291394,2.055956 -1.291394,3.348633 V 58.50757 c 0,2.765599 2.22686,4.99246 4.99246,4.99246 12.193915,0 24.387831,0 36.581746,0 1.472923,0 2.78879,-0.635556 3.701066,-1.643828 z"
       sodipodi:nodetypes="cccssccc" />
  </g>
  <g
     inkscape:label="Graphic"
     id="g1156"
     inkscape:groupmode="layer"
     style="display:inline">
    <path
       id="path8569"
       style="display:inline;opacity:0.4;fill:#000000;fill-opacity:1;stroke:none;stroke-width:12.1038;stroke-linecap:round;stroke-linejoin:round;stroke-miterlimit:4;stroke-dasharray:none;paint-order:stroke markers fill"
       d="m 158.49219,142.85547 a 5.0000152,4.9999997 0 0 0 -2.5,0.66992 L 133,156.80078 a 10,9.9999687 0.55462252 0 0 -10.00195,0.002 L 100.00781,143.5293 a 5.0000152,4.9999997 0 0 0 -6.830076,1.83008 5.0000152,4.9999997 0 0 0 1.830078,6.83007 l 22.994138,13.27539 a 10,9.9999687 0.55462252 0 0 5,8.65821 10,9.9999687 0.55462252 0 0 0.002,0.002 v 26.54688 a 5.0000152,4.9999997 0 0 0 5,5 5.0000152,4.9999997 0 0 0 5,-5 v -26.55079 a 10,9.9999687 0.55462252 0 0 3.6582,-3.6582 10,9.9999687 0.55462252 0 0 1.33785,-5.002 l 22.99219,-13.27539 a 5.0000152,4.9999997 0 0 0 1.83008,-6.83008 5.0000152,4.9999997 0 0 0 -4.33008,-2.5 z"
       transform="scale(0.26458333)" />
    <path
       id="path8400"
       style="display:inline;opacity:0.4;fill:#000000;stroke:none;stroke-width:1.97267;stroke-linecap:round;stroke-linejoin:round;paint-order:stroke markers fill"
       d="m 128,71.5 a 15,15 0 0 0 -15,15 15,15 0 0 0 15,15 15,15 0 0 0 15,-15 15,15 0 0 0 -15,-15 z M 92.330078,74.978516 A 37.499999,37.499999 0 0 0 90.5,86.5 37.499999,37.499999 0 0 0 128,124 37.499999,37.499999 0 0 0 165.5,86.5 37.499999,37.499999 0 0 0 163.66992,74.978516 H 150.16797 A 25.000001,25.000001 0 0 1 153,86.5 a 25.000001,25.000001 0 0 1 -25,25 25.000001,25.000001 0 0 1 -25,-25 25.000001,25.000001 0 0 1 2.83203,-11.521484 z"
       transform="scale(0.26458333)" />
    <g
       id="g900">
      <g
         id="g892">
        <path
           id="path1442"
           style="display:inline;opacity:1;fill:#f2f2f2;stroke:none;stroke-width:1.97267;stroke-linecap:round;stroke-linejoin:round;paint-order:stroke markers fill"
           d="M 128,45 A 37.5,37.5 0 0 0 90.5,82.5 37.5,37.5 0 0 0 128,120 37.5,37.5 0 0 0 165.5,82.5 37.5,37.5 0 0 0 128,45 Z m 0,12.5 a 25.000001,25.000001 0 0 1 25,25 25.000001,25.000001 0 0 1 -25,25 25.000001,25.000001 0 0 1 -25,-25 25.000001,25.000001 0 0 1 25,-25 z"
           transform="scale(0.26458333)" />
        <path
           id="circle1696"
           style="display:inline;opacity:1;fill:#999999;stroke:none;stroke-width:1.57814;stroke-linecap:round;stroke-linejoin:round;paint-order:stroke markers fill"
           d="m 128,52.5 a 30,30 0 0 0 -30,30 30,30 0 0 0 30,30 30,30 0 0 0 30,-30 30,30 0 0 0 -30,-30 z m 0,7.5 A 22.5,22.5 0 0 1 150.5,82.5 22.5,22.5 0 0 1 128,105 22.5,22.5 0 0 1 105.5,82.5 22.5,22.5 0 0 1 128,60 Z"
           transform="scale(0.26458333)" />
      </g>
      <g
         id="g4820"
         style="display:inline">
        <path
           sodipodi:type="star"
           style="opacity:1;fill:#cccccc;stroke:none;stroke-width:1.5;stroke-linecap:round;stroke-linejoin:round;paint-order:stroke markers fill"
           id="path1865"
           inkscape:flatsided="false"
           sodipodi:sides="3"
           sodipodi:cx="180.49304"
           sodipodi:cy="78.027641"
           sodipodi:r1="7.2591639"
           sodipodi:r2="3.6295817"
           sodipodi:arg1="-1.5707963"
           sodipodi:arg2="-0.52359878"
           inkscape:rounded="0"
           inkscape:randomized="0"
           d="m 180.49304,70.768477 3.14331,5.444373 3.14331,5.444373 -6.28662,0 -6.28662,0 3.14331,-5.444373 z"
           transform="matrix(0.31565053,0,0,0.26728667,-23.106057,-2.5113041)"
           inkscape:transform-center-y="-0.48506958" />
        <circle
           style="opacity:1;fill:#f2f2f2;stroke:none;stroke-width:0.208774;stroke-linecap:round;stroke-linejoin:round;paint-order:stroke markers fill"
           id="circle1823"
           cx="33.866665"
           cy="21.828125"
           r="3.96875" />
      </g>
    </g>
    <g
       id="g859">
      <g
         id="g850">
        <path
           id="path7411"
           style="display:inline;opacity:1;fill:#b3b3b3;fill-opacity:1;stroke:none;stroke-width:3.20247;stroke-linecap:round;stroke-linejoin:round;stroke-miterlimit:4;stroke-dasharray:none;paint-order:stroke markers fill"
           d="m 32.544541,44.098368 -1e-6,7.937501 a 1.3229207,1.3229166 0 0 0 1.322921,1.322915 1.3229207,1.3229166 0 0 0 1.322921,-1.322916 v -7.937499 z" />
        <path
           id="path7413"
           style="display:inline;opacity:1;fill:#b3b3b3;fill-opacity:1;stroke:none;stroke-width:3.20247;stroke-linecap:round;stroke-linejoin:round;stroke-miterlimit:4;stroke-dasharray:none;paint-order:stroke markers fill"
           d="m 35.7217,43.176267 6.874097,-3.96875 a 1.3229207,1.3229166 0 0 0 0.484224,-1.807138 1.3229207,1.3229166 0 0 0 -1.807144,-0.48422 l -6.874098,3.96875 z" />
        <path
           id="path7415"
           style="display:inline;opacity:1;fill:#b3b3b3;fill-opacity:1;stroke:none;stroke-width:3.20247;stroke-linecap:round;stroke-linejoin:round;stroke-miterlimit:4;stroke-dasharray:none;paint-order:stroke markers fill"
           d="m 33.334556,40.885825 -6.874099,-3.96875 a 1.3229207,1.3229166 0 0 0 -1.807144,0.484221 1.3229207,1.3229166 0 0 0 0.484223,1.807138 l 6.874099,3.968749 z" />
      </g>
      <g
         id="g845">
        <ellipse
           style="display:inline;fill:#e6e6e6;fill-opacity:1;stroke:none;stroke-width:3.41903;stroke-linecap:round;stroke-linejoin:round;stroke-miterlimit:4;stroke-dasharray:none;paint-order:stroke markers fill"
           id="ellipse8130"
           cx="-20.063334"
           cy="50.689724"
           transform="matrix(0.50000117,-0.86602473,0.86602607,0.49999884,0,0)"
           rx="2.6458271"
           ry="2.6458313" />
        <ellipse
           style="display:inline;fill:#ffffff;fill-opacity:1;stroke:none;stroke-width:2.56428;stroke-linecap:round;stroke-linejoin:round;stroke-miterlimit:4;stroke-dasharray:none;paint-order:stroke markers fill"
           id="path5757"
           cx="-20.063377"
           cy="50.68961"
           transform="matrix(0.50000117,-0.86602472,0.86602607,0.49999884,0,0)"
           rx="1.9843765"
           ry="1.9843796" />
      </g>
    </g>
  </g>
</svg>
