<?xml version="1.0" encoding="UTF-8" standalone="no"?>
<svg
   width="256"
   height="256"
   viewBox="0 0 67.733332 67.733335"
   version="1.1"
   id="svg8"
   sodipodi:docname="gimp.svg"
   inkscape:version="1.3 (0e150ed6c4, 2023-07-21)"
   xmlns:inkscape="http://www.inkscape.org/namespaces/inkscape"
   xmlns:sodipodi="http://sodipodi.sourceforge.net/DTD/sodipodi-0.dtd"
   xmlns="http://www.w3.org/2000/svg"
   xmlns:svg="http://www.w3.org/2000/svg">
  <defs
     id="defs2" />
  <sodipodi:namedview
     id="base"
     pagecolor="#cccccc"
     bordercolor="#666666"
     borderopacity="1.0"
     inkscape:pageopacity="0.0"
     inkscape:pageshadow="2"
     inkscape:zoom="5.6568543"
     inkscape:cx="177.39541"
     inkscape:cy="231.48908"
     inkscape:document-units="px"
     inkscape:current-layer="layer5"
     inkscape:document-rotation="0"
     showgrid="false"
     units="px"
     inkscape:window-width="1920"
     inkscape:window-height="1011"
     inkscape:window-x="0"
     inkscape:window-y="0"
     inkscape:window-maximized="1"
     inkscape:showpageshadow="2"
     inkscape:pagecheckerboard="0"
     inkscape:deskcolor="#d1d1d1" />
  <g
     inkscape:groupmode="layer"
     id="g997"
     inkscape:label="Shadow"
     style="display:inline;opacity:0.4">
    <path
       id="path17"
       style="display:inline;color:#000000;font-style:normal;font-variant:normal;font-weight:normal;font-stretch:normal;font-size:medium;line-height:normal;font-family:sans-serif;font-variant-ligatures:normal;font-variant-position:normal;font-variant-caps:normal;font-variant-numeric:normal;font-variant-alternates:normal;font-variant-east-asian:normal;font-feature-settings:normal;font-variation-settings:normal;text-indent:0;text-align:start;text-decoration:none;text-decoration-line:none;text-decoration-style:solid;text-decoration-color:#000000;letter-spacing:normal;word-spacing:normal;text-transform:none;writing-mode:lr-tb;direction:ltr;text-orientation:mixed;dominant-baseline:auto;baseline-shift:baseline;text-anchor:start;white-space:normal;shape-padding:0;shape-margin:0;inline-size:0;clip-rule:nonzero;overflow:visible;visibility:visible;isolation:auto;mix-blend-mode:normal;color-interpolation:sRGB;color-interpolation-filters:linearRGB;solid-color:#000000;solid-opacity:1;vector-effect:none;fill:#000000;fill-opacity:1;fill-rule:nonzero;stroke:none;stroke-width:0.312254px;stroke-linecap:butt;stroke-linejoin:miter;stroke-miterlimit:4;stroke-dasharray:none;stroke-dashoffset:0;stroke-opacity:1;color-rendering:auto;image-rendering:auto;shape-rendering:auto;text-rendering:auto;enable-background:accumulate;stop-color:#000000"
       d="m 62.572408,11.149191 c -1.636344,0 -0.06061,4.509243 -6.897253,9.581844 -3.61645,2.683295 -8.343146,4.836154 -13.293246,5.986198 -4.950107,1.150045 -10.121933,1.297393 -14.627531,-0.01137 -8.37031,-2.431295 -8.200543,-8.826334 -10.281543,-8.826334 -1.984748,0 -1.87785,7.834186 -2.064473,11.484053 -0.09599,1.877246 -0.543534,3.539327 -0.837158,4.658114 -0.05205,0.198334 -0.13216,0.377473 -0.217041,0.545703 -1.191525,-1.281084 -2.570109,-2.35122 -4.016293,-3.041157 -1.0989585,-0.524251 -2.2405167,-0.82755 -3.3641354,-0.834575 -1.1236188,-0.0071 -2.2287774,0.283737 -3.254065,0.947746 l -0.00465,0.0021 -0.00723,0.0047 c -1.7851595,1.41654 -2.5907018,3.383365 -2.6463501,5.471501 -0.055648,2.088133 0.6307851,4.300775 1.8164266,6.257499 2.2094094,3.646293 6.568756,6.116616 10.4582769,5.669421 0.229913,0.15707 0.473469,0.277132 0.671277,0.398426 l 5.17e-4,-0.001 c 11.749411,7.420328 20.66196,9.55732 27.60865,8.900232 1.08444,-0.102577 3.591707,-0.521925 6.533968,-1.738395 l 3.301091,3.30109 c -0.126725,0.381725 -0.160369,0.741434 -0.115755,1.080038 0.0765,0.580227 0.377045,1.090335 0.787032,1.556494 0.819966,0.932319 2.084219,1.712844 3.027722,2.570386 L 55.51393,65.44005 55.367169,64.972895 C 54.913853,63.529542 54.53695,61.792936 54.63078,60.455341 v -0.0015 c 0.0334,-0.643609 -0.491085,-1.221766 -1.085722,-1.537374 -0.225325,-0.119592 -0.463797,-0.202495 -0.696081,-0.23306 l -2.899048,-2.899048 c 4.783043,-2.420375 10.16168,-7.027182 12.486059,-15.701884 2.235071,-8.341397 2.549988,-28.933118 0.136426,-28.933118 z M 55.05142,64.674606 c 5.5e-4,0.0018 5.17e-4,0.0038 5.17e-4,0.0057 -0.001,-0.0011 -0.0026,-0.002 -0.0036,-0.0031 0.001,-6.3e-4 0.0021,-0.0019 0.0031,-0.0026 z" />
  </g>
  <g
     inkscape:groupmode="layer"
     id="layer5"
     inkscape:label="Graphic"
     style="display:inline">
    <path
       id="path984"
       style="color:#000000;font-style:normal;font-variant:normal;font-weight:normal;font-stretch:normal;font-size:medium;line-height:normal;font-family:sans-serif;font-variant-ligatures:normal;font-variant-position:normal;font-variant-caps:normal;font-variant-numeric:normal;font-variant-alternates:normal;font-variant-east-asian:normal;font-feature-settings:normal;font-variation-settings:normal;text-indent:0;text-align:start;text-decoration:none;text-decoration-line:none;text-decoration-style:solid;text-decoration-color:#000000;letter-spacing:normal;word-spacing:normal;text-transform:none;writing-mode:lr-tb;direction:ltr;text-orientation:mixed;dominant-baseline:auto;baseline-shift:baseline;text-anchor:start;white-space:normal;shape-padding:0;shape-margin:0;inline-size:0;clip-rule:nonzero;display:inline;overflow:visible;visibility:visible;isolation:auto;mix-blend-mode:normal;color-interpolation:sRGB;color-interpolation-filters:linearRGB;solid-color:#000000;solid-opacity:1;vector-effect:none;fill:#544f48;fill-opacity:1;fill-rule:nonzero;stroke:none;stroke-width:0.312254px;stroke-linecap:butt;stroke-linejoin:miter;stroke-miterlimit:4;stroke-dasharray:none;stroke-dashoffset:0;stroke-opacity:1;color-rendering:auto;image-rendering:auto;shape-rendering:auto;text-rendering:auto;enable-background:accumulate;stop-color:#000000"
       d="m 62.5722,10.09088 c -1.636346,0 -0.06032,4.509144 -6.896975,9.58175 -3.616453,2.683298 -8.343001,4.835967 -13.293106,5.986012 -4.950112,1.150046 -10.122082,1.297403 -14.627684,-0.01136 -8.370319,-2.431298 -8.200601,-8.826144 -10.281603,-8.826144 -1.98475,0 -1.877934,7.834115 -2.064557,11.483986 -0.09599,1.877248 -0.543516,3.539352 -0.837141,4.65814 -0.146512,0.55825 -0.496299,1.013152 -0.637117,1.27519 -0.240727,0.44795 -0.760361,5.334477 -1.234017,13.012379 0.262256,0.637174 0.888079,0.876528 1.307281,1.133578 l 5.16e-4,-10e-4 c 11.749423,7.420335 20.662178,9.557601 27.608875,8.900512 2.984951,-0.282346 16.699857,-2.886497 20.819222,-18.260175 2.235073,-8.341405 2.54987,-28.932868 0.136306,-28.932868 z"
       sodipodi:nodetypes="ssscsssscccsss" />
    <rect
       style="opacity:1;fill:#9e5f1b;fill-opacity:1;stroke-width:1.69371;stroke-linecap:round;stroke-linejoin:round;stroke-dasharray:none;paint-order:stroke markers fill"
       id="rect17"
       width="13.229153"
       height="1.8520814"
       x="65.097473"
       y="3.376909"
       transform="matrix(0.70710601,0.70710755,-0.70710601,0.70710755,0,0)" />
    <path
       id="path1368"
       style="color:#000000;font-style:normal;font-variant:normal;font-weight:normal;font-stretch:normal;font-size:medium;line-height:normal;font-family:sans-serif;font-variant-ligatures:normal;font-variant-position:normal;font-variant-caps:normal;font-variant-numeric:normal;font-variant-alternates:normal;font-variant-east-asian:normal;font-feature-settings:normal;font-variation-settings:normal;text-indent:0;text-align:start;text-decoration:none;text-decoration-line:none;text-decoration-style:solid;text-decoration-color:#000000;letter-spacing:normal;word-spacing:normal;text-transform:none;writing-mode:lr-tb;direction:ltr;text-orientation:mixed;dominant-baseline:auto;baseline-shift:baseline;text-anchor:start;white-space:normal;shape-padding:0;shape-margin:0;inline-size:0;clip-rule:nonzero;display:inline;overflow:visible;visibility:visible;isolation:auto;mix-blend-mode:normal;color-interpolation:sRGB;color-interpolation-filters:linearRGB;solid-color:#000000;solid-opacity:1;vector-effect:none;fill:#cccccc;fill-opacity:1;fill-rule:nonzero;stroke:none;stroke-width:0.264583px;stroke-linecap:butt;stroke-linejoin:miter;stroke-miterlimit:4;stroke-dasharray:none;stroke-dashoffset:0;stroke-opacity:1;color-rendering:auto;image-rendering:auto;shape-rendering:auto;text-rendering:auto;enable-background:accumulate;stop-color:#000000"
       d="m 52.628585,57.611897 c -0.298657,0.0062 -0.582267,0.122378 -0.755504,0.380858 l -0.002,0.0021 c -0.4602,0.710348 -0.611817,1.351436 -0.535367,1.931665 0.0765,0.580228 0.377047,1.090334 0.787034,1.556493 0.819967,0.93232 2.084198,1.712844 3.027702,2.570387 l 0.36332,0.328111 -0.14676,-0.467154 c -0.453317,-1.443355 -0.830217,-3.179958 -0.736387,-4.517554 v -0.0016 c 0.0334,-0.64361 -0.491087,-1.221767 -1.085724,-1.537375 -0.297317,-0.157803 -0.617554,-0.252169 -0.916214,-0.245981 z m 2.422578,6.004285 c 5.5e-4,0.0018 10e-4,0.0038 10e-4,0.0057 -10e-4,-0.0011 -0.003,-0.002 -0.004,-0.0031 10e-4,-6.3e-4 0.002,-0.0019 0.003,-0.0026 z" />
    <path
       id="path12"
       style="color:#000000;font-style:normal;font-variant:normal;font-weight:normal;font-stretch:normal;font-size:medium;line-height:normal;font-family:sans-serif;font-variant-ligatures:normal;font-variant-position:normal;font-variant-caps:normal;font-variant-numeric:normal;font-variant-alternates:normal;font-variant-east-asian:normal;font-feature-settings:normal;font-variation-settings:normal;text-indent:0;text-align:start;text-decoration:none;text-decoration-line:none;text-decoration-style:solid;text-decoration-color:#000000;letter-spacing:normal;word-spacing:normal;text-transform:none;writing-mode:lr-tb;direction:ltr;text-orientation:mixed;dominant-baseline:auto;baseline-shift:baseline;text-anchor:start;white-space:normal;shape-padding:0;shape-margin:0;inline-size:0;clip-rule:nonzero;display:inline;overflow:visible;visibility:visible;isolation:auto;mix-blend-mode:normal;color-interpolation:sRGB;color-interpolation-filters:linearRGB;solid-color:#000000;solid-opacity:1;vector-effect:none;fill:#fb3d2b;fill-opacity:1;fill-rule:nonzero;stroke:none;stroke-width:0.264583px;stroke-linecap:butt;stroke-linejoin:miter;stroke-miterlimit:4;stroke-dasharray:none;stroke-dashoffset:0;stroke-opacity:1;color-rendering:auto;image-rendering:auto;shape-rendering:auto;text-rendering:auto;enable-background:accumulate;stop-color:#000000"
       d="M 54.760482 61.420541 A 2.0189402 2.0189402 0 0 0 53.222591 62.503162 C 53.868093 63.026258 54.569151 63.525409 55.150122 64.053455 L 55.513408 64.3816 L 55.366646 63.914445 C 55.121017 63.132374 54.89839 62.264655 54.760482 61.420541 z M 55.050903 63.616789 C 55.051392 63.618472 55.052051 63.620209 55.052971 63.621957 C 55.051971 63.620857 55.049836 63.619956 55.048836 63.618856 C 55.049558 63.618402 55.050182 63.617455 55.050903 63.616789 z " />
    <path
       id="path1145"
       style="color:#000000;font-style:normal;font-variant:normal;font-weight:normal;font-stretch:normal;font-size:medium;line-height:normal;font-family:sans-serif;font-variant-ligatures:normal;font-variant-position:normal;font-variant-caps:normal;font-variant-numeric:normal;font-variant-alternates:normal;font-variant-east-asian:normal;font-feature-settings:normal;font-variation-settings:normal;text-indent:0;text-align:start;text-decoration:none;text-decoration-line:none;text-decoration-style:solid;text-decoration-color:#000000;letter-spacing:normal;word-spacing:normal;text-transform:none;writing-mode:lr-tb;direction:ltr;text-orientation:mixed;dominant-baseline:auto;baseline-shift:baseline;text-anchor:start;white-space:normal;shape-padding:0;shape-margin:0;inline-size:0;clip-rule:nonzero;display:inline;overflow:visible;visibility:visible;isolation:auto;mix-blend-mode:normal;color-interpolation:sRGB;color-interpolation-filters:linearRGB;solid-color:#000000;solid-opacity:1;vector-effect:none;fill:#000000;fill-opacity:1;fill-rule:nonzero;stroke:none;stroke-width:0.312425px;stroke-linecap:butt;stroke-linejoin:miter;stroke-miterlimit:4;stroke-dasharray:none;stroke-dashoffset:0;stroke-opacity:1;color-rendering:auto;image-rendering:auto;shape-rendering:auto;text-rendering:auto;enable-background:accumulate;stop-color:#000000"
       d="m 47.834042,45.337341 c -0.0859,0 -0.15658,0.07065 -0.15658,0.15658 0,0.05977 0.0352,0.110215 0.0847,0.136425 l -10e-4,0.0021 c 0.25452,0.12396 0.467507,0.233522 0.656807,0.3359 -2.994992,2.232675 -8.019995,2.774201 -13.223925,2.869591 -0.0859,0 -0.15606,0.07014 -0.15606,0.156062 0,0.07711 0.0576,0.138485 0.13126,0.150894 l -5.3e-4,0.0047 c 4.815153,0.908762 9.666646,1.390745 14.271399,-2.228286 l 0.10129,-0.07958 c 0.0553,0.105831 0.0853,0.216107 0.10852,0.353984 0.0302,0.17967 0.047,0.402817 0.0946,0.687294 l 0.002,-5.29e-4 c 0.007,0.07966 0.0721,0.143145 0.153477,0.143145 0.0859,0 0.15606,-0.07014 0.15606,-0.156064 0,-0.01304 -0.005,-0.02455 -0.008,-0.03669 l 0.003,-5.29e-4 c -0.045,-0.269521 -0.058,-0.487696 -0.092,-0.689364 -0.0339,-0.201668 -0.0906,-0.391655 -0.217037,-0.574643 -0.25291,-0.365975 -0.747677,-0.683133 -1.844841,-1.217497 l -5.2e-4,5.3e-4 c -0.0193,-0.0086 -0.0401,-0.01394 -0.0625,-0.01394 z" />
    <path
       id="path944"
       style="color:#000000;font-style:normal;font-variant:normal;font-weight:normal;font-stretch:normal;font-size:medium;line-height:normal;font-family:sans-serif;font-variant-ligatures:normal;font-variant-position:normal;font-variant-caps:normal;font-variant-numeric:normal;font-variant-alternates:normal;font-variant-east-asian:normal;font-feature-settings:normal;font-variation-settings:normal;text-indent:0;text-align:start;text-decoration:none;text-decoration-line:none;text-decoration-style:solid;text-decoration-color:#000000;letter-spacing:normal;word-spacing:normal;text-transform:none;writing-mode:lr-tb;direction:ltr;text-orientation:mixed;dominant-baseline:auto;baseline-shift:baseline;text-anchor:start;white-space:normal;shape-padding:0;shape-margin:0;inline-size:0;clip-rule:nonzero;display:inline;overflow:visible;visibility:visible;isolation:auto;mix-blend-mode:normal;color-interpolation:sRGB;color-interpolation-filters:linearRGB;solid-color:#000000;solid-opacity:1;vector-effect:none;fill:#333333;fill-opacity:1;fill-rule:nonzero;stroke:none;stroke-width:0.311868px;stroke-linecap:butt;stroke-linejoin:miter;stroke-miterlimit:4;stroke-dasharray:none;stroke-dashoffset:0;stroke-opacity:1;color-rendering:auto;image-rendering:auto;shape-rendering:auto;text-rendering:auto;enable-background:accumulate;stop-color:#000000"
       d="m 6.9736643,29.63346 c -1.1236199,-0.0071 -2.2286219,0.283625 -3.2539105,0.947635 l -0.00469,0.0021 -0.00718,0.0047 c -1.7851613,1.416541 -2.5907635,3.383351 -2.6464118,5.471489 -0.055648,2.088135 0.6306734,4.300756 1.8163161,6.257482 2.3712871,3.913448 7.2195099,6.473714 11.3049619,5.524679 2.149027,-0.499211 3.764943,-2.751826 4.056687,-5.229822 0.151792,-2.235804 -0.733424,-4.743214 -2.196068,-6.957752 C 14.580685,33.439436 12.535574,31.516576 10.337777,30.468063 9.2388171,29.943812 8.0972184,29.640549 6.9735985,29.633524 Z"
       sodipodi:nodetypes="ccccssascccc" />
    <g
       id="g15"
       transform="translate(0.52916667,-0.52916667)">
      <g
         id="g14">
        <circle
           style="display:inline;fill:#ffffff;stroke-width:0.0310876"
           id="path1077"
           cx="22.092709"
           cy="32.940624"
           r="6.2177081" />
        <circle
           style="display:inline;fill:#000000;stroke-width:0.0317491"
           id="path1079"
           cx="23.547916"
           cy="35.454166"
           r="1.5875" />
      </g>
      <g
         id="g13">
        <circle
           style="display:inline;fill:#ffffff;stroke-width:0.0308672"
           id="path1075"
           cx="38.364586"
           cy="30.956249"
           r="9.260417" />
        <circle
           style="display:inline;fill:#000000;stroke-width:0.0476245"
           id="path1081"
           cx="41.010418"
           cy="34.395832"
           r="2.3812499" />
      </g>
    </g>
  </g>
</svg>
