<?xml version="1.0" encoding="UTF-8" standalone="no"?>
<svg
   xmlns:dc="http://purl.org/dc/elements/1.1/"
   xmlns:cc="http://creativecommons.org/ns#"
   xmlns:rdf="http://www.w3.org/1999/02/22-rdf-syntax-ns#"
   xmlns:svg="http://www.w3.org/2000/svg"
   xmlns="http://www.w3.org/2000/svg"
   xmlns:sodipodi="http://sodipodi.sourceforge.net/DTD/sodipodi-0.dtd"
   xmlns:inkscape="http://www.inkscape.org/namespaces/inkscape"
   sodipodi:docname="org.gnome.Firmware-symbolic.symbolic.svg"
   inkscape:version="1.0.2 (e86c870879, 2021-01-15)"
   id="svg8"
   version="1.1"
   viewBox="0 0 4.2333333 4.2333334"
   height="16"
   width="16">
  <defs
     id="defs2" />
  <sodipodi:namedview
     inkscape:window-maximized="1"
     inkscape:window-y="27"
     inkscape:window-x="1920"
     inkscape:window-height="1016"
     inkscape:window-width="1920"
     units="px"
     showgrid="false"
     inkscape:document-rotation="0"
     inkscape:current-layer="g1156"
     inkscape:document-units="px"
     inkscape:cy="9.5101491"
     inkscape:cx="8.9797101"
     inkscape:zoom="32"
     inkscape:pageshadow="2"
     inkscape:pageopacity="0.0"
     borderopacity="1.0"
     bordercolor="#666666"
     pagecolor="#ffffff"
     id="base" />
  <metadata
     id="metadata5">
    <rdf:RDF>
      <cc:Work
         rdf:about="">
        <dc:format>image/svg+xml</dc:format>
        <dc:type
           rdf:resource="http://purl.org/dc/dcmitype/StillImage" />
        <dc:title></dc:title>
      </cc:Work>
    </rdf:RDF>
  </metadata>
  <g
     inkscape:label="Graphic"
     id="g1156"
     inkscape:groupmode="layer"
     style="display:inline">
    <g
       id="g952">
      <path
         id="path923"
         style="display:inline;fill:#000000;stroke-width:3.28114;paint-order:stroke fill markers"
         d="M 2.28125 2 C 1.9363122 2 1.6601563 2.2761566 1.6601562 2.6210938 L 1.6601562 4.3652344 C 1.6601562 4.710173 1.9363118 4.9863281 2.28125 4.9863281 L 3.1953125 4.9863281 C 3.5402503 4.9863281 3.8164062 4.7101756 3.8164062 4.3652344 L 3.8164062 2.6210938 C 3.8164059 2.2761563 3.5402492 2 3.1953125 2 L 2.28125 2 z M 5.7871094 2 C 5.4421708 2 5.1660156 2.2761566 5.1660156 2.6210938 L 5.1660156 4.3652344 C 5.1660156 4.710173 5.4421738 4.9863281 5.7871094 4.9863281 L 6.6992188 4.9863281 C 7.0441573 4.9863281 7.3222656 4.7101756 7.3222656 4.3652344 L 7.3222656 2.6210938 C 7.3222656 2.2761559 7.0441596 2 6.6992188 2 L 5.7871094 2 z M 9.2929688 2 C 8.9480264 2 8.671875 2.2761566 8.671875 2.6210938 L 8.671875 4.3652344 C 8.671875 4.710173 8.9480275 4.9863281 9.2929688 4.9863281 L 10.201172 4.9863281 C 10.546107 4.9863281 10.826172 4.7101756 10.826172 4.3652344 L 10.826172 2.6210938 C 10.82617 2.2761559 10.546111 2 10.201172 2 L 9.2929688 2 z M 12.796875 2 C 12.451936 2 12.171875 2.2761566 12.171875 2.6210938 L 12.171875 4.3652344 C 12.171875 4.710173 12.451935 4.9863281 12.796875 4.9863281 L 13.707031 4.9863281 C 14.051966 4.9863281 14.332031 4.7101756 14.332031 4.3652344 L 14.332031 2.6210938 C 14.33203 2.2761559 14.051971 2 13.707031 2 L 12.796875 2 z M 2.28125 11.013672 C 1.9363122 11.013672 1.6601562 11.289829 1.6601562 11.634766 L 1.6601562 13.378906 C 1.6601562 13.723845 1.9363121 14 2.28125 14 L 3.1953125 14 C 3.5402503 14 3.8164062 13.723843 3.8164062 13.378906 L 3.8164062 11.634766 C 3.8164062 11.289827 3.5402503 11.013672 3.1953125 11.013672 L 2.28125 11.013672 z M 5.7871094 11.013672 C 5.4421708 11.013672 5.1660156 11.289829 5.1660156 11.634766 L 5.1660156 13.378906 C 5.1660156 13.723845 5.4421734 14 5.7871094 14 L 6.6992188 14 C 7.0441573 14 7.3222656 13.723843 7.3222656 13.378906 L 7.3222656 11.634766 C 7.3222656 11.289827 7.0441558 11.013672 6.6992188 11.013672 L 5.7871094 11.013672 z M 9.2929688 11.013672 C 8.9480302 11.013672 8.671875 11.289829 8.671875 11.634766 L 8.671875 13.378906 C 8.671875 13.723845 8.9480317 14 9.2929688 14 L 10.201172 14 C 10.54611 14 10.826172 13.723843 10.826172 13.378906 L 10.826172 11.634766 C 10.826172 11.289827 10.546108 11.013672 10.201172 11.013672 L 9.2929688 11.013672 z M 12.796875 11.013672 C 12.451936 11.013672 12.171875 11.289829 12.171875 11.634766 L 12.171875 13.378906 C 12.171875 13.723845 12.451939 14 12.796875 14 L 13.707031 14 C 14.05197 14 14.332031 13.723843 14.332031 13.378906 L 14.332031 11.634766 C 14.332031 11.289827 14.051968 11.013672 13.707031 11.013672 L 12.796875 11.013672 z "
         transform="scale(0.26458333)" />
      <path
         id="path874"
         style="fill:#000000;stroke-width:1.67586;paint-order:stroke fill markers"
         d="M 1.0976562 4.09375 C 0.48973323 4.09375 0 4.5834443 0 5.1914062 L 0 8.5683594 L 0 10.810547 C 0 11.418509 0.48973323 11.90625 1.0976562 11.90625 L 14.902344 11.90625 C 15.510266 11.90625 16 11.418509 16 10.810547 L 16 8.5683594 L 16 5.1914062 C 16 4.5834443 15.510266 4.09375 14.902344 4.09375 L 1.0976562 4.09375 z "
         transform="scale(0.26458333)" />
    </g>
  </g>
</svg>
