<?xml version="1.0" encoding="UTF-8" standalone="no"?>
<svg
   width="256"
   height="256"
   id="svg11300"
   sodipodi:version="0.32"
   sodipodi:docname="org.gnome.ArchiveManager.svg"
   version="1.0"
   style="display:inline;enable-background:new"
   inkscape:version="1.4 (e7c3feb100, 2024-10-09)"
   xmlns:inkscape="http://www.inkscape.org/namespaces/inkscape"
   xmlns:sodipodi="http://sodipodi.sourceforge.net/DTD/sodipodi-0.dtd"
   xmlns:xlink="http://www.w3.org/1999/xlink"
   xmlns="http://www.w3.org/2000/svg"
   xmlns:svg="http://www.w3.org/2000/svg">
  <sodipodi:namedview
     stroke="#ef2929"
     fill="#f57900"
     id="base"
     pagecolor="#ffffff"
     bordercolor="#666666"
     borderopacity="1"
     inkscape:pageopacity="0"
     inkscape:pageshadow="2"
     inkscape:zoom="1.4142136"
     inkscape:cx="100.0556"
     inkscape:cy="65.760927"
     inkscape:current-layer="layer3"
     showgrid="false"
     inkscape:grid-bbox="true"
     inkscape:document-units="px"
     inkscape:showpageshadow="true"
     inkscape:window-width="1920"
     inkscape:window-height="1011"
     inkscape:window-x="0"
     inkscape:window-y="0"
     width="400px"
     height="300px"
     inkscape:snap-nodes="true"
     inkscape:snap-bbox="true"
     gridtolerance="10000"
     inkscape:object-nodes="true"
     inkscape:snap-grids="true"
     showguides="true"
     inkscape:guide-bbox="true"
     inkscape:window-maximized="1"
     inkscape:bbox-paths="true"
     inkscape:snap-bbox-midpoints="true"
     inkscape:snap-global="true"
     inkscape:object-paths="true"
     inkscape:snap-intersection-paths="true"
     inkscape:snap-smooth-nodes="true"
     inkscape:pagecheckerboard="false"
     showborder="true"
     inkscape:bbox-nodes="true"
     inkscape:snap-bbox-edge-midpoints="true"
     inkscape:document-rotation="0"
     inkscape:deskcolor="#d1d1d1">
    <inkscape:grid
       spacingy="1"
       spacingx="1"
       id="grid5883"
       type="xygrid"
       enabled="true"
       visible="false"
       empspacing="4"
       snapvisiblegridlinesonly="true"
       originx="0"
       originy="0"
       units="px" />
    <inkscape:grid
       type="xygrid"
       id="grid11592"
       empspacing="2"
       visible="false"
       enabled="false"
       spacingx="0.5"
       spacingy="0.5"
       color="#ff0000"
       opacity="0.1254902"
       empcolor="#ff0000"
       empopacity="0.25098039"
       snapvisiblegridlinesonly="true"
       originx="0"
       originy="0"
       units="px" />
  </sodipodi:namedview>
  <defs
     id="defs3">
    <linearGradient
       inkscape:collect="always"
       id="linearGradient902">
      <stop
         style="stop-color:#9b7749;stop-opacity:1;"
         offset="0"
         id="stop898" />
      <stop
         style="stop-color:#b48b56;stop-opacity:1;"
         offset="1"
         id="stop900" />
    </linearGradient>
    <linearGradient
       inkscape:collect="always"
       xlink:href="#linearGradient902"
       id="linearGradient4"
       gradientUnits="userSpaceOnUse"
       gradientTransform="matrix(1.0000611,0,0,1,-0.00788,9.5e-6)"
       x1="40"
       y1="16"
       x2="216"
       y2="240" />
  </defs>
  <g
     inkscape:groupmode="layer"
     id="layer7"
     inkscape:label="Background"
     style="display:inline;enable-background:new">
    <g
       inkscape:groupmode="layer"
       id="layer2"
       inkscape:label="Shadow"
       style="display:inline;enable-background:new;opacity:0.4">
      <path
         id="path1"
         style="display:inline;enable-background:accumulate;color:#000000;overflow:visible;visibility:visible;fill:#000000;fill-opacity:1;fill-rule:nonzero;stroke:none;stroke-width:1.00002;marker:none"
         d="M 58.62891,20.00001 C 48.30888,20.00001 40,28.30889 40,38.628916 V 225.3711 c 0,10.32003 8.30888,18.62891 18.62891,18.62891 H 197.37109 C 207.69112,244.00001 216,235.69113 216,225.3711 V 38.628916 C 216,28.309048 207.69293,20.00001 197.37305,20.00001 Z" />
    </g>
    <g
       inkscape:groupmode="layer"
       id="layer8"
       inkscape:label="Colour"
       style="display:inline;enable-background:new">
      <path
         id="path4"
         style="display:inline;enable-background:accumulate;color:#000000;overflow:visible;visibility:visible;fill:url(#linearGradient4);fill-opacity:1;fill-rule:nonzero;stroke:none;stroke-width:1.00002;marker:none"
         d="M 58.62891,16.00001 C 48.30888,16.00001 40,24.30889 40,34.628916 V 221.3711 c 0,10.32003 8.30888,18.62891 18.62891,18.62891 H 197.37109 C 207.69112,240.00001 216,231.69113 216,221.3711 V 34.628916 C 216,24.309048 207.69293,16.00001 197.37305,16.00001 Z" />
    </g>
    <g
       inkscape:groupmode="layer"
       id="layer9"
       inkscape:label="Highlight"
       style="display:inline;enable-background:new;opacity:0.1">
      <path
         id="path3"
         style="display:inline;enable-background:accumulate;opacity:1;color:#000000;overflow:visible;visibility:visible;fill:#ffffff;fill-opacity:1;fill-rule:nonzero;stroke:none;stroke-width:1.00002;marker:none"
         d="M 58.628906 16 C 48.308876 16 40 24.30888 40 34.628906 L 40 38.628906 C 40 28.30888 48.308876 20 58.628906 20 L 197.37305 20 C 207.69293 20 216 28.309038 216 38.628906 L 216 34.628906 C 216 24.309038 207.69293 16 197.37305 16 L 58.628906 16 z " />
    </g>
  </g>
  <g
     inkscape:groupmode="layer"
     id="layer4"
     inkscape:label="Graphic"
     style="display:inline">
    <path
       id="path28"
       style="opacity:0.4;fill:#000000;fill-opacity:1;stroke:none;stroke-width:5.89767;stroke-linecap:round;stroke-linejoin:round;paint-order:stroke markers fill"
       d="m 118,20 v 10 h 10 V 20 Z m 10,10 v 10 h 10 V 30 Z m 0,10 h -10 v 10 h 10 z m 0,10 v 10 h 10 V 50 Z m 0,10 h -10 v 10 h 10 z m 0,10 v 10 h 10 V 70 Z m 0,10 h -10 v 10 h 10 z m 0,10 v 10 h 10 V 90 Z m 0,10 h -10 v 10 h 10 z m 0,10 v 10 h -10 v 27.75 c 0,1.2465 1.0035,2.25 2.25,2.25 h 15.5 c 1.2465,0 2.25,-1.0035 2.25,-2.25 V 110 Z m -4,20 h 8 v 10 h -8 z"
       sodipodi:nodetypes="ccccccccccccccccccccccccccccccccccccccccccccccccssssccccccc" />
    <g
       id="g11"
       style="display:inline;enable-background:new">
      <rect
         style="color:#000000;display:inline;overflow:visible;visibility:visible;fill:#f2f2f2;fill-opacity:1;fill-rule:nonzero;stroke:none;stroke-width:18.8273;stroke-linecap:butt;stroke-linejoin:miter;stroke-miterlimit:4;stroke-dasharray:none;stroke-dashoffset:0;stroke-opacity:1;marker:none;enable-background:accumulate"
         id="rect4223"
         width="64"
         height="36"
         x="50"
         y="174" />
      <path
         id="path31"
         style="color:#000000;display:inline;overflow:visible;visibility:visible;fill:#333333;fill-opacity:1;fill-rule:nonzero;stroke:none;stroke-width:29.3939;stroke-linecap:butt;stroke-linejoin:miter;stroke-miterlimit:4;stroke-dasharray:none;stroke-dashoffset:0;stroke-opacity:1;marker:none;enable-background:accumulate"
         d="M 56 180 L 56 204 L 66 204 L 66 180 L 56 180 z M 73 180 L 73 204 L 80 204 L 80 180 L 73 180 z M 86 180 L 86 204 L 93 204 L 93 180 L 86 180 z M 99 180 L 99 204 L 108 204 L 108 180 L 99 180 z " />
    </g>
    <path
       id="path34"
       style="color:#000000;display:inline;overflow:visible;visibility:visible;fill:#f2f2f2;fill-opacity:1;fill-rule:nonzero;stroke:none;stroke-width:23.094;stroke-linecap:butt;stroke-linejoin:miter;stroke-miterlimit:4;stroke-dasharray:none;stroke-dashoffset:0;stroke-opacity:1;marker:none;enable-background:accumulate"
       d="M 151 174 L 151 182 L 196 182 L 196 174 L 151 174 z M 151 188 L 151 196 L 201 196 L 201 188 L 151 188 z M 151 202 L 151 210 L 184.33398 210 L 184.33398 202 L 151 202 z " />
    <path
       id="rect5"
       style="opacity:1;fill:#ffffff;fill-opacity:1;stroke:none;stroke-width:5.89767;stroke-linecap:round;stroke-linejoin:round;paint-order:stroke markers fill"
       d="m 118,16 v 10 h 10 V 16 Z m 10,10 v 10 h 10 V 26 Z m 0,10 h -10 v 10 h 10 z m 0,10 v 10 h 10 V 46 Z m 0,10 h -10 v 10 h 10 z m 0,10 v 10 h 10 V 66 Z m 0,10 h -10 v 10 h 10 z m 0,10 v 10 h 10 V 86 Z m 0,10 h -10 v 10 h 10 z m 0,10 v 10 h -10 v 27.75 c 0,1.2465 1.0035,2.25 2.25,2.25 h 15.5 c 1.2465,0 2.25,-1.0035 2.25,-2.25 V 106 Z m -4,20 h 8 v 10 h -8 z"
       sodipodi:nodetypes="ccccccccccccccccccccccccccccccccccccccccccccccccssssccccccc" />
  </g>
  <g
     inkscape:groupmode="layer"
     id="layer3"
     inkscape:label="Large Highlight"
     style="display:inline;opacity:0.05">
    <path
       id="path2"
       style="color:#000000;display:inline;overflow:visible;visibility:visible;fill:#ffffff;fill-opacity:1;fill-rule:nonzero;stroke:none;stroke-width:1.00002;marker:none;enable-background:accumulate"
       d="M 128 16 L 128 240 L 197.37109 240 C 207.69112 240 216 231.69112 216 221.37109 L 216 34.628906 C 216 24.309038 207.69293 16 197.37305 16 L 128 16 z " />
  </g>
</svg>
