<?xml version="1.0" encoding="UTF-8" standalone="no"?>
<svg
   xmlns:dc="http://purl.org/dc/elements/1.1/"
   xmlns:cc="http://creativecommons.org/ns#"
   xmlns:rdf="http://www.w3.org/1999/02/22-rdf-syntax-ns#"
   xmlns:svg="http://www.w3.org/2000/svg"
   xmlns="http://www.w3.org/2000/svg"
   xmlns:sodipodi="http://sodipodi.sourceforge.net/DTD/sodipodi-0.dtd"
   xmlns:inkscape="http://www.inkscape.org/namespaces/inkscape"
   sodipodi:docname="org.remmina.Remmina.svg"
   inkscape:version="1.0 (4035a4fb49, 2020-05-01)"
   id="svg4705"
   version="1.1"
   viewBox="0 0 67.733332 67.733332"
   height="256"
   width="256">
  <defs
     id="defs4699">
    <linearGradient
       id="linearGradient954">
      <stop
         id="stop948"
         offset="0"
         style="stop-color:#faf8f6;stop-opacity:1" />
      <stop
         id="stop951"
         offset="1"
         style="stop-color:#f1f0e9;stop-opacity:1" />
    </linearGradient>
    <linearGradient
       id="linearGradient954-3">
      <stop
         style="stop-color:#faf8f6;stop-opacity:1"
         offset="0"
         id="stop950" />
      <stop
         style="stop-color:#f1f0e9;stop-opacity:1"
         offset="1"
         id="stop952" />
    </linearGradient>
  </defs>
  <sodipodi:namedview
     units="px"
     inkscape:document-rotation="0"
     inkscape:window-maximized="1"
     inkscape:window-y="27"
     inkscape:window-x="2004"
     inkscape:window-height="1016"
     inkscape:window-width="1836"
     fit-margin-bottom="0"
     fit-margin-right="0"
     fit-margin-left="0"
     fit-margin-top="0"
     showgrid="false"
     inkscape:current-layer="layer2"
     inkscape:document-units="px"
     inkscape:cy="137.81838"
     inkscape:cx="86.181217"
     inkscape:zoom="1.979899"
     inkscape:pageshadow="2"
     inkscape:pageopacity="0.0"
     borderopacity="1.0"
     bordercolor="#666666"
     pagecolor="#ffffff"
     id="base" />
  <metadata
     id="metadata4702">
    <rdf:RDF>
      <cc:Work
         rdf:about="">
        <dc:format>image/svg+xml</dc:format>
        <dc:type
           rdf:resource="http://purl.org/dc/dcmitype/StillImage" />
        <dc:title></dc:title>
      </cc:Work>
    </rdf:RDF>
  </metadata>
  <g
     inkscape:label="Background"
     id="layer5"
     inkscape:groupmode="layer">
    <g
       style="display:inline;opacity:0.4"
       inkscape:label="Shadow"
       id="layer4"
       inkscape:groupmode="layer">
      <circle
         style="display:inline;fill:#000000;fill-opacity:1;stroke-width:5.60201;paint-order:stroke fill markers"
         id="circle904"
         cx="33.866665"
         cy="34.924999"
         r="31.75" />
    </g>
    <g
       style="display:inline"
       transform="translate(-130.05163,-144.32544)"
       id="layer1"
       inkscape:groupmode="layer"
       inkscape:label="Colour">
      <circle
         r="31.75"
         cy="33.866665"
         cx="33.866665"
         id="path902"
         style="display:inline;fill:#333333;fill-opacity:1;stroke-width:5.60201;paint-order:stroke fill markers"
         transform="translate(130.05163,144.32544)" />
    </g>
    <g
       style="display:inline;opacity:0.1"
       inkscape:label="Highlight"
       id="layer3"
       inkscape:groupmode="layer">
      <path
         d="M 33.866666,2.1166667 A 31.75,31.75 0 0 0 2.1166666,33.866667 31.75,31.75 0 0 0 2.1213166,34.384464 31.75,31.75 0 0 1 33.866665,3.175 a 31.75,31.75 0 0 1 31.745348,31.232202 31.75,31.75 0 0 0 0.0047,-0.540535 31.75,31.75 0 0 0 -31.75,-31.7500003 z"
         style="display:inline;fill:#ffffff;fill-opacity:1;stroke-width:5.60202;paint-order:stroke fill markers"
         id="circle908" />
    </g>
  </g>
  <g
     inkscape:label="Graphic"
     id="layer6"
     inkscape:groupmode="layer">
    <g
       style="display:inline"
       inkscape:label="Shadow"
       id="layer7"
       inkscape:groupmode="layer">
      <g
         id="g1040"
         transform="matrix(0.66107097,0,0,0.66107097,8.4666665,9.5249998)"
         style="display:inline;fill:#1a1a1a;fill-opacity:1;stroke-width:1.00019;stroke-miterlimit:4;stroke-dasharray:none">
        <polygon
           style="fill:#1a1a1a;fill-opacity:1;stroke-width:1.00019;stroke-miterlimit:4;stroke-dasharray:none"
           class="st1"
           points="20.618,17.742 20.618,26.923 29.549,32.877 20.618,38.831 20.618,48.012 43.32,32.877 "
           id="polygon1038" />
      </g>
      <g
         id="g1046"
         transform="matrix(0.66107097,0,0,0.66107097,8.4666665,9.5249998)"
         style="display:inline;fill:#1a1a1a;fill-opacity:1">
        <g
           id="g1044"
           style="fill:#1a1a1a;fill-opacity:1">
          <polygon
             style="fill:#1a1a1a;fill-opacity:1"
             class="st2"
             points="55.388,59.232 55.388,50.051 46.457,44.097 55.388,38.143 55.388,28.962 32.685,44.097 "
             id="polygon1042" />
        </g>
      </g>
      <g
         id="g1050"
         transform="matrix(0.66107097,0,0,0.66107097,8.4666665,9.5249998)"
         style="display:inline;fill:#1a1a1a;fill-opacity:1">
        <path
           style="fill:#1a1a1a;fill-opacity:1"
           inkscape:connector-curvature="0"
           class="st1"
           d="m 64.776,23.074 c 2.632,4.509 4.147,9.75 4.147,15.348 0,16.845 -13.656,30.5 -30.5,30.5 -9.922,0 -18.734,-4.741 -24.304,-12.077 L 7.53,61.238 c 7.005,9.461 18.243,15.607 30.892,15.607 21.186,0 38.423,-17.236 38.423,-38.423 0,-7.215 -2.002,-13.97 -5.476,-19.744 z"
           id="path1048" />
      </g>
      <g
         id="g1054"
         transform="matrix(0.66107097,0,0,0.66107097,8.4666665,9.5249998)"
         style="display:inline;fill:#1a1a1a;fill-opacity:1">
        <path
           style="fill:#1a1a1a;fill-opacity:1"
           inkscape:connector-curvature="0"
           class="st2"
           d="m 7.922,38.423 c 0,-16.845 13.656,-30.5 30.5,-30.5 9.826,0 18.561,4.652 24.139,11.868 l 6.596,-4.397 C 62.142,6.053 50.976,0 38.423,0 17.236,0 0,17.236 0,38.423 0,45.543 1.954,52.212 5.343,57.936 L 11.937,53.54 C 9.387,49.083 7.922,43.925 7.922,38.423 Z"
           id="path1052" />
      </g>
    </g>
    <g
       style="display:inline"
       inkscape:label="Colour"
       id="layer2"
       inkscape:groupmode="layer">
      <g
         style="stroke-width:1.00018571;stroke-miterlimit:4;stroke-dasharray:none;fill:#3af65a;fill-opacity:1"
         transform="matrix(0.66107097,0,0,0.66107097,8.4666665,8.4666665)"
         id="g855">
        <polygon
           id="polygon853"
           points="20.618,17.742 20.618,26.923 29.549,32.877 20.618,38.831 20.618,48.012 43.32,32.877 "
           class="st1"
           style="fill:#3af65a;stroke-width:1.00018571;stroke-miterlimit:4;stroke-dasharray:none;fill-opacity:1" />
      </g>
      <g
         style="fill:#2484e4;fill-opacity:1"
         transform="matrix(0.66107097,0,0,0.66107097,8.4666665,8.4666665)"
         id="g861">
        <g
           style="fill:#2484e4;fill-opacity:1"
           id="g859">
          <polygon
             id="polygon857"
             points="55.388,59.232 55.388,50.051 46.457,44.097 55.388,38.143 55.388,28.962 32.685,44.097 "
             class="st2"
             style="fill:#2484e4;fill-opacity:1" />
        </g>
      </g>
      <g
         style="fill:#3af65a;fill-opacity:1"
         transform="matrix(0.66107097,0,0,0.66107097,8.4666665,8.4666665)"
         id="g867">
        <path
           id="path865"
           d="m 64.776,23.074 c 2.632,4.509 4.147,9.75 4.147,15.348 0,16.845 -13.656,30.5 -30.5,30.5 -9.922,0 -18.734,-4.741 -24.304,-12.077 L 7.53,61.238 c 7.005,9.461 18.243,15.607 30.892,15.607 21.186,0 38.423,-17.236 38.423,-38.423 0,-7.215 -2.002,-13.97 -5.476,-19.744 z"
           class="st1"
           inkscape:connector-curvature="0"
           style="fill:#3af65a;fill-opacity:1" />
      </g>
      <g
         style="fill:#2484e4;fill-opacity:1"
         transform="matrix(0.66107097,0,0,0.66107097,8.4666665,8.4666665)"
         id="g871">
        <path
           id="path869"
           d="m 7.922,38.423 c 0,-16.845 13.656,-30.5 30.5,-30.5 9.826,0 18.561,4.652 24.139,11.868 l 6.596,-4.397 C 62.142,6.053 50.976,0 38.423,0 17.236,0 0,17.236 0,38.423 0,45.543 1.954,52.212 5.343,57.936 L 11.937,53.54 C 9.387,49.083 7.922,43.925 7.922,38.423 Z"
           class="st2"
           inkscape:connector-curvature="0"
           style="fill:#2484e4;fill-opacity:1" />
      </g>
    </g>
  </g>
</svg>
