<?xml version="1.0" encoding="UTF-8" standalone="no"?>
<svg
   sodipodi:docname="org.gtk.IconBrowser4.svg"
   id="svg8"
   version="1.1"
   viewBox="0 0 67.733332 67.733335"
   height="256"
   width="256"
   xmlns:inkscape="http://www.inkscape.org/namespaces/inkscape"
   xmlns:sodipodi="http://sodipodi.sourceforge.net/DTD/sodipodi-0.dtd"
   xmlns="http://www.w3.org/2000/svg"
   xmlns:svg="http://www.w3.org/2000/svg">
  <defs
     id="defs2" />
  <sodipodi:namedview
     inkscape:window-maximized="1"
     inkscape:window-y="27"
     inkscape:window-x="1920"
     inkscape:window-height="1016"
     inkscape:window-width="1920"
     units="px"
     showgrid="false"
     inkscape:document-rotation="0"
     inkscape:current-layer="layer1"
     inkscape:document-units="px"
     inkscape:cy="148.48394"
     inkscape:cx="232.13611"
     inkscape:zoom="2.8284271"
     inkscape:pageshadow="2"
     inkscape:pageopacity="0.0"
     borderopacity="1.0"
     bordercolor="#666666"
     pagecolor="#ffffff"
     id="base"
     inkscape:showpageshadow="2"
     inkscape:pagecheckerboard="0"
     inkscape:deskcolor="#d1d1d1" />
  <g
     inkscape:groupmode="layer"
     id="layer1"
     inkscape:label="Background"
     style="display:inline">
    <g
       inkscape:label="Shadow"
       id="layer10"
       inkscape:groupmode="layer"
       style="display:inline;opacity:0.4">
      <path
         id="path1152"
         style="display:inline;fill:#000000;fill-opacity:1;stroke-width:0.0246944;stroke-miterlimit:4;stroke-dasharray:none;paint-order:stroke fill markers"
         d="m 4.2333333,5.2916666 c 0,19.7555554 0,39.5111104 0,59.2666664 0.5291688,0.529164 1.058849,1.057817 1.5875,1.5875 H 60.095039 c 2.7656,0 4.99246,-2.22686 4.99246,-4.99246 0,-16.956415 0,-33.912831 0,-50.869246 0,-2.7655993 -2.22686,-4.9924604 -4.99246,-4.9924604 -18.620568,0 -37.241137,0 -55.8617057,0 z"
         sodipodi:nodetypes="cccscccc" />
    </g>
    <g
       style="display:inline"
       inkscape:label="Colour"
       id="g1174"
       inkscape:groupmode="layer">
      <path
         id="path1117"
         style="display:inline;fill:#cccccc;fill-opacity:1;stroke-width:0.0933332;stroke-miterlimit:4;stroke-dasharray:none;paint-order:stroke fill markers"
         d="M 223 16 L 223 240 L 22 240 L 22 244 L 20 244 L 21 244.99805 L 22 246 L 227.13086 246 C 237.58352 246 246 237.58352 246 227.13086 L 246 221.13086 L 246 134 L 246 40.869141 L 246 34.869141 C 246 24.416483 237.58352 16 227.13086 16 L 223 16 z "
         transform="scale(0.26458333)" />
      <path
         id="path1112"
         style="display:inline;fill:#e6e6e6;fill-opacity:1;stroke-width:0.0933332;stroke-miterlimit:4;stroke-dasharray:none;paint-order:stroke fill markers"
         d="M 223 16 L 223 240 L 20 240 L 20 242 L 18 242 L 19 242.99805 L 20 244 L 225.13086 244 C 235.58352 244 244 235.58352 244 225.13086 L 244 221.13086 L 244 132 L 244 38.869141 L 244 34.869141 C 244 24.416483 235.58352 16 225.13086 16 L 223 16 z "
         transform="scale(0.26458333)" />
      <path
         id="path1082"
         style="display:inline;fill:#ffffff;fill-opacity:1;stroke-width:0.0933332;stroke-miterlimit:4;stroke-dasharray:none;paint-order:stroke fill markers"
         d="M 223 16 L 223 240 L 18 240 L 16 240 L 17 240.99805 L 18 242 L 223.13086 242 C 233.58352 242 242 233.58352 242 223.13086 L 242 221.13086 L 242 130 L 242 36.869141 L 242 34.869141 C 242 24.416483 233.58352 16 223.13086 16 L 223 16 z "
         transform="scale(0.26458333)" />
      <g
         id="g1124">
        <path
           id="rect1168"
           style="display:inline;fill:#d02c2c;fill-opacity:1;stroke-width:0.0246944;stroke-miterlimit:4;stroke-dasharray:none;paint-order:stroke fill markers"
           d="M 4.2333333,4.2333333 V 33.866666 63.499999 c 16.1944197,0 36.3401397,0 54.2742057,0 2.7656,0 4.99246,-2.22686 4.99246,-4.99246 V 33.866666 9.2257934 c 0,-2.765599 -2.22686,-4.9924601 -4.99246,-4.9924601 z"
           sodipodi:nodetypes="ccccscscc" />
        <rect
           style="display:inline;fill:#75472a;fill-opacity:1;stroke:none;stroke-width:1.28288;stroke-linecap:round;stroke-linejoin:round;paint-order:stroke markers fill"
           id="rect849"
           width="6.6145835"
           height="59.266666"
           x="4.2333331"
           y="4.2333331" />
      </g>
    </g>
    <g
       inkscape:groupmode="layer"
       id="layer2"
       inkscape:label="Highlight"
       style="display:inline;opacity:0.1">
      <path
         id="path840"
         style="display:inline;fill:#ffffff;fill-opacity:1;stroke-width:0.0933332;stroke-miterlimit:4;stroke-dasharray:none;paint-order:stroke fill markers"
         d="m 16,16 v 4 H 221.13086 C 231.58352,20 240,28.416482 240,38.869141 v -4 C 240,24.416483 231.58352,16 221.13086,16 Z"
         transform="scale(0.26458333)" />
    </g>
  </g>
  <g
     inkscape:label="Graphic"
     id="g1156"
     inkscape:groupmode="layer"
     style="display:inline">
    <g
       inkscape:groupmode="layer"
       id="layer4"
       inkscape:label="Shadow"
       style="opacity:0.4">
      <path
         id="path914"
         style="line-height:normal;-inkscape-font-specification:sans-serif;text-indent:0;text-align:start;text-decoration:none;text-decoration-line:none;text-transform:none;display:inline;fill:#000000;stroke-width:3.99999;marker:none"
         d="m 184.9375,52 c -0.42591,0.0015 -0.85359,0.01116 -1.28125,0.0293 -2.2808,0.09524 -4.58136,0.441928 -6.875,1.054687 -17.0493,4.554301 -27.25976,22.179001 -22.69141,39.175782 a 3.0082784,2.9990154 0 0 0 3.68164,2.125 3.0082784,2.9990154 0 0 0 2.125,-3.673828 c -3.72139,-13.845597 4.55109,-28.126003 18.43946,-31.835938 7.04422,-1.881668 14.20042,-0.685027 20.02539,2.757812 -0.33309,0.332145 -0.65522,0.656272 -1.00781,1.007813 -0.45101,0.448864 -0.70028,1.059959 -0.69532,1.695313 0.009,1.289676 1.0813,2.35104 2.375,2.351562 h 7.46094 c 0.65059,-2.8e-4 1.25554,-0.272656 1.6875,-0.703125 0.43197,-0.430428 0.69623,-1.023198 0.69531,-1.671875 l 0.008,-7.447266 c 3.5e-4,-1.00998 -0.65307,-1.858809 -1.46875,-2.195312 -0.81573,-0.336567 -1.87836,-0.191577 -2.59375,0.523437 -0.82205,0.81961 -1.42952,1.418073 -2.14063,2.126953 -4.85191,-3.185661 -10.53976,-5.070174 -16.4707,-5.298828 -0.42363,-0.01625 -0.84753,-0.023 -1.27344,-0.02148 z m -86.375,9.335938 c -8.631976,0.0079 -15.972566,5.325693 -19.476562,12.929687 L 78.84375,74.78125 78.289062,74.82031 C 70.313076,75.396312 64,82.303318 64,90.695312 c 0,8.771985 6.863568,15.968748 15.351562,15.968748 h 37.132818 c 6.36798,0 11.51562,-5.40113 11.51562,-11.953122 a 11.831987,11.831987 0 0 0 -7.21875,-10.9375 l -0.54687,-0.234376 -0.0391,-0.59375 C 119.65529,70.973323 110.2461,61.343935 98.578125,61.335938 Z m 114.44336,12.1875 a 3.0082784,2.9990154 0 0 0 -0.15234,0.0078 3.0082784,2.9990154 0 0 0 -0.625,0.09375 3.0082784,2.9990154 0 0 0 -2.125,3.664062 c 3.72139,13.8456 -4.55108,28.12796 -18.43946,31.83789 -7.04418,1.88167 -14.20042,0.68503 -20.02539,-2.75781 0.33309,-0.33218 0.65521,-0.65627 1.00781,-1.00781 0.45101,-0.44903 0.70028,-1.05996 0.69532,-1.69531 -0.009,-1.28968 -1.08127,-2.35105 -2.375,-2.35157 h -7.46094 c -0.65059,2.8e-4 -1.25553,0.27284 -1.6875,0.70313 -0.43197,0.43042 -0.69624,1.02316 -0.69531,1.67187 l -0.008,7.44532 c -5.2e-4,1.00997 0.65307,1.85881 1.46875,2.19531 0.81573,0.33657 1.87836,0.19158 2.59375,-0.52344 0.82205,-0.81961 1.42952,-1.41611 2.14063,-2.125 7.39333,4.85436 16.72583,6.68511 25.90039,4.23438 17.0493,-4.55431 27.25976,-22.177057 22.69141,-39.173834 a 3.0082784,2.9990154 0 0 0 -2.75782,-2.21875 3.0082784,2.9990154 0 0 0 -0.002,0 3.0082784,2.9990154 0 0 0 -0.14453,0 z m -98.39648,75.753902 c -6.82087,0 -12.4043,5.62094 -12.4043,12.44141 0,0.25807 0.0595,0.49977 0.0762,0.75391 L 85.117188,172.375 c -2.287949,-2.88428 -5.7859,-4.77148 -9.72461,-4.77148 C 68.571721,167.60352 63,173.17369 63,179.99414 c 0,6.82047 5.571721,12.44141 12.392578,12.44141 3.945135,0 7.448743,-1.9046 9.736328,-4.81055 l 17.152344,9.90234 c -0.0151,0.25293 -0.0762,0.49736 -0.0762,0.75391 0,6.82047 5.58343,12.44141 12.4043,12.44141 6.82085,0 12.39062,-5.62094 12.39062,-12.44141 0,-6.82046 -5.56977,-12.4043 -12.39062,-12.4043 -4.20812,0 -7.92868,2.13211 -10.17188,5.35938 l -16.769531,-9.68555 c 0.06652,-0.51689 0.166015,-1.02313 0.166015,-1.55664 0,-0.52884 -0.08703,-1.03312 -0.152343,-1.54492 l 16.769529,-9.67188 c 2.24494,3.21442 5.96003,5.33399 10.15821,5.33399 6.82085,0 12.39062,-5.57214 12.39062,-12.39258 0,-6.82047 -5.56977,-12.44141 -12.39062,-12.44141 z M 169,154.5 c -8.83657,2e-5 -16,7.34709 -16,16.41016 0,10.95753 5.20932,15.47079 9.5625,19.93554 5.60335,5.74702 14.34148,13.01532 22.4375,18.87891 8.09601,-5.86359 16.83414,-13.13191 22.4375,-18.87891 C 211.79067,186.38095 217,181.86769 217,170.91016 217,161.84709 209.83657,154.5 201,154.5 c -8.83655,0 -16,4.69473 -16,13.75781 0,-9.06308 -7.16346,-13.75779 -16,-13.75781 z m -54.39062,0.80078 c 3.58265,0 6.40625,2.83551 6.40624,6.41797 0,3.58244 -2.82359,6.40625 -6.40624,6.40625 -3.58266,0 -6.41993,-2.82381 -6.41993,-6.40625 0,-3.58246 2.83727,-6.41797 6.41993,-6.41797 z m -39.218755,18.27344 c 3.582671,0 6.419922,2.83748 6.419922,6.41992 0,3.58246 -2.837251,6.41797 -6.419922,6.41797 -3.582656,0 -6.417969,-2.83551 -6.417969,-6.41797 0,-3.58244 2.835313,-6.41992 6.417969,-6.41992 z m 39.218755,18.28711 c 3.58265,0 6.40625,2.83746 6.40624,6.41992 0,3.58245 -2.82359,6.45703 -6.40624,6.45703 -3.58266,0 -6.41993,-2.87458 -6.41993,-6.45703 0,-3.58246 2.83727,-6.41992 6.41993,-6.41992 z"
         transform="scale(0.26458333)" />
    </g>
    <g
       id="g929">
      <path
         id="path911"
         style="color:#000000;font-style:normal;font-variant:normal;font-weight:normal;font-stretch:normal;font-size:medium;line-height:normal;font-family:sans-serif;font-variant-ligatures:normal;font-variant-position:normal;font-variant-caps:normal;font-variant-numeric:normal;font-variant-alternates:normal;font-variant-east-asian:normal;font-feature-settings:normal;font-variation-settings:normal;text-indent:0;text-align:start;text-decoration:none;text-decoration-line:none;text-decoration-style:solid;text-decoration-color:#000000;letter-spacing:normal;word-spacing:normal;text-transform:none;writing-mode:lr-tb;direction:ltr;text-orientation:mixed;dominant-baseline:auto;baseline-shift:baseline;text-anchor:start;white-space:normal;shape-padding:0;shape-margin:0;inline-size:0;clip-rule:nonzero;display:inline;overflow:visible;visibility:visible;isolation:auto;mix-blend-mode:normal;color-interpolation:sRGB;color-interpolation-filters:linearRGB;solid-color:#000000;solid-opacity:1;vector-effect:none;fill:#ffffff;fill-opacity:1;fill-rule:nonzero;stroke:none;stroke-width:1.05962;stroke-linecap:round;stroke-linejoin:miter;stroke-miterlimit:1.6;stroke-dasharray:none;stroke-dashoffset:0;stroke-opacity:1;paint-order:stroke markers fill;color-rendering:auto;image-rendering:auto;shape-rendering:auto;text-rendering:auto;enable-background:accumulate;stop-color:#000000"
         d="m 49.26834,12.705828 c -0.224168,-0.0086 -0.44969,-0.0075 -0.675996,0.0021 -0.603462,0.0252 -1.212342,0.116941 -1.819201,0.279067 -4.510961,1.204992 -7.212068,5.867759 -6.003357,10.364824 a 0.79594032,0.79348948 0 0 0 0.973684,0.562271 0.79594032,0.79348948 0 0 0 0.562299,-0.971574 c -0.984618,-3.663314 1.204128,-7.442152 4.878759,-8.423739 1.863783,-0.497858 3.757233,-0.181208 5.298423,0.72971 -0.08813,0.08788 -0.173384,0.173661 -0.266675,0.266673 -0.119329,0.118762 -0.185302,0.280464 -0.183989,0.448568 0.0025,0.341227 0.28616,0.622093 0.628451,0.622231 h 1.974252 c 0.172134,-7.4e-5 0.332235,-0.07216 0.446525,-0.186055 0.114291,-0.113884 0.184233,-0.270749 0.18399,-0.442378 l 0.0021,-1.97001 c 9.5e-5,-0.267224 -0.172823,-0.491846 -0.38864,-0.580879 -0.215827,-0.08905 -0.497056,-0.05068 -0.686337,0.138501 -0.2175,0.216855 -0.378288,0.374715 -0.566437,0.562273 -1.283734,-0.842873 -2.788587,-1.341049 -4.357815,-1.401547 z m 7.127964,5.688869 a 0.79594032,0.79348948 0 0 0 -0.07856,0.0021 0.79594032,0.79348948 0 0 0 -0.165382,0.02481 0.79594032,0.79348948 0 0 0 -0.562298,0.96951 c 0.984618,3.663315 -1.204128,7.442154 -4.87876,8.423741 -1.863772,0.497857 -3.757233,0.181207 -5.298422,-0.729711 0.08813,-0.08789 0.173383,-0.173661 0.266675,-0.266673 0.119329,-0.118805 0.185302,-0.280464 0.183989,-0.448569 -0.0025,-0.341226 -0.28615,-0.622093 -0.628451,-0.62223 h -1.974252 c -0.172135,7.4e-5 -0.332235,0.07221 -0.446526,0.186056 -0.114291,0.113882 -0.184233,0.270737 -0.183989,0.442377 l -0.0021,1.97001 c -1.38e-4,0.267223 0.172823,0.491847 0.388639,0.580878 0.215828,0.08905 0.497056,0.05068 0.686338,-0.138501 0.217499,-0.216854 0.378288,-0.374713 0.566437,-0.562272 1.956152,1.284383 4.425576,1.768841 6.853012,1.120417 4.510961,-1.204993 7.212067,-5.86776 6.003356,-10.364824 a 0.79594032,0.79348948 0 0 0 -0.729744,-0.587083 z" />
      <path
         id="path2"
         style="line-height:normal;-inkscape-font-specification:sans-serif;text-indent:0;text-align:start;text-decoration:none;text-decoration-line:none;text-transform:none;fill:#ffffff;stroke-width:1.05833;marker:none"
         d="m 26.077982,15.17015 c -2.283877,0.0021 -4.226067,1.409086 -5.153166,3.420976 l -0.06408,0.13644 -0.14676,0.0104 c -2.110313,0.1524 -3.780643,1.97987 -3.780643,4.200252 0,2.320921 1.815981,4.225059 4.061763,4.225059 h 9.824713 c 1.684862,0 3.046837,-1.429046 3.046837,-3.162593 a 3.1305466,3.1305466 0 0 0 -1.909958,-2.893876 l -0.14468,-0.062 -0.0104,-0.15708 c -0.14288,-3.167589 -2.632389,-5.715358 -5.719542,-5.717474 z" />
      <path
         id="rect832"
         style="color:#000000;font-style:normal;font-variant:normal;font-weight:normal;font-stretch:normal;font-size:medium;line-height:normal;font-family:sans-serif;font-variant-ligatures:normal;font-variant-position:normal;font-variant-caps:normal;font-variant-numeric:normal;font-variant-alternates:normal;font-variant-east-asian:normal;font-feature-settings:normal;font-variation-settings:normal;text-indent:0;text-align:start;text-decoration:none;text-decoration-line:none;text-decoration-style:solid;text-decoration-color:#000000;letter-spacing:normal;word-spacing:normal;text-transform:none;writing-mode:lr-tb;direction:ltr;text-orientation:mixed;dominant-baseline:auto;baseline-shift:baseline;text-anchor:start;white-space:normal;shape-padding:0;shape-margin:0;inline-size:0;clip-rule:nonzero;display:inline;overflow:visible;visibility:visible;isolation:auto;mix-blend-mode:normal;color-interpolation:sRGB;color-interpolation-filters:linearRGB;solid-color:#000000;solid-opacity:1;vector-effect:none;fill:#ffffff;fill-opacity:1;fill-rule:nonzero;stroke:none;stroke-width:1.87287;stroke-linecap:round;stroke-linejoin:miter;stroke-miterlimit:4;stroke-dasharray:none;stroke-dashoffset:0;stroke-opacity:1;paint-order:stroke markers fill;color-rendering:auto;image-rendering:auto;shape-rendering:auto;text-rendering:auto;enable-background:accumulate;stop-color:#000000"
         d="m 30.323567,38.438005 c -1.804686,0 -3.282049,1.487404 -3.282049,3.291986 0,0.06828 0.016,0.131962 0.0204,0.199202 l -4.541534,2.620083 c -0.605353,-0.763133 -1.530848,-1.262769 -2.572965,-1.262769 -1.804685,0 -3.278669,1.473896 -3.278669,3.278473 0,1.804582 1.473984,3.291986 3.278669,3.291986 1.043817,0 1.971084,-0.504036 2.576341,-1.272901 l 4.538142,2.620079 c -0.004,0.06692 -0.0204,0.131322 -0.0204,0.199202 0,1.804582 1.477359,3.291982 3.282045,3.291982 1.804685,0 3.278672,-1.4874 3.278672,-3.291982 0,-1.80458 -1.473987,-3.281852 -3.278672,-3.281852 -1.113398,0 -2.09763,0.564201 -2.691144,1.418082 l -4.436819,-2.562673 c 0.0176,-0.136762 0.04388,-0.270764 0.04388,-0.411923 0,-0.139922 -0.0232,-0.273124 -0.04048,-0.408538 l 4.436799,-2.559309 c 0.593974,0.850481 1.577002,1.411334 2.687768,1.411334 1.804685,0 3.278668,-1.4739 3.278668,-3.278476 0,-1.804582 -1.473983,-3.291986 -3.278668,-3.291986 z m 0,1.593658 c 0.947911,0 1.695048,0.750468 1.695048,1.698328 0,0.947854 -0.747137,1.694946 -1.695048,1.694946 -0.947912,0 -1.698424,-0.747092 -1.698424,-1.694946 0,-0.94786 0.750512,-1.698328 1.698424,-1.698328 z m -10.376268,4.834994 c 0.947915,0 1.698427,0.750468 1.698427,1.698323 0,0.94786 -0.750512,1.698328 -1.698427,1.698328 -0.947911,0 -1.698423,-0.750468 -1.698423,-1.698328 0,-0.947855 0.750512,-1.698323 1.698423,-1.698323 z m 10.376268,4.83837 c 0.947911,0 1.695048,0.750468 1.695048,1.698327 0,0.947856 -0.747137,1.708452 -1.695048,1.708452 -0.947912,0 -1.698424,-0.760596 -1.698424,-1.708452 0,-0.947859 0.750512,-1.698327 1.698424,-1.698327 z" />
      <path
         id="path831"
         style="display:inline;fill:#ffffff;stroke:none;stroke-width:4.01724;stroke-linecap:round;paint-order:stroke markers fill"
         inkscape:transform-center-y="2.5067677"
         d="m 44.714586,39.819792 c -2.338008,4e-6 -4.233336,1.943916 -4.233336,4.341852 0,2.899181 1.378296,4.093373 2.530076,5.274673 1.482552,1.520564 3.794521,3.443416 5.936593,4.994824 2.142068,-1.551408 4.454032,-3.474264 5.936588,-4.994824 1.151776,-1.1813 2.530076,-2.375492 2.530076,-5.274673 0,-2.397936 -1.895324,-4.341852 -4.233332,-4.341852 -2.338004,0 -4.233332,1.24192 -4.233332,3.63986 0,-2.39794 -1.895332,-3.639856 -4.233333,-3.63986 z"
         sodipodi:nodetypes="ssscssscs" />
    </g>
  </g>
  <g
     inkscape:groupmode="layer"
     id="layer3"
     inkscape:label="Large Highlight"
     style="display:inline">
    <path
       d="M 4.2333333,63.5 V 33.866667 H 63.5 V 58.507749 C 63.5,61.273348 61.273349,63.5 58.50775,63.5 c -17.38157,0 -38.119462,0 -54.2744167,0 z"
       style="display:inline;opacity:0.055;fill:#ffffff;fill-opacity:1;stroke-width:0.0246944;stroke-miterlimit:4;stroke-dasharray:none;paint-order:stroke fill markers"
       id="path842"
       sodipodi:nodetypes="cccscc" />
  </g>
</svg>
