<?xml version="1.0" encoding="UTF-8" standalone="no"?>
<svg
   xmlns:dc="http://purl.org/dc/elements/1.1/"
   xmlns:cc="http://creativecommons.org/ns#"
   xmlns:rdf="http://www.w3.org/1999/02/22-rdf-syntax-ns#"
   xmlns:svg="http://www.w3.org/2000/svg"
   xmlns="http://www.w3.org/2000/svg"
   xmlns:sodipodi="http://sodipodi.sourceforge.net/DTD/sodipodi-0.dtd"
   xmlns:inkscape="http://www.inkscape.org/namespaces/inkscape"
   sodipodi:docname="org.gnome.Screenshot-symbolic.symbolic.svg"
   inkscape:version="1.0.2 (e86c870879, 2021-01-15)"
   id="svg8"
   version="1.1"
   viewBox="0 0 4.2333333 4.2333334"
   height="16"
   width="16">
  <defs
     id="defs2" />
  <sodipodi:namedview
     inkscape:window-maximized="1"
     inkscape:window-y="27"
     inkscape:window-x="1920"
     inkscape:window-height="1016"
     inkscape:window-width="1920"
     units="px"
     showgrid="false"
     inkscape:document-rotation="0"
     inkscape:current-layer="g1156"
     inkscape:document-units="px"
     inkscape:cy="8.0557937"
     inkscape:cx="8.9133336"
     inkscape:zoom="32"
     inkscape:pageshadow="2"
     inkscape:pageopacity="0.0"
     borderopacity="1.0"
     bordercolor="#666666"
     pagecolor="#ffffff"
     id="base" />
  <metadata
     id="metadata5">
    <rdf:RDF>
      <cc:Work
         rdf:about="">
        <dc:format>image/svg+xml</dc:format>
        <dc:type
           rdf:resource="http://purl.org/dc/dcmitype/StillImage" />
        <dc:title />
      </cc:Work>
    </rdf:RDF>
  </metadata>
  <g
     inkscape:label="Graphic"
     id="g1156"
     inkscape:groupmode="layer"
     style="display:inline">
    <g
       id="g1361"
       style="fill:#000000;fill-opacity:1"
       transform="matrix(0.07692308,0,0,0.07692308,-0.46810897,-0.46810897)">
      <path
         id="rect1197"
         style="fill:#000000;fill-opacity:1;stroke:none;stroke-width:9.27969;stroke-linecap:butt;stroke-linejoin:miter;stroke-miterlimit:4;stroke-dasharray:none;stroke-dashoffset:0;paint-order:markers fill stroke"
         d="m 189,161 c 0,9.33333 0,18.66667 0,28 -9.33333,0 -18.66667,0 -28,0 v 14 c 9.33333,0 18.66667,0 28,0 0,9.33333 0,18.66667 0,28 h 14 c 0,-9.33333 0,-18.66667 0,-28 9.33333,0 18.66667,0 28,0 v -14 c -9.33333,0 -18.66667,0 -28,0 0,-9.33333 0,-18.66667 0,-28 z"
         transform="scale(0.26458333)"
         sodipodi:nodetypes="ccccccccccccc" />
      <path
         id="rect841"
         style="fill:#000000;fill-opacity:1;stroke:none;stroke-width:9.27969;stroke-linecap:butt;stroke-linejoin:miter;stroke-miterlimit:4;stroke-dasharray:none;stroke-dashoffset:0;paint-order:markers fill stroke"
         d="M 49,49 V 63 H 63 V 49 Z m 28,0 V 63 H 91 V 49 Z m 28,0 v 14 h 14 V 49 Z m 28,0 v 14 h 14 V 49 Z m 28,0 v 14 h 14 V 49 Z m 28,0 v 14 h 14 V 49 Z M 49,77 V 91 H 63 V 77 Z m 140,0 v 14 h 14 V 77 Z M 49,105 v 14 h 14 v -14 z m 140,0 v 14 h 14 V 105 Z M 49,133 v 14 h 14 v -14 z m 140,0 v 14 h 14 V 133 Z M 49,161 v 14 h 14 v -14 z m 0,28 v 14 h 14 v -14 z m 28,0 v 14 h 14 v -14 z m 28,0 v 14 h 14 v -14 z m 28,0 v 14 h 14 v -14 z"
         transform="scale(0.26458333)" />
    </g>
  </g>
</svg>
