<?xml version="1.0" encoding="UTF-8" standalone="no"?>
<svg
   xmlns:dc="http://purl.org/dc/elements/1.1/"
   xmlns:cc="http://creativecommons.org/ns#"
   xmlns:rdf="http://www.w3.org/1999/02/22-rdf-syntax-ns#"
   xmlns:svg="http://www.w3.org/2000/svg"
   xmlns="http://www.w3.org/2000/svg"
   xmlns:xlink="http://www.w3.org/1999/xlink"
   xmlns:sodipodi="http://sodipodi.sourceforge.net/DTD/sodipodi-0.dtd"
   xmlns:inkscape="http://www.inkscape.org/namespaces/inkscape"
   sodipodi:docname="gnome-mines.svg"
   inkscape:version="1.0.2 (e86c870879, 2021-01-15)"
   id="svg8"
   version="1.1"
   viewBox="0 0 67.733332 67.733335"
   height="256"
   width="256">
  <defs
     id="defs2">
    <linearGradient
       inkscape:collect="always"
       id="linearGradient1422">
      <stop
         style="stop-color:#00daff;stop-opacity:1;"
         offset="0"
         id="stop1418" />
      <stop
         style="stop-color:#e1fbff;stop-opacity:1"
         offset="1"
         id="stop1420" />
    </linearGradient>
    <linearGradient
       inkscape:collect="always"
       xlink:href="#linearGradient1422"
       id="linearGradient1424"
       x1="128.14191"
       y1="7.229248"
       x2="128.14191"
       y2="247.24744"
       gradientUnits="userSpaceOnUse" />
  </defs>
  <sodipodi:namedview
     inkscape:window-maximized="1"
     inkscape:window-y="0"
     inkscape:window-x="0"
     inkscape:window-height="1016"
     inkscape:window-width="1836"
     units="px"
     showgrid="false"
     inkscape:document-rotation="0"
     inkscape:current-layer="layer6"
     inkscape:document-units="px"
     inkscape:cy="141.37941"
     inkscape:cx="124.19482"
     inkscape:zoom="1.8101934"
     inkscape:pageshadow="2"
     inkscape:pageopacity="0.0"
     borderopacity="1.0"
     bordercolor="#666666"
     pagecolor="#ffffff"
     id="base" />
  <metadata
     id="metadata5">
    <rdf:RDF>
      <cc:Work
         rdf:about="">
        <dc:format>image/svg+xml</dc:format>
        <dc:type
           rdf:resource="http://purl.org/dc/dcmitype/StillImage" />
        <dc:title />
      </cc:Work>
    </rdf:RDF>
  </metadata>
  <g
     inkscape:groupmode="layer"
     id="layer1"
     inkscape:label="Background"
     style="display:inline">
    <g
       inkscape:groupmode="layer"
       id="layer5"
       inkscape:label="Shadow"
       style="display:inline;opacity:0.4">
      <path
         id="path839"
         style="display:inline;fill:#000000;fill-opacity:1;stroke-width:0.0246944;stroke-miterlimit:4;stroke-dasharray:none;paint-order:stroke fill markers"
         d="m 4.2333333,34.925002 v 24.641082 c 0,2.765599 2.2266523,4.992251 4.9922513,4.992251 H 58.507751 c 2.765599,0 4.99225,-2.226652 4.99225,-4.992251 V 34.925002 Z" />
    </g>
    <g
       style="display:inline"
       inkscape:label="Colour"
       id="g1174"
       inkscape:groupmode="layer">
      <path
         id="path1426"
         style="display:inline;fill:url(#linearGradient1424);fill-opacity:1;stroke-width:0.0933332;stroke-miterlimit:4;stroke-dasharray:none;paint-order:stroke fill markers"
         d="M 34.869141 16 C 24.416485 16 16 24.416485 16 34.869141 L 16 128 L 16 221.13086 C 16 231.58352 24.416485 240 34.869141 240 L 221.13086 240 C 231.58352 240 240 231.58352 240 221.13086 L 240 128 L 240 34.869141 C 240 24.416485 231.58352 16 221.13086 16 L 34.869141 16 z "
         transform="scale(0.26458333)" />
    </g>
    <g
       inkscape:groupmode="layer"
       id="layer2"
       inkscape:label="Highlight"
       style="display:inline;opacity:0.1">
      <path
         d="m 9.2257926,4.2333333 c -2.765598,0 -4.9924593,2.2268603 -4.9924593,4.9924593 v 1.0583334 c 0,-2.7655984 2.2268613,-4.9924597 4.9924593,-4.9924597 H 58.507541 c 2.765599,0 4.99246,2.2268613 4.99246,4.9924597 V 9.2257926 c 0,-2.765599 -2.226861,-4.9924593 -4.99246,-4.9924593 z"
         style="display:inline;fill:#ffffff;fill-opacity:1;stroke-width:0.0246944;stroke-miterlimit:4;stroke-dasharray:none;paint-order:stroke fill markers"
         id="path955" />
    </g>
  </g>
  <g
     inkscape:groupmode="layer"
     id="layer3"
     inkscape:label="Graphic"
     style="display:inline;opacity:1">
    <g
       inkscape:groupmode="layer"
       id="layer4"
       inkscape:label="Shadow"
       style="opacity:0.4">
      <path
         id="rect1641"
         style="display:inline;opacity:1;fill:#000000;fill-opacity:1;stroke-width:0.171394;stroke-linecap:round;stroke-linejoin:round;paint-order:markers fill stroke"
         d="M 62.669922 92.275391 C 61.806313 92.21502 60.914805 92.403823 60.105469 92.871094 L 55.710938 95.408203 C 53.552708 96.654258 52.818398 99.394508 54.064453 101.55273 L 58.019531 108.40234 A 36.642698 36.642698 0 0 0 50.359375 117.70703 A 36.642698 36.642698 0 0 0 46.132812 128.99219 L 38.222656 128.99219 C 35.730547 128.99219 33.724609 130.99813 33.724609 133.49023 L 33.724609 138.56445 C 33.724609 141.05656 35.730547 143.0625 38.222656 143.0625 L 46.132812 143.0625 A 36.642698 36.642698 0 0 0 58.019531 163.6543 L 54.064453 170.50195 C 52.818398 172.66018 53.552708 175.40238 55.710938 176.64844 L 60.105469 179.18555 C 62.263699 180.4316 65.003945 179.69729 66.25 177.53906 L 70.205078 170.6875 A 36.642698 36.642698 0 0 0 76.048828 172.16992 A 6.0460451 6.0460451 0 0 0 81.478516 178.05078 L 81.478516 179.35742 A 3.0227774 3.023635 0 0 0 79.070312 182.31445 L 79.070312 184.73438 A 3.0227774 3.023635 0 0 0 81.478516 187.69336 L 81.478516 190.24023 A 3.0227774 3.023635 0 0 0 79.070312 193.19727 L 79.070312 195.61719 A 3.0227774 3.023635 0 0 0 81.478516 198.57617 L 81.478516 201.12305 A 3.0227774 3.023635 0 0 0 79.070312 204.08008 L 79.070312 206.5 A 3.0227774 3.023635 0 0 0 81.478516 209.45898 L 81.478516 212.00586 A 3.0227774 3.023635 0 0 0 79.070312 214.96289 L 79.070312 217.38281 A 3.0227774 3.023635 0 0 0 81.478516 220.3418 L 81.478516 222.88867 A 3.0227774 3.023635 0 0 0 79.070312 225.84766 L 79.070312 228.26562 A 3.0227774 3.023635 0 0 0 81.478516 231.22461 L 81.478516 233.77148 A 3.0227774 3.023635 0 0 0 79.070312 236.73047 L 79.070312 239.14844 A 3.0227774 3.023635 0 0 0 79.193359 240 L 80.492188 240 A 1.8136664 1.814181 0 0 1 80.279297 239.14844 L 80.279297 236.73047 A 1.8136664 1.814181 0 0 1 81.478516 235.02539 L 81.478516 236.73047 L 82.705078 236.73047 L 82.705078 235.02344 A 1.8136664 1.814181 0 0 1 83.90625 236.73047 L 83.90625 239.14844 A 1.8136664 1.814181 0 0 1 83.695312 240 L 84.992188 240 A 3.0227774 3.023635 0 0 0 85.115234 239.14844 L 85.115234 236.73047 A 3.0227774 3.023635 0 0 0 82.705078 233.76953 L 82.705078 231.22461 A 3.0227774 3.023635 0 0 0 85.115234 228.26562 L 85.115234 225.84766 A 3.0227774 3.023635 0 0 0 82.705078 222.88672 L 82.705078 220.3418 A 3.0227774 3.023635 0 0 0 85.115234 217.38281 L 85.115234 214.96289 A 3.0227774 3.023635 0 0 0 82.705078 212.00391 L 82.705078 209.45898 A 3.0227774 3.023635 0 0 0 85.115234 206.5 L 85.115234 204.08008 A 3.0227774 3.023635 0 0 0 82.705078 201.12109 L 82.705078 198.57617 A 3.0227774 3.023635 0 0 0 85.115234 195.61719 L 85.115234 193.19727 A 3.0227774 3.023635 0 0 0 82.705078 190.23828 L 82.705078 187.69336 A 3.0227774 3.023635 0 0 0 85.115234 184.73438 L 85.115234 182.31445 A 3.0227774 3.023635 0 0 0 82.705078 179.35547 L 82.705078 178.05273 A 6.0460451 6.0460451 0 0 0 88.136719 172.16797 A 36.642698 36.642698 0 0 0 93.980469 170.68945 L 97.933594 177.53906 C 99.179648 179.69729 101.92185 180.4316 104.08008 179.18555 L 108.47461 176.64844 C 110.63284 175.40238 111.36715 172.66018 110.12109 170.50195 L 106.16406 163.65234 A 36.642698 36.642698 0 0 0 113.82617 154.34961 A 36.642698 36.642698 0 0 0 118.05273 143.0625 L 125.96289 143.0625 C 128.455 143.0625 130.46094 141.05656 130.46094 138.56445 L 130.46094 133.49023 C 130.46094 130.99813 128.455 128.99219 125.96289 128.99219 L 118.05273 128.99219 A 36.642698 36.642698 0 0 0 106.16602 108.40234 L 110.12109 101.55273 C 111.36715 99.394508 110.63284 96.654258 108.47461 95.408203 L 104.08008 92.871094 C 101.92185 91.625039 99.179648 92.359348 97.933594 94.517578 L 93.980469 101.36719 A 36.642698 36.642698 0 0 0 70.205078 101.36719 L 66.25 94.517578 C 65.471216 93.168684 64.10927 92.376008 62.669922 92.275391 z M 176.40039 139.67188 C 175.8575 139.63392 175.29783 139.75314 174.78906 140.04688 L 172.02734 141.64062 C 170.67062 142.42393 170.20888 144.14718 170.99219 145.50391 L 173.47656 149.81055 A 23.034634 23.034634 0 0 0 168.66211 155.6582 A 23.034634 23.034634 0 0 0 166.00586 162.75391 L 161.0332 162.75391 C 159.46659 162.75391 158.20508 164.01347 158.20508 165.58008 L 158.20508 168.77148 C 158.20508 170.33809 159.46659 171.59766 161.0332 171.59766 L 166.00586 171.59766 A 23.034634 23.034634 0 0 0 173.47656 184.54102 L 170.99219 188.84766 C 170.20888 190.20438 170.67062 191.92763 172.02734 192.71094 L 174.78906 194.30469 C 176.14579 195.08799 177.86904 194.62626 178.65234 193.26953 L 181.13867 188.96484 A 23.034634 23.034634 0 0 0 184.81055 189.89258 A 3.8007143 3.8007143 0 0 0 188.22461 193.5918 L 188.22461 194.41211 A 1.9002031 1.9007422 0 0 0 186.71094 196.27344 L 186.71094 197.79297 A 1.9002031 1.9007422 0 0 0 188.22461 199.6543 L 188.22461 201.25391 A 1.9002031 1.9007422 0 0 0 186.71094 203.11523 L 186.71094 204.63477 A 1.9002031 1.9007422 0 0 0 188.22461 206.49414 L 188.22461 208.0957 A 1.9002031 1.9007422 0 0 0 186.71094 209.95508 L 186.71094 211.47656 A 1.9002031 1.9007422 0 0 0 188.22461 213.33594 L 188.22461 214.93555 A 1.9002031 1.9007422 0 0 0 186.71094 216.79688 L 186.71094 218.31836 A 1.9002031 1.9007422 0 0 0 188.22461 220.17773 L 188.22461 221.77734 A 1.9002031 1.9007422 0 0 0 186.71094 223.63867 L 186.71094 225.1582 A 1.9002031 1.9007422 0 0 0 188.22461 227.01953 L 188.22461 228.61914 A 1.9002031 1.9007422 0 0 0 186.71094 230.48047 L 186.71094 232 A 1.9002031 1.9007422 0 0 0 188.22461 233.85938 L 188.22461 235.46094 A 1.9002031 1.9007422 0 0 0 186.71094 237.32031 L 186.71094 238.8418 A 1.9002031 1.9007422 0 0 0 187.10547 240 L 190.11523 240 A 1.9002031 1.9007422 0 0 0 190.51172 238.8418 L 190.51172 237.32031 A 1.9002031 1.9007422 0 0 0 188.99609 235.46094 L 188.99609 233.85938 A 1.9002031 1.9007422 0 0 0 190.51172 232 L 190.51172 230.48047 A 1.9002031 1.9007422 0 0 0 188.99609 228.61914 L 188.99609 227.01953 A 1.9002031 1.9007422 0 0 0 190.51172 225.1582 L 190.51172 223.63867 A 1.9002031 1.9007422 0 0 0 188.99609 221.7793 L 188.99609 220.17773 A 1.9002031 1.9007422 0 0 0 190.51172 218.31836 L 190.51172 216.79688 A 1.9002031 1.9007422 0 0 0 188.99609 214.9375 L 188.99609 213.33594 A 1.9002031 1.9007422 0 0 0 190.51172 211.47656 L 190.51172 209.95508 A 1.9002031 1.9007422 0 0 0 188.99609 208.0957 L 188.99609 206.49414 A 1.9002031 1.9007422 0 0 0 190.51172 204.63477 L 190.51172 203.11523 A 1.9002031 1.9007422 0 0 0 188.99609 201.25391 L 188.99609 199.6543 A 1.9002031 1.9007422 0 0 0 190.51172 197.79297 L 190.51172 196.27344 A 1.9002031 1.9007422 0 0 0 188.99609 194.41406 L 188.99609 193.5918 A 3.8007143 3.8007143 0 0 0 192.41016 189.89453 A 23.034634 23.034634 0 0 0 196.08203 188.96289 L 198.57031 193.26953 C 199.35362 194.62626 201.07492 195.08799 202.43164 194.30469 L 205.19531 192.71094 C 206.55204 191.92763 207.01377 190.20438 206.23047 188.84766 L 203.74414 184.54297 A 23.034634 23.034634 0 0 0 208.55859 178.69336 A 23.034634 23.034634 0 0 0 211.2168 171.59766 L 216.18945 171.59766 C 217.75606 171.59766 219.01758 170.33809 219.01758 168.77148 L 219.01758 165.58008 C 219.01758 164.01347 217.75606 162.75391 216.18945 162.75391 L 211.2168 162.75391 A 23.034634 23.034634 0 0 0 203.74414 149.81055 L 206.23047 145.50391 C 207.01377 144.14718 206.55204 142.42393 205.19531 141.64062 L 202.43359 140.04688 C 201.07687 139.26357 199.35362 139.72531 198.57031 141.08203 L 196.08398 145.38672 A 23.034634 23.034634 0 0 0 181.13867 145.38672 L 178.65234 141.08203 C 178.16278 140.23408 177.30521 139.73512 176.40039 139.67188 z M 78.494141 172.49219 A 36.642698 36.642698 0 0 0 85.691406 172.49219 A 3.6276271 3.6276271 0 0 1 82.705078 175.61133 L 82.705078 173.85156 L 81.478516 173.85156 L 81.478516 175.61133 A 3.6276271 3.6276271 0 0 1 78.494141 172.49219 z M 82.705078 180.60938 A 1.8136664 1.814181 0 0 1 83.90625 182.31445 L 83.90625 184.73438 A 1.8136664 1.814181 0 0 1 82.705078 186.44336 L 82.705078 184.73438 L 81.478516 184.73438 L 81.478516 186.44141 A 1.8136664 1.814181 0 0 1 80.279297 184.73438 L 80.279297 182.31445 A 1.8136664 1.814181 0 0 1 81.478516 180.61133 L 81.478516 182.31641 L 82.705078 182.31641 L 82.705078 180.60938 z M 186.34766 190.09766 A 23.034634 23.034634 0 0 0 190.875 190.09766 A 2.2804287 2.2804287 0 0 1 188.99609 192.05859 L 188.99609 190.95312 L 188.22461 190.95312 L 188.22461 192.06055 A 2.2804287 2.2804287 0 0 1 186.34766 190.09766 z M 82.705078 191.49219 A 1.8136664 1.814181 0 0 1 83.90625 193.19727 L 83.90625 195.61719 A 1.8136664 1.814181 0 0 1 82.705078 197.32617 L 82.705078 195.61719 L 81.478516 195.61719 L 81.478516 197.32422 A 1.8136664 1.814181 0 0 1 80.279297 195.61719 L 80.279297 193.19727 A 1.8136664 1.814181 0 0 1 81.478516 191.49414 L 81.478516 193.19922 L 82.705078 193.19922 L 82.705078 191.49219 z M 188.22461 195.20117 L 188.22461 196.27344 L 188.99609 196.27344 L 188.99609 195.20117 A 1.1401218 1.1404453 0 0 1 189.75195 196.27344 L 189.75195 197.79297 A 1.1401218 1.1404453 0 0 1 188.99609 198.86719 L 188.99609 197.79297 L 188.22461 197.79297 L 188.22461 198.86719 A 1.1401218 1.1404453 0 0 1 187.4707 197.79297 L 187.4707 196.27344 A 1.1401218 1.1404453 0 0 1 188.22461 195.20117 z M 188.22461 202.04297 L 188.22461 203.11523 L 188.99609 203.11523 L 188.99609 202.04297 A 1.1401218 1.1404453 0 0 1 189.75195 203.11523 L 189.75195 204.63477 A 1.1401218 1.1404453 0 0 1 188.99609 205.70898 L 188.99609 204.63477 L 188.22461 204.63477 L 188.22461 205.70898 A 1.1401218 1.1404453 0 0 1 187.4707 204.63477 L 187.4707 203.11523 A 1.1401218 1.1404453 0 0 1 188.22461 202.04297 z M 82.705078 202.375 A 1.8136664 1.814181 0 0 1 83.90625 204.08008 L 83.90625 206.5 A 1.8136664 1.814181 0 0 1 82.705078 208.20898 L 82.705078 206.5 L 81.478516 206.5 L 81.478516 208.20703 A 1.8136664 1.814181 0 0 1 80.279297 206.5 L 80.279297 204.08008 A 1.8136664 1.814181 0 0 1 81.478516 202.37695 L 81.478516 204.08203 L 82.705078 204.08203 L 82.705078 202.375 z M 188.99609 208.88281 A 1.1401218 1.1404453 0 0 1 189.75195 209.95508 L 189.75195 211.47656 A 1.1401218 1.1404453 0 0 1 188.99609 212.54883 L 188.99609 211.47656 L 188.22461 211.47656 L 188.22461 212.54883 A 1.1401218 1.1404453 0 0 1 187.4707 211.47656 L 187.4707 209.95508 A 1.1401218 1.1404453 0 0 1 188.22461 208.88477 L 188.22461 209.95508 L 188.99609 209.95508 L 188.99609 208.88281 z M 82.705078 213.25781 A 1.8136664 1.814181 0 0 1 83.90625 214.96289 L 83.90625 217.38281 A 1.8136664 1.814181 0 0 1 82.705078 219.0918 L 82.705078 217.38281 L 81.478516 217.38281 L 81.478516 219.08984 A 1.8136664 1.814181 0 0 1 80.279297 217.38281 L 80.279297 214.96289 A 1.8136664 1.814181 0 0 1 81.478516 213.25977 L 81.478516 214.96484 L 82.705078 214.96484 L 82.705078 213.25781 z M 188.22461 215.72461 L 188.22461 216.79688 L 188.99609 216.79688 L 188.99609 215.72461 A 1.1401218 1.1404453 0 0 1 189.75195 216.79688 L 189.75195 218.31836 A 1.1401218 1.1404453 0 0 1 188.99609 219.39062 L 188.99609 218.31836 L 188.22461 218.31836 L 188.22461 219.39062 A 1.1401218 1.1404453 0 0 1 187.4707 218.31836 L 187.4707 216.79688 A 1.1401218 1.1404453 0 0 1 188.22461 215.72461 z M 188.22461 222.56641 L 188.22461 223.63867 L 188.99609 223.63867 L 188.99609 222.56641 A 1.1401218 1.1404453 0 0 1 189.75195 223.63867 L 189.75195 225.1582 A 1.1401218 1.1404453 0 0 1 188.99609 226.23242 L 188.99609 225.1582 L 188.22461 225.1582 L 188.22461 226.23242 A 1.1401218 1.1404453 0 0 1 187.4707 225.1582 L 187.4707 223.63867 A 1.1401218 1.1404453 0 0 1 188.22461 222.56641 z M 82.705078 224.14062 A 1.8136664 1.814181 0 0 1 83.90625 225.84766 L 83.90625 228.26562 A 1.8136664 1.814181 0 0 1 82.705078 229.97461 L 82.705078 228.26562 L 81.478516 228.26562 L 81.478516 229.97266 A 1.8136664 1.814181 0 0 1 80.279297 228.26562 L 80.279297 225.84766 A 1.8136664 1.814181 0 0 1 81.478516 224.14258 L 81.478516 225.84766 L 82.705078 225.84766 L 82.705078 224.14062 z M 188.22461 229.4082 L 188.22461 230.48047 L 188.99609 230.48047 L 188.99609 229.4082 A 1.1401218 1.1404453 0 0 1 189.75195 230.48047 L 189.75195 232 A 1.1401218 1.1404453 0 0 1 188.99609 233.07422 L 188.99609 232 L 188.22461 232 L 188.22461 233.07422 A 1.1401218 1.1404453 0 0 1 187.4707 232 L 187.4707 230.48047 A 1.1401218 1.1404453 0 0 1 188.22461 229.4082 z M 188.99609 236.24805 A 1.1401218 1.1404453 0 0 1 189.75195 237.32031 L 189.75195 238.8418 A 1.1401218 1.1404453 0 0 1 188.99609 239.91406 L 188.99609 238.8418 L 188.22461 238.8418 L 188.22461 239.91406 A 1.1401218 1.1404453 0 0 1 187.4707 238.8418 L 187.4707 237.32031 A 1.1401218 1.1404453 0 0 1 188.22461 236.25 L 188.22461 237.32031 L 188.99609 237.32031 L 188.99609 236.24805 z M 81.478516 239.14844 L 81.478516 240 L 82.705078 240 L 82.705078 239.14844 L 81.478516 239.14844 z "
         transform="scale(0.26458333)" />
    </g>
    <g
       id="g1980">
      <g
         id="g1613">
        <path
           id="path990"
           style="fill:#333333;fill-opacity:1;stroke-width:0.0227707;stroke-linecap:round;stroke-linejoin:round;paint-order:markers fill stroke"
           d="m 21.720292,46.059517 a 1.5996828,1.5996828 0 0 1 -1.599687,-1.599683 h 0.639877 a 0.95980969,0.95980969 0 0 0 0.95981,0.959809 0.95980969,0.95980969 0 0 0 0.959809,-0.959809 h 0.639878 a 1.5996828,1.5996828 0 0 1 -1.599687,1.599683 z" />
        <path
           id="path1004"
           style="fill:#333333;fill-opacity:1;stroke-width:0.0113861;stroke-linecap:round;stroke-linejoin:round;paint-order:markers fill stroke"
           d="m 21.719971,46.379471 a 0.79977653,0.80000344 0 0 0 -0.799526,0.799749 v 0.640056 a 0.79977653,0.80000344 0 0 0 0.799526,0.79975 0.79977653,0.80000344 0 0 0 0.800158,-0.79975 V 47.17922 a 0.79977653,0.80000344 0 0 0 -0.800158,-0.799749 z m 0,0.320026 a 0.4798659,0.48000205 0 0 1 0.480223,0.479723 v 0.640056 a 0.4798659,0.48000205 0 0 1 -0.480223,0.480358 0.4798659,0.48000205 0 0 1 -0.47959,-0.480358 V 47.17922 a 0.4798659,0.48000205 0 0 1 0.47959,-0.479723 z" />
        <rect
           style="fill:#333333;fill-opacity:1;stroke-width:0.0176442;stroke-linecap:round;stroke-linejoin:round;paint-order:markers fill stroke"
           id="rect1014"
           width="0.32447928"
           height="2.2395561"
           x="21.558077"
           y="47.819168" />
        <path
           id="path1016"
           style="fill:#333333;fill-opacity:1;stroke-width:0.0113861;stroke-linecap:round;stroke-linejoin:round;paint-order:markers fill stroke"
           d="m 21.719971,49.2589 a 0.79977653,0.80000344 0 0 0 -0.799526,0.799749 v 0.640056 a 0.79977653,0.80000344 0 0 0 0.799526,0.79975 0.79977653,0.80000344 0 0 0 0.800158,-0.79975 V 50.058649 A 0.79977653,0.80000344 0 0 0 21.719971,49.2589 Z m 0,0.320027 a 0.4798659,0.48000205 0 0 1 0.480223,0.479722 v 0.640056 a 0.4798659,0.48000205 0 0 1 -0.480223,0.480358 0.4798659,0.48000205 0 0 1 -0.47959,-0.480358 v -0.640056 a 0.4798659,0.48000205 0 0 1 0.47959,-0.479722 z" />
        <rect
           style="fill:#333333;fill-opacity:1;stroke-width:0.0176442;stroke-linecap:round;stroke-linejoin:round;paint-order:markers fill stroke"
           id="rect1018"
           width="0.32447928"
           height="2.2395561"
           x="21.558077"
           y="44.939735" />
        <path
           id="path1020"
           style="fill:#333333;fill-opacity:1;stroke-width:0.0113861;stroke-linecap:round;stroke-linejoin:round;paint-order:markers fill stroke"
           d="m 21.719971,52.138325 a 0.79977653,0.80000344 0 0 0 -0.799526,0.799749 v 0.640057 a 0.79977653,0.80000344 0 0 0 0.799526,0.79975 0.79977653,0.80000344 0 0 0 0.800158,-0.79975 v -0.640057 a 0.79977653,0.80000344 0 0 0 -0.800158,-0.799749 z m 0,0.320027 a 0.4798659,0.48000205 0 0 1 0.480223,0.479722 v 0.640057 a 0.4798659,0.48000205 0 0 1 -0.480223,0.480358 0.4798659,0.48000205 0 0 1 -0.47959,-0.480358 v -0.640057 a 0.4798659,0.48000205 0 0 1 0.47959,-0.479722 z" />
        <rect
           style="fill:#333333;fill-opacity:1;stroke-width:0.0176442;stroke-linecap:round;stroke-linejoin:round;paint-order:markers fill stroke"
           id="rect1022"
           width="0.32447928"
           height="2.2395561"
           x="21.558077"
           y="53.57803" />
        <path
           id="path1024"
           style="fill:#333333;fill-opacity:1;stroke-width:0.0113861;stroke-linecap:round;stroke-linejoin:round;paint-order:markers fill stroke"
           d="m 21.719971,55.017754 a 0.79977653,0.80000344 0 0 0 -0.799526,0.79975 v 0.640056 a 0.79977653,0.80000344 0 0 0 0.799526,0.79975 0.79977653,0.80000344 0 0 0 0.800158,-0.79975 v -0.640056 a 0.79977653,0.80000344 0 0 0 -0.800158,-0.79975 z m 0,0.320027 a 0.4798659,0.48000205 0 0 1 0.480223,0.479723 v 0.640056 a 0.4798659,0.48000205 0 0 1 -0.480223,0.480358 0.4798659,0.48000205 0 0 1 -0.47959,-0.480358 v -0.640056 a 0.4798659,0.48000205 0 0 1 0.47959,-0.479723 z" />
        <rect
           style="fill:#333333;fill-opacity:1;stroke-width:0.0176442;stroke-linecap:round;stroke-linejoin:round;paint-order:markers fill stroke"
           id="rect1026"
           width="0.32447928"
           height="2.2395561"
           x="21.558077"
           y="50.698597" />
        <path
           id="path1028"
           style="fill:#333333;fill-opacity:1;stroke-width:0.0113861;stroke-linecap:round;stroke-linejoin:round;paint-order:markers fill stroke"
           d="m 21.719971,57.897194 a 0.79977653,0.80000344 0 0 0 -0.799526,0.79975 V 59.337 a 0.79977653,0.80000344 0 0 0 0.799526,0.79975 0.79977653,0.80000344 0 0 0 0.800158,-0.79975 v -0.640056 a 0.79977653,0.80000344 0 0 0 -0.800158,-0.79975 z m 0,0.320027 a 0.4798659,0.48000205 0 0 1 0.480223,0.479723 V 59.337 A 0.4798659,0.48000205 0 0 1 21.719971,59.817358 0.4798659,0.48000205 0 0 1 21.240381,59.337 v -0.640056 a 0.4798659,0.48000205 0 0 1 0.47959,-0.479723 z" />
        <rect
           style="fill:#333333;fill-opacity:1;stroke-width:0.0176442;stroke-linecap:round;stroke-linejoin:round;paint-order:markers fill stroke"
           id="rect1030"
           width="0.32447928"
           height="2.2395561"
           x="21.558077"
           y="59.336895" />
        <path
           id="path1032"
           style="fill:#333333;fill-opacity:1;stroke-width:0.0113861;stroke-linecap:round;stroke-linejoin:round;paint-order:markers fill stroke"
           d="m 21.719971,60.776624 a 0.79977653,0.80000344 0 0 0 -0.799526,0.799749 v 0.640056 a 0.79977653,0.80000344 0 0 0 0.799526,0.79975 0.79977653,0.80000344 0 0 0 0.800158,-0.79975 v -0.640056 a 0.79977653,0.80000344 0 0 0 -0.800158,-0.799749 z m 0,0.320026 a 0.4798659,0.48000205 0 0 1 0.480223,0.479723 v 0.640056 a 0.4798659,0.48000205 0 0 1 -0.480223,0.480358 0.4798659,0.48000205 0 0 1 -0.47959,-0.480358 v -0.640056 a 0.4798659,0.48000205 0 0 1 0.47959,-0.479723 z" />
        <rect
           style="fill:#333333;fill-opacity:1;stroke-width:0.0176442;stroke-linecap:round;stroke-linejoin:round;paint-order:markers fill stroke"
           id="rect1034"
           width="0.32447928"
           height="2.2395561"
           x="21.558077"
           y="56.457466" />
        <path
           id="rect1042"
           style="fill:#333333;fill-opacity:1;stroke-width:0.0666867;stroke-linecap:round;stroke-linejoin:round;paint-order:markers fill stroke"
           d="M 81.478516,235.14844 V 240 h 1.226562 v -4.85156 z"
           transform="scale(0.26458333)" />
      </g>
      <g
         id="g940"
         transform="matrix(1.2693403,0.732854,-0.732854,1.2693403,0.099096,-24.56906)">
        <g
           id="g930"
           style="fill:#222222;fill-opacity:1">
          <rect
             style="opacity:1;fill:#222222;fill-opacity:1;stroke-width:0.0309393;stroke-linecap:round;stroke-linejoin:round;paint-order:markers fill stroke"
             id="rect912"
             width="2.54"
             height="3.175"
             x="31.802917"
             y="19.049999"
             ry="0.81203055" />
          <rect
             style="opacity:1;fill:#222222;fill-opacity:1;stroke-width:0.0309393;stroke-linecap:round;stroke-linejoin:round;paint-order:markers fill stroke"
             id="rect914"
             width="2.54"
             height="3.175"
             x="31.802917"
             y="-36.512501"
             ry="0.81203055"
             transform="scale(1,-1)" />
          <rect
             style="opacity:1;fill:#222222;fill-opacity:1;stroke-width:0.0309393;stroke-linecap:round;stroke-linejoin:round;paint-order:markers fill stroke"
             id="rect916"
             width="2.54"
             height="3.175"
             x="-8.7928095"
             y="33.801361"
             ry="0.81203055"
             transform="rotate(-60)" />
          <rect
             style="opacity:1;fill:#222222;fill-opacity:1;stroke-width:0.0309393;stroke-linecap:round;stroke-linejoin:round;paint-order:markers fill stroke"
             id="rect918"
             width="2.54"
             height="3.175"
             x="-8.7928095"
             y="-51.263863"
             ry="0.81203055"
             transform="matrix(0.5,-0.8660254,-0.8660254,-0.5,0,0)" />
          <rect
             style="opacity:1;fill:#222222;fill-opacity:1;stroke-width:0.0309393;stroke-linecap:round;stroke-linejoin:round;paint-order:markers fill stroke"
             id="rect920"
             width="2.54"
             height="3.175"
             x="39.325726"
             y="-23.482615"
             ry="0.81203055"
             transform="rotate(60)" />
          <rect
             style="opacity:1;fill:#222222;fill-opacity:1;stroke-width:0.0309393;stroke-linecap:round;stroke-linejoin:round;paint-order:markers fill stroke"
             id="rect922"
             width="2.54"
             height="3.175"
             x="39.325726"
             y="6.0201139"
             ry="0.81203055"
             transform="matrix(0.5,0.8660254,0.8660254,-0.5,0,0)" />
        </g>
        <circle
           style="opacity:1;fill:#1a1a1a;fill-opacity:1;stroke-width:0.0244683;stroke-linecap:round;stroke-linejoin:round;paint-order:markers fill stroke"
           id="path910"
           cx="33.072918"
           cy="-27.78125"
           r="6.6145835"
           transform="scale(1,-1)" />
      </g>
    </g>
    <g
       id="g1930">
      <g
         id="g1569">
        <path
           id="path1091"
           style="fill:#333333;fill-opacity:1;stroke-width:0.0143143;stroke-linecap:round;stroke-linejoin:round;paint-order:markers fill stroke"
           d="m 49.903314,50.168381 a 1.0056057,1.0056057 0 0 1 -1.005608,-1.005606 h 0.402244 a 0.60336343,0.60336343 0 0 0 0.603364,0.603363 0.60336343,0.60336343 0 0 0 0.603363,-0.603363 h 0.402245 a 1.0056057,1.0056057 0 0 1 -1.005608,1.005606 z" />
        <path
           id="path1111"
           style="fill:#333333;fill-opacity:1;stroke-width:0.00715761;stroke-linecap:round;stroke-linejoin:round;paint-order:markers fill stroke"
           d="m 49.903112,50.369512 a 0.50276208,0.50290472 0 0 0 -0.502604,0.502745 v 0.402358 a 0.50276208,0.50290472 0 0 0 0.502604,0.502745 0.50276208,0.50290472 0 0 0 0.503002,-0.502745 v -0.402358 a 0.50276208,0.50290472 0 0 0 -0.503002,-0.502745 z m 0,0.201178 a 0.30165723,0.30174282 0 0 1 0.301882,0.301567 v 0.402358 a 0.30165723,0.30174282 0 0 1 -0.301882,0.301966 0.30165723,0.30174282 0 0 1 -0.301483,-0.301966 v -0.402358 a 0.30165723,0.30174282 0 0 1 0.301483,-0.301567 z" />
        <rect
           style="fill:#333333;fill-opacity:1;stroke-width:0.0110916;stroke-linecap:round;stroke-linejoin:round;paint-order:markers fill stroke"
           id="rect1113"
           width="0.20397681"
           height="1.407848"
           x="49.801342"
           y="51.274548" />
        <path
           id="path1115"
           style="fill:#333333;fill-opacity:1;stroke-width:0.00715761;stroke-linecap:round;stroke-linejoin:round;paint-order:markers fill stroke"
           d="m 49.903112,52.179603 a 0.50276208,0.50290472 0 0 0 -0.502604,0.502745 v 0.402357 a 0.50276208,0.50290472 0 0 0 0.502604,0.502746 0.50276208,0.50290472 0 0 0 0.503002,-0.502746 v -0.402357 a 0.50276208,0.50290472 0 0 0 -0.503002,-0.502745 z m 0,0.201178 a 0.30165723,0.30174282 0 0 1 0.301882,0.301567 v 0.402357 a 0.30165723,0.30174282 0 0 1 -0.301882,0.301967 0.30165723,0.30174282 0 0 1 -0.301483,-0.301967 v -0.402357 a 0.30165723,0.30174282 0 0 1 0.301483,-0.301567 z" />
        <rect
           style="fill:#333333;fill-opacity:1;stroke-width:0.0110916;stroke-linecap:round;stroke-linejoin:round;paint-order:markers fill stroke"
           id="rect1117"
           width="0.20397681"
           height="1.407848"
           x="49.801342"
           y="49.464455" />
        <path
           id="path1119"
           style="fill:#333333;fill-opacity:1;stroke-width:0.00715761;stroke-linecap:round;stroke-linejoin:round;paint-order:markers fill stroke"
           d="m 49.903112,53.989691 a 0.50276208,0.50290472 0 0 0 -0.502604,0.502745 v 0.402357 a 0.50276208,0.50290472 0 0 0 0.502604,0.502746 0.50276208,0.50290472 0 0 0 0.503002,-0.502746 v -0.402357 a 0.50276208,0.50290472 0 0 0 -0.503002,-0.502745 z m 0,0.201178 a 0.30165723,0.30174282 0 0 1 0.301882,0.301567 v 0.402357 a 0.30165723,0.30174282 0 0 1 -0.301882,0.301967 0.30165723,0.30174282 0 0 1 -0.301483,-0.301967 v -0.402357 a 0.30165723,0.30174282 0 0 1 0.301483,-0.301567 z" />
        <rect
           style="fill:#333333;fill-opacity:1;stroke-width:0.0110916;stroke-linecap:round;stroke-linejoin:round;paint-order:markers fill stroke"
           id="rect1121"
           width="0.20397681"
           height="1.407848"
           x="49.801342"
           y="54.89473" />
        <path
           id="path1123"
           style="fill:#333333;fill-opacity:1;stroke-width:0.00715761;stroke-linecap:round;stroke-linejoin:round;paint-order:markers fill stroke"
           d="m 49.903112,55.799781 a 0.50276208,0.50290472 0 0 0 -0.502604,0.502745 v 0.402357 a 0.50276208,0.50290472 0 0 0 0.502604,0.502746 0.50276208,0.50290472 0 0 0 0.503002,-0.502746 v -0.402357 a 0.50276208,0.50290472 0 0 0 -0.503002,-0.502745 z m 0,0.201178 a 0.30165723,0.30174282 0 0 1 0.301882,0.301567 v 0.402357 a 0.30165723,0.30174282 0 0 1 -0.301882,0.301967 0.30165723,0.30174282 0 0 1 -0.301483,-0.301967 v -0.402357 a 0.30165723,0.30174282 0 0 1 0.301483,-0.301567 z" />
        <rect
           style="fill:#333333;fill-opacity:1;stroke-width:0.0110916;stroke-linecap:round;stroke-linejoin:round;paint-order:markers fill stroke"
           id="rect1125"
           width="0.20397681"
           height="1.407848"
           x="49.801342"
           y="53.084637" />
        <path
           id="path1127"
           style="fill:#333333;fill-opacity:1;stroke-width:0.00715761;stroke-linecap:round;stroke-linejoin:round;paint-order:markers fill stroke"
           d="m 49.903112,57.609878 a 0.50276208,0.50290472 0 0 0 -0.502604,0.502745 v 0.402358 a 0.50276208,0.50290472 0 0 0 0.502604,0.502745 0.50276208,0.50290472 0 0 0 0.503002,-0.502745 v -0.402358 a 0.50276208,0.50290472 0 0 0 -0.503002,-0.502745 z m 0,0.201178 a 0.30165723,0.30174282 0 0 1 0.301882,0.301567 v 0.402358 a 0.30165723,0.30174282 0 0 1 -0.301882,0.301966 0.30165723,0.30174282 0 0 1 -0.301483,-0.301966 v -0.402358 a 0.30165723,0.30174282 0 0 1 0.301483,-0.301567 z" />
        <rect
           style="fill:#333333;fill-opacity:1;stroke-width:0.0110916;stroke-linecap:round;stroke-linejoin:round;paint-order:markers fill stroke"
           id="rect1129"
           width="0.20397681"
           height="1.407848"
           x="49.801342"
           y="58.514915" />
        <path
           id="path1131"
           style="fill:#333333;fill-opacity:1;stroke-width:0.00715761;stroke-linecap:round;stroke-linejoin:round;paint-order:markers fill stroke"
           d="m 49.903112,59.419969 a 0.50276208,0.50290472 0 0 0 -0.502604,0.502745 v 0.402357 a 0.50276208,0.50290472 0 0 0 0.502604,0.502746 0.50276208,0.50290472 0 0 0 0.503002,-0.502746 v -0.402357 a 0.50276208,0.50290472 0 0 0 -0.503002,-0.502745 z m 0,0.201178 a 0.30165723,0.30174282 0 0 1 0.301882,0.301567 v 0.402357 a 0.30165723,0.30174282 0 0 1 -0.301882,0.301967 0.30165723,0.30174282 0 0 1 -0.301483,-0.301967 v -0.402357 a 0.30165723,0.30174282 0 0 1 0.301483,-0.301567 z" />
        <rect
           style="fill:#333333;fill-opacity:1;stroke-width:0.0110916;stroke-linecap:round;stroke-linejoin:round;paint-order:markers fill stroke"
           id="rect1133"
           width="0.20397681"
           height="1.407848"
           x="49.801342"
           y="56.704823" />
        <path
           id="path1135"
           style="fill:#333333;fill-opacity:1;stroke-width:0.00715761;stroke-linecap:round;stroke-linejoin:round;paint-order:markers fill stroke"
           d="m 49.903112,61.230057 a 0.50276208,0.50290472 0 0 0 -0.502604,0.502745 v 0.402357 a 0.50276208,0.50290472 0 0 0 0.502604,0.502746 0.50276208,0.50290472 0 0 0 0.503002,-0.502746 v -0.402357 a 0.50276208,0.50290472 0 0 0 -0.503002,-0.502745 z m 0,0.201178 a 0.30165723,0.30174282 0 0 1 0.301882,0.301567 v 0.402357 a 0.30165723,0.30174282 0 0 1 -0.301882,0.301967 0.30165723,0.30174282 0 0 1 -0.301483,-0.301967 v -0.402357 a 0.30165723,0.30174282 0 0 1 0.301483,-0.301567 z" />
        <path
           id="rect1137"
           style="fill:#333333;fill-opacity:1;stroke-width:0.041921;stroke-linecap:round;stroke-linejoin:round;paint-order:markers fill stroke"
           d="M 188.22461,234.8418 V 240 h 0.77148 v -5.1582 z"
           transform="scale(0.26458333)" />
        <rect
           style="fill:#333333;fill-opacity:1;stroke-width:0.0110916;stroke-linecap:round;stroke-linejoin:round;paint-order:markers fill stroke"
           id="rect1141"
           width="0.20397681"
           height="1.407848"
           x="49.801342"
           y="60.325005" />
      </g>
      <g
         id="g1549">
        <g
           id="g1105"
           style="fill:#222222;fill-opacity:1"
           transform="matrix(0.7979431,0.46069268,-0.46069268,0.7979431,36.311621,5.7692661)">
          <rect
             style="opacity:1;fill:#222222;fill-opacity:1;stroke-width:0.0309393;stroke-linecap:round;stroke-linejoin:round;paint-order:markers fill stroke"
             id="rect1093"
             width="2.54"
             height="3.175"
             x="31.802917"
             y="19.049999"
             ry="0.81203055" />
          <rect
             style="opacity:1;fill:#222222;fill-opacity:1;stroke-width:0.0309393;stroke-linecap:round;stroke-linejoin:round;paint-order:markers fill stroke"
             id="rect1095"
             width="2.54"
             height="3.175"
             x="31.802917"
             y="-36.512501"
             ry="0.81203055"
             transform="scale(1,-1)" />
          <rect
             style="opacity:1;fill:#222222;fill-opacity:1;stroke-width:0.0309393;stroke-linecap:round;stroke-linejoin:round;paint-order:markers fill stroke"
             id="rect1097"
             width="2.54"
             height="3.175"
             x="-8.7928095"
             y="33.801361"
             ry="0.81203055"
             transform="rotate(-60)" />
          <rect
             style="opacity:1;fill:#222222;fill-opacity:1;stroke-width:0.0309393;stroke-linecap:round;stroke-linejoin:round;paint-order:markers fill stroke"
             id="rect1099"
             width="2.54"
             height="3.175"
             x="-8.7928095"
             y="-51.263863"
             ry="0.81203055"
             transform="matrix(0.5,-0.8660254,-0.8660254,-0.5,0,0)" />
          <rect
             style="opacity:1;fill:#222222;fill-opacity:1;stroke-width:0.0309393;stroke-linecap:round;stroke-linejoin:round;paint-order:markers fill stroke"
             id="rect1101"
             width="2.54"
             height="3.175"
             x="39.325726"
             y="-23.482615"
             ry="0.81203055"
             transform="rotate(60)" />
          <rect
             style="opacity:1;fill:#222222;fill-opacity:1;stroke-width:0.0309393;stroke-linecap:round;stroke-linejoin:round;paint-order:markers fill stroke"
             id="rect1103"
             width="2.54"
             height="3.175"
             x="39.325726"
             y="6.0201139"
             ry="0.81203055"
             transform="matrix(0.5,0.8660254,0.8660254,-0.5,0,0)" />
        </g>
        <circle
           style="fill:#1a1a1a;fill-opacity:1;stroke-width:0.0225447;stroke-linecap:round;stroke-linejoin:round;paint-order:markers fill stroke"
           id="circle1107"
           cx="64.804321"
           cy="-12.437757"
           r="6.0945802"
           transform="matrix(0.8660254,0.50000001,0.50000001,-0.8660254,0,0)" />
      </g>
    </g>
    <g
       id="g1246"
       transform="matrix(0.89108698,0,0,0.89108698,10.418772,-15.111436)"
       style="opacity:0.4">
      <g
         id="g1161"
         style="fill:#222222;fill-opacity:1"
         transform="matrix(0.27993475,0.16162041,-0.16162041,0.27993475,29.94139,41.293009)">
        <rect
           style="opacity:1;fill:#222222;fill-opacity:1;stroke-width:0.0309393;stroke-linecap:round;stroke-linejoin:round;paint-order:markers fill stroke"
           id="rect1149"
           width="2.54"
           height="3.175"
           x="31.802917"
           y="19.049999"
           ry="0.81203055" />
        <rect
           style="opacity:1;fill:#222222;fill-opacity:1;stroke-width:0.0309393;stroke-linecap:round;stroke-linejoin:round;paint-order:markers fill stroke"
           id="rect1151"
           width="2.54"
           height="3.175"
           x="31.802917"
           y="-36.512501"
           ry="0.81203055"
           transform="scale(1,-1)" />
        <rect
           style="opacity:1;fill:#222222;fill-opacity:1;stroke-width:0.0309393;stroke-linecap:round;stroke-linejoin:round;paint-order:markers fill stroke"
           id="rect1153"
           width="2.54"
           height="3.175"
           x="-8.7928095"
           y="33.801361"
           ry="0.81203055"
           transform="rotate(-60)" />
        <rect
           style="opacity:1;fill:#222222;fill-opacity:1;stroke-width:0.0309393;stroke-linecap:round;stroke-linejoin:round;paint-order:markers fill stroke"
           id="rect1155"
           width="2.54"
           height="3.175"
           x="-8.7928095"
           y="-51.263863"
           ry="0.81203055"
           transform="matrix(0.5,-0.8660254,-0.8660254,-0.5,0,0)" />
        <rect
           style="opacity:1;fill:#222222;fill-opacity:1;stroke-width:0.0309393;stroke-linecap:round;stroke-linejoin:round;paint-order:markers fill stroke"
           id="rect1157"
           width="2.54"
           height="3.175"
           x="39.325726"
           y="-23.482615"
           ry="0.81203055"
           transform="rotate(60)" />
        <rect
           style="opacity:1;fill:#222222;fill-opacity:1;stroke-width:0.0309393;stroke-linecap:round;stroke-linejoin:round;paint-order:markers fill stroke"
           id="rect1159"
           width="2.54"
           height="3.175"
           x="39.325726"
           y="6.0201139"
           ry="0.81203055"
           transform="matrix(0.5,0.8660254,0.8660254,-0.5,0,0)" />
      </g>
      <circle
         style="fill:#1a1a1a;fill-opacity:1;stroke-width:0.00790915;stroke-linecap:round;stroke-linejoin:round;paint-order:markers fill stroke"
         id="circle1163"
         cx="57.267025"
         cy="-29.770132"
         r="2.1381032"
         transform="matrix(0.86602539,0.50000002,0.50000002,-0.86602539,0,0)" />
    </g>
  </g>
  <g
     inkscape:groupmode="layer"
     id="layer6"
     inkscape:label="Waves"
     style="display:inline">
    <path
       id="path1946"
       style="display:inline;opacity:0.3;fill:#005e90;fill-opacity:1;stroke-width:5.09408;stroke-linecap:round;stroke-linejoin:round"
       d="m 50.937974,21.43125 c -3.009185,0.186632 -4.807138,1.667282 -6.863662,3.083016 -2.056958,1.416032 -4.371861,2.756674 -8.332308,2.575553 l -0.0036,-0.0021 h -0.0031 c -2.88449,-0.3082 -5.034161,-1.421426 -7.504964,-2.513493 -2.46876,-1.091161 -5.265588,-2.16584 -9.471257,-2.429309 -3.616425,-0.0044 -6.011446,1.076209 -8.210869,2.289266 -2.0162339,1.112028 -3.8696139,2.337388 -6.3148597,2.911967 v 6.520532 6.204273 18.4366 c 0,2.7656 2.2268616,4.99246 4.9924601,4.99246 H 58.507539 c 2.7656,0 4.99246,-2.22686 4.99246,-4.99246 V 33.866666 27.136844 C 62.933452,26.985888 62.43059,26.754082 61.964694,26.466601 61.067978,25.913245 60.300793,25.164803 59.422728,24.419181 57.667376,22.928595 55.479859,21.43054 50.937974,21.43125 Z" />
    <path
       id="path1430"
       style="display:inline;opacity:0.3;fill:#005e90;fill-opacity:1;stroke-width:0.0246944;stroke-miterlimit:4;stroke-dasharray:none;paint-order:stroke fill markers"
       d="m 50.937974,29.36875 c -3.009183,0.186631 -4.807138,1.667282 -6.863662,3.083015 -2.056958,1.416034 -4.371861,2.756675 -8.332308,2.575554 l -0.0036,-0.0021 h -0.0031 c -2.88449,-0.3082 -5.034166,-1.421477 -7.504967,-2.513542 -2.468761,-1.091163 -5.265588,-2.165842 -9.471257,-2.429309 -3.616425,-0.0044 -6.011446,1.076209 -8.210868,2.289265 -2.0162316,1.112078 -3.8696119,2.337438 -6.3148577,2.912017 v 6.520532 6.204273 10.4991 c 0,2.7656 2.2268616,4.99246 4.9924601,4.99246 H 58.507539 c 2.7656,0 4.99246,-2.22686 4.99246,-4.99246 V 41.804166 35.074344 c -0.566547,-0.150956 -1.069411,-0.382762 -1.535305,-0.670243 -0.896718,-0.553355 -1.663901,-1.301797 -2.541966,-2.04742 -1.755352,-1.490586 -3.942869,-2.98864 -8.484754,-2.987931 z" />
    <path
       id="path1948"
       style="display:inline;opacity:0.3;fill:#005e90;fill-opacity:1;stroke-width:5.09408;stroke-linecap:round;stroke-linejoin:round"
       d="m 43.529641,37.30625 c -3.009186,0.186631 -4.807138,1.667285 -6.863662,3.083014 -2.056958,1.416037 -4.371861,2.756676 -8.332308,2.575555 l -0.0036,-0.0021 h -0.0031 c -2.884497,-0.308297 -5.034163,-1.421476 -7.504968,-2.513541 -2.468759,-1.091163 -5.265588,-2.165842 -9.471256,-2.429309 -3.0300848,-0.0036 -5.198831,0.757322 -7.1173927,1.716741 v 18.770946 c 0,2.7656 2.2268616,4.99246 4.9924601,4.99246 H 58.507539 c 2.7656,0 4.99246,-2.22686 4.99246,-4.99246 V 40.299864 c -0.354174,0.397907 -0.653171,0.79741 -1.028361,1.176674 -0.791123,0.799719 -1.926333,1.467011 -4.611606,1.721342 h -0.0036 -0.0041 C 56.481904,43.24841 55.453188,42.894956 54.55641,42.341601 53.659694,41.788246 52.892509,41.039803 52.014444,40.294181 50.259095,38.803595 48.071578,37.30554 43.529693,37.30625 Z" />
  </g>
</svg>
