<?xml version="1.0" encoding="UTF-8" standalone="no"?>
<svg
   width="256"
   height="256"
   id="svg11300"
   sodipodi:version="0.32"
   sodipodi:docname="org.gnome.ArchiveManager.svg"
   version="1.0"
   style="display:inline;enable-background:new"
   xmlns:inkscape="http://www.inkscape.org/namespaces/inkscape"
   xmlns:sodipodi="http://sodipodi.sourceforge.net/DTD/sodipodi-0.dtd"
   xmlns:xlink="http://www.w3.org/1999/xlink"
   xmlns="http://www.w3.org/2000/svg"
   xmlns:svg="http://www.w3.org/2000/svg">
  <sodipodi:namedview
     stroke="#ef2929"
     fill="#f57900"
     id="base"
     pagecolor="#ffffff"
     bordercolor="#666666"
     borderopacity="1"
     inkscape:pageopacity="0"
     inkscape:pageshadow="2"
     inkscape:zoom="2.0000001"
     inkscape:cx="130.84887"
     inkscape:cy="180.8468"
     inkscape:current-layer="layer4"
     showgrid="false"
     inkscape:grid-bbox="true"
     inkscape:document-units="px"
     inkscape:showpageshadow="true"
     inkscape:window-width="1920"
     inkscape:window-height="1016"
     inkscape:window-x="1920"
     inkscape:window-y="27"
     width="400px"
     height="300px"
     inkscape:snap-nodes="true"
     inkscape:snap-bbox="true"
     gridtolerance="10000"
     inkscape:object-nodes="true"
     inkscape:snap-grids="true"
     showguides="true"
     inkscape:guide-bbox="true"
     inkscape:window-maximized="1"
     inkscape:bbox-paths="true"
     inkscape:snap-bbox-midpoints="true"
     inkscape:snap-global="true"
     inkscape:object-paths="true"
     inkscape:snap-intersection-paths="true"
     inkscape:snap-smooth-nodes="true"
     inkscape:pagecheckerboard="false"
     showborder="true"
     inkscape:bbox-nodes="true"
     inkscape:snap-bbox-edge-midpoints="true"
     inkscape:document-rotation="0"
     inkscape:deskcolor="#d1d1d1">
    <inkscape:grid
       spacingy="1"
       spacingx="1"
       id="grid5883"
       type="xygrid"
       enabled="true"
       visible="false"
       empspacing="4"
       snapvisiblegridlinesonly="true"
       originx="0"
       originy="0"
       units="px" />
    <inkscape:grid
       type="xygrid"
       id="grid11592"
       empspacing="2"
       visible="false"
       enabled="false"
       spacingx="0.5"
       spacingy="0.5"
       color="#ff0000"
       opacity="0.1254902"
       empcolor="#ff0000"
       empopacity="0.25098039"
       snapvisiblegridlinesonly="true"
       originx="0"
       originy="0"
       units="px" />
  </sodipodi:namedview>
  <defs
     id="defs3">
    <linearGradient
       inkscape:collect="always"
       id="linearGradient980">
      <stop
         style="stop-color:#6fff3e;stop-opacity:1"
         offset="0"
         id="stop976" />
      <stop
         style="stop-color:#1ed61e;stop-opacity:1"
         offset="1"
         id="stop978" />
    </linearGradient>
    <linearGradient
       inkscape:collect="always"
       xlink:href="#linearGradient980"
       id="linearGradient982"
       x1="40"
       y1="16.000008"
       x2="215.99954"
       y2="240.00002"
       gradientUnits="userSpaceOnUse" />
    <filter
       inkscape:collect="always"
       style="color-interpolation-filters:sRGB"
       id="filter847"
       x="-1.3636364e-06"
       width="1.0000027"
       y="-1.0714285e-06"
       height="1.0000021">
      <feGaussianBlur
         inkscape:collect="always"
         stdDeviation="0.0001"
         id="feGaussianBlur849" />
    </filter>
  </defs>
  <g
     inkscape:groupmode="layer"
     id="layer2"
     inkscape:label="Shadow"
     style="display:inline;opacity:0.4">
    <path
       style="color:#000000;display:inline;overflow:visible;visibility:visible;fill:#000000;fill-opacity:1;fill-rule:nonzero;stroke:none;stroke-width:0.999985;marker:none;enable-background:accumulate"
       d="m 177.07418,20.000007 c 35.29565,0 39.09341,3.625418 38.92042,38.99353 v 73.006473 73.00647 c 0.17299,35.36812 -3.62477,38.99353 -38.92042,38.99353 H 78.92043 C 43.624789,244.00001 40,240.37501 40,205.00648 V 132.00001 58.993537 c 0,-35.368533 3.624789,-38.99353 38.92043,-38.99353 z"
       id="path972"
       inkscape:connector-curvature="0"
       sodipodi:nodetypes="scccssscsss" />
  </g>
  <g
     inkscape:groupmode="layer"
     id="layer4"
     inkscape:label="Icon"
     style="display:inline">
    <path
       style="color:#000000;display:inline;overflow:visible;visibility:visible;fill:url(#linearGradient982);fill-opacity:1;fill-rule:nonzero;stroke:none;stroke-width:0.999985;marker:none;enable-background:accumulate;filter:url(#filter847)"
       d="m 177.07418,16.000007 c 35.29565,0 39.09341,3.625418 38.92042,38.99353 v 73.006473 73.00647 c 0.17299,35.36812 -3.62477,38.99353 -38.92042,38.99353 H 78.92043 C 43.624789,240.00001 40,236.37501 40,201.00648 V 128.00001 54.993537 c 0,-35.368533 3.624789,-38.99353 38.92043,-38.99353 z"
       id="rect4158"
       inkscape:connector-curvature="0"
       sodipodi:nodetypes="scccssscsss" />
    <path
       inkscape:connector-curvature="0"
       style="color:#000000;display:inline;overflow:visible;visibility:visible;opacity:0.4;fill:#000000;fill-opacity:1;fill-rule:nonzero;stroke:none;stroke-width:14.9998;stroke-linecap:butt;stroke-linejoin:miter;stroke-miterlimit:4;stroke-dasharray:none;stroke-dashoffset:0;stroke-opacity:1;marker:none;enable-background:accumulate"
       d="m 120.00295,124.00001 v 30 c 0,1.108 0.89197,2 1.99994,2 h 11.99963 c 1.10796,0 1.99994,-0.892 1.99994,-2 v -30 z m 3.99987,20 h 7.99976 v 8 h -7.99976 z"
       id="path993"
       sodipodi:nodetypes="cssssccccccc" />
    <path
       style="color:#000000;display:inline;overflow:visible;visibility:visible;opacity:0.4;fill:#000000;fill-opacity:1;fill-rule:nonzero;stroke:none;stroke-width:14.9998;stroke-linecap:butt;stroke-linejoin:miter;stroke-miterlimit:4;stroke-dasharray:none;stroke-dashoffset:0;stroke-opacity:1;marker:none;enable-background:accumulate"
       d="m 128.0027,20 v 8 h -7.99975 v -8 z m 0,8 h 7.99976 v 8 h -7.99976 z m 0,8 v 8 h -7.99975 v -8 z m 0,8 h 7.99976 v 8 h -7.99976 z m 0,8 v 8 h -7.99975 v -8 z m 0,8 h 7.99976 v 8 h -7.99976 z m 0,8 v 7.999998 h -7.99975 V 68 Z m 0,7.999998 h 7.99976 V 84 h -7.99976 z m 0,8.000002 v 8 h -7.99975 v -8 z m 0,8 h 7.99976 v 8 h -7.99976 z m 0,8 v 8 h -7.99975 v -8 z m 0,8 h 7.99976 v 8 h -7.99976 z m 0,8 v 8.00001 h -7.99975 V 116 Z"
       id="path995"
       inkscape:connector-curvature="0"
       sodipodi:nodetypes="ccccccccccccccccccccccccccccccccccccccccccccccccccccccccccccccccc" />
    <path
       style="color:#000000;display:inline;overflow:visible;visibility:visible;opacity:1;fill:#eeeeee;fill-opacity:1;fill-rule:nonzero;stroke:none;stroke-width:14.9998;stroke-linecap:butt;stroke-linejoin:miter;stroke-miterlimit:4;stroke-dasharray:none;stroke-dashoffset:0;stroke-opacity:1;marker:none;enable-background:accumulate"
       d="m 128.0027,16 v 8 h -7.99975 v -8 z m 0,8 h 7.99976 v 8 h -7.99976 z m 0,8 v 8 h -7.99975 v -8 z m 0,8 h 7.99976 v 8 h -7.99976 z m 0,8 v 8 h -7.99975 v -8 z m 0,8 h 7.99976 v 8 h -7.99976 z m 0,8 v 7.999998 h -7.99975 V 64 Z m 0,7.999998 h 7.99976 V 80 h -7.99976 z m 0,8.000002 v 8 h -7.99975 v -8 z m 0,8 h 7.99976 v 8 h -7.99976 z m 0,8 v 8 h -7.99975 v -8 z m 0,8 h 7.99976 v 8 h -7.99976 z m 0,8 v 8.00001 h -7.99975 V 112 Z"
       id="path937"
       inkscape:connector-curvature="0"
       sodipodi:nodetypes="ccccccccccccccccccccccccccccccccccccccccccccccccccccccccccccccccc" />
    <path
       inkscape:connector-curvature="0"
       style="color:#000000;display:inline;overflow:visible;visibility:visible;opacity:1;fill:#faf8f6;fill-opacity:1;fill-rule:nonzero;stroke:none;stroke-width:14.9998;stroke-linecap:butt;stroke-linejoin:miter;stroke-miterlimit:4;stroke-dasharray:none;stroke-dashoffset:0;stroke-opacity:1;marker:none;enable-background:accumulate"
       d="m 120.00295,120.00001 v 30 c 0,1.108 0.89197,2 1.99994,2 h 11.99963 c 1.10796,0 1.99994,-0.892 1.99994,-2 v -30 z m 3.99987,20 h 7.99976 v 8 h -7.99976 z"
       id="path4783"
       sodipodi:nodetypes="cssssccccccc" />
  </g>
  <g
     inkscape:groupmode="layer"
     id="layer3"
     inkscape:label="Highlight"
     style="display:none;opacity:0.1">
    <path
       style="color:#000000;display:inline;overflow:visible;visibility:visible;opacity:0.1;fill:#ffffff;fill-opacity:1;fill-rule:nonzero;stroke:none;stroke-width:0.999985;marker:none;enable-background:accumulate"
       d="M 128.0027,16.000007 V 240.00001 h 49.07077 c 35.29565,0 39.09366,-3.62602 38.92067,-38.99414 V 128.00001 54.994148 c 0.17299,-35.368112 -3.62502,-38.994141 -38.92067,-38.994141 z"
       id="rect4158-3"
       inkscape:connector-curvature="0" />
    <path
       id="path960"
       style="color:#000000;display:inline;overflow:visible;visibility:visible;opacity:1;fill:#ffffff;fill-opacity:1;fill-rule:nonzero;stroke:none;stroke-width:0.999985;marker:none;enable-background:accumulate"
       d="M 78.919922,16 C 43.624281,16 40,19.625608 40,54.994141 v 4 C 40,23.625608 43.624281,20 78.919922,20 h 98.154298 c 35.29565,0 39.09291,3.626029 38.91992,38.994141 v -4 C 216.16713,19.626029 212.36987,16 177.07422,16 Z" />
  </g>
</svg>
