<?xml version="1.0" encoding="UTF-8" standalone="no"?>
<svg
   xmlns:dc="http://purl.org/dc/elements/1.1/"
   xmlns:cc="http://creativecommons.org/ns#"
   xmlns:rdf="http://www.w3.org/1999/02/22-rdf-syntax-ns#"
   xmlns:svg="http://www.w3.org/2000/svg"
   xmlns="http://www.w3.org/2000/svg"
   xmlns:sodipodi="http://sodipodi.sourceforge.net/DTD/sodipodi-0.dtd"
   xmlns:inkscape="http://www.inkscape.org/namespaces/inkscape"
   sodipodi:docname="org.gnome.Calculator-symbolic.symbolic.svg"
   inkscape:version="1.0.2 (e86c870879, 2021-01-15)"
   id="svg8"
   version="1.1"
   viewBox="0 0 4.2333333 4.2333334"
   height="16"
   width="16">
  <defs
     id="defs2" />
  <sodipodi:namedview
     inkscape:window-maximized="1"
     inkscape:window-y="27"
     inkscape:window-x="1920"
     inkscape:window-height="1016"
     inkscape:window-width="1920"
     units="px"
     showgrid="false"
     inkscape:document-rotation="0"
     inkscape:current-layer="g1174"
     inkscape:document-units="px"
     inkscape:cy="11.617117"
     inkscape:cx="10.242326"
     inkscape:zoom="16"
     inkscape:pageshadow="2"
     inkscape:pageopacity="0.0"
     borderopacity="1.0"
     bordercolor="#666666"
     pagecolor="#ffffff"
     id="base" />
  <metadata
     id="metadata5">
    <rdf:RDF>
      <cc:Work
         rdf:about="">
        <dc:format>image/svg+xml</dc:format>
        <dc:type
           rdf:resource="http://purl.org/dc/dcmitype/StillImage" />
        <dc:title />
      </cc:Work>
    </rdf:RDF>
  </metadata>
  <g
     style="display:inline"
     inkscape:label="Icon"
     id="g1174"
     inkscape:groupmode="layer">
    <path
       id="path853"
       style="display:inline;fill:#000000;fill-opacity:1;stroke-width:0.00666667;stroke-miterlimit:4;stroke-dasharray:none;paint-order:stroke fill markers"
       d="M 1.3476562 0 C 0.60103798 0 0 0.60103843 0 1.3476562 L 0 8 L 0 14.652344 C 0 15.398962 0.60103798 16 1.3476562 16 L 8 16 L 14.652344 16 C 15.398963 16 16 15.398963 16 14.652344 L 16 8 L 16 1.3476562 C 16 0.60103805 15.398963 1.4802974e-16 14.652344 0 L 8 0 L 1.3476562 0 z M 2.1796875 1 L 8 1 L 8 15 L 2.1796875 15 C 1.5263964 15 1 14.473603 1 13.820312 L 1 8 L 1 2.1796875 C 1 1.5263968 1.5263964 1 2.1796875 1 z M 10 6.5 L 14 6.5 L 14 7.5 L 10 7.5 L 10 6.5 z M 10 8.5 L 14 8.5 L 14 9.5 L 10 9.5 L 10 8.5 z "
       transform="scale(0.26458333)" />
    <rect
       height="0.26458332"
       style="display:inline;fill:#000000;stroke-width:0.264583;marker:none"
       width="0.79374999"
       x="0.79374999"
       y="1.190625"
       color="#bebebe"
       overflow="visible"
       id="rect849" />
    <rect
       height="0.26458332"
       style="display:inline;fill:#000000;stroke-width:0.264583;marker:none"
       transform="rotate(90)"
       width="0.79374999"
       x="0.92604166"
       y="-1.3229167"
       color="#bebebe"
       overflow="visible"
       id="rect851" />
    <rect
       height="0.26458332"
       style="display:inline;fill:#000000;stroke-width:0.264583;marker:none"
       width="0.79374999"
       x="0.79374999"
       y="2.778125"
       color="#bebebe"
       overflow="visible"
       id="rect853" />
  </g>
</svg>
