<?xml version="1.0" encoding="UTF-8" standalone="no"?>
<svg
   xmlns:dc="http://purl.org/dc/elements/1.1/"
   xmlns:cc="http://creativecommons.org/ns#"
   xmlns:rdf="http://www.w3.org/1999/02/22-rdf-syntax-ns#"
   xmlns:svg="http://www.w3.org/2000/svg"
   xmlns="http://www.w3.org/2000/svg"
   xmlns:sodipodi="http://sodipodi.sourceforge.net/DTD/sodipodi-0.dtd"
   xmlns:inkscape="http://www.inkscape.org/namespaces/inkscape"
   sodipodi:docname="org.gtk.Demo4.svg"
   inkscape:version="1.0.2 (e86c870879, 2021-01-15)"
   id="svg8"
   version="1.1"
   viewBox="0 0 67.733332 67.733335"
   height="256"
   width="256">
  <defs
     id="defs2" />
  <sodipodi:namedview
     inkscape:window-maximized="1"
     inkscape:window-y="27"
     inkscape:window-x="1920"
     inkscape:window-height="1016"
     inkscape:window-width="1920"
     units="px"
     showgrid="false"
     inkscape:document-rotation="0"
     inkscape:current-layer="layer10"
     inkscape:document-units="px"
     inkscape:cy="156.71999"
     inkscape:cx="149.83103"
     inkscape:zoom="2.0000001"
     inkscape:pageshadow="2"
     inkscape:pageopacity="0.0"
     borderopacity="1.0"
     bordercolor="#666666"
     pagecolor="#ffffff"
     id="base"
     inkscape:pagecheckerboard="true" />
  <metadata
     id="metadata5">
    <rdf:RDF>
      <cc:Work
         rdf:about="">
        <dc:format>image/svg+xml</dc:format>
        <dc:type
           rdf:resource="http://purl.org/dc/dcmitype/StillImage" />
        <dc:title></dc:title>
      </cc:Work>
    </rdf:RDF>
  </metadata>
  <g
     inkscape:groupmode="layer"
     id="layer1"
     inkscape:label="Background"
     style="display:inline">
    <g
       inkscape:label="Shadow"
       id="layer10"
       inkscape:groupmode="layer"
       style="display:inline;opacity:0.4">
      <path
         id="path927"
         style="display:inline;color:#000000;font-style:normal;font-variant:normal;font-weight:normal;font-stretch:normal;font-size:medium;line-height:normal;font-family:sans-serif;font-variant-ligatures:normal;font-variant-position:normal;font-variant-caps:normal;font-variant-numeric:normal;font-variant-alternates:normal;font-variant-east-asian:normal;font-feature-settings:normal;font-variation-settings:normal;text-indent:0;text-align:start;text-decoration:none;text-decoration-line:none;text-decoration-style:solid;text-decoration-color:#000000;letter-spacing:normal;word-spacing:normal;text-transform:none;writing-mode:lr-tb;direction:ltr;text-orientation:mixed;dominant-baseline:auto;baseline-shift:baseline;text-anchor:start;white-space:normal;shape-padding:0;shape-margin:0;inline-size:0;clip-rule:nonzero;overflow:visible;visibility:visible;isolation:auto;mix-blend-mode:normal;color-interpolation:sRGB;color-interpolation-filters:linearRGB;solid-color:#000000;solid-opacity:1;vector-effect:none;fill:#000000;fill-opacity:1;fill-rule:nonzero;stroke:none;stroke-width:3.77953;stroke-linecap:round;stroke-linejoin:round;stroke-miterlimit:4;stroke-dasharray:none;stroke-dashoffset:0;stroke-opacity:1;paint-order:stroke markers fill;color-rendering:auto;image-rendering:auto;shape-rendering:auto;text-rendering:auto;enable-background:accumulate;stop-color:#000000"
         d="M 127.91602 20.001953 A 7.0007063 7.0007063 0 0 0 127.80273 20.005859 A 7.0007063 7.0007063 0 0 0 124.47266 20.949219 L 79.472656 47.199219 L 34.472656 73.449219 A 7.0007063 7.0007063 0 0 0 30.996094 79.503906 L 30.996094 132.00391 L 30.996094 184.50391 A 7.0007063 7.0007063 0 0 0 34.472656 190.54883 L 79.472656 216.79883 L 124.47266 243.04883 A 7.0007063 7.0007063 0 0 0 131.53125 243.04883 L 176.53125 216.79883 L 221.53125 190.54883 A 7.0007063 7.0007063 0 0 0 225 184.50391 L 225 132.00391 L 225 79.503906 A 7.0007063 7.0007063 0 0 0 221.53125 73.449219 L 176.53125 47.199219 L 131.53125 20.949219 A 7.0007063 7.0007063 0 0 0 127.91602 20.001953 z "
         transform="scale(0.26458333)" />
    </g>
    <g
       style="display:inline"
       inkscape:label="Colour"
       id="g1174"
       inkscape:groupmode="layer">
      <path
         id="path865"
         style="display:inline;fill:#f9f9f9;stroke:#f9f9f9;stroke-width:3.70417;stroke-linecap:round;stroke-linejoin:round;stroke-miterlimit:4;stroke-dasharray:none;paint-order:stroke markers fill"
         inkscape:transform-center-x="1.9843984"
         inkscape:transform-center-y="-3.4726571"
         d="M 33.866669,6.0853891 21.960418,13.030702 10.054168,19.976014 V 33.86664 47.757263 l 11.90625,6.94531 11.906251,6.945316 11.906247,-6.945316 11.906253,-6.94531 V 33.86664 19.976014 L 45.772916,13.030702 Z" />
    </g>
    <g
       inkscape:groupmode="layer"
       id="layer2"
       inkscape:label="Highlight"
       style="opacity:0.1">
      <path
         id="path913"
         style="color:#000000;font-style:normal;font-variant:normal;font-weight:normal;font-stretch:normal;font-size:medium;line-height:normal;font-family:sans-serif;font-variant-ligatures:normal;font-variant-position:normal;font-variant-caps:normal;font-variant-numeric:normal;font-variant-alternates:normal;font-variant-east-asian:normal;font-feature-settings:normal;font-variation-settings:normal;text-indent:0;text-align:start;text-decoration:none;text-decoration-line:none;text-decoration-style:solid;text-decoration-color:#000000;letter-spacing:normal;word-spacing:normal;text-transform:none;writing-mode:lr-tb;direction:ltr;text-orientation:mixed;dominant-baseline:auto;baseline-shift:baseline;text-anchor:start;white-space:normal;shape-padding:0;shape-margin:0;inline-size:0;clip-rule:nonzero;display:inline;overflow:visible;visibility:visible;isolation:auto;mix-blend-mode:normal;color-interpolation:sRGB;color-interpolation-filters:linearRGB;solid-color:#000000;solid-opacity:1;vector-effect:none;fill:#ffffff;fill-opacity:1;fill-rule:nonzero;stroke:none;stroke-width:3.77953;stroke-linecap:round;stroke-linejoin:round;stroke-miterlimit:4;stroke-dasharray:none;stroke-dashoffset:0;stroke-opacity:1;paint-order:stroke markers fill;color-rendering:auto;image-rendering:auto;shape-rendering:auto;text-rendering:auto;enable-background:accumulate;stop-color:#000000"
         d="M 127.91797 16.001953 A 7.0007062 7.0007062 0 0 0 127.80273 16.003906 A 7.0007062 7.0007062 0 0 0 124.47266 16.957031 L 79.472656 43.207031 L 34.472656 69.457031 A 7.0007062 7.0007062 0 0 0 30.996094 75.501953 L 30.996094 79.501953 A 7.0007063 7.0007063 0 0 1 34.472656 73.457031 L 79.472656 47.207031 L 124.47266 20.957031 A 7.0007063 7.0007063 0 0 1 127.80273 20.003906 A 7.0007063 7.0007063 0 0 1 127.91797 20.001953 A 7.0007063 7.0007063 0 0 1 131.53125 20.957031 L 176.53125 47.207031 L 221.53125 73.457031 A 7.0007063 7.0007063 0 0 1 225 79.501953 L 225 75.501953 A 7.0007062 7.0007062 0 0 0 221.53125 69.457031 L 176.53125 43.207031 L 131.53125 16.957031 A 7.0007062 7.0007062 0 0 0 127.91797 16.001953 z "
         transform="scale(0.26458333)" />
    </g>
  </g>
  <g
     inkscape:label="Graphic"
     id="g1156"
     inkscape:groupmode="layer"
     style="display:inline">
    <path
       id="path856"
       style="fill:#ff2727;stroke-width:0.751473;stroke-linecap:round;stroke-linejoin:round;paint-order:stroke markers fill;fill-opacity:1"
       inkscape:transform-center-y="-3.2925854"
       d="m 9.9193532,21.60614 -6.4e-5,13.170218 -6e-5,13.170225 11.4065488,6.585056 11.406546,6.58506 6.5e-5,-13.170226 6.4e-5,-13.170225 -11.406546,-6.585061 z"
       inkscape:transform-center-x="1.9011026" />
    <path
       id="path861"
       style="fill:#3dffff;stroke-width:0.751473;stroke-linecap:round;stroke-linejoin:round;paint-order:stroke markers fill;fill-opacity:1"
       d="m 11.053763,19.786512 11.406483,6.58518 11.406486,6.585165 11.406476,-6.58516 L 56.679691,19.786512 45.273208,13.201344 33.866727,6.6161708 22.460246,13.201343 Z"
       inkscape:transform-center-x="3.8022069" />
    <path
       id="path863"
       style="fill:#2fff2f;stroke-width:0.751473;stroke-linecap:round;stroke-linejoin:round;paint-order:stroke markers fill;fill-opacity:1"
       inkscape:transform-center-y="-3.2925884"
       d="m 57.814558,21.60614 -11.406548,6.585052 -11.406545,6.585061 6e-5,13.17022 6.4e-5,13.170226 11.40655,-6.58505 11.406543,-6.585061 -6e-5,-13.17022 z"
       inkscape:transform-center-x="-1.9010987" />
  </g>
</svg>
