<?xml version="1.0" encoding="UTF-8" standalone="no"?>
<svg
   xmlns:dc="http://purl.org/dc/elements/1.1/"
   xmlns:cc="http://creativecommons.org/ns#"
   xmlns:rdf="http://www.w3.org/1999/02/22-rdf-syntax-ns#"
   xmlns:svg="http://www.w3.org/2000/svg"
   xmlns="http://www.w3.org/2000/svg"
   xmlns:sodipodi="http://sodipodi.sourceforge.net/DTD/sodipodi-0.dtd"
   xmlns:inkscape="http://www.inkscape.org/namespaces/inkscape"
   sodipodi:docname="preferences-desktop-gaming-symbolic.symbolic.svg"
   inkscape:version="1.0.2 (e86c870879, 2021-01-15)"
   id="svg4705"
   version="1.1"
   viewBox="0 0 4.2333333 4.2333333"
   height="16"
   width="16">
  <defs
     id="defs4699" />
  <sodipodi:namedview
     units="px"
     inkscape:document-rotation="0"
     inkscape:window-maximized="1"
     inkscape:window-y="27"
     inkscape:window-x="1920"
     inkscape:window-height="1016"
     inkscape:window-width="1920"
     fit-margin-bottom="0"
     fit-margin-right="0"
     fit-margin-left="0"
     fit-margin-top="0"
     showgrid="false"
     inkscape:current-layer="layer1"
     inkscape:document-units="px"
     inkscape:cy="0.82014512"
     inkscape:cx="20.623821"
     inkscape:zoom="22.627417"
     inkscape:pageshadow="2"
     inkscape:pageopacity="0.0"
     borderopacity="1.0"
     bordercolor="#666666"
     pagecolor="#ffffff"
     id="base" />
  <metadata
     id="metadata4702">
    <rdf:RDF>
      <cc:Work
         rdf:about="">
        <dc:format>image/svg+xml</dc:format>
        <dc:type
           rdf:resource="http://purl.org/dc/dcmitype/StillImage" />
        <dc:title />
      </cc:Work>
    </rdf:RDF>
  </metadata>
  <g
     style="display:inline"
     transform="translate(-130.05163,-144.32544)"
     id="layer1"
     inkscape:groupmode="layer"
     inkscape:label="Icon">
    <path
       id="rect876"
       style="display:inline;fill:#000000;stroke-width:0.147001;stroke-linejoin:round;fill-opacity:1"
       d="m 131.6771,145.03409 c -0.45171,0.001 -0.80254,0.0256 -0.94195,0.20841 -0.33821,0.45161 -0.71885,1.71026 -0.68089,2.26225 0.0527,0.34416 0.55129,0.4628 0.78569,0.21056 l 0.60241,-0.813 h 0.72585 0.72585 l 0.60241,0.813 c 0.2344,0.25224 0.73302,0.1336 0.78569,-0.21056 0.038,-0.55199 -0.34269,-1.81064 -0.68089,-2.26225 -0.13942,-0.18285 -0.49024,-0.20699 -0.94195,-0.20841 -0.17359,-5.4e-4 -0.34395,0.001 -0.49111,0.001 -0.16802,6.7e-4 -0.34324,-0.002 -0.49111,-0.001 z m -0.28373,0.60354 c 0.0698,0 0.12599,0.0562 0.12599,0.12599 v 0.12598 h 0.12601 c 0.0698,0 0.12599,0.0562 0.12599,0.12598 0,0.0698 -0.0562,0.12598 -0.12599,0.12598 h -0.12601 v 0.12602 c 0,0.0698 -0.0562,0.12598 -0.12599,0.12598 -0.0698,0 -0.12597,-0.0562 -0.12597,-0.12598 v -0.12602 h -0.12599 c -0.0698,0 -0.12598,-0.0562 -0.12598,-0.12598 0,-0.0698 0.0562,-0.12598 0.12598,-0.12598 h 0.12599 v -0.12598 c 0,-0.0698 0.0562,-0.12599 0.12597,-0.12599 z m 1.54967,0 a 0.12598799,0.12598801 0 0 1 0.12599,0.12599 0.12598799,0.12598801 0 0 1 -0.12599,0.12598 0.12598799,0.12598801 0 0 1 -0.12598,-0.12598 0.12598799,0.12598801 0 0 1 0.12598,-0.12599 z m -0.252,0.25197 a 0.12598799,0.12598801 0 0 1 0.12602,0.12598 0.12598799,0.12598801 0 0 1 -0.12602,0.12598 0.12598799,0.12598801 0 0 1 -0.12598,-0.12598 0.12598799,0.12598801 0 0 1 0.12598,-0.12598 z m 0.50396,0 a 0.12598799,0.12598801 0 0 1 0.12599,0.12598 0.12598799,0.12598801 0 0 1 -0.12599,0.12598 0.12598799,0.12598801 0 0 1 -0.12597,-0.12598 0.12598799,0.12598801 0 0 1 0.12597,-0.12598 z m -0.25196,0.25196 a 0.12598799,0.12598801 0 0 1 0.12599,0.12602 0.12598799,0.12598801 0 0 1 -0.12599,0.12598 0.12598799,0.12598801 0 0 1 -0.12598,-0.12598 0.12598799,0.12598801 0 0 1 0.12598,-0.12602 z" />
  </g>
</svg>
