<?xml version="1.0" encoding="UTF-8" standalone="no"?>
<svg
   sodipodi:docname="preferences-system-network.svg"
   id="svg8"
   version="1.1"
   viewBox="0 0 67.733332 67.733335"
   height="256"
   width="256"
   xmlns:inkscape="http://www.inkscape.org/namespaces/inkscape"
   xmlns:sodipodi="http://sodipodi.sourceforge.net/DTD/sodipodi-0.dtd"
   xmlns="http://www.w3.org/2000/svg"
   xmlns:svg="http://www.w3.org/2000/svg">
  <defs
     id="defs2" />
  <sodipodi:namedview
     inkscape:window-maximized="1"
     inkscape:window-y="27"
     inkscape:window-x="1920"
     inkscape:window-height="1016"
     inkscape:window-width="1920"
     units="px"
     showgrid="false"
     inkscape:document-rotation="0"
     inkscape:current-layer="layer3"
     inkscape:document-units="px"
     inkscape:cy="100.25"
     inkscape:cx="99"
     inkscape:zoom="2"
     inkscape:pageshadow="2"
     inkscape:pageopacity="0.0"
     borderopacity="1.0"
     bordercolor="#666666"
     pagecolor="#ffffff"
     id="base"
     inkscape:pagecheckerboard="0"
     showguides="false"
     inkscape:showpageshadow="2"
     inkscape:deskcolor="#d1d1d1" />
  <g
     inkscape:groupmode="layer"
     id="layer1"
     inkscape:label="Background"
     style="display:inline">
    <g
       inkscape:label="Shadow"
       id="layer10"
       inkscape:groupmode="layer"
       style="display:inline;opacity:0.4">
      <circle
         style="display:inline;fill:#000000;fill-opacity:1;stroke-width:14.1577;stroke-linecap:round;stroke-miterlimit:1.6;paint-order:stroke markers fill"
         id="circle25543"
         cx="34.131248"
         cy="35.189583"
         r="31.75" />
    </g>
    <g
       style="display:inline"
       inkscape:label="Colour"
       id="g1174"
       inkscape:groupmode="layer">
      <circle
         style="display:inline;fill:#4d4d4d;fill-opacity:1;stroke:#ffffff;stroke-width:2.64583;stroke-linecap:round;stroke-miterlimit:4;stroke-dasharray:none;paint-order:normal"
         id="path835"
         cx="33.866669"
         cy="33.866665"
         r="30.427084" />
    </g>
    <g
       inkscape:groupmode="layer"
       id="layer2"
       inkscape:label="Highlight"
       style="display:inline;opacity:0.1">
      <path
         id="circle25644"
         style="display:inline;fill:#ffffff;fill-opacity:1;stroke-width:53.5094;stroke-linecap:round;stroke-miterlimit:1.6;paint-order:stroke markers fill"
         d="M 129,9 A 120,120 0 0 0 9,129 120,120 0 0 0 9.0742188,131 120,120 0 0 1 129,13 120,120 0 0 1 248.96289,130.00977 120,120 0 0 0 249,129 120,120 0 0 0 129,9 Z"
         transform="scale(0.26458333)" />
    </g>
  </g>
  <g
     inkscape:label="Graphic"
     id="g1156"
     inkscape:groupmode="layer"
     style="display:inline">
    <path
       id="path28119"
       style="color:#000000;opacity:0.4;fill:#000000;stroke-width:1;stroke-linejoin:round;-inkscape-stroke:none"
       d="m 30.658077,10.914579 c -0.685792,0 -1.238168,0.552375 -1.238168,1.238168 v 0.378271 h -0.803568 c -1.122204,0 -2.026232,0.904026 -2.026232,2.026233 v 5.649268 c 0,1.122206 0.904028,2.026233 2.026232,2.026233 h 4.046265 V 30.89062 H 21.596614 c -0.531216,5.32e-4 -0.961471,0.431517 -0.961181,0.962731 v 0.482143 9.620602 h -2.004529 c -0.685798,0 -1.238167,0.552365 -1.238167,1.238167 v 0.37827 h -0.803569 c -1.122215,0 -2.025716,0.903499 -2.025716,2.025716 v 5.649786 c 0,1.122217 0.903501,2.026232 2.025716,2.026232 h 10.501167 c 1.122215,0 2.0252,-0.904015 2.0252,-2.026232 v -5.649786 c 0,-1.122217 -0.902985,-2.025716 -2.0252,-2.025716 H 26.28625 v -0.37827 c 0,-0.685802 -0.552369,-1.238167 -1.238167,-1.238167 h -2.006079 v -8.657352 h 10.583849 11.064441 v 8.657352 h -2.004528 c -0.685798,0 -1.238168,0.552365 -1.238168,1.238167 v 0.37827 h -0.803569 c -1.122214,0 -2.026232,0.903499 -2.026232,2.025716 v 5.649786 c 0,1.122217 0.904018,2.026232 2.026232,2.026232 h 10.50117 c 1.122214,0 2.024681,-0.904015 2.024681,-2.026232 v -5.649786 c 0,-1.122217 -0.902467,-2.025716 -2.024681,-2.025716 h -0.804088 v -0.37827 c 0,-0.685802 -0.552368,-1.238167 -1.238165,-1.238167 h -2.009698 l 10e-4,-9.620602 v -0.482143 c 2.65e-4,-0.53182 -0.430908,-0.963022 -0.962731,-0.962731 H 35.065044 v -8.657868 h 4.051948 c 1.122201,0 2.0252,-0.904027 2.0252,-2.026233 v -5.649268 c 0,-1.122207 -0.902999,-2.026233 -2.0252,-2.026233 h -0.803569 v -0.378271 c 0,-0.685793 -0.552376,-1.238168 -1.238168,-1.238168 z" />
    <path
       id="path27773"
       style="color:#000000;fill:#39ffd4;stroke-width:1;stroke-linejoin:round;-inkscape-stroke:none"
       d="m 33.625698,15.882751 c -0.531417,-5.82e-4 -0.962598,0.429764 -0.963164,0.961182 l -8.2e-5,12.988353 H 21.596468 c -0.531216,5.3e-4 -0.961471,0.431515 -0.961181,0.962732 v 0.482142 l 9.2e-5,13.949537 c -2.91e-4,0.531217 0.429873,0.962165 0.961089,0.962731 h 0.484208 c 0.531216,-5.29e-4 0.961471,-0.431514 0.961181,-0.962731 V 32.24041 h 10.583841 11.064433 l 8.7e-5,12.986287 c -2.64e-4,0.531823 0.430821,0.963023 0.962644,0.962731 h 0.478525 c 0.531217,-5.29e-4 0.961471,-0.431514 0.96118,-0.962731 l 0.0016,-13.949537 v -0.482142 c 2.64e-4,-0.531823 -0.430908,-0.963023 -0.962731,-0.962732 H 35.064888 V 16.843933 c -5.29e-4,-0.530411 -0.430255,-0.960411 -0.960665,-0.96126 z"
       sodipodi:nodetypes="cccccccccccccccccccccccc" />
    <g
       id="g21858"
       transform="matrix(1.7187521,0,0,1.7187522,-13.835783,-30.953301)">
      <g
         id="g21842">
        <path
           id="path21838"
           style="display:inline;fill:#ececec;stroke:none;stroke-width:3.37688;stroke-linecap:round;stroke-linejoin:round;stroke-miterlimit:4;stroke-dasharray:none;paint-order:stroke markers fill"
           d="m 18.889803,41.804166 c -0.399009,0 -0.72037,0.32136 -0.72037,0.720371 v 0.220141 h -0.467671 c -0.652924,0 -1.17874,0.525814 -1.17874,1.17874 v 3.287135 c 0,0.652926 0.525816,1.17874 1.17874,1.17874 h 6.109704 c 0.652924,0 1.178223,-0.525814 1.178223,-1.17874 v -3.287135 c 0,-0.652926 -0.525299,-1.17874 -1.178223,-1.17874 h -0.467671 v -0.220141 c 0,-0.399011 -0.321361,-0.720371 -0.72037,-0.720371 z" />
        <path
           id="path21840"
           style="display:inline;fill:#333333;stroke:none;stroke-width:3.11055;stroke-linecap:round;stroke-linejoin:round;stroke-miterlimit:4;stroke-dasharray:none;paint-order:stroke markers fill"
           d="m 19.291329,42.980321 c -0.100356,0 -0.180868,0.08051 -0.180868,0.180869 v 0.348298 c -0.0024,0.09662 -0.08012,0.173789 -0.176733,0.176218 h -1.107426 c -0.200711,0 -0.362252,0.161541 -0.362252,0.362251 v 3.038573 c 0,0.200713 0.161541,0.362252 0.362252,0.362252 h 5.860624 c 0.200711,0 0.362252,-0.161539 0.362252,-0.362252 v -3.038573 c 0,-0.20071 -0.161541,-0.362251 -0.362252,-0.362251 H 22.5795 c -0.09661,-0.0024 -0.174304,-0.0796 -0.176733,-0.176218 V 43.16119 c 0,-0.100356 -0.08051,-0.180869 -0.180868,-0.180869 z" />
      </g>
      <g
         id="g21856">
        <rect
           style="fill:#00ff00;stroke:none;stroke-width:1.62529;stroke-linecap:round;stroke-linejoin:round;stroke-miterlimit:4;stroke-dasharray:none;paint-order:stroke markers fill"
           id="rect21844"
           width="1.4111112"
           height="0.94074076"
           x="17.699156"
           y="43.121204"
           ry="0.22281314" />
        <rect
           style="fill:#ff6600;stroke:none;stroke-width:1.62529;stroke-linecap:round;stroke-linejoin:round;stroke-miterlimit:4;stroke-dasharray:none;paint-order:stroke markers fill"
           id="rect21846"
           width="1.4111112"
           height="0.94074076"
           x="22.402859"
           y="43.121204"
           ry="0.22281314" />
        <path
           id="path21848"
           style="fill:#ffff00;stroke-width:2.55218;stroke-linecap:round;stroke-linejoin:round;paint-order:stroke markers fill"
           d="m 18.263594,45.567127 h 0.752594 l 0.09408,1.881481 h -0.940742 z"
           sodipodi:nodetypes="ccccc" />
        <path
           id="path21850"
           style="fill:#ffff00;stroke-width:2.55218;stroke-linecap:round;stroke-linejoin:round;paint-order:stroke markers fill"
           d="m 19.674705,45.567127 h 0.752594 l 0.09408,1.881481 h -0.940742 z"
           sodipodi:nodetypes="ccccc" />
        <path
           id="path21852"
           style="fill:#ffff00;stroke-width:2.55218;stroke-linecap:round;stroke-linejoin:round;paint-order:stroke markers fill"
           d="m 21.085816,45.567127 h 0.752594 l 0.09408,1.881481 h -0.940741 z"
           sodipodi:nodetypes="ccccc" />
        <path
           id="path21854"
           style="fill:#ffff00;stroke-width:2.55218;stroke-linecap:round;stroke-linejoin:round;paint-order:stroke markers fill"
           d="m 22.496927,45.567127 h 0.752594 l 0.09408,1.881481 H 22.40286 Z"
           sodipodi:nodetypes="ccccc" />
      </g>
    </g>
    <g
       id="g27263"
       transform="matrix(1.7187521,0,0,1.7187522,10.219057,-30.953301)">
      <g
         id="g27247">
        <path
           id="path27243"
           style="display:inline;fill:#ececec;stroke:none;stroke-width:3.37688;stroke-linecap:round;stroke-linejoin:round;stroke-miterlimit:4;stroke-dasharray:none;paint-order:stroke markers fill"
           d="m 18.889803,41.804166 c -0.399009,0 -0.72037,0.32136 -0.72037,0.720371 v 0.220141 h -0.467671 c -0.652924,0 -1.17874,0.525814 -1.17874,1.17874 v 3.287135 c 0,0.652926 0.525816,1.17874 1.17874,1.17874 h 6.109704 c 0.652924,0 1.178223,-0.525814 1.178223,-1.17874 v -3.287135 c 0,-0.652926 -0.525299,-1.17874 -1.178223,-1.17874 h -0.467671 v -0.220141 c 0,-0.399011 -0.321361,-0.720371 -0.72037,-0.720371 z" />
        <path
           id="path27245"
           style="display:inline;fill:#333333;stroke:none;stroke-width:3.11055;stroke-linecap:round;stroke-linejoin:round;stroke-miterlimit:4;stroke-dasharray:none;paint-order:stroke markers fill"
           d="m 19.291329,42.980321 c -0.100356,0 -0.180868,0.08051 -0.180868,0.180869 v 0.348298 c -0.0024,0.09662 -0.08012,0.173789 -0.176733,0.176218 h -1.107426 c -0.200711,0 -0.362252,0.161541 -0.362252,0.362251 v 3.038573 c 0,0.200713 0.161541,0.362252 0.362252,0.362252 h 5.860624 c 0.200711,0 0.362252,-0.161539 0.362252,-0.362252 v -3.038573 c 0,-0.20071 -0.161541,-0.362251 -0.362252,-0.362251 H 22.5795 c -0.09661,-0.0024 -0.174304,-0.0796 -0.176733,-0.176218 V 43.16119 c 0,-0.100356 -0.08051,-0.180869 -0.180868,-0.180869 z" />
      </g>
      <g
         id="g27261">
        <rect
           style="fill:#00ff00;stroke:none;stroke-width:1.62529;stroke-linecap:round;stroke-linejoin:round;stroke-miterlimit:4;stroke-dasharray:none;paint-order:stroke markers fill"
           id="rect27249"
           width="1.4111112"
           height="0.94074076"
           x="17.699156"
           y="43.121204"
           ry="0.22281314" />
        <rect
           style="fill:#ff6600;stroke:none;stroke-width:1.62529;stroke-linecap:round;stroke-linejoin:round;stroke-miterlimit:4;stroke-dasharray:none;paint-order:stroke markers fill"
           id="rect27251"
           width="1.4111112"
           height="0.94074076"
           x="22.402859"
           y="43.121204"
           ry="0.22281314" />
        <path
           id="path27253"
           style="fill:#ffff00;stroke-width:2.55218;stroke-linecap:round;stroke-linejoin:round;paint-order:stroke markers fill"
           d="m 18.263594,45.567127 h 0.752594 l 0.09408,1.881481 h -0.940742 z"
           sodipodi:nodetypes="ccccc" />
        <path
           id="path27255"
           style="fill:#ffff00;stroke-width:2.55218;stroke-linecap:round;stroke-linejoin:round;paint-order:stroke markers fill"
           d="m 19.674705,45.567127 h 0.752594 l 0.09408,1.881481 h -0.940742 z"
           sodipodi:nodetypes="ccccc" />
        <path
           id="path27257"
           style="fill:#ffff00;stroke-width:2.55218;stroke-linecap:round;stroke-linejoin:round;paint-order:stroke markers fill"
           d="m 21.085816,45.567127 h 0.752594 l 0.09408,1.881481 h -0.940741 z"
           sodipodi:nodetypes="ccccc" />
        <path
           id="path27259"
           style="fill:#ffff00;stroke-width:2.55218;stroke-linecap:round;stroke-linejoin:round;paint-order:stroke markers fill"
           d="m 22.496927,45.567127 h 0.752594 l 0.09408,1.881481 H 22.40286 Z"
           sodipodi:nodetypes="ccccc" />
      </g>
    </g>
    <g
       id="g27502"
       transform="matrix(1.7187338,0,0,1.7187339,-1.8083259,-61.993977)">
      <g
         id="g27486">
        <path
           id="path27482"
           style="display:inline;fill:#ececec;stroke:none;stroke-width:3.37688;stroke-linecap:round;stroke-linejoin:round;stroke-miterlimit:4;stroke-dasharray:none;paint-order:stroke markers fill"
           d="m 18.889803,41.804166 c -0.399009,0 -0.72037,0.32136 -0.72037,0.720371 v 0.220141 h -0.467671 c -0.652924,0 -1.17874,0.525814 -1.17874,1.17874 v 3.287135 c 0,0.652926 0.525816,1.17874 1.17874,1.17874 h 6.109704 c 0.652924,0 1.178223,-0.525814 1.178223,-1.17874 v -3.287135 c 0,-0.652926 -0.525299,-1.17874 -1.178223,-1.17874 h -0.467671 v -0.220141 c 0,-0.399011 -0.321361,-0.720371 -0.72037,-0.720371 z" />
        <path
           id="path27484"
           style="display:inline;fill:#333333;stroke:none;stroke-width:3.11055;stroke-linecap:round;stroke-linejoin:round;stroke-miterlimit:4;stroke-dasharray:none;paint-order:stroke markers fill"
           d="m 19.291329,42.980321 c -0.100356,0 -0.180868,0.08051 -0.180868,0.180869 v 0.348298 c -0.0024,0.09662 -0.08012,0.173789 -0.176733,0.176218 h -1.107426 c -0.200711,0 -0.362252,0.161541 -0.362252,0.362251 v 3.038573 c 0,0.200713 0.161541,0.362252 0.362252,0.362252 h 5.860624 c 0.200711,0 0.362252,-0.161539 0.362252,-0.362252 v -3.038573 c 0,-0.20071 -0.161541,-0.362251 -0.362252,-0.362251 H 22.5795 c -0.09661,-0.0024 -0.174304,-0.0796 -0.176733,-0.176218 V 43.16119 c 0,-0.100356 -0.08051,-0.180869 -0.180868,-0.180869 z" />
      </g>
      <g
         id="g27500">
        <rect
           style="fill:#00ff00;stroke:none;stroke-width:1.62529;stroke-linecap:round;stroke-linejoin:round;stroke-miterlimit:4;stroke-dasharray:none;paint-order:stroke markers fill"
           id="rect27488"
           width="1.4111112"
           height="0.94074076"
           x="17.699156"
           y="43.121204"
           ry="0.22281314" />
        <rect
           style="fill:#ff6600;stroke:none;stroke-width:1.62529;stroke-linecap:round;stroke-linejoin:round;stroke-miterlimit:4;stroke-dasharray:none;paint-order:stroke markers fill"
           id="rect27490"
           width="1.4111112"
           height="0.94074076"
           x="22.402859"
           y="43.121204"
           ry="0.22281314" />
        <path
           id="path27492"
           style="fill:#ffff00;stroke-width:2.55218;stroke-linecap:round;stroke-linejoin:round;paint-order:stroke markers fill"
           d="m 18.263594,45.567127 h 0.752594 l 0.09408,1.881481 h -0.940742 z"
           sodipodi:nodetypes="ccccc" />
        <path
           id="path27494"
           style="fill:#ffff00;stroke-width:2.55218;stroke-linecap:round;stroke-linejoin:round;paint-order:stroke markers fill"
           d="m 19.674705,45.567127 h 0.752594 l 0.09408,1.881481 h -0.940742 z"
           sodipodi:nodetypes="ccccc" />
        <path
           id="path27496"
           style="fill:#ffff00;stroke-width:2.55218;stroke-linecap:round;stroke-linejoin:round;paint-order:stroke markers fill"
           d="m 21.085816,45.567127 h 0.752594 l 0.09408,1.881481 h -0.940741 z"
           sodipodi:nodetypes="ccccc" />
        <path
           id="path27498"
           style="fill:#ffff00;stroke-width:2.55218;stroke-linecap:round;stroke-linejoin:round;paint-order:stroke markers fill"
           d="m 22.496927,45.567127 h 0.752594 l 0.09408,1.881481 H 22.40286 Z"
           sodipodi:nodetypes="ccccc" />
      </g>
    </g>
  </g>
  <g
     inkscape:groupmode="layer"
     id="layer3"
     inkscape:label="Large Highlight"
     style="display:inline;opacity:1">
    <path
       style="display:inline;opacity:0.05;fill:#ffffff;fill-opacity:1;stroke:none;stroke-width:0.566965;stroke-linecap:round;stroke-linejoin:round;stroke-miterlimit:4;stroke-dasharray:none;stroke-dashoffset:0;stroke-opacity:1;enable-background:new"
       d="m 6.5350069,17.777883 a 31.749998,31.749998 0 0 0 -4.4183402,16.08871 31.749998,31.749998 0 0 0 31.7500003,31.75 31.749998,31.749998 0 0 0 26.82616,-14.8363 z"
       id="path958"
       inkscape:connector-curvature="0" />
  </g>
</svg>
