<?xml version="1.0" encoding="UTF-8" standalone="no"?>
<svg
   sodipodi:docname="preferences-desktop-apps-symbolic.symbolic.svg"
   id="svg8"
   version="1.1"
   viewBox="0 0 4.2333333 4.2333334"
   height="16"
   width="16"
   xmlns:inkscape="http://www.inkscape.org/namespaces/inkscape"
   xmlns:sodipodi="http://sodipodi.sourceforge.net/DTD/sodipodi-0.dtd"
   xmlns="http://www.w3.org/2000/svg"
   xmlns:svg="http://www.w3.org/2000/svg">
  <defs
     id="defs2" />
  <sodipodi:namedview
     inkscape:window-maximized="1"
     inkscape:window-y="27"
     inkscape:window-x="1920"
     inkscape:window-height="1016"
     inkscape:window-width="1920"
     units="px"
     showgrid="false"
     inkscape:document-rotation="0"
     inkscape:current-layer="g1156"
     inkscape:document-units="px"
     inkscape:cy="7.2968747"
     inkscape:cx="10.906249"
     inkscape:zoom="32.000002"
     inkscape:pageshadow="2"
     inkscape:pageopacity="0.0"
     borderopacity="1.0"
     bordercolor="#666666"
     pagecolor="#ffffff"
     id="base"
     inkscape:pagecheckerboard="0"
     width="16px"
     inkscape:showpageshadow="2"
     inkscape:deskcolor="#d1d1d1" />
  <g
     inkscape:label="Graphic"
     id="g1156"
     inkscape:groupmode="layer"
     style="display:inline">
    <path
       id="rect1501"
       style="opacity:1;fill:#000000;stroke-width:140.213;stroke-linecap:round;stroke-linejoin:round;paint-order:stroke markers fill"
       d="M 2.9277344 2 C 2.4136787 2 2 2.4136787 2 2.9277344 L 2 6.0722656 C 2 6.5863213 2.4136787 7 2.9277344 7 L 6.0722656 7 C 6.5863213 7 7 6.5863213 7 6.0722656 L 7 2.9277344 C 7 2.4136787 6.5863213 2 6.0722656 2 L 2.9277344 2 z M 9.9277344 2 C 9.4136787 2 9 2.4136787 9 2.9277344 L 9 6.0722656 C 9 6.5863213 9.4136787 7 9.9277344 7 L 13.072266 7 C 13.586321 7 14 6.5863213 14 6.0722656 L 14 2.9277344 C 14 2.4136787 13.586321 2 13.072266 2 L 9.9277344 2 z M 2.9277344 9 C 2.4136787 9 2 9.4136787 2 9.9277344 L 2 13.072266 C 2 13.586321 2.4136787 14 2.9277344 14 L 6.0722656 14 C 6.5863213 14 7 13.586321 7 13.072266 L 7 9.9277344 C 7 9.4136787 6.5863213 9 6.0722656 9 L 2.9277344 9 z M 9.9277344 9 C 9.4136787 9 9 9.4136787 9 9.9277344 L 9 13.072266 C 9 13.586321 9.4136787 14 9.9277344 14 L 13.072266 14 C 13.586321 14 14 13.586321 14 13.072266 L 14 9.9277344 C 14 9.4136787 13.586321 9 13.072266 9 L 9.9277344 9 z "
       transform="scale(0.26458333)" />
  </g>
</svg>
