<?xml version="1.0" encoding="UTF-8" standalone="no"?>
<svg
   sodipodi:docname="preferences-desktop-keyboard.svg"
   id="svg8"
   version="1.1"
   viewBox="0 0 67.733332 67.733335"
   height="256"
   width="256"
   xmlns:inkscape="http://www.inkscape.org/namespaces/inkscape"
   xmlns:sodipodi="http://sodipodi.sourceforge.net/DTD/sodipodi-0.dtd"
   xmlns="http://www.w3.org/2000/svg"
   xmlns:svg="http://www.w3.org/2000/svg">
  <defs
     id="defs2" />
  <sodipodi:namedview
     inkscape:window-maximized="1"
     inkscape:window-y="27"
     inkscape:window-x="1920"
     inkscape:window-height="1016"
     inkscape:window-width="1920"
     units="px"
     showgrid="false"
     inkscape:document-rotation="0"
     inkscape:current-layer="g1156"
     inkscape:document-units="px"
     inkscape:cy="178.72124"
     inkscape:cx="115.96551"
     inkscape:zoom="2.8284271"
     inkscape:pageshadow="2"
     inkscape:pageopacity="0.0"
     borderopacity="1.0"
     bordercolor="#666666"
     pagecolor="#ffffff"
     id="base"
     inkscape:pagecheckerboard="0"
     inkscape:showpageshadow="2"
     inkscape:deskcolor="#d1d1d1" />
  <g
     inkscape:groupmode="layer"
     id="layer1"
     inkscape:label="Background"
     style="display:inline">
    <g
       inkscape:label="Shadow"
       id="layer10"
       inkscape:groupmode="layer"
       style="display:inline;opacity:0.4">
      <rect
         style="display:inline;opacity:1;fill:#000000;stroke:none;stroke-width:0.0838588;stroke-linecap:round;stroke-linejoin:round;paint-order:stroke markers fill"
         id="rect1196"
         width="59.266666"
         height="46.566666"
         x="4.2333331"
         y="11.641665"
         ry="9.3488445" />
    </g>
    <g
       style="display:inline"
       inkscape:label="Colour"
       id="g1174"
       inkscape:groupmode="layer">
      <rect
         style="opacity:1;fill:#f2f2f2;stroke:none;stroke-width:0.0838588;stroke-linecap:round;stroke-linejoin:round;paint-order:stroke markers fill"
         id="rect864"
         width="59.266666"
         height="46.566666"
         x="4.2333331"
         y="10.583333"
         ry="9.3488445" />
    </g>
    <g
       inkscape:groupmode="layer"
       id="layer2"
       inkscape:label="Highlight"
       style="display:inline;opacity:0.1">
      <path
         id="rect1217"
         style="display:inline;opacity:1;fill:#ffffff;stroke:none;stroke-width:0.316947;stroke-linecap:round;stroke-linejoin:round;paint-order:stroke markers fill"
         d="M 51.333984,40 C 31.758829,40 16,55.758829 16,75.333984 v 4 C 16,59.758829 31.758829,44 51.333984,44 H 204.66602 C 224.24117,44 240,59.758829 240,79.333984 v -4 C 240,55.758829 224.24117,40 204.66602,40 Z"
         transform="scale(0.26458333)" />
    </g>
  </g>
  <g
     inkscape:label="Graphic"
     id="g1156"
     inkscape:groupmode="layer"
     style="display:inline">
    <g
       id="g920">
      <path
         id="path2011"
         style="display:inline;opacity:0.5;fill:#000000;fill-opacity:1;stroke:none;stroke-width:0.152878;stroke-linecap:round;stroke-linejoin:round;paint-order:stroke markers fill"
         d="M 43.527344,70 C 37.140697,70 32,75.140702 32,81.527344 v 8.945312 C 32,96.859302 37.140697,102 43.527344,102 h 8.945312 C 58.859302,102 64,96.859302 64,90.472656 V 81.527344 C 64,75.140702 58.859302,70 52.472656,70 Z m 40,0 C 77.140698,70 72,75.140702 72,81.527344 v 8.945312 C 72,96.859302 77.140698,102 83.527344,102 h 8.945312 C 98.859302,102 104,96.859302 104,90.472656 V 81.527344 C 104,75.140702 98.859302,70 92.472656,70 Z m 39.999996,0 C 117.1407,70 112,75.140702 112,81.527344 v 8.945312 C 112,96.859302 117.1407,102 123.52734,102 h 8.94532 C 138.85929,102 144,96.859302 144,90.472656 V 81.527344 C 144,75.140702 138.85929,70 132.47266,70 Z m 40,0 C 157.14071,70 152,75.140702 152,81.527344 v 8.945312 C 152,96.859302 157.14071,102 163.52734,102 h 8.94532 C 178.85929,102 184,96.859302 184,90.472656 V 81.527344 C 184,75.140702 178.85929,70 172.47266,70 Z m 40,0 C 197.14071,70 192,75.140702 192,81.527344 v 8.945312 C 192,96.859302 197.14071,102 203.52734,102 h 8.94532 C 218.85929,102 224,96.859302 224,90.472656 V 81.527344 C 224,75.140702 218.85929,70 212.47266,70 Z M 63.527344,116 C 57.140702,116 52,121.1407 52,127.52734 v 8.94532 C 52,142.8593 57.140702,148 63.527344,148 h 8.945312 C 78.859298,148 84,142.8593 84,136.47266 v -8.94532 C 84,121.1407 78.859298,116 72.472656,116 Z m 39.999996,0 C 97.140706,116 92,121.1407 92,127.52734 v 8.94532 C 92,142.8593 97.140706,148 103.52734,148 h 8.94532 C 118.85929,148 124,142.8593 124,136.47266 v -8.94532 C 124,121.1407 118.85929,116 112.47266,116 Z m 40,0 C 137.1407,116 132,121.1407 132,127.52734 v 8.94532 C 132,142.8593 137.1407,148 143.52734,148 h 8.94532 C 158.8593,148 164,142.8593 164,136.47266 v -8.94532 C 164,121.1407 158.8593,116 152.47266,116 Z m 40,0 C 177.1407,116 172,121.1407 172,127.52734 v 8.94532 C 172,142.8593 177.1407,148 183.52734,148 h 8.94532 C 198.8593,148 204,142.8593 204,136.47266 v -8.94532 C 204,121.1407 198.8593,116 192.47266,116 Z M 40.527344,163 C 34.140697,163 29,168.14071 29,174.52734 v 8.94532 C 29,189.85929 34.140697,195 40.527344,195 h 8.945312 C 55.859302,195 61,189.85929 61,183.47266 v -8.94532 C 61,168.14071 55.859302,163 49.472656,163 Z m 40,0 C 74.140698,163 69,168.14071 69,174.52734 v 8.94532 C 69,189.85929 74.140698,195 80.527344,195 H 175.47266 C 181.85929,195 187,189.85929 187,183.47266 v -8.94532 C 187,168.14071 181.85929,163 175.47266,163 Z m 125.999996,0 C 200.14071,163 195,168.14071 195,174.52734 v 8.94532 C 195,189.85929 200.14071,195 206.52734,195 h 8.94532 C 221.85929,195 227,189.85929 227,183.47266 v -8.94532 C 227,168.14071 221.85929,163 215.47266,163 Z"
         transform="scale(0.26458333)" />
      <g
         id="g914">
        <rect
           style="display:inline;fill:#b3b3b3;stroke:none;stroke-width:0.0404489;stroke-linecap:round;stroke-linejoin:round;paint-order:stroke markers fill"
           id="rect866"
           width="31.220831"
           height="8.4666662"
           x="18.25625"
           y="42.068756"
           ry="3.0501804" />
        <path
           id="rect872"
           style="display:inline;fill:#4d4d4d;stroke:none;stroke-width:0.079612;stroke-linecap:round;stroke-linejoin:round;paint-order:stroke markers fill"
           d="M 43.527344,66 C 37.140697,66 32,71.140698 32,77.527344 v 8.945312 C 32,92.859302 37.140697,98 43.527344,98 h 8.945312 C 58.859302,98 64,92.859302 64,86.472656 V 77.527344 C 64,71.140698 58.859302,66 52.472656,66 Z m 40,0 C 77.140698,66 72,71.140698 72,77.527344 v 8.945312 C 72,92.859302 77.140698,98 83.527344,98 h 8.945312 C 98.859302,98 104,92.859302 104,86.472656 V 77.527344 C 104,71.140698 98.859302,66 92.472656,66 Z m 39.999996,0 C 117.1407,66 112,71.140698 112,77.527344 v 8.945312 C 112,92.859302 117.1407,98 123.52734,98 h 8.94532 C 138.85929,98 144,92.859302 144,86.472656 V 77.527344 C 144,71.140698 138.85929,66 132.47266,66 Z m 40,0 C 157.14071,66 152,71.140698 152,77.527344 v 8.945312 C 152,92.859302 157.14071,98 163.52734,98 h 8.94532 C 178.85929,98 184,92.859302 184,86.472656 V 77.527344 C 184,71.140698 178.85929,66 172.47266,66 Z m 40,0 C 197.14071,66 192,71.140698 192,77.527344 v 8.945312 C 192,92.859302 197.14071,98 203.52734,98 h 8.94532 C 218.85929,98 224,92.859302 224,86.472656 V 77.527344 C 224,71.140698 218.85929,66 212.47266,66 Z M 63.527344,112 C 57.140702,112 52,117.1407 52,123.52734 v 8.94532 C 52,138.85929 57.140702,144 63.527344,144 h 8.945312 C 78.859298,144 84,138.85929 84,132.47266 v -8.94532 C 84,117.1407 78.859298,112 72.472656,112 Z m 39.999996,0 C 97.140706,112 92,117.1407 92,123.52734 v 8.94532 C 92,138.85929 97.140706,144 103.52734,144 h 8.94532 C 118.85929,144 124,138.85929 124,132.47266 v -8.94532 C 124,117.1407 118.85929,112 112.47266,112 Z m 40,0 C 137.1407,112 132,117.1407 132,123.52734 v 8.94532 C 132,138.85929 137.1407,144 143.52734,144 h 8.94532 C 158.8593,144 164,138.85929 164,132.47266 v -8.94532 C 164,117.1407 158.8593,112 152.47266,112 Z m 40,0 C 177.1407,112 172,117.1407 172,123.52734 v 8.94532 C 172,138.8593 177.1407,144 183.52734,144 h 8.94532 C 198.8593,144 204,138.8593 204,132.47266 v -8.94532 C 204,117.1407 198.8593,112 192.47266,112 Z M 40.527344,159 C 34.140697,159 29,164.14071 29,170.52734 v 8.94532 C 29,185.8593 34.140697,191 40.527344,191 h 8.945312 C 55.859302,191 61,185.8593 61,179.47266 v -8.94532 C 61,164.14071 55.859302,159 49.472656,159 Z m 165.999996,0 C 200.14071,159 195,164.14071 195,170.52734 v 8.94532 C 195,185.8593 200.14071,191 206.52734,191 h 8.94532 C 221.85929,191 227,185.8593 227,179.47266 v -8.94532 C 227,164.14071 221.85929,159 215.47266,159 Z"
           transform="scale(0.26458333)" />
      </g>
    </g>
  </g>
</svg>
