<?xml version="1.0" encoding="UTF-8" standalone="no"?>
<svg
   sodipodi:docname="preferences-system-details-symbolic.symbolic.svg"
   id="svg8"
   version="1.1"
   viewBox="0 0 4.2333332 4.2333334"
   height="16"
   width="16"
   xmlns:inkscape="http://www.inkscape.org/namespaces/inkscape"
   xmlns:sodipodi="http://sodipodi.sourceforge.net/DTD/sodipodi-0.dtd"
   xmlns="http://www.w3.org/2000/svg"
   xmlns:svg="http://www.w3.org/2000/svg">
  <defs
     id="defs2" />
  <sodipodi:namedview
     inkscape:window-maximized="1"
     inkscape:window-y="27"
     inkscape:window-x="1920"
     inkscape:window-height="1016"
     inkscape:window-width="1920"
     units="px"
     showgrid="false"
     inkscape:document-rotation="0"
     inkscape:current-layer="layer3"
     inkscape:document-units="px"
     inkscape:cy="7.623495"
     inkscape:cx="7.5130096"
     inkscape:zoom="22.627417"
     inkscape:pageshadow="2"
     inkscape:pageopacity="0.0"
     borderopacity="1.0"
     bordercolor="#666666"
     pagecolor="#ffffff"
     id="base"
     inkscape:lockguides="false"
     inkscape:pagecheckerboard="0"
     width="1e-05px"
     inkscape:showpageshadow="2"
     inkscape:deskcolor="#d1d1d1" />
  <g
     inkscape:groupmode="layer"
     id="layer3"
     inkscape:label="Graphic"
     style="display:inline">
    <path
       id="path835"
       style="display:inline;fill:#000000;fill-opacity:1;stroke-width:3.5673;stroke-linecap:round;stroke-miterlimit:1.6;paint-order:stroke markers fill"
       d="M 8 0 A 7.9999996 7.9999996 0 0 0 0 8 A 7.9999996 7.9999996 0 0 0 8 16 A 7.9999996 7.9999996 0 0 0 16 8 A 7.9999996 7.9999996 0 0 0 8 0 z M 8 1 A 7 7 0 0 1 15 8 A 7 7 0 0 1 8 15 A 7 7 0 0 1 1 8 A 7 7 0 0 1 8 1 z "
       transform="scale(0.26458333)" />
    <path
       id="rect837"
       style="fill:#000000;stroke-width:0.0783867;stroke-linecap:round;stroke-linejoin:round;paint-order:stroke markers fill"
       d="M 2.1166665,0.75595718 A 0.30238098,0.30238098 0 0 0 1.8142905,1.0583332 0.30238098,0.30238098 0 0 0 2.1166665,1.3607092 0.30238098,0.30238098 0 0 0 2.4190426,1.0583332 0.30238098,0.30238098 0 0 0 2.1166665,0.75595718 Z M 1.8898759,1.6630853 V 3.4773759 H 2.3434571 V 1.6630853 Z" />
  </g>
</svg>
