<?xml version="1.0" encoding="UTF-8" standalone="no"?>
<svg
   sodipodi:docname="preferences-system-details.svg"
   id="svg8"
   version="1.1"
   viewBox="0 0 67.733332 67.733334"
   height="256"
   width="256"
   xmlns:inkscape="http://www.inkscape.org/namespaces/inkscape"
   xmlns:sodipodi="http://sodipodi.sourceforge.net/DTD/sodipodi-0.dtd"
   xmlns="http://www.w3.org/2000/svg"
   xmlns:svg="http://www.w3.org/2000/svg">
  <defs
     id="defs2" />
  <sodipodi:namedview
     inkscape:window-maximized="1"
     inkscape:window-y="27"
     inkscape:window-x="1920"
     inkscape:window-height="1016"
     inkscape:window-width="1920"
     units="px"
     showgrid="false"
     inkscape:document-rotation="0"
     inkscape:current-layer="layer3"
     inkscape:document-units="px"
     inkscape:cy="107.25"
     inkscape:cx="82.5"
     inkscape:zoom="2"
     inkscape:pageshadow="2"
     inkscape:pageopacity="0.0"
     borderopacity="1.0"
     bordercolor="#666666"
     pagecolor="#ffffff"
     id="base"
     inkscape:lockguides="false"
     inkscape:pagecheckerboard="0"
     width="17px"
     inkscape:showpageshadow="2"
     inkscape:deskcolor="#d1d1d1" />
  <g
     inkscape:groupmode="layer"
     id="layer2"
     inkscape:label="Background">
    <g
       inkscape:groupmode="layer"
       id="layer6"
       inkscape:label="Shadow"
       style="opacity:0.4">
      <circle
         style="display:inline;fill:#000000;fill-opacity:1;stroke-width:14.1577;stroke-linecap:round;stroke-miterlimit:1.6;paint-order:stroke markers fill"
         id="circle856"
         cx="33.866665"
         cy="34.924999"
         r="31.75" />
    </g>
    <g
       inkscape:groupmode="layer"
       id="layer5"
       inkscape:label="Colour">
      <circle
         style="display:inline;fill:#007fdd;fill-opacity:1;stroke-width:14.1577;stroke-linecap:round;stroke-miterlimit:1.6;paint-order:stroke markers fill"
         id="path835"
         cx="33.866665"
         cy="33.866665"
         r="31.75" />
    </g>
    <g
       inkscape:groupmode="layer"
       id="layer4"
       inkscape:label="Highlight"
       style="opacity:0.1">
      <path
         id="circle877"
         style="display:inline;fill:#ffffff;fill-opacity:1;stroke-width:53.5094;stroke-linecap:round;stroke-miterlimit:1.6;paint-order:stroke markers fill"
         d="M 128 8 A 120 120 0 0 0 8 128 A 120 120 0 0 0 8.0742188 130 A 120 120 0 0 1 128 12 A 120 120 0 0 1 247.96289 129.00977 A 120 120 0 0 0 248 128 A 120 120 0 0 0 128 8 z "
         transform="scale(0.26458333)" />
    </g>
  </g>
  <g
     inkscape:groupmode="layer"
     id="layer1"
     inkscape:label="Large Highlight"
     style="display:inline">
    <path
       style="display:inline;opacity:0.1;fill:#ffffff;fill-opacity:1;stroke:none;stroke-width:0.566965;stroke-linecap:round;stroke-linejoin:round;stroke-miterlimit:4;stroke-dasharray:none;stroke-dashoffset:0;stroke-opacity:1;enable-background:new"
       d="m 6.5350067,17.777883 a 31.749998,31.749998 0 0 0 -4.41834,16.08871 31.749998,31.749998 0 0 0 31.7500003,31.749999 31.749998,31.749998 0 0 0 26.82616,-14.836299 z"
       id="path958"
       inkscape:connector-curvature="0" />
  </g>
  <g
     inkscape:groupmode="layer"
     id="layer3"
     inkscape:label="Graphic"
     style="display:inline">
    <path
       id="rect917"
       style="fill:#000000;stroke-width:4.44397;stroke-linecap:round;stroke-linejoin:round;paint-order:stroke markers fill;opacity:0.4"
       d="M 128 54.857422 A 17.142859 17.142859 0 0 0 110.85742 72 A 17.142859 17.142859 0 0 0 128 89.142578 A 17.142859 17.142859 0 0 0 145.14258 72 A 17.142859 17.142859 0 0 0 128 54.857422 z M 115.14258 106.28516 L 115.14258 209.14258 L 140.85742 209.14258 L 140.85742 106.28516 L 115.14258 106.28516 z "
       transform="scale(0.26458333)" />
    <g
       id="g843"
       transform="matrix(17.142857,0,0,17.142857,-2.4190501,-2.4190462)">
      <rect
         style="fill:#ffffff;stroke-width:0.0685881;stroke-linecap:round;stroke-linejoin:round;paint-order:stroke markers fill"
         id="rect837"
         width="0.39687499"
         height="1.5875"
         x="1.9182292"
         y="1.7197917" />
      <circle
         style="fill:#ffffff;stroke-width:0.159439;stroke-linecap:round;stroke-linejoin:round;paint-order:stroke markers fill"
         id="path839"
         cx="2.1166668"
         cy="1.1906251"
         r="0.26458335" />
    </g>
  </g>
</svg>
