<?xml version="1.0" encoding="UTF-8" standalone="no"?>
<svg
   xmlns:dc="http://purl.org/dc/elements/1.1/"
   xmlns:cc="http://creativecommons.org/ns#"
   xmlns:rdf="http://www.w3.org/1999/02/22-rdf-syntax-ns#"
   xmlns:svg="http://www.w3.org/2000/svg"
   xmlns="http://www.w3.org/2000/svg"
   xmlns:sodipodi="http://sodipodi.sourceforge.net/DTD/sodipodi-0.dtd"
   xmlns:inkscape="http://www.inkscape.org/namespaces/inkscape"
   width="256"
   height="256"
   viewBox="0 0 67.733332 67.733336"
   version="1.1"
   id="svg8"
   inkscape:version="1.0 (4035a4fb49, 2020-05-01)"
   sodipodi:docname="psensor.svg"
   inkscape:export-filename="/home/ratus5/Downloads/Projects/Code/psensor/icons/hicolor/48x48/psensor.png"
   inkscape:export-xdpi="36"
   inkscape:export-ydpi="36">
  <defs
     id="defs2" />
  <sodipodi:namedview
     id="base"
     pagecolor="#ffffff"
     bordercolor="#666666"
     borderopacity="1.0"
     inkscape:pageopacity="0.0"
     inkscape:pageshadow="2"
     inkscape:zoom="1.3243684"
     inkscape:cx="99.307226"
     inkscape:cy="108.17395"
     inkscape:document-units="px"
     inkscape:current-layer="layer2"
     inkscape:document-rotation="0"
     showgrid="false"
     inkscape:window-width="1836"
     inkscape:window-height="1016"
     inkscape:window-x="2004"
     inkscape:window-y="27"
     inkscape:window-maximized="1"
     units="px" />
  <metadata
     id="metadata5">
    <rdf:RDF>
      <cc:Work
         rdf:about="">
        <dc:format>image/svg+xml</dc:format>
        <dc:type
           rdf:resource="http://purl.org/dc/dcmitype/StillImage" />
        <dc:title />
      </cc:Work>
    </rdf:RDF>
  </metadata>
  <g
     style="display:inline;opacity:1"
     inkscape:label="Background"
     id="layer2"
     inkscape:groupmode="layer">
    <g
       style="display:inline"
       inkscape:label="Background Shadow"
       id="layer5"
       inkscape:groupmode="layer">
      <path
         d="m 9.2255832,64.558333 c -2.7655979,0 -4.9922498,-2.226652 -4.9922498,-4.99225 V 34.925 H 63.500001 v 24.641083 c 0,2.765598 -2.22665,4.99225 -4.99225,4.99225 z"
         style="display:inline;opacity:1;fill:#1a1a1a;fill-opacity:1;stroke-width:0.0246944;stroke-miterlimit:4;stroke-dasharray:none;paint-order:stroke fill markers"
         id="path906" />
    </g>
    <path
       d="m 9.2255844,4.2333334 c -2.7655985,0 -4.992251,2.2266519 -4.992251,4.9922498 V 33.866666 H 63.499999 V 9.2255832 c 0,-2.7655979 -2.22665,-4.9922498 -4.99225,-4.9922498 z"
       style="display:inline;fill:#2b2b2b;fill-opacity:1;stroke-width:0.0246944;stroke-miterlimit:4;stroke-dasharray:none;paint-order:stroke fill markers"
       id="rect1172" />
    <path
       id="rect1172-3"
       style="display:inline;opacity:1;fill:#333333;fill-opacity:1;stroke-width:0.0246944;stroke-miterlimit:4;stroke-dasharray:none;paint-order:stroke fill markers"
       d="m 9.2255832,63.499999 c -2.7655979,0 -4.9922498,-2.226652 -4.9922498,-4.99225 V 33.866666 H 63.500001 v 24.641083 c 0,2.765598 -2.22665,4.99225 -4.99225,4.99225 z" />
  </g>
  <g
     inkscape:label="Sensor"
     id="layer1"
     inkscape:groupmode="layer">
    <g
       style="display:inline"
       inkscape:label="Shadow"
       id="layer4"
       inkscape:groupmode="layer">
      <path
         d="m 33.866668,5.2777143 a 8.2457961,8.2457961 0 0 0 -8.246009,8.2460087 8.2457961,8.2457961 0 0 0 0.001,0.0894 h -0.001 v 28.313002 a 12.368695,12.368695 0 0 0 -4.122746,9.219076 12.368695,12.368695 0 0 0 12.368755,12.368752 12.368695,12.368695 0 0 0 12.368755,-12.368752 12.368695,12.368695 0 0 0 -4.122746,-9.218044 v -5.212086 h 5.264793 a 1.3823088,1.4172448 0 0 0 10e-4,0 1.3823088,1.4172448 0 0 0 1.382345,-1.417484 1.3823088,1.4172448 0 0 0 -1.382345,-1.416968 1.3823088,1.4172448 0 0 0 -10e-4,0 H 42.112677 V 32.33446 h 3.292306 a 0.77172459,0.77304344 0 0 0 0.0072,0 0.77172459,0.77304344 0 0 0 0.771527,-0.773078 0.77172459,0.77304344 0 0 0 -0.771527,-0.773081 0.77172459,0.77304344 0 0 0 -0.0072,0 h -3.292306 v -1.546159 h 3.292306 a 0.77173108,0.77304344 0 0 0 0.0072,0 0.77173108,0.77304344 0 0 0 0.771527,-0.773078 0.77173108,0.77304344 0 0 0 -0.771527,-0.773081 0.77173108,0.77304344 0 0 0 -0.0072,0 h -3.292306 v -1.546157 h 3.292306 a 0.77172878,0.77304344 0 0 0 0.0072,0 0.77172878,0.77304344 0 0 0 0.771527,-0.77308 0.77172878,0.77304344 0 0 0 -0.771527,-0.772562 0.77172878,0.77304344 0 0 0 -0.0072,0 h -3.292306 v -1.546159 h 3.292306 a 0.77172878,0.77304344 0 0 0 0.0072,0 0.77172878,0.77304344 0 0 0 0.771527,-0.77308 0.77172878,0.77304344 0 0 0 -0.771527,-0.773079 0.77172878,0.77304344 0 0 0 -0.0072,0 h -3.292306 v -1.546159 h 5.264793 a 1.3823088,1.4172448 0 0 0 10e-4,0 1.3823088,1.4172448 0 0 0 1.382345,-1.417485 1.3823088,1.4172448 0 0 0 -1.382345,-1.416967 1.3823088,1.4172448 0 0 0 -10e-4,0 h -5.264793 v -2.061374 h 3.292306 a 0.77172864,0.77304344 0 0 0 0.0072,0 0.77172864,0.77304344 0 0 0 0.771527,-0.773079 0.77172864,0.77304344 0 0 0 -0.771527,-0.773079 0.77172864,0.77304344 0 0 0 -0.0072,0 H 42.112677 A 8.2457961,8.2457961 0 0 0 33.866668,5.2777143 Z m -0.03307,3.7367226 a 4.5094201,4.5094201 0 0 1 0.03307,0 4.5094201,4.5094201 0 0 1 4.50515,4.3222171 h 0.0041 v 0.153996 a 4.5094201,4.5094201 0 0 1 0,0.03307 v 30.412613 a 8.5034778,8.5034781 0 0 1 3.994071,7.208865 8.5034778,8.5034781 0 0 1 -8.503356,8.503356 8.5034778,8.5034781 0 0 1 -8.503358,-8.503356 8.5034778,8.5034781 0 0 1 3.994072,-7.208865 v -30.37954 a 4.5094201,4.5094201 0 0 1 0,-0.03307 v -0.187069 h 0.0036 a 4.5094201,4.5094201 0 0 1 4.472597,-4.3222171 z"
         inkscape:transform-center-y="273.02759"
         inkscape:transform-center-x="-79.853551"
         style="display:inline;fill:#1a1a1a;fill-opacity:1;stroke-width:0.773028"
         id="path878" />
    </g>
    <g
       inkscape:groupmode="layer"
       id="layer6"
       inkscape:label="Body"
       style="display:inline">
      <path
         id="rect1199"
         style="fill:#ffffff;fill-opacity:1;stroke-width:0.4305"
         d="m 42.060925,33.351306 v 2.834492 h 5.31657 a 1.3823088,1.4172448 0 0 0 8.32e-4,0 1.3823088,1.4172448 0 0 0 1.382308,-1.417242 1.3823088,1.4172448 0 0 0 -1.382308,-1.41725 1.3823088,1.4172448 0 0 0 -8.32e-4,0 z" />
      <path
         id="rect1201"
         style="fill:#ffffff;fill-opacity:1;stroke-width:0.544772"
         d="m 42.060925,30.25914 v 1.546086 h 3.34414 a 0.77172457,0.77304343 0 0 0 0.007,0 0.77172457,0.77304343 0 0 0 0.771724,-0.773042 0.77172457,0.77304343 0 0 0 -0.771724,-0.773044 0.77172457,0.77304343 0 0 0 -0.007,0 z" />
      <path
         d="m 42.060925,27.166966 v 1.546086 h 3.344166 a 0.77173107,0.77304343 0 0 0 0.007,0 0.77173107,0.77304343 0 0 0 0.771734,-0.773042 0.77173107,0.77304343 0 0 0 -0.771734,-0.773044 0.77173107,0.77304343 0 0 0 -0.007,0 z"
         style="fill:#ffffff;fill-opacity:1;stroke-width:0.544774"
         id="rect1201-6" />
      <path
         id="rect1201-6-2"
         style="fill:#ffffff;fill-opacity:1;stroke-width:0.544774"
         d="M 42.060925,25.620878 V 24.07479 h 3.344156 a 0.77172875,0.77304343 0 0 1 0.007,0 0.77172875,0.77304343 0 0 1 0.771732,0.773044 0.77172875,0.77304343 0 0 1 -0.771732,0.773044 0.77172875,0.77304343 0 0 1 -0.007,0 z" />
      <path
         d="m 42.060925,22.5287 v -1.546084 h 3.344156 a 0.77172875,0.77304343 0 0 1 0.007,0 0.77172875,0.77304343 0 0 1 0.771732,0.77304 0.77172875,0.77304343 0 0 1 -0.771732,0.773044 0.77172875,0.77304343 0 0 1 -0.007,0 z"
         style="fill:#ffffff;fill-opacity:1;stroke-width:0.544774"
         id="rect1201-6-2-9" />
      <path
         id="rect1201-6-2-9-7"
         style="fill:#ffffff;fill-opacity:1;stroke-width:0.544774"
         d="m 42.060925,14.540583 v -1.546082 h 3.344156 a 0.77172863,0.77304343 0 0 1 0.007,0 0.77172863,0.77304343 0 0 1 0.771732,0.773039 0.77172863,0.77304343 0 0 1 -0.771732,0.773043 0.77172863,0.77304343 0 0 1 -0.007,0 z" />
      <path
         d="m 42.060925,16.602028 v 2.834492 h 5.31657 a 1.3823088,1.4172448 0 0 0 8.24e-4,0 1.3823088,1.4172448 0 0 0 1.382316,-1.417242 1.3823088,1.4172448 0 0 0 -1.382308,-1.41725 1.3823088,1.4172448 0 0 0 -8.26e-4,0 z"
         style="display:inline;fill:#ffffff;fill-opacity:1;stroke-width:0.4305"
         id="rect1199-3" />
      <path
         id="path1336"
         style="display:inline;fill:#ffffff;fill-opacity:1;stroke-width:0.773028"
         inkscape:transform-center-x="-79.853551"
         inkscape:transform-center-y="273.02759"
         d="m 33.866666,4.7486956 a 8.2457961,8.2457961 0 0 0 -8.245796,8.2457964 8.2457961,8.2457961 0 0 0 0.001,0.08958 h -0.001 v 28.312717 a 12.368695,12.368695 0 0 0 -4.1229,9.219148 12.368695,12.368695 0 0 0 12.368696,12.368696 12.368695,12.368695 0 0 0 12.368695,-12.368696 12.368695,12.368695 0 0 0 -4.1229,-9.218142 V 13.084077 h -0.001 a 8.2457961,8.2457961 0 0 0 0.001,-0.08958 8.2457961,8.2457961 0 0 0 -8.245795,-8.2457974 z m -0.0332,3.7363765 a 4.5094201,4.5094201 0 0 1 0.0332,0 4.5094201,4.5094201 0 0 1 4.505393,4.3221989 h 0.004 v 0.154004 a 4.5094201,4.5094201 0 0 1 0,0.03322 v 30.412418 a 8.5034777,8.5034779 0 0 1 3.994058,7.209032 8.5034777,8.5034779 0 0 1 -8.503477,8.503478 8.5034777,8.5034779 0 0 1 -8.503478,-8.503478 8.5034777,8.5034779 0 0 1 3.994058,-7.209032 v -30.3792 a 4.5094201,4.5094201 0 0 1 0,-0.03322 v -0.187222 h 0.004 a 4.5094201,4.5094201 0 0 1 4.47223,-4.3221989 z" />
    </g>
    <g
       inkscape:groupmode="layer"
       id="layer3"
       inkscape:label="Colour"
       style="display:inline;opacity:1">
      <path
         transform="scale(0.26458334)"
         d="m 127.94727,79.791016 a 12.173913,12.173913 0 0 0 -12.1211,12.173828 12.173913,12.173913 0 0 0 0.002,0.248047 h -0.002 V 166.90234 A 27.269564,27.269564 0 0 0 100.73047,191.30469 27.269564,27.269564 0 0 0 128,218.57422 27.269564,27.269564 0 0 0 155.26953,191.30469 27.269564,27.269564 0 0 0 140.17383,166.9043 V 92.212891 h -0.004 a 12.173913,12.173913 0 0 0 0.004,-0.248047 A 12.173913,12.173913 0 0 0 128,79.791016 a 12.173913,12.173913 0 0 0 -0.0527,0 z"
         inkscape:transform-center-y="159.2661"
         inkscape:transform-center-x="-46.581245"
         style="display:inline;fill:#00a3ff;fill-opacity:1;stroke-width:1.7043"
         id="path64-3-5" />
    </g>
  </g>
</svg>
