<?xml version="1.0" encoding="UTF-8" standalone="no"?>
<svg
   xmlns:dc="http://purl.org/dc/elements/1.1/"
   xmlns:cc="http://creativecommons.org/ns#"
   xmlns:rdf="http://www.w3.org/1999/02/22-rdf-syntax-ns#"
   xmlns:svg="http://www.w3.org/2000/svg"
   xmlns="http://www.w3.org/2000/svg"
   xmlns:sodipodi="http://sodipodi.sourceforge.net/DTD/sodipodi-0.dtd"
   xmlns:inkscape="http://www.inkscape.org/namespaces/inkscape"
   width="16"
   height="16"
   viewBox="0 0 4.2333333 4.2333335"
   version="1.1"
   id="svg8"
   inkscape:version="1.0.2 (e86c870879, 2021-01-15)"
   sodipodi:docname="psensor_hot.svg"
   inkscape:export-filename="/home/ratus5/Downloads/Projects/Code/psensor/icons/hicolor/48x48/psensor.png"
   inkscape:export-xdpi="36"
   inkscape:export-ydpi="36">
  <defs
     id="defs2" />
  <sodipodi:namedview
     id="base"
     pagecolor="#6c6c6c"
     bordercolor="#666666"
     borderopacity="1.0"
     inkscape:pageopacity="0"
     inkscape:pageshadow="2"
     inkscape:zoom="32"
     inkscape:cx="8.6490298"
     inkscape:cy="6.0710231"
     inkscape:document-units="px"
     inkscape:current-layer="layer1"
     inkscape:document-rotation="0"
     showgrid="false"
     inkscape:window-width="1920"
     inkscape:window-height="1016"
     inkscape:window-x="1920"
     inkscape:window-y="27"
     inkscape:window-maximized="1"
     units="px"
     inkscape:pagecheckerboard="true" />
  <metadata
     id="metadata5">
    <rdf:RDF>
      <cc:Work
         rdf:about="">
        <dc:format>image/svg+xml</dc:format>
        <dc:type
           rdf:resource="http://purl.org/dc/dcmitype/StillImage" />
        <dc:title />
      </cc:Work>
    </rdf:RDF>
  </metadata>
  <g
     style="display:inline"
     inkscape:label="Graphic"
     id="layer1"
     inkscape:groupmode="layer">
    <path
       id="path840"
       style="display:inline;fill:#ff0000;fill-opacity:1;stroke:none;stroke-width:0.0392417;stroke-miterlimit:4;stroke-dasharray:none"
       d="M 7.6738281 0.625 C 6.2983931 0.62502589 5.1758073 1.7476132 5.1757812 3.1230469 C 5.1757794 5.2830114 5.1757812 7.4702005 5.1757812 9.3320312 C 4.5179466 9.9965482 4.1132555 10.873586 4.1132812 11.814453 C 4.1133655 13.776482 5.7117764 15.375008 7.6738281 15.375 C 9.6358791 15.375007 11.236244 13.776759 11.236328 11.814453 C 11.236302 10.873684 10.83157 9.9965379 10.173828 9.3320312 L 10.173828 8.1503906 L 12.292969 8.1503906 C 12.629369 8.1502935 12.904271 7.8702903 12.904297 7.5253906 C 12.904268 7.1804898 12.629371 6.9004874 12.292969 6.9003906 L 10.173828 6.9003906 L 10.173828 5.75 L 12.09375 5.75 C 12.430151 5.7499029 12.705052 5.4698996 12.705078 5.125 C 12.705049 4.7800992 12.430153 4.5000968 12.09375 4.5 L 10.173828 4.5 L 10.173828 3.1230469 C 10.173805 1.7471615 9.0493308 0.62492978 7.6738281 0.625 z M 7.6699219 1.9746094 L 7.671875 1.9746094 C 7.6737451 1.9746047 7.6738983 1.9746047 7.6757812 1.9746094 C 8.3349853 1.9757994 8.8777165 2.5185311 8.8789062 3.1777344 L 8.8789062 3.4277344 L 8.8789062 3.4570312 L 8.8789062 6.0429688 L 8.8789062 6.3203125 L 8.8789062 10.003906 C 9.4906897 10.415286 9.9085595 11.065146 9.9082031 11.814453 C 9.9075814 13.042594 8.9039228 14.046251 7.6757812 14.046875 C 6.4467379 14.047543 5.4420291 13.043495 5.4414062 11.814453 C 5.4410502 11.065146 5.8589201 10.415286 6.4707031 10.003906 L 6.4707031 6.3203125 L 6.4707031 6.0449219 L 6.4707031 3.4570312 L 6.4707031 3.4277344 L 6.4707031 3.1796875 C 6.4703426 2.5204812 7.0107163 1.9773495 7.6699219 1.9746094 z M 7.671875 3.3144531 C 7.3131978 3.3159431 7.0232391 3.6081105 7.0234375 3.9667969 L 7.0234375 10.587891 C 6.5282344 10.834739 6.2165338 11.341215 6.2167969 11.894531 C 6.2172047 12.700043 6.8702668 13.352003 7.6757812 13.351562 C 8.4806968 13.351154 9.1324051 12.699446 9.1328125 11.894531 C 9.1330756 11.341215 8.81942 10.834741 8.3242188 10.587891 L 8.3242188 3.9648438 C 8.3235705 3.6061665 8.0344615 3.3151021 7.6757812 3.3144531 C 7.6747612 3.3144501 7.672905 3.3144501 7.671875 3.3144531 z "
       transform="scale(0.26458334)" />
  </g>
</svg>
