<?xml version="1.0" encoding="UTF-8" standalone="no"?>
<svg
   xmlns:dc="http://purl.org/dc/elements/1.1/"
   xmlns:cc="http://creativecommons.org/ns#"
   xmlns:rdf="http://www.w3.org/1999/02/22-rdf-syntax-ns#"
   xmlns:svg="http://www.w3.org/2000/svg"
   xmlns="http://www.w3.org/2000/svg"
   xmlns:sodipodi="http://sodipodi.sourceforge.net/DTD/sodipodi-0.dtd"
   xmlns:inkscape="http://www.inkscape.org/namespaces/inkscape"
   width="16"
   height="16"
   viewBox="0 0 4.2333333 4.2333335"
   version="1.1"
   id="svg8"
   inkscape:version="1.0.2 (e86c870879, 2021-01-15)"
   sodipodi:docname="psensor_normal.svg"
   inkscape:export-filename="/home/ratus5/Downloads/Projects/Code/psensor/icons/hicolor/48x48/psensor.png"
   inkscape:export-xdpi="36"
   inkscape:export-ydpi="36">
  <defs
     id="defs2" />
  <sodipodi:namedview
     id="base"
     pagecolor="#ffffff"
     bordercolor="#666666"
     borderopacity="1.0"
     inkscape:pageopacity="0.0"
     inkscape:pageshadow="2"
     inkscape:zoom="22.627418"
     inkscape:cx="9.8382465"
     inkscape:cy="9.3607433"
     inkscape:document-units="px"
     inkscape:current-layer="layer1"
     inkscape:document-rotation="0"
     showgrid="false"
     inkscape:window-width="1920"
     inkscape:window-height="1016"
     inkscape:window-x="1920"
     inkscape:window-y="27"
     inkscape:window-maximized="1"
     units="px"
     inkscape:pagecheckerboard="false" />
  <metadata
     id="metadata5">
    <rdf:RDF>
      <cc:Work
         rdf:about="">
        <dc:format>image/svg+xml</dc:format>
        <dc:type
           rdf:resource="http://purl.org/dc/dcmitype/StillImage" />
        <dc:title></dc:title>
      </cc:Work>
    </rdf:RDF>
  </metadata>
  <g
     style="display:inline"
     inkscape:label="Graphic"
     id="layer1"
     inkscape:groupmode="layer">
    <g
       id="g834">
      <path
         id="rect1199"
         style="display:inline;fill:#f9f9f9;fill-opacity:1;stroke-width:0.01322917;stroke-miterlimit:4;stroke-dasharray:none;stroke:#000000"
         d="m 2.0306195,0.13229167 a 0.56193429,0.56193366 0 0 0 -0.5619237,0.56192301 0.56193429,0.56193366 0 0 0 8.15e-5,0.006094 h -8.15e-5 V 2.6297475 A 0.84290165,0.84290067 0 0 0 1.1877146,3.2580441 0.84290165,0.84290067 0 0 0 2.0306195,4.1009087 0.84290165,0.84290067 0 0 0 2.8735242,3.2580441 0.84290165,0.84290067 0 0 0 2.5925825,2.629829 V 2.2746314 h 0.358778 a 0.09420156,0.09658215 0 0 0 8.33e-5,0 0.09420156,0.09658215 0 0 0 0.094175,-0.096575 0.09420156,0.09658215 0 0 0 -0.094175,-0.096574 0.09420156,0.09658215 0 0 0 -8.33e-5,0 H 2.5925825 V 1.9761309 h 0.2243627 a 0.05259147,0.05268127 0 0 0 5.69e-4,0 0.05259147,0.05268127 0 0 0 0.052592,-0.052676 0.05259147,0.05268127 0 0 0 -0.052592,-0.052714 0.05259147,0.05268127 0 0 0 -5.69e-4,0 H 2.5925825 V 1.7653877 h 0.2243627 a 0.05259191,0.05268127 0 0 0 5.69e-4,0 0.05259191,0.05268127 0 0 0 0.052592,-0.052676 0.05259191,0.05268127 0 0 0 -0.052592,-0.052676 0.05259191,0.05268127 0 0 0 -5.69e-4,0 H 2.5925825 V 1.5546821 h 0.2243627 a 0.05259175,0.05268127 0 0 0 5.69e-4,0 0.05259175,0.05268127 0 0 0 0.052592,-0.052676 0.05259175,0.05268127 0 0 0 -0.052592,-0.052676 0.05259175,0.05268127 0 0 0 -5.69e-4,0 H 2.5925825 v -0.105398 h 0.2243627 a 0.05259175,0.05268127 0 0 0 5.69e-4,0 0.05259175,0.05268127 0 0 0 0.052592,-0.052676 0.05259175,0.05268127 0 0 0 -0.052592,-0.052676 0.05259175,0.05268127 0 0 0 -5.69e-4,0 H 2.5925825 v -0.105354 h 0.358778 a 0.09420156,0.09658215 0 0 0 8.33e-5,0 0.09420156,0.09658215 0 0 0 0.094175,-0.096574 0.09420156,0.09658215 0 0 0 -0.094175,-0.0966142 0.09420156,0.09658215 0 0 0 -8.33e-5,0 H 2.5925825 V 0.79956766 h 0.2243627 a 0.05259174,0.05268127 0 0 0 5.69e-4,0 0.05259174,0.05268127 0 0 0 0.052592,-0.0526763 0.05259174,0.05268127 0 0 0 -0.052592,-0.0526763 0.05259174,0.05268127 0 0 0 -5.69e-4,0 H 2.5925825 A 0.56193429,0.56193366 0 0 0 2.0306195,0.13229167 Z m -0.00225,0.25460297 h 4.12e-5 a 0.30730777,0.30730741 0 0 1 0.00216,0 0.30730777,0.30730741 0 0 1 0.3070361,0.29455742 h 3.244e-4 v 0.0104865 a 0.30730777,0.30730741 0 0 1 0,0.002278 V 2.766768 A 0.57949474,0.57949408 0 0 1 2.6100897,3.2580488 0.57949474,0.57949408 0 0 1 2.0306073,3.8375313 0.57949474,0.57949408 0 0 1 1.4511257,3.2580488 0.57949474,0.57949408 0 0 1 1.723287,2.766768 V 0.69649086 a 0.30730777,0.30730741 0 0 1 0,-0.002278 v -0.0127626 h 3.253e-4 A 0.30730777,0.30730741 0 0 1 2.0283311,0.38689293 Z" />
      <path
         d="M 2.0296792,1.2473561 A 0.21950564,0.21950539 0 0 0 1.8111261,1.46686 a 0.21950564,0.21950539 0 0 0 3.56e-5,0.0045 h -3.56e-5 V 2.8180704 A 0.49169251,0.49169196 0 0 0 1.5389383,3.2580647 0.49169251,0.49169196 0 0 0 2.0306298,3.7497561 0.49169251,0.49169196 0 0 0 2.522322,3.2580647 0.49169251,0.49169196 0 0 0 2.2501335,2.8181057 V 1.4713326 h -8.63e-5 a 0.21950564,0.21950539 0 0 0 8.63e-5,-0.0045 0.21950564,0.21950539 0 0 0 -0.2195037,-0.2195041 0.21950564,0.21950539 0 0 0 -9.375e-4,0 z"
         inkscape:transform-center-y="10.853649"
         inkscape:transform-center-x="-3.1744174"
         style="display:inline;opacity:1;fill:#f9f9f9;fill-opacity:1;stroke-width:0.01322917;stroke-miterlimit:4;stroke-dasharray:none;stroke:#000000"
         id="path64-3-5" />
    </g>
  </g>
</svg>
