<?xml version="1.0" encoding="UTF-8" standalone="no"?>
<svg
   xmlns:dc="http://purl.org/dc/elements/1.1/"
   xmlns:cc="http://creativecommons.org/ns#"
   xmlns:rdf="http://www.w3.org/1999/02/22-rdf-syntax-ns#"
   xmlns:svg="http://www.w3.org/2000/svg"
   xmlns="http://www.w3.org/2000/svg"
   xmlns:sodipodi="http://sodipodi.sourceforge.net/DTD/sodipodi-0.dtd"
   xmlns:inkscape="http://www.inkscape.org/namespaces/inkscape"
   width="16"
   height="16"
   viewBox="0 0 4.2333333 4.2333335"
   version="1.1"
   id="svg8"
   inkscape:version="1.0.2 (e86c870879, 2021-01-15)"
   sodipodi:docname="psensor_hot.svg"
   inkscape:export-filename="/home/ratus5/Downloads/Projects/Code/psensor/icons/hicolor/48x48/psensor.png"
   inkscape:export-xdpi="36"
   inkscape:export-ydpi="36">
  <defs
     id="defs2" />
  <sodipodi:namedview
     id="base"
     pagecolor="#ffffff"
     bordercolor="#666666"
     borderopacity="1.0"
     inkscape:pageopacity="0.0"
     inkscape:pageshadow="2"
     inkscape:zoom="22.627417"
     inkscape:cx="10.60984"
     inkscape:cy="9.669741"
     inkscape:document-units="px"
     inkscape:current-layer="layer1"
     inkscape:document-rotation="0"
     showgrid="false"
     inkscape:window-width="1920"
     inkscape:window-height="1016"
     inkscape:window-x="1920"
     inkscape:window-y="27"
     inkscape:window-maximized="1"
     units="px" />
  <metadata
     id="metadata5">
    <rdf:RDF>
      <cc:Work
         rdf:about="">
        <dc:format>image/svg+xml</dc:format>
        <dc:type
           rdf:resource="http://purl.org/dc/dcmitype/StillImage" />
        <dc:title />
      </cc:Work>
    </rdf:RDF>
  </metadata>
  <g
     style="display:inline"
     inkscape:label="Graphic"
     id="layer1"
     inkscape:groupmode="layer">
    <path
       id="path853"
       style="display:inline;opacity:0.4;fill:#000000;fill-opacity:1;stroke-width:0.0307303"
       d="m 2.0307433,0.23822836 a 0.56192565,0.56195252 0 0 0 -0.5622121,0.56172283 0.56192565,0.56195252 0 0 0 0,0.006201 V 2.7357505 A 0.84288867,0.84292895 0 0 0 1.187942,3.3641359 0.84288867,0.84292895 0 0 0 2.0307433,4.2069786 0.84288867,0.84292895 0 0 0 2.8735446,3.3641359 0.84288867,0.84292895 0 0 0 2.5924386,2.7357505 V 2.3807333 h 0.3591336 a 0.09420011,0.09658539 0 0 0 0.094047,-0.096635 0.09420011,0.09658539 0 0 0 -0.094047,-0.096635 H 2.5924386 V 2.0820435 h 0.2242646 a 0.05259065,0.05268304 0 0 0 0.00103,0 0.05259065,0.05268304 0 0 0 0.052191,-0.05271 0.05259065,0.05268304 0 0 0 -0.052191,-0.05271 0.05259065,0.05268304 0 0 0 -0.00103,0 H 2.5924386 V 1.8712037 h 0.2242646 a 0.05259109,0.05268304 0 0 0 0.00103,0 0.05259109,0.05268304 0 0 0 0.052191,-0.05271 0.05259109,0.05268304 0 0 0 -0.052191,-0.05271 0.05259109,0.05268304 0 0 0 -0.00103,0 H 2.5924386 V 1.6603638 h 0.2242646 a 0.05259093,0.05268304 0 0 0 0.00103,0 0.05259093,0.05268304 0 0 0 0.052191,-0.05271 0.05259093,0.05268304 0 0 0 -0.052191,-0.052193 0.05259093,0.05268304 0 0 0 -0.00103,0 H 2.5924386 V 1.4500407 h 0.2242646 a 0.05259093,0.05268304 0 0 0 0.00103,0 0.05259093,0.05268304 0 0 0 0.052191,-0.05271 0.05259093,0.05268304 0 0 0 -0.052191,-0.05271 0.05259093,0.05268304 0 0 0 -0.00103,0 H 2.5924386 V 1.2392009 H 2.9515722 A 0.09420011,0.09658539 0 0 0 3.0456188,1.142566 0.09420011,0.09658539 0 0 0 2.9515722,1.045931 H 2.5924386 V 0.90537112 h 0.2242646 a 0.05259092,0.05268304 0 0 0 0.00103,0 0.05259092,0.05268304 0 0 0 0.052191,-0.05271 0.05259092,0.05268304 0 0 0 -0.052191,-0.05271 0.05259092,0.05268304 0 0 0 -0.00103,0 H 2.5924386 A 0.56192565,0.56195252 0 0 0 2.0307433,0.23822836 Z m -0.014469,0.2547648 a 0.30730304,0.30731773 0 0 1 0.011885,0 0.30730304,0.30731773 0 0 1 0.00258,0 0.30730304,0.30731773 0 0 1 0.306943,0.29455569 v 0.0103353 a 0.30730304,0.30731773 0 0 1 0,0.002067 V 2.872693 A 0.57948582,0.5795135 0 0 1 2.6100077,3.3641359 0.57948582,0.5795135 0 0 1 2.0307433,3.9434287 0.57948582,0.5795135 0 0 1 1.4509621,3.3641359 0.57948582,0.5795135 0 0 1 1.7232836,2.872693 V 0.80253501 a 0.30730304,0.30731773 0 0 1 0,-0.002584 v -0.0124023 h 5.167e-4 a 0.30730304,0.30731773 0 0 1 0.292474,-0.29455555 z m 0.013435,0.35760095 c -0.1209114,5.0797e-4 -0.2186434,0.0987067 -0.2185806,0.21962479 -3e-7,0.6451473 0,1.3012145 0,1.8536336 C 1.6441937,3.0070754 1.5387229,3.1775986 1.5388078,3.3641359 1.5389544,3.6356931 1.759199,3.8557172 2.0307433,3.8555788 2.3020858,3.8554317 2.5220156,3.6354915 2.5221621,3.3641359 2.5221488,3.1778999 2.4169254,3.0076535 2.2503574,2.9243693 V 1.0702189 c 6.19e-5,-0.12132089 -0.098299,-0.21968662 -0.2196141,-0.21962479 -3.44e-4,-8.2e-7 -6.914e-4,-8.2e-7 -0.00103,0 z" />
    <g
       id="g858"
       transform="matrix(0.99995099,0,0,1,0.06196768,0)">
      <path
         id="rect1199"
         style="display:inline;fill:#ff0000;fill-opacity:1;stroke-width:0.0293383"
         d="m 1.9687353,0.13229167 a 0.56195317,0.56195251 0 0 0 -0.5619426,0.56194186 0.56195317,0.56195251 0 0 0 8.15e-5,0.006094 h -8.15e-5 V 2.6298313 A 0.84292997,0.84292894 0 0 0 1.1258021,3.2581489 0.84292997,0.84292894 0 0 0 1.9687353,4.1010418 0.84292997,0.84292894 0 0 0 2.8116683,3.2581489 0.84292997,0.84292894 0 0 0 2.5307172,2.6299128 V 2.2747032 h 0.35879 a 0.09420473,0.09658539 0 0 0 8.34e-5,0 0.09420473,0.09658539 0 0 0 0.094178,-0.096578 0.09420473,0.09658539 0 0 0 -0.094178,-0.096577 0.09420473,0.09658539 0 0 0 -8.34e-5,0 h -0.35879 V 1.9761927 h 0.2243702 a 0.05259323,0.05268304 0 0 0 5.691e-4,0 0.05259323,0.05268304 0 0 0 0.052594,-0.052678 0.05259323,0.05268304 0 0 0 -0.052594,-0.052716 0.05259323,0.05268304 0 0 0 -5.691e-4,0 H 2.5307172 V 1.7654425 h 0.2243702 a 0.05259367,0.05268304 0 0 0 5.691e-4,0 0.05259367,0.05268304 0 0 0 0.052594,-0.052678 0.05259367,0.05268304 0 0 0 -0.052594,-0.052678 0.05259367,0.05268304 0 0 0 -5.691e-4,0 H 2.5307172 V 1.5547298 h 0.2243702 a 0.05259351,0.05268304 0 0 0 5.691e-4,0 0.05259351,0.05268304 0 0 0 0.052594,-0.052678 0.05259351,0.05268304 0 0 0 -0.052594,-0.052678 0.05259351,0.05268304 0 0 0 -5.691e-4,0 H 2.5307172 V 1.3439727 h 0.2243702 a 0.05259351,0.05268304 0 0 0 5.691e-4,0 0.05259351,0.05268304 0 0 0 0.052594,-0.052678 0.05259351,0.05268304 0 0 0 -0.052594,-0.052678 0.05259351,0.05268304 0 0 0 -5.691e-4,0 H 2.5307172 v -0.105357 h 0.35879 a 0.09420473,0.09658539 0 0 0 8.34e-5,0 0.09420473,0.09658539 0 0 0 0.094178,-0.096577 0.09420473,0.09658539 0 0 0 -0.094178,-0.0966174 0.09420473,0.09658539 0 0 0 -8.34e-5,0 h -0.35879 V 0.79959004 h 0.2243702 a 0.0525935,0.05268304 0 0 0 5.691e-4,0 0.0525935,0.05268304 0 0 0 0.052594,-0.0526781 0.0525935,0.05268304 0 0 0 -0.052594,-0.0526781 0.0525935,0.05268304 0 0 0 -5.691e-4,0 H 2.5307172 A 0.56195317,0.56195251 0 0 0 1.9687353,0.13229167 Z m -0.00225,0.25461151 h 4.12e-5 a 0.3073181,0.30731772 0 0 1 0.00216,0 0.3073181,0.30731772 0 0 1 0.3070465,0.2945673 h 3.244e-4 v 0.0104869 a 0.3073181,0.30731772 0 0 1 0,0.002278 V 2.7668564 A 0.5795142,0.57951351 0 0 1 2.548225,3.2581536 0.5795142,0.57951351 0 0 1 1.9687231,3.8376556 0.5795142,0.57951351 0 0 1 1.389222,3.2581536 0.5795142,0.57951351 0 0 1 1.6613925,2.7668564 V 0.69650978 a 0.3073181,0.30731772 0 0 1 0,-0.002278 v -0.012763 h 3.253e-4 a 0.3073181,0.30731772 0 0 1 0.304729,-0.29456731 z" />
      <path
         id="path848"
         style="display:inline;opacity:1;fill:#ff0000;fill-opacity:1;stroke-width:0.116149"
         d="m 7.4375,2.8144531 c -0.4570104,0.00192 -0.8264093,0.3730643 -0.8261719,0.8300781 -1e-6,2.4383518 0,4.9179762 0,7.0058598 -0.6309681,0.314543 -1.0296176,0.959039 -1.0292969,1.664062 5.541e-4,1.026358 0.8330156,1.857945 1.859375,1.857422 1.0255967,-5.55e-4 1.8568682,-0.831826 1.8574219,-1.857422 -5.02e-5,-0.703884 -0.3977642,-1.347334 -1.0273437,-1.662109 0,-2.7043124 0,-5.9654417 0,-7.0078128 2.342e-4,-0.4585361 -0.3715416,-0.8303118 -0.8300782,-0.8300781 -0.0013,-3.1e-6 -0.0026,-3.1e-6 -0.00391,0 z"
         sodipodi:nodetypes="ccccccccccc"
         transform="scale(0.26458334)" />
    </g>
  </g>
</svg>
