<?xml version="1.0" encoding="UTF-8" standalone="no"?>
<svg
   xmlns:dc="http://purl.org/dc/elements/1.1/"
   xmlns:cc="http://creativecommons.org/ns#"
   xmlns:rdf="http://www.w3.org/1999/02/22-rdf-syntax-ns#"
   xmlns:svg="http://www.w3.org/2000/svg"
   xmlns="http://www.w3.org/2000/svg"
   xmlns:sodipodi="http://sodipodi.sourceforge.net/DTD/sodipodi-0.dtd"
   xmlns:inkscape="http://www.inkscape.org/namespaces/inkscape"
   width="256"
   height="256"
   viewBox="0 0 67.733332 67.733336"
   version="1.1"
   id="svg8"
   inkscape:version="1.0 (4035a4fb49, 2020-05-01)"
   sodipodi:docname="psensor.svg"
   inkscape:export-filename="/home/ratus5/Downloads/Projects/Code/psensor/icons/hicolor/48x48/psensor.png"
   inkscape:export-xdpi="36"
   inkscape:export-ydpi="36">
  <defs
     id="defs2" />
  <sodipodi:namedview
     id="base"
     pagecolor="#ffffff"
     bordercolor="#666666"
     borderopacity="1.0"
     inkscape:pageopacity="0.0"
     inkscape:pageshadow="2"
     inkscape:zoom="1.8729399"
     inkscape:cx="107.41834"
     inkscape:cy="136.27898"
     inkscape:document-units="px"
     inkscape:current-layer="layer5"
     inkscape:document-rotation="0"
     showgrid="false"
     inkscape:window-width="1836"
     inkscape:window-height="1016"
     inkscape:window-x="2004"
     inkscape:window-y="27"
     inkscape:window-maximized="1"
     units="px" />
  <metadata
     id="metadata5">
    <rdf:RDF>
      <cc:Work
         rdf:about="">
        <dc:format>image/svg+xml</dc:format>
        <dc:type
           rdf:resource="http://purl.org/dc/dcmitype/StillImage" />
        <dc:title />
      </cc:Work>
    </rdf:RDF>
  </metadata>
  <g
     style="display:inline;opacity:1"
     inkscape:label="Background"
     id="layer2"
     inkscape:groupmode="layer">
    <g
       style="display:inline;opacity:0.4"
       inkscape:label="Shadow"
       id="layer5"
       inkscape:groupmode="layer">
      <path
         d="m 9.2255832,64.558333 c -2.7655979,0 -4.9922498,-2.226652 -4.9922498,-4.99225 V 34.925 H 63.500001 v 24.641083 c 0,2.765598 -2.22665,4.99225 -4.99225,4.99225 z"
         style="display:inline;opacity:1;fill:#000000;fill-opacity:1;stroke-width:0.0246944;stroke-miterlimit:4;stroke-dasharray:none;paint-order:stroke fill markers"
         id="path906" />
    </g>
    <path
       d="M 67.281361,34.294057 V 58.93514 c 0,2.765599 2.226653,4.99225 4.992252,4.99225 h 49.282167 c 2.7656,0 4.99225,-2.226651 4.99225,-4.99225 V 34.294057 Z"
       style="display:inline;opacity:1;fill:#3b3b3b;fill-opacity:1;stroke-width:0.0246944;stroke-miterlimit:4;stroke-dasharray:none;paint-order:stroke fill markers"
       id="rect1168"
       transform="translate(-63.048029,-0.42738964)" />
    <path
       d="m 72.273613,4.660723 c -2.765599,0 -4.992252,2.2266525 -4.992252,4.9922509 V 34.294056 H 126.54803 V 9.6529739 c 0,-2.7655984 -2.22665,-4.9922509 -4.99225,-4.9922509 z"
       style="display:inline;opacity:1;fill:#323232;fill-opacity:1;stroke-width:0.0246944;stroke-miterlimit:4;stroke-dasharray:none;paint-order:stroke fill markers"
       id="rect1172-5"
       transform="translate(-63.048029,-0.42738964)" />
    <g
       inkscape:groupmode="layer"
       id="layer7"
       inkscape:label="Highlight"
       style="display:inline">
      <path
         id="path955"
         style="display:inline;opacity:0.1;fill:#ffffff;fill-opacity:1;stroke-width:0.0246944;stroke-miterlimit:4;stroke-dasharray:none;paint-order:stroke fill markers"
         d="m 9.2257938,4.2333335 c -2.7655992,0 -4.9924604,2.2268617 -4.9924604,4.9924603 v 1.0583332 c 0,-2.7655985 2.2268612,-4.9924602 4.9924604,-4.9924602 H 58.507542 c 2.765599,0 4.99246,2.2268617 4.99246,4.9924602 V 9.2257938 c 0,-2.7655986 -2.226861,-4.9924603 -4.99246,-4.9924603 z" />
    </g>
  </g>
  <g
     style="display:inline"
     inkscape:label="Sensor"
     id="layer1"
     inkscape:groupmode="layer">
    <g
       transform="translate(-63.048028,-0.42738963)"
       style="display:inline"
       inkscape:label="Shadow"
       id="g1150"
       inkscape:groupmode="layer">
      <path
         transform="matrix(0.26458334,0,0,0.26458334,63.048028,0.42738963)"
         d="m 123.86523,36.648438 a 27.002493,27.002461 0 0 0 -27.001949,27.001953 27.002493,27.002461 0 0 0 0.0039,0.292968 h -0.0039 V 156.6582 a 40.503749,40.5037 0 0 0 -13.501953,30.19141 40.503749,40.5037 0 0 0 40.503902,40.50195 40.503749,40.5037 0 0 0 40.50391,-40.50195 40.503749,40.5037 0 0 0 -13.5,-30.1875 V 125.25 h 10.78125 a 2.5271645,2.5314805 0 0 0 0.0273,0 2.5271645,2.5314805 0 0 0 2.52735,-2.53125 2.5271645,2.5314805 0 0 0 -2.52735,-2.5332 2.5271645,2.5314805 0 0 0 -0.0273,0 h -10.78125 v -5.0625 h 10.78125 a 2.5271861,2.5314805 0 0 0 0.0273,0 2.5271861,2.5314805 0 0 0 2.52735,-2.53125 2.5271861,2.5314805 0 0 0 -2.52735,-2.53125 2.5271861,2.5314805 0 0 0 -0.0273,0 h -10.78125 v -5.0625 h 10.78125 a 2.5271784,2.5314805 0 0 0 0.0273,0 2.5271784,2.5314805 0 0 0 2.52735,-2.53125 2.5271784,2.5314805 0 0 0 -2.52735,-2.531253 2.5271784,2.5314805 0 0 0 -0.0273,0 h -10.78125 v -5.064453 h 10.78125 a 2.5271784,2.5314805 0 0 0 0.0273,0 2.5271784,2.5314805 0 0 0 2.52735,-2.53125 2.5271784,2.5314805 0 0 0 -2.52735,-2.53125 2.5271784,2.5314805 0 0 0 -0.0273,0 h -10.78125 v -5.0625 h 17.24024 a 4.5266452,4.6410387 0 0 0 0.004,0 4.5266452,4.6410387 0 0 0 4.52539,-4.640625 4.5266452,4.6410387 0 0 0 -4.52539,-4.642578 4.5266452,4.6410387 0 0 0 -0.004,0 h -17.24024 v -6.75 h 10.78125 a 2.5271779,2.5314805 0 0 0 0.0273,0 2.5271779,2.5314805 0 0 0 2.52735,-2.53125 2.5271779,2.5314805 0 0 0 -2.52735,-2.53125 2.5271779,2.5314805 0 0 0 -0.0273,0 H 150.86914 A 27.002493,27.002461 0 0 0 123.86523,36.648438 Z m -0.10742,12.234374 h 0.002 a 14.766986,14.766968 0 0 1 0.10546,0 14.766986,14.766968 0 0 1 14.75391,14.154297 h 0.0156 v 0.503907 a 14.766986,14.766968 0 0 1 0,0.109375 v 99.591799 a 27.84632,27.846287 0 0 1 13.07812,23.60742 27.84632,27.846287 0 0 1 -27.8457,27.8457 27.84632,27.846287 0 0 1 -27.845706,-27.8457 27.84632,27.846287 0 0 1 13.078126,-23.60742 V 63.759766 a 14.766986,14.766968 0 0 1 0,-0.109375 v -0.613282 h 0.0156 A 14.766986,14.766968 0 0 1 123.7578,48.882812 Z"
         inkscape:transform-center-y="236.55917"
         inkscape:transform-center-x="-69.187549"
         style="display:inline;fill:#1a1a1a;fill-opacity:1;stroke-width:2.53144"
         id="path863" />
    </g>
    <g
       inkscape:groupmode="layer"
       id="layer6"
       inkscape:label="Body"
       style="display:inline">
      <path
         id="rect1199"
         style="fill:#ffffff;fill-opacity:1;stroke-width:0.372994"
         d="m 39.872571,33.420164 v 2.455878 h 4.606431 a 1.1976749,1.2279415 0 0 0 7.27e-4,0 1.1976749,1.2279415 0 0 0 1.197674,-1.227944 1.1976749,1.2279415 0 0 0 -1.197674,-1.227934 1.1976749,1.2279415 0 0 0 -7.27e-4,0 z" />
      <path
         id="rect1201"
         style="fill:#ffffff;fill-opacity:1;stroke-width:0.472006"
         d="m 39.872571,30.741014 v 1.339569 h 2.897458 a 0.66864561,0.66978755 0 0 0 0.007,0 0.66864561,0.66978755 0 0 0 0.668646,-0.669785 0.66864561,0.66978755 0 0 0 -0.668646,-0.669784 0.66864561,0.66978755 0 0 0 -0.007,0 z" />
      <path
         d="m 39.872571,28.06186 v 1.339575 h 2.897481 a 0.66865134,0.66978755 0 0 0 0.007,0 0.66865134,0.66978755 0 0 0 0.668655,-0.669798 0.66865134,0.66978755 0 0 0 -0.668655,-0.669777 0.66865134,0.66978755 0 0 0 -0.007,0 z"
         style="fill:#ffffff;fill-opacity:1;stroke-width:0.472006"
         id="rect1201-6" />
      <path
         id="rect1201-6-2"
         style="fill:#ffffff;fill-opacity:1;stroke-width:0.472006"
         d="m 39.872571,26.722284 v -1.339578 h 2.897471 a 0.66864928,0.66978755 0 0 1 0.007,0 0.66864928,0.66978755 0 0 1 0.668655,0.669785 0.66864928,0.66978755 0 0 1 -0.668655,0.669793 0.66864928,0.66978755 0 0 1 -0.007,0 z" />
      <path
         d="m 39.872571,24.043131 v -1.339578 h 2.897471 a 0.66864928,0.66978755 0 0 1 0.007,0 0.66864928,0.66978755 0 0 1 0.668655,0.669784 0.66864928,0.66978755 0 0 1 -0.668655,0.669794 0.66864928,0.66978755 0 0 1 -0.007,0 z"
         style="fill:#ffffff;fill-opacity:1;stroke-width:0.472006"
         id="rect1201-6-2-9" />
      <path
         id="rect1201-6-2-9-7"
         style="fill:#ffffff;fill-opacity:1;stroke-width:0.472006"
         d="M 39.872571,17.121992 V 15.78242 h 2.897471 a 0.66864916,0.66978755 0 0 1 0.007,0 0.66864916,0.66978755 0 0 1 0.668655,0.669781 0.66864916,0.66978755 0 0 1 -0.668655,0.669791 0.66864916,0.66978755 0 0 1 -0.007,0 z" />
      <path
         d="m 39.872571,18.908091 v 2.455884 h 4.606431 a 1.1976749,1.2279415 0 0 0 7.19e-4,0 1.1976749,1.2279415 0 0 0 1.197682,-1.227935 1.1976749,1.2279415 0 0 0 -1.197674,-1.227949 1.1976749,1.2279415 0 0 0 -7.22e-4,0 z"
         style="display:inline;fill:#ffffff;fill-opacity:1;stroke-width:0.372994"
         id="rect1199-3" />
      <path
         id="path1336"
         style="display:inline;fill:#ffffff;fill-opacity:1;stroke-width:0.669778"
         inkscape:transform-center-x="-69.187549"
         inkscape:transform-center-y="236.55917"
         d="m 32.772814,8.6380111 a 7.1444096,7.1444011 0 0 0 -7.144406,7.1443999 7.1444096,7.1444011 0 0 0 8.62e-4,0.07762 h -8.62e-4 V 40.39102 A 10.716617,10.716604 0 0 0 22.056196,48.378748 10.716617,10.716604 0 0 0 32.772814,59.095351 10.716617,10.716604 0 0 0 43.489423,48.378748 10.716617,10.716604 0 0 0 39.917215,40.391877 V 15.860042 h -8.64e-4 a 7.1444096,7.1444011 0 0 0 8.64e-4,-0.07766 7.1444096,7.1444011 0 0 0 -7.144401,-7.1443975 z m -0.02876,3.2373069 a 3.9070984,3.9070937 0 0 1 0.02873,0 3.9070984,3.9070937 0 0 1 3.903611,3.744882 h 0.004 v 0.133437 a 3.9070984,3.9070937 0 0 1 0,0.02878 v 26.350221 a 7.3676722,7.3676634 0 0 1 3.460554,6.246115 7.3676722,7.3676634 0 0 1 -7.367663,7.367666 7.3676722,7.3676634 0 0 1 -7.367669,-7.367666 7.3676722,7.3676634 0 0 1 3.460563,-6.246115 V 15.811205 a 3.9070984,3.9070937 0 0 1 0,-0.02873 v -0.162237 h 0.004 a 3.9070984,3.9070937 0 0 1 3.874799,-3.74489 z" />
    </g>
    <g
       inkscape:groupmode="layer"
       id="layer3"
       inkscape:label="Colour"
       style="display:inline;opacity:1">
      <path
         d="m 32.760722,22.815116 a 2.7907858,2.7907824 0 0 0 -2.778675,2.790766 2.7907858,2.7907824 0 0 0 4.59e-4,0.05681 h -4.59e-4 v 17.122026 a 6.2513586,6.2513512 0 0 0 -3.460583,5.594069 6.2513586,6.2513512 0 0 0 6.251352,6.251342 6.2513586,6.2513512 0 0 0 6.251355,-6.251342 6.2513586,6.2513512 0 0 0 -3.460597,-5.593616 V 25.662739 h -0.0011 a 2.7907858,2.7907824 0 0 0 0.0011,-0.05681 2.7907858,2.7907824 0 0 0 -2.790758,-2.790768 2.7907858,2.7907824 0 0 0 -0.0121,0 z"
         inkscape:transform-center-y="137.99282"
         inkscape:transform-center-x="-40.35941"
         style="display:inline;fill:#00a3ff;fill-opacity:1;stroke-width:0.390699"
         id="path64-3-5" />
    </g>
  </g>
</svg>
