<?xml version="1.0" encoding="UTF-8" standalone="no"?>
<svg
   xmlns:dc="http://purl.org/dc/elements/1.1/"
   xmlns:cc="http://creativecommons.org/ns#"
   xmlns:rdf="http://www.w3.org/1999/02/22-rdf-syntax-ns#"
   xmlns:svg="http://www.w3.org/2000/svg"
   xmlns="http://www.w3.org/2000/svg"
   xmlns:sodipodi="http://sodipodi.sourceforge.net/DTD/sodipodi-0.dtd"
   xmlns:inkscape="http://www.inkscape.org/namespaces/inkscape"
   inkscape:export-ydpi="36"
   inkscape:export-xdpi="36"
   inkscape:export-filename="/home/ratus5/Downloads/Projects/Code/psensor/icons/hicolor/48x48/psensor.png"
   sodipodi:docname="psensor.svg"
   inkscape:version="1.0 (4035a4fb49, 2020-05-01)"
   id="svg8"
   version="1.1"
   viewBox="0 0 67.733332 67.733336"
   height="256"
   width="256">
  <defs
     id="defs2" />
  <sodipodi:namedview
     units="px"
     inkscape:window-maximized="1"
     inkscape:window-y="27"
     inkscape:window-x="2004"
     inkscape:window-height="1016"
     inkscape:window-width="1836"
     showgrid="false"
     inkscape:document-rotation="0"
     inkscape:current-layer="layer2"
     inkscape:document-units="px"
     inkscape:cy="136.38572"
     inkscape:cx="170.6746"
     inkscape:zoom="1.8729398"
     inkscape:pageshadow="2"
     inkscape:pageopacity="0.0"
     borderopacity="1.0"
     bordercolor="#666666"
     pagecolor="#ffffff"
     id="base" />
  <metadata
     id="metadata5">
    <rdf:RDF>
      <cc:Work
         rdf:about="">
        <dc:format>image/svg+xml</dc:format>
        <dc:type
           rdf:resource="http://purl.org/dc/dcmitype/StillImage" />
        <dc:title></dc:title>
      </cc:Work>
    </rdf:RDF>
  </metadata>
  <g
     inkscape:groupmode="layer"
     id="layer2"
     inkscape:label="Background"
     style="display:inline;opacity:1">
    <path
       id="rect1172"
       style="display:inline;fill:#2b2b2b;fill-opacity:1;stroke-width:0.0246944;stroke-miterlimit:4;stroke-dasharray:none;paint-order:stroke fill markers"
       d="m 9.2255844,4.2333334 c -2.7655985,0 -4.992251,2.2266519 -4.992251,4.9922498 V 33.866666 H 63.499999 V 9.2255832 c 0,-2.7655979 -2.22665,-4.9922498 -4.99225,-4.9922498 z" />
    <path
       d="m 9.2255832,63.499999 c -2.7655979,0 -4.9922498,-2.226652 -4.9922498,-4.99225 V 33.866666 H 63.500001 v 24.641083 c 0,2.765598 -2.22665,4.99225 -4.99225,4.99225 z"
       style="display:inline;opacity:1;fill:#333333;fill-opacity:1;stroke-width:0.0246944;stroke-miterlimit:4;stroke-dasharray:none;paint-order:stroke fill markers"
       id="rect1172-3" />
  </g>
  <g
     style="display:inline"
     inkscape:label="Outline"
     id="g1344"
     inkscape:groupmode="layer">
    <path
       d="m 33.866666,4.7486956 a 8.2457961,8.2457961 0 0 0 -8.245796,8.2457964 8.2457961,8.2457961 0 0 0 0.001,0.08958 h -0.001 v 28.312717 a 12.368695,12.368695 0 0 0 -4.1229,9.219148 12.368695,12.368695 0 0 0 12.368696,12.368696 12.368695,12.368695 0 0 0 12.368695,-12.368696 12.368695,12.368695 0 0 0 -4.1229,-9.218142 V 13.084077 h -0.001 a 8.2457961,8.2457961 0 0 0 0.001,-0.08958 8.2457961,8.2457961 0 0 0 -8.245795,-8.2457974 z m -0.0332,3.7363765 a 4.5094201,4.5094201 0 0 1 0.0332,0 4.5094201,4.5094201 0 0 1 4.505393,4.3221989 h 0.004 v 0.154004 a 4.5094201,4.5094201 0 0 1 0,0.03322 v 30.412418 a 8.5034777,8.5034779 0 0 1 3.994058,7.209032 8.5034777,8.5034779 0 0 1 -8.503477,8.503478 8.5034777,8.5034779 0 0 1 -8.503478,-8.503478 8.5034777,8.5034779 0 0 1 3.994058,-7.209032 v -30.3792 a 4.5094201,4.5094201 0 0 1 0,-0.03322 v -0.187222 h 0.004 a 4.5094201,4.5094201 0 0 1 4.47223,-4.3221989 z"
       inkscape:transform-center-y="273.02759"
       inkscape:transform-center-x="-79.853551"
       style="fill:#ffffff;fill-opacity:1;stroke-width:0.773028"
       id="path1336" />
  </g>
  <g
     style="display:inline"
     inkscape:label="Scale"
     id="layer6"
     inkscape:groupmode="layer">
    <path
       d="m 42.060925,33.351306 v 2.834492 h 5.31657 a 1.3823088,1.4172448 0 0 0 8.32e-4,0 1.3823088,1.4172448 0 0 0 1.382308,-1.417242 1.3823088,1.4172448 0 0 0 -1.382308,-1.41725 1.3823088,1.4172448 0 0 0 -8.32e-4,0 z"
       style="fill:#ffffff;fill-opacity:1;stroke-width:0.4305"
       id="rect1199" />
    <path
       d="m 42.060925,30.25914 v 1.546086 h 3.34414 a 0.77172457,0.77304343 0 0 0 0.007,0 0.77172457,0.77304343 0 0 0 0.771724,-0.773042 0.77172457,0.77304343 0 0 0 -0.771724,-0.773044 0.77172457,0.77304343 0 0 0 -0.007,0 z"
       style="fill:#ffffff;fill-opacity:1;stroke-width:0.544772"
       id="rect1201" />
    <path
       id="rect1201-6"
       style="fill:#ffffff;fill-opacity:1;stroke-width:0.544774"
       d="m 42.060925,27.166966 v 1.546086 h 3.344166 a 0.77173107,0.77304343 0 0 0 0.007,0 0.77173107,0.77304343 0 0 0 0.771734,-0.773042 0.77173107,0.77304343 0 0 0 -0.771734,-0.773044 0.77173107,0.77304343 0 0 0 -0.007,0 z" />
    <path
       d="M 42.060925,25.620878 V 24.07479 h 3.344156 a 0.77172875,0.77304343 0 0 1 0.007,0 0.77172875,0.77304343 0 0 1 0.771732,0.773044 0.77172875,0.77304343 0 0 1 -0.771732,0.773044 0.77172875,0.77304343 0 0 1 -0.007,0 z"
       style="fill:#ffffff;fill-opacity:1;stroke-width:0.544774"
       id="rect1201-6-2" />
    <path
       id="rect1201-6-2-9"
       style="fill:#ffffff;fill-opacity:1;stroke-width:0.544774"
       d="m 42.060925,22.5287 v -1.546084 h 3.344156 a 0.77172875,0.77304343 0 0 1 0.007,0 0.77172875,0.77304343 0 0 1 0.771732,0.77304 0.77172875,0.77304343 0 0 1 -0.771732,0.773044 0.77172875,0.77304343 0 0 1 -0.007,0 z" />
    <path
       d="m 42.060925,14.540583 v -1.546082 h 3.344156 a 0.77172863,0.77304343 0 0 1 0.007,0 0.77172863,0.77304343 0 0 1 0.771732,0.773039 0.77172863,0.77304343 0 0 1 -0.771732,0.773043 0.77172863,0.77304343 0 0 1 -0.007,0 z"
       style="fill:#ffffff;fill-opacity:1;stroke-width:0.544774"
       id="rect1201-6-2-9-7" />
    <path
       id="rect1199-3"
       style="display:inline;fill:#ffffff;fill-opacity:1;stroke-width:0.4305"
       d="m 42.060925,16.602028 v 2.834492 h 5.31657 a 1.3823088,1.4172448 0 0 0 8.24e-4,0 1.3823088,1.4172448 0 0 0 1.382316,-1.417242 1.3823088,1.4172448 0 0 0 -1.382308,-1.41725 1.3823088,1.4172448 0 0 0 -8.26e-4,0 z" />
  </g>
  <g
     style="display:inline;opacity:1"
     inkscape:label="Colour"
     id="layer3"
     inkscape:groupmode="layer">
    <circle
       r="7.2150722"
       inkscape:transform-center-y="159.2661"
       inkscape:transform-center-x="-46.581245"
       cy="50.61594"
       cx="33.866665"
       id="path64-3-5"
       style="display:inline;fill:#00a3ff;fill-opacity:1;stroke-width:0.45093" />
    <circle
       r="3.2210145"
       cy="24.332457"
       cx="33.866665"
       id="path69-6-3"
       style="display:inline;fill:#00a3ff;fill-opacity:1;stroke-width:0.201314" />
    <rect
       y="24.397873"
       x="30.645653"
       height="21.686401"
       width="6.442029"
       id="rect71-7-5"
       style="display:inline;fill:#00a3ff;fill-opacity:1;stroke-width:0.328884" />
  </g>
</svg>
