<?xml version="1.0" encoding="UTF-8" standalone="no"?>
<svg
   xmlns:dc="http://purl.org/dc/elements/1.1/"
   xmlns:cc="http://creativecommons.org/ns#"
   xmlns:rdf="http://www.w3.org/1999/02/22-rdf-syntax-ns#"
   xmlns:svg="http://www.w3.org/2000/svg"
   xmlns="http://www.w3.org/2000/svg"
   xmlns:xlink="http://www.w3.org/1999/xlink"
   xmlns:sodipodi="http://sodipodi.sourceforge.net/DTD/sodipodi-0.dtd"
   xmlns:inkscape="http://www.inkscape.org/namespaces/inkscape"
   enable-background="new"
   sodipodi:docname="retroarch.svg"
   inkscape:version="1.0.2 (e86c870879, 2021-01-15)"
   id="SVGRoot"
   version="1.1"
   viewBox="0 0 256 256"
   height="256px"
   width="256px">
  <defs
     id="defs3885">
    <linearGradient
       inkscape:collect="always"
       id="linearGradient866">
      <stop
         style="stop-color:#00ffbe;stop-opacity:1;"
         offset="0"
         id="stop862" />
      <stop
         style="stop-color:#00ffff;stop-opacity:1"
         offset="1"
         id="stop864" />
    </linearGradient>
    <linearGradient
       inkscape:collect="always"
       xlink:href="#linearGradient866"
       id="linearGradient868"
       x1="-98.253403"
       y1="-26.287376"
       x2="39.073032"
       y2="-26.287376"
       gradientUnits="userSpaceOnUse"
       gradientTransform="translate(-75.9933,154.30488)" />
  </defs>
  <sodipodi:namedview
     inkscape:document-rotation="0"
     inkscape:grid-bbox="true"
     inkscape:window-maximized="1"
     inkscape:window-y="27"
     inkscape:window-x="2004"
     inkscape:window-height="1016"
     inkscape:window-width="1836"
     showgrid="false"
     inkscape:current-layer="layer2"
     inkscape:document-units="px"
     inkscape:cy="127.649"
     inkscape:cx="110.58566"
     inkscape:zoom="1.4142136"
     inkscape:pageshadow="2"
     inkscape:pageopacity="0.0"
     borderopacity="1.0"
     bordercolor="#666666"
     pagecolor="#ffffff"
     id="base" />
  <metadata
     id="metadata3888">
    <rdf:RDF>
      <cc:Work
         rdf:about="">
        <dc:format>image/svg+xml</dc:format>
        <dc:type
           rdf:resource="http://purl.org/dc/dcmitype/StillImage" />
        <dc:title />
      </cc:Work>
    </rdf:RDF>
  </metadata>
  <g
     inkscape:groupmode="layer"
     id="layer1"
     inkscape:label="Background"
     style="display:inline">
    <g
       inkscape:groupmode="layer"
       id="layer6"
       inkscape:label="Shadow"
       style="display:inline;opacity:0.4">
      <path
         id="circle1716"
         style="display:inline;fill:#000000;fill-opacity:1;stroke-width:1.26675"
         d="M 127.69657,12.000096 A 120,119.99991 0 0 0 8.0000005,132.00005 120,119.99991 0 0 0 128,252 120,119.99991 0 0 0 248,132.00005 120,119.99991 0 0 0 128,12.000096 a 120,119.99991 0 0 0 -0.30343,0 z" />
    </g>
    <g
       style="display:inline"
       inkscape:label="Colour"
       id="layer2"
       inkscape:groupmode="layer">
      <circle
         style="fill:url(#linearGradient868);fill-opacity:1;stroke-width:10.2958;stroke-linecap:round;stroke-linejoin:round;paint-order:stroke markers fill"
         id="path850"
         cx="-128.0005"
         cy="128.0175"
         r="96.5625"
         transform="rotate(-90)" />
    </g>
    <g
       style="display:inline"
       inkscape:label="Border"
       id="layer4"
       inkscape:groupmode="layer">
      <path
         d="M 127.69605,8.0001929 A 120,119.99991 0 0 0 8.0000005,128.00009 120,119.99991 0 0 0 128,248 120,119.99991 0 0 0 248,128.00009 120,119.99991 0 0 0 128,8.0001929 a 120,119.99991 0 0 0 -0.30395,0 z M 128,31.437674 A 96.5625,96.562424 0 0 1 224.5625,128.00009 96.5625,96.562424 0 0 1 128,224.56252 96.5625,96.562424 0 0 1 31.4375,128.00009 96.5625,96.562424 0 0 1 128,31.437674 Z"
         style="display:inline;opacity:1;fill:#333333;stroke-width:0.107241"
         id="path357" />
    </g>
    <g
       inkscape:groupmode="layer"
       id="layer5"
       inkscape:label="Highlight"
       style="display:inline;opacity:0.1">
      <path
         id="circle1726"
         style="display:inline;fill:#ffffff;fill-opacity:1;stroke-width:1.26675"
         d="M 127.69657,8.0000959 A 120,119.99991 0 0 0 8.0000005,128.00005 120,119.99991 0 0 0 8.0188305,130.13663 120,119.99991 0 0 1 127.69657,12.285809 120,119.99991 0 0 1 128,12.285809 120,119.99991 0 0 1 247.98116,130.13035 120,119.99991 0 0 0 248,128.00005 120,119.99991 0 0 0 128,8.0000959 a 120,119.99991 0 0 0 -0.30343,0 z" />
    </g>
  </g>
  <g
     style="display:inline"
     inkscape:label="Invader"
     id="layer3"
     inkscape:groupmode="layer">
    <path
       d="m 78.78125,71.750071 v 14.062494 h 14.0625 V 71.750071 Z m 14.0625,14.062494 V 99.87506 h -14.0625 v 14.06249 h -14.0625 v 14.0625 h -14.0625 v 14.06249 14.0625 14.06249 h 14.0625 v -14.06249 -14.0625 h 14.0625 v 14.0625 14.06249 h 14.0625 v -14.06249 h 70.3125 v 14.06249 h 14.0625 v -14.06249 -14.0625 h 14.0625 v 14.0625 14.06249 h 14.0625 v -14.06249 -14.0625 -14.06249 h -14.0625 v -14.0625 h -14.0625 V 99.87506 h -14.0625 V 85.812565 h -14.0625 V 99.87506 h -42.1875 V 85.812565 Z m 70.3125,0 h 14.0625 V 71.750071 h -14.0625 z m 0,84.374965 h -14.0625 -14.0625 v 14.0625 h 14.0625 14.0625 z m -70.3125,0 v 14.0625 h 14.0625 14.0625 v -14.0625 h -14.0625 z"
       style="opacity:0.93;fill:#000000;stroke-width:0.13015"
       id="rect112" />
    <path
       d="m 92.84375,113.93755 v 14.0625 h 14.0625 v -14.0625 z m 56.25,0 v 14.0625 h 14.0625 v -14.0625 z"
       style="display:inline;opacity:0.93;fill:#ffffff;stroke-width:0.0519256"
       id="rect131-7-93" />
  </g>
</svg>
