<?xml version="1.0" encoding="UTF-8" standalone="no"?>
<svg
   xmlns:dc="http://purl.org/dc/elements/1.1/"
   xmlns:cc="http://creativecommons.org/ns#"
   xmlns:rdf="http://www.w3.org/1999/02/22-rdf-syntax-ns#"
   xmlns:svg="http://www.w3.org/2000/svg"
   xmlns="http://www.w3.org/2000/svg"
   xmlns:sodipodi="http://sodipodi.sourceforge.net/DTD/sodipodi-0.dtd"
   xmlns:inkscape="http://www.inkscape.org/namespaces/inkscape"
   width="256px"
   height="256px"
   viewBox="0 0 256 256"
   version="1.1"
   id="SVGRoot"
   inkscape:version="1.0 (4035a4fb49, 2020-05-01)"
   sodipodi:docname="retroarch.svg"
   enable-background="new">
  <defs
     id="defs3885">
    <clipPath
       clipPathUnits="userSpaceOnUse"
       id="clipPath1200">
      <rect
         style="fill:#ff00ff;fill-opacity:1"
         id="rect1202"
         width="256"
         height="128"
         x="0"
         y="128" />
    </clipPath>
    <clipPath
       clipPathUnits="userSpaceOnUse"
       id="clipPath537">
      <rect
         style="fill:#ff00ff;fill-opacity:1;stroke-width:1.17475688"
         id="rect539"
         width="256"
         height="128"
         x="0"
         y="0" />
    </clipPath>
    <clipPath
       clipPathUnits="userSpaceOnUse"
       id="clipPath537-2">
      <rect
         style="fill:#ff00ff;fill-opacity:1;stroke-width:1.17475688"
         id="rect539-9"
         width="256"
         height="128"
         x="0"
         y="0" />
    </clipPath>
  </defs>
  <sodipodi:namedview
     id="base"
     pagecolor="#ffffff"
     bordercolor="#666666"
     borderopacity="1.0"
     inkscape:pageopacity="0.0"
     inkscape:pageshadow="2"
     inkscape:zoom="2"
     inkscape:cx="63.603969"
     inkscape:cy="111.55758"
     inkscape:document-units="px"
     inkscape:current-layer="layer2"
     showgrid="false"
     inkscape:window-width="1836"
     inkscape:window-height="1016"
     inkscape:window-x="2004"
     inkscape:window-y="27"
     inkscape:window-maximized="1"
     inkscape:grid-bbox="true"
     inkscape:document-rotation="0" />
  <metadata
     id="metadata3888">
    <rdf:RDF>
      <cc:Work
         rdf:about="">
        <dc:format>image/svg+xml</dc:format>
        <dc:type
           rdf:resource="http://purl.org/dc/dcmitype/StillImage" />
        <dc:title />
      </cc:Work>
    </rdf:RDF>
  </metadata>
  <g
     style="display:inline"
     inkscape:label="Background"
     id="layer1"
     inkscape:groupmode="layer">
    <g
       style="display:inline;opacity:0.4"
       inkscape:label="Shadow"
       id="layer6"
       inkscape:groupmode="layer">
      <path
         d="M 127.7168,20 A 112,111.99996 0 0 0 16,132 112,111.99996 0 0 0 128,244 112,111.99996 0 0 0 240,132 112,111.99996 0 0 0 128,20 a 112,111.99996 0 0 0 -0.2832,0 z"
         style="display:inline;fill:#000000;fill-opacity:1;stroke-width:1.1823"
         id="circle1716" />
    </g>
    <g
       inkscape:groupmode="layer"
       id="layer2"
       inkscape:label="Colour"
       style="display:inline">
      <circle
         r="110.24995"
         style="fill:#00ffbe;fill-opacity:1;stroke-width:1.1823"
         id="path11"
         cx="127.99995"
         cy="127.99995" />
      <circle
         cy="128"
         cx="128"
         id="circle1176"
         style="display:inline;fill:#00ffff;fill-opacity:1;stroke-width:1.37269"
         r="128"
         clip-path="url(#clipPath1200)"
         transform="matrix(0.86132812,0,0,0.86132813,17.75,17.75)" />
      <path
         id="path357"
         style="display:inline;opacity:1;fill:#333333;stroke-width:0.100092"
         d="M 127.71631,16.00009 A 112,111.99996 0 0 0 16,128.00004 112,111.99996 0 0 0 128,240 112,111.99996 0 0 0 240,128.00004 112,111.99996 0 0 0 128,16.00009 a 112,111.99996 0 0 0 -0.28369,0 z M 128,37.875081 A 90.125,90.124965 0 0 1 218.125,128.00004 90.125,90.124965 0 0 1 128,218.12501 90.125,90.124965 0 0 1 37.875,128.00004 90.125,90.124965 0 0 1 128,37.875081 Z" />
    </g>
    <g
       inkscape:groupmode="layer"
       id="layer4"
       inkscape:label="Border"
       style="display:inline" />
    <g
       style="display:inline;opacity:0.1"
       inkscape:label="Highlight"
       id="layer5"
       inkscape:groupmode="layer">
      <path
         d="M 127.7168,16 A 112,111.99996 0 0 0 16,128 112,111.99996 0 0 0 16.017578,129.99414 112,111.99996 0 0 1 127.7168,20 112,111.99996 0 0 1 128,20 112,111.99996 0 0 1 239.98242,129.98828 112,111.99996 0 0 0 240,128 112,111.99996 0 0 0 128,16 a 112,111.99996 0 0 0 -0.2832,0 z"
         style="display:inline;fill:#ffffff;fill-opacity:1;stroke-width:1.1823"
         id="circle1726" />
    </g>
  </g>
  <g
     inkscape:groupmode="layer"
     id="layer3"
     inkscape:label="Invader"
     style="display:inline">
    <path
       id="rect112"
       style="opacity:0.93;fill:#000000;stroke-width:0.121473"
       d="m 82.0625,75.5 v 13.125 h 13.125 V 75.5 Z m 13.125,13.125 v 13.125 h -13.125 v 13.125 H 68.9375 V 128 h -13.125 v 13.125 13.125 13.125 h 13.125 V 154.25 141.125 h 13.125 v 13.125 13.125 h 13.125 V 154.25 h 65.625 v 13.125 h 13.125 V 154.25 141.125 h 13.125 v 13.125 13.125 h 13.125 V 154.25 141.125 128 h -13.125 v -13.125 h -13.125 V 101.75 h -13.125 V 88.625 h -13.125 v 13.125 h -39.375 V 88.625 Z m 65.625,0 h 13.125 V 75.5 h -13.125 z m 0,78.75 h -13.125 -13.125 V 180.5 h 13.125 13.125 z m -65.625,0 V 180.5 h 13.125 13.125 v -13.125 h -13.125 z" />
    <path
       id="rect131-7-93"
       style="display:inline;opacity:0.93;fill:#ffffff;stroke-width:0.0484639"
       d="M 95.1875,114.875 V 128 h 13.125 v -13.125 z m 52.5,0 V 128 h 13.125 v -13.125 z" />
  </g>
</svg>
