<?xml version="1.0" encoding="UTF-8" standalone="no"?>
<svg
   xmlns:dc="http://purl.org/dc/elements/1.1/"
   xmlns:cc="http://creativecommons.org/ns#"
   xmlns:rdf="http://www.w3.org/1999/02/22-rdf-syntax-ns#"
   xmlns:svg="http://www.w3.org/2000/svg"
   xmlns="http://www.w3.org/2000/svg"
   xmlns:sodipodi="http://sodipodi.sourceforge.net/DTD/sodipodi-0.dtd"
   xmlns:inkscape="http://www.inkscape.org/namespaces/inkscape"
   width="256"
   height="256"
   viewBox="0 0 67.73333 67.733335"
   version="1.1"
   id="svg8"
   inkscape:version="1.0 (4035a4fb49, 2020-05-01)"
   sodipodi:docname="steam.svg">
  <defs
     id="defs2" />
  <sodipodi:namedview
     id="base"
     pagecolor="#ffffff"
     bordercolor="#666666"
     borderopacity="1.0"
     inkscape:pageopacity="0.0"
     inkscape:pageshadow="2"
     inkscape:zoom="2.8284272"
     inkscape:cx="140.46769"
     inkscape:cy="121.58247"
     inkscape:document-units="px"
     inkscape:current-layer="g837"
     inkscape:document-rotation="0"
     showgrid="false"
     units="px"
     inkscape:window-width="1836"
     inkscape:window-height="1016"
     inkscape:window-x="2004"
     inkscape:window-y="27"
     inkscape:window-maximized="1" />
  <metadata
     id="metadata5">
    <rdf:RDF>
      <cc:Work
         rdf:about="">
        <dc:format>image/svg+xml</dc:format>
        <dc:type
           rdf:resource="http://purl.org/dc/dcmitype/StillImage" />
        <dc:title />
      </cc:Work>
    </rdf:RDF>
  </metadata>
  <g
     inkscape:label="Shadow"
     inkscape:groupmode="layer"
     id="g837"
     style="display:inline;mix-blend-mode:normal">
    <circle
       r="31.75"
       cy="34.792709"
       cx="33.866665"
       id="path861"
       style="opacity:1;fill:#1a1a1a;stroke-width:28.146;paint-order:stroke fill markers" />
  </g>
  <g
     style="display:inline;mix-blend-mode:normal"
     id="g47"
     inkscape:groupmode="layer"
     inkscape:label="Background">
    <path
       id="path45"
       style="mix-blend-mode:normal;fill:#153791;fill-opacity:1;stroke-width:0.0124541"
       d="M 33.866432,1.984375 A 31.882461,31.882315 0 0 0 2.0959962,31.199151 l 23.5481918,9.942811 c 2.508843,1.059321 3.696839,3.982437 2.663406,6.554127 -1.033432,2.571671 -3.885345,3.789384 -6.394188,2.730068 L 3.1729338,42.491493 A 31.882461,31.882315 0 0 0 33.866432,65.749005 31.882461,31.882315 0 0 0 65.749005,33.86669 31.882461,31.882315 0 0 0 33.866432,1.984375 Z" />
  </g>
  <g
     style="display:inline"
     inkscape:label="Graphic"
     id="layer2"
     inkscape:groupmode="layer">
    <g
       style="display:inline"
       inkscape:groupmode="layer"
       id="layer3"
       inkscape:label="Shadow">
      <path
         d="m 35.581574,3.0649297 a 31.882461,31.882315 0 0 1 0.159164,0.0062 31.882315,31.882315 0 0 0 -0.159164,-0.0062 z m -3.158724,0.039016 a 31.882315,31.882315 0 0 0 -0.09818,0.0062 31.882461,31.882315 0 0 1 0.09818,-0.0062 z m 3.988906,0.00258 a 31.882461,31.882315 0 0 1 0.151154,0.010077 31.882315,31.882315 0 0 0 -0.151154,-0.010077 z m -4.259432,0.015245 a 31.882315,31.882315 0 0 0 -0.172083,0.01266 31.882461,31.882315 0 0 1 0.172083,-0.01266 z m 5.087289,0.048059 a 31.882315,31.882315 0 0 1 0.08785,0.00801 31.882461,31.882315 0 0 0 -0.08785,-0.00801 z m -5.918506,0.021704 a 31.882461,31.882315 0 0 0 -0.148569,0.014728 31.882315,31.882315 0 0 1 0.148569,-0.014728 z m -0.355534,0.036432 a 31.882461,31.882315 0 0 0 -0.146244,0.016019 31.882315,31.882315 0 0 1 0.146244,-0.016019 z m 6.984333,0.013694 a 31.882315,31.882315 0 0 1 0.171567,0.019637 31.882461,31.882315 0 0 0 -0.171567,-0.019637 z m -7.37139,0.030489 a 31.882315,31.882315 0 0 0 -0.154512,0.01912 31.882461,31.882315 0 0 1 0.154512,-0.01912 z m -3.205491,0.5537176 a 31.882315,31.882315 0 0 0 -0.168207,0.038499 31.882461,31.882315 0 0 1 0.168207,-0.038499 z M 26.367918,4.070296 a 31.882461,31.882315 0 0 0 -0.167174,0.043666 31.882315,31.882315 0 0 1 0.167174,-0.043666 z m 16.304185,0.065371 a 31.882315,31.882315 0 0 1 0.08682,0.023513 31.882461,31.882315 0 0 0 -0.08682,-0.023513 z m 0.419612,0.1157553 a 31.882461,31.882315 0 0 1 0.330472,0.09586 31.882315,31.882315 0 0 0 -0.330472,-0.09586 z m 0.662492,0.1955954 a 31.882461,31.882315 0 0 1 0.164849,0.051418 31.882315,31.882315 0 0 0 -0.164849,-0.051418 z m 1.502753,0.5028122 a 31.882461,31.882315 0 0 1 0.162264,0.059427 31.882315,31.882315 0 0 0 -0.162264,-0.059427 z M 21.166681,5.9169543 a 31.882315,31.882315 0 0 0 -0.156838,0.072089 31.882461,31.882315 0 0 1 0.156838,-0.072089 z m 28.769067,1.1694384 a 31.882461,31.882315 0 0 1 0.122988,0.068988 31.882315,31.882315 0 0 0 -0.122988,-0.068988 z m 0.234608,0.1325501 a 31.882315,31.882315 0 0 1 0.149865,0.085783 31.882461,31.882315 0 0 0 -0.149865,-0.085783 z M 17.145735,8.1126875 a 31.882461,31.882315 0 0 0 -0.144952,0.093793 31.882315,31.882315 0 0 1 0.144952,-0.093793 z m -0.499453,0.3276287 a 31.882315,31.882315 0 0 0 -0.284221,0.1927535 31.882461,31.882315 0 0 1 0.284221,-0.1927535 z m 37.193107,1.2177555 a 31.882315,31.882315 0 0 1 0.12506,0.09664 31.882461,31.882315 0 0 0 -0.12506,-0.09664 z M 11.852256,12.380389 a 31.882315,31.882315 0 0 0 -0.11033,0.110846 31.882461,31.882315 0 0 1 0.11033,-0.110846 z m -0.29714,0.300757 a 31.882315,31.882315 0 0 0 -0.104386,0.107746 31.882461,31.882315 0 0 1 0.104386,-0.107746 z m 45.867261,0.193012 a 31.882315,31.882315 0 0 1 0.119115,0.125057 31.882461,31.882315 0 0 0 -0.119115,-0.125057 z m 0.119115,0.125057 a 31.882315,31.882315 0 0 1 0.1186,0.125573 31.882461,31.882315 0 0 0 -0.1186,-0.125573 z M 44.910727,14.552868 A 12.080464,12.080409 0 0 0 32.83032,26.633277 l -7.700313,11.20475 a 9.0914833,9.0914418 0 0 0 -0.130224,-0.0091 9.0914833,9.0914418 0 0 0 -0.05374,-0.0033 9.0914833,9.0914418 0 0 0 -0.302049,-0.01215 9.0914828,9.0914418 0 0 0 -0.0083,-2.64e-4 9.0914833,9.0914418 0 0 0 -0.06201,-10e-4 9.0914833,9.0914418 0 0 0 -0.08087,-10e-4 9.0914833,9.0914418 0 0 0 -0.0633,-2.65e-4 9.0914833,9.0914418 0 0 0 -0.05374,0 9.0914833,9.0914418 0 0 0 -4.986261,1.524973 L 2.6254217,32.257485 a 31.882315,31.882315 0 0 0 -0.1118796,2.667539 31.882315,31.882315 0 0 0 1.1888172,8.624803 l 11.7843027,4.989622 a 9.0914833,9.0914418 0 0 0 0.077,0.374912 9.0914833,9.0914418 0 0 0 0.03308,0.140044 9.0914828,9.0914418 0 0 0 0.0067,0.0279 9.0914833,9.0914418 0 0 0 0.0124,0.04987 9.0914828,9.0914418 0 0 0 0.0054,0.02067 9.0914833,9.0914418 0 0 0 0.01059,0.0416 9.0914833,9.0914418 0 0 0 0.08604,0.307733 9.0914833,9.0914418 0 0 0 0.01369,0.04574 9.0914833,9.0914418 0 0 0 0.01783,0.05736 9.0914833,9.0914418 0 0 0 0.02506,0.07932 9.0914833,9.0914418 0 0 0 0.196629,0.551131 9.0914828,9.0914418 0 0 0 0.02816,0.07002 9.0914833,9.0914418 0 0 0 0.0013,0.0033 9.0914828,9.0914418 0 0 0 0.0036,0.0085 9.0914833,9.0914418 0 0 0 0.02067,0.05064 9.0914828,9.0914418 0 0 0 0.0034,0.008 9.0914833,9.0914418 0 0 0 0.174408,0.395322 9.0914828,9.0914418 0 0 0 0.0018,0.004 9.0914833,9.0914418 0 0 0 0.152446,0.308255 9.0914828,9.0914418 0 0 0 0.01498,0.02895 9.0914833,9.0914418 0 0 0 0.0509,0.09586 9.0914828,9.0914418 0 0 0 0.01111,0.0204 9.0914833,9.0914418 0 0 0 0.0075,0.01395 9.0914828,9.0914418 0 0 0 0.01679,0.031 9.0914833,9.0914418 0 0 0 0.228411,0.392995 9.0914828,9.0914418 0 0 0 0.01473,0.0238 9.0914833,9.0914418 0 0 0 0.02635,0.04235 9.0914828,9.0914418 0 0 0 0.0013,0.002 9.0914833,9.0914418 0 0 0 0.105937,0.165105 9.0914828,9.0914418 0 0 0 0.01705,0.0253 9.0914833,9.0914418 0 0 0 0.01472,0.0225 9.0914828,9.0914418 0 0 0 0.0052,0.0075 9.0914833,9.0914418 0 0 0 0.107745,0.15787 9.0914833,9.0914418 0 0 0 0.05607,0.07906 9.0914828,9.0914418 0 0 0 0.0018,0.0025 9.0914833,9.0914418 0 0 0 0.0832,0.114205 9.0914833,9.0914418 0 0 0 0.04031,0.05426 9.0914828,9.0914418 0 0 0 0.0057,0.0075 9.0914833,9.0914418 0 0 0 0.0026,0.0035 9.0914828,9.0914418 0 0 0 0.0047,0.0062 9.0914833,9.0914418 0 0 0 0.01938,0.0256 9.0914828,9.0914418 0 0 0 0.01886,0.0248 9.0914833,9.0914418 0 0 0 0.03798,0.0491 9.0914828,9.0914418 0 0 0 0.0062,0.0078 9.0914828,9.0914418 0 0 0 0.03617,0.04625 9.0914833,9.0914418 0 0 0 0.04108,0.05194 9.0914828,9.0914418 0 0 0 0.01293,0.01575 9.0914833,9.0914418 0 0 0 0.03643,0.0452 9.0914828,9.0914418 0 0 0 0.0026,0.003 9.0914833,9.0914418 0 0 0 0.02868,0.0349 9.0914833,9.0914418 0 0 0 0.01215,0.015 9.0914828,9.0914418 0 0 0 0.0054,0.0064 9.0914833,9.0914418 0 0 0 0.07545,0.08966 9.0914828,9.0914418 0 0 0 0.01188,0.0142 9.0914833,9.0914418 0 0 0 1.099675,1.084431 9.0914828,9.0914418 0 0 0 0.02739,0.02275 9.0914833,9.0914418 0 0 0 0.46948,0.361995 9.0914833,9.0914418 0 0 0 0.202831,0.14185 9.0914833,9.0914418 0 0 0 0.231251,0.152185 9.0914833,9.0914418 0 0 0 0.235645,0.144955 9.0914828,9.0914418 0 0 0 0.06511,0.03825 9.0914833,9.0914418 0 0 0 0.174925,0.09947 9.0914833,9.0914418 0 0 0 0.632003,0.318331 9.0914828,9.0914418 0 0 0 0.01861,0.0085 9.0914833,9.0914418 0 0 0 0.01163,0.0052 9.0914833,9.0914418 0 0 0 3.741892,0.805895 9.0914833,9.0914418 0 0 0 3.651202,-0.76533 9.0914833,9.0914418 0 0 0 0.438733,-0.206706 9.0914833,9.0914418 0 0 0 0.08216,-0.04185 9.0914833,9.0914418 0 0 0 0.219626,-0.117045 9.0914828,9.0914418 0 0 0 0.01499,-0.0082 9.0914828,9.0914418 0 0 0 0.0093,-0.0052 9.0914833,9.0914418 0 0 0 0.390157,-0.229705 9.0914828,9.0914418 0 0 0 0.007,-0.0045 9.0914833,9.0914418 0 0 0 0.535109,-0.36096 9.0914833,9.0914418 0 0 0 0.291972,-0.221435 9.0914828,9.0914418 0 0 0 0.0018,-0.0015 9.0914833,9.0914418 0 0 0 0.214199,-0.174925 9.0914833,9.0914418 0 0 0 0.209032,-0.181386 9.0914833,9.0914418 0 0 0 0.384215,-0.364835 9.0914828,9.0914418 0 0 0 0.01653,-0.0168 9.0914833,9.0914418 0 0 0 0.177249,-0.184485 9.0914828,9.0914418 0 0 0 0.0075,-0.008 9.0914828,9.0914418 0 0 0 0.0067,-0.0072 9.0914833,9.0914418 0 0 0 0.124024,-0.13617 9.0914833,9.0914418 0 0 0 0.118599,-0.13539 9.0914833,9.0914418 0 0 0 0.08759,-0.10387 9.0914828,9.0914418 0 0 0 0.0106,-0.01295 9.0914833,9.0914418 0 0 0 0.04212,-0.05116 9.0914833,9.0914418 0 0 0 0.459146,-0.612626 9.0914833,9.0914418 0 0 0 0.367937,-0.583425 9.0914828,9.0914418 0 0 0 0.01395,-0.0243 9.0914833,9.0914418 0 0 0 0.336673,-0.643371 9.0914828,9.0914418 0 0 0 0.0279,-0.05943 9.0914833,9.0914418 0 0 0 0.023,-0.05013 9.0914828,9.0914418 0 0 0 0.01344,-0.02945 9.0914828,9.0914418 0 0 0 0.0018,-0.004 9.0914833,9.0914418 0 0 0 0.077,-0.175183 9.0914833,9.0914418 0 0 0 0.31135,-0.842068 9.0914828,9.0914418 0 0 0 2.64e-4,-5.5e-4 9.0914828,9.0914418 0 0 0 0.0049,-0.01576 9.0914833,9.0914418 0 0 0 0.07235,-0.24417 9.0914833,9.0914418 0 0 0 0.01705,-0.06098 9.0914833,9.0914418 0 0 0 0.04057,-0.152962 9.0914828,9.0914418 0 0 0 0.0057,-0.02222 9.0914833,9.0914418 0 0 0 0.278019,-2.231131 9.0914833,9.0914418 0 0 0 -2.64e-4,-0.0987 l 11.390003,-8.09025 A 12.080464,12.080409 0 0 0 56.991206,26.633268 12.080464,12.080409 0 0 0 44.910795,14.552859 Z M 3.7023593,43.549827 h -2.646e-4 a 31.882461,31.882315 0 0 0 0.019896,0.06976 31.882315,31.882315 0 0 1 -0.019637,-0.06976 z M 2.6254217,32.257485 a 31.882315,31.882315 0 0 1 0.00749,-0.09069 31.882461,31.882315 0 0 0 -0.00775,0.09069 z M 9.3307021,15.221562 a 31.882315,31.882315 0 0 0 -0.106195,0.136166 31.882461,31.882315 0 0 1 0.106195,-0.136166 z m 35.5585789,3.192054 a 8.2196972,8.2196602 0 0 1 0.02144,0 8.2196972,8.2196602 0 0 1 8.219662,8.219661 8.2196972,8.2196602 0 0 1 -8.219661,8.219659 8.2196972,8.2196602 0 0 1 -8.219659,-8.219659 8.2196972,8.2196602 0 0 1 8.198213,-8.219661 z M 6.9000997,18.785946 A 31.882461,31.882315 0 0 0 6.7277586,19.083343 31.882315,31.882315 0 0 1 6.9000997,18.785946 Z M 62.19031,19.306328 a 31.882315,31.882315 0 0 1 0.0442,0.07881 31.882461,31.882315 0 0 0 -0.0442,-0.07881 z m 0.37362,0.684455 a 31.882315,31.882315 0 0 1 0.08062,0.152703 31.882461,31.882315 0 0 0 -0.08062,-0.152703 z m -17.665347,0.415478 a 6.2270437,6.2270152 0 0 0 -6.21487,6.227016 6.2270437,6.2270152 0 0 0 6.227014,6.227014 6.2270437,6.2270152 0 0 0 6.22702,-6.227014 6.2270437,6.2270152 0 0 0 -6.22702,-6.227016 6.2270437,6.2270152 0 0 0 -0.01214,0 z m 18.915143,2.228032 a 31.882315,31.882315 0 0 1 0.06614,0.159422 31.882461,31.882315 0 0 0 -0.06614,-0.159422 z M 4.7932496,23.085429 a 31.882461,31.882315 0 0 0 -0.06227,0.157096 31.882315,31.882315 0 0 1 0.06227,-0.157096 z m 59.4780724,0.707192 a 31.882315,31.882315 0 0 1 0.05555,0.150121 31.882461,31.882315 0 0 0 -0.05555,-0.150121 z m -59.8026006,0.13901 a 31.882315,31.882315 0 0 0 -0.058911,0.162263 31.882461,31.882315 0 0 1 0.058911,-0.162263 z m 60.6929856,2.630332 a 31.882461,31.882315 0 0 1 0.0297,0.109812 31.882315,31.882315 0 0 0 -0.0297,-0.109812 z m 0.101286,0.382406 a 31.882461,31.882315 0 0 1 0.03825,0.149344 31.882315,31.882315 0 0 0 -0.03825,-0.149344 z m 0.0473,0.185518 a 31.882461,31.882315 0 0 1 0.0297,0.118598 31.882315,31.882315 0 0 0 -0.0297,-0.118598 z M 2.8282518,30.456043 a 31.882315,31.882315 0 0 0 -0.045733,0.335897 31.882461,31.882315 0 0 1 0.045733,-0.335897 z m 63.2465762,0.875141 a 31.882461,31.882315 0 0 1 0.01655,0.148053 31.882315,31.882315 0 0 0 -0.01655,-0.148053 z m 0.06822,0.662234 a 31.882461,31.882315 0 0 1 0.008,0.08785 31.882315,31.882315 0 0 0 -0.008,-0.08785 z m 0.06123,0.764554 a 31.882461,31.882315 0 0 1 0.0101,0.151153 31.882315,31.882315 0 0 0 -0.0101,-0.151153 z m 0.02945,0.486275 a 31.882461,31.882315 0 0 1 0.0085,0.1726 31.882315,31.882315 0 0 0 -0.0085,-0.1726 z m 0.016,0.337447 a 31.882461,31.882315 0 0 1 0.0067,0.1726 31.882315,31.882315 0 0 0 -0.0067,-0.1726 z m -0.0088,2.879156 a 31.882461,31.882315 0 0 1 -0.0075,0.151928 31.882315,31.882315 0 0 0 0.0075,-0.151928 z m -0.02275,0.415736 a 31.882315,31.882315 0 0 1 -0.0111,0.172341 31.882461,31.882315 0 0 0 0.0111,-0.172341 z m -0.0111,0.172341 a 31.882315,31.882315 0 0 1 -0.0093,0.133068 31.882461,31.882315 0 0 0 0.0093,-0.133068 z m -0.134875,1.493709 a 31.882461,31.882315 0 0 1 -0.02015,0.171566 31.882315,31.882315 0 0 0 0.02015,-0.171566 z m -0.03615,0.303082 a 31.882315,31.882315 0 0 1 -0.01785,0.141335 31.882461,31.882315 0 0 0 0.01785,-0.141335 z m -0.01785,0.141335 a 31.882315,31.882315 0 0 1 -0.0225,0.171308 31.882461,31.882315 0 0 0 0.0225,-0.171308 z m -0.06485,0.475682 a 31.882461,31.882315 0 0 1 -0.0212,0.144177 31.882315,31.882315 0 0 0 0.0212,-0.144177 z m -0.0367,0.247014 a 31.882315,31.882315 0 0 1 -0.02505,0.163039 31.882461,31.882315 0 0 0 0.02505,-0.163039 z m -0.02505,0.163039 a 31.882315,31.882315 0 0 1 -0.0271,0.170532 31.882461,31.882315 0 0 0 0.0271,-0.170532 z m -41.503441,0.179835 a 6.8497477,6.8497167 0 0 1 0.04134,0 6.8497477,6.8497167 0 0 1 3.858165,1.189851 6.8497477,6.8497167 0 0 1 0.05297,0.03643 6.8497472,6.8497167 0 0 1 0.01291,0.009 6.8497477,6.8497167 0 0 1 0.05245,0.03695 6.8497472,6.8497167 0 0 1 0.01292,0.0093 6.8497477,6.8497167 0 0 1 0.05194,0.03773 6.8497472,6.8497167 0 0 1 0.01266,0.0093 6.8497477,6.8497167 0 0 1 0.05168,0.03824 6.8497472,6.8497167 0 0 1 0.01266,0.0096 6.8497477,6.8497167 0 0 1 0.0036,0.0026 6.8497472,6.8497167 0 0 1 0.05994,0.04599 6.8497477,6.8497167 0 0 1 0.0509,0.03928 6.8497472,6.8497167 0 0 1 0.0124,0.0098 6.8497477,6.8497167 0 0 1 0.05012,0.04005 6.8497472,6.8497167 0 0 1 0.0124,0.01008 6.8497472,6.8497167 0 0 1 0.06175,0.05064 6.8497477,6.8497167 0 0 1 0.04935,0.04109 6.8497472,6.8497167 0 0 1 0.01214,0.01033 6.8497477,6.8497167 0 0 1 0.0011,8e-4 6.8497472,6.8497167 0 0 1 0.05969,0.05142 6.8497472,6.8497167 0 0 1 0.05994,0.05271 6.8497477,6.8497167 0 0 1 0.04806,0.04289 6.8497472,6.8497167 0 0 1 0.01163,0.01059 6.8497477,6.8497167 0 0 1 0.04728,0.04341 6.8497472,6.8497167 0 0 1 0.01163,0.01085 6.8497477,6.8497167 0 0 1 0.0065,0.0059 6.8497472,6.8497167 0 0 1 0.05168,0.04909 6.8497477,6.8497167 0 0 1 0.04625,0.04444 6.8497472,6.8497167 0 0 1 0.01137,0.01111 6.8497477,6.8497167 0 0 1 0.0059,0.0057 6.8497472,6.8497167 0 0 1 0.0509,0.05064 6.8497477,6.8497167 0 0 1 0.04521,0.04548 6.8497472,6.8497167 0 0 1 0.01111,0.01136 6.8497477,6.8497167 0 0 1 0.0054,0.0054 6.8497472,6.8497167 0 0 1 0.05013,0.05219 6.8497477,6.8497167 0 0 1 0.04418,0.04651 6.8497472,6.8497167 0 0 1 0.01085,0.01163 6.8497477,6.8497167 0 0 1 0.0049,0.0052 6.8497472,6.8497167 0 0 1 0.04935,0.05374 6.8497472,6.8497167 0 0 1 0.05349,0.05943 6.8497472,6.8497167 0 0 1 0.05297,0.0602 6.8497472,6.8497167 0 0 1 0.05193,0.06072 6.8497472,6.8497167 0 0 1 0.102319,0.123249 6.8497472,6.8497167 0 0 1 0.04987,0.06253 6.8497472,6.8497167 0 0 1 0.04935,0.06305 6.8497472,6.8497167 0 0 1 0.04857,0.06382 6.8497472,6.8497167 0 0 1 0.09457,0.128932 6.8497472,6.8497167 0 0 1 0.09173,0.131258 6.8497472,6.8497167 0 0 1 0.215749,0.336931 6.8497472,6.8497167 0 0 1 0.04082,0.06899 6.8497472,6.8497167 0 0 1 0.0075,0.01317 l 8e-4,8e-4 a 6.8497477,6.8497167 0 0 1 0.926042,3.439327 6.8497477,6.8497167 0 0 1 -6.849642,6.84967 6.8497477,6.8497167 0 0 1 -6.263964,-4.078564 l 4.277003,1.811002 c 0.326763,0.13797 0.659339,0.23645 0.992964,0.29921 a 4.9816345,4.9816119 0 0 0 0.994256,0.09999 4.9816345,4.9816119 0 0 0 4.981612,-4.981612 4.9816345,4.9816119 0 0 0 -2.601395,-4.375963 C 26.60851,42.403986 26.396475,42.29445 26.173407,42.200263 l -4.098201,-1.730386 a 6.8497477,6.8497167 0 0 1 2.313037,-0.417287 z m 40.948696,2.561343 a 31.882461,31.882315 0 0 1 -0.0421,0.16769 31.882315,31.882315 0 0 0 0.0421,-0.16769 z m -0.0421,0.16769 a 31.882461,31.882315 0 0 1 -0.0429,0.167173 31.882315,31.882315 0 0 0 0.0429,-0.167173 z M 3.8256077,43.97745 a 31.882461,31.882315 0 0 0 0.039016,0.130742 31.882315,31.882315 0 0 1 -0.039016,-0.130742 z m 0.4780073,1.480531 a 31.882461,31.882315 0 0 0 0.047543,0.134617 31.882315,31.882315 0 0 1 -0.047543,-0.134617 z m 59.833087,0.954723 a 31.882461,31.882315 0 0 1 -0.06149,0.157613 31.882315,31.882315 0 0 0 0.06149,-0.157613 z m -59.4431879,0.09922 a 31.882315,31.882315 0 0 0 0.041082,0.104644 31.882461,31.882315 0 0 1 -0.041082,-0.104644 z m 0.3216857,0.793233 a 31.882315,31.882315 0 0 0 0.045475,0.10697 31.882461,31.882315 0 0 1 -0.045475,-0.10697 z m 1.2118139,2.553077 a 31.882315,31.882315 0 0 0 0.08139,0.152445 31.882461,31.882315 0 0 1 -0.08139,-0.152445 z M 62.23449,50.464916 a 31.882461,31.882315 0 0 1 -0.0442,0.07881 31.882315,31.882315 0 0 0 0.0442,-0.07881 z m -44.491116,2.598035 a 9.0914828,9.0914418 0 0 0 0.05142,0.0553 9.0914828,9.0914418 0 0 1 -0.05142,-0.0553 z m 13.280594,0.09844 a 9.0914828,9.0914418 0 0 1 -0.05297,0.05504 9.0914828,9.0914418 0 0 0 0.05297,-0.05504 z m -0.280862,0.282925 a 9.0914828,9.0914418 0 0 1 -0.05555,0.05349 9.0914828,9.0914418 0 0 0 0.05555,-0.05349 z m -0.329179,0.30257 a 9.0914828,9.0914418 0 0 1 -0.06589,0.05684 9.0914828,9.0914418 0 0 0 0.06589,-0.05684 z m -11.650719,0.265356 a 9.0914828,9.0914418 0 0 0 0.04651,0.03695 9.0914828,9.0914418 0 0 1 -0.04651,-0.03695 z m 0.0987,0.07752 a 9.0914828,9.0914418 0 0 0 0.06201,0.0478 9.0914828,9.0914418 0 0 1 -0.06201,-0.0478 z m 11.065483,0.05374 a 9.0914828,9.0914418 0 0 1 -0.05478,0.0411 9.0914828,9.0914418 0 0 0 0.05478,-0.0411 z m -0.172599,0.12764 a 9.0914828,9.0914418 0 0 1 -0.07131,0.05116 9.0914828,9.0914418 0 0 0 0.07131,-0.05116 z m -0.566892,0.37827 a 9.0914828,9.0914418 0 0 1 -0.05891,0.0359 9.0914828,9.0914418 0 0 0 0.05891,-0.0359 z m -0.744916,0.41083 a 9.0914828,9.0914418 0 0 1 -0.06615,0.03205 9.0914828,9.0914418 0 0 0 0.06615,-0.03205 z m -7.658452,0.171306 a 9.0914828,9.0914418 0 0 0 0.05762,0.02505 9.0914828,9.0914418 0 0 1 -0.05762,-0.02505 z m 0.111104,0.04755 a 9.0914828,9.0914418 0 0 0 0.06589,0.0279 9.0914828,9.0914418 0 0 1 -0.06589,-0.0279 z m 0.502296,0.19482 a 9.0914828,9.0914418 0 0 0 0.0664,0.02325 9.0914828,9.0914418 0 0 1 -0.0664,-0.02325 z m 5.898868,0.05633 a 9.0914828,9.0914418 0 0 1 -0.07131,0.0235 9.0914828,9.0914418 0 0 0 0.07131,-0.0235 z m -17.198187,0.03775 a 31.882461,31.882315 0 0 0 0.102578,0.12015 31.882315,31.882315 0 0 1 -0.102578,-0.12015 z m 11.656403,0.02405 a 9.0914828,9.0914418 0 0 0 0.05142,0.0155 9.0914828,9.0914418 0 0 1 -0.05142,-0.0155 z m 0.169499,0.05038 a 9.0914828,9.0914418 0 0 0 0.06253,0.01785 9.0914828,9.0914418 0 0 1 -0.06253,-0.01785 z m 0.424522,0.110585 a 9.0914828,9.0914418 0 0 0 0.06485,0.01525 9.0914828,9.0914418 0 0 1 -0.06485,-0.01525 z m 0.162263,0.0367 a 9.0914828,9.0914418 0 0 0 0.08527,0.01785 9.0914828,9.0914418 0 0 1 -0.08527,-0.01785 z m 0.140302,0.0292 a 9.0914828,9.0914418 0 0 0 0.08604,0.0163 9.0914828,9.0914418 0 0 1 -0.08604,-0.0163 z m 3.372666,0.03435 a 9.0914828,9.0914418 0 0 1 -0.06563,0.01165 9.0914828,9.0914418 0 0 0 0.06563,-0.01165 z m -3.184822,0.001 a 9.0914828,9.0914418 0 0 0 0.0633,0.0111 9.0914828,9.0914418 0 0 1 -0.0633,-0.0111 z m 3.067515,0.0191 a 9.0914828,9.0914418 0 0 1 -0.08449,0.01345 9.0914828,9.0914418 0 0 0 0.08449,-0.01345 z m -0.140042,0.02195 a 9.0914828,9.0914418 0 0 1 -0.07441,0.0111 9.0914828,9.0914418 0 0 0 0.07441,-0.0111 z m -2.529305,0.0204 a 9.0914828,9.0914418 0 0 0 0.06201,0.008 9.0914828,9.0914418 0 0 1 -0.06201,-0.008 z m 0.339514,0.0385 a 9.0914828,9.0914418 0 0 0 0.08268,0.0075 9.0914828,9.0914418 0 0 1 -0.08268,-0.0075 z m -13.142618,0.0025 a 31.882461,31.882315 0 0 0 0.114205,0.12945 31.882315,31.882315 0 0 1 -0.114205,-0.12945 z m 13.229176,0.0052 a 9.0914828,9.0914418 0 0 0 0.07493,0.0057 9.0914828,9.0914418 0 0 1 -0.07493,-0.0057 z m 0.195596,0.0142 a 9.0914828,9.0914418 0 0 0 0.06615,0.004 9.0914828,9.0914418 0 0 1 -0.06615,-0.004 z m 0.784707,0.0155 a 9.0914828,9.0914418 0 0 1 -0.07028,0.0015 9.0914828,9.0914418 0 0 0 0.07028,-0.0015 z m -0.428139,2.65e-4 a 9.0914828,9.0914418 0 0 0 0.07002,0.0015 9.0914828,9.0914418 0 0 1 -0.07002,-0.0015 z m 0.07131,0.0015 a 9.0914828,9.0914418 0 0 0 0.07958,10e-4 9.0914828,9.0914418 0 0 1 -0.07958,-10e-4 z m 32.774256,1.353666 a 31.882315,31.882315 0 0 1 -0.12196,0.122475 31.882461,31.882315 0 0 0 0.12196,-0.122475 z m -45.081261,0.249859 a 31.882461,31.882315 0 0 0 0.09715,0.0956 31.882315,31.882315 0 0 1 -0.09715,-0.0956 z m 0.571542,0.551131 a 31.882315,31.882315 0 0 0 0.08785,0.08216 31.882461,31.882315 0 0 1 -0.08785,-0.08216 z m 0.179059,0.167175 a 31.882461,31.882315 0 0 0 0.10852,0.09999 31.882315,31.882315 0 0 1 -0.10852,-0.09999 z m 1.024486,0.908731 a 31.882461,31.882315 0 0 0 0.131775,0.11136 31.882315,31.882315 0 0 1 -0.131775,-0.11136 z m 0.292489,0.24546 a 31.882461,31.882315 0 0 0 0.09508,0.07855 31.882315,31.882315 0 0 1 -0.09508,-0.07855 z m 0.508754,0.412895 a 31.882461,31.882315 0 0 0 0.11653,0.0925 31.882315,31.882315 0 0 1 -0.11653,-0.0925 z m 0.975394,0.745176 a 31.882461,31.882315 0 0 0 0.102578,0.07519 31.882315,31.882315 0 0 1 -0.102578,-0.07519 z m 37.323594,0.29197 a 31.882461,31.882315 0 0 1 -0.1248,0.08811 31.882315,31.882315 0 0 0 0.1248,-0.08811 z m -36.627512,0.20464 a 31.882461,31.882315 0 0 0 0.125057,0.0863 31.882315,31.882315 0 0 1 -0.125057,-0.0863 z m 0.714169,0.481365 a 31.882461,31.882315 0 0 0 0.137201,0.08915 31.882315,31.882315 0 0 1 -0.137201,-0.08915 z m 0.444417,0.285256 a 31.882461,31.882315 0 0 0 0.120148,0.0757 31.882315,31.882315 0 0 1 -0.120148,-0.0757 z m 0.276986,0.17286 a 31.882461,31.882315 0 0 0 0.140043,0.08604 31.882315,31.882315 0 0 1 -0.140043,-0.08604 z m 1.807643,1.034821 a 31.882461,31.882315 0 0 0 0.141077,0.07416 31.882315,31.882315 0 0 1 -0.141077,-0.07416 z m 29.394869,0.2359 a 31.882315,31.882315 0 0 1 -0.304375,0.152965 31.882461,31.882315 0 0 0 0.304375,-0.152965 z m -28.462883,0.23797 a 31.882461,31.882315 0 0 0 0.129191,0.06305 31.882315,31.882315 0 0 1 -0.129191,-0.06305 z m 0.304115,0.146765 a 31.882461,31.882315 0 0 0 0.11834,0.05606 31.882315,31.882315 0 0 1 -0.11834,-0.05606 z m 0.550872,0.25554 a 31.882315,31.882315 0 0 0 0.117305,0.05271 31.882461,31.882315 0 0 1 -0.117305,-0.05271 z m 0.54312,0.23952 a 31.882461,31.882315 0 0 0 0.154511,0.06588 31.882315,31.882315 0 0 1 -0.154511,-0.06588 z m 0.261483,0.1111 a 31.882315,31.882315 0 0 0 0.126089,0.05246 31.882461,31.882315 0 0 1 -0.126089,-0.05246 z m 0.329436,0.135911 a 31.882315,31.882315 0 0 0 0.09173,0.0372 31.882461,31.882315 0 0 1 -0.09173,-0.0372 z m 0.729413,0.28603 a 31.882461,31.882315 0 0 0 0.108522,0.0408 31.882315,31.882315 0 0 1 -0.108522,-0.0408 z m 1.681553,0.58265 a 31.882315,31.882315 0 0 0 0.139785,0.04395 31.882461,31.882315 0 0 1 -0.139785,-0.04395 z m 0.27492,0.08553 a 31.882461,31.882315 0 0 0 0.103093,0.03125 31.882315,31.882315 0 0 1 -0.103093,-0.03125 z m 0.399717,0.119115 a 31.882315,31.882315 0 0 0 0.112396,0.03255 31.882461,31.882315 0 0 1 -0.112396,-0.03255 z m 0.246754,0.0708 a 31.882461,31.882315 0 0 0 0.127642,0.0359 31.882315,31.882315 0 0 1 -0.127642,-0.0359 z m 17.141086,0.05633 a 31.882461,31.882315 0 0 1 -0.127899,0.0349 31.882315,31.882315 0 0 0 0.127899,-0.0349 z m -16.728448,0.05736 a 31.882315,31.882315 0 0 0 0.12454,0.0331 31.882461,31.882315 0 0 1 -0.12454,-0.0331 z m 0.683938,0.175186 a 31.882315,31.882315 0 0 0 0.101544,0.0248 31.882461,31.882315 0 0 1 -0.101544,-0.0248 z m 0.750859,0.17415 a 31.882461,31.882315 0 0 0 0.128673,0.02815 31.882315,31.882315 0 0 1 -0.128673,-0.02815 z m 12.276779,0.269235 a 31.882315,31.882315 0 0 1 -0.149862,0.0253 31.882461,31.882315 0 0 0 0.149862,-0.0253 z m -0.530718,0.08733 a 31.882315,31.882315 0 0 1 -0.100769,0.0155 31.882461,31.882315 0 0 0 0.100769,-0.0155 z m -0.100769,0.0155 a 31.882461,31.882315 0 0 1 -0.103869,0.01575 31.882315,31.882315 0 0 0 0.103869,-0.01575 z M 38.11398,66.58965 a 31.882315,31.882315 0 0 1 -0.100769,0.01165 31.882461,31.882315 0 0 0 0.100769,-0.01165 z m -7.223854,0.02425 a 31.882315,31.882315 0 0 0 0.120664,0.01295 31.882461,31.882315 0 0 1 -0.120664,-0.01295 z m 0.339515,0.03565 a 31.882315,31.882315 0 0 0 0.122473,0.0119 31.882461,31.882315 0 0 1 -0.122473,-0.0119 z m 5.422928,0.07726 a 31.882315,31.882315 0 0 1 -0.133068,0.0093 31.882461,31.882315 0 0 0 0.133068,-0.0093 z m -0.133068,0.0093 a 31.882315,31.882315 0 0 1 -0.17234,0.0111 31.882461,31.882315 0 0 0 0.17234,-0.0111 z m -0.440799,0.02635 a 31.882461,31.882315 0 0 1 -0.172599,0.0085 31.882315,31.882315 0 0 0 0.172599,-0.0085 z m -3.226421,0.0072 a 31.882461,31.882315 0 0 0 0.149862,0.007 31.882315,31.882315 0 0 1 -0.149862,-0.007 z m 0.290681,0.01265 a 31.882315,31.882315 0 0 0 0.1341,0.0051 31.882461,31.882315 0 0 1 -0.1341,-0.0051 z m 2.467034,0.0015 a 31.882315,31.882315 0 0 1 -0.148569,0.0054 31.882461,31.882315 0 0 0 0.148569,-0.0054 z m -2.317431,0.004 a 31.882315,31.882315 0 0 0 0.133326,0.0045 31.882461,31.882315 0 0 1 -0.133326,-0.0045 z m 0.276986,0.0082 a 31.882461,31.882315 0 0 0 0.12609,0.003 31.882315,31.882315 0 0 1 -0.12609,-0.003 z m 0.681095,0.01035 a 31.882461,31.882315 0 0 0 0.144954,5e-4 31.882315,31.882315 0 0 1 -0.144954,-5e-4 z"
         style="display:inline;fill:#000000;stroke-width:0.0367012;opacity:0.4"
         id="path844" />
    </g>
    <path
       id="path31"
       style="fill:#ffffff;stroke-width:0.0367012"
       d="m 35.052406,2.0065959 a 31.882461,31.882315 0 0 1 0.159165,0.0062 31.882315,31.882315 0 0 0 -0.159165,-0.0062 z m -3.158724,0.039016 a 31.882315,31.882315 0 0 0 -0.09819,0.0062 31.882461,31.882315 0 0 1 0.09819,-0.0062 z m 3.988907,0.00258 a 31.882461,31.882315 0 0 1 0.151154,0.010077 31.882315,31.882315 0 0 0 -0.151154,-0.010077 z m -4.259432,0.015244 a 31.882315,31.882315 0 0 0 -0.172084,0.01266 31.882461,31.882315 0 0 1 0.172084,-0.01266 z m 5.087289,0.048059 a 31.882315,31.882315 0 0 1 0.08785,0.00801 31.882461,31.882315 0 0 0 -0.08785,-0.00801 z m -5.918506,0.021704 a 31.882461,31.882315 0 0 0 -0.14857,0.014728 31.882315,31.882315 0 0 1 0.14857,-0.014728 z m -0.355535,0.036437 a 31.882461,31.882315 0 0 0 -0.146244,0.01602 31.882315,31.882315 0 0 1 0.146244,-0.01602 z m 6.984334,0.013694 a 31.882315,31.882315 0 0 1 0.171566,0.019637 31.882461,31.882315 0 0 0 -0.171566,-0.019637 z m -7.37139,0.030489 a 31.882315,31.882315 0 0 0 -0.154513,0.01912 31.882461,31.882315 0 0 1 0.154513,-0.01912 z m -3.205492,0.5537134 a 31.882315,31.882315 0 0 0 -0.168206,0.038499 31.882461,31.882315 0 0 1 0.168206,-0.038499 z m -1.005106,0.2444296 a 31.882461,31.882315 0 0 0 -0.167175,0.043667 31.882315,31.882315 0 0 1 0.167175,-0.043667 z m 16.304185,0.065371 a 31.882315,31.882315 0 0 1 0.08682,0.023513 31.882461,31.882315 0 0 0 -0.08682,-0.023513 z m 0.419612,0.1157553 a 31.882461,31.882315 0 0 1 0.330471,0.095859 31.882315,31.882315 0 0 0 -0.330471,-0.09586 z m 0.662492,0.1955954 a 31.882461,31.882315 0 0 1 0.164849,0.051418 31.882315,31.882315 0 0 0 -0.164849,-0.051418 z M 44.727792,3.891496 A 31.882461,31.882315 0 0 1 44.890056,3.950923 31.882315,31.882315 0 0 0 44.727792,3.891496 Z M 20.637513,4.8586203 a 31.882315,31.882315 0 0 0 -0.156838,0.072089 31.882461,31.882315 0 0 1 0.156838,-0.072089 z M 49.40658,6.0280586 a 31.882461,31.882315 0 0 1 0.122989,0.068989 31.882315,31.882315 0 0 0 -0.122989,-0.068989 z m 0.23461,0.1325501 a 31.882315,31.882315 0 0 1 0.149862,0.085783 31.882461,31.882315 0 0 0 -0.149862,-0.085783 z M 16.616567,7.0543534 a 31.882461,31.882315 0 0 0 -0.144952,0.093793 31.882315,31.882315 0 0 1 0.144952,-0.093793 z M 16.117115,7.3819821 A 31.882315,31.882315 0 0 0 15.832894,7.5747358 31.882461,31.882315 0 0 1 16.117115,7.3819821 Z M 53.310219,8.599738 a 31.882315,31.882315 0 0 1 0.125055,0.09664 31.882461,31.882315 0 0 0 -0.125055,-0.09664 z m -41.987131,2.722316 a 31.882315,31.882315 0 0 0 -0.110329,0.110847 31.882461,31.882315 0 0 1 0.110329,-0.110847 z m -0.29714,0.300758 a 31.882315,31.882315 0 0 0 -0.104386,0.107745 31.882461,31.882315 0 0 1 0.104386,-0.107745 z m 45.867258,0.193011 a 31.882315,31.882315 0 0 1 0.119115,0.125057 31.882461,31.882315 0 0 0 -0.119115,-0.125057 z m 0.119115,0.125057 a 31.882315,31.882315 0 0 1 0.118595,0.125575 31.882461,31.882315 0 0 0 -0.118595,-0.125575 z M 44.38156,13.494534 A 12.080464,12.080409 0 0 0 32.301152,25.574943 l -7.700312,11.20475 a 9.0914833,9.0914418 0 0 0 -0.130224,-0.0091 9.0914833,9.0914418 0 0 0 -0.05374,-0.0033 9.0914833,9.0914418 0 0 0 -0.302048,-0.01215 9.0914828,9.0914418 0 0 0 -0.0083,-2.65e-4 9.0914833,9.0914418 0 0 0 -0.06201,-10e-4 9.0914833,9.0914418 0 0 0 -0.08087,-10e-4 9.0914833,9.0914418 0 0 0 -0.0633,-2.64e-4 9.0914833,9.0914418 0 0 0 -0.05374,0 9.0914833,9.0914418 0 0 0 -4.986262,1.524973 L 2.0962545,31.199151 A 31.882315,31.882315 0 0 0 1.984375,33.86669 31.882315,31.882315 0 0 0 3.1731922,42.491493 l 11.7843018,4.989622 a 9.0914833,9.0914418 0 0 0 0.077,0.374912 9.0914833,9.0914418 0 0 0 0.03308,0.140044 9.0914828,9.0914418 0 0 0 0.0067,0.0279 9.0914833,9.0914418 0 0 0 0.01239,0.04987 9.0914828,9.0914418 0 0 0 0.0054,0.02067 9.0914833,9.0914418 0 0 0 0.0106,0.0416 9.0914833,9.0914418 0 0 0 0.08604,0.307733 9.0914833,9.0914418 0 0 0 0.0137,0.04574 9.0914833,9.0914418 0 0 0 0.01783,0.05736 9.0914833,9.0914418 0 0 0 0.02506,0.07932 9.0914833,9.0914418 0 0 0 0.196629,0.551129 9.0914828,9.0914418 0 0 0 0.02817,0.07002 9.0914833,9.0914418 0 0 0 0.0013,0.0033 9.0914828,9.0914418 0 0 0 0.0036,0.0085 9.0914833,9.0914418 0 0 0 0.02067,0.05064 9.0914828,9.0914418 0 0 0 0.0034,0.008 9.0914833,9.0914418 0 0 0 0.174408,0.395325 9.0914828,9.0914418 0 0 0 0.0018,0.0039 9.0914833,9.0914418 0 0 0 0.152447,0.308249 9.0914828,9.0914418 0 0 0 0.01499,0.02895 9.0914833,9.0914418 0 0 0 0.0509,0.09586 9.0914828,9.0914418 0 0 0 0.01111,0.0204 9.0914833,9.0914418 0 0 0 0.0075,0.01395 9.0914828,9.0914418 0 0 0 0.01679,0.031 9.0914833,9.0914418 0 0 0 0.228412,0.393001 9.0914828,9.0914418 0 0 0 0.01473,0.02375 9.0914833,9.0914418 0 0 0 0.02635,0.04235 9.0914828,9.0914418 0 0 0 0.0013,0.002 9.0914833,9.0914418 0 0 0 0.105936,0.165105 9.0914828,9.0914418 0 0 0 0.01705,0.02535 9.0914833,9.0914418 0 0 0 0.01473,0.0225 9.0914828,9.0914418 0 0 0 0.0052,0.0075 9.0914833,9.0914418 0 0 0 0.107745,0.157875 9.0914833,9.0914418 0 0 0 0.05607,0.07906 9.0914828,9.0914418 0 0 0 0.0018,0.0025 9.0914833,9.0914418 0 0 0 0.0832,0.114205 9.0914833,9.0914418 0 0 0 0.04031,0.05426 9.0914828,9.0914418 0 0 0 0.0057,0.0075 9.0914833,9.0914418 0 0 0 0.0026,0.0035 9.0914828,9.0914418 0 0 0 0.0046,0.0062 9.0914833,9.0914418 0 0 0 0.01938,0.0256 9.0914828,9.0914418 0 0 0 0.01886,0.0248 9.0914833,9.0914418 0 0 0 0.03798,0.0491 9.0914828,9.0914418 0 0 0 0.0062,0.0077 9.0914828,9.0914418 0 0 0 0.03618,0.04625 9.0914833,9.0914418 0 0 0 0.04108,0.05194 9.0914828,9.0914418 0 0 0 0.01292,0.01575 9.0914833,9.0914418 0 0 0 0.03643,0.0452 9.0914828,9.0914418 0 0 0 0.0026,0.003 9.0914833,9.0914418 0 0 0 0.02868,0.0349 9.0914833,9.0914418 0 0 0 0.01215,0.015 9.0914828,9.0914418 0 0 0 0.0054,0.0065 9.0914833,9.0914418 0 0 0 0.07545,0.08966 9.0914828,9.0914418 0 0 0 0.01188,0.0142 9.0914833,9.0914418 0 0 0 1.099675,1.084431 9.0914828,9.0914418 0 0 0 0.02739,0.02275 9.0914833,9.0914418 0 0 0 0.46948,0.361995 9.0914833,9.0914418 0 0 0 0.202831,0.141851 9.0914833,9.0914418 0 0 0 0.231251,0.15219 9.0914833,9.0914418 0 0 0 0.235645,0.14495 9.0914828,9.0914418 0 0 0 0.06511,0.03825 9.0914833,9.0914418 0 0 0 0.174926,0.09948 9.0914833,9.0914418 0 0 0 0.632003,0.318325 9.0914828,9.0914418 0 0 0 0.01861,0.0085 9.0914833,9.0914418 0 0 0 0.01163,0.0052 9.0914833,9.0914418 0 0 0 3.741892,0.805896 9.0914833,9.0914418 0 0 0 3.651202,-0.765331 9.0914833,9.0914418 0 0 0 0.438733,-0.206705 9.0914833,9.0914418 0 0 0 0.08216,-0.04185 9.0914833,9.0914418 0 0 0 0.219626,-0.117045 9.0914828,9.0914418 0 0 0 0.01499,-0.0083 9.0914828,9.0914418 0 0 0 0.0093,-0.0052 9.0914833,9.0914418 0 0 0 0.390158,-0.2297 9.0914828,9.0914418 0 0 0 0.007,-0.0045 9.0914833,9.0914418 0 0 0 0.535109,-0.360961 9.0914833,9.0914418 0 0 0 0.291972,-0.22143 9.0914828,9.0914418 0 0 0 0.0018,-0.0015 9.0914833,9.0914418 0 0 0 0.214199,-0.174925 9.0914833,9.0914418 0 0 0 0.209031,-0.181385 9.0914833,9.0914418 0 0 0 0.384216,-0.364835 9.0914828,9.0914418 0 0 0 0.01654,-0.0168 9.0914833,9.0914418 0 0 0 0.17725,-0.184485 9.0914828,9.0914418 0 0 0 0.0075,-0.008 9.0914828,9.0914418 0 0 0 0.0067,-0.0072 9.0914833,9.0914418 0 0 0 0.124024,-0.136165 9.0914833,9.0914418 0 0 0 0.118598,-0.135396 9.0914833,9.0914418 0 0 0 0.08759,-0.10387 9.0914828,9.0914418 0 0 0 0.0106,-0.0129 9.0914833,9.0914418 0 0 0 0.04211,-0.05116 9.0914833,9.0914418 0 0 0 0.459147,-0.61262 9.0914833,9.0914418 0 0 0 0.367936,-0.583431 9.0914828,9.0914418 0 0 0 0.01395,-0.0243 9.0914833,9.0914418 0 0 0 0.336674,-0.643373 9.0914828,9.0914418 0 0 0 0.0279,-0.05943 9.0914833,9.0914418 0 0 0 0.023,-0.05013 9.0914828,9.0914418 0 0 0 0.01344,-0.02946 9.0914828,9.0914418 0 0 0 0.0018,-0.0041 9.0914833,9.0914418 0 0 0 0.077,-0.175183 9.0914833,9.0914418 0 0 0 0.31135,-0.842067 9.0914828,9.0914418 0 0 0 2.65e-4,-5.5e-4 9.0914828,9.0914418 0 0 0 0.0049,-0.01576 9.0914833,9.0914418 0 0 0 0.07235,-0.244171 9.0914833,9.0914418 0 0 0 0.01705,-0.06098 9.0914833,9.0914418 0 0 0 0.04057,-0.152962 9.0914828,9.0914418 0 0 0 0.0057,-0.02222 9.0914833,9.0914418 0 0 0 0.278019,-2.231132 9.0914833,9.0914418 0 0 0 -2.65e-4,-0.0987 L 44.381627,37.655341 A 12.080464,12.080409 0 0 0 56.462036,25.574933 12.080464,12.080409 0 0 0 44.381627,13.494525 Z M 3.1731922,42.491493 h -2.646e-4 a 31.882461,31.882315 0 0 0 0.019895,0.06976 31.882315,31.882315 0 0 1 -0.019637,-0.06976 z M 2.0962545,31.199151 a 31.882315,31.882315 0 0 1 0.00749,-0.09069 31.882461,31.882315 0 0 0 -0.00775,0.09069 z M 8.8015351,14.163228 a 31.882315,31.882315 0 0 0 -0.106196,0.136166 31.882461,31.882315 0 0 1 0.106196,-0.136166 z m 35.5585789,3.192055 a 8.2196972,8.2196602 0 0 1 0.02144,0 8.2196972,8.2196602 0 0 1 8.219659,8.21966 8.2196972,8.2196602 0 0 1 -8.219658,8.219659 8.2196972,8.2196602 0 0 1 -8.219659,-8.219659 8.2196972,8.2196602 0 0 1 8.198213,-8.21966 z M 6.3709318,17.727612 A 31.882461,31.882315 0 0 0 6.1985912,18.02501 31.882315,31.882315 0 0 1 6.3709318,17.727612 Z m 55.2902032,0.520382 a 31.882315,31.882315 0 0 1 0.0442,0.07881 31.882461,31.882315 0 0 0 -0.0442,-0.07881 z m 0.373625,0.684455 a 31.882315,31.882315 0 0 1 0.08061,0.152703 31.882461,31.882315 0 0 0 -0.08061,-0.152703 z m -17.665345,0.415478 a 6.2270437,6.2270152 0 0 0 -6.21487,6.227016 6.2270437,6.2270152 0 0 0 6.227015,6.227014 6.2270437,6.2270152 0 0 0 6.227012,-6.227014 6.2270437,6.2270152 0 0 0 -6.227012,-6.227016 6.2270437,6.2270152 0 0 0 -0.01215,0 z m 18.915136,2.228031 a 31.882315,31.882315 0 0 1 0.06615,0.159423 31.882461,31.882315 0 0 0 -0.06615,-0.159423 z M 4.2640825,22.027095 a 31.882461,31.882315 0 0 0 -0.06227,0.157096 31.882315,31.882315 0 0 1 0.06227,-0.157096 z m 59.4780635,0.707192 a 31.882315,31.882315 0 0 1 0.05555,0.15012 31.882461,31.882315 0 0 0 -0.05555,-0.15012 z M 3.9395543,22.873296 a 31.882315,31.882315 0 0 0 -0.058911,0.162264 31.882461,31.882315 0 0 1 0.058911,-0.162264 z m 60.6929777,2.630332 a 31.882461,31.882315 0 0 1 0.0297,0.109813 31.882315,31.882315 0 0 0 -0.0297,-0.109813 z m 0.101285,0.382407 a 31.882461,31.882315 0 0 1 0.03825,0.149344 31.882315,31.882315 0 0 0 -0.03825,-0.149344 z m 0.0473,0.185518 a 31.882461,31.882315 0 0 1 0.0297,0.118598 31.882315,31.882315 0 0 0 -0.0297,-0.118598 z M 2.2990847,29.397709 a 31.882315,31.882315 0 0 0 -0.045733,0.335897 31.882461,31.882315 0 0 1 0.045733,-0.335897 z m 63.2465733,0.87514 a 31.882461,31.882315 0 0 1 0.01655,0.148053 31.882315,31.882315 0 0 0 -0.01655,-0.148053 z m 0.06821,0.662235 a 31.882461,31.882315 0 0 1 0.008,0.08785 31.882315,31.882315 0 0 0 -0.008,-0.08785 z m 0.06123,0.764553 a 31.882461,31.882315 0 0 1 0.0101,0.151154 31.882315,31.882315 0 0 0 -0.0101,-0.151154 z m 0.02945,0.486276 a 31.882461,31.882315 0 0 1 0.0085,0.172599 31.882315,31.882315 0 0 0 -0.0085,-0.172599 z m 0.016,0.337447 a 31.882461,31.882315 0 0 1 0.0067,0.1726 31.882315,31.882315 0 0 0 -0.0067,-0.1726 z m -0.0088,2.879156 a 31.882461,31.882315 0 0 1 -0.0075,0.151927 31.882315,31.882315 0 0 0 0.0075,-0.151927 z m -0.02275,0.415736 a 31.882315,31.882315 0 0 1 -0.0111,0.172342 31.882461,31.882315 0 0 0 0.0111,-0.172342 z m -0.0111,0.172342 a 31.882315,31.882315 0 0 1 -0.0093,0.133067 31.882461,31.882315 0 0 0 0.0093,-0.133067 z m -0.134875,1.493707 a 31.882461,31.882315 0 0 1 -0.02015,0.171567 31.882315,31.882315 0 0 0 0.02015,-0.171567 z m -0.0362,0.303083 a 31.882315,31.882315 0 0 1 -0.01785,0.141336 31.882461,31.882315 0 0 0 0.01785,-0.141336 z m -0.01785,0.141336 a 31.882315,31.882315 0 0 1 -0.0225,0.171307 31.882461,31.882315 0 0 0 0.0225,-0.171307 z m -0.06486,0.475681 a 31.882461,31.882315 0 0 1 -0.0212,0.144177 31.882315,31.882315 0 0 0 0.0212,-0.144177 z m -0.0367,0.247014 a 31.882315,31.882315 0 0 1 -0.02505,0.163039 31.882461,31.882315 0 0 0 0.02505,-0.163039 z m -0.02505,0.163039 a 31.882315,31.882315 0 0 1 -0.02715,0.170532 31.882461,31.882315 0 0 0 0.02715,-0.170532 z m -41.503439,0.179834 a 6.8497477,6.8497167 0 0 1 0.04134,0 6.8497477,6.8497167 0 0 1 3.858165,1.189851 6.8497477,6.8497167 0 0 1 0.05297,0.03643 6.8497472,6.8497167 0 0 1 0.01291,0.0091 6.8497477,6.8497167 0 0 1 0.05245,0.03695 6.8497472,6.8497167 0 0 1 0.01292,0.0093 6.8497477,6.8497167 0 0 1 0.05194,0.03773 6.8497472,6.8497167 0 0 1 0.01266,0.0093 6.8497477,6.8497167 0 0 1 0.05168,0.03824 6.8497472,6.8497167 0 0 1 0.01266,0.0096 6.8497477,6.8497167 0 0 1 0.0036,0.0026 6.8497472,6.8497167 0 0 1 0.05994,0.04599 6.8497477,6.8497167 0 0 1 0.0509,0.03927 6.8497472,6.8497167 0 0 1 0.0124,0.0098 6.8497477,6.8497167 0 0 1 0.05012,0.04005 6.8497472,6.8497167 0 0 1 0.0124,0.01008 6.8497472,6.8497167 0 0 1 0.06175,0.05064 6.8497477,6.8497167 0 0 1 0.04935,0.04109 6.8497472,6.8497167 0 0 1 0.01215,0.01033 6.8497477,6.8497167 0 0 1 0.001,8e-4 6.8497472,6.8497167 0 0 1 0.05969,0.05142 6.8497472,6.8497167 0 0 1 0.05994,0.05271 6.8497477,6.8497167 0 0 1 0.04806,0.04289 6.8497472,6.8497167 0 0 1 0.01163,0.0106 6.8497477,6.8497167 0 0 1 0.04728,0.04341 6.8497472,6.8497167 0 0 1 0.01163,0.01085 6.8497477,6.8497167 0 0 1 0.0065,0.0059 6.8497472,6.8497167 0 0 1 0.05168,0.04909 6.8497477,6.8497167 0 0 1 0.04625,0.04445 6.8497472,6.8497167 0 0 1 0.01137,0.01111 6.8497477,6.8497167 0 0 1 0.0059,0.0057 6.8497472,6.8497167 0 0 1 0.0509,0.05064 6.8497477,6.8497167 0 0 1 0.04522,0.04548 6.8497472,6.8497167 0 0 1 0.01111,0.01136 6.8497477,6.8497167 0 0 1 0.0054,0.0054 6.8497472,6.8497167 0 0 1 0.05013,0.05219 6.8497477,6.8497167 0 0 1 0.04418,0.04651 6.8497472,6.8497167 0 0 1 0.01085,0.01163 6.8497477,6.8497167 0 0 1 0.0049,0.0052 6.8497472,6.8497167 0 0 1 0.04935,0.05374 6.8497472,6.8497167 0 0 1 0.05349,0.05943 6.8497472,6.8497167 0 0 1 0.05297,0.0602 6.8497472,6.8497167 0 0 1 0.05193,0.06072 6.8497472,6.8497167 0 0 1 0.102319,0.123248 6.8497472,6.8497167 0 0 1 0.04987,0.06253 6.8497472,6.8497167 0 0 1 0.04935,0.06305 6.8497472,6.8497167 0 0 1 0.04857,0.06382 6.8497472,6.8497167 0 0 1 0.09457,0.128933 6.8497472,6.8497167 0 0 1 0.09173,0.131257 6.8497472,6.8497167 0 0 1 0.215749,0.336931 6.8497472,6.8497167 0 0 1 0.04083,0.06899 6.8497472,6.8497167 0 0 1 0.0075,0.01317 l 8e-4,8e-4 a 6.8497477,6.8497167 0 0 1 0.926042,3.439328 6.8497477,6.8497167 0 0 1 -6.849717,6.849716 6.8497477,6.8497167 0 0 1 -6.263963,-4.078565 l 4.277003,1.811003 c 0.326762,0.137966 0.659338,0.236451 0.992963,0.299206 a 4.9816345,4.9816119 0 0 0 0.994256,0.09999 4.9816345,4.9816119 0 0 0 4.981612,-4.981613 4.9816345,4.9816119 0 0 0 -2.601394,-4.375964 c -0.201494,-0.122137 -0.41353,-0.231673 -0.636597,-0.32586 L 21.54588,39.411653 a 6.8497477,6.8497167 0 0 1 2.313038,-0.417287 z m 40.948693,2.561344 a 31.882461,31.882315 0 0 1 -0.0421,0.16769 31.882315,31.882315 0 0 0 0.0421,-0.16769 z m -0.0421,0.16769 a 31.882461,31.882315 0 0 1 -0.0429,0.167173 31.882315,31.882315 0 0 0 0.0429,-0.167173 z M 3.2964406,42.919115 a 31.882461,31.882315 0 0 0 0.039016,0.130743 31.882315,31.882315 0 0 1 -0.039016,-0.130743 z m 0.4780073,1.480532 a 31.882461,31.882315 0 0 0 0.047543,0.134617 31.882315,31.882315 0 0 1 -0.047543,-0.134617 z M 63.607531,45.35437 a 31.882461,31.882315 0 0 1 -0.06149,0.157612 31.882315,31.882315 0 0 0 0.06149,-0.157612 z M 4.1643469,45.45359 a 31.882315,31.882315 0 0 0 0.041083,0.104644 31.882461,31.882315 0 0 1 -0.041083,-0.104644 z m 0.321686,0.793233 a 31.882315,31.882315 0 0 0 0.045475,0.10697 31.882461,31.882315 0 0 1 -0.045475,-0.10697 z m 1.2118129,2.553076 a 31.882315,31.882315 0 0 0 0.081391,0.152445 31.882461,31.882315 0 0 1 -0.081391,-0.152445 z M 61.70532,49.406582 a 31.882461,31.882315 0 0 1 -0.0442,0.07881 31.882315,31.882315 0 0 0 0.0442,-0.07881 z m -44.491114,2.598032 a 9.0914828,9.0914418 0 0 0 0.05142,0.0553 9.0914828,9.0914418 0 0 1 -0.05142,-0.0553 z m 13.280594,0.09844 a 9.0914828,9.0914418 0 0 1 -0.05297,0.05504 9.0914828,9.0914418 0 0 0 0.05297,-0.05504 z m -0.280861,0.28293 a 9.0914828,9.0914418 0 0 1 -0.05555,0.05349 9.0914828,9.0914418 0 0 0 0.05555,-0.05349 z m -0.32918,0.302565 a 9.0914828,9.0914418 0 0 1 -0.06589,0.05685 9.0914828,9.0914418 0 0 0 0.06589,-0.05685 z m -11.650718,0.26536 a 9.0914828,9.0914418 0 0 0 0.04651,0.03695 9.0914828,9.0914418 0 0 1 -0.04651,-0.03695 z m 0.0987,0.07751 a 9.0914828,9.0914418 0 0 0 0.06201,0.0478 9.0914828,9.0914418 0 0 1 -0.06201,-0.0478 z m 11.065484,0.05374 a 9.0914828,9.0914418 0 0 1 -0.05478,0.0411 9.0914828,9.0914418 0 0 0 0.05478,-0.0411 z m -0.1726,0.12764 a 9.0914828,9.0914418 0 0 1 -0.07131,0.05116 9.0914828,9.0914418 0 0 0 0.07131,-0.05116 z m -0.566891,0.378276 a 9.0914828,9.0914418 0 0 1 -0.05891,0.0359 9.0914828,9.0914418 0 0 0 0.05891,-0.0359 z M 27.913817,54.0019 a 9.0914828,9.0914418 0 0 1 -0.06614,0.03205 9.0914828,9.0914418 0 0 0 0.06614,-0.03205 z m -7.658452,0.17131 a 9.0914828,9.0914418 0 0 0 0.05762,0.02505 9.0914828,9.0914418 0 0 1 -0.05762,-0.02505 z m 0.111104,0.04755 a 9.0914828,9.0914418 0 0 0 0.06589,0.0279 9.0914828,9.0914418 0 0 1 -0.06589,-0.0279 z m 0.502296,0.19482 a 9.0914828,9.0914418 0 0 0 0.0664,0.02325 9.0914828,9.0914418 0 0 1 -0.0664,-0.02325 z m 5.898869,0.05633 a 9.0914828,9.0914418 0 0 1 -0.07131,0.0235 9.0914828,9.0914418 0 0 0 0.07131,-0.0235 z m -17.1981879,0.0377 a 31.882461,31.882315 0 0 0 0.102579,0.120155 31.882315,31.882315 0 0 1 -0.102578,-0.120146 z M 21.22585,54.53366 a 9.0914828,9.0914418 0 0 0 0.05142,0.0155 9.0914828,9.0914418 0 0 1 -0.05142,-0.0155 z m 0.169499,0.05039 a 9.0914828,9.0914418 0 0 0 0.06253,0.01785 9.0914828,9.0914418 0 0 1 -0.06253,-0.01785 z m 0.424521,0.11059 a 9.0914828,9.0914418 0 0 0 0.06485,0.01525 9.0914828,9.0914418 0 0 1 -0.06485,-0.01525 z m 0.162264,0.0367 a 9.0914828,9.0914418 0 0 0 0.08527,0.01785 9.0914828,9.0914418 0 0 1 -0.08527,-0.01785 z m 0.140302,0.0292 a 9.0914828,9.0914418 0 0 0 0.08604,0.0163 9.0914828,9.0914418 0 0 1 -0.08604,-0.0163 z m 3.372665,0.03435 a 9.0914828,9.0914418 0 0 1 -0.06563,0.01165 9.0914828,9.0914418 0 0 0 0.06563,-0.01165 z m -3.184821,10e-4 a 9.0914828,9.0914418 0 0 0 0.0633,0.0111 9.0914828,9.0914418 0 0 1 -0.0633,-0.0111 z m 3.067515,0.0191 a 9.0914828,9.0914418 0 0 1 -0.08449,0.01345 9.0914828,9.0914418 0 0 0 0.08449,-0.01345 z m -0.140043,0.02195 a 9.0914828,9.0914418 0 0 1 -0.07441,0.0111 9.0914828,9.0914418 0 0 0 0.07441,-0.0111 z m -2.529304,0.0204 a 9.0914828,9.0914418 0 0 0 0.06201,0.008 9.0914828,9.0914418 0 0 1 -0.06201,-0.008 z m 0.339513,0.0385 a 9.0914828,9.0914418 0 0 0 0.08268,0.0075 9.0914828,9.0914418 0 0 1 -0.08268,-0.0075 z M 9.9053431,54.89834 A 31.882461,31.882315 0 0 0 10.019548,55.027785 31.882315,31.882315 0 0 1 9.9053431,54.89834 Z m 13.2291759,0.0052 a 9.0914828,9.0914418 0 0 0 0.07493,0.0057 9.0914828,9.0914418 0 0 1 -0.07493,-0.0057 z m 0.195596,0.0142 a 9.0914828,9.0914418 0 0 0 0.06615,0.004 9.0914828,9.0914418 0 0 1 -0.06615,-0.004 z m 0.784708,0.0155 a 9.0914828,9.0914418 0 0 1 -0.07028,0.0015 9.0914828,9.0914418 0 0 0 0.07028,-0.0015 z m -0.42814,2.65e-4 a 9.0914828,9.0914418 0 0 0 0.07002,0.0015 9.0914828,9.0914418 0 0 1 -0.07002,-0.0015 z m 0.07131,0.0015 a 9.0914828,9.0914418 0 0 0 0.07958,0.001 9.0914828,9.0914418 0 0 1 -0.07958,-0.001 z m 32.774249,1.353661 a 31.882315,31.882315 0 0 1 -0.121955,0.122475 31.882461,31.882315 0 0 0 0.121955,-0.122475 z m -45.081258,0.24986 a 31.882461,31.882315 0 0 0 0.09715,0.0956 31.882315,31.882315 0 0 1 -0.09715,-0.0956 z m 0.571541,0.551125 a 31.882315,31.882315 0 0 0 0.08785,0.08217 31.882461,31.882315 0 0 1 -0.08785,-0.08217 z m 0.179059,0.167176 a 31.882461,31.882315 0 0 0 0.108521,0.09999 31.882315,31.882315 0 0 1 -0.108521,-0.09999 z m 1.024486,0.90873 a 31.882461,31.882315 0 0 0 0.131776,0.111365 31.882315,31.882315 0 0 1 -0.131776,-0.111365 z m 0.292489,0.245465 a 31.882461,31.882315 0 0 0 0.09508,0.07854 31.882315,31.882315 0 0 1 -0.09508,-0.07854 z m 0.508755,0.412896 a 31.882461,31.882315 0 0 0 0.11653,0.0925 31.882315,31.882315 0 0 1 -0.11653,-0.0925 z m 0.975393,0.74517 a 31.882461,31.882315 0 0 0 0.102578,0.07519 31.882315,31.882315 0 0 1 -0.102578,-0.07519 z m 37.323587,0.291975 a 31.882461,31.882315 0 0 1 -0.124795,0.08811 31.882315,31.882315 0 0 0 0.124795,-0.08811 z m -36.627505,0.204641 a 31.882461,31.882315 0 0 0 0.125057,0.0863 31.882315,31.882315 0 0 1 -0.125057,-0.0863 z m 0.71417,0.481365 a 31.882461,31.882315 0 0 0 0.137201,0.08914 31.882315,31.882315 0 0 1 -0.137201,-0.08914 z m 0.444417,0.285255 a 31.882461,31.882315 0 0 0 0.120147,0.0757 31.882315,31.882315 0 0 1 -0.120147,-0.0757 z m 0.276985,0.172855 a 31.882461,31.882315 0 0 0 0.140043,0.08604 31.882315,31.882315 0 0 1 -0.140043,-0.08604 z M 18.942004,62.04 A 31.882461,31.882315 0 0 0 19.083081,62.11415 31.882315,31.882315 0 0 1 18.942004,62.04 Z m 29.394869,0.235905 a 31.882315,31.882315 0 0 1 -0.304374,0.15296 31.882461,31.882315 0 0 0 0.304374,-0.15296 z m -28.462883,0.23797 a 31.882461,31.882315 0 0 0 0.129191,0.06305 31.882315,31.882315 0 0 1 -0.129191,-0.06305 z m 0.304115,0.146761 a 31.882461,31.882315 0 0 0 0.118341,0.05607 31.882315,31.882315 0 0 1 -0.118341,-0.05607 z m 0.550873,0.25554 a 31.882315,31.882315 0 0 0 0.117304,0.05271 31.882461,31.882315 0 0 1 -0.117304,-0.05271 z m 0.543119,0.23952 a 31.882461,31.882315 0 0 0 0.154512,0.06588 31.882315,31.882315 0 0 1 -0.154512,-0.06588 z m 0.261483,0.111105 a 31.882315,31.882315 0 0 0 0.12609,0.05245 31.882461,31.882315 0 0 1 -0.12609,-0.05245 z m 0.329437,0.135905 a 31.882315,31.882315 0 0 0 0.09173,0.0372 31.882461,31.882315 0 0 1 -0.09173,-0.0372 z m 0.729413,0.28603 a 31.882461,31.882315 0 0 0 0.108522,0.04085 31.882315,31.882315 0 0 1 -0.108522,-0.04085 z m 1.681553,0.582656 a 31.882315,31.882315 0 0 0 0.139784,0.04395 31.882461,31.882315 0 0 1 -0.139784,-0.04395 z m 0.274919,0.08552 a 31.882461,31.882315 0 0 0 0.103093,0.03125 31.882315,31.882315 0 0 1 -0.103093,-0.03125 z m 0.399717,0.119115 a 31.882315,31.882315 0 0 0 0.112396,0.03255 31.882461,31.882315 0 0 1 -0.112396,-0.03255 z m 0.246754,0.07079 a 31.882461,31.882315 0 0 0 0.127642,0.0359 31.882315,31.882315 0 0 1 -0.127642,-0.0359 z m 17.141087,0.05633 a 31.882461,31.882315 0 0 1 -0.1279,0.0349 31.882315,31.882315 0 0 0 0.1279,-0.0349 z m -16.728449,0.05737 a 31.882315,31.882315 0 0 0 0.12454,0.03305 31.882461,31.882315 0 0 1 -0.12454,-0.03305 z m 0.683938,0.17518 a 31.882315,31.882315 0 0 0 0.101545,0.0248 31.882461,31.882315 0 0 1 -0.101545,-0.0248 z m 0.750859,0.17415 a 31.882461,31.882315 0 0 0 0.128674,0.02815 31.882315,31.882315 0 0 1 -0.128674,-0.02815 z m 12.276779,0.269236 a 31.882315,31.882315 0 0 1 -0.149861,0.0253 31.882461,31.882315 0 0 0 0.149861,-0.0253 z m -0.530717,0.08733 a 31.882315,31.882315 0 0 1 -0.100769,0.0155 31.882461,31.882315 0 0 0 0.100769,-0.0155 z m -0.100769,0.0155 a 31.882461,31.882315 0 0 1 -0.10387,0.01575 31.882315,31.882315 0 0 0 0.10387,-0.01575 z m -1.103293,0.149345 a 31.882315,31.882315 0 0 1 -0.100769,0.01165 31.882461,31.882315 0 0 0 0.100769,-0.01165 z m -7.223854,0.02425 a 31.882315,31.882315 0 0 0 0.120665,0.01295 31.882461,31.882315 0 0 1 -0.120665,-0.01295 z m 0.339515,0.03565 a 31.882315,31.882315 0 0 0 0.122473,0.0119 31.882461,31.882315 0 0 1 -0.122473,-0.0119 z m 5.422928,0.07726 a 31.882315,31.882315 0 0 1 -0.133067,0.0093 31.882461,31.882315 0 0 0 0.133067,-0.0093 z m -0.133067,0.0093 a 31.882315,31.882315 0 0 1 -0.172341,0.0111 31.882461,31.882315 0 0 0 0.172341,-0.0111 z m -0.4408,0.02635 a 31.882461,31.882315 0 0 1 -0.172598,0.0085 31.882315,31.882315 0 0 0 0.172598,-0.0085 z m -3.22642,0.0072 a 31.882461,31.882315 0 0 0 0.149861,0.0069 31.882315,31.882315 0 0 1 -0.149861,-0.0069 z m 0.29068,0.01265 a 31.882315,31.882315 0 0 0 0.134101,0.0052 31.882461,31.882315 0 0 1 -0.134101,-0.0052 z m 2.467034,0.0015 a 31.882315,31.882315 0 0 1 -0.148569,0.0054 31.882461,31.882315 0 0 0 0.148569,-0.0054 z m -2.31743,0.004 a 31.882315,31.882315 0 0 0 0.133325,0.0045 31.882461,31.882315 0 0 1 -0.133325,-0.0045 z m 0.276986,0.0083 a 31.882461,31.882315 0 0 0 0.12609,0.003 31.882315,31.882315 0 0 1 -0.12609,-0.003 z m 0.681095,0.01035 a 31.882461,31.882315 0 0 0 0.144953,5e-4 31.882315,31.882315 0 0 1 -0.144953,-5e-4 z" />
  </g>
</svg>
