<?xml version="1.0" encoding="UTF-8" standalone="no"?>
<svg
   sodipodi:docname="system-users.svg"
   id="svg8"
   version="1.1"
   viewBox="0 0 67.733333 67.733334"
   height="256"
   width="256"
   xmlns:inkscape="http://www.inkscape.org/namespaces/inkscape"
   xmlns:sodipodi="http://sodipodi.sourceforge.net/DTD/sodipodi-0.dtd"
   xmlns="http://www.w3.org/2000/svg"
   xmlns:svg="http://www.w3.org/2000/svg">
  <defs
     id="defs2" />
  <sodipodi:namedview
     inkscape:window-maximized="1"
     inkscape:window-y="27"
     inkscape:window-x="1920"
     inkscape:window-height="1016"
     inkscape:window-width="1920"
     units="px"
     showgrid="false"
     inkscape:document-rotation="0"
     inkscape:current-layer="layer3"
     inkscape:document-units="px"
     inkscape:cy="157.25"
     inkscape:cx="131.5"
     inkscape:zoom="2"
     inkscape:pageshadow="2"
     inkscape:pageopacity="0.0"
     borderopacity="1.0"
     bordercolor="#666666"
     pagecolor="#ffffff"
     id="base"
     inkscape:lockguides="false"
     inkscape:pagecheckerboard="0"
     width="256px"
     inkscape:showpageshadow="2"
     inkscape:deskcolor="#d1d1d1" />
  <g
     inkscape:groupmode="layer"
     id="layer1"
     inkscape:label="Backgroud">
    <g
       inkscape:groupmode="layer"
       id="layer2"
       inkscape:label="Shadow"
       style="opacity:0.4">
      <circle
         style="display:inline;fill:#000000;fill-opacity:1;stroke-width:14.1577;stroke-linecap:round;stroke-miterlimit:1.6;paint-order:stroke markers fill"
         id="circle852"
         cx="33.866665"
         cy="34.924999"
         r="31.75" />
    </g>
    <g
       inkscape:groupmode="layer"
       id="layer4"
       inkscape:label="Colour"
       style="display:inline">
      <circle
         style="display:inline;fill:#008fd4;fill-opacity:1;stroke-width:14.1577;stroke-linecap:round;stroke-miterlimit:1.6;paint-order:stroke markers fill"
         id="path835"
         cx="33.866665"
         cy="33.866665"
         r="31.75" />
    </g>
    <g
       inkscape:groupmode="layer"
       id="layer5"
       inkscape:label="Highlight"
       style="opacity:0.1">
      <path
         id="circle873"
         style="display:inline;fill:#ffffff;fill-opacity:1;stroke-width:53.5094;stroke-linecap:round;stroke-miterlimit:1.6;paint-order:stroke markers fill"
         d="M 128 8 A 120 120 0 0 0 8 128 A 120 120 0 0 0 8.0742188 130 A 120 120 0 0 1 128 12 A 120 120 0 0 1 247.96289 129.00977 A 120 120 0 0 0 248 128 A 120 120 0 0 0 128 8 z "
         transform="scale(0.26458333)" />
    </g>
  </g>
  <g
     inkscape:groupmode="layer"
     id="layer6"
     inkscape:label="Large Highlight">
    <path
       style="display:inline;opacity:0.1;fill:#ffffff;fill-opacity:1;stroke:none;stroke-width:0.566965;stroke-linecap:round;stroke-linejoin:round;stroke-miterlimit:4;stroke-dasharray:none;stroke-dashoffset:0;stroke-opacity:1;enable-background:new"
       d="m 6.5350067,17.777883 a 31.749998,31.749998 0 0 0 -4.41834,16.08871 31.749998,31.749998 0 0 0 31.7500003,31.75 31.749998,31.749998 0 0 0 26.82616,-14.8363 z"
       id="path958"
       inkscape:connector-curvature="0" />
  </g>
  <g
     inkscape:groupmode="layer"
     id="layer3"
     inkscape:label="Graphic"
     style="display:inline">
    <g
       id="g1577"
       transform="translate(0,1.0583333)"
       style="fill:#000000;opacity:0.4">
      <path
         id="path1573"
         style="color:#000000;font-style:normal;font-variant:normal;font-weight:normal;font-stretch:normal;font-size:medium;line-height:normal;font-family:sans-serif;font-variant-ligatures:normal;font-variant-position:normal;font-variant-caps:normal;font-variant-numeric:normal;font-variant-alternates:normal;font-variant-east-asian:normal;font-feature-settings:normal;font-variation-settings:normal;text-indent:0;text-align:start;text-decoration:none;text-decoration-line:none;text-decoration-style:solid;text-decoration-color:#000000;letter-spacing:normal;word-spacing:normal;text-transform:none;writing-mode:lr-tb;direction:ltr;text-orientation:mixed;dominant-baseline:auto;baseline-shift:baseline;text-anchor:start;white-space:normal;shape-padding:0;shape-margin:0;inline-size:0;clip-rule:nonzero;display:inline;overflow:visible;visibility:visible;isolation:auto;mix-blend-mode:normal;color-interpolation:sRGB;color-interpolation-filters:linearRGB;solid-color:#000000;solid-opacity:1;vector-effect:none;fill:#000000;fill-opacity:1;fill-rule:nonzero;stroke:none;stroke-width:43.1872;stroke-linecap:round;stroke-linejoin:miter;stroke-miterlimit:4;stroke-dasharray:none;stroke-dashoffset:0;stroke-opacity:1;paint-order:stroke markers fill;color-rendering:auto;image-rendering:auto;shape-rendering:auto;text-rendering:auto;enable-background:accumulate;stop-color:#000000"
         d="m 84.238281,40.578125 c -18.237101,0 -32.8125,15.604671 -32.8125,34.318359 0,18.713673 14.575399,34.253906 32.8125,34.253906 3.222017,0 6.27058,-0.63916 9.208985,-1.54101 0.0063,-0.006 0.01126,-0.0101 0.01758,-0.0156 -0.216713,-1.96416 -0.328125,-3.95773 -0.328125,-5.97461 0,-17.002195 7.747169,-32.573541 19.964839,-42.718749 -0.0124,-0.04988 -0.0228,-0.09054 -0.0352,-0.140625 C 107.51075,48.054424 96.786611,40.578125 84.238281,40.578125 Z M 48.814453,118.29102 c -13.409491,0 -24.542969,11.13182 -24.542969,24.54101 -0.0029,6.02939 4.886491,10.91878 10.916016,10.91602 h 38.068359 c 0.148423,0 0.28806,-0.004 0.435547,-0.004 7.615901,-6.99693 17.715269,-11.32617 28.761714,-11.32617 h 8.88086 c -7.10392,-6.46276 -12.550966,-14.77107 -15.564449,-24.12695 -0.0045,-1e-5 -0.0092,0 -0.01367,0 z"
         transform="scale(0.26458333)" />
      <path
         id="path1575"
         style="color:#000000;font-style:normal;font-variant:normal;font-weight:normal;font-stretch:normal;font-size:medium;line-height:normal;font-family:sans-serif;font-variant-ligatures:normal;font-variant-position:normal;font-variant-caps:normal;font-variant-numeric:normal;font-variant-alternates:normal;font-variant-east-asian:normal;font-feature-settings:normal;font-variation-settings:normal;text-indent:0;text-align:start;text-decoration:none;text-decoration-line:none;text-decoration-style:solid;text-decoration-color:#000000;letter-spacing:normal;word-spacing:normal;text-transform:none;writing-mode:lr-tb;direction:ltr;text-orientation:mixed;dominant-baseline:auto;baseline-shift:baseline;text-anchor:start;white-space:normal;shape-padding:0;shape-margin:0;inline-size:0;clip-rule:nonzero;display:inline;overflow:visible;visibility:visible;isolation:auto;mix-blend-mode:normal;color-interpolation:sRGB;color-interpolation-filters:linearRGB;solid-color:#000000;solid-opacity:1;fill:#000000;fill-opacity:1;fill-rule:nonzero;stroke:none;stroke-width:6.61458;stroke-linecap:round;stroke-linejoin:miter;stroke-miterlimit:4;stroke-dasharray:none;stroke-dashoffset:0;stroke-opacity:1;paint-order:stroke markers fill;color-rendering:auto;image-rendering:auto;shape-rendering:auto;text-rendering:auto;enable-background:accumulate;stop-color:#000000"
         d="m 38.614993,15.723811 c -5.928142,0 -10.666015,5.079047 -10.666015,11.162109 0,6.083058 4.737873,11.126674 10.666015,11.126674 5.928142,0 10.692593,-5.043616 10.692593,-11.126674 0,-6.083062 -4.764451,-11.162109 -10.692593,-11.162109 z M 27.10739,40.989156 c -4.358882,0 -7.981794,3.61415 -7.981794,7.972935 0.0016,1.956353 1.58713,3.541911 3.543527,3.543527 h 31.918315 c 1.956397,-0.0016 3.541954,-1.587174 3.543527,-3.543527 0,-4.358785 -3.614053,-7.972935 -7.972933,-7.972935 z"
         sodipodi:nodetypes="ssssssccccss" />
    </g>
    <g
       id="g1571">
      <path
         id="path834"
         style="color:#000000;font-style:normal;font-variant:normal;font-weight:normal;font-stretch:normal;font-size:medium;line-height:normal;font-family:sans-serif;font-variant-ligatures:normal;font-variant-position:normal;font-variant-caps:normal;font-variant-numeric:normal;font-variant-alternates:normal;font-variant-east-asian:normal;font-feature-settings:normal;font-variation-settings:normal;text-indent:0;text-align:start;text-decoration:none;text-decoration-line:none;text-decoration-style:solid;text-decoration-color:#000000;letter-spacing:normal;word-spacing:normal;text-transform:none;writing-mode:lr-tb;direction:ltr;text-orientation:mixed;dominant-baseline:auto;baseline-shift:baseline;text-anchor:start;white-space:normal;shape-padding:0;shape-margin:0;inline-size:0;clip-rule:nonzero;display:inline;overflow:visible;visibility:visible;isolation:auto;mix-blend-mode:normal;color-interpolation:sRGB;color-interpolation-filters:linearRGB;solid-color:#000000;solid-opacity:1;vector-effect:none;fill:#ffffff;fill-opacity:1;fill-rule:nonzero;stroke:none;stroke-width:43.1872;stroke-linecap:round;stroke-linejoin:miter;stroke-miterlimit:4;stroke-dasharray:none;stroke-dashoffset:0;stroke-opacity:1;paint-order:stroke markers fill;color-rendering:auto;image-rendering:auto;shape-rendering:auto;text-rendering:auto;enable-background:accumulate;stop-color:#000000"
         d="M 84.238281 40.578125 C 66.00118 40.578125 51.425781 56.182796 51.425781 74.896484 C 51.425781 93.610157 66.00118 109.15039 84.238281 109.15039 C 87.460298 109.15039 90.508861 108.51123 93.447266 107.60938 C 93.453584 107.60385 93.458529 107.59927 93.464844 107.59375 C 93.248131 105.62959 93.136719 103.63602 93.136719 101.61914 C 93.136719 84.616945 100.88389 69.045599 113.10156 58.900391 C 113.08918 58.850511 113.07881 58.809853 113.06641 58.759766 C 107.51075 48.054424 96.786611 40.578125 84.238281 40.578125 z M 48.814453 118.29102 C 35.404962 118.29102 24.271484 129.42284 24.271484 142.83203 C 24.268588 148.86142 29.157975 153.75081 35.1875 153.74805 L 73.255859 153.74805 C 73.404282 153.74805 73.543919 153.7445 73.691406 153.74414 C 81.307307 146.74721 91.406675 142.41797 102.45312 142.41797 L 111.33398 142.41797 C 104.23006 135.95521 98.783014 127.6469 95.769531 118.29102 C 95.76502 118.29101 95.760369 118.29102 95.755859 118.29102 L 48.814453 118.29102 z "
         transform="scale(0.26458333)" />
      <path
         id="path1140"
         style="color:#000000;font-style:normal;font-variant:normal;font-weight:normal;font-stretch:normal;font-size:medium;line-height:normal;font-family:sans-serif;font-variant-ligatures:normal;font-variant-position:normal;font-variant-caps:normal;font-variant-numeric:normal;font-variant-alternates:normal;font-variant-east-asian:normal;font-feature-settings:normal;font-variation-settings:normal;text-indent:0;text-align:start;text-decoration:none;text-decoration-line:none;text-decoration-style:solid;text-decoration-color:#000000;letter-spacing:normal;word-spacing:normal;text-transform:none;writing-mode:lr-tb;direction:ltr;text-orientation:mixed;dominant-baseline:auto;baseline-shift:baseline;text-anchor:start;white-space:normal;shape-padding:0;shape-margin:0;inline-size:0;clip-rule:nonzero;display:inline;overflow:visible;visibility:visible;isolation:auto;mix-blend-mode:normal;color-interpolation:sRGB;color-interpolation-filters:linearRGB;solid-color:#000000;solid-opacity:1;fill:#ffffff;fill-opacity:1;fill-rule:nonzero;stroke:none;stroke-width:6.61458335;stroke-linecap:round;stroke-linejoin:miter;stroke-miterlimit:4;stroke-dasharray:none;stroke-dashoffset:0;stroke-opacity:1;paint-order:stroke markers fill;color-rendering:auto;image-rendering:auto;shape-rendering:auto;text-rendering:auto;enable-background:accumulate;stop-color:#000000"
         d="m 38.614993,15.723811 c -5.928142,0 -10.666015,5.079047 -10.666015,11.162109 0,6.083058 4.737873,11.126674 10.666015,11.126674 5.928142,0 10.692593,-5.043616 10.692593,-11.126674 0,-6.083062 -4.764451,-11.162109 -10.692593,-11.162109 z M 27.10739,40.989156 c -4.358882,0 -7.981794,3.61415 -7.981794,7.972935 0.0016,1.956353 1.58713,3.541911 3.543527,3.543527 h 31.918315 c 1.956397,-0.0016 3.541954,-1.587174 3.543527,-3.543527 0,-4.358785 -3.614053,-7.972935 -7.972933,-7.972935 z"
         sodipodi:nodetypes="ssssssccccss" />
    </g>
  </g>
</svg>
