<?xml version="1.0" encoding="UTF-8" standalone="no"?>
<svg
   sodipodi:docname="system-users-symbolic.symbolic.svg"
   id="svg8"
   version="1.1"
   viewBox="0 0 4.2333333 4.2333334"
   height="16"
   width="16"
   xmlns:inkscape="http://www.inkscape.org/namespaces/inkscape"
   xmlns:sodipodi="http://sodipodi.sourceforge.net/DTD/sodipodi-0.dtd"
   xmlns="http://www.w3.org/2000/svg"
   xmlns:svg="http://www.w3.org/2000/svg">
  <defs
     id="defs2" />
  <sodipodi:namedview
     inkscape:window-maximized="1"
     inkscape:window-y="27"
     inkscape:window-x="1920"
     inkscape:window-height="1016"
     inkscape:window-width="1920"
     units="px"
     showgrid="false"
     inkscape:document-rotation="0"
     inkscape:current-layer="layer3"
     inkscape:document-units="px"
     inkscape:cy="7.53125"
     inkscape:cx="7.625"
     inkscape:zoom="16"
     inkscape:pageshadow="2"
     inkscape:pageopacity="0.0"
     borderopacity="1.0"
     bordercolor="#666666"
     pagecolor="#ffffff"
     id="base"
     inkscape:lockguides="false"
     inkscape:pagecheckerboard="0"
     width="16px"
     inkscape:showpageshadow="2"
     inkscape:deskcolor="#d1d1d1" />
  <g
     inkscape:groupmode="layer"
     id="layer3"
     inkscape:label="Graphic"
     style="display:inline">
    <path
       id="path834"
       style="color:#000000;font-style:normal;font-variant:normal;font-weight:normal;font-stretch:normal;font-size:medium;line-height:normal;font-family:sans-serif;font-variant-ligatures:normal;font-variant-position:normal;font-variant-caps:normal;font-variant-numeric:normal;font-variant-alternates:normal;font-variant-east-asian:normal;font-feature-settings:normal;font-variation-settings:normal;text-indent:0;text-align:start;text-decoration:none;text-decoration-line:none;text-decoration-style:solid;text-decoration-color:#000000;letter-spacing:normal;word-spacing:normal;text-transform:none;writing-mode:lr-tb;direction:ltr;text-orientation:mixed;dominant-baseline:auto;baseline-shift:baseline;text-anchor:start;white-space:normal;shape-padding:0;shape-margin:0;inline-size:0;clip-rule:nonzero;display:inline;overflow:visible;visibility:visible;isolation:auto;mix-blend-mode:normal;color-interpolation:sRGB;color-interpolation-filters:linearRGB;solid-color:#000000;solid-opacity:1;vector-effect:none;fill:#000000;fill-opacity:1;fill-rule:nonzero;stroke:none;stroke-width:0.877087;stroke-linecap:round;stroke-linejoin:miter;stroke-miterlimit:4;stroke-dasharray:none;stroke-dashoffset:0;stroke-opacity:1;paint-order:stroke markers fill;color-rendering:auto;image-rendering:auto;shape-rendering:auto;text-rendering:auto;enable-background:accumulate;stop-color:#000000"
       d="M 1.3326851,0.51362413 C 0.97043673,0.5233121 0.68333302,0.83646817 0.68333302,1.2105865 c 0,0.3800569 0.29650891,0.6957103 0.66688518,0.6957103 0.065436,0 0.1269268,-0.012993 0.1866027,-0.031309 0,0 6.261e-4,-6.263e-4 6.261e-4,-6.263e-4 -0.00439,-0.03989 -0.00689,-0.079896 -0.00689,-0.1208569 0,-0.3452981 0.1576389,-0.6618763 0.4057668,-0.86791556 -2.518e-4,-0.001013 -3.744e-4,-0.001488 -6.262e-4,-0.002502 C 1.8228708,0.66567198 1.6050609,0.5136248 1.3502175,0.5136248 c -0.00579,0 -0.011784,-1.5378e-4 -0.017532,-6.7e-7 z m 1.270526,0.38260923 c -0.4550336,0 -0.8184217,0.39034294 -0.8184217,0.85727024 0,0.4669267 0.3633881,0.853513 0.8184217,0.853513 0.4550335,0 0.8209263,-0.3865863 0.8209263,-0.853513 0,-0.4669273 -0.3658928,-0.85727024 -0.8209263,-0.85727024 z M 0.63073362,2.0916525 c -0.27233265,0 -0.49844193,0.2261289 -0.49844193,0.4984566 -5.889e-5,0.122451 0.0992156,0.2217315 0.22166889,0.2216754 H 1.1266707 c 0.00302,0 0.0064,0 0.0094,0 0.1546636,-0.1421009 0.359254,-0.229816 0.5835957,-0.229816 H 1.9000072 C 1.755734,2.4507162 1.6456115,2.2816614 1.5844107,2.0916525 H 1.5837846 Z M 1.7196664,2.8355803 c -0.3345799,0 -0.6124073,0.2778512 -0.6124073,0.6124253 1.227e-4,0.1501668 0.1215941,0.2716473 0.2717635,0.2717715 h 2.4502555 c 0.1501696,-1.229e-4 0.2716426,-0.1216047 0.2717636,-0.2717715 0,-0.3345741 -0.2772014,-0.6124253 -0.6117812,-0.6124253 z" />
  </g>
</svg>
