<?xml version="1.0" encoding="UTF-8" standalone="no"?>
<svg
   xmlns:dc="http://purl.org/dc/elements/1.1/"
   xmlns:cc="http://creativecommons.org/ns#"
   xmlns:rdf="http://www.w3.org/1999/02/22-rdf-syntax-ns#"
   xmlns:svg="http://www.w3.org/2000/svg"
   xmlns="http://www.w3.org/2000/svg"
   xmlns:sodipodi="http://sodipodi.sourceforge.net/DTD/sodipodi-0.dtd"
   xmlns:inkscape="http://www.inkscape.org/namespaces/inkscape"
   sodipodi:docname="vlc.svg"
   inkscape:version="1.0.2 (e86c870879, 2021-01-15)"
   id="svg8"
   version="1.1"
   viewBox="0 0 67.733332 67.733335"
   height="256"
   width="256">
  <defs
     id="defs2" />
  <sodipodi:namedview
     inkscape:window-maximized="1"
     inkscape:window-y="0"
     inkscape:window-x="0"
     inkscape:window-height="1016"
     inkscape:window-width="1836"
     units="px"
     showgrid="false"
     inkscape:document-rotation="0"
     inkscape:current-layer="layer10"
     inkscape:document-units="px"
     inkscape:cy="101.80586"
     inkscape:cx="148.64472"
     inkscape:zoom="1.4142136"
     inkscape:pageshadow="2"
     inkscape:pageopacity="0"
     borderopacity="1.0"
     bordercolor="#666666"
     pagecolor="#c5c5c5"
     id="base" />
  <metadata
     id="metadata5">
    <rdf:RDF>
      <cc:Work
         rdf:about="">
        <dc:format>image/svg+xml</dc:format>
        <dc:type
           rdf:resource="http://purl.org/dc/dcmitype/StillImage" />
        <dc:title />
      </cc:Work>
    </rdf:RDF>
  </metadata>
  <g
     inkscape:label="Shadow"
     id="layer10"
     inkscape:groupmode="layer"
     style="display:inline;opacity:0.4">
    <path
       style="color:#000000;font-style:normal;font-variant:normal;font-weight:normal;font-stretch:normal;font-size:medium;line-height:normal;font-family:sans-serif;font-variant-ligatures:normal;font-variant-position:normal;font-variant-caps:normal;font-variant-numeric:normal;font-variant-alternates:normal;font-variant-east-asian:normal;font-feature-settings:normal;font-variation-settings:normal;text-indent:0;text-align:start;text-decoration:none;text-decoration-line:none;text-decoration-style:solid;text-decoration-color:#000000;letter-spacing:normal;word-spacing:normal;text-transform:none;writing-mode:lr-tb;direction:ltr;text-orientation:mixed;dominant-baseline:auto;baseline-shift:baseline;text-anchor:start;white-space:normal;shape-padding:0;shape-margin:0;inline-size:0;clip-rule:nonzero;display:inline;overflow:visible;visibility:visible;isolation:auto;mix-blend-mode:normal;color-interpolation:sRGB;color-interpolation-filters:linearRGB;solid-color:#000000;solid-opacity:1;vector-effect:none;fill:#000000;fill-opacity:1;fill-rule:nonzero;stroke:none;stroke-width:2.37887;stroke-linecap:round;stroke-linejoin:round;stroke-miterlimit:4;stroke-dasharray:none;stroke-dashoffset:0;stroke-opacity:1;paint-order:stroke markers fill;color-rendering:auto;image-rendering:auto;shape-rendering:auto;text-rendering:auto;enable-background:accumulate;stop-color:#000000"
       d="M 12.551071,41.389305 5.4227317,62.558348 H 62.31059 L 55.182248,41.389305 Z"
       id="path921" />
    <path
       style="display:inline;opacity:1;color:#000000;font-style:normal;font-variant:normal;font-weight:normal;font-stretch:normal;font-size:medium;line-height:normal;font-family:sans-serif;font-variant-ligatures:normal;font-variant-position:normal;font-variant-caps:normal;font-variant-numeric:normal;font-variant-alternates:normal;font-variant-east-asian:normal;font-feature-settings:normal;font-variation-settings:normal;text-indent:0;text-align:start;text-decoration:none;text-decoration-line:none;text-decoration-style:solid;text-decoration-color:#000000;letter-spacing:normal;word-spacing:normal;text-transform:none;writing-mode:lr-tb;direction:ltr;text-orientation:mixed;dominant-baseline:auto;baseline-shift:baseline;text-anchor:start;white-space:normal;shape-padding:0;shape-margin:0;inline-size:0;clip-rule:nonzero;overflow:visible;visibility:visible;isolation:auto;mix-blend-mode:normal;color-interpolation:sRGB;color-interpolation-filters:linearRGB;solid-color:#000000;solid-opacity:1;vector-effect:none;fill:#000000;fill-opacity:1;fill-rule:nonzero;stroke:none;stroke-width:3.77953;stroke-linecap:round;stroke-linejoin:round;stroke-miterlimit:4;stroke-dasharray:none;stroke-dashoffset:0;stroke-opacity:1;paint-order:stroke markers fill;color-rendering:auto;image-rendering:auto;shape-rendering:auto;text-rendering:auto;enable-background:accumulate;stop-color:#000000"
       d="m 239.99805,236.44141 a 4.4959517,4.4959517 0 0 1 -4.49414,4.49609 H 20.492188 A 4.4959517,4.4959517 0 0 1 16,236.5293 v 3.82226 a 4.4959517,4.4959517 0 0 0 4.492188,4.58594 H 235.50391 a 4.4959517,4.4959517 0 0 0 4.49414,-4.49609 H 240 v -4 z"
       id="path935"
       transform="scale(0.26458333)" />
  </g>
  <g
     inkscape:label="Graphic"
     id="g1031"
     inkscape:groupmode="layer"
     style="display:inline;opacity:1">
    <path
       id="path919"
       style="display:inline;opacity:1;color:#000000;font-style:normal;font-variant:normal;font-weight:normal;font-stretch:normal;font-size:medium;line-height:normal;font-family:sans-serif;font-variant-ligatures:normal;font-variant-position:normal;font-variant-caps:normal;font-variant-numeric:normal;font-variant-alternates:normal;font-variant-east-asian:normal;font-feature-settings:normal;font-variation-settings:normal;text-indent:0;text-align:start;text-decoration:none;text-decoration-line:none;text-decoration-style:solid;text-decoration-color:#000000;letter-spacing:normal;word-spacing:normal;text-transform:none;writing-mode:lr-tb;direction:ltr;text-orientation:mixed;dominant-baseline:auto;baseline-shift:baseline;text-anchor:start;white-space:normal;shape-padding:0;shape-margin:0;inline-size:0;clip-rule:nonzero;overflow:visible;visibility:visible;isolation:auto;mix-blend-mode:normal;color-interpolation:sRGB;color-interpolation-filters:linearRGB;solid-color:#000000;solid-opacity:1;vector-effect:none;fill:#cd6600;fill-opacity:1;fill-rule:nonzero;stroke:none;stroke-width:3.77953;stroke-linecap:round;stroke-linejoin:round;stroke-miterlimit:4;stroke-dasharray:none;stroke-dashoffset:0;stroke-opacity:1;paint-order:stroke markers fill;color-rendering:auto;image-rendering:auto;shape-rendering:auto;text-rendering:auto;enable-background:accumulate;stop-color:#000000"
       d="M 47.435547 151.93359 A 4.4959517 4.4959517 0 0 0 43.175781 154.99805 L 17.097656 232.44141 L 16 232.44141 L 16 236.35156 A 4.4959517 4.4959517 0 0 0 20.492188 240.9375 L 235.50391 240.9375 A 4.4959517 4.4959517 0 0 0 239.99805 236.44141 L 240 236.44141 L 240 232.44141 L 238.89844 232.44141 L 212.82031 154.99805 A 4.4959517 4.4959517 0 0 0 208.56055 151.93359 L 47.435547 151.93359 z M 50.669922 160.92578 L 205.33398 160.92578 L 229.25195 231.94727 L 26.751953 231.94727 L 50.669922 160.92578 z "
       transform="scale(0.26458333)" />
    <path
       id="rect943"
       style="fill:#fe8d1d;fill-opacity:1;stroke:#fe8d1d;stroke-width:2.37887;stroke-linecap:round;stroke-linejoin:round;stroke-miterlimit:4;stroke-dasharray:none;stroke-dashoffset:0;stroke-opacity:1;paint-order:stroke markers fill"
       d="M 12.551071,40.330971 5.4227317,61.500014 H 62.31059 L 55.182248,40.330971 Z" />
    <path
       id="path904"
       style="fill:#fe8d1d;fill-opacity:1;stroke:none;stroke-width:0.327377;stroke-linecap:round;stroke-linejoin:round;stroke-dasharray:7.85704, 0.327377;paint-order:stroke markers fill"
       d="M 32.261595,5.0438844 C 30.39565,5.2110595 29.969618,6.6606866 29.501557,8.1976965 l -1.93218,6.3432815 a 23.812499,23.812435 0 0 0 6.297289,0.84801 23.812499,23.812435 0 0 0 6.29729,-0.84801 L 38.231775,8.1976965 C 37.763714,6.6606866 37.337682,5.2110595 35.471737,5.0438844 Z M 23.899316,26.590371 20.05614,39.208203 a 24.804686,24.804683 0 0 0 13.810526,4.200259 24.804686,24.804683 0 0 0 13.810528,-4.200259 L 43.834018,26.590371 a 23.812498,23.812434 0 0 1 -9.967352,2.186429 23.812498,23.812434 0 0 1 -9.96735,-2.186429 z m -7.083805,23.256975 -2.131136,6.995953 a 27.904897,27.904894 0 0 0 4.134631,3.233911 h 30.094803 a 27.904897,27.904894 0 0 0 4.135149,-3.233911 L 50.917821,49.847346 A 24.804686,24.804683 0 0 1 33.866666,56.637628 24.804686,24.804683 0 0 1 16.815511,49.847346 Z" />
    <path
       style="fill:#ffffff;stroke:none;stroke-width:1.00012;stroke-linecap:round;stroke-linejoin:round;stroke-miterlimit:4;stroke-dasharray:none;paint-order:stroke markers fill"
       d="m 27.569377,14.540978 -3.670061,12.049393 a 23.812499,23.812435 0 0 0 9.96735,2.186429 23.812499,23.812435 0 0 0 9.967352,-2.186429 L 40.163956,14.540978 a 23.8125,23.812436 0 0 1 -6.29729,0.84801 23.8125,23.812436 0 0 1 -6.297289,-0.84801 z"
       id="path896" />
    <path
       id="path910"
       style="fill:#000000;stroke:none;stroke-width:1.00012;stroke-linecap:round;stroke-linejoin:round;stroke-miterlimit:4;stroke-dasharray:none;paint-order:stroke markers fill;opacity:0.4"
       d="m 20.05614,40.266537 -2.617928,8.594306 c -0.39784,1.306054 -0.195579,2.475896 0.698148,3.208591 4.436081,3.636779 9.994018,5.626321 15.730306,5.626528 0.04935,-0.0019 0.09782,0 0.143661,0 5.736288,-2.07e-4 11.294226,-1.989746 15.730305,-5.626528 0.893728,-0.732695 1.095988,-1.902537 0.69815,-3.208591 l -2.61793,-8.594306 c -4.08531,2.738257 -8.892416,4.200262 -13.810525,4.20026 -0.02397,0 -0.04786,-0.0016 -0.07183,-0.0016 -0.02397,6.9e-5 -0.04785,0.0016 -0.07183,0.0016 -4.918109,2e-6 -9.725216,-1.462003 -13.810526,-4.20026 z"
       sodipodi:nodetypes="cssccsscscsc" />
    <path
       id="path1140"
       style="fill:#ffffff;stroke:none;stroke-width:1.00012;stroke-linecap:round;stroke-linejoin:round;stroke-miterlimit:4;stroke-dasharray:none;paint-order:stroke markers fill"
       d="m 20.05614,39.208203 -2.617928,8.594306 c -0.39784,1.306054 -0.195579,2.475896 0.698148,3.208591 4.436081,3.636779 9.994018,5.626321 15.730306,5.626528 0.04935,-0.0019 0.09782,0 0.143661,0 5.736288,-2.07e-4 11.294226,-1.989746 15.730305,-5.626528 0.893728,-0.732695 1.095988,-1.902537 0.69815,-3.208591 l -2.61793,-8.594306 c -4.08531,2.738257 -8.892416,4.200262 -13.810525,4.20026 -0.02397,0 -0.04786,-0.0016 -0.07183,-0.0016 -0.02397,6.9e-5 -0.04785,0.0016 -0.07183,0.0016 -4.918109,2e-6 -9.725216,-1.462003 -13.810526,-4.20026 z"
       sodipodi:nodetypes="cssccsscscsc" />
  </g>
  <g
     inkscape:groupmode="layer"
     id="layer2"
     inkscape:label="Highlight"
     style="opacity:0.1">
    <path
       id="path1045"
       style="color:#000000;font-style:normal;font-variant:normal;font-weight:normal;font-stretch:normal;font-size:medium;line-height:normal;font-family:sans-serif;font-variant-ligatures:normal;font-variant-position:normal;font-variant-caps:normal;font-variant-numeric:normal;font-variant-alternates:normal;font-variant-east-asian:normal;font-feature-settings:normal;font-variation-settings:normal;text-indent:0;text-align:start;text-decoration:none;text-decoration-line:none;text-decoration-style:solid;text-decoration-color:#000000;letter-spacing:normal;word-spacing:normal;text-transform:none;writing-mode:lr-tb;direction:ltr;text-orientation:mixed;dominant-baseline:auto;baseline-shift:baseline;text-anchor:start;white-space:normal;shape-padding:0;shape-margin:0;inline-size:0;clip-rule:nonzero;display:inline;overflow:visible;visibility:visible;opacity:1;isolation:auto;mix-blend-mode:normal;color-interpolation:sRGB;color-interpolation-filters:linearRGB;solid-color:#000000;solid-opacity:1;vector-effect:none;fill:#ffffff;fill-opacity:1;fill-rule:nonzero;stroke:none;stroke-width:1;stroke-linecap:round;stroke-linejoin:round;stroke-miterlimit:4;stroke-dasharray:none;stroke-dashoffset:0;stroke-opacity:1;paint-order:stroke markers fill;color-rendering:auto;image-rendering:auto;shape-rendering:auto;text-rendering:auto;enable-background:accumulate;stop-color:#000000"
       d="m 12.550655,39.141541 a 1.1895533,1.1895532 0 0 0 -1.127063,0.810802 L 4.2948283,61.120042 a 1.1895533,1.1895532 0 0 0 0.055294,0.893484 L 11.423592,41.010677 a 1.1895533,1.1895532 0 0 1 1.127063,-0.810803 h 7.203178 l 0.302307,-0.991671 0.02015,-0.06666 z m 35.106383,0 0.02016,0.06666 0.302305,0.991671 h 7.202146 a 1.1895533,1.1895532 0 0 1 1.127061,0.810803 l 7.073472,21.003365 a 1.1895533,1.1895532 0 0 0 0.05529,-0.894 L 56.308706,39.952343 a 1.1895533,1.1895532 0 0 0 -1.127061,-0.810802 z" />
    <path
       id="path1088"
       style="display:inline;opacity:1;fill:#ffffff;fill-opacity:1;stroke:none;stroke-width:0.327377;stroke-linecap:round;stroke-linejoin:round;stroke-dasharray:7.85704, 0.327377;paint-order:stroke markers fill"
       d="M 32.261595,5.0438844 C 30.39565,5.2110595 29.969618,6.6606868 29.501557,8.1976967 L 29.4597,8.3346392 C 29.906163,7.1674937 30.557919,6.239993 32.095715,6.1022176 h 3.541903 c 1.537795,0.1377754 2.189548,1.0652761 2.636014,2.2324216 L 38.231775,8.1976967 C 37.763714,6.6606868 37.337682,5.2110595 35.471737,5.0438844 Z"
       sodipodi:nodetypes="ccccccccc" />
  </g>
</svg>
